<svg xmlns="http://www.w3.org/2000/svg" xmlns:xlink="http://www.w3.org/1999/xlink" width="720" height="40" viewBox="0 0 720 40">
  <defs>
    <style>
      .cls-1 {
        clip-path: url(#clip-mypage_dt_tab_プロフィール変更);
      }

      .cls-2, .cls-6 {
        fill: #fff;
      }

      .cls-2 {
        stroke: #efefef;
      }

      .cls-3 {
        fill: #b0ad9e;
      }

      .cls-4 {
        stroke: none;
      }

      .cls-5 {
        fill: none;
      }
    </style>
    <clipPath id="clip-mypage_dt_tab_プロフィール変更">
      <rect width="720" height="40"/>
    </clipPath>
  </defs>
  <g id="mypage_dt_tab_プロフィール変更" class="cls-1">
    <rect class="cls-6" width="720" height="40"/>
    <g id="長方形_1217" data-name="長方形 1217" class="cls-2">
      <path class="cls-4" d="M3,0H141a3,3,0,0,1,3,3V40a0,0,0,0,1,0,0H0a0,0,0,0,1,0,0V3A3,3,0,0,1,3,0Z"/>
      <path class="cls-5" d="M3,.5H141A2.5,2.5,0,0,1,143.5,3V39a.5.5,0,0,1-.5.5H1A.5.5,0,0,1,.5,39V3A2.5,2.5,0,0,1,3,.5Z"/>
    </g>
    <g id="長方形_1234" data-name="長方形 1234" class="cls-2" transform="translate(144)">
      <path class="cls-4" d="M3,0H141a3,3,0,0,1,3,3V40a0,0,0,0,1,0,0H0a0,0,0,0,1,0,0V3A3,3,0,0,1,3,0Z"/>
      <path class="cls-5" d="M3,.5H141A2.5,2.5,0,0,1,143.5,3V39a.5.5,0,0,1-.5.5H1A.5.5,0,0,1,.5,39V3A2.5,2.5,0,0,1,3,.5Z"/>
    </g>
    <g id="長方形_1235" data-name="長方形 1235" class="cls-2" transform="translate(288)">
      <path class="cls-4" d="M3,0H141a3,3,0,0,1,3,3V40a0,0,0,0,1,0,0H0a0,0,0,0,1,0,0V3A3,3,0,0,1,3,0Z"/>
      <path class="cls-5" d="M3,.5H141A2.5,2.5,0,0,1,143.5,3V39a.5.5,0,0,1-.5.5H1A.5.5,0,0,1,.5,39V3A2.5,2.5,0,0,1,3,.5Z"/>
    </g>
    <g id="長方形_1236" data-name="長方形 1236" class="cls-2" transform="translate(432)">
      <path class="cls-4" d="M3,0H141a3,3,0,0,1,3,3V40a0,0,0,0,1,0,0H0a0,0,0,0,1,0,0V3A3,3,0,0,1,3,0Z"/>
      <path class="cls-5" d="M3,.5H141A2.5,2.5,0,0,1,143.5,3V39a.5.5,0,0,1-.5.5H1A.5.5,0,0,1,.5,39V3A2.5,2.5,0,0,1,3,.5Z"/>
    </g>
    <g id="長方形_1237" data-name="長方形 1237" class="cls-2" transform="translate(576)">
      <path class="cls-4" d="M3,0H141a3,3,0,0,1,3,3V40a0,0,0,0,1,0,0H0a0,0,0,0,1,0,0V3A3,3,0,0,1,3,0Z"/>
      <path class="cls-5" d="M3,.5H141A2.5,2.5,0,0,1,143.5,3V39a.5.5,0,0,1-.5.5H1A.5.5,0,0,1,.5,39V3A2.5,2.5,0,0,1,3,.5Z"/>
    </g>
    <path id="サインアップ" class="cls-3" d="M-37.926-9.9a.885.885,0,0,1,.868-.882.9.9,0,0,1,.882.882.885.885,0,0,1-.882.868A.872.872,0,0,1-37.926-9.9Zm-.742,0a1.6,1.6,0,0,0,1.61,1.61A1.613,1.613,0,0,0-35.434-9.9a1.622,1.622,0,0,0-1.624-1.61A1.61,1.61,0,0,0-38.668-9.9ZM-46.1-4.27a18.291,18.291,0,0,1-2.17,3.836l1.526.644A20.309,20.309,0,0,0-44.688-3.7a29.845,29.845,0,0,0,1.232-4.312c.07-.308.2-.84.294-1.19l-1.6-.322A20.52,20.52,0,0,1-46.1-4.27Zm6.9-.434A47.759,47.759,0,0,1-37.674.168l1.6-.518c-.378-1.316-1.12-3.5-1.652-4.844-.56-1.414-1.5-3.444-2.058-4.494l-1.442.476A39.669,39.669,0,0,1-39.2-4.7Zm14.7-5.39a4.247,4.247,0,0,1-1.218.14h-5.194a14.979,14.979,0,0,1-1.526-.1V-8.47c.224-.014.98-.084,1.526-.084h5.138A11.518,11.518,0,0,1-28-4.858a15.731,15.731,0,0,1-5.754,4.1L-32.62.42A17.917,17.917,0,0,0-27.23-3.6,30.282,30.282,0,0,1-23.534.49L-22.288-.6a37.212,37.212,0,0,0-4-4.1A19.162,19.162,0,0,0-24-8.694a4.832,4.832,0,0,1,.406-.728Zm14.854.056a5.184,5.184,0,0,1-1.078.084H-17.7c-.63,0-1.19-.014-1.582-.042.028.336.056.7.056,1.036v2.982c0,.308-.028.63-.056,1.008h1.61a9.827,9.827,0,0,1-.042-1.008v-2.6h7.28a10.471,10.471,0,0,1-1.3,4.48A8.908,8.908,0,0,1-16.912-.63L-15.694.6A9.982,9.982,0,0,0-10.388-3.36a13.669,13.669,0,0,0,1.6-5.222,5.768,5.768,0,0,1,.21-.77Zm4.018,5.516c.462-.028,1.288-.056,2.072-.056H4.06c.616,0,1.246.042,1.554.056V-6.244c-.336.028-.882.084-1.568.084h-7.6c-.756,0-1.624-.042-2.072-.084ZM19.4-8.876a17.452,17.452,0,0,0-1.3-2.072l-.938.434a13.991,13.991,0,0,1,1.288,2.1Zm-1.792.77a17.26,17.26,0,0,0-1.274-2.114l-.938.406a12.755,12.755,0,0,1,1.232,2.142ZM12.628-9.184c0-.5.07-1.106.112-1.568H11.018a10,10,0,0,1,.126,1.568v8.092A14.835,14.835,0,0,1,11.032.7H12.74c-.056-.518-.1-1.358-.1-1.792l-.014-4.326a39.122,39.122,0,0,1,5.306,2.17L18.55-4.76A45.352,45.352,0,0,0,12.628-7ZM27.552-9.24h1.624v2.786c0,.154-.042.2-.21.2s-.756.014-1.344-.014a5.138,5.138,0,0,1,.35,1.148,5.517,5.517,0,0,0,1.946-.182c.448-.182.518-.518.518-1.106V-9.24h3.7v-1.2H28.658v-1.3h-1.33v1.3h-5.4v1.2h4.4a3.919,3.919,0,0,1-2.086,3.766,4.752,4.752,0,0,1,.952.882,4.92,4.92,0,0,0,2.366-4.62Zm3.486,1.148a15.069,15.069,0,0,1,2.268,2.73l1.106-.658a15.086,15.086,0,0,0-2.38-2.66ZM23.87-8.624A6.2,6.2,0,0,1,21.658-6.23a6.533,6.533,0,0,1,.9.77A8.654,8.654,0,0,0,25.1-8.288Zm2.184,5.25H30.3A7.369,7.369,0,0,1,28.084-1.68,6.456,6.456,0,0,1,26.04-3.36Zm5.32-1.106-.224.056h-4c.224-.252.434-.518.63-.784L26.4-5.46a9.073,9.073,0,0,1-4.41,3.052,3.72,3.72,0,0,1,.826.966A13.991,13.991,0,0,0,25.1-2.674a7.983,7.983,0,0,0,1.652,1.568A21.776,21.776,0,0,1,21.6-.028a3.775,3.775,0,0,1,.63,1.162A21.107,21.107,0,0,0,28.014-.35a15.948,15.948,0,0,0,5.7,1.456,5.718,5.718,0,0,1,.77-1.218,18.423,18.423,0,0,1-5.068-.966,8.006,8.006,0,0,0,2.814-2.828Zm7.042.07V-5.6h3.01v.5a5.508,5.508,0,0,1-.028.686Zm0-3.388h3.01v1.19h-3.01Zm7.476,0v1.19H42.784V-7.8Zm0,3.388H42.756a5.284,5.284,0,0,0,.028-.672V-5.6h3.108ZM47.18-3.346V-8.862h-4.4V-9.87h5.278v-1.176H35.952V-9.87h5.474v1.008H37.184v5.516h4.032a3.29,3.29,0,0,1-.994,1.582A5.657,5.657,0,0,1,38.654-3.3l-1.134.448A6.753,6.753,0,0,0,39.144-1.05,13.157,13.157,0,0,1,35.672-.028a5.679,5.679,0,0,1,.8,1.148A12.072,12.072,0,0,0,40.362-.294c1.96.966,4.508,1.2,7.644,1.316a3.236,3.236,0,0,1,.546-1.288,20.977,20.977,0,0,1-7.112-.882,4.325,4.325,0,0,0,1.162-2.2Z" transform="translate(648 24)"/>
    <path id="サインアップ-2" data-name="サインアップ" class="cls-3" d="M-25.116-10.808a8.716,8.716,0,0,1-.308,1.148A15.246,15.246,0,0,1-27.16-6.076c-1.12-.84-2.66-1.9-3.822-2.646L-31.92-7.6a42,42,0,0,1,3.85,2.744A15.4,15.4,0,0,1-33.53-.574L-32.256.56a17.648,17.648,0,0,0,5.362-4.438,29.606,29.606,0,0,1,3.206,3.15l1.134-1.246a37.518,37.518,0,0,0-3.4-3.15,19.6,19.6,0,0,0,2-3.976,10.187,10.187,0,0,1,.518-1.12Zm5.488,6.286c.462-.028,1.288-.056,2.072-.056H-9.94c.616,0,1.246.042,1.554.056V-6.244c-.336.028-.882.084-1.568.084h-7.6c-.756,0-1.624-.042-2.072-.084ZM-4.9.462a7.865,7.865,0,0,0,2.492-3.92,30.671,30.671,0,0,0,.434-5.978,10.479,10.479,0,0,1,.07-1.12H-3.528a4.363,4.363,0,0,1,.112,1.134,24.275,24.275,0,0,1-.406,5.586A6.586,6.586,0,0,1-6.23-.434Zm6.034,0a2.917,2.917,0,0,1,.532-.35,14.683,14.683,0,0,0,4.76-3.864l-.84-1.2a9.849,9.849,0,0,1-3.808,3.22V-9.478a8.432,8.432,0,0,1,.07-1.12H.224a10.261,10.261,0,0,1,.084,1.12V-1.19a4.038,4.038,0,0,1-.1.882Zm14.2-7.77v1.022H13.314V-7.308Zm3.262,1.022H16.506V-7.308h2.086Zm-2.086,2v-1.05h2.086v1.05Zm-3.192,0v-1.05H15.33v1.05Zm0,.98H15.33v2.156h1.176V-3.3h2.086v.98c0,.168-.056.224-.21.224s-.7.014-1.288-.014a3.569,3.569,0,0,1,.35,1.05,5.324,5.324,0,0,0,1.876-.182c.406-.182.5-.476.5-1.064V-8.274H18.1c-.266-.154-.588-.322-.952-.49a13.841,13.841,0,0,0,2.674-1.9l-.784-.63-.266.07H12.152v1.022H17.57a11.284,11.284,0,0,1-1.54.938c-.616-.266-1.26-.518-1.806-.714l-.84.7c.714.28,1.554.644,2.31,1.008H12.1v7.168h1.218Zm-2.2-5.95a11.105,11.105,0,0,0-2.394-2.184l-.91.812a10.771,10.771,0,0,1,2.338,2.31Zm-.35,2.94H7.6v1.2H9.52v3.346A21.837,21.837,0,0,1,7.434-.308L8.05.98C8.834.392,9.534-.182,10.206-.756A4.665,4.665,0,0,0,14,.854c1.624.056,4.564.028,6.174-.042a6.476,6.476,0,0,1,.42-1.274c-1.778.126-5,.168-6.58.1-1.54-.07-2.646-.49-3.248-1.47ZM28.182-4.97V-6.2H25.7V-8.708H27.79V-9.926H23.968c.14-.5.266-1.036.378-1.568L23.1-11.732a10.708,10.708,0,0,1-1.666,4.3,7.605,7.605,0,0,1,1.064.756,10.176,10.176,0,0,0,1.036-2.03h.854V-6.2H21.644V-4.97H24.3A6.827,6.827,0,0,1,21.476.084a5.194,5.194,0,0,1,.924.994,7.537,7.537,0,0,0,2.772-3.92A31.985,31.985,0,0,1,27.314-.084l.9-1.12c-.406-.462-2.016-2.282-2.716-2.968.056-.266.084-.532.126-.8Zm1.666,3.4V-9.31H32.4v7.742Zm-1.26-8.974V.7h1.26V-.35H32.4v.9h1.316V-10.542Z" transform="translate(504 24)"/>
    <path id="サインアップ-3" data-name="サインアップ" class="cls-3" d="M-30.772-9.436a3.288,3.288,0,0,1-1.05.14h-3.36c.07-.112.14-.238.2-.35.154-.28.448-.826.728-1.246l-1.624-.532a6.206,6.206,0,0,1-.518,1.26A11.881,11.881,0,0,1-40.8-5.53l1.232.91a14.576,14.576,0,0,0,3.556-3.416h4.368a10.513,10.513,0,0,1-2.128,4.13,11.313,11.313,0,0,1-5.614,3.5l1.3,1.162a12.728,12.728,0,0,0,5.6-3.878,13.856,13.856,0,0,0,2.464-4.76,4.791,4.791,0,0,1,.392-.854Zm5.712-1.176c.028.294.056.784.056,1.036v4.69c0,.406-.056.9-.07,1.134h1.638c-.028-.28-.056-.77-.056-1.134v-4.69c0-.392.028-.742.056-1.036Zm6.454-.112a10.825,10.825,0,0,1,.084,1.288v2.408c0,2.45-.182,3.542-1.162,4.648A6.481,6.481,0,0,1-23.072-.546L-21.91.672a7.779,7.779,0,0,0,3.346-2.044c1.036-1.176,1.54-2.366,1.54-5.572V-9.436c0-.5.028-.924.056-1.288ZM-7.1-8.176l-1.316.434a25.6,25.6,0,0,1,1.12,3.08l1.316-.476C-6.16-5.754-6.846-7.588-7.1-8.176Zm3.57.406A9.717,9.717,0,0,1-5.39-2.982,9.54,9.54,0,0,1-9.982-.028l1.162,1.19A10.967,10.967,0,0,0-4.214-2.226,11.262,11.262,0,0,0-2.254-6.44a7.773,7.773,0,0,1,.266-.84Zm-6.832.322-1.316.476A28.593,28.593,0,0,1-10.4-3.78l1.33-.49C-9.338-5.026-10.038-6.8-10.36-7.448ZM12.124-9.282a.863.863,0,0,1-.868-.868.872.872,0,0,1,.868-.868.875.875,0,0,1,.882.868A.867.867,0,0,1,12.124-9.282ZM3.178-9.744a12.665,12.665,0,0,1-1.512-.1v1.554c.35-.014.91-.042,1.512-.042h6.874a9.8,9.8,0,0,1-1.75,4.3A9.3,9.3,0,0,1,2.828-.7L4.032.616A10.889,10.889,0,0,0,9.59-3.178a14.016,14.016,0,0,0,2.1-5.138l.07-.266a1.526,1.526,0,0,0,.364.042,1.613,1.613,0,0,0,1.624-1.61,1.622,1.622,0,0,0-1.624-1.61,1.619,1.619,0,0,0-1.61,1.61,1.738,1.738,0,0,0,.042.378,4.439,4.439,0,0,1-.588.028Zm16.478-1.54H15.3v1.022h4.354ZM18.41-2.73V-.714H16.338V-2.73Zm1.162-1.05H15.19v4.7h1.148V.336h3.234Zm-4.354-.868h4.4V-5.67h-4.4Zm0-1.876h4.4V-7.532h-4.4ZM14.56-8.4h5.586V-9.436H14.56ZM23.016-.266c-.714,0-.854-.112-.854-.672V-5.264h3.276v.728h1.3V-11H20.748v1.246h4.69V-6.51H20.846V-.938c0,1.512.49,1.9,2.03,1.9h2.576c1.47,0,1.848-.644,2.03-2.9a3.8,3.8,0,0,1-1.218-.532c-.1,1.848-.2,2.2-.9,2.2Zm15.568-1.68H35.6v-.868h2.982ZM35.6-4.634h2.982v.8H35.6ZM31.654-7.252v-.84h2.632v.84Zm6.706-.84v.84H35.6v-.84Zm3,4.256H39.9V-5.558H35.6v-.826h4.074V-8.96H35.6v-.714h5.46v-1.05H35.6v-1.022H34.286v1.022H28.98v1.05h5.306v.714H30.408v2.576h3.878v.826H30.044v.924h4.242v.8h-5.6v1.022h5.6v.868H29.918v.98h4.368v.742c0,.238-.084.308-.336.322-.224.014-1.064.014-1.834-.014a4.022,4.022,0,0,1,.448,1.05,8.245,8.245,0,0,0,2.38-.182C35.42.77,35.6.476,35.6-.238V-.966h2.982v.6H39.9v-2.45h1.456Z" transform="translate(360 24)"/>
    <path id="サインアップ-4" data-name="サインアップ" class="cls-3" d="M-30.856-10.01a3.567,3.567,0,0,1-.9.1h-6.79a12.556,12.556,0,0,1-1.512-.112v1.568c.35-.028.91-.056,1.512-.056h6.874a9.667,9.667,0,0,1-1.75,4.3,9.24,9.24,0,0,1-5.46,3.332l1.19,1.316A10.871,10.871,0,0,0-32.116-3.36,13.879,13.879,0,0,0-30.03-8.5a4.254,4.254,0,0,1,.252-.812Zm12.068,3.444L-18.8-7.588a6.257,6.257,0,0,1,.056-1.036H-20.2a9.216,9.216,0,0,1,.1,1.036c.014.28.028.616.042,1.022h-4.046a7.451,7.451,0,0,1-1.134-.084v1.386c.364-.028.784-.056,1.162-.056h3.43a13.917,13.917,0,0,1-5.068,4.06l.966,1.106A15.977,15.977,0,0,0-20.02-4.1c.028,1.316.042,2.632.042,3.43,0,.28-.126.434-.378.434a13.311,13.311,0,0,1-1.666-.14L-21.938.9c.588.042,1.484.084,2.086.084A1.076,1.076,0,0,0-18.662-.1c-.014-1.372-.056-3.5-.1-5.222h1.876c.28,0,.7.028.98.042V-6.65a7.176,7.176,0,0,1-1.022.084Zm15.456-1.75v6.3H-10.6v-6.3Zm1.47-.21c0-.392,0-.826.028-1.2-.462.014-.966.014-1.288.014h-7.6c-.35,0-.8,0-1.344-.028.014.378.014.854.014,1.218v6.874c0,.56-.028,1.68-.028,1.806h1.512c-.014-.07-.014-.406-.014-.784h7.252c-.014.392-.014.714-.028.784h1.526c0-.112-.028-1.316-.028-1.806Zm3.234,4c.462-.028,1.288-.056,2.072-.056H11.06c.616,0,1.246.042,1.554.056V-6.244c-.336.028-.882.084-1.568.084h-7.6c-.756,0-1.624-.042-2.072-.084Zm23.17,3.108V-.308h-6.09V-1.414Zm-.966-3.752v.994H18.452v-.994Zm-5.124,1.96h6.426V-6.132H17.22V1.12h1.232V.686h6.09v.406h1.3V-2.394H18.452Zm8.918-7.532H22.946a8.188,8.188,0,0,0,.392-.784l-1.26-.308A6.2,6.2,0,0,1,20.8-9.856v-.882H17.4c.14-.252.266-.518.378-.77l-1.218-.322a7.7,7.7,0,0,1-2.03,2.856A8.293,8.293,0,0,1,15.6-8.26a8.709,8.709,0,0,0,1.162-1.414h.434a8.574,8.574,0,0,1,.658,1.386l1.162-.35a7.6,7.6,0,0,0-.5-1.036h2.114a5.913,5.913,0,0,1-.658.546c.126.056.28.14.448.224h-.07v1.022H15.148v2.674h1.218V-6.86H25.7v1.652h1.274V-7.882h-5.39V-8.9H21.56a7.156,7.156,0,0,0,.672-.77h.994a6.67,6.67,0,0,1,.882,1.414l1.218-.364a6.8,6.8,0,0,0-.672-1.05H27.37ZM33-2.982c-.476.168-.98.322-1.456.476V-5.67h1.33v-1.2h-1.33V-9.66H33.1v-1.2H28.644v1.2H30.3v2.786H28.784v1.2H30.3v3.556c-.672.21-1.288.378-1.792.518l.308,1.33c1.26-.406,2.884-.952,4.41-1.484Zm1.89-4.48h1.834v1.54H34.888Zm0-2.548h1.834V-8.5H34.888ZM39.62-8.5H37.828V-10.01H39.62Zm0,2.576H37.828v-1.54H39.62ZM37.94-.532V-2.2h3.108V-3.374H37.94V-4.816h2.926v-6.3H33.7v6.3H36.61v1.442H33.572V-2.2H36.61V-.532H32.55V.658H41.5V-.532Z" transform="translate(216 24)"/>
    <path id="サインアップ-5" data-name="サインアップ" class="cls-3" d="M-42.9-5.642a7.209,7.209,0,0,1,2.2-.364h.084a9.066,9.066,0,0,1-2.072,3.122,14.45,14.45,0,0,1-.21-2.422Zm-2.6,4.284c-.49,0-.714-.252-.714-.77a4.073,4.073,0,0,1,2.086-2.954A17.355,17.355,0,0,0-43.82-1.96,3.32,3.32,0,0,1-45.5-1.358Zm5.4-6.664a5.224,5.224,0,0,1-.154.9,3.54,3.54,0,0,0-.392-.014,8.948,8.948,0,0,0-2.212.308c.042-.518.084-1.022.126-1.5a44.815,44.815,0,0,0,4.956-.5l-.014-1.288a26.189,26.189,0,0,1-4.788.588c.056-.336.112-.658.168-.924a6.5,6.5,0,0,1,.168-.658l-1.456-.042a6.7,6.7,0,0,1-.028.728l-.1.938h-.756a22.057,22.057,0,0,1-2.408-.182l.042,1.288c.588.042,1.666.1,2.324.1h.672c-.056.6-.112,1.246-.14,1.89C-46-5.516-47.53-3.654-47.53-1.876A1.675,1.675,0,0,0-45.78,0a4.875,4.875,0,0,0,2.254-.672c.056.238.126.462.2.672l1.274-.378c-.112-.336-.224-.7-.322-1.078a11.172,11.172,0,0,0,3-4.368,2.28,2.28,0,0,1,1.75,2.17c0,1.61-1.344,2.926-3.92,3.206L-40.81.714c3.29-.518,4.55-2.324,4.55-4.3a3.5,3.5,0,0,0-2.73-3.332c.084-.252.182-.588.266-.77Zm18.186.56a22.777,22.777,0,0,0-3.318-1.862l-.7,1.078a17.8,17.8,0,0,1,3.234,1.932ZM-27.034-9.59a14.633,14.633,0,0,1-2.016.476c.21-.784.392-1.554.5-2.03l-1.526-.14a11.054,11.054,0,0,1-.406,2.352c-.49.042-.966.056-1.428.056-.56,0-1.218-.028-1.764-.084l.1,1.288c.56.042,1.134.056,1.666.056.336,0,.658-.014.994-.028a20.094,20.094,0,0,1-2.9,5.054l1.344.686A24.338,24.338,0,0,0-29.456-7.8a20.686,20.686,0,0,0,2.464-.49Zm.56,7.742a1.2,1.2,0,0,1-1.386,1.3c-.952,0-1.428-.406-1.428-.994,0-.56.6-.966,1.526-.966a4.67,4.67,0,0,1,1.274.168C-26.474-2.142-26.474-1.988-26.474-1.848Zm-.21-5c.028.91.1,2.212.154,3.3a6.3,6.3,0,0,0-1.162-.1c-1.722,0-2.9.924-2.9,2.226,0,1.442,1.3,2.128,2.912,2.128,1.82,0,2.534-.952,2.534-2.128v-.378a11.068,11.068,0,0,1,2.072,1.54l.742-1.19a9.205,9.205,0,0,0-2.87-1.75c-.042-.784-.084-1.582-.1-2.03a15.776,15.776,0,0,1,.014-1.624Zm13.174,1.3a22.733,22.733,0,0,1,2.618-.14,19.968,19.968,0,0,1,2.352.168l.042-1.33a23.187,23.187,0,0,0-2.422-.126,24.3,24.3,0,0,0-2.59.14Zm.98-3.976a23.752,23.752,0,0,1-2.492.476l.168-.812c.056-.28.168-.84.266-1.19l-1.694-.126a6.649,6.649,0,0,1-.042,1.26c-.028.252-.1.616-.168,1.022-.49.042-.952.056-1.386.056a12.843,12.843,0,0,1-1.694-.112l.028,1.372c.5.028,1.008.056,1.652.056.35,0,.714-.014,1.106-.028-.1.448-.21.91-.336,1.33A30.119,30.119,0,0,1-19.474,0l1.54.518A41.565,41.565,0,0,0-15.75-5.866c.154-.588.308-1.2.434-1.806a27.526,27.526,0,0,0,2.786-.462Zm-1.75,5.978a9.188,9.188,0,0,0-.21,1.736c0,1.372,1.162,2.114,3.416,2.114A19.08,19.08,0,0,0-8.33.112L-8.288-1.3a15.511,15.511,0,0,1-2.772.28c-1.764,0-2.1-.56-2.1-1.19a5.224,5.224,0,0,1,.2-1.2Zm8.008-.476L-4.956-2.66c.238-.322.546-.784.854-1.176.644-.826,1.722-2.282,2.324-3.052.434-.56.686-.63,1.246-.042.644.714,1.694,2.044,2.576,3.066C2.968-2.8,4.2-1.428,5.236-.462L6.342-1.75C5.068-2.884,3.78-4.256,2.926-5.194S.966-7.532.1-8.4c-.952-.952-1.778-.84-2.646.182-.826.98-1.96,2.492-2.646,3.206A9.833,9.833,0,0,1-6.272-4.018Zm17.08,1.806c-.56,0-1.274-.728-1.274-2.324A4.647,4.647,0,0,1,13.482-8.82a19.208,19.208,0,0,1-.756,3.57C12.082-3.108,11.41-2.212,10.808-2.212ZM14.532.462c3.388-.476,5.25-2.492,5.25-5.39a5.138,5.138,0,0,0-5.446-5.236,6.025,6.025,0,0,0-6.2,5.754c0,2.31,1.26,3.864,2.632,3.864S13.3-2.128,14.14-4.956a31.73,31.73,0,0,0,.826-3.892A3.667,3.667,0,0,1,18.3-4.984a3.982,3.982,0,0,1-3.36,3.934,7.851,7.851,0,0,1-1.232.2Zm14.8-7.77v1.022H27.314V-7.308Zm3.262,1.022H30.506V-7.308h2.086Zm-2.086,2v-1.05h2.086v1.05Zm-3.192,0v-1.05H29.33v1.05Zm0,.98H29.33v2.156h1.176V-3.3h2.086v.98c0,.168-.056.224-.21.224s-.7.014-1.288-.014a3.569,3.569,0,0,1,.35,1.05,5.324,5.324,0,0,0,1.876-.182c.406-.182.5-.476.5-1.064V-8.274H32.1c-.266-.154-.588-.322-.952-.49a13.841,13.841,0,0,0,2.674-1.9l-.784-.63-.266.07H26.152v1.022H31.57a11.284,11.284,0,0,1-1.54.938c-.616-.266-1.26-.518-1.806-.714l-.84.7c.714.28,1.554.644,2.31,1.008H26.1v7.168h1.218Zm-2.2-5.95a11.105,11.105,0,0,0-2.394-2.184l-.91.812a10.771,10.771,0,0,1,2.338,2.31Zm-.35,2.94H21.6v1.2H23.52v3.346A21.837,21.837,0,0,1,21.434-.308L22.05.98c.784-.588,1.484-1.162,2.156-1.736A4.665,4.665,0,0,0,28,.854c1.624.056,4.564.028,6.174-.042a6.476,6.476,0,0,1,.42-1.274c-1.778.126-5,.168-6.58.1-1.54-.07-2.646-.49-3.248-1.47ZM42.182-4.97V-6.2H39.7V-8.708H41.79V-9.926H37.968c.14-.5.266-1.036.378-1.568L37.1-11.732a10.708,10.708,0,0,1-1.666,4.3,7.605,7.605,0,0,1,1.064.756,10.176,10.176,0,0,0,1.036-2.03h.854V-6.2H35.644V-4.97H38.3A6.827,6.827,0,0,1,35.476.084a5.194,5.194,0,0,1,.924.994,7.537,7.537,0,0,0,2.772-3.92A31.984,31.984,0,0,1,41.314-.084l.9-1.12c-.406-.462-2.016-2.282-2.716-2.968.056-.266.084-.532.126-.8Zm1.666,3.4V-9.31H46.4v7.742Zm-1.26-8.974V.7h1.26V-.35H46.4v.9h1.316V-10.542Z" transform="translate(72 24)"/>
  </g>
</svg>
