<svg xmlns="http://www.w3.org/2000/svg" xmlns:xlink="http://www.w3.org/1999/xlink" width="375" height="40" viewBox="0 0 375 40">
  <defs>
    <style>
      .cls-1 {
        clip-path: url(#clip-mypage_mb_tab_プロフィール変更);
      }

      .cls-2, .cls-6 {
        fill: #fff;
      }

      .cls-2 {
        stroke: #efefef;
      }

      .cls-3 {
        fill: #b0ad9e;
      }

      .cls-4 {
        stroke: none;
      }

      .cls-5 {
        fill: none;
      }
    </style>
    <clipPath id="clip-mypage_mb_tab_プロフィール変更">
      <rect width="375" height="40"/>
    </clipPath>
  </defs>
  <g id="mypage_mb_tab_プロフィール変更" class="cls-1">
    <rect class="cls-6" width="375" height="40"/>
    <g id="長方形_1212" data-name="長方形 1212" class="cls-2" transform="translate(300)">
      <path class="cls-4" d="M3,0H72a3,3,0,0,1,3,3V40a0,0,0,0,1,0,0H0a0,0,0,0,1,0,0V3A3,3,0,0,1,3,0Z"/>
      <path class="cls-5" d="M3,.5H72A2.5,2.5,0,0,1,74.5,3V39a.5.5,0,0,1-.5.5H1A.5.5,0,0,1,.5,39V3A2.5,2.5,0,0,1,3,.5Z"/>
    </g>
    <g id="長方形_1211" data-name="長方形 1211" class="cls-2" transform="translate(225)">
      <path class="cls-4" d="M3,0H72a3,3,0,0,1,3,3V40a0,0,0,0,1,0,0H0a0,0,0,0,1,0,0V3A3,3,0,0,1,3,0Z"/>
      <path class="cls-5" d="M3,.5H72A2.5,2.5,0,0,1,74.5,3V39a.5.5,0,0,1-.5.5H1A.5.5,0,0,1,.5,39V3A2.5,2.5,0,0,1,3,.5Z"/>
    </g>
    <g id="長方形_1210" data-name="長方形 1210" class="cls-2" transform="translate(150)">
      <path class="cls-4" d="M3,0H72a3,3,0,0,1,3,3V40a0,0,0,0,1,0,0H0a0,0,0,0,1,0,0V3A3,3,0,0,1,3,0Z"/>
      <path class="cls-5" d="M3,.5H72A2.5,2.5,0,0,1,74.5,3V39a.5.5,0,0,1-.5.5H1A.5.5,0,0,1,.5,39V3A2.5,2.5,0,0,1,3,.5Z"/>
    </g>
    <g id="長方形_1209" data-name="長方形 1209" class="cls-2" transform="translate(75)">
      <path class="cls-4" d="M3,0H72a3,3,0,0,1,3,3V40a0,0,0,0,1,0,0H0a0,0,0,0,1,0,0V3A3,3,0,0,1,3,0Z"/>
      <path class="cls-5" d="M3,.5H72A2.5,2.5,0,0,1,74.5,3V39a.5.5,0,0,1-.5.5H1A.5.5,0,0,1,.5,39V3A2.5,2.5,0,0,1,3,.5Z"/>
    </g>
    <g id="長方形_1199" data-name="長方形 1199" class="cls-2">
      <path class="cls-4" d="M3,0H72a3,3,0,0,1,3,3V40a0,0,0,0,1,0,0H0a0,0,0,0,1,0,0V3A3,3,0,0,1,3,0Z"/>
      <path class="cls-5" d="M3,.5H72A2.5,2.5,0,0,1,74.5,3V39a.5.5,0,0,1-.5.5H1A.5.5,0,0,1,.5,39V3A2.5,2.5,0,0,1,3,.5Z"/>
    </g>
    <path id="サインアップ" class="cls-3" d="M-17.09-7.07a.632.632,0,0,1,.62-.63.64.64,0,0,1,.63.63.632.632,0,0,1-.63.62A.623.623,0,0,1-17.09-7.07Zm-.53,0a1.144,1.144,0,0,0,1.15,1.15,1.152,1.152,0,0,0,1.16-1.15,1.159,1.159,0,0,0-1.16-1.15A1.15,1.15,0,0,0-17.62-7.07Zm-5.31,4.02A13.065,13.065,0,0,1-24.48-.31l1.09.46a14.506,14.506,0,0,0,1.47-2.79,21.318,21.318,0,0,0,.88-3.08c.05-.22.14-.6.21-.85l-1.14-.23A14.657,14.657,0,0,1-22.93-3.05ZM-18-3.36A34.114,34.114,0,0,1-16.91.12l1.14-.37c-.27-.94-.8-2.5-1.18-3.46-.4-1.01-1.07-2.46-1.47-3.21l-1.03.34A28.335,28.335,0,0,1-18-3.36ZM-7.5-7.21a3.033,3.033,0,0,1-.87.1h-3.71a10.7,10.7,0,0,1-1.09-.07v1.13c.16-.01.7-.06,1.09-.06h3.67A8.227,8.227,0,0,1-10-3.47,11.236,11.236,0,0,1-14.11-.54l.81.84A12.8,12.8,0,0,0-9.45-2.57,21.63,21.63,0,0,1-6.81.35l.89-.78A26.58,26.58,0,0,0-8.78-3.36,13.687,13.687,0,0,0-7.14-6.21a3.452,3.452,0,0,1,.29-.52Zm10.61.04a3.7,3.7,0,0,1-.77.06H-2.64c-.45,0-.85-.01-1.13-.03.02.24.04.5.04.74v2.13c0,.22-.02.45-.04.72h1.15a7.019,7.019,0,0,1-.03-.72V-6.13h5.2a7.48,7.48,0,0,1-.93,3.2A6.363,6.363,0,0,1-2.08-.45l.87.88A7.13,7.13,0,0,0,2.58-2.4,9.764,9.764,0,0,0,3.72-6.13a4.12,4.12,0,0,1,.15-.55ZM5.98-3.23c.33-.02.92-.04,1.48-.04H12.9c.44,0,.89.03,1.11.04V-4.46c-.24.02-.63.06-1.12.06H7.46c-.54,0-1.16-.03-1.48-.06ZM23.86-6.34a12.466,12.466,0,0,0-.93-1.48l-.67.31a9.993,9.993,0,0,1,.92,1.5Zm-1.28.55a12.329,12.329,0,0,0-.91-1.51L21-7.01a9.111,9.111,0,0,1,.88,1.53Zm-3.56-.77c0-.36.05-.79.08-1.12H17.87a7.142,7.142,0,0,1,.09,1.12V-.78A10.6,10.6,0,0,1,17.88.5H19.1c-.04-.37-.07-.97-.07-1.28l-.01-3.09a27.944,27.944,0,0,1,3.79,1.55l.44-1.08A32.394,32.394,0,0,0,19.02-5ZM-5.32,6.4h1.16V8.39c0,.11-.03.14-.15.14s-.54.01-.96-.01a3.67,3.67,0,0,1,.25.82,3.941,3.941,0,0,0,1.39-.13c.32-.13.37-.37.37-.79V6.4H-.62V5.54H-4.53V4.61h-.95v.93H-9.34V6.4H-6.2A2.8,2.8,0,0,1-7.69,9.09a3.394,3.394,0,0,1,.68.63,3.514,3.514,0,0,0,1.69-3.3Zm2.49.82A10.764,10.764,0,0,1-1.21,9.17l.79-.47a10.776,10.776,0,0,0-1.7-1.9Zm-5.12-.38A4.428,4.428,0,0,1-9.53,8.55a4.667,4.667,0,0,1,.64.55A6.181,6.181,0,0,0-7.07,7.08Zm1.56,3.75h3.03A5.263,5.263,0,0,1-4.94,11.8,4.612,4.612,0,0,1-6.4,10.6Zm3.8-.79-.16.04H-5.61c.16-.18.31-.37.45-.56l-.98-.18a6.481,6.481,0,0,1-3.15,2.18,2.657,2.657,0,0,1,.59.69,9.994,9.994,0,0,0,1.63-.88,5.7,5.7,0,0,0,1.18,1.12,15.554,15.554,0,0,1-3.68.77,2.7,2.7,0,0,1,.45.83,15.077,15.077,0,0,0,4.13-1.06A11.391,11.391,0,0,0-.92,13.79a4.084,4.084,0,0,1,.55-.87,13.159,13.159,0,0,1-3.62-.69,5.719,5.719,0,0,0,2.01-2.02Zm5.03.05V9H4.59v.36a3.934,3.934,0,0,1-.02.49Zm0-2.42H4.59v.85H2.44Zm5.34,0v.85H5.56V7.43Zm0,2.42H5.54a3.774,3.774,0,0,0,.02-.48V9H7.78Zm.92.76V6.67H5.56V5.95H9.33V5.11H.68v.84H4.59v.72H1.56v3.94H4.44a2.35,2.35,0,0,1-.71,1.13,4.041,4.041,0,0,1-1.12-1.1l-.81.32a4.824,4.824,0,0,0,1.16,1.29,9.4,9.4,0,0,1-2.48.73,4.057,4.057,0,0,1,.57.82,8.623,8.623,0,0,0,2.78-1.01,13.768,13.768,0,0,0,5.46.94,2.311,2.311,0,0,1,.39-.92,14.984,14.984,0,0,1-5.08-.63,3.089,3.089,0,0,0,.83-1.57Z" transform="translate(338 16)"/>
    <path id="サインアップ-2" data-name="サインアップ" class="cls-3" d="M-7.94-7.72a6.226,6.226,0,0,1-.22.82A10.89,10.89,0,0,1-9.4-4.34c-.8-.6-1.9-1.36-2.73-1.89l-.67.8a30,30,0,0,1,2.75,1.96,11,11,0,0,1-3.9,3.06l.91.81A12.606,12.606,0,0,0-9.21-2.77,21.147,21.147,0,0,1-6.92-.52l.81-.89A26.8,26.8,0,0,0-8.54-3.66,14,14,0,0,0-7.11-6.5a7.276,7.276,0,0,1,.37-.8Zm3.92,4.49c.33-.02.92-.04,1.48-.04H2.9c.44,0,.89.03,1.11.04V-4.46c-.24.02-.63.06-1.12.06H-2.54c-.54,0-1.16-.03-1.48-.06ZM6.5.33a5.618,5.618,0,0,0,1.78-2.8,21.908,21.908,0,0,0,.31-4.27,7.485,7.485,0,0,1,.05-.8H7.48a3.116,3.116,0,0,1,.08.81,17.339,17.339,0,0,1-.29,3.99A4.7,4.7,0,0,1,5.55-.31Zm4.31,0a2.083,2.083,0,0,1,.38-.25,10.488,10.488,0,0,0,3.4-2.76l-.6-.86a7.035,7.035,0,0,1-2.72,2.3V-6.77a6.023,6.023,0,0,1,.05-.8H10.16a7.329,7.329,0,0,1,.06.8V-.85a2.884,2.884,0,0,1-.07.63ZM-4.05,7.78v.73H-5.49V7.78Zm2.33.73H-3.21V7.78h1.49ZM-3.21,9.94V9.19h1.49v.75Zm-2.28,0V9.19h1.44v.75Zm0,.7h1.44v1.54h.84V10.64h1.49v.7c0,.12-.04.16-.15.16s-.5.01-.92-.01a2.549,2.549,0,0,1,.25.75,3.8,3.8,0,0,0,1.34-.13c.29-.13.36-.34.36-.76V7.09H-2.07c-.19-.11-.42-.23-.68-.35A9.887,9.887,0,0,0-.84,5.38l-.56-.45-.19.05H-6.32v.73h3.87a8.06,8.06,0,0,1-1.1.67c-.44-.19-.9-.37-1.29-.51l-.6.5c.51.2,1.11.46,1.65.72H-6.36v5.12h.87ZM-7.06,6.39A7.932,7.932,0,0,0-8.77,4.83l-.65.58A7.694,7.694,0,0,1-7.75,7.06Zm-.25,2.1H-9.57v.86H-8.2v2.39a15.6,15.6,0,0,1-1.49,1.04l.44.92c.56-.42,1.06-.83,1.54-1.24A3.332,3.332,0,0,0-5,13.61c1.16.04,3.26.02,4.41-.03a4.626,4.626,0,0,1,.3-.91c-1.27.09-3.57.12-4.7.07a2.63,2.63,0,0,1-2.32-1.05Zm12.44.96V8.57H3.36V6.78H4.85V5.91H2.12c.1-.36.19-.74.27-1.12L1.5,4.62A7.649,7.649,0,0,1,.31,7.69a5.432,5.432,0,0,1,.76.54,7.268,7.268,0,0,0,.74-1.45h.61V8.57H.46v.88h1.9A4.876,4.876,0,0,1,.34,13.06a3.71,3.71,0,0,1,.66.71,5.383,5.383,0,0,0,1.98-2.8,22.846,22.846,0,0,1,1.53,1.97l.64-.8c-.29-.33-1.44-1.63-1.94-2.12.04-.19.06-.38.09-.57Zm1.19,2.43V6.35H8.14v5.53Zm-.9-6.41V13.5h.9v-.75H8.14v.64h.94V5.47Z" transform="translate(263 16)"/>
    <path id="サインアップ-3" data-name="サインアップ" class="cls-3" d="M-11.98-6.74a2.349,2.349,0,0,1-.75.1h-2.4c.05-.08.1-.17.14-.25.11-.2.32-.59.52-.89l-1.16-.38a4.433,4.433,0,0,1-.37.9,8.487,8.487,0,0,1-3.14,3.31l.88.65a10.412,10.412,0,0,0,2.54-2.44h3.12a7.509,7.509,0,0,1-1.52,2.95,8.081,8.081,0,0,1-4.01,2.5l.93.83a9.091,9.091,0,0,0,4-2.77,9.9,9.9,0,0,0,1.76-3.4,3.422,3.422,0,0,1,.28-.61Zm4.08-.84c.02.21.04.56.04.74v3.35c0,.29-.04.64-.05.81h1.17c-.02-.2-.04-.55-.04-.81V-6.84c0-.28.02-.53.04-.74Zm4.61-.08a7.732,7.732,0,0,1,.06.92v1.72c0,1.75-.13,2.53-.83,3.32A4.629,4.629,0,0,1-6.48-.39l.83.87A5.557,5.557,0,0,0-3.26-.98c.74-.84,1.1-1.69,1.1-3.98V-6.74c0-.36.02-.66.04-.92ZM4.93-5.84l-.94.31a18.289,18.289,0,0,1,.8,2.2l.94-.34C5.6-4.11,5.11-5.42,4.93-5.84Zm2.55.29A6.941,6.941,0,0,1,6.15-2.13,6.815,6.815,0,0,1,2.87-.02L3.7.83A7.834,7.834,0,0,0,6.99-1.59,8.044,8.044,0,0,0,8.39-4.6a5.553,5.553,0,0,1,.19-.6ZM2.6-5.32l-.94.34A20.423,20.423,0,0,1,2.57-2.7l.95-.35C3.33-3.59,2.83-4.86,2.6-5.32ZM18.66-6.63a.617.617,0,0,1-.62-.62.623.623,0,0,1,.62-.62.625.625,0,0,1,.63.62A.619.619,0,0,1,18.66-6.63Zm-6.39-.33a9.047,9.047,0,0,1-1.08-.07v1.11c.25-.01.65-.03,1.08-.03h4.91a7,7,0,0,1-1.25,3.07A6.645,6.645,0,0,1,12.02-.5l.86.94a7.778,7.778,0,0,0,3.97-2.71,10.012,10.012,0,0,0,1.5-3.67l.05-.19a1.09,1.09,0,0,0,.26.03,1.152,1.152,0,0,0,1.16-1.15A1.159,1.159,0,0,0,18.66-8.4a1.157,1.157,0,0,0-1.15,1.15,1.241,1.241,0,0,0,.03.27,3.171,3.171,0,0,1-.42.02ZM-5.96,4.94H-9.07v.73h3.11Zm-.89,6.11v1.44H-8.33V11.05Zm.83-.75H-9.15v3.36h.82v-.42h2.31Zm-3.11-.62h3.14V8.95H-9.13Zm0-1.34h3.14V7.62H-9.13ZM-9.6,7h3.99V6.26H-9.6Zm6.04,5.81c-.51,0-.61-.08-.61-.48V9.24h2.34v.52H-.9V5.14H-5.18v.89h3.35V8.35H-5.11v3.98c0,1.08.35,1.36,1.45,1.36h1.84c1.05,0,1.32-.46,1.45-2.07a2.712,2.712,0,0,1-.87-.38c-.07,1.32-.14,1.57-.64,1.57Zm11.12-1.2H5.43v-.62H7.56ZM5.43,9.69H7.56v.57H5.43ZM2.61,7.82v-.6H4.49v.6Zm4.79-.6v.6H5.43v-.6Zm2.14,3.04H8.5V9.03H5.43V8.44H8.34V6.6H5.43V6.09h3.9V5.34H5.43V4.61H4.49v.73H.7v.75H4.49V6.6H1.72V8.44H4.49v.59H1.46v.66H4.49v.57h-4v.73h4v.62H1.37v.7H4.49v.53c0,.17-.06.22-.24.23-.16.01-.76.01-1.31-.01a2.873,2.873,0,0,1,.32.75,5.889,5.889,0,0,0,1.7-.13c.34-.13.47-.34.47-.85v-.52H7.56v.43H8.5V10.99H9.54Z" transform="translate(188 16)"/>
    <path id="サインアップ-4" data-name="サインアップ" class="cls-3" d="M-12.04-7.15a2.548,2.548,0,0,1-.64.07h-4.85a8.968,8.968,0,0,1-1.08-.08v1.12c.25-.02.65-.04,1.08-.04h4.91a6.905,6.905,0,0,1-1.25,3.07,6.6,6.6,0,0,1-3.9,2.38l.85.94A7.765,7.765,0,0,0-12.94-2.4a9.914,9.914,0,0,0,1.49-3.67,3.038,3.038,0,0,1,.18-.58Zm8.62,2.46-.01-.73a4.469,4.469,0,0,1,.04-.74H-4.43a6.583,6.583,0,0,1,.07.74c.01.2.02.44.03.73H-7.22a5.322,5.322,0,0,1-.81-.06v.99c.26-.02.56-.04.83-.04h2.45A9.941,9.941,0,0,1-8.37-.9l.69.79A11.412,11.412,0,0,0-4.3-2.93c.02.94.03,1.88.03,2.45,0,.2-.09.31-.27.31a9.508,9.508,0,0,1-1.19-.1l.06.91C-5.25.67-4.61.7-4.18.7a.769.769,0,0,0,.85-.77c-.01-.98-.04-2.5-.07-3.73h1.34c.2,0,.5.02.7.03v-.98a5.126,5.126,0,0,1-.73.06ZM7.62-5.94v4.5H2.43v-4.5Zm1.05-.15c0-.28,0-.59.02-.86-.33.01-.69.01-.92.01H2.34c-.25,0-.57,0-.96-.02.01.27.01.61.01.87v4.91c0,.4-.02,1.2-.02,1.29H2.45c-.01-.05-.01-.29-.01-.56H7.62c-.01.28-.01.51-.02.56H8.69c0-.08-.02-.94-.02-1.29Zm2.31,2.86c.33-.02.92-.04,1.48-.04H17.9c.44,0,.89.03,1.11.04V-4.46c-.24.02-.63.06-1.12.06H12.46c-.54,0-1.16-.03-1.48-.06ZM-4.47,11.99v.79H-8.82v-.79Zm-.69-2.68v.71H-8.82V9.31Zm-3.66,1.4h4.59V8.62H-9.7V13.8h.88v-.31h4.35v.29h.93V11.29H-8.82Zm6.37-5.38H-5.61a5.848,5.848,0,0,0,.28-.56l-.9-.22a4.429,4.429,0,0,1-.91,1.41V5.33H-9.57c.1-.18.19-.37.27-.55l-.87-.23a5.5,5.5,0,0,1-1.45,2.04,5.924,5.924,0,0,1,.76.51,6.221,6.221,0,0,0,.83-1.01h.31a6.124,6.124,0,0,1,.47.99l.83-.25a5.428,5.428,0,0,0-.36-.74h1.51a4.223,4.223,0,0,1-.47.39c.09.04.2.1.32.16h-.05v.73h-3.71V9.28h.87V8.1h6.67V9.28h.91V7.37H-6.58V6.64H-6.6a5.111,5.111,0,0,0,.48-.55h.71A4.765,4.765,0,0,1-4.78,7.1l.87-.26a4.859,4.859,0,0,0-.48-.75h1.94Zm4.02,5.54c-.34.12-.7.23-1.04.34V8.95h.95V8.09H.53V6.1H1.64V5.24H-1.54V6.1H-.36V8.09H-1.44v.86H-.36v2.54c-.48.15-.92.27-1.28.37l.22.95c.9-.29,2.06-.68,3.15-1.06Zm1.35-3.2H4.23v1.1H2.92Zm0-1.82H4.23V6.93H2.92ZM6.3,6.93H5.02V5.85H6.3Zm0,1.84H5.02V7.67H6.3ZM5.1,12.62V11.43H7.32v-.84H5.1V9.56H7.19V5.06H2.07v4.5H4.15v1.03H1.98v.84H4.15v1.19H1.25v.85H7.64v-.85Z" transform="translate(113 16)"/>
    <path id="サインアップ-5" data-name="サインアップ" class="cls-3" d="M-20.64-4.03a5.149,5.149,0,0,1,1.57-.26h.06a6.476,6.476,0,0,1-1.48,2.23,10.321,10.321,0,0,1-.15-1.73ZM-22.5-.97c-.35,0-.51-.18-.51-.55a2.909,2.909,0,0,1,1.49-2.11A12.4,12.4,0,0,0-21.3-1.4,2.372,2.372,0,0,1-22.5-.97Zm3.86-4.76a3.732,3.732,0,0,1-.11.64,2.528,2.528,0,0,0-.28-.01,6.391,6.391,0,0,0-1.58.22c.03-.37.06-.73.09-1.07a32.011,32.011,0,0,0,3.54-.36l-.01-.92a18.706,18.706,0,0,1-3.42.42c.04-.24.08-.47.12-.66a4.641,4.641,0,0,1,.12-.47l-1.04-.03a4.788,4.788,0,0,1-.02.52l-.07.67h-.54a15.755,15.755,0,0,1-1.72-.13l.03.92c.42.03,1.19.07,1.66.07h.48c-.04.43-.08.89-.1,1.35a3.984,3.984,0,0,0-2.46,3.23A1.2,1.2,0,0,0-22.7,0a3.482,3.482,0,0,0,1.61-.48c.04.17.09.33.14.48l.91-.27c-.08-.24-.16-.5-.23-.77a7.98,7.98,0,0,0,2.14-3.12,1.629,1.629,0,0,1,1.25,1.55c0,1.15-.96,2.09-2.8,2.29l.53.83C-16.8.14-15.9-1.15-15.9-2.56a2.5,2.5,0,0,0-1.95-2.38c.06-.18.13-.42.19-.55Zm12.99.4A16.269,16.269,0,0,0-8.02-6.66l-.5.77A12.717,12.717,0,0,1-6.21-4.51ZM-9.31-6.85a10.452,10.452,0,0,1-1.44.34c.15-.56.28-1.11.36-1.45l-1.09-.1a7.9,7.9,0,0,1-.29,1.68c-.35.03-.69.04-1.02.04-.4,0-.87-.02-1.26-.06l.07.92c.4.03.81.04,1.19.04.24,0,.47-.01.71-.02a14.353,14.353,0,0,1-2.07,3.61l.96.49a17.384,17.384,0,0,0,2.15-4.21,14.776,14.776,0,0,0,1.76-.35Zm.4,5.53a.86.86,0,0,1-.99.93c-.68,0-1.02-.29-1.02-.71,0-.4.43-.69,1.09-.69a3.336,3.336,0,0,1,.91.12C-8.91-1.53-8.91-1.42-8.91-1.32Zm-.15-3.57c.02.65.07,1.58.11,2.36a4.5,4.5,0,0,0-.83-.07c-1.23,0-2.07.66-2.07,1.59,0,1.03.93,1.52,2.08,1.52,1.3,0,1.81-.68,1.81-1.52v-.27A7.906,7.906,0,0,1-6.48-.18l.53-.85A6.575,6.575,0,0,0-8-2.28c-.03-.56-.06-1.13-.07-1.45a11.268,11.268,0,0,1,.01-1.16Zm9.41.93a16.238,16.238,0,0,1,1.87-.1,14.263,14.263,0,0,1,1.68.12l.03-.95A16.562,16.562,0,0,0,2.2-4.98a17.355,17.355,0,0,0-1.85.1Zm.7-2.84a16.966,16.966,0,0,1-1.78.34l.12-.58c.04-.2.12-.6.19-.85l-1.21-.09a4.749,4.749,0,0,1-.03.9c-.02.18-.07.44-.12.73-.35.03-.68.04-.99.04a9.173,9.173,0,0,1-1.21-.08l.02.98c.36.02.72.04,1.18.04.25,0,.51-.01.79-.02-.07.32-.15.65-.24.95A21.513,21.513,0,0,1-3.91,0l1.1.37A29.689,29.689,0,0,0-1.25-4.19c.11-.42.22-.86.31-1.29a19.661,19.661,0,0,0,1.99-.33ZM-.2-2.53A6.563,6.563,0,0,0-.35-1.29C-.35-.31.48.22,2.09.22A13.628,13.628,0,0,0,4.05.08L4.08-.93a11.079,11.079,0,0,1-1.98.2C.84-.73.6-1.13.6-1.58a3.732,3.732,0,0,1,.14-.86Zm5.72-.34.94.97c.17-.23.39-.56.61-.84.46-.59,1.23-1.63,1.66-2.18.31-.4.49-.45.89-.03.46.51,1.21,1.46,1.84,2.19C12.12-2,13-1.02,13.74-.33l.79-.92c-.91-.81-1.83-1.79-2.44-2.46S10.69-5.38,10.07-6c-.68-.68-1.27-.6-1.89.13-.59.7-1.4,1.78-1.89,2.29A7.023,7.023,0,0,1,5.52-2.87Zm12.2,1.29c-.4,0-.91-.52-.91-1.66A3.32,3.32,0,0,1,19.63-6.3a13.72,13.72,0,0,1-.54,2.55C18.63-2.22,18.15-1.58,17.72-1.58ZM20.38.33c2.42-.34,3.75-1.78,3.75-3.85a3.67,3.67,0,0,0-3.89-3.74,4.3,4.3,0,0,0-4.43,4.11c0,1.65.9,2.76,1.88,2.76S19.5-1.52,20.1-3.54a22.665,22.665,0,0,0,.59-2.78,2.619,2.619,0,0,1,2.38,2.76,2.844,2.844,0,0,1-2.4,2.81,5.608,5.608,0,0,1-.88.14ZM-4.05,7.78v.73H-5.49V7.78Zm2.33.73H-3.21V7.78h1.49ZM-3.21,9.94V9.19h1.49v.75Zm-2.28,0V9.19h1.44v.75Zm0,.7h1.44v1.54h.84V10.64h1.49v.7c0,.12-.04.16-.15.16s-.5.01-.92-.01a2.549,2.549,0,0,1,.25.75,3.8,3.8,0,0,0,1.34-.13c.29-.13.36-.34.36-.76V7.09H-2.07c-.19-.11-.42-.23-.68-.35A9.887,9.887,0,0,0-.84,5.38l-.56-.45-.19.05H-6.32v.73h3.87a8.06,8.06,0,0,1-1.1.67c-.44-.19-.9-.37-1.29-.51l-.6.5c.51.2,1.11.46,1.65.72H-6.36v5.12h.87ZM-7.06,6.39A7.932,7.932,0,0,0-8.77,4.83l-.65.58A7.694,7.694,0,0,1-7.75,7.06Zm-.25,2.1H-9.57v.86H-8.2v2.39a15.6,15.6,0,0,1-1.49,1.04l.44.92c.56-.42,1.06-.83,1.54-1.24A3.332,3.332,0,0,0-5,13.61c1.16.04,3.26.02,4.41-.03a4.626,4.626,0,0,1,.3-.91c-1.27.09-3.57.12-4.7.07a2.63,2.63,0,0,1-2.32-1.05Zm12.44.96V8.57H3.36V6.78H4.85V5.91H2.12c.1-.36.19-.74.27-1.12L1.5,4.62A7.649,7.649,0,0,1,.31,7.69a5.432,5.432,0,0,1,.76.54,7.268,7.268,0,0,0,.74-1.45h.61V8.57H.46v.88h1.9A4.876,4.876,0,0,1,.34,13.06a3.71,3.71,0,0,1,.66.71,5.383,5.383,0,0,0,1.98-2.8,22.846,22.846,0,0,1,1.53,1.97l.64-.8c-.29-.33-1.44-1.63-1.94-2.12.04-.19.06-.38.09-.57Zm1.19,2.43V6.35H8.14v5.53Zm-.9-6.41V13.5h.9v-.75H8.14v.64h.94V5.47Z" transform="translate(38 16)"/>
  </g>
</svg>
