<?xml version="1.0" encoding="utf-8"?>
<!-- Generator: Adobe Illustrator 24.0.1, SVG Export Plug-In . SVG Version: 6.00 Build 0)  -->
<svg version="1.1" id="レイヤー_1" xmlns="http://www.w3.org/2000/svg" xmlns:xlink="http://www.w3.org/1999/xlink" x="0px"
	 y="0px" viewBox="0 0 375 40" style="enable-background:new 0 0 375 40;" xml:space="preserve">
<style type="text/css">
	.st0{fill:#EFEFEF;}
	.st1{fill:#B0AD9E;}
	.st2{fill:#2C76A4;}
</style>
<g>
	<path class="st0" d="M90.7,1c1.1,0,2,0.9,2,2v36H1V3c0-1.1,0.9-2,2-2H90.7 M90.7,0H3C1.3,0,0,1.3,0,3v37h93.8V3
		C93.7,1.3,92.4,0,90.7,0L90.7,0z"/>
</g>
<g>
	<path class="st1" d="M16.9,16c-0.1,0.1-0.1,0.4-0.2,0.6c1.3,0.4,2.1,1.4,2.1,2.6c0,1.6-1,3-3.6,3.4l-0.6-0.9c2-0.2,3.1-1.3,3.1-2.5
		c0-0.7-0.5-1.4-1.4-1.7c-0.6,1.5-1.5,2.7-2.4,3.4c0.1,0.3,0.2,0.6,0.3,0.8l-1,0.3c-0.1-0.2-0.1-0.3-0.2-0.5
		c-0.6,0.3-1.2,0.5-1.8,0.5c-0.8,0-1.4-0.5-1.4-1.5c0-1.4,1.2-2.9,2.7-3.6c0-0.5,0.1-1,0.1-1.5c-0.2,0-0.4,0-0.5,0
		c-0.5,0-1.4,0-1.8-0.1l0-1c0.4,0.1,1.3,0.1,1.9,0.1c0.2,0,0.4,0,0.6,0l0.1-0.7c0-0.2,0-0.4,0-0.6l1.1,0c-0.1,0.2-0.1,0.4-0.1,0.5
		c0,0.2-0.1,0.5-0.1,0.7c1.4-0.1,2.6-0.2,3.8-0.5l0,1c-1.1,0.2-2.6,0.3-3.9,0.4c0,0.4-0.1,0.8-0.1,1.2c0.6-0.2,1.2-0.2,1.7-0.2
		c0.1,0,0.2,0,0.3,0c0.1-0.2,0.1-0.5,0.1-0.7L16.9,16z M12.9,20.5c-0.1-0.8-0.2-1.6-0.2-2.5c-1,0.6-1.6,1.6-1.6,2.3
		c0,0.4,0.2,0.6,0.6,0.6C12,21,12.4,20.8,12.9,20.5z M13.6,17.9c0,0.7,0.1,1.3,0.2,1.9c0.6-0.6,1.2-1.4,1.6-2.5h-0.1
		c-0.7,0-1.2,0.1-1.7,0.3V17.9z"/>
	<path class="st1" d="M26,15.6c-0.5,0.1-1.2,0.3-1.9,0.4c-0.5,1.5-1.5,3.4-2.4,4.6L20.6,20c0.9-1.1,1.8-2.7,2.3-4
		c-0.3,0-0.5,0-0.8,0c-0.4,0-0.9,0-1.3,0l-0.1-1c0.4,0,0.9,0.1,1.4,0.1c0.4,0,0.7,0,1.1,0c0.2-0.6,0.3-1.3,0.3-1.8l1.2,0.1
		c-0.1,0.4-0.2,1-0.4,1.6c0.5-0.1,1.1-0.2,1.6-0.4L26,15.6z M27.3,16.7c0,0.5,0,0.8,0,1.3c0,0.4,0,1,0.1,1.6
		c0.9,0.3,1.7,0.9,2.3,1.4l-0.6,0.9c-0.4-0.4-1-0.9-1.6-1.2V21c0,0.9-0.6,1.7-2,1.7c-1.3,0-2.3-0.5-2.3-1.7c0-1,0.9-1.7,2.3-1.7
		c0.3,0,0.6,0,0.9,0.1c0-0.9-0.1-1.9-0.1-2.6H27.3z M26.4,20.2c-0.3-0.1-0.6-0.1-1-0.1c-0.7,0-1.2,0.3-1.2,0.8
		c0,0.5,0.4,0.8,1.1,0.8c0.8,0,1.1-0.5,1.1-1C26.4,20.5,26.4,20.4,26.4,20.2z M29.4,17.1c-0.6-0.5-1.8-1.2-2.5-1.5l0.6-0.8
		c0.8,0.3,2.1,1.1,2.6,1.5L29.4,17.1z"/>
	<path class="st1" d="M36.8,15.7c-0.7,0.2-1.4,0.3-2.2,0.4c-0.1,0.5-0.2,1-0.3,1.4c-0.4,1.5-1.1,3.8-1.7,5l-1.2-0.4
		c0.7-1.1,1.4-3.4,1.8-4.9c0.1-0.3,0.2-0.7,0.3-1c-0.3,0-0.6,0-0.9,0c-0.5,0-0.9,0-1.3,0l0-1.1c0.5,0.1,0.9,0.1,1.3,0.1
		c0.3,0,0.7,0,1.1,0c0.1-0.3,0.1-0.6,0.1-0.8c0-0.4,0.1-0.7,0-1l1.3,0.1c-0.1,0.3-0.2,0.7-0.2,0.9L34.9,15c0.7-0.1,1.3-0.2,2-0.4
		V15.7z M36.5,19.4c-0.1,0.3-0.2,0.7-0.2,0.9c0,0.5,0.3,0.9,1.6,0.9c0.7,0,1.5-0.1,2.2-0.2l0,1.1c-0.6,0.1-1.3,0.2-2.2,0.2
		c-1.8,0-2.7-0.6-2.7-1.7c0-0.5,0.1-0.9,0.2-1.4L36.5,19.4z M36.1,16.7c0.6-0.1,1.3-0.1,2-0.1c0.6,0,1.3,0,1.9,0.1l0,1
		c-0.6-0.1-1.2-0.1-1.8-0.1c-0.7,0-1.4,0-2.1,0.1V16.7z"/>
	<path class="st1" d="M42.4,18.1c0.5-0.6,1.4-1.7,2.1-2.5c0.7-0.8,1.3-0.9,2.1-0.1c0.7,0.7,1.6,1.8,2.2,2.5c0.7,0.7,1.7,1.8,2.7,2.7
		l-0.9,1c-0.8-0.8-1.8-1.8-2.5-2.7c-0.7-0.8-1.5-1.8-2-2.4c-0.4-0.5-0.6-0.4-1,0c-0.5,0.6-1.3,1.8-1.8,2.4c-0.2,0.3-0.5,0.7-0.7,0.9
		l-1-1.1C41.9,18.7,42.1,18.5,42.4,18.1z"/>
	<path class="st1" d="M57.2,21.4c0.4,0,0.7-0.1,1-0.2c1.4-0.3,2.6-1.3,2.6-3.1c0-1.6-0.9-2.8-2.6-3c-0.2,1-0.4,2-0.6,3.1
		c-0.7,2.2-1.6,3.5-2.7,3.5c-1.1,0-2.1-1.2-2.1-3c0-2.4,2.1-4.5,4.9-4.5c2.6,0,4.3,1.8,4.3,4.1c0,2.3-1.5,3.9-4.1,4.2L57.2,21.4z
		 M56.5,18c0.3-0.9,0.5-1.8,0.6-2.8c-2,0.3-3.1,2-3.1,3.4c0,1.3,0.6,1.8,1,1.8C55.4,20.3,56,19.6,56.5,18z"/>
	<path class="st1" d="M65.7,20.6c0.5,0.8,1.3,1.1,2.6,1.2c1.2,0.1,3.8,0,5.2-0.1c-0.1,0.2-0.3,0.7-0.3,1c-1.3,0.1-3.6,0.1-4.9,0
		c-1.4-0.1-2.3-0.4-3-1.3c-0.5,0.5-1.1,0.9-1.7,1.4l-0.5-1c0.5-0.3,1.1-0.7,1.6-1.1v-2.6h-1.5v-0.9h2.5V20.6z M65.2,15.5
		c-0.4-0.5-1.1-1.3-1.8-1.8l0.7-0.6c0.7,0.5,1.5,1.2,1.9,1.7L65.2,15.5z M67.7,21.2h-1v-5.6h2.8c-0.6-0.3-1.3-0.6-1.8-0.8l0.7-0.5
		c0.4,0.2,0.9,0.4,1.4,0.6c0.4-0.2,0.8-0.5,1.2-0.7h-4.3v-0.8H72l0.2-0.1l0.6,0.5c-0.6,0.5-1.3,1.1-2.1,1.5c0.3,0.1,0.5,0.3,0.7,0.4
		h1.4v4.7c0,0.5-0.1,0.7-0.4,0.8c-0.3,0.1-0.8,0.1-1.5,0.1c0-0.3-0.2-0.6-0.3-0.8c0.5,0,0.9,0,1,0c0.1,0,0.2,0,0.2-0.2v-0.8h-1.6
		v1.7h-0.9v-1.7h-1.6V21.2z M67.7,16.3v0.8h1.6v-0.8H67.7z M69.3,18.7v-0.8h-1.6v0.8H69.3z M71.8,16.3h-1.6v0.8h1.6V16.3z
		 M71.8,18.7v-0.8h-1.6v0.8H71.8z"/>
	<path class="st1" d="M77.4,18.2c0,0.2-0.1,0.4-0.1,0.6c0.5,0.5,1.8,2,2.1,2.3L78.7,22c-0.4-0.5-1.1-1.5-1.7-2.2
		c-0.4,1.1-1,2.2-2.2,3.1c-0.1-0.2-0.5-0.6-0.7-0.8c1.6-1.1,2.1-2.6,2.2-4h-2.1v-1h2.2v-0.3v-1.6h-0.7c-0.2,0.6-0.5,1.2-0.8,1.6
		c-0.2-0.2-0.6-0.5-0.8-0.6c0.6-0.8,1.1-2.1,1.3-3.4l1,0.2c-0.1,0.4-0.2,0.8-0.3,1.2h3v1h-1.6v1.7c0,0.1,0,0.2,0,0.3h1.9v1H77.4z
		 M83.7,13.8v8.7h-1v-0.7h-2v0.8h-1v-8.8H83.7z M82.7,20.8v-6.1h-2v6.1H82.7z"/>
</g>
<g>
	<g>
		<path class="st0" d="M184.5,1c1.1,0,2,0.9,2,2v36H94.7V3c0-1.1,0.9-2,2-2H184.5 M184.5,0H96.7c-1.7,0-3,1.3-3,3v37h93.8V3
			C187.5,1.3,186.1,0,184.5,0L184.5,0z"/>
	</g>
	<g>
		<path class="st1" d="M118.7,14.8c-0.1,0.2-0.1,0.4-0.2,0.6c-0.2,1.1-0.7,2.9-1.6,4c-1,1.3-2.4,2.4-4.4,3l-0.9-1
			c2.1-0.5,3.4-1.5,4.3-2.6c0.8-1,1.2-2.4,1.4-3.4h-5.4c-0.5,0-0.9,0-1.2,0v-1.2c0.3,0,0.8,0.1,1.2,0.1h5.3c0.2,0,0.5,0,0.7-0.1
			L118.7,14.8z"/>
		<path class="st1" d="M126.6,16.9c0.2,0,0.6,0,0.8-0.1v1.1c-0.2,0-0.6,0-0.8,0h-1.5c0,1.4,0.1,3,0.1,4.1c0,0.5-0.4,0.8-0.9,0.8
			c-0.5,0-1.2,0-1.6-0.1l-0.1-1c0.4,0.1,1,0.1,1.3,0.1c0.2,0,0.3-0.1,0.3-0.3c0-0.6,0-1.7,0-2.7c-0.8,1-2.3,2.4-3.7,3.1l-0.8-0.9
			c1.6-0.7,3.2-2.1,4-3.2H121c-0.3,0-0.6,0-0.9,0v-1.1c0.3,0,0.6,0.1,0.9,0.1h3.2c0-0.3,0-0.6,0-0.8c0-0.2,0-0.5-0.1-0.8h1.1
			c0,0.2,0,0.6,0,0.8l0,0.8H126.6z"/>
		<path class="st1" d="M137.1,20.8c0,0.4,0,1.3,0,1.4h-1.2c0-0.1,0-0.3,0-0.6h-5.7c0,0.3,0,0.6,0,0.6h-1.2c0-0.1,0-1,0-1.4v-5.4
			c0-0.3,0-0.7,0-1c0.4,0,0.8,0,1.1,0h6c0.3,0,0.6,0,1,0c0,0.3,0,0.6,0,0.9V20.8z M130.2,15.5v5h5.7v-5H130.2z"/>
		<path class="st1" d="M139.4,17.2c0.4,0,1,0.1,1.6,0.1h6c0.5,0,1,0,1.2-0.1v1.4c-0.2,0-0.7,0-1.2,0h-6c-0.6,0-1.3,0-1.6,0V17.2z"/>
		<path class="st1" d="M159.8,14.5h-2.1c0.2,0.3,0.4,0.6,0.5,0.8l-1,0.3c-0.1-0.3-0.4-0.7-0.7-1.1h-0.8c-0.2,0.2-0.3,0.4-0.5,0.6h0
			v0.8h4.2V18h-1v-1.3h-7.3V18h-1v-2.1h4.1v-0.8h0.1c-0.1-0.1-0.3-0.1-0.4-0.2c0.2-0.1,0.4-0.3,0.5-0.4h-1.7
			c0.2,0.3,0.3,0.6,0.4,0.8l-0.9,0.3c-0.1-0.3-0.3-0.7-0.5-1.1h-0.3c-0.3,0.4-0.6,0.8-0.9,1.1c-0.2-0.2-0.6-0.4-0.8-0.6
			c0.6-0.6,1.3-1.4,1.6-2.2l1,0.3c-0.1,0.2-0.2,0.4-0.3,0.6h2.7v0.7c0.4-0.5,0.8-1,1-1.6l1,0.2c-0.1,0.2-0.2,0.4-0.3,0.6h3.5V14.5z
			 M152.8,20.2h5.8v2.7h-1v-0.3h-4.8V23h-1v-5.7h6v2.3h-5V20.2z M152.8,18v0.8h4V18H152.8z M152.8,21v0.9h4.8V21H152.8z"/>
		<path class="st1" d="M164.4,20.7c-1.2,0.4-2.5,0.8-3.5,1.2l-0.2-1c0.4-0.1,0.9-0.2,1.4-0.4v-2.8h-1.2v-0.9h1.2v-2.2h-1.3v-0.9h3.5
			v0.9h-1.2v2.2h1v0.9h-1v2.5c0.4-0.1,0.8-0.2,1.1-0.4L164.4,20.7z M170.9,21.7v0.9h-7v-0.9h3.2v-1.3h-2.4v-0.9h2.4v-1.1h-2.3v-5
			h5.6v5h-2.3v1.1h2.4v0.9h-2.4v1.3H170.9z M165.7,15.4h1.4v-1.2h-1.4V15.4z M165.7,17.4h1.4v-1.2h-1.4V17.4z M169.4,14.2H168v1.2
			h1.4V14.2z M169.4,16.2H168v1.2h1.4V16.2z"/>
	</g>
</g>
<g>
	<path class="st0" d="M278.2,1c1.1,0,2,0.9,2,2v36h-91.7V3c0-1.1,0.9-2,2-2H278.2 M278.2,0h-87.7c-1.7,0-3,1.3-3,3v37h93.7V3
		C281.2,1.3,279.9,0,278.2,0L278.2,0z"/>
</g>
<g>
	<path class="st1" d="M213.9,15.2c-0.1,0.2-0.2,0.5-0.3,0.7c-0.3,1.1-0.9,2.5-1.9,3.7c-1,1.2-2.3,2.3-4.4,3l-1-0.9
		c2.1-0.6,3.4-1.6,4.4-2.8c0.8-0.9,1.5-2.3,1.7-3.2h-3.4c-0.7,0.9-1.6,1.9-2.8,2.7l-1-0.7c1.9-1.1,2.9-2.7,3.5-3.6
		c0.1-0.2,0.3-0.7,0.4-1l1.3,0.4c-0.2,0.3-0.5,0.8-0.6,1c0,0.1-0.1,0.2-0.2,0.3h2.6c0.3,0,0.6,0,0.8-0.1L213.9,15.2z"/>
	<path class="st1" d="M217.2,13.7c0,0.2,0,0.5,0,0.8v3.7c0,0.3,0,0.7,0,0.9h-1.3c0-0.2,0.1-0.6,0.1-0.9v-3.7c0-0.2,0-0.6,0-0.8
		H217.2z M222.3,13.7c0,0.3,0,0.6,0,1v2c0,2.5-0.4,3.5-1.2,4.4c-0.7,0.8-1.8,1.3-2.6,1.6l-0.9-1c1-0.3,2-0.7,2.7-1.4
		c0.8-0.9,0.9-1.7,0.9-3.7v-1.9c0-0.4,0-0.7-0.1-1H222.3z"/>
	<path class="st1" d="M226.1,18.7l-1,0.4c-0.2-0.6-0.8-2.1-1-2.5l1-0.4C225.3,16.7,225.9,18.1,226.1,18.7z M231.7,16.4
		c-0.1,0.3-0.2,0.5-0.2,0.7c-0.3,1.2-0.8,2.3-1.5,3.3c-1,1.3-2.4,2.2-3.6,2.7l-0.9-0.9c1.2-0.4,2.7-1.2,3.6-2.3
		c0.8-0.9,1.3-2.4,1.5-3.8L231.7,16.4z M228.5,18l-1,0.4c-0.1-0.5-0.6-1.9-0.9-2.4l1-0.3C227.8,16.1,228.4,17.6,228.5,18z"/>
	<path class="st1" d="M239.2,14.4c0.1,0,0.3,0,0.5,0c0-0.1,0-0.2,0-0.3c0-0.7,0.6-1.3,1.3-1.3c0.7,0,1.3,0.6,1.3,1.3
		c0,0.7-0.6,1.3-1.3,1.3c-0.1,0-0.2,0-0.3,0l-0.1,0.2c-0.2,1.1-0.8,2.9-1.7,4c-1,1.3-2.4,2.4-4.4,3l-0.9-1c2.2-0.5,3.4-1.5,4.3-2.6
		c0.8-1,1.2-2.4,1.4-3.4h-5.4c-0.5,0-0.9,0-1.2,0v-1.2c0.3,0,0.8,0.1,1.2,0.1H239.2z M241.6,14.1c0-0.4-0.3-0.7-0.7-0.7
		c-0.4,0-0.7,0.3-0.7,0.7c0,0.4,0.3,0.7,0.7,0.7C241.3,14.8,241.6,14.5,241.6,14.1z"/>
	<path class="st1" d="M242.6,14.7h4.4v0.8h-4.4V14.7z M246.6,22.3H244v0.5h-0.9v-3.7h3.4V22.3z M243.2,16.2h3.5V17h-3.5V16.2z
		 M243.2,17.6h3.5v0.8h-3.5V17.6z M246.6,14h-3.4v-0.8h3.4V14z M244,19.9v1.6h1.6v-1.6H244z M251.1,21.9c0.6,0,0.6-0.3,0.7-1.7
		c0.2,0.2,0.7,0.4,1,0.4c-0.1,1.8-0.4,2.3-1.6,2.3h-2c-1.2,0-1.6-0.3-1.6-1.5V17h3.6v-2.6h-3.7v-1h4.7v5.1h-1v-0.6h-2.6v3.4
		c0,0.4,0.1,0.5,0.7,0.5H251.1z"/>
	<path class="st1" d="M263.7,19.9h-1.1v1.9h-1v-0.5h-2.3v0.6c0,0.6-0.1,0.8-0.5,0.9c-0.4,0.1-0.9,0.1-1.9,0.1
		c-0.1-0.2-0.2-0.6-0.4-0.8c0.6,0,1.3,0,1.4,0c0.2,0,0.3-0.1,0.3-0.3v-0.6h-3.4v-0.8h3.4v-0.7h-4.4v-0.8h4.4v-0.6h-3.3v-0.7h3.3
		v-0.6h-3v-2h3v-0.6H254v-0.8h4.2v-0.8h1v0.8h4.3v0.8h-4.3V15h3.2v2h-3.2v0.6h3.4v1.4h1.1V19.9z M258.1,16.4v-0.7h-2.1v0.7H258.1z
		 M259.2,15.7v0.7h2.2v-0.7H259.2z M259.2,19.1h2.3v-0.6h-2.3V19.1z M261.5,19.9h-2.3v0.7h2.3V19.9z"/>
</g>
<g>
	<path class="st0" d="M372,1c1.1,0,2,0.9,2,2v36h-91.8V3c0-1.1,0.9-2,2-2H372 M372,0h-87.8c-1.7,0-3,1.3-3,3v37H375V3
		C375,1.3,373.6,0,372,0L372,0z"/>
</g>
<g>
	<path class="st1" d="M295.4,14.6l1.3,0.3c-0.1,0.3-0.2,0.7-0.2,0.9c-0.1,0.7-0.5,2.3-1,3.4c-0.4,1-1,2.2-1.6,3.1l-1.2-0.5
		c0.7-0.9,1.3-2.1,1.7-3C294.8,17.5,295.2,15.9,295.4,14.6z M298.1,14.8l1.1-0.4c0.4,0.8,1.2,2.4,1.6,3.5c0.4,1.1,1,2.8,1.3,3.8
		l-1.3,0.4c-0.3-1.2-0.8-2.7-1.2-3.8C299.3,17.2,298.6,15.7,298.1,14.8z M301.4,13c0.7,0,1.3,0.6,1.3,1.3c0,0.7-0.6,1.3-1.3,1.3
		s-1.3-0.6-1.3-1.3C300.2,13.6,300.7,13,301.4,13z M301.4,15c0.4,0,0.7-0.3,0.7-0.7s-0.3-0.7-0.7-0.7c-0.4,0-0.7,0.3-0.7,0.7
		S301,15,301.4,15z"/>
	<path class="st1" d="M311.1,14.7c-0.1,0.1-0.2,0.4-0.3,0.6c-0.4,0.9-1,2.1-1.8,3.1c1.1,1,2.5,2.4,3.1,3.2l-1,0.9
		c-0.7-1-1.8-2.2-2.9-3.2c-1.2,1.3-2.6,2.4-4.2,3.2l-0.9-0.9c1.8-0.7,3.4-2,4.5-3.2c0.7-0.8,1.5-2,1.7-2.9h-4c-0.4,0-1,0.1-1.2,0.1
		v-1.2c0.2,0,0.9,0.1,1.2,0.1h4.1c0.4,0,0.8,0,1-0.1L311.1,14.7z"/>
	<path class="st1" d="M321.9,14.7c-0.1,0.1-0.1,0.5-0.2,0.6c-0.2,1.2-0.4,2.8-1.3,4.1c-0.9,1.4-2.4,2.5-4.2,3.1l-1-1
		c1.5-0.4,3.2-1.3,4.1-2.7c0.6-0.9,0.9-2.3,1-3.5h-5.7v2c0,0.2,0,0.5,0,0.8h-1.3c0-0.3,0-0.5,0-0.8V15c0-0.3,0-0.6,0-0.8
		c0.3,0,0.7,0,1.2,0h5.5c0.3,0,0.6,0,0.8-0.1L321.9,14.7z"/>
	<path class="st1" d="M323.4,17.2c0.4,0,1,0.1,1.6,0.1h6c0.5,0,1,0,1.2-0.1v1.4c-0.2,0-0.7,0-1.2,0h-6c-0.6,0-1.3,0-1.6,0V17.2z"/>
	<path class="st1" d="M336.3,16.6c1.5,0.4,3.6,1.2,4.6,1.8l-0.5,1.2c-1.2-0.6-3-1.3-4.2-1.7l0,3.4c0,0.3,0,1,0.1,1.4h-1.3
		c0.1-0.4,0.1-1,0.1-1.4v-6.4c0-0.4,0-0.9-0.1-1.2h1.4c0,0.4-0.1,0.8-0.1,1.2V16.6z M339.5,16.1c-0.3-0.6-0.6-1.2-1-1.7l0.7-0.3
		c0.3,0.4,0.8,1.1,1,1.7L339.5,16.1z M340.9,15.5c-0.3-0.6-0.6-1.1-1-1.7l0.7-0.3c0.3,0.4,0.8,1.1,1,1.6L340.9,15.5z"/>
	<path class="st1" d="M350.7,19c-0.5,0.9-1.3,1.6-2.2,2.2c1.1,0.4,2.5,0.7,4,0.8c-0.2,0.3-0.5,0.7-0.6,1c-1.8-0.2-3.3-0.5-4.5-1.1
		c-1.3,0.6-2.9,1-4.5,1.2c-0.1-0.2-0.3-0.7-0.5-0.9c1.5-0.1,2.8-0.4,4-0.8c-0.5-0.4-0.9-0.8-1.3-1.2c-0.5,0.4-1.1,0.7-1.8,1
		c-0.1-0.3-0.4-0.6-0.6-0.8c1.7-0.6,2.9-1.5,3.5-2.4l1.1,0.2c-0.2,0.2-0.3,0.4-0.5,0.6h3.1l0.2,0L350.7,19z M345.1,15.6
		c-0.5,0.8-1.2,1.7-2,2.2c-0.2-0.2-0.5-0.5-0.7-0.6c0.7-0.5,1.4-1.2,1.7-1.9L345.1,15.6z M347,14.8c0,1.1-0.2,2.6-1.9,3.6
		c-0.2-0.2-0.5-0.5-0.7-0.7c1.5-0.9,1.6-2.1,1.6-3h-3.4v-0.9h4.2v-1h1v1h4.3v0.9h-2.9V17c0,0.5-0.1,0.7-0.4,0.9
		c-0.3,0.1-0.8,0.1-1.5,0.1c0-0.3-0.2-0.6-0.3-0.9c0.5,0,0.9,0,1.1,0c0.1,0,0.2,0,0.2-0.2v-2.2L347,14.8L347,14.8z M345.8,19.4
		c0.4,0.5,0.9,1,1.6,1.3c0.7-0.4,1.3-0.8,1.7-1.3L345.8,19.4L345.8,19.4z M350.5,15.3c0.7,0.6,1.5,1.5,1.9,2.1l-0.9,0.5
		c-0.3-0.6-1.1-1.5-1.8-2.1L350.5,15.3z"/>
	<path class="st1" d="M358.8,19.5c-0.1,0.6-0.4,1.2-0.9,1.7c1.4,0.6,3.3,0.7,5.6,0.7c-0.2,0.2-0.4,0.7-0.4,1c-2.5-0.1-4.5-0.3-6-1
		c-0.7,0.5-1.7,0.8-3.1,1.1c-0.1-0.2-0.4-0.7-0.6-0.9c1.2-0.2,2.1-0.5,2.7-0.8c-0.5-0.4-0.9-0.8-1.3-1.4l0.9-0.4
		c0.3,0.5,0.7,0.9,1.2,1.2c0.4-0.4,0.6-0.8,0.8-1.2h-3.2v-4.3h3.3v-0.8h-4.3v-0.9h9.5v0.9H359v0.8h3.4v4.3H358.8z M355.5,16.9h2.4
		V16h-2.4V16.9z M357.9,18.6c0-0.2,0-0.4,0-0.5v-0.4h-2.4v0.9H357.9z M361.4,17.7H359v0.4c0,0.2,0,0.4,0,0.5h2.5V17.7z M359,16v0.9
		h2.4V16H359z"/>
</g>
</svg>
