<?xml version="1.0" encoding="utf-8"?>
<!-- Generator: Adobe Illustrator 24.0.1, SVG Export Plug-In . SVG Version: 6.00 Build 0)  -->
<svg version="1.1" id="レイヤー_1" xmlns="http://www.w3.org/2000/svg" xmlns:xlink="http://www.w3.org/1999/xlink" x="0px"
	 y="0px" viewBox="0 0 720 40" style="enable-background:new 0 0 720 40;" xml:space="preserve">
<style type="text/css">
	.st0{fill:#B0AD9E;}
	.st1{fill:#EFEFEF;}
	.st2{fill:#2C76A4;}
</style>
<path id="サインアップ_1_" class="st0" d="M591.9,14.8c0-0.5,0.4-0.9,0.9-0.9c0.5,0,0.9,0.4,0.9,0.9c0,0.5-0.4,0.9-0.9,0.9
	C592.3,15.7,591.9,15.3,591.9,14.8z M591.2,14.8c0,0.9,0.7,1.6,1.6,1.6c0,0,0,0,0,0c0.9,0,1.6-0.7,1.6-1.6c0,0,0,0,0,0
	c0-0.9-0.7-1.6-1.6-1.6C591.9,13.2,591.2,13.9,591.2,14.8L591.2,14.8z M583.8,20.4c-0.6,1.4-1.3,2.6-2.2,3.8l1.5,0.6
	c0.8-1.2,1.5-2.5,2.1-3.9c0.5-1.4,0.9-2.8,1.2-4.3c0.1-0.3,0.2-0.8,0.3-1.2l-1.6-0.3C584.9,17,584.4,18.8,583.8,20.4z M590.7,20
	c0.6,1.6,1.1,3.2,1.5,4.9l1.6-0.5c-0.4-1.3-1.1-3.5-1.7-4.8c-0.6-1.4-1.5-3.4-2.1-4.5l-1.4,0.5C589.4,17,590.1,18.5,590.7,20
	L590.7,20z M605.4,14.6c-0.4,0.1-0.8,0.2-1.2,0.1h-5.2c-0.5,0-1,0-1.5-0.1v1.6c0.2,0,1-0.1,1.5-0.1h5.1c-0.5,1.4-1.3,2.6-2.2,3.7
	c-1.6,1.8-3.5,3.2-5.8,4.1l1.1,1.2c2-1,3.9-2.4,5.4-4c1.4,1.2,2.6,2.6,3.7,4.1l1.2-1.1c-1.2-1.5-2.6-2.8-4-4.1
	c0.9-1.2,1.7-2.6,2.3-4c0.1-0.3,0.2-0.5,0.4-0.7L605.4,14.6z M620.2,14.7c-0.4,0.1-0.7,0.1-1.1,0.1h-7c-0.6,0-1.2,0-1.6,0
	c0,0.3,0.1,0.7,0.1,1v3c0,0.3,0,0.6-0.1,1h1.6c0-0.3,0-0.7,0-1v-2.6h7.3c-0.1,1.6-0.5,3.1-1.3,4.5c-1.3,1.7-3.1,3-5.2,3.5l1.2,1.2
	c2.2-0.7,4-2.1,5.3-4c0.9-1.6,1.4-3.4,1.6-5.2c0.1-0.3,0.1-0.5,0.2-0.8L620.2,14.7z M624.2,20.2c0.5,0,1.3-0.1,2.1-0.1h7.6
	c0.6,0,1.2,0,1.6,0.1v-1.7c-0.3,0-0.9,0.1-1.6,0.1h-7.6c-0.8,0-1.6,0-2.1-0.1L624.2,20.2z M649.3,15.8c-0.4-0.7-0.8-1.4-1.3-2.1
	l-0.9,0.4c0.5,0.7,0.9,1.4,1.3,2.1L649.3,15.8z M647.5,16.6c-0.4-0.7-0.8-1.4-1.3-2.1l-0.9,0.4c0.5,0.7,0.9,1.4,1.2,2.1L647.5,16.6z
	 M642.5,15.5c0-0.5,0.1-1.1,0.1-1.6h-1.7c0.1,0.5,0.1,1,0.1,1.6v8.1c0,0.6,0,1.2-0.1,1.8h1.7c-0.1-0.5-0.1-1.4-0.1-1.8l0-4.3
	c1.8,0.6,3.6,1.3,5.3,2.2l0.6-1.5c-1.9-0.9-3.9-1.6-5.9-2.2V15.5z M657.4,15.5h1.6v2.8c0,0.2,0,0.2-0.2,0.2c-0.2,0-0.8,0-1.3,0
	c0.2,0.4,0.3,0.8,0.3,1.1c0.7,0.1,1.3,0,1.9-0.2c0.4-0.2,0.5-0.5,0.5-1.1v-2.8h3.7v-1.2h-5.5V13h-1.3v1.3h-5.4v1.2h4.4
	c0.1,1.6-0.7,3-2.1,3.8c0.4,0.2,0.7,0.5,1,0.9C656.7,19.1,657.6,17.4,657.4,15.5L657.4,15.5z M660.9,16.6c0.9,0.8,1.6,1.7,2.3,2.7
	l1.1-0.7c-0.7-1-1.5-1.9-2.4-2.7L660.9,16.6z M653.7,16.1c-0.5,1-1.3,1.8-2.2,2.4c0.3,0.2,0.6,0.5,0.9,0.8c1-0.7,1.9-1.7,2.5-2.8
	L653.7,16.1z M655.9,21.3h4.2c-0.6,0.7-1.4,1.3-2.2,1.7C657.2,22.6,656.5,22,655.9,21.3L655.9,21.3z M661.2,20.2l-0.2,0.1h-4
	c0.2-0.3,0.4-0.5,0.6-0.8l-1.4-0.3c-1.1,1.4-2.7,2.5-4.4,3.1c0.3,0.3,0.6,0.6,0.8,1c0.8-0.3,1.6-0.8,2.3-1.2c0.5,0.6,1,1.1,1.7,1.6
	c-1.7,0.6-3.4,0.9-5.2,1.1c0.3,0.3,0.5,0.7,0.6,1.2c2-0.2,3.9-0.7,5.8-1.5c1.8,0.8,3.7,1.3,5.7,1.5c0.2-0.4,0.5-0.8,0.8-1.2
	c-1.7-0.1-3.4-0.4-5.1-1c1.2-0.7,2.1-1.7,2.8-2.8L661.2,20.2z M668.3,20.3v-1.2h3v0.5c0,0.2,0,0.5,0,0.7L668.3,20.3z M668.3,16.9h3
	v1.2h-3V16.9z M675.8,16.9v1.2h-3.1v-1.2L675.8,16.9z M675.8,20.3h-3.1c0-0.2,0-0.4,0-0.7v-0.5h3.1V20.3z M677,21.4v-5.5h-4.4v-1
	h5.3v-1.2h-12.1v1.2h5.5v1H667v5.5h4c-0.2,0.6-0.5,1.2-1,1.6c-0.6-0.4-1.2-0.9-1.6-1.5l-1.1,0.4c0.4,0.7,1,1.3,1.6,1.8
	c-1.1,0.5-2.3,0.8-3.5,1c0.3,0.3,0.6,0.7,0.8,1.1c1.4-0.2,2.7-0.7,3.9-1.4c2,1,4.5,1.2,7.6,1.3c0.1-0.5,0.3-0.9,0.5-1.3
	c-2.4,0.1-4.8-0.2-7.1-0.9c0.6-0.6,1-1.4,1.2-2.2L677,21.4z"/>
<path id="サインアップ-3_1_" class="st0" d="M418.9,15.3c-0.3,0.1-0.7,0.2-1,0.1h-3.4c0.1-0.1,0.1-0.2,0.2-0.4
	c0.2-0.3,0.4-0.8,0.7-1.2l-1.6-0.5c-0.1,0.4-0.3,0.9-0.5,1.3c-1,1.9-2.5,3.5-4.4,4.6l1.2,0.9c1.4-0.9,2.6-2.1,3.6-3.4h4.4
	c-0.4,1.5-1.1,2.9-2.1,4.1c-1.5,1.7-3.4,2.9-5.6,3.5l1.3,1.2c2.2-0.8,4.1-2.1,5.6-3.9c1.1-1.4,2-3,2.5-4.8c0.1-0.3,0.2-0.6,0.4-0.9
	L418.9,15.3z M424.7,14.1c0,0.3,0.1,0.8,0.1,1v4.7c0,0.4-0.1,0.9-0.1,1.1h1.6c0-0.3-0.1-0.8-0.1-1.1v-4.7c0-0.4,0-0.7,0.1-1H424.7z
	 M431.1,14c0.1,0.4,0.1,0.9,0.1,1.3v2.4c0,2.4-0.2,3.5-1.2,4.6c-0.9,0.9-2.1,1.6-3.4,1.8l1.2,1.2c1.3-0.4,2.4-1.1,3.3-2
	c1-1.2,1.5-2.4,1.5-5.6v-2.5c0-0.5,0-0.9,0.1-1.3H431.1z M442.6,16.5l-1.3,0.4c0.4,1,0.8,2,1.1,3.1l1.3-0.5
	C443.6,18.9,442.9,17.1,442.6,16.5z M446.2,16.9c-0.2,1.7-0.8,3.4-1.9,4.8c-1.2,1.4-2.8,2.4-4.6,3l1.2,1.2c1.8-0.7,3.4-1.9,4.6-3.4
	c0.9-1.3,1.6-2.7,2-4.2c0.1-0.3,0.2-0.6,0.3-0.8L446.2,16.9z M439.4,17.3l-1.3,0.5c0.5,1,0.9,2.1,1.3,3.2l1.3-0.5
	C440.4,19.7,439.7,17.9,439.4,17.3L439.4,17.3z M461.8,15.4c-0.5,0-0.9-0.4-0.9-0.9c0,0,0,0,0,0c0-0.5,0.4-0.9,0.9-0.9
	c0.5,0,0.9,0.4,0.9,0.9c0,0,0,0,0,0C462.7,15,462.3,15.4,461.8,15.4C461.9,15.4,461.8,15.4,461.8,15.4z M452.9,15
	c-0.5,0-1,0-1.5-0.1v1.6c0.4,0,0.9,0,1.5,0h6.9c-0.2,1.6-0.8,3-1.8,4.3c-1.4,1.7-3.3,2.9-5.5,3.3l1.2,1.3c2.2-0.6,4.2-2,5.6-3.8
	c1-1.6,1.7-3.3,2.1-5.1l0.1-0.3c0.1,0,0.2,0,0.4,0c0.9,0,1.6-0.7,1.6-1.6c0,0,0,0,0,0c0-0.9-0.7-1.6-1.6-1.6c-0.9,0-1.6,0.7-1.6,1.6
	c0,0.1,0,0.3,0,0.4c-0.2,0-0.4,0-0.6,0L452.9,15z M469.4,13.4H465v1h4.4L469.4,13.4z M468.1,22v2h-2.1v-2H468.1z M469.3,20.9h-4.4
	v4.7h1.1V25h3.2V20.9z M464.9,20.1h4.4v-1h-4.4V20.1z M464.9,18.2h4.4v-1h-4.4V18.2z M464.3,16.3h5.6v-1h-5.6V16.3z M472.7,24.4
	c-0.7,0-0.9-0.1-0.9-0.7v-4.3h3.3v0.7h1.3v-6.5h-6v1.2h4.7v3.2h-4.6v5.6c0,1.5,0.5,1.9,2,1.9h2.6c1.5,0,1.8-0.6,2-2.9
	c-0.4-0.1-0.8-0.3-1.2-0.5c-0.1,1.8-0.2,2.2-0.9,2.2L472.7,24.4z M488.3,22.8h-3v-0.9h3L488.3,22.8z M485.3,20.1h3v0.8h-3V20.1z
	 M481.4,17.4v-0.8h2.6v0.8H481.4z M488.1,16.6v0.8h-2.8v-0.8H488.1z M491.1,20.9h-1.5v-1.7h-4.3v-0.8h4.1v-2.6h-4.1V15h5.5V14h-5.5
	v-1H484v1h-5.3V15h5.3v0.7h-3.9v2.6h3.9v0.8h-4.2v0.9h4.2v0.8h-5.6v1h5.6v0.9h-4.4v1h4.4v0.7c0,0.2-0.1,0.3-0.3,0.3
	c-0.2,0-1.1,0-1.8,0c0.2,0.3,0.3,0.7,0.4,1c0.8,0.1,1.6,0,2.4-0.2c0.5-0.2,0.7-0.5,0.7-1.2v-0.7h3v0.6h1.3v-2.4h1.5L491.1,20.9z"/>
<path id="サインアップ-4_1_" class="st0" d="M238.4,14.7c-0.3,0.1-0.6,0.1-0.9,0.1h-6.8c-0.5,0-1,0-1.5-0.1v1.6
	c0.3,0,0.9-0.1,1.5-0.1h6.9c-0.2,1.6-0.8,3-1.8,4.3c-1.4,1.7-3.3,2.9-5.5,3.3l1.2,1.3c2.2-0.6,4.2-2,5.6-3.8c1-1.6,1.7-3.3,2.1-5.1
	c0.1-0.3,0.1-0.6,0.3-0.8L238.4,14.7z M250.5,18.2l0-1c0-0.3,0-0.7,0.1-1h-1.5c0.1,0.3,0.1,0.7,0.1,1c0,0.3,0,0.6,0,1h-4
	c-0.4,0-0.8,0-1.1-0.1v1.4c0.4,0,0.8-0.1,1.2-0.1h3.4c-1.3,1.7-3.1,3.1-5.1,4.1l1,1.1c1.8-1,3.4-2.3,4.7-3.9c0,1.3,0,2.6,0,3.4
	c0,0.3-0.1,0.4-0.4,0.4c-0.6,0-1.1-0.1-1.7-0.1l0.1,1.3c0.6,0,1.5,0.1,2.1,0.1c0.6,0.1,1.1-0.4,1.2-1c0,0,0-0.1,0-0.1
	c0-1.4-0.1-3.5-0.1-5.2h1.9c0.3,0,0.7,0,1,0v-1.4c-0.3,0.1-0.7,0.1-1,0.1H250.5z M266,16.4v6.3h-7.3v-6.3H266z M267.4,16.2
	c0-0.4,0-0.8,0-1.2c-0.5,0-1,0-1.3,0h-7.6c-0.4,0-0.8,0-1.3,0c0,0.4,0,0.9,0,1.2v6.9c0,0.6,0,1.7,0,1.8h1.5c0-0.1,0-0.4,0-0.8h7.3
	c0,0.4,0,0.7,0,0.8h1.5c0-0.1,0-1.3,0-1.8L267.4,16.2z M270.7,20.2c0.5,0,1.3-0.1,2.1-0.1h7.6c0.6,0,1.2,0,1.6,0.1v-1.7
	c-0.3,0-0.9,0.1-1.6,0.1h-7.6c-0.8,0-1.6,0-2.1-0.1L270.7,20.2z M293.8,23.3v1.1h-6.1v-1.1L293.8,23.3z M292.9,19.6v1h-5.1v-1H292.9
	z M287.7,21.5h6.4v-2.9h-7.7v7.3h1.2v-0.4h6.1v0.4h1.3v-3.5h-7.4V21.5z M296.7,14h-4.4c0.1-0.3,0.3-0.5,0.4-0.8l-1.3-0.3
	c-0.3,0.7-0.7,1.4-1.3,2V14h-3.4c0.1-0.3,0.3-0.5,0.4-0.8l-1.2-0.3c-0.4,1.1-1.1,2.1-2,2.9c0.4,0.2,0.7,0.4,1.1,0.7
	c0.4-0.4,0.8-0.9,1.2-1.4h0.4c0.3,0.4,0.5,0.9,0.7,1.4l1.2-0.4c-0.1-0.4-0.3-0.7-0.5-1h2.1c-0.2,0.2-0.4,0.4-0.7,0.5
	c0.1,0.1,0.3,0.1,0.4,0.2h-0.1v1h-5.2v2.7h1.2v-1.7h9.3v1.7h1.3v-2.7h-5.4v-1h0c0.2-0.2,0.5-0.5,0.7-0.8h1c0.4,0.4,0.6,0.9,0.9,1.4
	l1.2-0.4c-0.2-0.4-0.4-0.7-0.7-1.1h2.7V14z M302.3,21.8c-0.5,0.2-1,0.3-1.5,0.5v-3.2h1.3v-1.2h-1.3v-2.8h1.6v-1.2h-4.5v1.2h1.7v2.8
	h-1.5v1.2h1.5v3.6c-0.7,0.2-1.3,0.4-1.8,0.5l0.3,1.3c1.3-0.4,2.9-1,4.4-1.5L302.3,21.8z M304.2,17.3h1.8v1.5h-1.8L304.2,17.3z
	 M304.2,14.7h1.8v1.5h-1.8L304.2,14.7z M308.9,16.3h-1.8v-1.5h1.8V16.3z M308.9,18.8h-1.8v-1.5h1.8V18.8z M307.2,24.2v-1.7h3.1v-1.2
	h-3.1v-1.4h2.9v-6.3H303v6.3h2.9v1.4h-3v1.2h3v1.7h-4.1v1.2h9v-1.2H307.2z"/>
<path id="サインアップ-5_1_" class="st0" d="M47,19.1c0.7-0.2,1.5-0.4,2.2-0.4h0.1c-0.5,1.2-1.2,2.2-2.1,3.1
	C47.1,21,47,20.2,47,19.4L47,19.1z M44.4,23.4c-0.5,0-0.7-0.3-0.7-0.8c0.2-1.3,1-2.3,2.1-3c0,1,0.1,2.1,0.3,3.1
	C45.6,23.1,45,23.3,44.4,23.4z M49.8,16.7c0,0.3-0.1,0.6-0.2,0.9c-0.1,0-0.3,0-0.4,0c-0.7,0-1.5,0.1-2.2,0.3c0-0.5,0.1-1,0.1-1.5
	c1.7-0.1,3.3-0.2,5-0.5l0-1.3c-1.6,0.3-3.2,0.5-4.8,0.6c0.1-0.3,0.1-0.7,0.2-0.9c0-0.2,0.1-0.4,0.2-0.7l-1.5,0c0,0.2,0,0.5,0,0.7
	l-0.1,0.9h-0.8c-0.8,0-1.6-0.1-2.4-0.2l0,1.3c0.6,0,1.7,0.1,2.3,0.1H46c-0.1,0.6-0.1,1.2-0.1,1.9c-1.9,0.9-3.4,2.7-3.4,4.5
	c-0.1,0.9,0.5,1.8,1.5,1.9c0.1,0,0.2,0,0.3,0c0.8,0,1.6-0.3,2.3-0.7c0.1,0.2,0.1,0.5,0.2,0.7l1.3-0.4c-0.1-0.3-0.2-0.7-0.3-1.1
	c1.3-1.2,2.4-2.7,3-4.4c1,0.2,1.7,1.1,1.8,2.2c0,1.6-1.3,2.9-3.9,3.2l0.7,1.2c3.3-0.5,4.5-2.3,4.5-4.3c0-1.6-1.2-3-2.7-3.3
	c0.1-0.3,0.2-0.6,0.3-0.8L49.8,16.7z M68,17.3c-1.1-0.7-2.2-1.3-3.3-1.9L64,16.5c1.1,0.5,2.2,1.2,3.2,1.9L68,17.3z M62.9,15.1
	c-0.7,0.2-1.3,0.4-2,0.5c0.2-0.8,0.4-1.6,0.5-2l-1.5-0.1c-0.1,0.8-0.2,1.6-0.4,2.4c-0.5,0-1,0.1-1.4,0.1c-0.6,0-1.2,0-1.8-0.1
	l0.1,1.3c0.6,0,1.1,0.1,1.7,0.1c0.3,0,0.7,0,1,0c-0.7,1.8-1.7,3.5-2.9,5.1l1.3,0.7c1.3-1.8,2.3-3.8,3-5.9c0.8-0.1,1.7-0.3,2.5-0.5
	L62.9,15.1z M63.4,22.9c0.1,0.7-0.4,1.2-1.1,1.3c-0.1,0-0.2,0-0.3,0c-1,0-1.4-0.4-1.4-1c0-0.6,0.6-1,1.5-1c0.4,0,0.9,0.1,1.3,0.2
	C63.4,22.6,63.4,22.7,63.4,22.9z M63.2,17.9c0,0.9,0.1,2.2,0.2,3.3c-0.4-0.1-0.8-0.1-1.2-0.1c-1.7,0-2.9,0.9-2.9,2.2
	c0,1.4,1.3,2.1,2.9,2.1c1.8,0,2.5-1,2.5-2.1v-0.4c0.7,0.4,1.4,0.9,2.1,1.5l0.7-1.2c-0.8-0.8-1.8-1.3-2.9-1.8c0-0.8-0.1-1.6-0.1-2
	c0-0.5,0-1.1,0-1.6L63.2,17.9z M76.4,19.2c0.9-0.1,1.7-0.1,2.6-0.1c0.8,0,1.6,0.1,2.4,0.2l0-1.3c-0.8-0.1-1.6-0.1-2.4-0.1
	c-0.9,0-1.7,0-2.6,0.1V19.2z M77.4,15.2c-0.8,0.2-1.7,0.4-2.5,0.5l0.2-0.8c0.1-0.3,0.2-0.8,0.3-1.2l-1.7-0.1c0,0.4,0,0.8,0,1.3
	c0,0.3-0.1,0.6-0.2,1c-0.5,0-1,0.1-1.4,0.1c-0.6,0-1.1,0-1.7-0.1l0,1.4c0.5,0,1,0.1,1.7,0.1c0.4,0,0.7,0,1.1,0
	c-0.1,0.4-0.2,0.9-0.3,1.3c-0.6,2.2-1.3,4.2-2.4,6.2l1.5,0.5c0.9-2.1,1.6-4.2,2.2-6.4c0.2-0.6,0.3-1.2,0.4-1.8
	c0.9-0.1,1.9-0.3,2.8-0.5V15.2z M75.6,21.2c-0.1,0.6-0.2,1.2-0.2,1.7c0,1.4,1.2,2.1,3.4,2.1c0.9,0,1.8-0.1,2.7-0.2l0-1.4
	c-0.9,0.2-1.8,0.3-2.8,0.3c-1.8,0-2.1-0.6-2.1-1.2c0-0.4,0.1-0.8,0.2-1.2L75.6,21.2z M83.6,20.7l1.3,1.4c0.2-0.3,0.5-0.8,0.9-1.2
	c0.6-0.8,1.7-2.3,2.3-3.1c0.4-0.6,0.7-0.6,1.2,0c0.6,0.7,1.7,2,2.6,3.1c0.9,1.1,2.2,2.4,3.2,3.4l1.1-1.3c-1.3-1.1-2.6-2.5-3.4-3.4
	c-0.9-0.9-2-2.3-2.8-3.2c-1-1-1.8-0.8-2.6,0.2c-0.8,1-2,2.5-2.6,3.2C84.4,20.1,84,20.4,83.6,20.7L83.6,20.7z M100.7,22.5
	c-0.6,0-1.3-0.7-1.3-2.3c0.1-2.2,1.8-4,3.9-4.3c-0.1,1.2-0.4,2.4-0.8,3.6C102,21.6,101.3,22.5,100.7,22.5L100.7,22.5z M104.4,25.2
	c3.4-0.5,5.2-2.5,5.2-5.4c0.1-2.8-2.2-5.2-5-5.2c-0.1,0-0.3,0-0.4,0c-3.3-0.1-6.1,2.5-6.2,5.8c0,2.3,1.3,3.9,2.6,3.9
	s2.5-1.6,3.4-4.4c0.4-1.3,0.6-2.6,0.8-3.9c2,0.2,3.4,1.9,3.3,3.9c0,2-1.4,3.6-3.4,3.9c-0.4,0.1-0.8,0.2-1.2,0.2L104.4,25.2z
	 M119.2,17.4v1h-2v-1H119.2z M122.5,18.4h-2.1v-1h2.1L122.5,18.4z M120.4,20.4v-1h2.1v1H120.4z M117.2,20.4v-1h2v1H117.2z
	 M117.2,21.4h2v2.2h1.2v-2.1h2.1v1c0,0.2-0.1,0.2-0.2,0.2s-0.7,0-1.3,0c0.2,0.3,0.3,0.7,0.4,1.1c0.6,0.1,1.3,0,1.9-0.2
	c0.4-0.2,0.5-0.5,0.5-1.1v-6H122c-0.3-0.2-0.6-0.3-1-0.5c1-0.5,1.9-1.2,2.7-1.9l-0.8-0.6l-0.3,0.1h-6.6v1h5.4
	c-0.5,0.4-1,0.7-1.5,0.9c-0.6-0.3-1.3-0.5-1.8-0.7l-0.8,0.7c0.7,0.3,1.6,0.6,2.3,1H116v7.2h1.2L117.2,21.4z M115,15.5
	c-0.7-0.8-1.5-1.6-2.4-2.2l-0.9,0.8c0.9,0.6,1.7,1.4,2.3,2.3L115,15.5z M114.7,18.4h-3.2v1.2h1.9V23c-0.7,0.5-1.4,1-2.1,1.5l0.6,1.3
	c0.8-0.6,1.5-1.2,2.2-1.7c0.9,1.1,2.3,1.7,3.8,1.6c1.6,0.1,4.6,0,6.2,0c0.1-0.4,0.2-0.9,0.4-1.3c-1.8,0.1-5,0.2-6.6,0.1
	c-1.5-0.1-2.6-0.5-3.2-1.5V18.4z M132.1,19.8v-1.2h-2.5V16h2.1v-1.2h-3.8c0.1-0.5,0.3-1,0.4-1.6L127,13c-0.2,1.5-0.8,3-1.7,4.3
	c0.4,0.2,0.7,0.5,1.1,0.8c0.4-0.6,0.8-1.3,1-2h0.9v2.5h-2.7v1.2h2.7c-0.1,2-1.2,3.9-2.8,5.1c0.4,0.3,0.7,0.6,0.9,1
	c1.3-1,2.3-2.3,2.8-3.9c0.8,0.9,1.5,1.8,2.1,2.8l0.9-1.1c-0.4-0.5-2-2.3-2.7-3c0.1-0.3,0.1-0.5,0.1-0.8L132.1,19.8z M133.8,23.2
	v-7.7h2.6v7.7L133.8,23.2z M132.5,14.2v11.2h1.3v-1h2.6v0.9h1.3V14.2L132.5,14.2z"/>
<g>
	<path class="st1" d="M537,1c1.1,0,2,0.9,2,2v36H361V3c0-1.1,0.9-2,2-2H537 M537,0H363c-1.7,0-3,1.3-3,3v37h180V3
		C540,1.3,538.7,0,537,0L537,0z"/>
</g>
<g>
	<path class="st1" d="M357,1c1.1,0,2,0.9,2,2v36H181V3c0-1.1,0.9-2,2-2H357 M357,0H183c-1.7,0-3,1.3-3,3v37h180V3
		C360,1.3,358.7,0,357,0L357,0z"/>
</g>
<g>
	<path class="st1" d="M177,1c1.1,0,2,0.9,2,2v36H1V3c0-1.1,0.9-2,2-2H177 M177,0H3C1.3,0,0,1.3,0,3v37h180V3C180,1.3,178.7,0,177,0
		L177,0z"/>
</g>
<g>
	<path class="st1" d="M717,1c1.1,0,2,0.9,2,2v36H541V3c0-1.1,0.9-2,2-2H717 M717,0H543c-1.7,0-3,1.3-3,3v37h180V3
		C720,1.3,718.7,0,717,0L717,0z"/>
</g>
</svg>
