<svg xmlns="http://www.w3.org/2000/svg" width="13" height="13" viewBox="0 0 13 13">
  <g id="グループ_3149" data-name="グループ 3149" transform="translate(0 0.001)">
    <path id="パス_356" data-name="パス 356" d="M12.634,5.462l-1.405-.332a4.9,4.9,0,0,0-.416-1.009L11.57,2.9a.475.475,0,0,0-.068-.586L10.69,1.5a.475.475,0,0,0-.586-.068l-1.226.758a4.9,4.9,0,0,0-1.009-.416L7.537.365A.476.476,0,0,0,7.075,0H5.926a.476.476,0,0,0-.463.366L5.132,1.771a4.865,4.865,0,0,0-1.009.416L2.9,1.428A.476.476,0,0,0,2.31,1.5L1.5,2.309a.476.476,0,0,0-.068.586l.758,1.227A4.88,4.88,0,0,0,1.772,5.13L.366,5.462A.477.477,0,0,0,0,5.925V7.073a.476.476,0,0,0,.366.463l1.406.332a4.882,4.882,0,0,0,.416,1.008L1.429,10.1a.477.477,0,0,0,.068.587l.812.812a.475.475,0,0,0,.586.068l1.227-.758a4.876,4.876,0,0,0,1.009.416l.332,1.406A.475.475,0,0,0,5.926,13H7.075a.476.476,0,0,0,.463-.366l.332-1.406a4.861,4.861,0,0,0,1.008-.416l1.227.758a.476.476,0,0,0,.586-.068l.812-.812a.476.476,0,0,0,.068-.586l-.758-1.226a4.86,4.86,0,0,0,.416-1.008l1.406-.332A.475.475,0,0,0,13,7.073V5.925A.475.475,0,0,0,12.634,5.462ZM6.5,10.087A3.588,3.588,0,1,1,10.088,6.5,3.589,3.589,0,0,1,6.5,10.087Z" fill="#888"/>
    <path id="パス_357" data-name="パス 357" d="M182.862,180.507a2.326,2.326,0,1,0,2.326,2.326A2.327,2.327,0,0,0,182.862,180.507Z" transform="translate(-176.362 -176.334)" fill="#888"/>
  </g>
</svg>
