<svg xmlns="http://www.w3.org/2000/svg" xmlns:xlink="http://www.w3.org/1999/xlink" width="118" height="90" viewBox="0 0 118 90">
  <defs>
    <filter id="長方形_779" x="0" y="17" width="99.997" height="73" filterUnits="userSpaceOnUse">
      <feOffset dx="1" dy="2" input="SourceAlpha"/>
      <feGaussianBlur stdDeviation="3" result="blur"/>
      <feFlood flood-opacity="0.204"/>
      <feComposite operator="in" in2="blur"/>
      <feComposite in="SourceGraphic"/>
    </filter>
    <filter id="パス_309" x="58" y="0" width="60" height="60.002" filterUnits="userSpaceOnUse">
      <feOffset dy="3" input="SourceAlpha"/>
      <feGaussianBlur stdDeviation="3" result="blur-2"/>
      <feFlood flood-opacity="0.161"/>
      <feComposite operator="in" in2="blur-2"/>
      <feComposite in="SourceGraphic"/>
    </filter>
  </defs>
  <g id="グループ_3149" data-name="グループ 3149" transform="translate(-544 -373)">
    <g id="グループ_2886" data-name="グループ 2886" transform="translate(140 0.238)">
      <g transform="matrix(1, 0, 0, 1, 404, 372.76)" filter="url(#長方形_779)">
        <g id="長方形_779-2" data-name="長方形 779" transform="translate(8 24)" fill="#fff" stroke="#2c76a4" stroke-miterlimit="10" stroke-width="3">
          <rect width="81.997" height="55" rx="5" stroke="none"/>
          <rect x="1.5" y="1.5" width="78.997" height="52" rx="3.5" fill="none"/>
        </g>
      </g>
      <path id="パス_504" data-name="パス 504" d="M915.76,722.059l-34.28-25.4a9.316,9.316,0,0,0-10.451,0L836.76,722.053" transform="translate(-423.26 -279.108)" fill="none" stroke="#2c76a4" stroke-linecap="round" stroke-miterlimit="10" stroke-width="3"/>
      <path id="パス_318" data-name="パス 318" d="M915.76,695.059l-34.28,25.4a9.316,9.316,0,0,1-10.451,0L836.76,695.065" transform="translate(-423.26 -288.892)" fill="#fff" stroke="#2c76a4" stroke-linecap="round" stroke-miterlimit="10" stroke-width="3"/>
    </g>
    <g id="グループ_2628" data-name="グループ 2628" transform="translate(612 380)">
      <g transform="matrix(1, 0, 0, 1, -68, -7)" filter="url(#パス_309)">
        <path id="パス_309-2" data-name="パス 309" d="M878.751,689.219a20,20,0,1,0,20,20A20,20,0,0,0,878.751,689.219Z" transform="translate(-790.75 -682.22)" fill="#ff745a" stroke="#fff" stroke-miterlimit="10" stroke-width="2"/>
      </g>
      <g id="グループ_2588" data-name="グループ 2588" transform="translate(11.044 8.644)">
        <path id="パス_236" data-name="パス 236" d="M59.854,15.965c-.217-.22-.438-.406-.651-.586-.9-.757-1.675-1.412-1.675-4.127V9.1A6.823,6.823,0,0,0,52.3,2.453a1.67,1.67,0,1,0-2.974,0A6.823,6.823,0,0,0,44.1,9.1v2.154c0,2.716-.776,3.37-1.675,4.127-.214.18-.435.366-.651.586l-.02.02v2.137H59.873V15.985Z" transform="translate(-41.751)" fill="#fff"/>
        <g id="長方形_739" data-name="長方形 739" transform="translate(4.027 19.137)" fill="#fff" stroke="#fff" stroke-width="1">
          <rect width="10.068" height="2.014" stroke="none"/>
          <rect x="0.5" y="0.5" width="9.068" height="1.014" fill="none"/>
        </g>
      </g>
    </g>
  </g>
</svg>
