<svg xmlns="http://www.w3.org/2000/svg" xmlns:xlink="http://www.w3.org/1999/xlink" width="89" height="99" viewBox="0 0 89 99">
  <defs>
    <filter id="LOCK" x="0" y="0" width="89" height="99" filterUnits="userSpaceOnUse">
      <feOffset dy="3" input="SourceAlpha"/>
      <feGaussianBlur stdDeviation="4.5" result="blur"/>
      <feFlood flood-opacity="0.161"/>
      <feComposite operator="in" in2="blur"/>
      <feComposite in="SourceGraphic"/>
    </filter>
  </defs>
  <g id="グループ_2909" data-name="グループ 2909" transform="translate(-425.5 -369.5)">
    <rect id="長方形_555" data-name="長方形 555" width="46.219" height="27.438" transform="translate(446.838 417.506)" fill="#ff745a"/>
    <g transform="matrix(1, 0, 0, 1, 425.5, 369.5)" filter="url(#LOCK)">
      <path id="LOCK-2" data-name="LOCK" d="M804.363,751.613v7.047a3.578,3.578,0,1,0,7.156,0v-7.047a7.3,7.3,0,0,0,2.618-9.9,7.1,7.1,0,0,0-9.774-2.653,7.3,7.3,0,0,0-2.62,9.9A7.2,7.2,0,0,0,804.363,751.613Zm17.889-32.3a14.312,14.312,0,1,0-28.621,0V730.87l35.941,0h5.8a3.6,3.6,0,0,1,3.571,3.619h0v31.424a3.6,3.6,0,0,1-3.566,3.618H780.514a3.6,3.6,0,0,1-3.571-3.618h0V734.492a3.6,3.6,0,0,1,3.571-3.619h5.964V719.319a21.468,21.468,0,1,1,42.931-.074Z" transform="translate(-763.44 -687.03)" fill="#2c76a4" fill-rule="evenodd"/>
    </g>
  </g>
</svg>
