<?xml version="1.0" encoding="utf-8"?>
<!-- Generator: Adobe Illustrator 24.2.1, SVG Export Plug-In . SVG Version: 6.00 Build 0)  -->
<svg version="1.1" xmlns="http://www.w3.org/2000/svg" xmlns:xlink="http://www.w3.org/1999/xlink" x="0px" y="0px"
	 viewBox="0 0 45 45" style="enable-background:new 0 0 45 45;" xml:space="preserve">
<style type="text/css">
	.st0{fill:#EEEEEF;}
	.st1{fill:#FFFFFF;}
	.st2{fill:#FF5C0B;}
	.st3{fill:#00B900;}
	.st4{fill:#1877F2;}
	.st5{fill:#1DA1F2;}
	.st6{fill:#00A4DE;}
	.st7{fill:#898F9C;}
	.st8{fill:#657786;}
	.st9{fill:#AAB8C2;}
	.st10{fill:#E1E8ED;}
	.st11{fill:#F5F8FA;}
	.st12{fill:#2C76A4;}
	.st13{fill:none;stroke:#000000;stroke-miterlimit:10;}
	.st14{fill:#FF4600;}
	.st15{fill:#00B900;enable-background:new    ;}
	.st16{fill:none;stroke:#2C76A4;stroke-width:1.5;stroke-miterlimit:10;}
	.st17{fill:none;stroke:#2C76A4;stroke-width:1.5;stroke-linecap:round;stroke-miterlimit:10;}
	.st18{fill:#F3FF1F;}
	.st19{fill:none;stroke:#B0AD9E;stroke-width:1.5;stroke-miterlimit:10;}
	.st20{fill:none;stroke:#B0AD9E;stroke-width:1.5;stroke-linecap:round;stroke-miterlimit:10;}
	.st21{fill:#B0AD9E;}
	.st22{fill:#16FF39;}
</style>
<g id="BG">
</g>
<g id="LINE_LOGO_1_">
	<g>
		<circle class="st1" cx="22.5" cy="22.5" r="22.5"/>
		<g>
			<circle class="st3" cx="22.5" cy="22.5" r="11"/>
			<g id="TYPE_A_13_">
				<g>
					<path class="st1" d="M29.8,21.8c0-3.3-3.3-5.9-7.3-5.9c-4,0-7.3,2.7-7.3,5.9c0,2.9,2.6,5.4,6.1,5.9c0.2,0.1,0.6,0.2,0.6,0.4
						c0.1,0.2,0,0.5,0,0.7c0,0-0.1,0.5-0.1,0.6c0,0.2-0.1,0.7,0.6,0.4c0.8-0.3,4.2-2.5,5.7-4.2h0C29.3,24.3,29.8,23.1,29.8,21.8"/>
					<g>
						<path class="st3" d="M21,20.3h-0.5c-0.1,0-0.1,0.1-0.1,0.1v3.2c0,0.1,0.1,0.1,0.1,0.1H21c0.1,0,0.1-0.1,0.1-0.1v-3.2
							C21.2,20.3,21.1,20.3,21,20.3"/>
						<path class="st3" d="M24.5,20.3H24c-0.1,0-0.1,0.1-0.1,0.1v1.9l-1.5-2c0,0,0,0,0,0c0,0,0,0,0,0c0,0,0,0,0,0c0,0,0,0,0,0
							c0,0,0,0,0,0c0,0,0,0,0,0c0,0,0,0,0,0c0,0,0,0,0,0c0,0,0,0,0,0c0,0,0,0,0,0c0,0,0,0,0,0c0,0,0,0,0,0c0,0,0,0,0,0c0,0,0,0,0,0
							c0,0,0,0,0,0c0,0,0,0,0,0c0,0,0,0,0,0c0,0,0,0,0,0c0,0,0,0,0,0h-0.5c-0.1,0-0.1,0.1-0.1,0.1v3.2c0,0.1,0.1,0.1,0.1,0.1h0.5
							c0.1,0,0.1-0.1,0.1-0.1v-1.9l1.5,2c0,0,0,0,0,0c0,0,0,0,0,0c0,0,0,0,0,0c0,0,0,0,0,0c0,0,0,0,0,0c0,0,0,0,0,0c0,0,0,0,0,0
							c0,0,0,0,0,0c0,0,0,0,0,0c0,0,0,0,0,0h0.5c0.1,0,0.1-0.1,0.1-0.1v-3.2C24.7,20.3,24.6,20.3,24.5,20.3"/>
						<path class="st3" d="M19.8,22.9h-1.4v-2.5c0-0.1-0.1-0.1-0.1-0.1h-0.5c-0.1,0-0.1,0.1-0.1,0.1v3.2v0c0,0,0,0.1,0,0.1
							c0,0,0,0,0,0c0,0,0,0,0,0c0,0,0.1,0,0.1,0h0h2.1c0.1,0,0.1-0.1,0.1-0.1v-0.5C19.9,23,19.9,22.9,19.8,22.9"/>
						<path class="st3" d="M27.4,21.1c0.1,0,0.1-0.1,0.1-0.1v-0.5c0-0.1-0.1-0.1-0.1-0.1h-2.1h0c0,0-0.1,0-0.1,0c0,0,0,0,0,0
							c0,0,0,0,0,0c0,0,0,0.1,0,0.1v0v3.2v0c0,0,0,0.1,0,0.1c0,0,0,0,0,0c0,0,0,0,0,0c0,0,0.1,0,0.1,0h0h2.1c0.1,0,0.1-0.1,0.1-0.1
							v-0.5c0-0.1-0.1-0.1-0.1-0.1H26v-0.5h1.4c0.1,0,0.1-0.1,0.1-0.1v-0.5c0-0.1-0.1-0.1-0.1-0.1H26v-0.5H27.4z"/>
					</g>
				</g>
			</g>
		</g>
	</g>
</g>
</svg>
