<?xml version="1.0" encoding="utf-8"?>
<!-- Generator: Adobe Illustrator 24.2.1, SVG Export Plug-In . SVG Version: 6.00 Build 0)  -->
<svg version="1.1" xmlns="http://www.w3.org/2000/svg" xmlns:xlink="http://www.w3.org/1999/xlink" x="0px" y="0px"
	 viewBox="0 0 45 45" style="enable-background:new 0 0 45 45;" xml:space="preserve">
<style type="text/css">
	.st0{fill:#EEEEEF;}
	.st1{fill:#FFFFFF;}
	.st2{fill:#FF5C0B;}
	.st3{fill:#00B900;}
	.st4{fill:#1877F2;}
	.st5{fill:#1DA1F2;}
	.st6{fill:#00A4DE;}
	.st7{fill:#898F9C;}
	.st8{fill:#657786;}
	.st9{fill:#AAB8C2;}
	.st10{fill:#E1E8ED;}
	.st11{fill:#F5F8FA;}
	.st12{fill:#2C76A4;}
	.st13{fill:none;stroke:#000000;stroke-miterlimit:10;}
	.st14{fill:#FF4600;}
	.st15{fill:#00B900;enable-background:new    ;}
	.st16{fill:none;stroke:#2C76A4;stroke-width:1.5;stroke-miterlimit:10;}
	.st17{fill:none;stroke:#2C76A4;stroke-width:1.5;stroke-linecap:round;stroke-miterlimit:10;}
	.st18{fill:#F3FF1F;}
	.st19{fill:none;stroke:#B0AD9E;stroke-width:1.5;stroke-miterlimit:10;}
	.st20{fill:none;stroke:#B0AD9E;stroke-width:1.5;stroke-linecap:round;stroke-miterlimit:10;}
	.st21{fill:#B0AD9E;}
	.st22{fill:#16FF39;}
</style>
<g id="BG">
</g>
<g id="LINE_LOGO_1_">
	<g>
		<circle class="st1" cx="22.5" cy="22.5" r="22.5"/>
		<path class="st16" d="M28.9,30.9H18.7c-0.6,0-1-0.4-1-1V16.2c0-0.6,0.4-1,1-1h10.3c0.6,0,1,0.4,1,1v13.7
			C29.9,30.5,29.5,30.9,28.9,30.9z"/>
		<path class="st17" d="M14.6,25.7V13.1c0-0.5,0.4-1,1-1h10.1"/>
		<g id="グループ_1059_1_" transform="translate(358.804 111.136)">
			<path id="パス_150_1_" class="st12" d="M-330.8-91.6c-0.3-1.4-1.6-2.3-3-2c-0.5,0.1-1,0.3-1.3,0.7l-1.9,1.9c-1,1-1,2.6,0,3.6
				c0,0,0,0,0,0c0.2,0.2,0.5,0.4,0.8,0.6c1,0.4,2,0.2,2.8-0.6l0.1-0.1c0-0.1,0-0.3,0-0.4c-0.1-0.2-0.3-0.4-0.6-0.5
				c-0.1,0-0.2,0-0.3,0l-0.1,0.1c-0.1,0.1-0.3,0.2-0.4,0.3c-0.2,0.1-0.5,0.1-0.7,0.1c-0.3,0-0.5-0.2-0.7-0.4
				c-0.1-0.1-0.2-0.3-0.3-0.4c-0.1-0.2-0.1-0.5-0.1-0.7c0.1-0.3,0.2-0.5,0.4-0.7l1.9-1.9c0.1-0.1,0.3-0.2,0.4-0.3
				c0.7-0.3,1.4,0.1,1.7,0.7c0.2,0.5,0.1,1-0.3,1.4c0.2,0.1,0.3,0.2,0.5,0.4c0.1,0.1,0.3,0.3,0.4,0.5c0.2-0.2,0.4-0.5,0.5-0.8
				C-330.7-90.6-330.7-91.1-330.8-91.6z"/>
			<path id="パス_151_1_" class="st12" d="M-332.2-89.4c-1-1-2.6-1-3.6,0l-0.1,0.1c0,0.1,0,0.3,0.1,0.4c0.1,0.3,0.5,0.5,0.8,0.5
				l0.1-0.1c0.1-0.1,0.3-0.2,0.4-0.3c0.2-0.1,0.5-0.1,0.7-0.1c0.3,0.1,0.5,0.2,0.7,0.4c0.1,0.1,0.2,0.3,0.3,0.4
				c0.1,0.2,0.1,0.5,0.1,0.7c0,0.3-0.2,0.5-0.4,0.7l-1.9,1.9c-0.1,0.1-0.3,0.2-0.4,0.3c-0.2,0.1-0.5,0.1-0.7,0.1
				c-0.7-0.1-1.2-0.8-1-1.5c0-0.3,0.2-0.5,0.3-0.7c-0.2-0.1-0.3-0.2-0.5-0.4l0,0c-0.1-0.1-0.3-0.3-0.4-0.5c-1,1-1,2.6,0,3.6
				c0.2,0.2,0.5,0.4,0.8,0.5c1,0.4,2,0.2,2.8-0.6l1.9-1.9C-331.2-86.7-331.2-88.4-332.2-89.4C-332.2-89.4-332.2-89.4-332.2-89.4
				L-332.2-89.4z"/>
		</g>
	</g>
</g>
</svg>
