<?xml version="1.0" encoding="utf-8"?>
<!-- Generator: Adobe Illustrator 24.2.1, SVG Export Plug-In . SVG Version: 6.00 Build 0)  -->
<svg version="1.1" xmlns="http://www.w3.org/2000/svg" xmlns:xlink="http://www.w3.org/1999/xlink" x="0px" y="0px"
	 viewBox="0 0 45 45" style="enable-background:new 0 0 45 45;" xml:space="preserve">
<style type="text/css">
	.st0{fill:#EEEEEF;}
	.st1{fill:#FFFFFF;}
	.st2{fill:#FF5C0B;}
	.st3{fill:#00B900;}
	.st4{fill:#1877F2;}
	.st5{fill:#1DA1F2;}
	.st6{fill:#00A4DE;}
	.st7{fill:#898F9C;}
	.st8{fill:#657786;}
	.st9{fill:#AAB8C2;}
	.st10{fill:#E1E8ED;}
	.st11{fill:#F5F8FA;}
	.st12{fill:#2C76A4;}
	.st13{fill:none;stroke:#000000;stroke-miterlimit:10;}
	.st14{fill:#FF4600;}
	.st15{fill:#00B900;enable-background:new    ;}
	.st16{fill:none;stroke:#2C76A4;stroke-width:1.5;stroke-miterlimit:10;}
	.st17{fill:none;stroke:#2C76A4;stroke-width:1.5;stroke-linecap:round;stroke-miterlimit:10;}
	.st18{fill:#F3FF1F;}
	.st19{fill:none;stroke:#B0AD9E;stroke-width:1.5;stroke-miterlimit:10;}
	.st20{fill:none;stroke:#B0AD9E;stroke-width:1.5;stroke-linecap:round;stroke-miterlimit:10;}
	.st21{fill:#B0AD9E;}
	.st22{fill:#16FF39;}
</style>
<g id="BG">
</g>
<g id="LINE_LOGO_1_">
	<g>
		<circle class="st1" cx="22.5" cy="22.5" r="22.5"/>
		<g>
			<path class="st6" d="M24.5,23.1c-0.6-0.7-1.5-1.1-2.6-1.2c1-0.3,1.7-0.7,2.2-1.2c0.5-0.5,0.7-1.2,0.7-2.1c0-0.7-0.2-1.3-0.5-1.9
				c-0.3-0.5-0.8-1-1.3-1.3c-0.5-0.3-1.1-0.5-1.8-0.6c-0.7-0.1-2-0.2-3.7-0.2H13v15.8h4.5c1.8,0,3.1-0.1,3.9-0.2
				c0.8-0.1,1.5-0.3,2-0.6c0.7-0.4,1.2-0.9,1.5-1.5c0.4-0.6,0.5-1.4,0.5-2.2C25.4,24.7,25.1,23.8,24.5,23.1z M17,18.1h0.9
				c1.1,0,1.8,0.1,2.2,0.4c0.4,0.2,0.6,0.7,0.6,1.3c0,0.6-0.2,1-0.6,1.2c-0.4,0.2-1.1,0.3-2.2,0.3H17V18.1z M20.7,27.2
				c-0.4,0.3-1.1,0.4-2.2,0.4H17v-3.5h1.6c1,0,1.8,0.1,2.2,0.4c0.4,0.3,0.6,0.7,0.6,1.4C21.3,26.5,21.1,26.9,20.7,27.2z"/>
			<path class="st6" d="M30,26.4c-1.1,0-2,0.9-2,2c0,1.1,0.9,2,2,2c1.1,0,2-0.9,2-2C32,27.3,31.1,26.4,30,26.4z"/>
			<rect x="28.3" y="14.6" class="st6" width="3.5" height="10.6"/>
		</g>
	</g>
</g>
</svg>
