<?xml version="1.0" encoding="utf-8"?>
<!-- Generator: Adobe Illustrator 24.2.1, SVG Export Plug-In . SVG Version: 6.00 Build 0)  -->
<svg version="1.1" xmlns="http://www.w3.org/2000/svg" xmlns:xlink="http://www.w3.org/1999/xlink" x="0px" y="0px"
	 viewBox="0 0 45 45" style="enable-background:new 0 0 45 45;" xml:space="preserve">
<style type="text/css">
	.st0{fill:#EEEEEF;}
	.st1{fill:#FFFFFF;}
	.st2{fill:#FF5C0B;}
	.st3{fill:#00B900;}
	.st4{fill:#1877F2;}
	.st5{fill:#1DA1F2;}
	.st6{fill:#00A4DE;}
	.st7{fill:#898F9C;}
	.st8{fill:#657786;}
	.st9{fill:#AAB8C2;}
	.st10{fill:#E1E8ED;}
	.st11{fill:#F5F8FA;}
	.st12{fill:#2C76A4;}
	.st13{fill:none;stroke:#000000;stroke-miterlimit:10;}
	.st14{fill:#FF4600;}
	.st15{fill:#00B900;enable-background:new    ;}
	.st16{fill:none;stroke:#2C76A4;stroke-width:1.5;stroke-miterlimit:10;}
	.st17{fill:none;stroke:#2C76A4;stroke-width:1.5;stroke-linecap:round;stroke-miterlimit:10;}
	.st18{fill:#F3FF1F;}
	.st19{fill:none;stroke:#B0AD9E;stroke-width:1.5;stroke-miterlimit:10;}
	.st20{fill:none;stroke:#B0AD9E;stroke-width:1.5;stroke-linecap:round;stroke-miterlimit:10;}
	.st21{fill:#B0AD9E;}
	.st22{fill:#16FF39;}
</style>
<g id="BG">
</g>
<g id="LINE_LOGO_1_">
	<g>
		<circle class="st1" cx="22.5" cy="22.5" r="22.5"/>
		<g>
			<path class="st4" d="M34.2,22c0-6.1-4.9-11-11-11s-11,4.9-11,11c0,5.5,4,10,9.3,10.9v-7.7h-2.8V22h2.8v-2.4
				c0-2.8,1.6-4.3,4.2-4.3c1.2,0,2.5,0.2,2.5,0.2v2.7h-1.4c-1.4,0-1.8,0.8-1.8,1.7V22H28l-0.5,3.2h-2.6v7.7
				C30.2,32,34.2,27.5,34.2,22z"/>
			<path class="st1" d="M27.5,25.2L28,22h-3.1v-2.1c0-0.9,0.4-1.7,1.8-1.7h1.4v-2.7c0,0-1.3-0.2-2.5-0.2c-2.5,0-4.2,1.5-4.2,4.3V22
				h-2.8v3.2h2.8v7.7c0.6,0.1,1.1,0.1,1.7,0.1c0.6,0,1.2,0,1.7-0.1v-7.7H27.5z"/>
		</g>
	</g>
</g>
</svg>
