<?xml version="1.0" encoding="utf-8"?>
<!-- Generator: Adobe Illustrator 24.2.1, SVG Export Plug-In . SVG Version: 6.00 Build 0)  -->
<svg version="1.1" xmlns="http://www.w3.org/2000/svg" xmlns:xlink="http://www.w3.org/1999/xlink" x="0px" y="0px"
	 viewBox="0 0 45 45" style="enable-background:new 0 0 45 45;" xml:space="preserve">
<style type="text/css">
	.st0{fill:#EEEEEF;}
	.st1{fill:#FFFFFF;}
	.st2{fill:#FF5C0B;}
	.st3{fill:#00B900;}
	.st4{fill:#1877F2;}
	.st5{fill:#1DA1F2;}
	.st6{fill:#00A4DE;}
	.st7{fill:#898F9C;}
	.st8{fill:#657786;}
	.st9{fill:#AAB8C2;}
	.st10{fill:#E1E8ED;}
	.st11{fill:#F5F8FA;}
	.st12{fill:#2C76A4;}
	.st13{fill:none;stroke:#000000;stroke-miterlimit:10;}
	.st14{fill:#FF4600;}
	.st15{fill:#00B900;enable-background:new    ;}
	.st16{fill:none;stroke:#2C76A4;stroke-width:1.5;stroke-miterlimit:10;}
	.st17{fill:none;stroke:#2C76A4;stroke-width:1.5;stroke-linecap:round;stroke-miterlimit:10;}
	.st18{fill:#F3FF1F;}
	.st19{fill:none;stroke:#B0AD9E;stroke-width:1.5;stroke-miterlimit:10;}
	.st20{fill:none;stroke:#B0AD9E;stroke-width:1.5;stroke-linecap:round;stroke-miterlimit:10;}
	.st21{fill:#B0AD9E;}
	.st22{fill:#16FF39;}
</style>
<g id="BG">
</g>
<g id="LINE_LOGO_1_">
	<g>
		<circle class="st1" cx="22.5" cy="22.5" r="22.5"/>
		<path class="st5" d="M18.8,30.6c7.5,0,11.7-6.3,11.7-11.7c0-0.2,0-0.4,0-0.5c0.8-0.6,1.5-1.3,2-2.1c-0.7,0.3-1.5,0.5-2.4,0.6
			c0.8-0.5,1.5-1.3,1.8-2.3c-0.8,0.5-1.7,0.8-2.6,1c-0.7-0.8-1.8-1.3-3-1.3c-2.3,0-4.1,1.8-4.1,4.1c0,0.3,0,0.6,0.1,0.9
			c-3.4-0.2-6.4-1.8-8.5-4.3c-0.4,0.6-0.6,1.3-0.6,2.1c0,1.4,0.7,2.7,1.8,3.4c-0.7,0-1.3-0.2-1.9-0.5c0,0,0,0,0,0.1
			c0,2,1.4,3.6,3.3,4c-0.3,0.1-0.7,0.1-1.1,0.1c-0.3,0-0.5,0-0.8-0.1c0.5,1.6,2,2.8,3.8,2.8c-1.4,1.1-3.2,1.8-5.1,1.8
			c-0.3,0-0.7,0-1-0.1C14.3,29.9,16.5,30.6,18.8,30.6"/>
	</g>
</g>
</svg>
