<svg xmlns="http://www.w3.org/2000/svg" width="20.865" height="19.617" viewBox="0 0 20.865 19.617">
  <path id="パス_239" data-name="パス 239" d="M240.025,78.754a3.041,3.041,0,0,0-3.038,3.038v7.974a3.04,3.04,0,0,0,3.038,3.038h7.594v.949a2.231,2.231,0,0,0,1.425,2.37,10.737,10.737,0,0,0,3.711.631,3.756,3.756,0,0,1-1.718-3V92.8h2.278a3.041,3.041,0,0,0,3.038-3.038V81.792a3.042,3.042,0,0,0-3.038-3.038h-13.29" transform="translate(-236.237 -78.004)" fill="none" stroke="#b0ad9e" stroke-miterlimit="10" stroke-width="1.5"/>
</svg>
