<svg xmlns="http://www.w3.org/2000/svg" width="22" height="22" viewBox="0 0 22 22">
  <g id="グループ_1531" data-name="グループ 1531" transform="translate(-413.347 -707.855)">
    <path id="パス_214" data-name="パス 214" d="M435.347,718.855a11,11,0,1,0-12.718,10.866v-7.687h-2.793v-3.179h2.793v-2.424c0-2.757,1.642-4.28,4.154-4.28a16.908,16.908,0,0,1,2.463.215v2.707h-1.387a1.59,1.59,0,0,0-1.793,1.718v2.064h3.051l-.488,3.179h-2.563v7.687A11,11,0,0,0,435.347,718.855Z" fill="#1877f2"/>
    <path id="パス_215" data-name="パス 215" d="M428.629,722.034l.488-3.179h-3.051v-2.064a1.59,1.59,0,0,1,1.793-1.718h1.387v-2.707a16.908,16.908,0,0,0-2.463-.215c-2.512,0-4.154,1.523-4.154,4.28v2.424h-2.793v3.179h2.793v7.687a11.089,11.089,0,0,0,3.437,0v-7.687Z" fill="#fff"/>
  </g>
</svg>
