<svg xmlns="http://www.w3.org/2000/svg" width="31.002" height="31.002" viewBox="0 0 31.002 31.002">
  <path id="前面オブジェクトで型抜き_8" data-name="前面オブジェクトで型抜き 8" d="M16722-11074a14.908,14.908,0,0,1-10.607-4.394A14.9,14.9,0,0,1,16707-11089a14.9,14.9,0,0,1,4.393-10.606,14.9,14.9,0,0,1,10.609-4.4,14.912,14.912,0,0,1,10.605,4.395A14.91,14.91,0,0,1,16737-11089a14.9,14.9,0,0,1-4.395,10.605A14.916,14.916,0,0,1,16722-11074Zm-9.5-23h0v16h4.52a28.975,28.975,0,0,0,3.926-.187,6.341,6.341,0,0,0,2.018-.627,3.713,3.713,0,0,0,1.541-1.509,4.5,4.5,0,0,0,.539-2.261,4.11,4.11,0,0,0-.959-2.848,3.772,3.772,0,0,0-2.666-1.2,4.367,4.367,0,0,0,2.217-1.218,3.211,3.211,0,0,0,.689-2.164,3.884,3.884,0,0,0-.463-1.905,3.458,3.458,0,0,0-1.348-1.309,5.887,5.887,0,0,0-1.844-.6,27.92,27.92,0,0,0-3.779-.173Zm17.18,11.946a2.03,2.03,0,0,0-2.029,2.024,2.029,2.029,0,0,0,2.029,2.029,2.028,2.028,0,0,0,2.023-2.029,2.024,2.024,0,0,0-.57-1.453,2.028,2.028,0,0,0-1.436-.617Zm-1.766-11.951h0v10.665h3.516V-11097Zm-9.842,13.114h-1.52v-3.5h1.588a4.18,4.18,0,0,1,2.18.4,1.577,1.577,0,0,1,.59,1.407,1.4,1.4,0,0,1-.645,1.3,4.48,4.48,0,0,1-2.166.385Zm-.646-6.355h-.873v-3.209h.938a4.471,4.471,0,0,1,2.184.364,1.4,1.4,0,0,1,.559,1.265,1.3,1.3,0,0,1-.6,1.228,4.8,4.8,0,0,1-2.23.4Z" transform="translate(-16706.498 11104.501)" fill="#fff" stroke="rgba(0,0,0,0)" stroke-miterlimit="10" stroke-width="1"/>
</svg>
