<svg xmlns="http://www.w3.org/2000/svg" width="31.002" height="31.002" viewBox="0 0 31.002 31.002">
  <path id="前面オブジェクトで型抜き_7" data-name="前面オブジェクトで型抜き 7" d="M16722-11074a14.908,14.908,0,0,1-10.607-4.394A14.9,14.9,0,0,1,16707-11089a14.9,14.9,0,0,1,4.393-10.606,14.9,14.9,0,0,1,10.609-4.4,14.912,14.912,0,0,1,10.605,4.395A14.91,14.91,0,0,1,16737-11089a14.9,14.9,0,0,1-4.395,10.605A14.916,14.916,0,0,1,16722-11074Zm-9.5-8.312h0a11.486,11.486,0,0,0,6.189,1.814,11.633,11.633,0,0,0,4.932-1.047,10.9,10.9,0,0,0,3.6-2.7,11.887,11.887,0,0,0,2.961-7.746c0-.161,0-.323-.014-.525a8.033,8.033,0,0,0,2.014-2.093,8,8,0,0,1-2.322.64,4.042,4.042,0,0,0,1.779-2.234,8.084,8.084,0,0,1-2.566.979,4.06,4.06,0,0,0-2.949-1.278,4.043,4.043,0,0,0-4.035,4.041,3.835,3.835,0,0,0,.1.92,11.493,11.493,0,0,1-8.32-4.217,4,4,0,0,0-.551,2.028,4.028,4.028,0,0,0,1.8,3.359,3.955,3.955,0,0,1-1.828-.5v.05a4.047,4.047,0,0,0,3.236,3.961,4.017,4.017,0,0,1-1.061.143,4.224,4.224,0,0,1-.76-.072,4.02,4.02,0,0,0,3.771,2.8,8.049,8.049,0,0,1-5.016,1.729,8.05,8.05,0,0,1-.957-.045Z" transform="translate(-16706.498 11104.501)" fill="#fff" stroke="rgba(0,0,0,0)" stroke-miterlimit="10" stroke-width="1"/>
</svg>
