<svg xmlns="http://www.w3.org/2000/svg" width="18" height="15" viewBox="0 0 18 15">
  <g id="グループ_1520" data-name="グループ 1520" transform="translate(-519.629 -710.938)">
    <path id="パス_207" data-name="パス 207" d="M531.092,718.973a3.854,3.854,0,0,0-2.634-1.125,4.369,4.369,0,0,0,2.188-1.142,2.883,2.883,0,0,0,.685-2.027,3.484,3.484,0,0,0-.457-1.787,3.331,3.331,0,0,0-1.337-1.229,5.912,5.912,0,0,0-1.825-.565,29.133,29.133,0,0,0-3.741-.161h-4.342v15H524.1a30.692,30.692,0,0,0,3.885-.173,6.582,6.582,0,0,0,1.994-.588,3.572,3.572,0,0,0,1.527-1.414,4.116,4.116,0,0,0,.533-2.117A3.724,3.724,0,0,0,531.092,718.973Zm-7.454-4.709h.927a4.594,4.594,0,0,1,2.162.343,1.292,1.292,0,0,1,.553,1.188,1.214,1.214,0,0,1-.592,1.148,4.988,4.988,0,0,1-2.188.331h-.862Zm3.676,8.6a4.623,4.623,0,0,1-2.167.366h-1.509v-3.277h1.574a4.327,4.327,0,0,1,2.155.373,1.444,1.444,0,0,1,.584,1.322A1.29,1.29,0,0,1,527.314,722.865Z" fill="#00a4de"/>
    <path id="パス_208" data-name="パス 208" d="M536.624,722.76a2.005,2.005,0,1,0,2.005,2.005A2,2,0,0,0,536.624,722.76Z" transform="translate(-1 -0.833)" fill="#00a4de"/>
    <rect id="長方形_411" data-name="長方形 411" width="3.483" height="10.556" transform="translate(533.882 710.938)" fill="#00a4de"/>
  </g>
</svg>