<svg xmlns="http://www.w3.org/2000/svg" viewBox="0 0 272.8 227.3"><defs><style>.cls-1{fill:#fff;}</style></defs><title>hatena_wh</title><g id="レイヤー_2" data-name="レイヤー 2"><g id="レイヤー_1-2" data-name="レイヤー 1"><path class="cls-1" d="M164.6,121.7q-13.6-15.2-37.8-17c14.4-3.9,24.8-9.6,31.4-17.3S168,69.6,168,56.7a55,55,0,0,0-6.6-27.1A48.71,48.71,0,0,0,142.2,11,82.37,82.37,0,0,0,116,2.4C105.8.7,87.9,0,62.3,0H0V227.2H64.2q38.7,0,55.8-2.6c11.4-1.8,20.9-4.8,28.6-8.9a52.53,52.53,0,0,0,21.9-21.4c5.1-9.2,7.7-19.9,7.7-32.1C178.2,145.3,173.7,131.8,164.6,121.7ZM57.6,50.3H70.9q23.1,0,31,5.2c5.3,3.5,7.9,9.5,7.9,18s-2.9,14-8.5,17.4-16.1,5-31.4,5H57.6V50.3Zm52.8,130.3c-6.1,3.7-16.5,5.5-31.1,5.5H57.6V136.6H80.2c15,0,25.4,1.9,30.9,5.7s8.4,10.4,8.4,20-3,14.7-9.2,18.4Z"/><path class="cls-1" d="M244,169.7a28.8,28.8,0,1,0,28.8,28.8h0A28.79,28.79,0,0,0,244,169.7Z"/><rect class="cls-1" x="219" width="50" height="151.52"/></g></g></svg>