<svg xmlns="http://www.w3.org/2000/svg" width="22" height="22" viewBox="0 0 22 22">
  <g id="グループ_1528" data-name="グループ 1528" transform="translate(-467.931 -708.384)">
    <circle id="楕円形_159" data-name="楕円形 159" cx="11" cy="11" r="11" transform="translate(467.931 708.384)" fill="#00b900"/>
    <g id="TYPE_A" data-name="TYPE A">
      <g id="グループ_1527" data-name="グループ 1527">
        <path id="パス_209" data-name="パス 209" d="M486.248,718.723c0-3.274-3.282-5.937-7.317-5.937s-7.316,2.663-7.316,5.937c0,2.936,2.6,5.394,6.119,5.858.238.052.562.158.644.361a1.5,1.5,0,0,1,.024.662s-.086.516-.1.626c-.032.185-.147.724.633.4a23.642,23.642,0,0,0,5.749-4.248h0a5.285,5.285,0,0,0,1.568-3.654" fill="#fff"/>
        <g id="グループ_1526" data-name="グループ 1526">
          <path id="パス_210" data-name="パス 210" d="M477.445,717.141h-.513a.143.143,0,0,0-.143.143v3.188a.143.143,0,0,0,.143.142h.513a.143.143,0,0,0,.142-.142v-3.188a.143.143,0,0,0-.142-.143" fill="#00b900"/>
          <path id="パス_211" data-name="パス 211" d="M480.977,717.141h-.513a.142.142,0,0,0-.142.143v1.894l-1.461-1.973-.012-.015h0l-.009-.009,0,0-.007-.006,0,0-.007-.005-.005,0-.007,0-.005,0-.008,0h-.005l-.008,0h-.005l-.008,0h-.539a.143.143,0,0,0-.143.143v3.188a.143.143,0,0,0,.143.142h.513a.143.143,0,0,0,.143-.142v-1.894l1.462,1.976a.137.137,0,0,0,.037.035h0l.009,0,0,0,.007,0,.007,0h0l.01,0h0a.136.136,0,0,0,.036.005h.513a.143.143,0,0,0,.143-.142v-3.188a.143.143,0,0,0-.143-.143" fill="#00b900"/>
          <path id="パス_212" data-name="パス 212" d="M476.208,719.816h-1.4v-2.532a.143.143,0,0,0-.142-.143h-.514a.143.143,0,0,0-.142.143v3.187h0a.14.14,0,0,0,.04.1l0,0,0,0a.138.138,0,0,0,.1.04h2.051a.143.143,0,0,0,.142-.143v-.513a.142.142,0,0,0-.142-.142" fill="#00b900"/>
          <path id="パス_213" data-name="パス 213" d="M483.812,717.94a.143.143,0,0,0,.142-.143v-.513a.143.143,0,0,0-.142-.143h-2.051a.147.147,0,0,0-.1.04v0l0,0a.146.146,0,0,0-.039.1h0v3.187h0a.138.138,0,0,0,.04.1l0,0,0,0a.138.138,0,0,0,.1.04h2.051a.143.143,0,0,0,.142-.143v-.513a.142.142,0,0,0-.142-.142h-1.4v-.539h1.4a.143.143,0,0,0,.142-.143v-.513a.143.143,0,0,0-.142-.143h-1.4v-.538Z" fill="#00b900"/>
        </g>
      </g>
    </g>
  </g>
</svg>
