<svg xmlns="http://www.w3.org/2000/svg" width="31.012" height="31" viewBox="0 0 31.012 31">
  <path id="前面オブジェクトで型抜き_9" data-name="前面オブジェクトで型抜き 9" d="M15,30a15,15,0,1,1,10.606-4.394A15,15,0,0,1,15,30ZM15,5c-2.7,0-3.052.012-4.123.06a7.336,7.336,0,0,0-2.427.465A5.108,5.108,0,0,0,5.526,8.45a7.373,7.373,0,0,0-.465,2.427C5.012,11.948,5,12.3,5,15s.012,3.051.06,4.123a7.371,7.371,0,0,0,.465,2.426A5.113,5.113,0,0,0,8.45,24.476a7.362,7.362,0,0,0,2.427.464C11.964,24.99,12.322,25,15,25s3.036-.012,4.124-.061a7.351,7.351,0,0,0,2.426-.464,5.118,5.118,0,0,0,2.925-2.925,7.394,7.394,0,0,0,.465-2.426c.05-1.093.06-1.452.06-4.125s-.012-3.033-.06-4.124a7.4,7.4,0,0,0-.465-2.427A5.113,5.113,0,0,0,21.55,5.525a7.325,7.325,0,0,0-2.426-.465C18.053,5.012,17.7,5,15,5Zm0,18.2c-2.674,0-2.99-.01-4.041-.058A5.555,5.555,0,0,1,9.1,22.8a3.308,3.308,0,0,1-1.9-1.9,5.523,5.523,0,0,1-.344-1.856C6.813,17.99,6.8,17.674,6.8,15s.01-2.991.058-4.041A5.527,5.527,0,0,1,7.2,9.1,3.308,3.308,0,0,1,9.1,7.2a5.539,5.539,0,0,1,1.857-.344C12.027,6.812,12.345,6.8,15,6.8s2.973.01,4.041.058A5.54,5.54,0,0,1,20.9,7.2a3.317,3.317,0,0,1,1.9,1.9,5.543,5.543,0,0,1,.345,1.858c.048,1.05.058,1.366.058,4.041s-.01,2.989-.058,4.041A5.539,5.539,0,0,1,22.8,20.9a3.317,3.317,0,0,1-1.9,1.9,5.557,5.557,0,0,1-1.858.345C17.99,23.188,17.674,23.2,15,23.2ZM15,9.866A5.135,5.135,0,1,0,20.136,15,5.135,5.135,0,0,0,15,9.866Zm5.338-1.4a1.195,1.195,0,1,0,.85.35,1.2,1.2,0,0,0-.85-.35ZM15,18.334A3.334,3.334,0,1,1,18.334,15,3.334,3.334,0,0,1,15,18.334Z" transform="translate(0.513 0.5)" fill="#fff" stroke="rgba(0,0,0,0)" stroke-miterlimit="10" stroke-width="1"/>
</svg>
