<svg xmlns="http://www.w3.org/2000/svg" width="41" height="41" viewBox="0 0 41 41">
  <g id="icon_-_share" data-name="icon - share" transform="translate(0.5 0.5)">
    <circle id="Oval" cx="20" cy="20" r="20" fill="none" stroke="#2c76a4" stroke-miterlimit="10" stroke-width="1"/>
    <path id="Fill_1" data-name="Fill 1" d="M16.3,23a3.711,3.711,0,0,1-3.7-3.71,3.665,3.665,0,0,1,.2-1.194L6.458,13.969a3.716,3.716,0,1,1-.012-4.938L12.789,4.9a3.748,3.748,0,1,1,.753,1.274L7.211,10.306a3.733,3.733,0,0,1,0,2.389l6.342,4.127A3.7,3.7,0,1,1,16.3,23Zm0-5.936a2.213,2.213,0,1,0,1.574.648A2.208,2.208,0,0,0,16.3,17.065ZM3.7,9.274a2.213,2.213,0,1,0,1.574.648A2.208,2.208,0,0,0,3.7,9.274ZM16.3,1.484a2.213,2.213,0,1,0,1.574.648A2.208,2.208,0,0,0,16.3,1.484Z" transform="translate(9.5 8.73)" fill="#2c76a4"/>
  </g>
</svg>
