<svg xmlns="http://www.w3.org/2000/svg" width="19.841" height="16.125" viewBox="0 0 19.841 16.125">
  <path id="パス_232" data-name="パス 232" d="M216.839,640.4a11.5,11.5,0,0,0,11.582-11.582c0-.176,0-.351-.012-.526a8.274,8.274,0,0,0,2.031-2.108,8.1,8.1,0,0,1-2.337.641,4.086,4.086,0,0,0,1.79-2.252,8.162,8.162,0,0,1-2.584.988,4.075,4.075,0,0,0-6.938,3.712,11.556,11.556,0,0,1-8.391-4.253,4.076,4.076,0,0,0,1.261,5.435,4.031,4.031,0,0,1-1.844-.509c0,.017,0,.034,0,.052a4.073,4.073,0,0,0,3.266,3.991,4.07,4.07,0,0,1-1.838.069,4.073,4.073,0,0,0,3.8,2.827,8.163,8.163,0,0,1-5.056,1.743,8.272,8.272,0,0,1-.971-.057,11.522,11.522,0,0,0,6.24,1.828" transform="translate(-210.599 -624.273)" fill="#1da1f2"/>
</svg>
