<svg xmlns="http://www.w3.org/2000/svg" viewBox="0 0 25.14 20.57"><g id="レイヤー_2" data-name="レイヤー 2"><g id="レイヤー_1-2" data-name="レイヤー 1"><path id="icon_small_social_twitter" data-name="icon small social twitter" d="M25.14,2.44a10.1,10.1,0,0,1-3,.82A5.22,5.22,0,0,0,24.45.39a10.15,10.15,0,0,1-3.28,1.26A5.11,5.11,0,0,0,15,.61a5.23,5.23,0,0,0-2.6,5.77A14.62,14.62,0,0,1,1.75,1,5.21,5.21,0,0,0,3.34,7.89,5.2,5.2,0,0,1,1,7.24v.07A5.2,5.2,0,0,0,5.15,12.4a5.25,5.25,0,0,1-2.33.09,5.2,5.2,0,0,0,4.82,3.6,10.34,10.34,0,0,1-6.4,2.22A10.19,10.19,0,0,1,0,18.24a14.53,14.53,0,0,0,14.92.52,14.84,14.84,0,0,0,7.66-13c0-.22,0-.46,0-.67A10.6,10.6,0,0,0,25.14,2.44Z" style="fill:#fff"/></g></g></svg>