<svg xmlns="http://www.w3.org/2000/svg" width="1096" height="575.099" viewBox="0 0 1096 575.099">
  <g id="グループ_258" data-name="グループ 258" transform="translate(-1335 -881)">
    <g id="グループ_257" data-name="グループ 257" transform="translate(-347 -58)">
      <g id="undraw_contact_us_15o2" transform="translate(1682 939.359)">
        <g id="グループ_251" data-name="グループ 251" opacity="0.1">
          <ellipse id="楕円形_2" data-name="楕円形 2" cx="11.38" cy="14.9" rx="11.38" ry="14.9" transform="translate(468.04 347.22)" fill="#3f3d56"/>
          <path id="パス_23" data-name="パス 23" d="M540.43,461a18,18,0,0,0,2.38-9.11c0-8.23-5.1-14.9-11.39-14.9S520,443.68,520,451.91a18,18,0,0,0,2.38,9.11,18.61,18.61,0,0,0,0,18.21,18.61,18.61,0,0,0,0,18.21,17.94,17.94,0,0,0-2.38,9.11c0,8.22,5.1,14.9,11.38,14.9s11.39-6.68,11.39-14.9a17.94,17.94,0,0,0-2.38-9.11,18.61,18.61,0,0,0,0-18.21,18.61,18.61,0,0,0,0-18.21Z" transform="translate(-52 -162.63)" fill="#3f3d56"/>
          <ellipse id="楕円形_3" data-name="楕円形 3" cx="11.38" cy="14.9" rx="11.38" ry="14.9" transform="translate(468.04 256.17)" fill="#3f3d56"/>
          <ellipse id="楕円形_4" data-name="楕円形 4" cx="11.38" cy="14.9" rx="11.38" ry="14.9" transform="translate(468.04 237.96)" fill="#3f3d56"/>
          <path id="パス_24" data-name="パス 24" d="M488.82,290.86a53.076,53.076,0,0,1-4.24-6.24l29.9-4.91-32.34.24a54.62,54.62,0,0,1-1-43.2l43.39,22.51-40-29.42a54.53,54.53,0,1,1,90,61,54.534,54.534,0,0,1,6.22,9.94L541.92,321l41.39-13.89a54.53,54.53,0,0,1-8.79,51.2,54.52,54.52,0,1,1-85.7,0,54.52,54.52,0,0,1,0-67.42Z" transform="translate(-52 -162.63)" fill="#2c76a4"/>
          <path id="パス_25" data-name="パス 25" d="M586.19,324.57a54.27,54.27,0,0,1-11.67,33.71,54.52,54.52,0,1,1-85.7,0C481.51,349,586.19,318.45,586.19,324.57Z" transform="translate(-52 -162.63)" opacity="0.1"/>
        </g>
        <g id="グループ_252" data-name="グループ 252" opacity="0.1">
          <ellipse id="楕円形_5" data-name="楕円形 5" cx="8.51" cy="11.13" rx="8.51" ry="11.13" transform="translate(603.77 319.13)" fill="#3f3d56"/>
          <path id="パス_26" data-name="パス 26" d="M671,445.26a13.43,13.43,0,0,0,1.77-6.8c0-6.15-3.81-11.14-8.5-11.14s-8.51,5-8.51,11.14a13.331,13.331,0,0,0,1.78,6.8,13.9,13.9,0,0,0,0,13.61,13.9,13.9,0,0,0,0,13.61,13.33,13.33,0,0,0-1.78,6.8c0,6.15,3.81,11.14,8.51,11.14s8.5-5,8.5-11.14a13.43,13.43,0,0,0-1.77-6.8,14,14,0,0,0,0-13.61,14,14,0,0,0,0-13.61Z" transform="translate(-52 -162.63)" fill="#3f3d56"/>
          <ellipse id="楕円形_6" data-name="楕円形 6" cx="8.51" cy="11.13" rx="8.51" ry="11.13" transform="translate(603.77 251.09)" fill="#3f3d56"/>
          <ellipse id="楕円形_7" data-name="楕円形 7" cx="8.51" cy="11.13" rx="8.51" ry="11.13" transform="translate(603.77 237.48)" fill="#3f3d56"/>
          <path id="パス_27" data-name="パス 27" d="M632.44,318.11a39,39,0,0,1-3.17-4.66l22.35-3.67-24.17.18a40.84,40.84,0,0,1-.78-32.29L659.1,294.5l-29.91-22a40.75,40.75,0,1,1,67.29,45.6,41.205,41.205,0,0,1,4.65,7.43l-29,15.07,30.93-10.38a40.76,40.76,0,0,1-6.57,38.26,40.74,40.74,0,1,1-64,0,40.74,40.74,0,0,1,0-50.38Z" transform="translate(-52 -162.63)" fill="#2c76a4"/>
          <path id="パス_28" data-name="パス 28" d="M705.2,343.3a40.57,40.57,0,0,1-8.72,25.19,40.74,40.74,0,1,1-64,0C627,361.56,705.2,338.73,705.2,343.3Z" transform="translate(-52 -162.63)" opacity="0.1"/>
        </g>
        <g id="グループ_253" data-name="グループ 253" opacity="0.1">
          <ellipse id="楕円形_8" data-name="楕円形 8" cx="11.38" cy="14.9" rx="11.38" ry="14.9" transform="translate(1027.2 307.22)" fill="#3f3d56"/>
          <path id="パス_29" data-name="パス 29" d="M1081.57,421a18,18,0,0,1-2.38-9.11c0-8.23,5.1-14.9,11.39-14.9s11.38,6.67,11.38,14.9a18,18,0,0,1-2.38,9.11,18.61,18.61,0,0,1,0,18.21,18.61,18.61,0,0,1,0,18.21,17.939,17.939,0,0,1,2.38,9.11c0,8.22-5.1,14.9-11.38,14.9s-11.39-6.68-11.39-14.9a17.938,17.938,0,0,1,2.38-9.11,18.61,18.61,0,0,1,0-18.21A18.61,18.61,0,0,1,1081.57,421Z" transform="translate(-52 -162.63)" fill="#3f3d56"/>
          <ellipse id="楕円形_9" data-name="楕円形 9" cx="11.38" cy="14.9" rx="11.38" ry="14.9" transform="translate(1027.2 216.17)" fill="#3f3d56"/>
          <ellipse id="楕円形_10" data-name="楕円形 10" cx="11.38" cy="14.9" rx="11.38" ry="14.9" transform="translate(1027.2 197.96)" fill="#3f3d56"/>
          <path id="パス_30" data-name="パス 30" d="M1133.18,250.86a53.077,53.077,0,0,0,4.24-6.24l-29.9-4.91,32.34.24a54.62,54.62,0,0,0,1-43.2l-43.39,22.51,40-29.42a54.53,54.53,0,1,0-90,61,54.537,54.537,0,0,0-6.22,9.94L1080.08,281l-41.39-13.89a54.53,54.53,0,0,0,8.79,51.2,54.52,54.52,0,1,0,85.7,0,54.52,54.52,0,0,0,0-67.42Z" transform="translate(-52 -162.63)" fill="#2c76a4"/>
          <path id="パス_31" data-name="パス 31" d="M1035.81,284.57a54.27,54.27,0,0,0,11.67,33.71,54.52,54.52,0,1,0,85.7,0C1140.49,309,1035.81,278.45,1035.81,284.57Z" transform="translate(-52 -162.63)" opacity="0.1"/>
        </g>
        <g id="グループ_254" data-name="グループ 254" opacity="0.1">
          <ellipse id="楕円形_11" data-name="楕円形 11" cx="8.51" cy="11.13" rx="8.51" ry="11.13" transform="translate(920.21 313.13)" fill="#3f3d56"/>
          <path id="パス_32" data-name="パス 32" d="M974,439.26a13.43,13.43,0,0,1-1.77-6.8c0-6.15,3.81-11.14,8.5-11.14s8.51,5,8.51,11.14a13.329,13.329,0,0,1-1.78,6.8,13.9,13.9,0,0,1,0,13.61,13.9,13.9,0,0,1,0,13.61,13.329,13.329,0,0,1,1.78,6.8c0,6.15-3.81,11.14-8.51,11.14s-8.5-5-8.5-11.14a13.43,13.43,0,0,1,1.77-6.8,14,14,0,0,1,0-13.61,14,14,0,0,1,0-13.61Z" transform="translate(-52 -162.63)" fill="#3f3d56"/>
          <ellipse id="楕円形_12" data-name="楕円形 12" cx="8.51" cy="11.13" rx="8.51" ry="11.13" transform="translate(920.21 245.09)" fill="#3f3d56"/>
          <ellipse id="楕円形_13" data-name="楕円形 13" cx="8.51" cy="11.13" rx="8.51" ry="11.13" transform="translate(920.21 231.48)" fill="#3f3d56"/>
          <path id="パス_33" data-name="パス 33" d="M1012.56,312.11a38.986,38.986,0,0,0,3.17-4.66l-22.35-3.67,24.17.18a40.84,40.84,0,0,0,.78-32.29L985.9,288.5l29.91-22a40.75,40.75,0,1,0-67.29,45.6,41.2,41.2,0,0,0-4.65,7.43l29,15.07L942,324.23a40.76,40.76,0,0,0,6.57,38.26,40.74,40.74,0,1,0,64,0,40.74,40.74,0,0,0,0-50.38Z" transform="translate(-52 -162.63)" fill="#2c76a4"/>
          <path id="パス_34" data-name="パス 34" d="M939.8,337.3a40.571,40.571,0,0,0,8.72,25.19,40.74,40.74,0,1,0,64,0C1018,355.56,939.8,332.73,939.8,337.3Z" transform="translate(-52 -162.63)" opacity="0.1"/>
        </g>
        <g id="グループ_255" data-name="グループ 255" opacity="0.1">
          <ellipse id="楕円形_14" data-name="楕円形 14" cx="11.38" cy="14.9" rx="11.38" ry="14.9" transform="translate(50.21 307.22)" fill="#3f3d56"/>
          <path id="パス_35" data-name="パス 35" d="M122.59,421a18,18,0,0,0,2.38-9.11c0-8.23-5.1-14.9-11.38-14.9s-11.38,6.67-11.38,14.9a18,18,0,0,0,2.37,9.11,18.67,18.67,0,0,0,0,18.21,18.67,18.67,0,0,0,0,18.21,17.93,17.93,0,0,0-2.37,9.11c0,8.22,5.09,14.9,11.38,14.9S125,474.77,125,466.55a17.94,17.94,0,0,0-2.38-9.11,18.61,18.61,0,0,0,0-18.21,18.61,18.61,0,0,0,0-18.21Z" transform="translate(-52 -162.63)" fill="#3f3d56"/>
          <ellipse id="楕円形_15" data-name="楕円形 15" cx="11.38" cy="14.9" rx="11.38" ry="14.9" transform="translate(50.21 216.17)" fill="#3f3d56"/>
          <ellipse id="楕円形_16" data-name="楕円形 16" cx="11.38" cy="14.9" rx="11.38" ry="14.9" transform="translate(50.21 197.96)" fill="#3f3d56"/>
          <path id="パス_36" data-name="パス 36" d="M71,250.86a54.327,54.327,0,0,1-4.24-6.24l29.91-4.91L64.3,240a54.62,54.62,0,0,1-1-43.2l43.4,22.51-40-29.42a54.52,54.52,0,1,1,90,61,54.54,54.54,0,0,1,6.22,9.94L124.08,281l41.4-13.89a54.59,54.59,0,0,1-8.8,51.2,54.52,54.52,0,1,1-85.7,0,54.52,54.52,0,0,1,0-67.42Z" transform="translate(-52 -162.63)" fill="#2c76a4"/>
          <path id="パス_37" data-name="パス 37" d="M168.35,284.57a54.27,54.27,0,0,1-11.67,33.71,54.52,54.52,0,1,1-85.7,0C63.67,309,168.35,278.45,168.35,284.57Z" transform="translate(-52 -162.63)" opacity="0.1"/>
        </g>
        <g id="グループ_256" data-name="グループ 256" opacity="0.1">
          <ellipse id="楕円形_17" data-name="楕円形 17" cx="8.51" cy="11.13" rx="8.51" ry="11.13" transform="translate(162.93 313.13)" fill="#3f3d56"/>
          <path id="パス_38" data-name="パス 38" d="M230.17,439.26a13.43,13.43,0,0,0,1.77-6.8c0-6.15-3.8-11.14-8.5-11.14s-8.51,5-8.51,11.14a13.43,13.43,0,0,0,1.78,6.8,13.9,13.9,0,0,0,0,13.61,13.9,13.9,0,0,0,0,13.61,13.431,13.431,0,0,0-1.78,6.8c0,6.15,3.81,11.14,8.51,11.14s8.5-5,8.5-11.14a13.43,13.43,0,0,0-1.77-6.8,14,14,0,0,0,0-13.61,14,14,0,0,0,0-13.61Z" transform="translate(-52 -162.63)" fill="#3f3d56"/>
          <ellipse id="楕円形_18" data-name="楕円形 18" cx="8.51" cy="11.13" rx="8.51" ry="11.13" transform="translate(162.93 245.09)" fill="#3f3d56"/>
          <ellipse id="楕円形_19" data-name="楕円形 19" cx="8.51" cy="11.13" rx="8.51" ry="11.13" transform="translate(162.93 231.48)" fill="#3f3d56"/>
          <path id="パス_39" data-name="パス 39" d="M191.6,312.11a40.209,40.209,0,0,1-3.17-4.66l22.35-3.67-24.17.18a40.84,40.84,0,0,1-.78-32.29l32.43,16.83-29.91-22a40.75,40.75,0,1,1,67.29,45.6,40.122,40.122,0,0,1,4.65,7.43l-29,15.07,30.93-10.38a40.76,40.76,0,0,1-6.57,38.26,40.74,40.74,0,1,1-64,0,40.74,40.74,0,0,1,0-50.38Z" transform="translate(-52 -162.63)" fill="#2c76a4"/>
          <path id="パス_40" data-name="パス 40" d="M264.36,337.3a40.57,40.57,0,0,1-8.72,25.19,40.74,40.74,0,1,1-64,0C186.14,355.56,264.36,332.73,264.36,337.3Z" transform="translate(-52 -162.63)" opacity="0.1"/>
        </g>
        <ellipse id="楕円形_20" data-name="楕円形 20" cx="548" cy="8.86" rx="548" ry="8.86" transform="translate(0 484.27)" fill="#2c76a4" opacity="0.1"/>
        <ellipse id="楕円形_21" data-name="楕円形 21" cx="548" cy="8.86" rx="548" ry="8.86" transform="translate(0 557.02)" fill="#2c76a4" opacity="0.1"/>
        <ellipse id="楕円形_22" data-name="楕円形 22" cx="548" cy="8.86" rx="548" ry="8.86" transform="translate(0 332.44)" fill="#2c76a4" opacity="0.1"/>
        <ellipse id="楕円形_23" data-name="楕円形 23" cx="548" cy="8.86" rx="548" ry="8.86" transform="translate(0 408.35)" fill="#2c76a4" opacity="0.1"/>
        <path id="パス_41" data-name="パス 41" d="M860.79,273a18.3,18.3,0,0,0-10.6,1.16,15.65,15.65,0,0,1-12.74,0,17.88,17.88,0,0,0-15,.29,9.24,9.24,0,0,1-4.31,1.08c-6.08,0-11.13-6.12-12.18-14.19a11.88,11.88,0,0,0,3-3.27c3.56-5.74,9.07-9.43,15.27-9.43s11.64,3.64,15.2,9.32a11.68,11.68,0,0,0,10.09,5.54h.16C854.57,263.45,858.76,267.33,860.79,273Z" transform="translate(-52 -162.63)" fill="#2c76a4" opacity="0.1"/>
        <path id="パス_42" data-name="パス 42" d="M879.3,247.65l-9.82,6.22,6-10.84a9.7,9.7,0,0,0-5.94-2.11h-.16a11.351,11.351,0,0,1-2-.15L864,242.88l1.43-2.6a11.79,11.79,0,0,1-5.83-4.42l-6,3.78,3.76-6.84c-3.48-4.18-8.18-6.74-13.34-6.74-6.2,0-11.71,3.68-15.28,9.42a11.41,11.41,0,0,1-10.09,5.44h-.33c-6.84,0-12.38,7.75-12.38,17.31s5.54,17.32,12.38,17.32a9.39,9.39,0,0,0,4.31-1.08,17.86,17.86,0,0,1,15-.3,15.55,15.55,0,0,0,12.74,0,17.92,17.92,0,0,1,14.86.29,9.3,9.3,0,0,0,4.26,1.06c6.84,0,12.38-7.76,12.38-17.32a21.929,21.929,0,0,0-2.57-10.55Z" transform="translate(-52 -162.63)" fill="#2c76a4" opacity="0.1"/>
        <path id="パス_43" data-name="パス 43" d="M443.26,267.59a12.84,12.84,0,0,0-7.43.81,10.92,10.92,0,0,1-8.91,0,12.48,12.48,0,0,0-10.49.21,6.62,6.62,0,0,1-3,.75c-4.25,0-7.79-4.28-8.53-9.93a8.32,8.32,0,0,0,2.13-2.29c2.49-4,6.35-6.6,10.69-6.6s8.15,2.55,10.64,6.52a8.19,8.19,0,0,0,7.07,3.88h.11C438.9,260.92,441.83,263.64,443.26,267.59Z" transform="translate(-52 -162.63)" fill="#2c76a4" opacity="0.1"/>
        <path id="パス_44" data-name="パス 44" d="M456.21,249.86l-6.87,4.36,4.17-7.59a6.75,6.75,0,0,0-4.15-1.48h-.12a7.49,7.49,0,0,1-1.42-.11l-2.33,1.48,1-1.82a8.3,8.3,0,0,1-4.08-3.09l-4.17,2.64,2.64-4.78a12.21,12.21,0,0,0-9.34-4.73c-4.34,0-8.2,2.58-10.69,6.6a8,8,0,0,1-7.07,3.81h-.23c-4.79,0-8.67,5.42-8.67,12.12s3.88,12.12,8.67,12.12a6.5,6.5,0,0,0,3-.76,12.5,12.5,0,0,1,10.48-.2,10.74,10.74,0,0,0,8.92.06,12.54,12.54,0,0,1,10.4.2,6.48,6.48,0,0,0,3,.74c4.78,0,8.66-5.43,8.66-12.12a15.331,15.331,0,0,0-1.8-7.45Z" transform="translate(-52 -162.63)" fill="#2c76a4" opacity="0.1"/>
        <path id="パス_45" data-name="パス 45" d="M321.59,346a12.82,12.82,0,0,1,7.42.81,10.94,10.94,0,0,0,8.92,0,12.52,12.52,0,0,1,10.49.2,6.47,6.47,0,0,0,3,.76c4.25,0,7.79-4.29,8.52-9.94a8.15,8.15,0,0,1-2.12-2.29c-2.5-4-6.36-6.59-10.69-6.59s-8.15,2.54-10.65,6.52a8.19,8.19,0,0,1-7.06,3.88h-.11C325.94,339.37,323,342.08,321.59,346Z" transform="translate(-52 -162.63)" fill="#2c76a4" opacity="0.1"/>
        <path id="パス_46" data-name="パス 46" d="M308.63,328.3l6.88,4.36-4.18-7.58a6.79,6.79,0,0,1,4.16-1.49h.11a8.516,8.516,0,0,0,1.43-.1l2.33,1.47-1-1.81a8.291,8.291,0,0,0,4.07-3.09l4.17,2.64-2.6-4.79a12.2,12.2,0,0,1,9.34-4.72c4.33,0,8.2,2.58,10.69,6.6a8,8,0,0,0,7.06,3.81h.24c4.78,0,8.66,5.43,8.66,12.12s-3.88,12.12-8.66,12.12a6.49,6.49,0,0,1-3-.75,12.48,12.48,0,0,0-10.49-.21,10.86,10.86,0,0,1-4.48,1,11,11,0,0,1-4.44-.94,12.52,12.52,0,0,0-10.39.2,6.48,6.48,0,0,1-3,.74c-4.79,0-8.67-5.42-8.67-12.12a15.441,15.441,0,0,1,1.77-7.46Z" transform="translate(-52 -162.63)" fill="#2c76a4" opacity="0.1"/>
        <path id="パス_47" data-name="パス 47" d="M716.31,652.89c2.61-4.84-.35-10.76-3.75-15.07s-7.56-8.8-7.47-14.29c.13-7.89,8.51-12.56,15.2-16.74a74.3,74.3,0,0,0,13.65-11,20.13,20.13,0,0,0,4.19-5.62c1.39-3.08,1.35-6.6,1.26-10q-.43-16.89-1.67-33.76" transform="translate(-52 -162.63)" fill="none" stroke="#3f3d56" stroke-miterlimit="10" stroke-width="4"/>
        <path id="パス_48" data-name="パス 48" d="M750.45,545.85a12.31,12.31,0,0,0-6.15-10.09l-2.76,5.45.09-6.6a12.31,12.31,0,1,0,8.82,11.24Z" transform="translate(-52 -162.63)" fill="#2c76a4"/>
        <path id="パス_49" data-name="パス 49" d="M728.49,629.17a12.31,12.31,0,0,1-23.24-5,12,12,0,0,1,.8-5,12.32,12.32,0,0,1,23,.13l-7.69,6.26,8.46-2A12.24,12.24,0,0,1,728.49,629.17Z" transform="translate(-52 -162.63)" fill="#2c76a4"/>
        <path id="パス_50" data-name="パス 50" d="M722.41,605.27a12.31,12.31,0,0,1-3.9-24.15l-.07,5.07,2.79-5.52h0a12.313,12.313,0,1,1,1.15,24.6Z" transform="translate(-52 -162.63)" fill="#2c76a4"/>
        <path id="パス_51" data-name="パス 51" d="M752.3,585.38a12.31,12.31,0,1,1,5.44-23l-2.17,6L760,564a12.31,12.31,0,0,1-7.74,21.37Z" transform="translate(-52 -162.63)" fill="#2c76a4"/>
        <path id="パス_52" data-name="パス 52" d="M748.79,549.13c-2.84.31-5.6,1.19-8.46,1.37s-6-.51-7.78-2.72a39.469,39.469,0,0,1-2.28-4,8.76,8.76,0,0,0-3.1-2.92,12.31,12.31,0,1,0,23,8.18C749.72,549.05,749.25,549.08,748.79,549.13Z" transform="translate(-52 -162.63)" opacity="0.1"/>
        <path id="パス_53" data-name="パス 53" d="M752.3,585.38a12.31,12.31,0,0,1-11.71-17.56,9.11,9.11,0,0,1,2.47,2.48,41.724,41.724,0,0,0,2.44,4.07c1.92,2.25,5.2,3,8.17,2.85s5.84-1,8.8-1.25c.41,0,.82-.06,1.24-.07a12.31,12.31,0,0,1-11.41,9.48Z" transform="translate(-52 -162.63)" opacity="0.1"/>
        <path id="パス_54" data-name="パス 54" d="M722.41,605.27a12.31,12.31,0,0,1-11.81-17.33,10,10,0,0,1,2.61,2.5,41.23,41.23,0,0,0,2.67,4.15c2.07,2.31,5.57,3.13,8.71,3s6-.81,9-1a12.33,12.33,0,0,1-11.18,8.68Z" transform="translate(-52 -162.63)" opacity="0.1"/>
        <path id="パス_55" data-name="パス 55" d="M728.49,629.17a12.31,12.31,0,0,1-23.24-5,12,12,0,0,1,.8-5,12.288,12.288,0,0,1,2.7,2.41c1.17,1.42,1.94,3,3.3,4.37,2.51,2.47,6.58,3.49,10.19,3.58a51.725,51.725,0,0,0,6.25-.36Z" transform="translate(-52 -162.63)" opacity="0.1"/>
        <path id="パス_56" data-name="パス 56" d="M106.31,580.89c2.61-4.84-.35-10.76-3.75-15.07S95,557,95.09,551.53c.13-7.89,8.51-12.56,15.2-16.74a74.3,74.3,0,0,0,13.65-11,20.13,20.13,0,0,0,4.19-5.62c1.39-3.08,1.35-6.6,1.26-10q-.44-16.89-1.67-33.76" transform="translate(-52 -162.63)" fill="none" stroke="#3f3d56" stroke-miterlimit="10" stroke-width="4"/>
        <path id="パス_57" data-name="パス 57" d="M140.45,473.85a12.31,12.31,0,0,0-6.15-10.09l-2.76,5.45.09-6.6a12.31,12.31,0,1,0,8.82,11.24Z" transform="translate(-52 -162.63)" fill="#2c76a4"/>
        <path id="パス_58" data-name="パス 58" d="M118.49,557.17a12.31,12.31,0,0,1-23.24-5,12,12,0,0,1,.8-5,12.32,12.32,0,0,1,23,.13l-7.69,6.26,8.46-2a12.24,12.24,0,0,1-1.33,5.61Z" transform="translate(-52 -162.63)" fill="#2c76a4"/>
        <path id="パス_59" data-name="パス 59" d="M112.41,533.27a12.31,12.31,0,0,1-3.9-24.15l-.07,5.07,2.79-5.52h0a12.313,12.313,0,1,1,1.15,24.6Z" transform="translate(-52 -162.63)" fill="#2c76a4"/>
        <path id="パス_60" data-name="パス 60" d="M142.3,513.38a12.31,12.31,0,1,1,5.44-23l-2.17,6L150,492a12.31,12.31,0,0,1-7.74,21.37Z" transform="translate(-52 -162.63)" fill="#2c76a4"/>
        <path id="パス_61" data-name="パス 61" d="M138.79,477.13c-2.84.31-5.6,1.19-8.46,1.37s-6-.51-7.78-2.72a39.478,39.478,0,0,1-2.28-4,8.76,8.76,0,0,0-3.1-2.92,12.31,12.31,0,1,0,23,8.18C139.72,477.05,139.25,477.08,138.79,477.13Z" transform="translate(-52 -162.63)" opacity="0.1"/>
        <path id="パス_62" data-name="パス 62" d="M142.3,513.38a12.31,12.31,0,0,1-11.71-17.56,9.11,9.11,0,0,1,2.47,2.48,41.717,41.717,0,0,0,2.44,4.07c1.92,2.25,5.2,3,8.17,2.85s5.84-1,8.8-1.25c.41,0,.82-.06,1.24-.07A12.31,12.31,0,0,1,142.3,513.38Z" transform="translate(-52 -162.63)" opacity="0.1"/>
        <path id="パス_63" data-name="パス 63" d="M112.41,533.27a12.31,12.31,0,0,1-11.81-17.33,10,10,0,0,1,2.61,2.5,41.23,41.23,0,0,0,2.67,4.15c2.07,2.31,5.57,3.13,8.71,3s6-.81,9-1A12.33,12.33,0,0,1,112.41,533.27Z" transform="translate(-52 -162.63)" opacity="0.1"/>
        <path id="パス_64" data-name="パス 64" d="M118.49,557.17a12.31,12.31,0,0,1-23.24-5,12,12,0,0,1,.8-5,12.292,12.292,0,0,1,2.7,2.41c1.17,1.42,1.94,3,3.3,4.37,2.51,2.47,6.58,3.49,10.19,3.58a51.7,51.7,0,0,0,6.25-.36Z" transform="translate(-52 -162.63)" opacity="0.1"/>
        <path id="パス_65" data-name="パス 65" d="M512.52,498.52c-2.61-4.83.35-10.75,3.76-15.06s7.55-8.8,7.46-14.29c-.12-7.9-8.5-12.56-15.2-16.74a74,74,0,0,1-13.64-11,19.779,19.779,0,0,1-4.2-5.61c-1.38-3.09-1.34-6.6-1.26-10q.45-16.89,1.67-33.76" transform="translate(-52 -162.63)" fill="none" stroke="#3f3d56" stroke-miterlimit="10" stroke-width="4"/>
        <path id="パス_66" data-name="パス 66" d="M478.39,391.49a12.3,12.3,0,0,1,6.14-10.09l2.76,5.45-.08-6.6a12.621,12.621,0,0,1,4.05-.49,12.31,12.31,0,1,1-12.87,11.73Z" transform="translate(-52 -162.63)" fill="#2c76a4"/>
        <path id="パス_67" data-name="パス 67" d="M500.34,474.81a12.31,12.31,0,1,0-.59-9.91l7.69,6.26-8.46-2a12.241,12.241,0,0,0,1.36,5.65Z" transform="translate(-52 -162.63)" fill="#2c76a4"/>
        <path id="パス_68" data-name="パス 68" d="M506.42,450.91a12.31,12.31,0,0,0,3.91-24.15l.06,5.07-2.79-5.52h0A12.31,12.31,0,0,0,494.7,438a12.16,12.16,0,0,0,.53,4.2,12.3,12.3,0,0,0,11.19,8.71Z" transform="translate(-52 -162.63)" fill="#2c76a4"/>
        <path id="パス_69" data-name="パス 69" d="M476.54,431a12.31,12.31,0,1,0-5.45-23l2.18,6-4.48-4.29a12.21,12.21,0,0,0-4,8.5,11.912,11.912,0,0,0,.31,3.39,12.3,12.3,0,0,0,11.44,9.4Z" transform="translate(-52 -162.63)" fill="#2c76a4"/>
        <path id="パス_70" data-name="パス 70" d="M480.05,394.77c2.84.31,5.6,1.19,8.45,1.37s6-.51,7.79-2.72a39.4,39.4,0,0,0,2.27-4,8.79,8.79,0,0,1,3.11-2.92,12.31,12.31,0,1,1-23,8.17C479.12,394.68,479.58,394.72,480.05,394.77Z" transform="translate(-52 -162.63)" opacity="0.1"/>
        <path id="パス_71" data-name="パス 71" d="M476.54,431a12.32,12.32,0,0,0,11.71-17.56,9.15,9.15,0,0,0-2.48,2.48,41.726,41.726,0,0,1-2.44,4.07c-1.91,2.25-5.19,3-8.16,2.85s-5.84-1-8.8-1.25c-.41,0-.83-.06-1.24-.07A12.3,12.3,0,0,0,476.54,431Z" transform="translate(-52 -162.63)" opacity="0.1"/>
        <path id="パス_72" data-name="パス 72" d="M506.42,450.91a12.3,12.3,0,0,0,11.81-17.33,9.829,9.829,0,0,0-2.6,2.5,41.226,41.226,0,0,1-2.67,4.15c-2.08,2.31-5.57,3.13-8.72,3s-6-.81-9-1a12.3,12.3,0,0,0,11.18,8.68Z" transform="translate(-52 -162.63)" opacity="0.1"/>
        <path id="パス_73" data-name="パス 73" d="M500.34,474.81a12.31,12.31,0,0,0,22.45-10,11.82,11.82,0,0,0-2.7,2.41c-1.17,1.42-2,3-3.3,4.37-2.52,2.47-6.58,3.49-10.2,3.58a53.959,53.959,0,0,1-6.25-.36Z" transform="translate(-52 -162.63)" opacity="0.1"/>
        <path id="パス_156" data-name="パス 156" d="M99.96,0A99.96,99.96,0,1,1,0,99.96,99.96,99.96,0,0,1,99.96,0Z" transform="translate(679.77 138.22)" fill="#c2ddee"/>
        <path id="パス_75" data-name="パス 75" d="M831.73,300.86a100,100,0,1,0,99.95,99.972A100,100,0,0,0,831.73,300.86Zm0,186.62a86.67,86.67,0,1,1,86.67-86.67,86.67,86.67,0,0,1-86.67,86.67Z" transform="translate(-52 -162.63)" opacity="0.1"/>
        <path id="パス_154" data-name="パス 154" d="M99.96,0A99.96,99.96,0,1,1,0,99.96,99.96,99.96,0,0,1,99.96,0Z" transform="translate(450.12 290.05)" fill="#c2ddee"/>
        <path id="パス_78" data-name="パス 78" d="M600.82,452.69a100,100,0,1,0,99.95,99.972A100,100,0,0,0,600.82,452.69Zm0,186.62a86.67,86.67,0,1,1,86.67-86.67,86.67,86.67,0,0,1-86.67,86.67Z" transform="translate(-52 -162.63)" opacity="0.1"/>
        <path id="パス_155" data-name="パス 155" d="M99.96,0A99.96,99.96,0,1,1,0,99.96,99.96,99.96,0,0,1,99.96,0Z" transform="translate(212.89 215.4)" fill="#c2ddee"/>
        <path id="パス_109" data-name="パス 109" d="M888.39,577c2.61-4.83-.35-10.76-3.76-15.07s-7.55-8.79-7.46-14.29c.12-7.89,8.5-12.55,15.2-16.74a73.9,73.9,0,0,0,13.64-11,19.93,19.93,0,0,0,4.2-5.61c1.38-3.09,1.34-6.6,1.26-10q-.44-16.9-1.67-33.76" transform="translate(-52 -162.63)" fill="none" stroke="#3f3d56" stroke-miterlimit="10" stroke-width="4"/>
        <path id="パス_110" data-name="パス 110" d="M922.52,469.93a12.29,12.29,0,0,0-6.14-10.08l-2.76,5.45.08-6.6a12.08,12.08,0,0,0-4.05-.49,12.31,12.31,0,1,0,12.87,11.72Z" transform="translate(-52 -162.63)" fill="#2c76a4"/>
        <path id="パス_111" data-name="パス 111" d="M900.57,553.26a12.31,12.31,0,1,1,.59-9.92l-7.69,6.26,8.46-2a12.24,12.24,0,0,1-1.36,5.66Z" transform="translate(-52 -162.63)" fill="#2c76a4"/>
        <path id="パス_112" data-name="パス 112" d="M894.49,529.35a12.31,12.31,0,0,1-3.91-24.15l-.06,5.07,2.79-5.51h0a12.313,12.313,0,1,1,1.15,24.6Z" transform="translate(-52 -162.63)" fill="#2c76a4"/>
        <path id="パス_113" data-name="パス 113" d="M924.37,509.47a12.31,12.31,0,1,1,5.45-23l-2.18,6,4.48-4.3a12.24,12.24,0,0,1,4,8.5,11.879,11.879,0,0,1-.31,3.39,12.31,12.31,0,0,1-11.44,9.41Z" transform="translate(-52 -162.63)" fill="#2c76a4"/>
        <path id="パス_114" data-name="パス 114" d="M920.87,473.21c-2.84.32-5.61,1.2-8.46,1.38s-6-.51-7.79-2.73a38.208,38.208,0,0,1-2.27-4,8.851,8.851,0,0,0-3.1-2.92,12.31,12.31,0,1,0,23,8.17C921.79,473.13,921.33,473.16,920.87,473.21Z" transform="translate(-52 -162.63)" opacity="0.1"/>
        <path id="パス_115" data-name="パス 115" d="M924.37,509.47a12.32,12.32,0,0,1-11.71-17.56,9.11,9.11,0,0,1,2.48,2.47,39.429,39.429,0,0,0,2.44,4.07c1.91,2.26,5.19,3,8.16,2.86s5.84-1,8.8-1.25c.41,0,.83-.07,1.24-.08a12.31,12.31,0,0,1-11.41,9.49Z" transform="translate(-52 -162.63)" opacity="0.1"/>
        <path id="パス_116" data-name="パス 116" d="M894.49,529.35A12.3,12.3,0,0,1,882.68,512a10.149,10.149,0,0,1,2.6,2.5c1,1.35,1.55,2.91,2.67,4.15,2.08,2.32,5.57,3.13,8.72,3.06s6-.82,9-1.05a12.31,12.31,0,0,1-11.18,8.69Z" transform="translate(-52 -162.63)" opacity="0.1"/>
        <path id="パス_117" data-name="パス 117" d="M900.57,553.26a12.32,12.32,0,0,1-22.45-10,12.057,12.057,0,0,1,2.7,2.41c1.18,1.43,1.95,3,3.3,4.38,2.52,2.47,6.58,3.48,10.2,3.58a53.929,53.929,0,0,0,6.25-.37Z" transform="translate(-52 -162.63)" opacity="0.1"/>
        <path id="パス_118" data-name="パス 118" d="M1047.39,729c2.61-4.83-.35-10.76-3.76-15.07s-7.55-8.79-7.46-14.29c.12-7.89,8.5-12.55,15.2-16.74a73.9,73.9,0,0,0,13.64-11,19.93,19.93,0,0,0,4.2-5.61c1.38-3.09,1.34-6.6,1.26-10q-.43-16.9-1.67-33.76" transform="translate(-52 -162.63)" fill="none" stroke="#3f3d56" stroke-miterlimit="10" stroke-width="4"/>
        <path id="パス_119" data-name="パス 119" d="M1081.52,621.93a12.29,12.29,0,0,0-6.14-10.08l-2.76,5.45.08-6.6a12.08,12.08,0,0,0-4-.49,12.31,12.31,0,1,0,12.87,11.72Z" transform="translate(-52 -162.63)" fill="#2c76a4"/>
        <path id="パス_120" data-name="パス 120" d="M1059.57,705.26a12.31,12.31,0,1,1,.59-9.92l-7.69,6.26,8.46-2a12.235,12.235,0,0,1-1.36,5.66Z" transform="translate(-52 -162.63)" fill="#2c76a4"/>
        <path id="パス_121" data-name="パス 121" d="M1053.49,681.35a12.31,12.31,0,0,1-3.91-24.15l-.06,5.07,2.79-5.51h0a12.313,12.313,0,0,1,1.15,24.6Z" transform="translate(-52 -162.63)" fill="#2c76a4"/>
        <path id="パス_122" data-name="パス 122" d="M1083.37,661.47a12.31,12.31,0,1,1,5.45-23l-2.18,6,4.48-4.3a12.24,12.24,0,0,1,4,8.5,11.894,11.894,0,0,1-.31,3.39A12.31,12.31,0,0,1,1083.37,661.47Z" transform="translate(-52 -162.63)" fill="#2c76a4"/>
        <path id="パス_123" data-name="パス 123" d="M1079.87,625.21c-2.84.32-5.61,1.2-8.46,1.38s-6-.51-7.79-2.73a38.2,38.2,0,0,1-2.27-4,8.851,8.851,0,0,0-3.1-2.92,12.31,12.31,0,1,0,23,8.17C1080.79,625.13,1080.33,625.16,1079.87,625.21Z" transform="translate(-52 -162.63)" opacity="0.1"/>
        <path id="パス_124" data-name="パス 124" d="M1083.37,661.47a12.32,12.32,0,0,1-11.71-17.56,9.111,9.111,0,0,1,2.48,2.47,39.482,39.482,0,0,0,2.44,4.07c1.91,2.26,5.19,3,8.16,2.86s5.84-1,8.8-1.25c.41,0,.83-.07,1.24-.08A12.31,12.31,0,0,1,1083.37,661.47Z" transform="translate(-52 -162.63)" opacity="0.1"/>
        <path id="パス_125" data-name="パス 125" d="M1053.49,681.35A12.3,12.3,0,0,1,1041.68,664a10.147,10.147,0,0,1,2.6,2.5c1,1.35,1.55,2.91,2.67,4.15,2.08,2.32,5.57,3.13,8.72,3.06s6-.82,9-1.05A12.31,12.31,0,0,1,1053.49,681.35Z" transform="translate(-52 -162.63)" opacity="0.1"/>
        <path id="パス_126" data-name="パス 126" d="M1059.57,705.26a12.32,12.32,0,0,1-22.45-10,12.059,12.059,0,0,1,2.7,2.41c1.18,1.43,2,3,3.3,4.38,2.52,2.47,6.58,3.48,10.2,3.58A53.958,53.958,0,0,0,1059.57,705.26Z" transform="translate(-52 -162.63)" opacity="0.1"/>
        <text id="_" data-name="？" transform="translate(727.5 278.641)" fill="#2c76a4" font-size="107" font-family="Mplus1p-Bold, 'Mplus 1p Bold'" font-weight="700"><tspan x="0" y="0">？</tspan></text>
        <path id="パス_76" data-name="パス 76" d="M658.93,522.44,629,552.89a.54.54,0,0,0,0,.78L650,576a3.613,3.613,0,0,1-5.11,5.11L624,558.86a.57.57,0,0,0-.8,0L618.11,564a22.37,22.37,0,0,1-16,6.73,22.86,22.86,0,0,1-16.28-6.92l-4.89-5a.57.57,0,0,0-.8,0l-20.84,22.2a3.613,3.613,0,0,1-5.11-5.11l20.92-22.28a.6.6,0,0,0,0-.78l-29.93-30.45a.55.55,0,0,0-.94.39v60.93a8.92,8.92,0,0,0,8.89,8.89H651a8.92,8.92,0,0,0,8.89-8.89V522.83a.55.55,0,0,0-.96-.39Z" transform="translate(-289 -236.63)" fill="#2c76a4"/>
        <path id="パス_77" data-name="パス 77" d="M602.08,563.5A15.14,15.14,0,0,0,613,559l43.59-44.37a8.7,8.7,0,0,0-5.5-2H553.15a8.64,8.64,0,0,0-5.5,2L591.25,559A15.08,15.08,0,0,0,602.08,563.5Z" transform="translate(-289 -236.63)" fill="#2c76a4"/>
      </g>
      <g id="コメントの無料アイコン_2_" data-name="コメントの無料アイコン (2)" transform="translate(2134.576 1271)">
        <path id="パス_150" data-name="パス 150" d="M138.382,15.054C127.715,5.761,112.927,0,96.642,0S65.572,5.761,54.907,15.054,37.614,37.219,37.618,51.4c0,13.433,5.942,25.7,15.644,34.844a61.89,61.89,0,0,0,33.4,15.8v13.789a4.676,4.676,0,0,0,3.1,4.236,6.009,6.009,0,0,0,5.719-.659L134.6,90.757l-.01,0c7.4-5.384,12.768-11.331,16.194-17.932a45.468,45.468,0,0,0,4.883-21.43C155.671,37.219,149.053,24.341,138.382,15.054Zm2.627,53.921C138.3,74.16,134.1,78.923,127.7,83.6l-.008.007L97.4,105.79V97.936a4.988,4.988,0,0,0-4.91-4.656A51.147,51.147,0,0,1,61.148,79.9C53.2,72.4,48.354,62.412,48.35,51.4c0-11.627,5.4-22.11,14.146-29.735A51.928,51.928,0,0,1,96.642,9.345a51.935,51.935,0,0,1,34.149,12.316c8.749,7.625,14.14,18.108,14.144,29.735a37.178,37.178,0,0,1-3.926,17.579Z" fill="#2c76a4"/>
        <path id="パス_151" data-name="パス 151" d="M132.786,191.906a7.491,7.491,0,1,0,7.489,7.49,7.491,7.491,0,0,0-7.489-7.49Z" transform="translate(-64.132 -147.794)" fill="#2c76a4"/>
        <path id="パス_152" data-name="パス 152" d="M237.02,191.906a7.491,7.491,0,1,0,7.491,7.491,7.491,7.491,0,0,0-7.491-7.491Z" transform="translate(-140.377 -147.794)" fill="#2c76a4"/>
        <path id="パス_153" data-name="パス 153" d="M341.256,191.906a7.491,7.491,0,1,0,7.491,7.491,7.491,7.491,0,0,0-7.491-7.491Z" transform="translate(-216.622 -147.794)" fill="#2c76a4"/>
      </g>
      <g id="renews_screen_only_blue" transform="translate(2403 1447.045)">
        <path id="パス_157" data-name="パス 157" d="M58,40.426V8H97.375v4.632H62.632V21.9H97.375v4.632H62.632V35.8H97.375v4.632Z" transform="translate(76.337 10.529)" fill="#2c76a4"/>
        <path id="パス_158" data-name="パス 158" d="M22,32.426V0H61.375V4.632H26.632V13.9H61.375v4.632H26.632V27.8H61.375v4.632Z" transform="translate(28.955)" fill="#2c76a4"/>
        <path id="パス_159" data-name="パス 159" d="M67.246,36.426,46.632,11.412V36.426H42V4h4.864L67.478,29.014V4H72.11V36.426Z" transform="translate(55.278 5.265)" fill="#2c76a4"/>
        <path id="パス_160" data-name="パス 160" d="M107.368,36.426,99.261,11.875,91.387,36.426H86.754L76.1,4h4.864L89.07,28.551,97.177,4h4.4l8.107,24.551L117.791,4h4.632L111.769,36.426Z" transform="translate(100.159 5.265)" fill="#2c76a4"/>
        <path id="パス_161" data-name="パス 161" d="M111.034,36.789a19.038,19.038,0,0,1-12.97-5.327L97.6,31l3.011-3.474.463.463a15.052,15.052,0,0,0,9.959,3.937,9.6,9.6,0,0,0,3.706-.695,3.881,3.881,0,0,0,2.779-3.706c0-3.011-2.316-3.937-7.643-5.327-4.4-1.158-10.654-2.779-10.654-9.265a8.33,8.33,0,0,1,5.1-7.875A13.994,13.994,0,0,1,109.876,3.9a17.612,17.612,0,0,1,11.118,3.937l.463.463-3.011,3.474-.463-.463A12.967,12.967,0,0,0,109.876,8.3a8.819,8.819,0,0,0-3.706.7,3.97,3.97,0,0,0-2.548,3.706c0,2.548,1.853,3.474,7.18,4.864,4.632,1.158,11.118,2.779,11.118,9.728a9.111,9.111,0,0,1-5.327,8.107A11,11,0,0,1,111.034,36.789Z" transform="translate(128.456 5.133)" fill="#2c76a4"/>
        <path id="パス_162" data-name="パス 162" d="M33.584,27.331A13.885,13.885,0,0,0,30.11,0H0V41.691H4.632v-13.9H28.025l10.886,13.9H44.7ZM4.632,23.161V4.632H30.11a9.265,9.265,0,1,1,0,18.529Z" fill="#2c76a4"/>
      </g>
    </g>
    <path id="パス_75-2" data-name="パス 75" d="M831.73,300.86a100,100,0,1,0,99.95,99.972A100,100,0,0,0,831.73,300.86Zm0,186.62a86.67,86.67,0,1,1,86.67-86.67,86.67,86.67,0,0,1-86.67,86.67Z" transform="translate(817 795.729)" opacity="0.1"/>
  </g>
</svg>
