<?xml version="1.0" encoding="UTF-8"?>
<svg width="20px" height="20px" viewBox="0 0 20 20" version="1.1" xmlns="http://www.w3.org/2000/svg" xmlns:xlink="http://www.w3.org/1999/xlink">
    <!-- Generator: Sketch 61 (89581) - https://sketch.com -->
    <title>ic_Linked_in</title>
    <desc>Created with Sketch.</desc>
    <defs>
        <polygon id="path-1" points="0.0870921065 0.190371596 12.929904 0.190371596 12.929904 13.7634409 0.0870921065 13.7634409"></polygon>
        <polygon id="path-3" points="6.4219617e-05 0.0266666667 4.78716768 0.0266666667 4.78716768 4.80505538 6.4219617e-05 4.80505538"></polygon>
    </defs>
    <g id="design" stroke="none" stroke-width="1" fill="none" fill-rule="evenodd">
        <g id="renews_dt_article_detail_share" transform="translate(-1060.000000, -1340.000000)">
            <g id="Share_pop_up" transform="translate(999.000000, 1117.000000)">
                <g id="share_icons" transform="translate(41.000000, 40.039427)">
                    <g id="linkedin_icon" transform="translate(0.000000, 165.960573)">
                        <g id="ic_Linked_in" transform="translate(20.000000, 17.000000)">
                            <g id="Group-3" transform="translate(6.881720, 6.209935)">
                                <mask id="mask-2" fill="white">
                                    <use xlink:href="#path-1"></use>
                                </mask>
                                <g id="Clip-2"></g>
                                <path d="M4.09483871,2.34391398 C4.74021505,1.33251613 5.56516129,0.668430108 6.65075269,0.386064516 C7.97139785,0.0421935484 9.27870968,0.152516129 10.5223656,0.709075269 C11.775914,1.27015054 12.3630108,2.35509677 12.6623656,3.62713978 C12.8795699,4.54972043 12.9307527,5.48950538 12.9283871,6.43488172 C12.9225806,8.77015054 12.9219355,11.1052043 12.929904,13.4404731 C12.9309677,13.6888602 12.8569892,13.7647742 12.6098925,13.7626237 C11.4402151,13.752086 10.2703226,13.7507957 9.10064516,13.7635447 C8.83032258,13.7662796 8.7688172,13.6645591 8.76967742,13.4157419 C8.7772043,11.2523011 8.78516129,9.08886022 8.76623656,6.92563441 C8.76150538,6.38154839 8.71354839,5.82670968 8.59311828,5.29746237 C8.37956989,4.35703226 7.76150538,3.89273118 6.8,3.88133333 C6.49376344,3.87767742 6.17741935,3.89144086 5.88258065,3.96498925 C4.92817204,4.20283871 4.52215054,4.92455914 4.36516129,5.81402151 C4.28817204,6.25015054 4.26086022,6.69939785 4.25870968,7.14305376 C4.24795699,9.23789247 4.24903226,11.3327312 4.26021505,13.4273548 C4.26150538,13.691871 4.18365591,13.7654194 3.92602151,13.7630538 C2.75634409,13.7516559 1.58645161,13.7507957 0.416989247,13.7635447 C0.149247312,13.7662796 0.0866666667,13.6729462 0.0870921065,13.4196129 C0.0941935484,9.23875269 0.0941935484,5.05767742 0.0870921065,0.876817204 C0.0864516129,0.620258065 0.152473118,0.538322581 0.41827957,0.541763441 C1.53612903,0.556172043 2.6544086,0.556602151 3.77247312,0.541548387 C4.04344086,0.537892473 4.10946237,0.628645161 4.09978495,0.880473118 C4.08215054,1.34197849 4.09483871,1.80455914 4.09483871,2.34391398" id="Fill-1" fill="#2C76A4" mask="url(#mask-2)"></path>
                            </g>
                            <path d="M0.311548387,13.3595699 C0.311548387,11.2741935 0.311548387,9.18860215 0.311548387,7.10322581 C0.311548387,6.75827957 0.312193548,6.75784946 0.666817204,6.75784946 C1.83606452,6.75763441 3.00552688,6.76451613 4.17477419,6.75220048 C4.41993548,6.74967742 4.47756989,6.83354839 4.47735484,7.06236559 C4.47176344,11.2591398 4.47133333,15.4556989 4.47821667,19.6524731 C4.47864516,19.9058065 4.39305376,19.9739785 4.15154839,19.9722581 C2.98230108,19.9627957 1.81283871,19.9621505 0.643591398,19.9725349 C0.391978495,19.9748387 0.304021505,19.9101075 0.305297864,19.6417204 C0.316494624,17.5477419 0.311548387,15.4535484 0.311548387,13.3595699" id="Fill-4" fill="#2C76A4"></path>
                            <g id="Group-8" transform="translate(0.000000, 0.188430)">
                                <mask id="mask-4" fill="white">
                                    <use xlink:href="#path-3"></use>
                                </mask>
                                <g id="Clip-7"></g>
                                <path d="M2.37683871,4.80505538 C1.05167742,4.80354839 -0.000580645161,3.74591398 6.4219617e-05,2.41580645 C0.000709677419,1.07989247 1.06307527,0.0250537634 2.40673118,0.0265575305 C3.72931183,0.0280645161 4.79017204,1.10612903 4.78716768,2.44591398 C4.78458065,3.75688172 3.71210753,4.80655914 2.37683871,4.80505538" id="Fill-6" fill="#2C76A4" mask="url(#mask-4)"></path>
                            </g>
                        </g>
                    </g>
                </g>
            </g>
        </g>
    </g>
</svg>