<?xml version="1.0" encoding="UTF-8"?>
<svg width="20px" height="16px" viewBox="0 0 20 16" version="1.1" xmlns="http://www.w3.org/2000/svg" xmlns:xlink="http://www.w3.org/1999/xlink">
    <!-- Generator: Sketch 61 (89581) - https://sketch.com -->
    <title>ic_twitter</title>
    <desc>Created with Sketch.</desc>
    <g id="design" stroke="none" stroke-width="1" fill="none" fill-rule="evenodd">
        <g id="renews_dt_article_detail_share" transform="translate(-1060.000000, -1430.000000)" fill="#2C76A4" fill-rule="nonzero">
            <g id="Share_pop_up" transform="translate(999.000000, 1117.000000)">
                <g id="share_icons" transform="translate(41.000000, 40.039427)">
                    <g id="twitter_icon" transform="translate(0.000000, 248.960573)">
                        <path d="M40,25.9018017 C39.2520546,26.2278961 38.4589558,26.4414788 37.6470588,26.5354523 C38.5000627,26.03144 39.1394652,25.2389308 39.4468832,24.304655 C38.6400928,24.7751144 37.7583882,25.1067765 36.8393327,25.2855114 C35.5728663,23.9458817 33.5543898,23.6138769 31.9174332,24.4759432 C30.2804766,25.3380094 29.432926,27.1793428 29.8507463,28.9658928 C26.5568101,28.8016332 23.4862571,27.2695679 21.3959614,24.7473424 C20.2980831,26.5902725 20.8540155,28.960564 22.6602283,30.1377124 C22.0113484,30.1157836 21.3767734,29.9433272 20.8077261,29.634264 L20.8077261,29.6863449 C20.8130515,31.6120707 22.1899824,33.267446 24.1000878,33.644491 C23.7452063,33.7391846 23.3789838,33.7859037 23.0114135,33.7833733 C22.7552291,33.782584 22.4996196,33.759346 22.2475856,33.7139321 C22.7899162,35.3587468 24.3260076,36.4838278 26.0755048,36.5176189 C24.6198499,37.6376417 22.8278518,38.2455154 20.9833187,38.2449678 C20.654536,38.2466242 20.3260155,38.2263244 20,38.1842068 C23.585604,40.4488716 28.1333315,40.6060677 31.8701545,38.5945086 C35.6069774,36.5829496 37.9413339,32.7210776 37.9631255,28.5145253 C37.9631255,28.3409224 37.9631255,28.1586394 37.9543459,27.9937166 C38.7559046,27.4214012 39.4485039,26.7131393 40,25.9018017 Z" id="ic_twitter"></path>
                    </g>
                </g>
            </g>
        </g>
    </g>
</svg>