<?xml version="1.0" encoding="utf-8"?>
<!-- Generator: Adobe Illustrator 24.0.1, SVG Export Plug-In . SVG Version: 6.00 Build 0)  -->
<svg version="1.1" id="レイヤー_1" xmlns="http://www.w3.org/2000/svg" xmlns:xlink="http://www.w3.org/1999/xlink" x="0px"
	 y="0px" viewBox="0 0 16 15" style="enable-background:new 0 0 16 15;" xml:space="preserve">
<style type="text/css">
	.st0{fill:#2F7398;}
</style>
<title>icon_like</title>
<desc>Created with Sketch.</desc>
<g id="design">
	<g id="renews_dt_home_default" transform="translate(-1000.000000, -383.000000)">
		<g id="articles" transform="translate(140.000000, 140.000000)">
			<g id="article">
				<g id="copy" transform="translate(800.000000, 0.000000)">
					<g id="info" transform="translate(58.000000, 10.000000)">
						<g transform="translate(2.000000, 231.000000)">
							<g id="icon_like" transform="translate(0.000000, 2.000000)">
								<path id="icon---likes" class="st0" d="M11.5,0C14,0,16,2.5,16,5c0,3.3-2.7,6.7-8,10C2.7,11.7,0,8.3,0,5c0-2.5,2-5,4.5-5
									C5.9,0,7.2,0.7,8,1.7C8.8,0.7,10.1,0,11.5,0z M8.4,13.6c4.5-3,6.6-5.8,6.6-8.6c0-2.1-1.7-4-3.5-4c-1.1,0-2.1,0.5-2.7,1.3
									L8,3.3l-0.8-1C6.6,1.5,5.6,1,4.5,1C2.7,1,1,2.9,1,5c0,2.7,2.2,5.6,6.6,8.6L8,13.8L8.4,13.6z"/>
							</g>
						</g>
					</g>
				</g>
			</g>
		</g>
	</g>
</g>
</svg>
