<?xml version="1.0" encoding="UTF-8"?>
<svg width="16px" height="15px" viewBox="0 0 16 15" version="1.1" xmlns="http://www.w3.org/2000/svg" xmlns:xlink="http://www.w3.org/1999/xlink">
    <!-- Generator: Sketch 60 (88103) - https://sketch.com -->
    <title>icon_comments</title>
    <desc>Created with Sketch.</desc>
    <g id="design" stroke="none" stroke-width="1" fill="none" fill-rule="evenodd">
        <g id="renews_dt_home_default" transform="translate(-1070.000000, -383.000000)" fill="#000000" fill-rule="nonzero">
            <g id="articles" transform="translate(140.000000, 140.000000)">
                <g id="article">
                    <g id="copy" transform="translate(800.000000, 0.000000)">
                        <g transform="translate(58.000000, 10.000000)" id="info">
                            <g transform="translate(2.000000, 231.000000)">
                                <g id="icon_comments" transform="translate(70.000000, 2.000000)">
                                    <path d="M13,0 C14.6568542,0 16,1.34314575 16,3 L16,9 C16,10.6568542 14.6568542,12 13,12 L12,12 C12,13 13,14 14,14 L14,15 L12,15 C9.5,15 8,14 8,12 L3,12 C1.34314575,12 0,10.6568542 0,9 L0,3 C0,1.34314575 1.34314575,0 3,0 L13,0 Z M13,1 L3,1 C2.44771525,1 1.94771525,1.22385763 1.58578644,1.58578644 C1.26407194,1.90750094 1.05145072,2.33830872 1.00817335,2.81795923 L1,3 L1,9 C1,9.55228475 1.22385763,10.0522847 1.58578644,10.4142136 C1.90750094,10.7359281 2.33830872,10.9485493 2.81795923,10.9918267 L3,11 L9,11 C9,14 10.5,14 12,14 C11.6021422,13.6021422 11,13.1615179 11,12 C11,11.3333333 11,11 11,11 L13,11 C13.5522847,11 14.0522847,10.7761424 14.4142136,10.4142136 C14.7359281,10.0924991 14.9485493,9.66169128 14.9918267,9.18204077 L15,9 L15,3 C15,2.44771525 14.7761424,1.94771525 14.4142136,1.58578644 C14.0924991,1.26407194 13.6616913,1.05145072 13.1820408,1.00817335 L13,1 Z" id="icon---comments"></path>
                                </g>
                            </g>
                        </g>
                    </g>
                </g>
            </g>
        </g>
    </g>
</svg>