<?xml version="1.0" encoding="UTF-8"?>
<svg width="16px" height="15px" viewBox="0 0 16 15" version="1.1" xmlns="http://www.w3.org/2000/svg" xmlns:xlink="http://www.w3.org/1999/xlink">
    <!-- Generator: Sketch 60 (88103) - https://sketch.com -->
    <title>icon_like</title>
    <desc>Created with Sketch.</desc>
    <g id="design" stroke="none" stroke-width="1" fill="none" fill-rule="evenodd">
        <g id="renews_dt_home_default" transform="translate(-1000.000000, -383.000000)" fill="#000000" fill-rule="nonzero">
            <g id="articles" transform="translate(140.000000, 140.000000)">
                <g id="article">
                    <g id="copy" transform="translate(800.000000, 0.000000)">
                        <g transform="translate(58.000000, 10.000000)" id="info">
                            <g transform="translate(2.000000, 231.000000)">
                                <g id="icon_like" transform="translate(0.000000, 2.000000)">
                                    <path d="M11.5,0 C13.9852814,0 16,2.51471863 16,5 C16,8.33333333 13.3333333,11.6666667 8,15 C2.66666667,11.6666667 0,8.33333333 0,5 C0,2.51471863 2.01471863,0 4.5,0 C5.91357726,0 7.17492267,0.651782012 7.99990231,1.67121211 C8.82507733,0.651782012 10.0864227,0 11.5,0 Z M8.36701609,13.5743248 C12.8314652,10.6089326 15,7.73197689 15,5 C15,2.94242095 13.3160612,1 11.5,1 C10.4287735,1 9.43881734,1.48297591 8.77717624,2.30037445 L7.99981028,3.26074072 L7.22255554,2.30028444 C6.56114344,1.4829753 5.57122916,1 4.5,1 C2.68393876,1 1,2.94242095 1,5 C1,7.73197689 3.16853482,10.6089326 7.63298391,13.5743248 L8,13.8149547 L8.36701609,13.5743248 Z" id="icon---likes"></path>
                                </g>
                            </g>
                        </g>
                    </g>
                </g>
            </g>
        </g>
    </g>
</svg>