<?xml version="1.0" encoding="UTF-8"?>
<svg width="16px" height="15px" viewBox="0 0 16 15" version="1.1" xmlns="http://www.w3.org/2000/svg" xmlns:xlink="http://www.w3.org/1999/xlink">
    <!-- Generator: Sketch 60 (88103) - https://sketch.com -->
    <title>icon_comment_green</title>
    <desc>Created with Sketch.</desc>
    <g id="design" stroke="none" stroke-width="1" fill="none" fill-rule="evenodd">
        <g id="renews_dt_home_default" transform="translate(-360.000000, -2011.000000)" fill="#3D7758" fill-rule="nonzero">
            <g id="special-issues" transform="translate(136.000000, 1466.000000)">
                <g id="special-issue" transform="translate(4.000000, 95.000000)">
                    <g id="articles" transform="translate(0.000000, 333.000000)">
                        <g id="article" transform="translate(30.000000, 26.000000)">
                            <g id="info" transform="translate(120.000000, 89.000000)">
                                <path d="M83,2 C84.6568542,2 86,3.34314575 86,5 L86,11 C86,12.6568542 84.6568542,14 83,14 L82,14 C82,15 83,16 84,16 L84,17 L82,17 C79.5,17 78,16 78,14 L73,14 C71.3431458,14 70,12.6568542 70,11 L70,5 C70,3.34314575 71.3431458,2 73,2 L83,2 Z M83,3 L73,3 C72.4477153,3 71.9477153,3.22385763 71.5857864,3.58578644 C71.2640719,3.90750094 71.0514507,4.33830872 71.0081733,4.81795923 L71,5 L71,11 C71,11.5522847 71.2238576,12.0522847 71.5857864,12.4142136 C71.9075009,12.7359281 72.3383087,12.9485493 72.8179592,12.9918267 L73,13 L79,13 C79,16 80.5,16 82,16 C81.6021422,15.6021422 81,15.1615179 81,14 C81,13.3333333 81,13 81,13 L83,13 C83.5522847,13 84.0522847,12.7761424 84.4142136,12.4142136 C84.7359281,12.0924991 84.9485493,11.6616913 84.9918267,11.1820408 L85,11 L85,5 C85,4.44771525 84.7761424,3.94771525 84.4142136,3.58578644 C84.0924991,3.26407194 83.6616913,3.05145072 83.1820408,3.00817335 L83,3 Z" id="icon_comment_green"></path>
                            </g>
                        </g>
                    </g>
                </g>
            </g>
        </g>
    </g>
</svg>