<?xml version="1.0" encoding="UTF-8"?>
<svg width="20px" height="21px" viewBox="0 0 20 21" version="1.1" xmlns="http://www.w3.org/2000/svg" xmlns:xlink="http://www.w3.org/1999/xlink">
    <!-- Generator: Sketch 61 (89581) - https://sketch.com -->
    <title>ic_chain</title>
    <desc>Created with Sketch.</desc>
    <defs>
        <polygon id="path-1" points="0.0335415015 0.0400410678 11.0252567 0.0400410678 11.0252567 13.5523984 0.0335415015 13.5523984"></polygon>
    </defs>
    <g id="design" stroke="none" stroke-width="1" fill="none" fill-rule="evenodd">
        <g id="renews_dt_article_detail_share" transform="translate(-1060.000000, -1176.000000)">
            <g id="Share_pop_up" transform="translate(999.000000, 1117.000000)">
                <g id="share_icons" transform="translate(41.000000, 40.039427)">
                    <g id="Link_icon">
                        <g id="ic_chain" transform="translate(20.000000, 19.000000)">
                            <g id="Group-3" transform="translate(8.952772, 0.001027)">
                                <mask id="mask-2" fill="white">
                                    <use xlink:href="#path-1"></use>
                                </mask>
                                <g id="Clip-2"></g>
                                <path d="M9.66422998,1.65954415 L8.98398357,1.05765503 C8.24349076,0.401474333 7.29043121,0.040036961 6.30004107,0.040036961 C5.14094456,0.040036961 4.03646817,0.536094456 3.26960986,1.40114579 L1.32271047,3.59814784 C1.07195072,3.88052977 0.946365503,4.2438152 0.969199179,4.62077618 C0.992073922,4.99720329 1.15983573,5.34258316 1.44221766,5.59297331 L1.62443532,5.75478029 C1.88312115,5.98451335 2.21646817,6.11096099 2.5625462,6.11096099 L2.64689938,6.10853799 C3.02332649,6.08590965 3.36895277,5.91810678 3.62016427,5.63531417 L5.5675154,3.43806571 C5.91010267,3.05137166 6.56008214,3.01252156 6.94743326,3.35486242 L7.6273922,3.95806571 C7.82238193,4.13067351 7.93831622,4.36960575 7.95408624,4.63091992 C7.96997947,4.89202875 7.88340862,5.14282957 7.71030801,5.33761396 L3.45145791,10.1418029 C3.16468172,10.4657043 2.65568789,10.5592156 2.27137577,10.3611869 C1.67277207,10.0523984 0.892361396,10.1997906 0.448336756,10.7002423 L0.414948665,10.738271 C0.103942505,11.0880862 -0.0255852156,11.5529733 0.0587268994,12.0156427 C0.143901437,12.4755195 0.43026694,12.8698932 0.845297741,13.0871006 C1.41967146,13.387347 2.06755647,13.5523984 2.7188501,13.5523984 L2.71934292,13.5523984 C3.87786448,13.5523984 4.98287474,13.0498522 5.75010267,12.1845133 L10.008501,7.3776961 C11.4885832,5.7076345 11.3349076,3.14110472 9.66422998,1.65954415" id="Fill-1" fill="#2C76A4" mask="url(#mask-2)"></path>
                            </g>
                            <path d="M9.3993347,14.3013388 C8.83797947,13.8042957 7.90340041,13.8601889 7.40450924,14.4219959 L5.4580616,16.6186283 C5.11547433,17.005117 4.46590554,17.0451992 4.07900616,16.7025298 L3.39826694,16.0986283 C3.20331828,15.9258563 3.08738398,15.686883 3.0715729,15.4258152 C3.05567967,15.165076 3.14229158,14.9143984 3.31531006,14.719614 L7.57370842,9.91571253 C7.85609035,9.59682136 8.35592608,9.50051745 8.73580287,9.68717043 C9.3567885,9.99300205 10.1468501,9.84392608 10.6269733,9.30047639 C10.93223,8.95653388 11.0604435,8.49977823 10.9795811,8.04942916 C10.8992526,7.59636961 10.6203614,7.21205749 10.2149815,6.99538398 C9.63177823,6.68310472 8.9716961,6.51801232 8.3067269,6.51801232 C7.14767146,6.51801232 6.043154,7.01427515 5.27629569,7.87940862 L1.01736345,12.6824476 C-0.463622177,14.3525092 -0.309453799,16.9157947 1.36073101,18.3967803 L2.04097741,18.9914825 C2.78105955,19.6477454 3.73416016,20.0010103 4.72455031,20.0010103 L4.72500205,20.0010103 C5.88405749,20.0010103 6.98902669,19.5127556 7.75629569,18.64754 L9.70241478,16.455384 C9.95358522,16.1725503 10.0792526,15.8110308 10.0563368,15.4361643 C10.0344476,15.0637207 9.86183984,14.7094702 9.58249692,14.4626119 L9.3993347,14.3013388 Z" id="Fill-4" fill="#2C76A4"></path>
                        </g>
                    </g>
                </g>
            </g>
        </g>
    </g>
</svg>