<?xml version="1.0" encoding="UTF-8"?>
<svg width="62px" height="62px" viewBox="0 0 62 62" version="1.1" xmlns="http://www.w3.org/2000/svg" xmlns:xlink="http://www.w3.org/1999/xlink">
    <!-- Generator: Sketch 60 (88103) - https://sketch.com -->
    <title>ic_share</title>
    <desc>Created with Sketch.</desc>
    <g id="design" stroke="none" stroke-width="1" fill="none" fill-rule="evenodd">
        <g id="renews_dt_article_detail" transform="translate(-1039.000000, -1156.000000)">
            <g id="title" transform="translate(240.000000, 705.000000)">
                <g id="ic_share" transform="translate(800.000000, 452.000000)">
                    <circle id="Oval" stroke="#8DBDA3" cx="30" cy="30" r="30"></circle>
                    <path d="M35.2962963,36.0645161 C36.5322222,36.0645161 37.5185185,37.0520323 37.5185185,38.2903226 C37.5185185,39.5282419 36.5322222,40.516129 35.2962963,40.516129 C34.0603704,40.516129 33.0740741,39.5282419 33.0740741,38.2903226 C33.0740741,37.0520323 34.0603704,36.0645161 35.2962963,36.0645161 L35.2962963,36.0645161 Z M22.7037037,28.2741935 C23.9396296,28.2741935 24.9259259,29.2617097 24.9259259,30.5 C24.9259259,31.7379194 23.9396296,32.7258065 22.7037037,32.7258065 C21.4677778,32.7258065 20.4814815,31.7379194 20.4814815,30.5 C20.4814815,29.2617097 21.4677778,28.2741935 22.7037037,28.2741935 L22.7037037,28.2741935 Z M35.2962963,20.483871 C36.5322222,20.483871 37.5185185,21.4713871 37.5185185,22.7096774 C37.5185185,23.9475968 36.5322222,24.9354839 35.2962963,24.9354839 C34.0603704,24.9354839 33.0740741,23.9475968 33.0740741,22.7096774 C33.0740741,21.4713871 34.0603704,20.483871 35.2962963,20.483871 L35.2962963,20.483871 Z M35.2962963,19 C33.2596296,19 31.5925926,20.6693548 31.5925926,22.7096774 C31.5925926,23.1262742 31.6614815,23.5287742 31.7892593,23.9038226 L25.4466667,28.0308387 C24.7674074,27.2759194 23.7918519,26.7903226 22.7037037,26.7903226 C20.667037,26.7903226 19,28.4596774 19,30.5 C19,32.5399516 20.667037,34.2096774 22.7037037,34.2096774 C23.7959259,34.2096774 24.7788889,33.7292742 25.4585185,32.9691613 L31.7892593,37.0961774 C31.6592593,37.4738226 31.5925926,37.8696452 31.5925926,38.2903226 C31.5925926,40.3302742 33.2596296,42 35.2962963,42 C37.332963,42 39,40.3302742 39,38.2903226 C39,36.250371 37.332963,34.5806452 35.2962963,34.5806452 C34.2081481,34.5806452 33.2325926,35.0662419 32.5533333,35.8211613 L26.2107407,31.6941452 C26.3385185,31.3190968 26.4074074,30.9165968 26.4074074,30.5 C26.4074074,30.0796935 26.3407407,29.6835 26.2107407,29.3058548 L32.5418519,25.1788387 C33.2211111,25.9389516 34.2040741,26.4193548 35.2962963,26.4193548 C37.332963,26.4193548 39,24.749629 39,22.7096774 C39,20.6693548 37.332963,19 35.2962963,19 Z" id="Fill-1" fill="#8DBDA3"></path>
                </g>
            </g>
        </g>
    </g>
</svg>