<svg xmlns="http://www.w3.org/2000/svg" width="21.9" height="20.579" viewBox="0 0 21.9 20.579">
  <g id="Path" transform="translate(-236.237 -78.004)">
    <path id="パス_239" data-name="パス 239" d="M240.187,78.754a3.2,3.2,0,0,0-3.2,3.2v8.4a3.2,3.2,0,0,0,3.2,3.2h8v1a2.351,2.351,0,0,0,1.5,2.5,11.311,11.311,0,0,0,3.909.665,3.956,3.956,0,0,1-1.81-3.162v-1h2.4a3.2,3.2,0,0,0,3.2-3.2v-8.4a3.2,3.2,0,0,0-3.2-3.2h-14" fill="none" stroke="#b0ad9e" stroke-miterlimit="10" stroke-width="1.5"/>
  </g>
</svg>
