<svg xmlns="http://www.w3.org/2000/svg" viewBox="0 0 180 50"><g data-name="レイヤー 2"><path d="M155 50H25A25 25 0 010 25 25 25 0 0125 0h130a25 25 0 0125 25 25 25 0 01-25 25z" fill="#00cde5"/><path d="M70.85 22a.89.89 0 01.92-1c.49 0 .72.27 1 .86l2.36 5.28 2.3-5.28c.25-.59.48-.86 1-.86a.89.89 0 01.91 1v7.85a.77.77 0 11-1.53 0v-5.18h-.07L76 28.62c-.25.57-.5.74-.89.74s-.66-.17-.91-.74l-1.75-3.95h-.07v5.22a.77.77 0 11-1.53 0zm11.69 1.24a3.59 3.59 0 016.69 0 7.77 7.77 0 01.28 2.63 7.8 7.8 0 01-.28 2.64 3.59 3.59 0 01-6.69 0 7.8 7.8 0 01-.28-2.64 7.77 7.77 0 01.28-2.63zm5.09.45a1.84 1.84 0 00-3.49 0 6.72 6.72 0 00-.2 2.18 6.8 6.8 0 00.2 2.19 1.85 1.85 0 003.49 0 6.91 6.91 0 00.19-2.19 6.83 6.83 0 00-.19-2.18zm10.04 6.5L96 26.78h-1.83c-.06 0-.08 0-.08.09v3a.83.83 0 11-1.66 0v-8a.69.69 0 01.74-.74h3.09a2.83 2.83 0 013 2.84 2.72 2.72 0 01-1.7 2.57l1.56 2.9a1.08 1.08 0 01.12.5.76.76 0 01-.8.79.86.86 0 01-.77-.54zm0-6.24a1.33 1.33 0 00-1.47-1.35h-2c-.06 0-.08 0-.08.08v2.53c0 .06 0 .09.08.09h2a1.33 1.33 0 001.46-1.3zm4.48-2.1a.69.69 0 01.75-.74h4.74a.75.75 0 110 1.49h-3.75c-.06 0-.08 0-.08.08V25c0 .06 0 .09.08.09h3a.75.75 0 110 1.48h-3c-.06 0-.08 0-.08.09v2.41c0 .05 0 .08.08.08h3.75a.75.75 0 110 1.49h-4.74a.7.7 0 01-.75-.75z" fill="#fff"/></g></svg>