<svg xmlns="http://www.w3.org/2000/svg" viewBox="0 0 170 40"><g data-name="レイヤー 2"><path d="M150 40H20A20 20 0 010 20 20 20 0 0120 0h130a20 20 0 0120 20 20 20 0 01-20 20z" fill="#00cde5"/><path d="M68.57 16.46a.76.76 0 01.79-.85c.42 0 .61.23.84.73l2 4.52 2-4.52c.22-.5.41-.73.83-.73a.76.76 0 01.78.85v6.73a.66.66 0 11-1.31 0v-4.48h-.06L73 22.1c-.21.49-.43.63-.76.63s-.57-.14-.78-.63l-1.5-3.39h-.06v4.48a.66.66 0 11-1.31 0zm10.03 1.03a3.07 3.07 0 015.72 0 6.38 6.38 0 01.24 2.26 6.35 6.35 0 01-.24 2.25 3.07 3.07 0 01-5.72 0 6.6 6.6 0 01-.24-2.25 6.63 6.63 0 01.24-2.26zm4.36.39a1.58 1.58 0 00-3 0 5.73 5.73 0 00-.17 1.87 5.81 5.81 0 00.21 1.87 1.58 1.58 0 003 0 5.93 5.93 0 00.16-1.87 5.84 5.84 0 00-.16-1.87zm8.61 5.56l-1.47-2.91h-1.53a.06.06 0 00-.07.07v2.54a.71.71 0 11-1.41 0V16.3a.59.59 0 01.63-.63h2.64A2.42 2.42 0 0193 18.1a2.31 2.31 0 01-1.45 2.2l1.33 2.48a.84.84 0 01.11.43.65.65 0 01-.68.67.74.74 0 01-.74-.44zm0-5.34a1.14 1.14 0 00-1.25-1.16h-1.75a.06.06 0 00-.07.07v2.17a.06.06 0 00.07.07h1.74a1.13 1.13 0 001.25-1.15zm3.86-1.8a.59.59 0 01.63-.63h4.07a.64.64 0 110 1.27h-3.21s-.08 0-.08.07v2c0 .05 0 .07.08.07h2.61a.64.64 0 110 1.28h-2.61s-.08 0-.08.07v2.06c0 .05 0 .07.08.07h3.21a.65.65 0 01.72.64.64.64 0 01-.72.63h-4.07a.59.59 0 01-.63-.63z" fill="#fff"/></g></svg>