<svg xmlns="http://www.w3.org/2000/svg" viewBox="0 0 110 110"><defs><style>.cls-1{fill:none}.cls-3{fill:#d9ecf4}.cls-4{fill:#202020}.cls-5{fill:#00cde5}</style></defs><g id="レイヤー_2" data-name="レイヤー 2"><g id="design"><path class="cls-1" d="M0 0h110v110H0z"/><path d="M34.1 78.13A38.73 38.73 0 0118.6 60.5m70.6 0a38.73 38.73 0 01-15.5 17.63M34.1 12.65a38.39 38.39 0 0139.6 0" stroke="#d9ecf4" stroke-linecap="round" stroke-linejoin="round" stroke-width="4.4" fill="none"/><path class="cls-3" d="M17.6 46.27a4.39 4.39 0 004.26-3.37 8.79 8.79 0 00-12.77 5.5h4.79a4.33 4.33 0 013.72-2.13zM9.9 29.7a7.67 7.67 0 001.26 4.21 4.38 4.38 0 003.21-4.21 3.23 3.23 0 013.23-3.23 4.38 4.38 0 004.21-3.21A7.69 7.69 0 009.9 29.7z"/><path class="cls-1" d="M9.9 29.7a7.69 7.69 0 107.7-7.7 7.67 7.67 0 00-7.7 7.7zm-.81 18.7h17a8.79 8.79 0 00-17 0z"/><path class="cls-4" d="M24.69 39.48A12.08 12.08 0 0017.6 17.6a2.14 2.14 0 01.76.14A2.2 2.2 0 0117.6 22a7.7 7.7 0 110 15.4 2.14 2.14 0 01.76.14 2.2 2.2 0 01-.76 4.26 8.8 8.8 0 018.52 6.6h-17a8.84 8.84 0 00-.29 2.2 2.2 2.2 0 01-2.2 2.2h22a2.2 2.2 0 002.2-2.2 13.19 13.19 0 00-6.14-11.12z"/><path class="cls-5" d="M18.36 37.54a2.14 2.14 0 00-.76-.14 7.7 7.7 0 010-15.4 2.2 2.2 0 00.76-4.26 2.14 2.14 0 00-.76-.14 12.08 12.08 0 00-7.09 21.88A13.19 13.19 0 004.4 50.6a2.2 2.2 0 004.4 0 8.85 8.85 0 018.8-8.8 2.2 2.2 0 00.76-4.26z"/><path class="cls-3" d="M90.2 46.27a4.39 4.39 0 004.26-3.37 8.79 8.79 0 00-12.77 5.5h4.79a4.33 4.33 0 013.72-2.13zM82.5 29.7a7.67 7.67 0 001.26 4.21A4.38 4.38 0 0087 29.7a3.23 3.23 0 013.23-3.23 4.38 4.38 0 004.21-3.21A7.69 7.69 0 0082.5 29.7z"/><path class="cls-1" d="M82.5 29.7a7.69 7.69 0 107.7-7.7 7.67 7.67 0 00-7.7 7.7zm-.81 18.7h17a8.79 8.79 0 00-17 0z"/><path class="cls-4" d="M97.29 39.48A12.08 12.08 0 0090.2 17.6a2.14 2.14 0 01.76.14A2.2 2.2 0 0190.2 22a7.7 7.7 0 110 15.4 2.14 2.14 0 01.76.14 2.2 2.2 0 01-.76 4.26 8.8 8.8 0 018.52 6.6h-17a8.84 8.84 0 00-.29 2.2 2.2 2.2 0 01-2.2 2.2h22a2.2 2.2 0 002.2-2.2 13.19 13.19 0 00-6.14-11.12z"/><path class="cls-5" d="M91 37.54a2.14 2.14 0 00-.76-.14 7.7 7.7 0 010-15.4 2.2 2.2 0 00.76-4.26 2.14 2.14 0 00-.76-.14 12.08 12.08 0 00-7.09 21.88A13.19 13.19 0 0077 50.6a2.2 2.2 0 004.4 0 8.85 8.85 0 018.8-8.8 2.2 2.2 0 00.8-4.26z"/><path class="cls-3" d="M53.9 100.17a4.39 4.39 0 004.26-3.37 8.79 8.79 0 00-12.77 5.5h4.79a4.33 4.33 0 013.72-2.13zM46.2 83.6a7.67 7.67 0 001.26 4.21 4.38 4.38 0 003.21-4.21 3.23 3.23 0 013.23-3.23 4.38 4.38 0 004.21-3.21A7.69 7.69 0 0046.2 83.6z"/><path class="cls-1" d="M46.2 83.6a7.69 7.69 0 107.7-7.7 7.67 7.67 0 00-7.7 7.7zm-.81 18.7h17a8.79 8.79 0 00-17 0z"/><path class="cls-4" d="M61 93.38a12.08 12.08 0 00-7.1-21.88 2.14 2.14 0 01.76.14 2.2 2.2 0 01-.76 4.26 7.7 7.7 0 110 15.4 2.14 2.14 0 01.76.14 2.2 2.2 0 01-.76 4.26 8.8 8.8 0 018.52 6.6h-17a8.84 8.84 0 00-.29 2.2 2.2 2.2 0 01-2.2 2.2h22a2.21 2.21 0 002.2-2.2A13.19 13.19 0 0061 93.38z"/><path class="cls-5" d="M54.66 91.44a2.14 2.14 0 00-.76-.14 7.7 7.7 0 110-15.4 2.2 2.2 0 00.76-4.26 2.14 2.14 0 00-.76-.14 12.08 12.08 0 00-7.09 21.88 13.19 13.19 0 00-6.11 11.12 2.2 2.2 0 004.4 0 8.85 8.85 0 018.8-8.8 2.2 2.2 0 00.76-4.26z"/></g></g></svg>