<svg xmlns="http://www.w3.org/2000/svg" viewBox="0 0 110 110"><defs><style>.cls-1{fill:#d9ecf4}.cls-2{fill:#202020}.cls-3{fill:#00cde5}.cls-4{fill:none}</style></defs><g id="レイヤー_2" data-name="レイヤー 2"><g id="design"><path class="cls-1" d="M14.85 50.07l2.28 36.83h4.38a2.44 2.44 0 000-.27L19.25 50a3.9 3.9 0 013.85-3.8 4.38 4.38 0 004.22-3.2 8.23 8.23 0 00-12.47 7.09zm4.62-20.37a3.23 3.23 0 013.23-3.23 4.39 4.39 0 004.22-3.21A7.7 7.7 0 0015 29.7a7.59 7.59 0 001.27 4.21 4.38 4.38 0 003.2-4.21z"/><path class="cls-2" d="M29.89 39.41A12.09 12.09 0 0022.7 17.6a2.14 2.14 0 01.76.14A2.2 2.2 0 0122.7 22a7.7 7.7 0 010 15.4h.14a2.2 2.2 0 01-.14 4.39h.8a2.58 2.58 0 01-.4 0A8.21 8.21 0 0127.32 43a8.36 8.36 0 014 7.09L29.07 86.9H17.13l.13 2.1a2.18 2.18 0 01-1.33 2.15 2.25 2.25 0 01-.73.19h15.94a2.19 2.19 0 002.19-2.06l2.41-39a.66.66 0 000-.14 12.73 12.73 0 00-5.85-10.73z"/><path class="cls-3" d="M22.7 37.4a7.7 7.7 0 010-15.4 2.2 2.2 0 00.76-4.26 2.14 2.14 0 00-.76-.14 12.09 12.09 0 00-6.81 22.09 12.4 12.4 0 015.93-2.22c.33 0 .67 0 1-.06z"/><path class="cls-3" d="M22.84 37.41c-.35 0-.69 0-1 .06a12.55 12.55 0 00-5.93 2.22 12.82 12.82 0 00-4.8 6.46.78.78 0 01-.05.14c-.09.28-.15.56-.22.84 0 .13-.07.26-.1.39s-.07.45-.11.68-.07.39-.09.59 0 .39 0 .59v.72a1.93 1.93 0 000 .24l2.28 36.83.13 2.07a2 2 0 00.06.42 2.24 2.24 0 00.14.36 1.91 1.91 0 00.16.27v.08a.9.9 0 00.16.18.63.63 0 00.11.12.81.81 0 00.14.12c.06 0 .11.09.18.13l.1.08.21.11a2.22 2.22 0 00.82.16h.14a2.25 2.25 0 00.73-.19A2.18 2.18 0 0017.26 89l-.13-2.06-2.28-36.87a8.29 8.29 0 018.25-8.27 2.58 2.58 0 00.4 0h-.8a2.2 2.2 0 00.14-4.39z"/><path class="cls-4" d="M0 0h110v110H0z"/><path class="cls-3" d="M64.49 82.07a2.2 2.2 0 001.72.85 2.2 2.2 0 01-1.72-.85z"/><path class="cls-3" d="M72.62 65.7h-6.41A2.21 2.21 0 0064 67.9v12.82a2.23 2.23 0 002.2 2.2 2.2 2.2 0 002.19-2.2V70.1h4.22a2.2 2.2 0 000-4.4z"/><path class="cls-4" d="M57.2 68.41l6.8 2.72v4.74l-6.8-2.72V86.9h35.2V71.39l-11.19 4.48v4.79a2.2 2.2 0 01-2.2 2.2H66.2a2.19 2.19 0 002.19-2.2v-2.2h8.42v-8.41h-4.2a2.2 2.2 0 000-4.4H79a2.2 2.2 0 012.2 2.2v3.28l11.2-4.48V64.9H57.2z"/><path class="cls-1" d="M52.8 71.39V86.9h4.4V73.16l-4.4-1.77zm0 19.91zm0-30.8v6.16l4.4 1.76V64.9h35.2v-4.4H52.8z"/><path class="cls-2" d="M96.8 60.5v-2.2a2.21 2.21 0 00-2.2-2.2h-7.72v-5.5a2.21 2.21 0 00-2.2-2.2h-23.1a2.2 2.2 0 00-2.2 2.2v5.5H50.6a2.2 2.2 0 00-2.2 2.2v30.8a2.19 2.19 0 002.2 2.2h44a2.2 2.2 0 002.2-2.2V60.5zm-33-7.7h18.7v3.3H63.78zm28.6 13.85l-11.19 4.48v-3.28a2.2 2.2 0 00-2.2-2.2H72.6a2.2 2.2 0 010 4.4h4.2v8.41h-8.41v2.2a2.19 2.19 0 01-2.19 2.2H79a2.2 2.2 0 002.2-2.2v-4.79l11.2-4.48V86.9H52.8V71.39l4.4 1.76 6.8 2.72v-4.74l-6.8-2.72-4.4-1.76V60.5h39.6z"/><path class="cls-3" d="M50.62 91.36a2.21 2.21 0 01-2.2-2.2v-30.8a2.2 2.2 0 012.2-2.2h22a2.2 2.2 0 010 4.4h-19.8v28.6a2.2 2.2 0 01-2.2 2.2z"/></g></g></svg>