<svg xmlns="http://www.w3.org/2000/svg" viewBox="0 0 145.31 143.75"><path d="M145.31 72.15c0 .64-.43 1.12-.66 1.74s.21 1.5-.15 2.07-1.43.55-1.83 1.07-.32 1.37-.71 1.88-.7 1.1-1.06 1.61a11.93 11.93 0 00-.73 1.76 5.36 5.36 0 00-.6 1.66 5.59 5.59 0 00-.16 1.79c.07.62-.4 1.35-.23 2s.58 1.17.79 1.79-.1 1.39.09 2 .84 1.11 1 1.72.79 1.27.8 1.89-.57 1.3-.79 1.9a5.14 5.14 0 01-1.17 1.49 9 9 0 01-1.44 1.19c-.5.38-1.05.66-1.6 1s-.66 1.37-1.21 1.71-1.48.11-2 .47-.63 1.29-1.09 1.72-1.38.55-1.69 1.09a7.12 7.12 0 00-.85 1.83c-.14.61.68 1.39.62 2s-.48 1.23-.5 1.88-.5 1.28-.53 1.91-.29 1.25-.37 1.87a10.08 10.08 0 01-.15 1.86c-.22.62-.18 1.33-.59 1.82a5.63 5.63 0 01-1.46 1.33c-.54.3-1.34 0-2 .23s-1.12.65-1.76.8-1.3.08-1.93.21-1.12.89-1.73 1.06a12.93 12.93 0 00-1.87.35 5.66 5.66 0 00-1.45 1.15 5.85 5.85 0 00-1.24 1.33 12.16 12.16 0 00-1.16 1.54c-.26.57-.81 1-1 1.65s.13 1.45-.12 2-.45 1.27-.74 1.82-1.31.73-1.7 1.2a4.47 4.47 0 01-1.45 1 4.36 4.36 0 01-1.61.77c-.6.1-1.22.81-1.89.78s-1.27-.37-1.92-.45-1.24-.4-1.88-.49-1.34.39-2 .34-1.27-.51-1.89-.47-1.12.6-1.71.81-1.46-.14-2 .26a13.32 13.32 0 00-1.63 1.14c-.45.45-.33 1.45-.77 1.93s-1.1.76-1.53 1.22a19.15 19.15 0 01-1.42 1.31c-.49.45-.68 1.36-1.21 1.67s-1.44 0-2.07.12a5 5 0 01-1.9.1 9.63 9.63 0 01-1.89-.46c-.57-.24-.84-1.15-1.43-1.45s-1.43 0-2-.34-1.16-.57-1.73-.83-1.31-.09-1.91-.27-1.11-1.18-1.73-1.18a7.52 7.52 0 00-2.06.09 14.6 14.6 0 00-1.85.78c-.57.27-.89 1.1-1.47 1.4s-1 1-1.53 1.25-1.58-.31-2.16-.07a10.39 10.39 0 01-1.7.75 5 5 0 01-1.84.28 5.94 5.94 0 01-2-.3c-.53-.32-.6-1.31-1.09-1.76s-.83-.92-1.27-1.4-1.62-.27-2-.75-.58-1.21-1-1.66-.65-1.27-1.14-1.64a6.84 6.84 0 00-1.87-.7c-.58-.21-1.19-.87-1.85-.91s-1.3.54-2 .59-1.29-.05-1.94 0-1.26.31-1.89.39-1.27.78-1.89.81-1.35-.46-2-.56a5 5 0 01-1.68-.91c-.55-.32-1.3-.42-1.71-.94a9.68 9.68 0 01-1.34-1.5c-.29-.55-.35-1.28-.6-1.89s-.58-1.15-.82-1.75.06-1.44-.21-2-.9-1-1.23-1.53a6.16 6.16 0 00-1.33-1.32 6 6 0 00-1.49-1.15 12.71 12.71 0 00-1.84-.53c-.61-.17-1.32.08-2-.05s-1.25-.34-1.88-.48-1.21-.61-1.81-.8a9.72 9.72 0 01-1.74-.86c-.58-.32-1.45-.41-1.86-.9s-.2-1.41-.41-2a9.52 9.52 0 01-.45-1.84c-.08-.62.25-1.28.22-1.93s-.55-1.26-.57-1.91.09-1.31 0-1.94a13.93 13.93 0 00-.54-1.87 6.29 6.29 0 00-.7-1.75 6 6 0 00-1.2-1.44 12.74 12.74 0 00-1.26-1.35c-.51-.36-1.25-.42-1.8-.76s-1-.81-1.56-1.15-1.24-.54-1.74-.92-.63-1.25-1-1.71-1.25-.77-1.47-1.37a6 6 0 01-.13-2 10.16 10.16 0 010-2c.14-.61 1-1 1.21-1.67S5 90 5.17 89.4s.48-1.2.65-1.81a12.45 12.45 0 00.31-1.86 6.67 6.67 0 00.29-1.88 6.47 6.47 0 00-.67-1.8c-.28-.55-.25-1.35-.63-1.9S3.85 79.5 3.45 79s-.64-1.14-1-1.65-.65-1.13-1-1.66-1-1-1.21-1.56.42-1.33.42-2-.84-1.42-.61-2 1-1 1.35-1.53a18.93 18.93 0 011-1.6c.39-.51.94-.9 1.34-1.41s.92-1 1.28-1.47.39-1.31.67-1.86a6.32 6.32 0 00.66-1.78 7.11 7.11 0 000-1.9 12.91 12.91 0 00-.23-1.91C6 56 5.7 55.42 5.5 54.8s-.1-1.32-.29-1.93S5 51.61 4.86 51 4 49.8 4 49.19s.7-1.12.91-1.72-.3-1.64.13-2.14 1.56-.19 2.08-.6.5-1.5 1-1.86 1.45-.11 2-.45 1.21-.57 1.73-.93a13.17 13.17 0 001.38-1.42 6.4 6.4 0 001.15-1.57 6.55 6.55 0 00.65-1.82 13.8 13.8 0 000-1.93c.06-.62.87-1.23.9-1.88s-.93-1.33-.9-2 .57-1.28.65-1.9a9.31 9.31 0 01.67-1.79 4.55 4.55 0 011-1.48c.41-.49.63-1.07 1.21-1.39s1-1 1.59-1.25 1.45.49 2.09.34 1.25-.31 1.88-.44 1.33-.14 1.94-.3A14.76 14.76 0 0028 22a7.12 7.12 0 001.73-1.11A7.41 7.41 0 0031 19.31a15.61 15.61 0 00.69-1.86c.27-.57.76-1.08 1-1.68s.31-1.27.56-1.86 0-1.43.33-2 1.09-.88 1.48-1.36a5.22 5.22 0 011.33-1.36c.55-.32 1.24 0 1.9-.08S39.5 8 40.17 8s1.22.72 1.87.81 1.38-.53 2-.44 1.26.22 1.89.28 1.26.57 1.88.53a7.22 7.22 0 002-.19c.59-.21.91-.93 1.45-1.34a13 13 0 001.64-1c.44-.45.72-1.07 1.16-1.56s.78-1 1.21-1.51 1.25-.6 1.71-1 .6-1.45 1.13-1.76a6.34 6.34 0 012-.76 6.26 6.26 0 012.11.07 10.87 10.87 0 011.9.68c.58.24 1 .86 1.61 1.16s1.22.45 1.79.75 1 .93 1.56 1.2a13.09 13.09 0 001.85.57 7.27 7.27 0 001.89.6 7.4 7.4 0 001.92-.51 13.34 13.34 0 001.72-.88c.57-.26 1.2-.45 1.77-.76s1.38-.15 2-.44 1-.75 1.63-1 1-1.07 1.65-1.19a5.54 5.54 0 012 .16c.49.12.92.73 1.49 1.07a8.82 8.82 0 011.56 1c.46.42 1.33.47 1.77.95s.48 1.31.91 1.79 1.14.71 1.59 1.16.49 1.45 1 1.82 1.4.3 2 .51 1.23-.06 1.9 0 1.28 1 2 .94 1.21-.78 1.85-.87 1.35.33 2 .25 1.16-.09 1.79-.09 1.3-.47 1.9-.37a4.89 4.89 0 011.65.92 4.55 4.55 0 011.41 1.14c.39.48 1.43.6 1.74 1.2s.24 1.32.5 1.93.37 1.24.61 1.83-.09 1.48.17 2a14.15 14.15 0 001.14 1.65c.37.56 1.15.76 1.63 1.16a6.32 6.32 0 001.71.74c.56.25 1 .89 1.65 1.06s1.3 0 1.94.16l1.89.41c.65.14 1.37 0 2 .23s1 1.12 1.5 1.42 1.56.19 2 .68a6.29 6.29 0 01.71 1.92 9.91 9.91 0 01.65 1.88c.08.61.35 1.28.38 1.93s-.11 1.3-.09 2-.78 1.35-.72 2a12.83 12.83 0 00.48 1.92c.16.65 1 .95 1.35 1.49s.12 1.47.61 1.93 1.21.51 1.76.89.84 1.06 1.39 1.41 1.56-.05 2.1.29 1.1.79 1.6 1.18a11.06 11.06 0 011.37 1.47 6.24 6.24 0 011.11 1.75c.21.6-.58 1.37-.59 2s.67 1.33.53 2-.07 1.33-.27 2-1.28.94-1.48 1.55-.31 1.28-.47 1.89a16.05 16.05 0 00-.67 1.9c-.08.66.43 1.37.54 2a6.83 6.83 0 00.31 2c.28.55 1.45.58 1.83 1.13s.06 1.54.47 2 1.14.75 1.53 1.26.46 1.26.79 1.79a9.2 9.2 0 01.74 1.72 5.06 5.06 0 01.54 1.69z" fill="#ff5" data-name="レイヤー 2"/></svg>