<svg xmlns="http://www.w3.org/2000/svg" viewBox="0 0 40 40"><defs><style>.svg-hatena{fill:#cbcbcb}</style></defs><g id="レイヤー_2" data-name="レイヤー 2"><g id="header_footer"><path class="svg-hatena" d="M17.22 18.26a1.44 1.44 0 00.65-1.34 1.53 1.53 0 00-.61-1.39 4.88 4.88 0 00-2.38-.4h-1v3.51h1a5.35 5.35 0 002.34-.38z"/><path class="svg-hatena" d="M20 0A20 20 0 000 20a20 20 0 0040 0A20 20 0 0020 0zm5.9 11.28a.1.1 0 01.1-.1h3.91a.09.09 0 01.09.1V23h-4a.11.11 0 01-.1-.1zm-3.35 14.93a4 4 0 01-1.7 1.65 7.22 7.22 0 01-2.2.69 35 35 0 01-4.3.19v-.11H9.52a.1.1 0 01-.1-.1V11.25a.11.11 0 01.1-.1h4.76a30.57 30.57 0 014.13.2 6.4 6.4 0 012 .68 3.86 3.86 0 011.47 1.45 4.35 4.35 0 01.5 2.1 3.4 3.4 0 01-.75 2.42 4.71 4.71 0 01-2.43 1.3 4.11 4.11 0 012.9 1.32 4.5 4.5 0 011 3.12 4.94 4.94 0 01-.55 2.47zm4.75 2.53a2.35 2.35 0 01.64-4.62 2.36 2.36 0 11-.64 4.64z"/><path class="svg-hatena" d="M18 22.21a4.62 4.62 0 00-2.4-.44H14a.09.09 0 00-.1.09v3.64a.09.09 0 00.1.09h1.58a4.73 4.73 0 002.4-.42 1.5 1.5 0 00.7-1.42 1.72 1.72 0 00-.68-1.54z"/></g></g></svg>