<svg xmlns="http://www.w3.org/2000/svg" viewBox="0 0 110 110"><defs><style>.cls-5{fill:#fff}.cls-11{letter-spacing:.01em}</style></defs><g id="レイヤー_2" data-name="レイヤー 2"><g id="design"><rect width="110" height="110" rx="11.28" fill="#d9ecf4" opacity=".5"/><text transform="translate(34.79 91.93)" font-family="DNPShueiMGoStd-B-83pv-RKSJ-H,DNP ShueiMGoStd" fill="#fff" font-size="12.95" letter-spacing=".05em">正<tspan x="13.54" y="0" letter-spacing=".08em">社</tspan><tspan x="27.48" y="0" letter-spacing=".08em">員</tspan></text><path class="cls-5" d="M51.08 28.13a1.41 1.41 0 001.27.78h5.3a1.41 1.41 0 001.27-.78l2.82-5.64a1.42 1.42 0 00-1.27-2H49.53a1.42 1.42 0 00-1.27 2zm-12.35-4.71a1.41 1.41 0 00.07-2.81 3.44 3.44 0 00-.55 0c-.32.05-.62.12-.93.19A14.62 14.62 0 0026 35.07v22.86a1.41 1.41 0 002.82 0V35.07a11.75 11.75 0 018.55-11.34c.45-.12.91-.23 1.38-.31z"/><path class="cls-5" d="M71.76 20.64a2.63 2.63 0 00-.49 0 3.39 3.39 0 00-2.93 1.81l-8.67 20.69L58.65 33a1.41 1.41 0 00-1.4-1.27h-4.5a1.4 1.4 0 00-1.4 1.27l-1 10.14-8.69-20.73a3.4 3.4 0 00-2.55-1.75l-.29-.05a1.41 1.41 0 01-.07 2.81.57.57 0 01.4.26l.92 2.21L52.4 55.38a2.81 2.81 0 005.2 0l13.27-31.7a.57.57 0 01.4-.26 11.75 11.75 0 019.93 11.65v22.86a.6.6 0 01-.59.6H29.39a.6.6 0 01-.59-.6 1.41 1.41 0 01-2.82 0 2.62 2.62 0 00.06.57 3.41 3.41 0 003.35 2.85h51.22A3.42 3.42 0 0084 57.93V35.07a14.62 14.62 0 00-12.24-14.43zM55 54.3z"/><text transform="translate(28.61 50.98)" font-size="15.51" fill="#cbcbcb" letter-spacing=".01em" font-family="DNPShueiMGoStd-B-83pv-RKSJ-H,DNP ShueiMGoStd">c<tspan x="7.74" y="0">o</tspan><tspan x="16.58" y="0">m</tspan><tspan x="30.17" y="0">i</tspan><tspan x="34.32" y="0">n</tspan><tspan class="cls-11" x="43.31" y="0">g</tspan><tspan class="cls-11"><tspan x="8.8" y="12.92">s</tspan><tspan x="16.23" y="12.92">o</tspan><tspan x="25.1" y="12.92">o</tspan><tspan x="33.93" y="12.92" letter-spacing=".02em">n</tspan></tspan></text></g></g></svg>