<svg xmlns="http://www.w3.org/2000/svg" viewBox="0 0 69.81 38.88"><defs><style>.cls-1{fill:#fff}</style></defs><g id="レイヤー_2" data-name="レイヤー 2"><g id="hover"><path class="cls-1" d="M34.37 30.12a1.15 1.15 0 00.36.07 1.15 1.15 0 01-.36-.07zm.54.11zm0 0a1.16 1.16 0 01-.18 0 1.16 1.16 0 00.18 0zm.48-.1a1.37 1.37 0 01-.48.1 1.37 1.37 0 00.48-.1zm.05-2.62l-.53-.22L5.13 15.11 34.91 2.93l.53-.21a1.41 1.41 0 00.77-1.84A1.27 1.27 0 0036 .54a1.45 1.45 0 00-.85-.49 1 1 0 00-.24 0 1.27 1.27 0 00-.54.11L27.34 3 32.57.84l-1.23.51-4 1.65L.88 13.81a1.51 1.51 0 00-.37.19 1.12 1.12 0 00-.25.28 1 1 0 00-.15.32 1.4 1.4 0 00-.06.41 1.35 1.35 0 00.06.41v.05a1.43 1.43 0 00.43.63 1.51 1.51 0 00.37.22l33.49 13.7a1.15 1.15 0 00.36.07 1.16 1.16 0 00.18 0 1.37 1.37 0 00.48-.1 1.41 1.41 0 00.59-.44 1.27 1.27 0 00.23-.34 1.41 1.41 0 00-.8-1.7zM34.37.11l-.74.3zm30.77 29.44a3.31 3.31 0 00-1.41-.32 3.41 3.41 0 00-3.38 3.38 3.39 3.39 0 104.79-3.06z"/><path class="cls-1" d="M68.94 13.81L35.44.11a1.4 1.4 0 00-.28-.06 1.45 1.45 0 01.84.49 1.27 1.27 0 01.2.34 1.41 1.41 0 01-.77 1.84l-.53.21 2.44 1 27.34 11.18-27.33 11.18-2.44 1 .53.22a1.41 1.41 0 01.77 1.84 1.37 1.37 0 01-.82.78l26.88-11v10.42a3.35 3.35 0 011.41-.32 3.31 3.31 0 011.41.32V18l3.8-1.55a1.41 1.41 0 00.05-2.64z"/><path class="cls-1" d="M54.1 25.6l-19.19 8.12-19.2-8.12a1.41 1.41 0 00-2 1.3v9.16a2.83 2.83 0 002.82 2.82h36.71a2.82 2.82 0 002.82-2.82V26.9a1.41 1.41 0 00-1.96-1.3z"/></g></g></svg>