<svg xmlns="http://www.w3.org/2000/svg" viewBox="0 0 110 110"><defs><style>.cls-2{fill:#d9ecf4}.cls-3{fill:#202020}.cls-4{fill:#00cde5}</style></defs><g id="レイヤー_2" data-name="レイヤー 2"><g id="design"><path d="M0 0v110h110V0z" fill="none"/><path class="cls-2" d="M19.84 32.44a42.06 42.06 0 0112.6-12.6 2.29 2.29 0 01-.71-.74L30 16.16A46.56 46.56 0 0016.16 30l2.94 1.7a2.19 2.19 0 01.74.74zm15.99-14.56A41.44 41.44 0 0153 13.25a2.23 2.23 0 01-.23-1V8.86a45.77 45.77 0 00-19 5.09l1.71 2.95a2.3 2.3 0 01.35.98zM13.25 53a41.48 41.48 0 014.63-17.21 2.11 2.11 0 01-1-.27l-3-1.71a45.92 45.92 0 00-5.09 19h3.42a2.23 2.23 0 011.04.19z"/><path class="cls-3" d="M55 4.4A50.6 50.6 0 10105.6 55 50.66 50.66 0 0055 4.4zm41.05 71.76l-3-1.71a2.2 2.2 0 10-2.2 3.82L93.84 80A46.56 46.56 0 0180 93.84l-1.7-2.94a2.2 2.2 0 10-3.82 2.2l1.71 3a45.77 45.77 0 01-19 5.09v-3.47a2.2 2.2 0 00-4.4 0v3.42a45.77 45.77 0 01-19-5.09l1.71-3a2.2 2.2 0 00-3.82-2.2L30 93.84A46.56 46.56 0 0116.16 80l2.94-1.7a2.2 2.2 0 00-2.19-3.82l-3 1.71A45.87 45.87 0 019 59.38c-.07-.72-.12-1.45-.15-2.18h3.75a2.19 2.19 0 00.65-4.2 2.23 2.23 0 00-1-.23H8.86a45.92 45.92 0 015.09-19l3 1.71a2.11 2.11 0 001 .27h.12a2.21 2.21 0 001.1-4.11L16.16 30A46.56 46.56 0 0130 16.16l1.7 2.94a2.29 2.29 0 00.71.74 2.25 2.25 0 001.2.36 2.18 2.18 0 002.19-2.32 2.3 2.3 0 00-.28-1L33.84 14a45.77 45.77 0 0119-5.09v3.42a2.23 2.23 0 00.23 1 2.19 2.19 0 004.14-.64V8.86c.73 0 1.46.08 2.18.15A45.87 45.87 0 0176.16 14l-1.71 2.9a2.21 2.21 0 00.81 3 2.22 2.22 0 003-.81L80 16.16A46.56 46.56 0 0193.84 30l-2.94 1.7a2.2 2.2 0 002.2 3.82l3-1.71a45.92 45.92 0 015.09 19h-3.47a2.2 2.2 0 000 4.4h3.42a45.92 45.92 0 01-5.09 18.95z"/><path class="cls-3" d="M52.56 55a3.2 3.2 0 103.2-3.2 3.2 3.2 0 00-3.2 3.2zM35.4 63.61a2.67 2.67 0 102.67 4.63l8.57-4.95A12.29 12.29 0 0144 58.67zM58 65.15a2.21 2.21 0 01-2.2 2.2 12.3 12.3 0 0010.5-5.85 2.2 2.2 0 00-3.74-2.32 7.92 7.92 0 01-6.8 3.82A2.2 2.2 0 0158 65.15zm8.26-16.65a12.29 12.29 0 00-7.83-5.5V30.68a2.67 2.67 0 00-5.34 0V43a12.34 12.34 0 012.67-.3 2.21 2.21 0 012.2 2.2 1.9 1.9 0 010 .25 2.18 2.18 0 01-2.17 1.95 7.92 7.92 0 016.76 3.77 2.2 2.2 0 003.74-2.32z"/><path class="cls-4" d="M55.76 63a8 8 0 110-15.9 2.18 2.18 0 002.17-1.95 1.9 1.9 0 000-.25 2.21 2.21 0 00-2.2-2.2 12.35 12.35 0 000 24.7 2.2 2.2 0 000-4.4z"/><path class="cls-2" d="M41.29 26.85a2.22 2.22 0 01-.81 3l-.46.28A28.92 28.92 0 0155 26a2.2 2.2 0 100-4.4A33.22 33.22 0 0038.49 26a2.2 2.2 0 012.8.85zm27.42 56.3a2.22 2.22 0 01.81-3l.46-.28A28.92 28.92 0 0155 84a2.2 2.2 0 000 4.4A33.22 33.22 0 0071.56 84a2.24 2.24 0 01-.94.23 2.2 2.2 0 01-1.91-1.08z"/><path class="cls-4" d="M91.76 57.42l-4-4a2.27 2.27 0 00-3.11 0l-4 4a2.2 2.2 0 002.73 3.41c.13-.62.24-1.25.32-1.88-.08.63-.18 1.25-.31 1.87a28.76 28.76 0 01-5.33 11.72l-.25.32c-.25.32-.51.64-.77 1s-.3.35-.46.52-.41.45-.62.67c-.39.42-.8.82-1.22 1.21l-.32.3c-.28.25-.56.5-.85.74l-.32.27a28.87 28.87 0 01-3.07 2.18l-.25.16-.46.28a2.2 2.2 0 001.1 4.11 2.24 2.24 0 00.94-.23l.7-.4.24-.15a33.61 33.61 0 003.58-2.55l.34-.28c.34-.29.68-.58 1-.88l.3-.28c.51-.47 1-1 1.49-1.47.23-.25.46-.49.69-.75l.53-.61c.3-.35.59-.71.88-1.07.1-.13.2-.25.29-.38a33.57 33.57 0 006.44-15.27l.06-.38v.39l.58.59a2.2 2.2 0 103.12-3.11zM41.29 26.85a2.2 2.2 0 00-2.8-.9l-.75.43-.24.15a33.61 33.61 0 00-3.58 2.55l-.34.28c-.34.29-.68.58-1 .88l-.3.28c-.51.47-1 1-1.49 1.47-.23.25-.46.49-.69.75l-.53.61c-.3.35-.59.71-.88 1.07-.1.13-.2.25-.29.38A33.57 33.57 0 0022 50.07l-.06.38c0-.13 0-.26.05-.39l-.58-.59a2.2 2.2 0 10-3.12 3.11l4 4a2.16 2.16 0 00.33.27l.09.05a2.64 2.64 0 00.29.15h.13a2.29 2.29 0 00.28.09 3 3 0 00.43 0 3.13 3.13 0 00.44 0l.28-.09h.13a2.49 2.49 0 00.28-.15l.09-.05a2.88 2.88 0 00.34-.27l4-4a2.2 2.2 0 00-2.73-3.41c-.13.62-.24 1.25-.32 1.88.08-.63.18-1.25.31-1.87a28.76 28.76 0 015.33-11.72l.25-.32c.25-.32.51-.64.77-1s.3-.35.46-.52.41-.45.62-.67c.39-.42.8-.82 1.22-1.21l.32-.3c.28-.25.56-.5.85-.74l.32-.27a28.87 28.87 0 013.07-2.18l.25-.16.46-.28a2.22 2.22 0 00.71-2.96z"/></g></g></svg>