<svg xmlns="http://www.w3.org/2000/svg" viewBox="0 0 50.06 41"><defs><style>.cls-2{fill:#fff}</style></defs><g id="レイヤー_2" data-name="レイヤー 2"><g id="design"><path d="M7.29 28.25a1.24 1.24 0 01-.88-.36l-2-2a15.18 15.18 0 1121.5-21.44 1.24 1.24 0 11-1.76 1.75 12.7 12.7 0 00-17.95 18l2 2a1.26 1.26 0 010 1.76 1.24 1.24 0 01-.91.29z" fill="#a0e4f8"/><path class="cls-2" d="M5.32 26.28a1.21 1.21 0 01-.88-.37A15.18 15.18 0 0125.91 4.45a1.24 1.24 0 11-1.76 1.75 12.7 12.7 0 00-17.95 18 1.24 1.24 0 010 1.75 1.23 1.23 0 01-.88.33z"/><path d="M44.74 26.28a1.21 1.21 0 01-.88-.37l-13.06-13a1.26 1.26 0 010-1.76 1.24 1.24 0 011.76 0l13.06 13.01a1.24 1.24 0 010 1.75 1.23 1.23 0 01-.88.37z" fill="#caeff9"/><path class="cls-2" d="M32.91 37a4.05 4.05 0 01-2.85-1.18l-1.45-1.45a1.24 1.24 0 111.76-1.76L31.82 34A1.55 1.55 0 0034 34a1.53 1.53 0 000-2.18 1.26 1.26 0 010-1.76 1.24 1.24 0 011.76 0A4 4 0 0132.91 37zm7.89-7.93a4 4 0 01-2.8-1.18 1.24 1.24 0 111.75-1.76 1.6 1.6 0 002.19 0 1.54 1.54 0 00.4-1.13 1.56 1.56 0 00-.45-1.1L30.8 12.86a1.26 1.26 0 010-1.76 1.24 1.24 0 011.76 0l11.09 11.09a4 4 0 01-2.85 6.88z"/><path class="cls-2" d="M36.85 33A4 4 0 0134 31.83l-1.45-1.45a1.26 1.26 0 010-1.76 1.24 1.24 0 011.76 0l1.45 1.45a1.6 1.6 0 002.19 0 1.55 1.55 0 000-2.18l-1.45-1.45a1.24 1.24 0 011.75-1.76l1.45 1.45A4 4 0 0136.85 33zM29 40.89a4 4 0 01-2.85-1.18L24.4 38a1.24 1.24 0 011.75-1.76L27.88 38a1.56 1.56 0 002.18 0 1.55 1.55 0 000-2.18A1.24 1.24 0 1131.82 34 4 4 0 0129 40.89zM9.26 29.17a3.79 3.79 0 01-2.67-1.1l-.36-.37a3.77 3.77 0 010-5.33l2.32-2.32a3.77 3.77 0 015.33 0l.37.36a3.78 3.78 0 010 5.34l-2.32 2.32a3.79 3.79 0 01-2.67 1.1zm2-7.74a1.28 1.28 0 00-.91.37L8 24.13a1.28 1.28 0 000 1.81l.37.37a1.29 1.29 0 001.82 0l2.3-2.31a1.29 1.29 0 000-1.82l-.37-.37a1.27 1.27 0 00-.9-.38z"/><path class="cls-2" d="M13.2 33.12A3.75 3.75 0 0110.54 32l-.37-.37a3.75 3.75 0 010-5.33l2.32-2.3a3.77 3.77 0 015.33 0l.37.37a3.75 3.75 0 010 5.33L15.87 32a3.76 3.76 0 01-2.67 1.12zm2-7.75a1.29 1.29 0 00-.91.38l-2.32 2.32a1.24 1.24 0 00-.38.91 1.27 1.27 0 00.38.91l.36.36a1.31 1.31 0 001.82 0l2.32-2.32a1.24 1.24 0 00.38-.91 1.27 1.27 0 00-.38-.91l-.37-.36a1.27 1.27 0 00-.94-.38z"/><path class="cls-2" d="M17.14 37.06A3.73 3.73 0 0114.48 36l-.37-.36a3.78 3.78 0 010-5.34l2.32-2.32a3.78 3.78 0 015.34 0l.36.37a3.77 3.77 0 010 5.33L19.81 36a3.74 3.74 0 01-2.67 1.06zm2-7.75a1.29 1.29 0 00-.91.38L15.87 32a1.29 1.29 0 000 1.82l.37.37a1.27 1.27 0 001.81 0l2.33-2.32a1.28 1.28 0 000-1.81l-.38-.37a1.29 1.29 0 00-.9-.38z"/><path class="cls-2" d="M21.09 41a3.75 3.75 0 01-2.67-1.1l-.37-.37a3.79 3.79 0 010-5.34l2.33-2.32a3.87 3.87 0 015.33 0l.36.37a3.76 3.76 0 010 5.33l-2.32 2.33a3.74 3.74 0 01-2.66 1.1zM23 33.25a1.31 1.31 0 00-.91.38L19.81 36a1.31 1.31 0 00-.38.91 1.3 1.3 0 00.38.91l.37.37a1.32 1.32 0 001.81 0l2.33-2.33a1.28 1.28 0 000-1.81l-.32-.42a1.3 1.3 0 00-1-.38zm-1.91-16.01a4 4 0 01-2.85-1.18 4 4 0 010-5.7l5.91-5.91a1.24 1.24 0 111.76 1.75L20 12.12a1.55 1.55 0 002.19 2.18l3.94-3.94a1.25 1.25 0 011.27-.3l.63.21a7.75 7.75 0 008-1.88 1.24 1.24 0 111.75 1.76 10.18 10.18 0 01-10.39 2.51l-3.4 3.4a4 4 0 01-2.9 1.18zm21.68 11.01a1.24 1.24 0 01-.88-2.12l2-2a1.24 1.24 0 011.76 1.75l-2 2a1.26 1.26 0 01-.88.37z"/><path class="cls-2" d="M44.74 26.28a1.21 1.21 0 01-.88-.37 1.23 1.23 0 010-1.75 12.7 12.7 0 00-17.95-18 1.24 1.24 0 01-1.76-1.75 15.18 15.18 0 0125.91 10.77 15 15 0 01-4.44 10.73 1.23 1.23 0 01-.88.37z"/></g></g></svg>