<svg xmlns="http://www.w3.org/2000/svg" viewBox="0 0 40 40"><defs><style>.svg-COPY{fill:#cbcbcb}</style></defs><g id="レイヤー_2" data-name="レイヤー 2"><g id="header_footer"><path class="svg-COPY" d="M20 0a20 20 0 1020 20A20 20 0 0020 0zm-8.61 9.8v15.34a.91.91 0 01-.47.87.92.92 0 01-1.37-.76V9.77a2.28 2.28 0 01.35-1.32 2 2 0 011.67-1c2.28-.06 4.55 0 6.82 0h5.64a1.51 1.51 0 01.52.06.93.93 0 01.59 1 1 1 0 01-.87.75H11.89c-.41.03-.5.12-.5.54zm19.07 12.12v8.43a2.24 2.24 0 01-1.73 2.15 3.51 3.51 0 01-.72.07H15.64a2.35 2.35 0 01-1.29-.33 2 2 0 01-.92-1.36 2.76 2.76 0 01-.06-.57V13.54a2.27 2.27 0 01.34-1.29 2.07 2.07 0 011.29-.92 2.76 2.76 0 01.57-.06h12.66a2.16 2.16 0 011.49.51 2 2 0 01.72 1.43v2.74c.03 1.99.02 3.98.02 5.97z"/><path class="svg-COPY" d="M28.6 13.36a.24.24 0 00-.22-.22H15.46a.22.22 0 00-.22.22 1.21 1.21 0 000 .19v16.81c0 .27.08.35.34.35h12.56a.39.39 0 00.15 0 .47.47 0 00.31-.5V13.36zM25.37 24.6c-.79.75-1.56 1.55-2.34 2.32a3.5 3.5 0 01-.92.7 3 3 0 01-2.58.11 2.89 2.89 0 01-1.88-2.3 3 3 0 01.78-2.69c.07-.08.1-.07.16 0a3.47 3.47 0 001 .95c.07 0 .08.08 0 .14a1.18 1.18 0 00-.11.19 1.73 1.73 0 00-.18 1.45 1.56 1.56 0 001.38 1 1.68 1.68 0 001.23-.55c.81-.79 1.61-1.61 2.42-2.41a1.34 1.34 0 00.37-1.16 1.78 1.78 0 00-1.34-1.44 1.22 1.22 0 00-1 .18 3 3 0 00-.48.38.24.24 0 01-.23 0 1 1 0 01-.8-.58c0-.05-.08-.1-.1-.16a.44.44 0 01.13-.52 3.17 3.17 0 012.19-.88 3.13 3.13 0 013.07 2.48 2.76 2.76 0 01-.77 2.79zM27 19.13a4.21 4.21 0 01-.69 1.2c-.07.08-.09.07-.15 0a3.2 3.2 0 00-.93-.94c-.09-.06-.11-.09 0-.18a1.47 1.47 0 00.41-.95 1.64 1.64 0 00-1.05-1.55 1.4 1.4 0 00-1.08 0 1.8 1.8 0 00-.62.44l-2.31 2.3a1.71 1.71 0 00-.49.85 1.27 1.27 0 00.12.88 2.78 2.78 0 00.66.79 1.29 1.29 0 00.88.21 1.69 1.69 0 001.07-.53.36.36 0 01.2-.08 1 1 0 01.95.49c.1.14.05.29.07.43s-.07.26-.18.36a3.43 3.43 0 01-1.31.81 2.9 2.9 0 01-2.09-.12 3.54 3.54 0 01-.87-.62 3.13 3.13 0 01-1.05-2v-.32a3 3 0 01.82-2.11c.77-.82 1.59-1.59 2.37-2.39a4.26 4.26 0 01.43-.42 3.21 3.21 0 011.33-.53 3 3 0 012.52.64 3 3 0 01.88 1.21 3.17 3.17 0 01.23 1.36 2 2 0 01-.12.77z"/></g></g></svg>