<svg xmlns="http://www.w3.org/2000/svg" viewBox="0 0 50.06 41"><g data-name="レイヤー 2"><path d="M7.29 28.25a1.24 1.24 0 01-.88-.36l-2-2a15.18 15.18 0 1121.5-21.44 1.24 1.24 0 11-1.76 1.75 12.7 12.7 0 00-17.95 18l2 2a1.26 1.26 0 010 1.76 1.24 1.24 0 01-.91.29z" fill="#00cde5"/><path d="M45.62 4.45a15.2 15.2 0 00-21.47 0l-5.91 5.91a4 4 0 000 5.7 4 4 0 005.7 0l3.4-3.4a10.15 10.15 0 003.73.46l10.82 10.82a1.56 1.56 0 01.45 1.1 1.54 1.54 0 01-.45 1.09 1.6 1.6 0 01-2.19 0l-1.45-1.45a1.24 1.24 0 00-1.75 1.76l1.5 1.45a1.55 1.55 0 010 2.18 1.6 1.6 0 01-2.19 0l-1.45-1.45a1.24 1.24 0 00-1.76 0 1.26 1.26 0 000 1.76l1.4 1.45A1.53 1.53 0 0134 34a1.55 1.55 0 01-2.18 0l-1.45-1.45a1.24 1.24 0 10-1.76 1.76l1.45 1.45a1.55 1.55 0 010 2.18 1.56 1.56 0 01-2.18 0l-1.2-1.2a3.75 3.75 0 00-.61-4.51l-.36-.37a3.72 3.72 0 00-2.49-1.05 3.71 3.71 0 00-1.09-2.52l-.36-.37a3.8 3.8 0 00-2.49-1.09 3.72 3.72 0 00-1.09-2.48l-.37-.35a3.73 3.73 0 00-2.48-1.09 3.8 3.8 0 00-1.09-2.49l-.37-.36a3.77 3.77 0 00-5.33 0l-2.32 2.31a3.77 3.77 0 000 5.33l.36.37a3.8 3.8 0 002.49 1.09 3.72 3.72 0 001.09 2.48l.37.37A3.76 3.76 0 0013 33.1a3.8 3.8 0 001.09 2.49l.37.36A3.73 3.73 0 0017 37a3.71 3.71 0 001.08 2.49l.37.37a3.78 3.78 0 005.33 0L25 38.62l1.09 1.09A4 4 0 0033 36.94 4 4 0 0036.93 33a4 4 0 002.77-1.17 4.06 4.06 0 001.18-2.77 4 4 0 002.77-1.17l2-2a15.19 15.19 0 000-21.46zM8 25.94a1.28 1.28 0 010-1.81l2.33-2.33a1.29 1.29 0 011.81 0l.37.37a1.29 1.29 0 010 1.82l-2.32 2.32a1.29 1.29 0 01-1.82 0zm3.95 3.95a1.27 1.27 0 01-.38-.91 1.24 1.24 0 01.38-.91l2.32-2.32a1.29 1.29 0 01.91-.38 1.27 1.27 0 01.9.38l.37.36a1.27 1.27 0 01.38.91 1.25 1.25 0 01-.38.91l-2.32 2.32a1.31 1.31 0 01-1.82 0zm3.94 3.94a1.29 1.29 0 010-1.82l2.32-2.32a1.28 1.28 0 011.82 0l.37.37a1.28 1.28 0 010 1.81l-2.33 2.32a1.27 1.27 0 01-1.81 0zM22 38.14a1.32 1.32 0 01-1.81 0l-.37-.37a1.3 1.3 0 01-.38-.91 1.31 1.31 0 01.38-.91l2.32-2.32a1.31 1.31 0 01.91-.38 1.3 1.3 0 01.91.38l.37.37a1.28 1.28 0 010 1.81zm22.7-14.91L34 12.53a10.32 10.32 0 003.74-2.38A1.24 1.24 0 1036 8.39a7.75 7.75 0 01-8 1.88l-.63-.21a1.25 1.25 0 00-1.27.3l-3.92 3.94A1.55 1.55 0 0120 12.12l5.91-5.92a12.69 12.69 0 0118.79 17z" fill="#202020"/></g></svg>