<svg xmlns="http://www.w3.org/2000/svg" viewBox="0 0 40 40"><path d="M20 0a20 20 0 1020 20A20 20 0 0020 0zm9.34 15.21v.62A13.71 13.71 0 018.25 27.38a8.77 8.77 0 001.15.07 9.69 9.69 0 006-2.06A4.85 4.85 0 0110.88 22a5.5 5.5 0 00.91.08 4.81 4.81 0 001.27-.08 4.85 4.85 0 01-3.87-4.73v-.06a4.78 4.78 0 002.19.6 4.81 4.81 0 01-1.49-6.44 13.66 13.66 0 009.93 5 4.94 4.94 0 01-.12-1.1A4.82 4.82 0 0128 12a9.3 9.3 0 003.1-1.2 4.82 4.82 0 01-2.1 2.67 9.47 9.47 0 002.77-.76 9.71 9.71 0 01-2.43 2.5z" fill="#cbcbcb" data-name="レイヤー 2"/></svg>