<svg xmlns="http://www.w3.org/2000/svg" viewBox="0 0 56.78 46.5"><defs><style>.cls-1{fill:#fff}</style></defs><g id="レイヤー_2" data-name="レイヤー 2"><g id="hover"><path class="cls-1" d="M8.27 32a1.44 1.44 0 01-1-.41L5 29.39A17.22 17.22 0 0129.38 5a1.41 1.41 0 01-2 2A14.4 14.4 0 007 27.4l2.23 2.23a1.42 1.42 0 010 2 1.4 1.4 0 01-.96.37z"/><path class="cls-1" d="M51.74 5a17.24 17.24 0 00-24.35 0l-6.71 6.71a4.57 4.57 0 000 6.46 4.57 4.57 0 006.47 0L31 14.36a11.63 11.63 0 004.24.52l12.27 12.28a1.75 1.75 0 010 2.47 1.8 1.8 0 01-2.48 0L43.39 28a1.41 1.41 0 10-2 2L43 31.63a1.75 1.75 0 010 2.47 1.8 1.8 0 01-2.48 0l-1.64-1.64a1.41 1.41 0 10-2 2l1.65 1.65a1.75 1.75 0 01-2.48 2.47l-1.64-1.64a1.41 1.41 0 10-2 2l1.64 1.65a1.73 1.73 0 010 2.47 1.77 1.77 0 01-2.47 0l-1.36-1.36a4.27 4.27 0 00-.69-5.12l-.41-.41A4.25 4.25 0 0026.34 35a4.23 4.23 0 00-1.24-2.86l-.42-.41a4.15 4.15 0 00-2.82-1.23 4.24 4.24 0 00-1.23-2.83l-.42-.42A4.25 4.25 0 0017.39 26a4.27 4.27 0 00-1.23-2.82l-.42-.42a4.29 4.29 0 00-6 0l-2.68 2.61a4.28 4.28 0 000 6.05l.42.42a4.25 4.25 0 002.82 1.23 4.24 4.24 0 001.23 2.82l.42.42a4.29 4.29 0 002.82 1.23A4.27 4.27 0 0016 40.36l.42.42A4.25 4.25 0 0019.24 42a4.24 4.24 0 001.23 2.82l.42.42a4.24 4.24 0 003 1.25 4.28 4.28 0 003-1.25l1.45-1.45L29.62 45a4.57 4.57 0 006.47 0 4.53 4.53 0 001.33-3.14 4.62 4.62 0 003.14-1.33 4.53 4.53 0 001.33-3.14A4.54 4.54 0 0046.36 33a4.56 4.56 0 003.14-1.33l2.24-2.23a17.23 17.23 0 000-24.44zM9.06 29.42a1.45 1.45 0 010-2.06l2.63-2.63a1.45 1.45 0 012.06 0l.42.42a1.47 1.47 0 010 2.06l-2.64 2.63a1.45 1.45 0 01-2.06 0zm4.47 4.47a1.44 1.44 0 010-2.05l2.63-2.64a1.49 1.49 0 011-.43 1.47 1.47 0 011 .43l.42.42a1.45 1.45 0 01.42 1 1.47 1.47 0 01-.42 1L16 34.31a1.49 1.49 0 01-2.06 0zM18 38.36a1.44 1.44 0 010-2l2.63-2.64a1.49 1.49 0 011-.43 1.47 1.47 0 011 .43l.42.42a1.45 1.45 0 010 2.06l-2.64 2.63a1.45 1.45 0 01-2.06 0zm6.94 4.89a1.48 1.48 0 01-2.05 0l-.41-.41a1.45 1.45 0 01-.43-1 1.42 1.42 0 01.43-1l2.63-2.64a1.47 1.47 0 011-.42 1.45 1.45 0 011 .42l.42.42a1.45 1.45 0 010 2.06zm25.75-16.9L38.55 14.21a11.73 11.73 0 004.25-2.7 1.41 1.41 0 00-2-2 8.76 8.76 0 01-9 2.13l-.7-.23a1.41 1.41 0 00-1.45.34l-4.47 4.47a1.75 1.75 0 11-2.47-2.48L29.38 7A14.4 14.4 0 0154 17.22a14.26 14.26 0 01-3.31 9.13z"/></g></g></svg>