<svg xmlns="http://www.w3.org/2000/svg" viewBox="0 0 9.02 69"><g fill="none" stroke-linecap="round" stroke-linejoin="round" stroke-width="3" data-name="レイヤー 2"><path d="M1.52 1.5c.3.6.28.61.58 1.21l.6 1.2.6 1.19c.3.6.33.59.63 1.19s-.09 1.21.58 1.21.32-.58.62-1.18.27-.62.57-1.21l.6-1.21.6-1.2.6-1.2" stroke="#fff"/><path d="M1.53 21.5c.3.6.26.61.56 1.21s.33.59.63 1.19.31.59.61 1.19.27.62.57 1.22-.06 1.2.61 1.21.32-.6.62-1.2.28-.61.58-1.21.32-.59.62-1.19.26-.62.56-1.22.33-.59.63-1.19" stroke="#ffffc3"/><path d="M1.53 41.49l.6 1.21c.3.6.27.61.56 1.21s.31.6.61 1.19.33.59.63 1.19-.09 1.22.58 1.23.3-.62.6-1.22.31-.59.61-1.19.27-.61.57-1.21l.6-1.2.61-1.2" stroke="#ffff8b"/><path d="M1.5 61.51c.3.6.32.59.62 1.19s.31.6.6 1.19.29.61.59 1.21l.61 1.2c.3.6-.08 1.2.59 1.2s.29-.6.59-1.2.32-.59.62-1.19.27-.61.57-1.21.32-.59.62-1.19.29-.61.59-1.21" stroke="#ff5"/></g></svg>