<svg xmlns="http://www.w3.org/2000/svg" viewBox="0 0 61.06 34"><defs><style>.cls-1{fill:#202020}</style></defs><g id="レイヤー_2" data-name="レイヤー 2"><g id="design"><path class="cls-1" d="M30.06 26.34a1.65 1.65 0 00.32.07 1.14 1.14 0 01-.32-.07zm.47.09zm0 .01zm.47-.09a1.25 1.25 0 01-.42.08 1.25 1.25 0 00.42-.08z"/><path d="M31 24.06l-.46-.19-26-10.65 26-10.65.46-.19a1.22 1.22 0 00.67-1.6 1.14 1.14 0 00-.18-.3 1.27 1.27 0 00-.74-.48 1.55 1.55 0 00-.21 0 1.27 1.27 0 00-.47.09l-6.16 2.52L28.49.74l-1.08.44-3.5 1.43L.77 12.08a1 1 0 00-.32.19 1.31 1.31 0 00-.23.24 1.47 1.47 0 00-.14.28 1.36 1.36 0 000 .36 1.49 1.49 0 00.05.36 1.2 1.2 0 00.38.56 1.42 1.42 0 00.32.19l29.29 12a1.14 1.14 0 00.32.07h.15a1.25 1.25 0 00.42-.08 1.3 1.3 0 00.52-.39 1.49 1.49 0 00.2-.29 1.24 1.24 0 00-.73-1.51zm-.93-24l-.65.27z" fill="#00cde5"/><path class="cls-1" d="M57 25.84a3 3 0 101.73 2.68A3 3 0 0057 25.84z"/><path class="cls-1" d="M60.29 12.08L31 .09a1.69 1.69 0 00-.24 0 1.27 1.27 0 01.74.43 1.14 1.14 0 01.18.3A1.22 1.22 0 0131 2.37l-.47.19 2.13.87 23.91 9.78L32.67 23l-2.14.88.46.19a1.22 1.22 0 010 2.29l23.52-9.61v9.11a2.84 2.84 0 012.46 0V15.72l3.32-1.36a1.23 1.23 0 000-2.28z"/><path class="cls-1" d="M47.31 22.39l-16.78 7.1-16.79-7.1A1.23 1.23 0 0012 23.53v8A2.46 2.46 0 0014.49 34h32.07A2.47 2.47 0 0049 31.53v-8a1.24 1.24 0 00-1.69-1.14z"/></g></g></svg>