<svg xmlns="http://www.w3.org/2000/svg" viewBox="0 0 51.09 36"><defs><style>.cls-1{fill:#00cde5}</style></defs><g id="レイヤー_2" data-name="レイヤー 2"><g id="design"><path class="cls-1" d="M22.1 6.76a1.25 1.25 0 001.11.69h4.67A1.25 1.25 0 0029 6.76l2.49-5A1.25 1.25 0 0030.36 0h-9.63a1.24 1.24 0 00-1.11 1.8zM11.22 2.62a1.24 1.24 0 001.24-1.25A1.22 1.22 0 0011.28.15a1.87 1.87 0 00-.47 0c-.28 0-.54.11-.81.17A12.86 12.86 0 000 12.87V33a1.24 1.24 0 102.48 0V12.87A10.34 10.34 0 0110 2.89a10.06 10.06 0 011.21-.27z"/><path class="cls-1" d="M40.3.17a2.09 2.09 0 00-.43 0 3 3 0 00-2.58 1.6L29.65 20l-.89-8.93a1.24 1.24 0 00-1.23-1.12h-4a1.24 1.24 0 00-1.24 1.12L21.44 20 13.8 1.73A3 3 0 0011.56.18h-.26a1.22 1.22 0 011.18 1.22 1.24 1.24 0 01-1.24 1.25.46.46 0 01.35.22l.82 2 10.87 26a2.48 2.48 0 004.58 0L39.52 2.84a.46.46 0 01.35-.22 10.34 10.34 0 018.71 10.25V33a.52.52 0 01-.52.53H3a.53.53 0 01-.52-.53A1.24 1.24 0 110 33a2.83 2.83 0 00.05.5A3 3 0 003 36h45.09a3 3 0 003-3V12.87A12.87 12.87 0 0040.3.17zM25.55 29.79z"/></g></g></svg>