<svg xmlns="http://www.w3.org/2000/svg" viewBox="0 0 148.69 50.57"><path d="M7 21.28a.47.47 0 01-.34-.16c-.34-.39-.5-.6-.66-.8s-.31-.39-.63-.77l-.67-.76L4 18c-.34-.4-.5-.61-.66-.81a7.6 7.6 0 00-.62-.77l-1.3-1.5c-.34-.38-.5-.58-.67-.78s-.31-.39-.64-.77a.46.46 0 01.05-.64.46.46 0 01.64 0l.66.78c.16.2.31.39.64.77l1.33 1.52c.34.4.5.61.66.82s.3.39.62.76l.66.76.68.77c.33.39.49.59.65.8s.31.39.64.77a.46.46 0 01-.35.75zm61.74-10.9a.45.45 0 01-.42-.62c.17-.45.24-.69.31-.93s.15-.5.34-1 .27-.71.35-1l.36-.95a8.72 8.72 0 01.44-1 5.39 5.39 0 00.4-.87 7.19 7.19 0 00.29-.92 7.05 7.05 0 01.32-1 9.81 9.81 0 01.42-1c.1-.22.21-.44.38-.9a.46.46 0 01.59-.19.46.46 0 01.26.59 9.81 9.81 0 01-.42 1c-.1.22-.21.44-.38.9a7.72 7.72 0 00-.29.91 7.05 7.05 0 01-.32 1 8.72 8.72 0 01-.44 1 5.39 5.39 0 00-.4.87c-.18.47-.27.71-.35 1l-.36 1c-.18.46-.25.7-.32.93a9.87 9.87 0 01-.34 1 .45.45 0 01-.42.18zm-13.86-.71c-.63.13-.32-.53-.63-1.1S54 8 53.65 7.41s-.27-.59-.58-1.17-.34-.56-.63-1.14v-.09c-.47 0-.62-.18-.91.2s-.11.64-.2 1.29l-.18 1.31c-.09.65-.13.65-.22 1.31s.49 1.2-.17 1.32-.32-.58-.63-1.17-.27-.6-.58-1.18-.37-.56-.68-1.14 0-.86-.58-1.22c-.4-.25-.84-.26-.94.2-.14.69.29.62.62 1.24s.37.6.69 1.21.29.64.61 1.26l.66 1.24c.33.62.1.82.67 1.21.38.27.6.21.87-.16.4-.54.1-.64.19-1.3l.18-1.33c.09-.66.13-.66.22-1.32s-.49-1.2.17-1.32.27.6.58 1.19L53.44 9c.31.59.32.58.64 1.18s.07.82.62 1.2a.59.59 0 00.93-.19c.4-.57.08-.69.17-1.38s.08-.7.17-1.39.13-.69.22-1.38.12-.69.22-1.38.52-.79.15-1.38c-.25-.41-.65-.24-.94.14-.4.53-.11.66-.21 1.32s0 .66-.14 1.31-.27.65-.2 1.31.46 1.17-.19 1.31zm-17.49 3.26c-.59.31-.51-.46-1-.89s-.52-.41-1-.84-.49-.46-1-.89l-1-.88c-.51-.43-.41-.63-1-.85-.44-.17-.76-.27-1 .15-.28.61.15.67.27 1.33s.11.65.23 1.3.09.66.2 1.32.13.65.24 1.31-.24.85.24 1.32a.54.54 0 00.94-.17c.28-.58-.1-.64-.21-1.27L33 12.6c-.12-.63-.16-.63-.27-1.26s-.78-1-.21-1.29.54.42 1 .85.5.45 1 .88.49.46 1 .89l1 .87c.52.43.4.65 1 .87.45.16.75.25 1-.17.28-.6-.12-.67-.24-1.32s-.15-.65-.26-1.3-.02-.62-.13-1.32-.13-.65-.25-1.31.27-.86-.21-1.33a.54.54 0 00-.93.19c-.28.58.08.63.19 1.26s.15.63.26 1.26-.08.7.19 1.28.86.98.25 1.28zM21.65 8.51c-.39.54.17.67.29 1.32s.1.66.22 1.31.09.66.2 1.31.1.66.22 1.31-.28.91.26 1.29.66-.06 1.32-.18.65-.14 1.32-.26.65-.16 1.31-.27.67-.07 1.34-.18l1.32-.24c.67-.11.86.23 1.34-.25a.52.52 0 00-.18-.92c-.66-.29-.7.1-1.4.22s-.71.1-1.41.22l-1.4.27c-.7.12-.69.16-1.4.28s-.87.7-1.39.21c-.69-.64-.74-1-.31-1.82.32-.64.67-.13 1.37-.25s.69-.17 1.39-.29.71-.1 1.41-.22.7-.13 1.41-.26.89.26 1.41-.23a.54.54 0 00-.17-.94c-.65-.28-.69.16-1.4.29s-.7.11-1.4.24l-1.4.25-1.41.28c-.7.12-.89.71-1.41.22a1.29 1.29 0 01-.34-1.89c.32-.64.71-.14 1.41-.26s.7-.15 1.4-.27.71 0 1.41-.18.7-.16 1.4-.28.89.24 1.41-.25c.34-.32.25-.7-.18-.9-.61-.29-.65.07-1.31.19l-1.3.19c-.66.12-.65.16-1.31.28l-1.33.23a4 4 0 01-1.32.2c-.77-.03-1.04-.28-1.39.23zm17.47.78c-.39.54.13.68.25 1.33s.11.65.23 1.3l.22 1.31c.12.65.1.66.21 1.31s-.29.93.26 1.31.66-.14 1.32-.26.67-.1 1.33-.22.66-.1 1.32-.21.67-.1 1.33-.22.66-.15 1.32-.27.88.28 1.36-.2a.56.56 0 00-.19-1c-.66-.28-.7.15-1.4.27s-.71.1-1.41.22-.7.14-1.4.26l-1.4.25c-.71.13-.91.75-1.43.26a1.3 1.3 0 01-.34-1.89c.33-.64.73-.13 1.43-.25l1.4-.24c.7-.12.71-.09 1.41-.21l1.41-.24c.7-.13.9.23 1.42-.26a.56.56 0 00-.18-1c-.65-.28-.7.15-1.41.27s-.7.09-1.4.21l-1.4.25-1.38.33c-.7.13-.9.76-1.42.27-.69-.65-.71-1-.28-1.87.32-.64.66-.16 1.36-.29s.71-.08 1.41-.21l1.4-.24c.71-.13.7-.15 1.41-.27s.91.27 1.43-.22a.57.57 0 00-.18-1c-.61-.28-.67.15-1.33.27s-.66.13-1.32.25l-1.32.24-1.33.23a4.09 4.09 0 01-1.33.23c-.76-.01-.99-.34-1.38.2zm-18.38 2.3a2.82 2.82 0 00-.59-1.34A3 3 0 0019 9.41a2.8 2.8 0 00-1.47-.13c-.61.1-.61.07-1.22.18s-.6.16-1.2.27-.61.08-1.22.19-.6.14-1.21.24-.89-.34-1.21.19.11.7.23 1.4.14.69.26 1.39.1.71.22 1.41.1.7.23 1.41.16.69.29 1.39-.26.9.23 1.42a.54.54 0 00.95-.17c.28-.66-.1-.71-.23-1.42s-.63-.77-.27-1.39.58-.14 1.16-.24.6-.06 1.19-.16.59-.09 1.18-.2.59-.36 1.17-.2.45.37.9.77.44.43.89.83.35.61.93.78 1 .37 1.15-.21-.4-.44-.87-.86-.47-.4-.93-.82-.63-.28-.92-.83a2.54 2.54 0 00.93-.76 2.77 2.77 0 00.62-1.06 2.73 2.73 0 00-.04-1.24zm-7.6 3.29c-.53-.35-.12-.64-.23-1.27s-.09-.62-.2-1.25-.59-.74-.22-1.25.65-.11 1.29-.23.65-.08 1.29-.19.64-.17 1.28-.28.65-.09 1.3-.2a1.91 1.91 0 011.43.28 2 2 0 01.78 1.25 1.89 1.89 0 01-.33 1.42 1.91 1.91 0 01-1.22.8c-.64.11-.65.09-1.29.2s-.65.09-1.29.2a4.17 4.17 0 00-1.28.27c-.66.27-.77.62-1.31.25zM60.37 6.4c-1.32 0-1.49-.54-1.52-.7a.79.79 0 01.15-.59 1.47 1.47 0 011-.6 2.19 2.19 0 011.71.4c.44-.16.46-.27.58-.73a2.85 2.85 0 00-1.14-.57 3.48 3.48 0 00-1.29 0 2.42 2.42 0 00-1.64 1 1.72 1.72 0 00-.32 1.32A1.54 1.54 0 0058.84 7a3.57 3.57 0 001.5.34 3.66 3.66 0 011 .16 1 1 0 01.76.68.83.83 0 01-.17.59 1.51 1.51 0 01-1 .56 3.17 3.17 0 01-1.11-.07 2.7 2.7 0 01-1-.45c-.4.25-.48.28-.56.75a3.33 3.33 0 001.34.6 4 4 0 001.5.1h.07a2.42 2.42 0 001.55-.92A1.73 1.73 0 0063.06 8a1.76 1.76 0 00-1-1.27 4.33 4.33 0 00-1.69-.33zM16.9 39.29a6.41 6.41 0 00.92-.41 5.76 5.76 0 00.81-.65 7.26 7.26 0 00.69-.78 6.07 6.07 0 00.58-.85 7.23 7.23 0 00.42-1 5.87 5.87 0 00.17-1 5.86 5.86 0 00.09-1s.1 0 .1-.11a5.15 5.15 0 00-.15-1.18 5.66 5.66 0 00-.42-1.1 5.56 5.56 0 00-.57-1 5 5 0 00-.84-.82 6.42 6.42 0 00-.79-.61 6.18 6.18 0 00-.91-.41 6.21 6.21 0 00-1-.22 6.39 6.39 0 00-1-.15 6.51 6.51 0 00-1 .1c-.58.1-.59.06-1.17.16s-.57.14-1.15.24-.57.17-1.15.27-.59 0-1.17.13-.59.07-1.17.17v.07s-.05.07-.09.08-.12 0-.17 0l-.11.05a1 1 0 00-.13.09s0 .08-.06.11-.11 0-.15.05a.6.6 0 00-.08.08.58.58 0 00-.1.12.47.47 0 00-.06.09c0 .05-.07.09-.09.13s0 .09 0 .12a1.19 1.19 0 00-.08.16v.09c0 .03-.1.18-.1.28 0 .54.06.54.06 1.08v4.31c0 .54-.03.55-.03 1.09s.06.54.06 1.08v1.08c0 .54.08.54.08 1.08S7 40.85 7 41.39v1.08c0 .54.06.54.06 1.08v2.16c0 .54.07.55.07 1.09v1.09c0 .55-.13.54-.13 1.11a1.51 1.51 0 00.49 1 1.41 1.41 0 001 .38A1.46 1.46 0 009.57 50a1.53 1.53 0 00.43-1v-1.08c0-.54-.05-.55-.05-1.09v-1.08c0-.54.08-.55.08-1.09s-.07-.54-.07-1.08.04-.58.04-1.12-.08-.55-.08-1.1-.33-.68 0-1.11.51 0 1 0 .49-.08 1-.13l1-.09c.49-.05.54-.31 1-.05s.28.43.52.91.17.53.41 1 .32.44.56.93.15.53.39 1 .27.47.51.95.29.46.53.94.21.51.45 1 .23.49.47 1l.48 1c.24.49.23.49.48 1a1.51 1.51 0 001.33.85 1.45 1.45 0 00.65-.2 1.5 1.5 0 00.77-.82 1.56 1.56 0 00-.05-1.16c-.25-.5-.35-.45-.6-.95s-.24-.5-.49-1-.17-.53-.42-1-.22-.52-.46-1-.31-.47-.56-1-.19-.53-.44-1-.26-.5-.5-1a10.68 10.68 0 00-.5-1c-.34-.64-.45-.59-.55-1.14zM10 37.3c-.41-.36 0-.52 0-1.06v-3.3c0-.55-.36-.68 0-1.09s.54-.17 1.12-.27l1.14-.2c.58-.1.59 0 1.17-.11l1.14-.21a2.66 2.66 0 011.19 0 2.52 2.52 0 011 .58 2.53 2.53 0 01.68.82 2.45 2.45 0 01.19 1v.11a3.24 3.24 0 01-.12 1 3.13 3.13 0 01-1.21 1.62 3.37 3.37 0 01-.94.4 4.58 4.58 0 01-1 .24c-.55 0-.54.12-1.09.17s-.56 0-1.11 0-.59-.08-1.12.08-.62.59-1.04.22zm29.7 10.22h-1.08c-.54 0-.54-.06-1.09-.06h-2.16c-.54 0-.54.07-1.08.07s-.54-.12-1.09-.12h-1.08c-.54 0-.55.1-1.09.1s-.66.27-1-.13 0-.51 0-1.08-.09-.58-.09-1.15v-1.14c0-.57.14-.57.14-1.15s-.08-.5-.08-1.07-.1-.57-.1-1.14V39.5c0-.57-.28-.68.09-1.12s.5-.12 1-.17.54.06 1.06 0 .53-.14 1.06-.19.53 0 1.06 0l1.06-.11c.53 0 .53-.06 1.06-.12s.52-.14 1.06-.19.54.06 1.07 0a1.52 1.52 0 001-.6 1.47 1.47 0 00.39-1.06 1.56 1.56 0 00-.54-1 1.52 1.52 0 00-1.11-.31c-.51 0-.51.1-1 .15l-1 .09c-.51.05-.52 0-1 .05s-.51.1-1 .15-.51 0-1 0-.5.14-1 .19-.52-.07-1 0-.61.47-1 .12 0-.47 0-1v-1c0-.49-.06-.51-.06-1s.08-.51.08-1-.14-.51-.14-1 .05-.5.05-1-.33-.65 0-1 .56-.11 1.11-.21l1.11-.21c.56-.1.57 0 1.13-.13s.54-.17 1.09-.27.57 0 1.13-.11.55-.12 1.11-.22.56-.07 1.12-.17.55-.15 1.1-.25l1.01-.26a1.44 1.44 0 10-.5-2.83c-.56.1-.55.12-1.11.22s-.57.07-1.13.17-.57 0-1.13.11-.55.15-1.11.25l-1.12.21-1.13.19c-.56.1-.55.16-1.11.26s-.57.07-1.13.17-.58 0-1.15.09l-1.12.21v.07s-.09.08-.14.1-.13-.1-.16-.08 0 .14-.09.16-.1 0-.14 0a.75.75 0 00-.13.06s-.1 0-.14.06 0 .13 0 .16v.14a.87.87 0 00-.09.11s-.13 0-.15.08.08.12.06.17-.05.08-.06.13-.09.07-.1.11 0 .12 0 .17v1.09c0 .54.07.55.07 1.1v2.18c0 .54-.09.55-.09 1.1s.15.54.15 1.09v4.36c0 .55-.25.6-.25 1.14s.06.55.06 1.1v8.77a1.56 1.56 0 00.35 1.03 1.51 1.51 0 001.06.42c.56 0 .56-.09 1.12-.09s.56.13 1.12.13.56-.05 1.12-.05h1.13c.57 0 .56-.09 1.12-.09h3.37c.56 0 .56.07 1.12.07s.57.06 1.13.06a1.46 1.46 0 001-.53 1.41 1.41 0 00.49-1 1.58 1.58 0 00-.4-1.08 1.56 1.56 0 00-1.09-.32zm12.42-23a3.42 3.42 0 011.07.14 3.82 3.82 0 011 .47 3.43 3.43 0 011.31 1.75 3.41 3.41 0 01.12 1.12 1.46 1.46 0 00.44 1 1.51 1.51 0 001 .49 1.59 1.59 0 001.07-.46 1.49 1.49 0 00.42-1.03 7 7 0 000-1.13 6.46 6.46 0 00-.34-1.08 8 8 0 00-.4-1.06 7.43 7.43 0 00-.68-.91 7.51 7.51 0 00-.85-.74 7.38 7.38 0 00-.87-.72 7.46 7.46 0 00-1-.46 6.66 6.66 0 00-1.09-.26 8.47 8.47 0 00-2.25 0 6.69 6.69 0 00-1.07.35 7.31 7.31 0 00-1.05.39 6.07 6.07 0 00-.88.71 6 6 0 00-.82.77 5.4 5.4 0 00-.64.92 6 6 0 00-.51 1 6.49 6.49 0 00-.22 1.1 6.89 6.89 0 00-.27 1.12v4.25c0 .54.12.53.12 1.06v2.13c0 .53.06.54.06 1.07v1.07c0 .54-.13.53-.13 1.06s.1.53.1 1.07-.07.53-.07 1.07v2.14c0 .54-.08.54-.08 1.07a6.88 6.88 0 00.1 1.13 6.46 6.46 0 00.41 1.06 6.65 6.65 0 00.44 1 7.24 7.24 0 00.63.93A6.62 6.62 0 0048 49a6.18 6.18 0 001 .57 5.92 5.92 0 001 .58 5.82 5.82 0 003.35.27 6.42 6.42 0 001.08-.32 5.87 5.87 0 001-.55 5.9 5.9 0 001.82-1.32 6.8 6.8 0 00.63-1 7 7 0 00.39-1.06 6.33 6.33 0 00.37-1.06 6.09 6.09 0 000-1.13 1.35 1.35 0 00-.39-1 1.44 1.44 0 00-1-.49 1.4 1.4 0 00-1 .53 1.33 1.33 0 00-.47 1 3.39 3.39 0 01-.14 1.11 3.44 3.44 0 01-.51 1 3.64 3.64 0 01-.81.76 3.56 3.56 0 01-1 .43 3.38 3.38 0 01-1.06.2 3.65 3.65 0 01-1.1-.12 4 4 0 01-1-.47 4 4 0 01-.77-.81 3.6 3.6 0 01-.42-1 3.25 3.25 0 01-.3-1.12c0-.53-.06-.53-.06-1.06v-1.06c0-.53-.07-.53-.07-1.07v-1.06c0-.53-.07-.53-.07-1.06s.11-.54.11-1.07-.13-.53-.13-1.06.09-.54.09-1.07v-3.2c0-.53-.08-.53-.08-1.07v-1.07c0-.54.1-.53.1-1.07s-.07-.54-.07-1.07a3.45 3.45 0 01.14-1.12 3.35 3.35 0 01.54-1 3.62 3.62 0 01.86-.69 3.35 3.35 0 01.92-.63 3.7 3.7 0 011.17-.05zm26.32 1.36a5.25 5.25 0 000-1.11 6.83 6.83 0 00-.34-1.06 6.36 6.36 0 00-.46-1 8.31 8.31 0 00-.48-1 8.19 8.19 0 00-.65-.93 7.53 7.53 0 00-.84-.74 6.71 6.71 0 00-1-.66 8.69 8.69 0 00-1.06-.5 7.73 7.73 0 00-1.09-.42 8.51 8.51 0 00-1.17-.14 8.83 8.83 0 00-1.18-.09 11.15 11.15 0 00-1.16.22c-.61.11-.59.18-1.21.29s-.62.06-1.23.17-.62.06-1.23.17a1.37 1.37 0 00-.81.56 1.46 1.46 0 00-.46.9c0 .54.11.54.11 1.09s-.09.54-.09 1.09.09.54.09 1.09v1.09c0 .55-.18.55-.18 1.1s.08.55.08 1.09-.08.55-.08 1.1v1.09c0 .55.14.55.14 1.09v2.19c0 .55-.06.55-.06 1.09v1.09c0 .54.07.55.07 1.09s.06.55.06 1.09-.14.55-.14 1.1.09.54.09 1.09v2.19c0 .55-.17.55-.17 1.1s.09.54.09 1.09-.07.55-.07 1.09.08.55.08 1.1-.08.55-.08 1.1.13.55.13 1.1v1.1a1.51 1.51 0 00.34 1.09 1.71 1.71 0 002.16 0 1.6 1.6 0 00.47-1.07c0-.54-.08-.54-.08-1.08s.12-.55.12-1.09v-3.27c0-.54-.15-.56-.15-1.13v-3.27c0-.54.09-.55.09-1.1v-2.19c0-.55-.37-.75 0-1.15s.61-.06 1.17-.11.59.09 1.15 0 .6-.42 1.09-.13.23.43.4.93l.34 1c.17.5.16.51.34 1s.23.48.4 1 .2.49.38 1 .06.54.23 1 .21.49.38 1 .1.52.27 1 .33.44.51.94 0 .56.18 1.06.32.45.49.95.14.51.31 1 .07.53.25 1 .21.5.38 1 .2.5.37 1a1.38 1.38 0 00.61.63 1.28 1.28 0 001.28.29 1.64 1.64 0 00.88-1.88c-.18-.52-.14-.53-.32-1s-.21-.52-.39-1-.11-.54-.29-1.06-.2-.52-.38-1l-.36-1.05c-.18-.52-.27-.49-.45-1s-.12-.54-.31-1.07-.22-.5-.4-1-.19-.52-.37-1-.16-.53-.34-1-.11-.55-.29-1.08-.29-.48-.47-1-.1-.55-.29-1.08-.46-.48-.46-1a7.93 7.93 0 001-.53 6.12 6.12 0 001-.58 6.66 6.66 0 00.87-.7 7.41 7.41 0 00.77-.82 8.57 8.57 0 00.58-1 7.31 7.31 0 00.39-1.05 9 9 0 00.37-1.07 10.14 10.14 0 00.02-1.31 10.37 10.37 0 00.06-1.12zm-7.94 5.69c-.57.06-.58 0-1.15 0s-.57.1-1.14.16-.77.5-1.21.12.07-.62.07-1.18.06-.56.06-1.12V26.2c0-.56.07-.55.07-1.11v-1.12c0-.56.08-.56.08-1.12s-.46-.71-.08-1.13.6-.18 1.22-.28.62-.07 1.24-.18a8.53 8.53 0 011.11-.06 5.27 5.27 0 011.13 0 4.25 4.25 0 011 .48 4.71 4.71 0 011 .51 4.91 4.91 0 01.65.81 5.92 5.92 0 01.65.81 5.87 5.87 0 01.4 1 2.81 2.81 0 010 1 9.55 9.55 0 010 1.06 6.2 6.2 0 01-.28 1 5 5 0 01-.35 1 4.29 4.29 0 01-.5.95 4.34 4.34 0 01-.83.7 4.82 4.82 0 01-1 .46 6.46 6.46 0 01-1 .25 7.91 7.91 0 01-1.14.34zm26.35-17.9a1.34 1.34 0 00-1 .33 1.37 1.37 0 00-.37 1v1.09c0 .55-.13.54-.13 1.09v2.19c0 .55.07.54.07 1.09v1.09c0 .55-.16.55-.16 1.09s.08.55.08 1.1.11.54.11 1.09v1.09c0 .54-.15.55-.15 1.1s.11.54.11 1.09v1.09c0 .54-.07.55-.07 1.09s.18.55.18 1.09-.07.55-.07 1.1v1.09c0 .55-.08.55-.08 1.09s.13.55.13 1.1-.09.55-.09 1.1.06.54.06 1.09.07.55.07 1.1v2.19c0 .55-.08.55-.08 1.11v1.1a4 4 0 01-.07 1.05 4.24 4.24 0 01-.48.95 4.41 4.41 0 01-.55.91 4.2 4.2 0 01-.93.52 3.91 3.91 0 01-.94.46 4 4 0 01-1 .12 2.54 2.54 0 01-2-.61 2.8 2.8 0 01-1.61-1.34 3.89 3.89 0 01-.31-1 4 4 0 01-.14-1V40.2c0-.55-.09-.55-.09-1.1v-2.21c0-.55.09-.55.09-1.1v-2.21c0-.55-.13-.55-.13-1.11s.18-.55.18-1.1-.07-.55-.07-1.1-.08-.55-.08-1.1.14-.55.14-1.1-.12-.56-.12-1.11.1-.55.1-1.1-.07-.55-.07-1.11.13-.55.13-1.1v-1.11c0-.55-.09-.55-.09-1.1s.06-.56.06-1.11V17a1.56 1.56 0 00-.47-1.08 1.46 1.46 0 00-1.08-.32 1.43 1.43 0 00-1 .35 1.51 1.51 0 00-.45 1v1.1c0 .55.13.55.13 1.1v1.11c0 .55-.11.55-.11 1.1v1.1c0 .55.1.55.1 1.1s-.1.56-.1 1.11.21.55.21 1.1-.06.55-.06 1.1v1.11c0 .55-.06.55-.06 1.1v1.1c0 .55-.09.55-.09 1.1s.18.56.18 1.11-.09.55-.09 1.1v1.1c0 .56.06.56.06 1.11s-.13.55-.13 1.11v1.1c0 .55.14.55.14 1.11s-.17.55-.17 1.1.08.56.08 1.11.09.56.09 1.12-.07.55-.07 1.11a6.86 6.86 0 000 1.1 7.66 7.66 0 00.33 1.06 8 8 0 00.47 1 7.29 7.29 0 00.56.94 7 7 0 00.77.77 6.13 6.13 0 00.78.75 6 6 0 00.89.63 7.56 7.56 0 001.06.3 7.31 7.31 0 001 .34 7.9 7.9 0 001.09 0 6.92 6.92 0 001.1.07 5.37 5.37 0 001-.34 6.39 6.39 0 001-.47 5.83 5.83 0 00.93-.55 6.13 6.13 0 00.81-.72 6.31 6.31 0 00.78-.77 6.38 6.38 0 00.51-1 6.81 6.81 0 00.35-1 7.74 7.74 0 00.31-1 6.48 6.48 0 00.11-1.08c0-.55.06-.55.06-1.09s-.13-.55-.13-1.09.2-.55.2-1.1-.17-.54-.17-1.09.17-.55.17-1.09v-1.09c0-.54-.1-.55-.1-1.1s.08-.54.08-1.09-.09-.55-.09-1.09.13-.55.13-1.1-.15-.54-.15-1.09v-2.19c0-.55.12-.54.12-1.09V27.1c0-.55-.1-.54-.1-1.09s-.07-.55-.07-1.1.16-.54.16-1.09-.08-.55-.08-1.1.05-.54.05-1.09-.09-.55-.09-1.1.1-.54.1-1.09-.15-.55-.15-1.1v-1.1c0-.55.13-.55.13-1.1s-.13-.55-.13-1.1a1.26 1.26 0 00-.41-1 1.24 1.24 0 00-1.12-.37zm10.15-1.9a1.43 1.43 0 00-1 .46 1.45 1.45 0 00-.48 1v5.4c0 .54-.06.54-.06 1.08s.15.54.15 1.08-.12.54-.12 1.08.08.54.08 1.08-.16.54-.16 1.08.11.54.11 1.08-.08.55-.08 1.09v2.16c0 .54.06.54.06 1.08v1.09c0 .55-.05.54-.05 1.08s.13.54.13 1.08-.13.54-.13 1.09.07.54.07 1.08v3.24c0 .54-.06.54-.06 1.08v1.09c0 .55.13.54.13 1.08s-.11.54-.11 1.09v2.16c0 .54.05.55.05 1.09s.08.55.08 1.09-.19.55-.19 1.09.16.55.16 1.09a1.22 1.22 0 001.42 1.47 1.35 1.35 0 001-.49 1.45 1.45 0 00.57-1v-2.15c0-.54-.12-.54-.12-1.08s.13-.55.13-1.09-.07-.54-.07-1.08.14-.54.14-1.08v-1.08c0-.54-.09-.54-.09-1.08v-2.16c0-.54-.07-.54-.07-1.09v-1.08c0-.54.16-.54.16-1.08s-.15-.54-.15-1.08v-1.08c0-.54-.06-.54-.06-1.09s.18-.54.18-1.08-.18-.54-.18-1.08.21-.54.21-1.09-.13-.54-.13-1.08v-1.07c0-.53.14-.54.14-1.08s-.06-.55-.06-1.09V21.9c0-.55.06-.54.06-1.08v-1.09c0-.55-.16-.54-.16-1.08v-2.14c0-.54.16-.55.16-1.09v-1.09c0-.54-.13-.55-.13-1.09a1.52 1.52 0 00-.34-1.1 1.53 1.53 0 00-1.19-.37zM128.78 8c-.54.1-.56 0-1.1.07s-.53.13-1.07.23-.53.16-1.07.26-.53.12-1.08.21-.57-.09-1.11 0-.52.22-1.06.32-.56 0-1.1.08-.53.19-1.07.29-.55 0-1.1.1-.53.16-1.06.25-.53.21-1.07.3l-1.09.19c-.54.1-.57-.06-1.12 0l-1.08.21a1.41 1.41 0 00-.86.71 1.29 1.29 0 00-.25 1 1.63 1.63 0 00.35 1 1.67 1.67 0 001 .24c.08 0 .16-.07.24-.09.59-.1.58-.13 1.17-.24l1.16-.22c.59-.1.62.06 1.2 0l1.18-.22c.58-.1.67-.57 1.15-.22s.11.52.11 1.05v2.15c0 .54-.13.53-.13 1.07s.07.54.07 1.07.09.54.09 1.08-.07.53-.07 1.07-.08.53-.08 1.07.12.54.12 1.07-.16.54-.16 1.07.13.54.13 1.08.06.54.06 1.07v3.22c0 .54-.17.54-.17 1.08s.09.54.09 1.07.11.54.11 1.08v1.07c0 .53.07.54.07 1.08s-.18.52-.18 1.08-.08.54-.08 1.07v2.15c0 .54.19.54.19 1.08v2.15c0 .54.14.54.14 1.08s-.24.53-.24 1.07.18.54.18 1.08v1.08c0 .54-.18.54-.18 1.08s.13.54.13 1.08.12.54.12 1.08a1.09 1.09 0 001.34 1.36 1.25 1.25 0 001-.41 1.41 1.41 0 00.56-1v-2.17c0-.55.08-.54.08-1.08s-.19-.55-.19-1.09.07-.55.07-1.09.07-.55.07-1.09v-2.15c0-.55-.11-.55-.11-1.09s.05-.54.05-1.09V37c0-.54.15-.54.15-1.09s-.09-.54-.09-1.09v-1.08c0-.54-.17-.55-.17-1.09s.22-.55.22-1.09v-1.09c0-.54-.17-.55-.17-1.09s.06-.55.06-1.09V27.2c0-.54-.06-.55-.06-1.09s.13-.54.13-1.09-.12-.54-.12-1.08.05-.55.05-1.1v-2.18c0-.55-.1-.54-.1-1.09s.05-.55.05-1.09.06-.55.06-1.1-.11-.54-.11-1.08.17-.55.17-1.1-.1-.55-.1-1.09V13c0-.55-.37-.71 0-1.13s.58 0 1.11-.07.5-.27 1-.36.53-.13 1.06-.22l1.06-.19c.53-.09.54-.06 1.07-.16s.54 0 1.08-.13a1.45 1.45 0 001-.55 1.4 1.4 0 00.11-1.09c-.08-.4-.13-.85-.43-1.06a1.55 1.55 0 00-1.38-.04zm18.41 39.54c-.53 0-.53-.1-1.06-.1s-.53.14-1.06.14-.53-.11-1.06-.11h-2.13c-.53 0-.53.16-1.06.16s-.54-.11-1.07-.11h-1.07c-.54 0-.7.37-1.07 0s0-.54 0-1.09v-1.08c0-.54-.11-.54-.11-1.08s.07-.55.07-1.09-.06-.54-.06-1.08.07-.54.07-1.08-.06-.54-.06-1.08.06-.54.06-1.09v-1.09c0-.54.11-.54.11-1.09s-.12-.54-.12-1.08-.14-.55-.14-1.09v-4.35c0-.55.16-.55.16-1.09s-.37-.61 0-1 .43-.2.95-.25.53.09 1.05 0 .5-.19 1-.24.54.11 1 .06.51-.13 1-.18.52 0 1-.08l1-.09c.52-.05.51-.14 1-.19a1.38 1.38 0 001-.5 1.3 1.3 0 00.23-1 1.44 1.44 0 00-.37-1 1.56 1.56 0 00-1.1-.31c-.58.06-.56.17-1.14.23s-.58-.07-1.15 0-.57.15-1.14.2-.58 0-1.16 0-.56.12-1.14.18-.57.09-1.14.15-.64.31-1.08-.07-.13-.47-.13-1-.05-.56-.05-1.11.1-.56.1-1.12V19.5c0-.56-.05-.56-.05-1.12s-.08-.56-.08-1.13.18-.56.18-1.12.06-.56.06-1.12v-3.37c0-.56-.15-.57-.15-1.13s-.25-.66.11-1.09.49-.23 1-.33.58.12 1.13 0 .51-.3 1.06-.39.57.08 1.12 0 .53-.18 1.07-.27.56 0 1.11-.14.55-.08 1.09-.17.54-.16 1.09-.25.57 0 1.11-.12a1.7 1.7 0 001-.64 1.62 1.62 0 00.17-1.16A1.49 1.49 0 00148 5a1.41 1.41 0 00-1-.25c-.55.1-.57 0-1.12.1s-.55.12-1.1.21-.53.2-1.08.29-.57 0-1.12.13-.56.07-1.11.16-.53.22-1.08.31-.58 0-1.13 0-.56 0-1.12.14-.52.29-1.07.39-.55.15-1.11.24a1 1 0 000-.16c-.05 0-.06.19-.11.21s-.1 0-.13 0-.05.1-.09.12-.12 0-.16 0l-.1.08s-.19-.06-.22 0 0 .12 0 .15v.31c0 .04-.11 0-.13.08s-.17 0-.18.08.19.16.18.21-.07.06-.07.1v.16c0 .54-.11.54-.11 1.08s.07.53.07 1.07v1.07c0 .54-.06.53-.06 1.07s.09.53.09 1.07-.15.54-.15 1.07.08.54.08 1.08.09.53.09 1.07-.14.54-.14 1.08.1.54.1 1.07-.07.54-.07 1.08V21c0 .54.09.54.09 1.07s-.18.54-.18 1.08.09.54.09 1.07-.07.54-.07 1.08v1.08c0 .54.21.53.21 1.07s-.1.54-.1 1.08.11.54.11 1.07-.12.54-.12 1.08.1.54.1 1.08-.18.54-.18 1.07v1.08c0 .54.2.54.2 1.08s-.2.53-.2 1.07v2.15c0 .54.05.54.05 1.08s-.11.54-.11 1.08v3.23c0 .54.11.54.11 1.08s-.08.54-.08 1.08.08.54.08 1.08-.12.55-.12 1.09v1.08a1.48 1.48 0 00.53 1 1.33 1.33 0 001 .38c.56 0 .56.2 1.11.2h1.1c.55 0 .55-.1 1.1-.1s.55-.11 1.1-.11.56.23 1.11.23.55-.23 1.1-.23.55.24 1.11.24.55-.09 1.1-.09.56-.06 1.11-.06.56-.1 1.11-.1.86 0 1.13-.22a1.62 1.62 0 00.25-1.13 1.49 1.49 0 00-.29-1.09 1.54 1.54 0 00-1.21-.39z" fill="#00cde5" data-name="レイヤー 2"/></svg>