<svg xmlns="http://www.w3.org/2000/svg" viewBox="0 0 196.32 66.76"><path d="M9.23 28.09a.6.6 0 01-.45-.21c-.45-.52-.66-.79-.87-1.06s-.41-.51-.83-1l-.88-1c-.23-.25-.45-.5-.89-1s-.66-.8-.87-1.08-.39-.51-.82-1l-1.75-2c-.45-.51-.66-.77-.87-1s-.42-.51-.85-1a.59.59 0 01.06-.84.59.59 0 01.84.06c.45.51.66.77.87 1s.42.51.85 1l1.76 2c.45.52.66.8.87 1.07s.39.52.81 1l.88 1L8 25c.45.51.66.78.87 1s.41.52.83 1a.59.59 0 01-.06.84.58.58 0 01-.41.25zM90.74 13.7a.54.54 0 01-.22 0 .59.59 0 01-.34-.77c.23-.61.32-.92.41-1.23s.2-.66.45-1.31.35-.93.46-1.24l.5-1.31a9.52 9.52 0 01.58-1.28 11 11 0 00.53-1.16 9.87 9.87 0 00.38-1.21 9.15 9.15 0 01.42-1.34c.25-.65.4-1 .55-1.28S94.72 1 95 .39a.6.6 0 01.72-.39.61.61 0 01.35.78c-.25.64-.4 1-.55 1.27s-.28.58-.51 1.18a9.2 9.2 0 00-.38 1.21 10 10 0 01-.43 1.35 9.52 9.52 0 01-.58 1.28 8.87 8.87 0 00-.52 1.16c-.24.62-.36.94-.47 1.25s-.23.63-.47 1.26-.33.91-.42 1.22-.2.67-.44 1.32a.6.6 0 01-.56.42zm-18.29-.94c-.84.17-.43-.69-.83-1.45l-.8-1.52c-.4-.76-.36-.79-.76-1.55s-.45-.74-.83-1.51v-.12c-.63.06-.83-.23-1.21.27-.53.69-.15.84-.27 1.7s-.11.87-.23 1.73-.17.86-.3 1.73.65 1.58-.21 1.74-.43-.77-.84-1.54-.36-.8-.77-1.57-.48-.73-.89-1.5 0-1.13-.77-1.6c-.53-.34-1.11-.36-1.24.26-.19.9.39.82.82 1.64s.48.78.91 1.6.38.84.81 1.66.44.81.87 1.63.12 1.08.88 1.6c.51.35.79.28 1.15-.21.53-.71.14-.85.26-1.72s.11-.88.23-1.75.17-.87.29-1.75-.65-1.58.22-1.74.36.79.77 1.57l.83 1.56c.41.78.43.77.84 1.55s.09 1.1.83 1.59a.77.77 0 001.22-.25c.53-.75.11-.91.23-1.82s.1-.92.22-1.83.17-.91.29-1.82.16-.91.29-1.83.68-1 .2-1.82c-.33-.54-.86-.31-1.24.19-.53.69-.15.87-.28 1.73s-.06.87-.18 1.74-.36.86-.27 1.73.61 1.51-.24 1.68zm-23.1 4.31c-.79.4-.67-.61-1.34-1.18s-.7-.54-1.37-1.11-.64-.61-1.32-1.18L44 12.45c-.68-.57-.54-.83-1.37-1.13-.59-.21-1-.35-1.27.21-.37.79.2.88.35 1.74s.16.87.31 1.73.11.87.27 1.74.16.86.31 1.73-.31 1.12.31 1.74a.72.72 0 001.23-.21c.37-.76-.13-.84-.28-1.67s-.15-.84-.29-1.68-.21-.83-.35-1.66-1-1.32-.28-1.71.71.57 1.38 1.14.65.59 1.32 1.16.66.6 1.33 1.17l1.35 1.14c.67.58.52.86 1.35 1.16.59.21 1 .33 1.26-.23.38-.8-.15-.88-.3-1.75s-.2-.85-.36-1.71-.1-.88-.25-1.74-.18-.86-.33-1.73.35-1.14-.28-1.76c-.44-.44-.95-.3-1.22.26-.38.76.09.82.24 1.66s.2.82.35 1.66-.11.92.24 1.69 1.09 1.28.33 1.67zm-20.78-5.83c-.5.71.23.88.39 1.74s.13.87.29 1.73.11.86.27 1.73.13.86.28 1.73-.37 1.2.35 1.69.86-.08 1.74-.23.87-.19 1.74-.34.86-.21 1.73-.37.89-.08 1.77-.23l1.75-.31c.87-.15 1.13.3 1.76-.33a.69.69 0 00-.24-1.22c-.86-.38-.92.13-1.85.29s-.93.14-1.85.3-.92.18-1.85.34-.92.22-1.85.38-1.14.92-1.83.28c-.92-.85-1-1.3-.42-2.41.43-.84.89-.17 1.82-.33s.91-.22 1.83-.38.94-.13 1.86-.29l1.86-.34c.93-.16 1.18.34 1.86-.31a.7.7 0 00-.22-1.24c-.86-.37-.92.22-1.84.38s-.93.15-1.85.32l-1.86.33-1.85.33c-.93.16-1.19.93-1.87.29a1.7 1.7 0 01-.44-2.5c.42-.84.93-.17 1.86-.34s.91-.19 1.84-.35.94-.07 1.87-.24.92-.21 1.84-.37 1.18.32 1.86-.33c.45-.42.33-.92-.23-1.19-.8-.37-.86.1-1.74.25l-1.75.3c-.87.15-.86.21-1.73.36l-1.75.31a5.59 5.59 0 01-1.75.26c-.97-.04-1.28-.41-1.8.31zm23.06 1.03c-.51.71.18.89.34 1.75s.14.86.3 1.72.14.86.3 1.72.12.87.28 1.74-.39 1.22.33 1.72.87-.18 1.75-.34l1.75-.29c.87-.15.87-.13 1.75-.28s.88-.13 1.75-.29.87-.2 1.74-.35 1.16.36 1.79-.27a.73.73 0 00-.25-1.26c-.86-.38-.92.19-1.85.35s-.93.13-1.85.3-.92.18-1.85.34l-1.85.33c-.93.16-1.2 1-1.89.34a1.71 1.71 0 01-.44-2.5c.43-.84 1-.17 1.88-.33s.93-.15 1.85-.32.94-.11 1.86-.27l1.86-.32c.93-.17 1.19.3 1.88-.34a.74.74 0 00-.24-1.28c-.86-.38-.93.19-1.86.35s-.93.13-1.85.29l-1.86.33c-.92.16-.92.18-1.85.34s-1.18 1-1.87.36c-.92-.87-.94-1.36-.38-2.48.42-.84.88-.21 1.81-.37s.93-.12 1.85-.28l1.86-.33c.92-.16.92-.19 1.85-.35s1.2.35 1.88-.3a.74.74 0 00-.23-1.28c-.8-.38-.88.19-1.76.35s-.87.18-1.74.33l-1.74.31-1.75.31a5.43 5.43 0 01-1.76.3c-.97-.02-1.27-.47-1.79.25zM27.38 15.3a3.69 3.69 0 00-4.3-3.05c-.81.14-.81.09-1.62.23s-.78.22-1.58.36-.81.11-1.61.25-.8.18-1.6.33-1.18-.45-1.6.25.15.91.31 1.84.18.92.34 1.84.13.93.3 1.86.13.93.29 1.85.22.92.38 1.85-.34 1.18.31 1.86a.71.71 0 001.25-.22c.38-.86-.13-.94-.29-1.87s-.84-1-.37-1.84.76-.18 1.54-.31.79-.08 1.57-.22.78-.12 1.56-.26.77-.48 1.53-.26.61.49 1.2 1 .58.56 1.17 1.09.46.81 1.23 1 1.33.49 1.52-.28-.53-.58-1.15-1.13l-1.23-1.09c-.62-.55-.83-.36-1.22-1.09a3.34 3.34 0 001.23-1 3.59 3.59 0 00.82-1.41 3.58 3.58 0 00.02-1.58zm-10 4.35c-.69-.47-.16-.86-.3-1.68s-.12-.83-.27-1.65-.77-1-.28-1.66.85-.14 1.7-.29.86-.11 1.71-.26.83-.22 1.68-.37.86-.12 1.71-.27a2.55 2.55 0 011.9.38 2.6 2.6 0 011 1.65 2.59 2.59 0 01-2 2.93c-.85.15-.86.11-1.7.26s-.86.12-1.71.27a5.37 5.37 0 00-1.69.36c-.92.35-1.07.81-1.79.33zm62.31-11.2c-1.75-.06-2-.72-2-.92a1.08 1.08 0 01.21-.79A2 2 0 0179.21 6a2.87 2.87 0 012.26.53c.58-.22.61-.37.76-1a3.73 3.73 0 00-1.5-.75 4.65 4.65 0 00-1.71 0A3.23 3.23 0 0076.86 6a2.27 2.27 0 00-.42 1.74 2 2 0 001.23 1.51 5 5 0 002 .44 5.19 5.19 0 011.33.22 1.32 1.32 0 011 .9 1 1 0 01-.22.78 1.94 1.94 0 01-1.32.73 3.82 3.82 0 01-1.46-.09 3.39 3.39 0 01-1.34-.59c-.53.33-.63.38-.74 1a4.54 4.54 0 001.77.8 5.23 5.23 0 002 .13h.09a3.21 3.21 0 002.06-1.21 2.32 2.32 0 00.42-1.73 2.29 2.29 0 00-1.37-1.67 5.48 5.48 0 00-2.2-.51zM22.31 51.86a7.8 7.8 0 001.21-.54 7.6 7.6 0 001.07-.86 7.91 7.91 0 00.91-1 8.27 8.27 0 00.76-1.13 8.69 8.69 0 00.56-1.25 8.86 8.86 0 00.23-1.35 8.67 8.67 0 00.12-1.34c0-.08.12-.08.12-.15a7.3 7.3 0 00-.18-1.55 7.62 7.62 0 00-.57-1.46 7.57 7.57 0 00-.74-1.37 8.26 8.26 0 00-1.12-1.09 7.71 7.71 0 00-1-.79 6.83 6.83 0 00-1.2-.55 7.91 7.91 0 00-1.28-.29 7.06 7.06 0 00-1.3-.11 7.34 7.34 0 00-1.31.12c-.76.13-.77.08-1.53.22s-.76.18-1.52.31-.75.22-1.52.36-.78 0-1.55.16-.77.1-1.54.24v.08s-.08.1-.12.11-.16 0-.23 0l-.14.06a1.77 1.77 0 00-.17.12s0 .11-.08.14-.15 0-.2.07l-.11.11-.13.15-.08.13a1.77 1.77 0 00-.12.17v.16a1.36 1.36 0 00-.1.21v.12c0 .04-.13.24-.13.36 0 .72.08.72.08 1.43v4.27c0 .71-.05.71-.05 1.43s-.08.71-.08 1.42.08.71.08 1.43-.06.71-.06 1.42.11.71.11 1.42-.12.72-.12 1.43v1.42c0 .71.07.72.07 1.43s-.06.71-.06 1.43v1.42c0 .71.09.72.09 1.43v2.87a2 2 0 00.5 1.32 1.86 1.86 0 001.36.5 1.9 1.9 0 001.39-.5 2 2 0 00.62-1.39c0-.72-.07-.72-.07-1.44s-.06-.71-.06-1.43v-1.43c0-.71.11-.72.11-1.44s-.1-.72-.1-1.43.13-.72.13-1.44-.11-.72-.11-1.44-.43-.91 0-1.46.67 0 1.32-.06.64-.11 1.28-.17l1.3-.12c.64-.07.7-.41 1.26-.07s.37.57.69 1.21.22.69.53 1.33.43.58.75 1.22.19.71.51 1.35.35.62.67 1.26.39.6.71 1.25.27.66.59 1.3.3.65.61 1.3l.63 1.32c.32.65.31.65.63 1.3a2 2 0 001.76 1.11 1.91 1.91 0 00.85-.26 1.94 1.94 0 001-1.09 2 2 0 00-.06-1.52c-.33-.66-.47-.6-.79-1.26s-.32-.66-.65-1.32-.23-.71-.56-1.37-.28-.68-.61-1.35-.4-.62-.73-1.28-.26-.7-.58-1.36l-.67-1.32a12.74 12.74 0 00-.59-1.34c-.41-.64-.58-.57-.69-1.3zm-9.1-2.62c-.54-.49 0-.69 0-1.41v-1.45c0-.72-.05-.72-.05-1.45v-1.45c0-.72-.48-.89 0-1.44s.73-.22 1.48-.36l1.52-.26c.75-.13.78 0 1.53-.14s.76-.15 1.51-.28a3.78 3.78 0 011.57 0 3.48 3.48 0 011.36.77 3.23 3.23 0 01.9 1.09 3.17 3.17 0 01.25 1.38v.15a4.38 4.38 0 01-.15 1.34 4 4 0 01-.62 1.21 4.16 4.16 0 01-1 .93 4.68 4.68 0 01-1.24.53 6.23 6.23 0 01-1.32.31c-.73.07-.72.16-1.44.23s-.74 0-1.47 0-.78-.11-1.48.11-.8.68-1.35.19zM52.4 62.73h-1.42c-.71 0-.72-.07-1.43-.07h-1.43c-.72 0-.72.07-1.43.07s-.72.1-1.44.1-.71-.16-1.43-.16h-1.43c-.72 0-.72.14-1.44.14s-.86.35-1.35-.17 0-.68 0-1.44-.11-.75-.11-1.5-.06-.76-.06-1.51.18-.76.18-1.52-.08-.75-.08-1.51-.12-.75-.12-1.51v-1.51c0-.75-.36-.9.13-1.48s.64-.15 1.34-.22.72.08 1.41 0 .69-.18 1.39-.25.71 0 1.41 0 .7-.08 1.4-.14.7-.09 1.4-.16.69-.18 1.39-.25.72.08 1.42 0a2 2 0 001.3-.81 2 2 0 00.51-1.4 2 2 0 00-.71-1.36 2 2 0 00-1.46-.41c-.68.07-.67.13-1.35.19l-1.34.15h-1.36c-.71 0-.67.13-1.35.2s-.68 0-1.35.07-.67.18-1.35.24-.69-.08-1.37 0-.8.62-1.32.17 0-.63 0-1.3v-1.33c0-.67-.09-.67-.09-1.34s.11-.66.11-1.33-.19-.67-.19-1.34.07-.67.07-1.34-.44-.85 0-1.35.74-.15 1.47-.28l1.46-.27c.74-.13.75 0 1.48-.18s.72-.22 1.45-.35.76 0 1.49-.15.73-.15 1.47-.28.74-.11 1.47-.24.73-.19 1.46-.32l1.48-.25a1.83 1.83 0 001.17-.86 1.86 1.86 0 00.41-1.39 1.91 1.91 0 00-.83-1.21 1.82 1.82 0 00-1.41-.28c-.74.13-.74.16-1.47.29s-.75.09-1.49.22-.76 0-1.5.15-.73.2-1.47.33-.73.15-1.47.28l-1.49.25c-.74.13-.72.21-1.47.34s-.74.1-1.49.23-.77 0-1.51.11l-1.48.28v.1s-.12.1-.2.13-.16-.13-.2-.11-.07.18-.13.22-.13 0-.18 0a.83.83 0 00-.16.09s-.14 0-.19.08 0 .16-.05.21 0 .13-.06.18-.09.08-.12.14-.17 0-.19.11.09.16.08.22a.65.65 0 00-.08.17c0 .06-.12.09-.13.15a1.55 1.55 0 00-.06.23v1.44c0 .72.09.73.09 1.45v2.88c0 .72-.13.72-.13 1.44s.2.73.2 1.45v5.84c0 .72-.1.72-.1 1.44s.08.72.08 1.44v4.34c0 .73-.07.72-.07 1.44v1.45c0 .72-.07.72-.07 1.45v2.9a2.07 2.07 0 00.63 1.4 2 2 0 001.4.55c.73 0 .73-.12 1.47-.12s.74.17 1.48.17.74-.07 1.48-.07h1.48c.74 0 .74-.12 1.48-.12h4.45c.74 0 .74.09 1.49.09s.74.08 1.48.08a1.92 1.92 0 001.31-.7 1.86 1.86 0 00.65-1.3 2 2 0 00-.53-1.43 2 2 0 00-1.38-.47zm16.39-30.36a4.53 4.53 0 011.43.19 4.39 4.39 0 011.31.62 4.79 4.79 0 011 1 4.48 4.48 0 01.68 1.3 4.62 4.62 0 01.16 1.45 2 2 0 00.63 1.4 2 2 0 001.38.64 2.1 2.1 0 001.42-.61 2 2 0 00.48-1.42 8.19 8.19 0 000-1.49 7.82 7.82 0 00-.5-1.45 8 8 0 00-.53-1.39 8.17 8.17 0 00-.9-1.2 9.46 9.46 0 00-1.11-1 9.53 9.53 0 00-1.16-.94 7.94 7.94 0 00-1.36-.61 8.53 8.53 0 00-1.45-.35 9 9 0 00-1.48-.1 8.07 8.07 0 00-1.48.09 8.61 8.61 0 00-1.41.5 8 8 0 00-1.39.52 8.68 8.68 0 00-1.17.93 8.61 8.61 0 00-1.08 1 9.49 9.49 0 00-.85 1.22 9.2 9.2 0 00-.67 1.33 7.85 7.85 0 00-.28 1.46 8.08 8.08 0 00-.26 1.47v5.63c0 .71.17.7.17 1.41s-.06.7-.06 1.4v1.4c0 .7.07.71.07 1.41s.06.7.06 1.41-.17.7-.17 1.4.13.71.13 1.41-.09.71-.09 1.41v2.83c0 .71-.1.7-.1 1.41a8.18 8.18 0 00.14 1.49 7.55 7.55 0 00.54 1.39 8.18 8.18 0 00.58 1.36 9.39 9.39 0 00.82 1.23 8.78 8.78 0 001 1.09 8.58 8.58 0 001.28.75 8.36 8.36 0 001.28.77 8.63 8.63 0 001.46.34 6.39 6.39 0 003 0 7.76 7.76 0 001.42-.43 8.25 8.25 0 001.3-.72 9.42 9.42 0 001.27-.75 8.9 8.9 0 001.13-1 7.92 7.92 0 00.82-1.25 8.38 8.38 0 00.52-1.4 8.64 8.64 0 00.5-1.4 9.26 9.26 0 000-1.49 1.82 1.82 0 00-.52-1.34 2 2 0 00-1.34-.65 1.9 1.9 0 00-1.29.7 1.78 1.78 0 00-.61 1.29 4.68 4.68 0 01-.19 1.46 4.8 4.8 0 01-.68 1.31 5.13 5.13 0 01-1.07 1 4.67 4.67 0 01-1.34.55 4.41 4.41 0 01-1.41.27 4.55 4.55 0 01-1.44-.16 4.76 4.76 0 01-1.38-.58 4.71 4.71 0 01-1-1.07 4.42 4.42 0 01-.56-1.34 4.37 4.37 0 01-.2-1.41c0-.71-.08-.71-.08-1.41s.08-.7.08-1.4-.1-.71-.1-1.41v-1.41c0-.71-.09-.7-.09-1.4s.14-.71.14-1.41-.16-.7-.16-1.4.12-.71.12-1.41v-4.22c0-.71-.11-.71-.11-1.41v-1.41c0-.7.13-.71.13-1.42s-.09-.7-.09-1.41a4.75 4.75 0 01.18-1.47 4.83 4.83 0 01.71-1.3 4.77 4.77 0 011.14-.9 4.53 4.53 0 011.21-.84 4.71 4.71 0 011.47-.06zm34.75 1.79a7.28 7.28 0 00-.05-1.46 9.43 9.43 0 00-.45-1.4 9.72 9.72 0 00-.61-1.32 9.51 9.51 0 00-.64-1.33 10.9 10.9 0 00-.84-1.21 11.69 11.69 0 00-1.11-1 9.5 9.5 0 00-1.28-.87 9.09 9.09 0 00-1.4-.65 8.46 8.46 0 00-1.44-.56 12 12 0 00-1.54-.19 11 11 0 00-1.55-.11 11.37 11.37 0 00-1.53.29c-.81.14-.79.23-1.6.37s-.82.09-1.63.23-.82.08-1.62.22a1.86 1.86 0 00-1.07.74 1.94 1.94 0 00-.61 1.19c0 .72.15.72.15 1.44s-.12.72-.12 1.44.12.72.12 1.44v1.44c0 .72-.2.72-.2 1.44s.11.72.11 1.44-.11.72-.11 1.44v1.45c0 .72.19.72.19 1.44v1.44c0 .72-.05.72-.05 1.45s-.08.72-.08 1.44v1.44c0 .72.09.73.09 1.45s.07.72.07 1.44-.17.72-.17 1.45.11.72.11 1.44.06.72.06 1.44v1.45c0 .73-.23.72-.23 1.44s.12.72.12 1.44-.09.73-.09 1.45.1.72.1 1.45-.1.72-.1 1.45.17.72.17 1.45v1.45a2 2 0 00.45 1.43 2 2 0 001.43.5 2 2 0 001.41-.51 2.06 2.06 0 00.59-1.41c0-.72-.12-.72-.12-1.44s.17-.72.17-1.45v-1.44c0-.72-.06-.72-.06-1.43v-1.44c0-.72-.12-.72-.12-1.45s.06-.72.06-1.44v-1.44c0-.72-.15-.72-.15-1.44s.12-.72.12-1.44v-1.45c0-.72-.07-.72-.07-1.45s-.49-1 0-1.51.81-.08 1.55-.15.77.12 1.52 0 .79-.56 1.43-.17.31.56.53 1.22.22.66.45 1.32.22.66.45 1.32.3.64.53 1.3.27.64.5 1.3.08.71.31 1.37.27.65.5 1.3.13.7.36 1.36.43.59.66 1.25 0 .74.24 1.4.43.59.66 1.25.17.68.4 1.34.1.71.33 1.37.27.65.5 1.31.26.66.49 1.32a1.81 1.81 0 00.8.84 1.84 1.84 0 001 .45 2.06 2.06 0 00.65-.07 1.91 1.91 0 001-1.05 1.84 1.84 0 00.13-1.44c-.24-.69-.18-.71-.42-1.4s-.28-.67-.52-1.36-.14-.73-.38-1.42-.26-.68-.5-1.37l-.48-1.37c-.24-.69-.36-.65-.6-1.34s-.16-.72-.4-1.41-.29-.67-.53-1.36l-.48-1.38c-.24-.69-.21-.7-.45-1.39s-.15-.72-.39-1.41-.38-.64-.62-1.33-.13-.73-.37-1.43-.61-.63-.61-1.36a11.35 11.35 0 001.49-.64 9.36 9.36 0 001.26-.76 8.66 8.66 0 001.15-.93 9.45 9.45 0 001-1.08 9.59 9.59 0 00.76-1.28 12.08 12.08 0 00.52-1.39 12.32 12.32 0 00.49-1.41c.09-.48.06-1 .11-1.49a14.21 14.21 0 00.1-1.5zm-10.48 7.52c-.76.07-.77 0-1.52 0s-.75.14-1.51.21-1 .66-1.59.16.09-.81.09-1.55.09-.74.09-1.47-.07-.74-.07-1.48V34.6c0-.74.1-.73.1-1.47s-.06-.74-.06-1.48.1-.74.1-1.48-.61-.94-.11-1.48.8-.24 1.61-.38.83-.08 1.64-.23a9.37 9.37 0 011.41-.08 7.25 7.25 0 011.48 0 6.11 6.11 0 011.34.64 6.26 6.26 0 011.31.68 6.62 6.62 0 01.87 1.06 8.2 8.2 0 01.85 1.08 7.91 7.91 0 01.54 1.27 3.94 3.94 0 010 1.36 13.5 13.5 0 010 1.41 7.85 7.85 0 01-.38 1.35 6.53 6.53 0 01-.46 1.31 5.59 5.59 0 01-.66 1.26 5.71 5.71 0 01-1.09.92 6.68 6.68 0 01-1.29.61 8.88 8.88 0 01-1.37.32 11.13 11.13 0 01-1.32.41zm34.78-23.8a2 2 0 00-1.42.54 2 2 0 00-.51 1.42v1.44c0 .72-.11.72-.11 1.44s.16.72.16 1.44-.15.72-.15 1.44.08.72.08 1.44-.12.73-.12 1.45.11.72.11 1.44.08.72.08 1.44-.09.72-.09 1.45.12.72.12 1.44-.25.72-.25 1.44v1.45c0 .73.22.72.22 1.44v1.45c0 .73-.16.72-.16 1.44s.07.72.07 1.45v1.44c0 .72.13.72.13 1.44s-.27.72-.27 1.45.11.72.11 1.44v1.45c0 .73.13.72.13 1.44s-.09.73-.09 1.45v1.45c0 .73-.12.72-.12 1.45s.28.73.28 1.45a6.8 6.8 0 01-.83 2.67 5.35 5.35 0 01-.95 1 5.16 5.16 0 01-1 .9 5.9 5.9 0 01-1.25.64 6 6 0 01-1.4 0 5.38 5.38 0 01-1.39 0 5.18 5.18 0 01-1.22-.67 5.61 5.61 0 01-1.14-.78 5.38 5.38 0 01-.92-1 4.31 4.31 0 01-.61-2.7c0-.73-.07-.73-.07-1.45s.13-.73.13-1.46-.12-.73-.12-1.46.05-.72.05-1.45-.07-.73-.07-1.46v-1.51c0-.73.07-.73.07-1.46v-1.46c0-.73-.07-.73-.07-1.45v-1.46c0-.73.1-.73.1-1.46v-7.28c0-.72-.06-.73-.06-1.46v-2.92c0-.73-.15-.73-.15-1.46v-1.46c0-.73-.07-.73-.07-1.46s.15-.74.15-1.47-.13-.73-.13-1.46a1.9 1.9 0 00-.47-1.39 2 2 0 00-3.45 1.39v1.45c0 .73.07.73.07 1.46s.11.73.11 1.45-.2.73-.2 1.46.13.73.13 1.45v1.46c0 .73-.15.73-.15 1.46s.17.73.17 1.45-.06.73-.06 1.46v2.92c0 .73.06.73.06 1.46s-.13.72-.13 1.45.06.73.06 1.46-.19.73-.19 1.46.15.73.15 1.45.11.73.11 1.46-.14.73-.14 1.46.09.73.09 1.46-.18.73-.18 1.46V53c0 .73.2.73.2 1.46v2.93a8.62 8.62 0 000 1.44 8.17 8.17 0 00.34 1.4 8.94 8.94 0 00.46 1.38 9.86 9.86 0 00.94 1.11 9.64 9.64 0 00.92 1.09 10.07 10.07 0 001 1.09 9.82 9.82 0 001.23.78 8.84 8.84 0 001.37.47 9.68 9.68 0 001.4.39 10 10 0 001.45 0 10.07 10.07 0 001.45 0 11.47 11.47 0 003.88-1.82 6.75 6.75 0 002-2 8.17 8.17 0 00.87-1.16 8.81 8.81 0 00.59-1.33 9.48 9.48 0 00.24-1.43 9.8 9.8 0 00.06-1.44c0-.72-.06-.72-.06-1.44s.07-.72.07-1.44.07-.72.07-1.44-.12-.72-.12-1.44.11-.73.11-1.45-.15-.72-.15-1.44v-1.44c0-.72.06-.72.06-1.44v-1.45c0-.72.13-.72.13-1.44s-.08-.72-.08-1.44v-1.45c0-.72-.14-.72-.14-1.44s.15-.72.15-1.45-.1-.72-.1-1.44-.06-.72-.06-1.45.14-.72.14-1.44.1-.72.1-1.44-.13-.72-.13-1.45-.06-.72-.06-1.44.13-.72.13-1.45-.09-.72-.09-1.45.17-.72.17-1.44-.06-.73-.06-1.45-.2-.73-.2-1.45.15-.73.15-1.45a2 2 0 00-2-2zm13.4-2.22a1.75 1.75 0 00-1.31.5 1.84 1.84 0 00-.61 1.31c0 .71.07.71.07 1.43s-.19.71-.19 1.42.13.71.13 1.43-.07.71-.07 1.43-.09.71-.09 1.42.19.72.19 1.43v1.43c0 .72-.22.71-.22 1.42s.14.71.14 1.43.12.71.12 1.43-.24.71-.24 1.43.12.71.12 1.42.12.72.12 1.43v1.43c0 .72-.2.71-.2 1.43s.07.71.07 1.43v4.29c0 .71.12.71.12 1.43s-.11.71-.11 1.43v1.43c0 .72-.22.72-.22 1.43s.05.72.05 1.43v1.43c0 .72.18.71.18 1.43s-.07.71-.07 1.43-.07.72-.07 1.43v2.87c0 .72.06.71.06 1.43s.08.72.08 1.44v1.44a2 2 0 00.37 1.44 2 2 0 001.44.45 2 2 0 001.42-.48 2 2 0 00.56-1.41c0-.71-.1-.71-.1-1.43s.12-.71.12-1.42.08-.72.08-1.43-.23-.71-.23-1.43.1-.71.1-1.43.09-.71.09-1.42v-1.43c0-.72-.2-.71-.2-1.42v-1.43c0-.71.26-.71.26-1.43s-.22-.71-.22-1.43.23-.71.23-1.43-.25-.71-.25-1.42.22-.72.22-1.43-.15-.72-.15-1.43.13-.72.13-1.43-.12-.71-.12-1.43.15-.71.15-1.43-.22-.71-.22-1.43.18-.71.18-1.43.07-.71.07-1.43-.29-.72-.29-1.43.06-.72.06-1.43v-4.29c0-.72.12-.72.12-1.43s-.1-.72-.1-1.43.22-.72.22-1.44-.24-.71-.24-1.43.22-.72.22-1.43v-1.44c0-.72-.13-.72-.13-1.44a1.9 1.9 0 00-.6-1.34 1.78 1.78 0 00-1.24-.47zm28.7-5.37c-.71.13-.66.4-1.38.53s-.76-.16-1.47 0-.68.36-1.39.48-.74 0-1.46.11-.67.34-1.38.47-.75-.09-1.47 0-.71.16-1.42.28-.69.27-1.4.39-.71.17-1.42.3-.73.06-1.45.18-.71.14-1.43.26-.74 0-1.45.1-.72.15-1.43.28-.74 0-1.46.14a2.23 2.23 0 00-1.35.86 2.19 2.19 0 00-.28 1.56 2.17 2.17 0 00.67 1.22 2.06 2.06 0 001.32.35 2 2 0 00.33-.08c.77-.13.76-.24 1.53-.37s.8 0 1.57-.13.79 0 1.57-.15.74-.32 1.51-.46.87-.58 1.51-.12-.11.63-.11 1.34.2.7.2 1.41-.07.71-.07 1.41-.12.71-.12 1.42.29.71.29 1.42-.25.71-.25 1.42.25.7.25 1.41-.27.71-.27 1.41.24.71.24 1.42v2.83c0 .71-.13.71-.13 1.42v4.25c0 .71.08.71.08 1.42v1.42c0 .71-.23.71-.23 1.42s.32.71.32 1.42-.28.71-.28 1.42v2.84c0 .71.24.71.24 1.42s-.16.71-.16 1.42.16.71.16 1.42-.27.7-.27 1.41.19.71.19 1.42v1.42c0 .71-.1.71-.1 1.43s.08.71.08 1.42-.13.71-.13 1.42.24.71.24 1.42v2.86A1.77 1.77 0 00159 66a2 2 0 001.34.67 2 2 0 002-2c0-.72-.23-.72-.23-1.43s.2-.72.2-1.44v-5.76c0-.71-.08-.72-.08-1.44s.09-.72.09-1.43.11-.72.11-1.44.09-.72.09-1.43v-1.44c0-.72-.27-.72-.27-1.44s.12-.72.12-1.44.1-.72.1-1.43.08-.72.08-1.44-.19-.72-.19-1.44-.1-.72-.1-1.44.13-.72.13-1.44v-1.44c0-.72.12-.72.12-1.44s.05-.72.05-1.44v-1.44c0-.72-.14-.72-.14-1.44s.2-.72.2-1.44-.11-.72-.11-1.44-.13-.71-.13-1.43.21-.72.21-1.44-.22-.72-.22-1.44.21-.72.21-1.45-.21-.72-.21-1.44v-1.44c0-.72.24-.72.24-1.44s-.21-.73-.21-1.45-.44-.91 0-1.47.71-.2 1.4-.32.7-.14 1.4-.26.69-.17 1.39-.29.72 0 1.42-.16.74.06 1.44-.06.7-.11 1.4-.24a2.13 2.13 0 001.3-.87 1.92 1.92 0 00.15-1.48 2 2 0 00-.63-1.36 2.18 2.18 0 00-1.73-.38zm24.36 52.42c-.71 0-.71.14-1.41.14s-.7-.06-1.4-.06-.7-.08-1.4-.08-.71.07-1.41.07-.7-.11-1.4-.11-.71-.11-1.41-.11-.7.18-1.41.18-.7-.07-1.41-.07-.88.52-1.38 0 .12-.68.12-1.4-.12-.71-.12-1.43-.14-.71-.14-1.43.2-.72.2-1.43.05-.72.05-1.43v-1.44c0-.72-.14-.71-.14-1.43s.12-.72.12-1.43-.16-.72-.16-1.43-.14-.72-.14-1.43.32-.72.32-1.44v-2.86c0-.71-.34-.72-.34-1.44s.22-.71.22-1.43.11-.72.11-1.44-.14-.72-.14-1.44-.47-.88 0-1.42.67 0 1.36-.1.69 0 1.37 0 .68-.18 1.36-.24.68-.2 1.36-.27.69 0 1.38-.07.69 0 1.38 0h1.38c.69 0 .67-.25 1.36-.32a2.15 2.15 0 001.45-.54 2.22 2.22 0 00.3-1.54 2.33 2.33 0 00-2.09-1.84c-.76.07-.75.12-1.5.2l-1.52.15c-.75.08-.74.16-1.5.24l-1.51.15c-.76.07-.77 0-1.52.08s-.77 0-1.53.1-.84.5-1.41 0 .07-.62.07-1.36v-1.48c0-.74-.1-.74-.1-1.48s-.11-.74-.11-1.48.16-.74.16-1.48v-1.47c0-.74-.05-.74-.05-1.48s-.14-.74-.14-1.48.27-.74.27-1.48-.26-.75-.26-1.49.17-.74.17-1.48v-1.48c0-.74-.11-.75-.11-1.49s-.33-.8.14-1.38.61-.13 1.33-.26.69-.28 1.41-.41.71-.22 1.43-.35l1.43-.27 1.45-.25c.72-.12.73-.09 1.45-.22s.77.19 1.5.06.66-.45 1.39-.58.73-.07 1.45-.2a1.89 1.89 0 001.3-.68 2.07 2.07 0 00.39-1.48 1.93 1.93 0 00-1-1.14c-.4-.28-.88-.68-1.41-.59-.73.13-.7.25-1.43.38s-.69.34-1.42.46-.78-.14-1.5 0l-1.46.25c-.73.13-.72.19-1.45.31s-.71.26-1.44.39-.75 0-1.48.13-.75 0-1.48.14-.72.2-1.45.32-.7.32-1.43.45c0 0 0-.19-.06-.19a2.09 2.09 0 00-.25 0c-.05 0-.07.15-.12.17s0 .25-.08.28-.18-.09-.24 0-.06.1-.1.14-.17 0-.22.06 0 .11-.09.16.06.2 0 .25a1.27 1.27 0 00-.11.13c0 .06 0 .11-.06.17s0 .1 0 .15-.17.08-.19.15 0 .1 0 .16a1.47 1.47 0 000 .21h.1c0 .71-.34.71-.34 1.42s.19.71.19 1.42v1.42c0 .71.14.7.14 1.41s-.24.71-.24 1.41v1.42c0 .71.21.71.21 1.42V22c0 .71-.18.71-.18 1.43s.21.7.21 1.41-.18.71-.18 1.42.16.71.16 1.42-.21.71-.21 1.41v1.42c0 .71.11.71.11 1.42s-.12.71-.12 1.42.22.71.22 1.42v1.42c0 .71-.18.71-.18 1.42s.05.71.05 1.42v2.84c0 .71-.09.71-.09 1.43v1.42c0 .71.25.71.25 1.42v1.42c0 .71.08.71.08 1.42s-.15.72-.15 1.43-.13.71-.13 1.42v5.68c0 .71.22.72.22 1.43s-.23.71-.23 1.42.11.72.11 1.43-.18.71-.18 1.43.3.71.3 1.43a2 2 0 00.35 1.44 2 2 0 001.45.35c.73 0 .73.26 1.45.26s.73.06 1.46.06.73-.32 1.46-.32.72.06 1.45.06.73.21 1.46.21.73-.09 1.46-.09.73.06 1.46.06.73-.23 1.46-.23.73.1 1.46.1h1.47a1.59 1.59 0 001.89-1.86 1.78 1.78 0 00-.58-1.31 1.86 1.86 0 00-1.37-.67z" fill="#00cde5" data-name="レイヤー 2"/></svg>