<svg xmlns="http://www.w3.org/2000/svg" viewBox="0 0 215.48 24.97"><defs><style>.cls-1{fill:#fff}</style></defs><g id="レイヤー_2" data-name="レイヤー 2"><g id="design"><path class="cls-1" d="M3.63 11.55c-.29.46-1 .78-1.25 1.2s-.58.74-1 .74a1.16 1.16 0 01-1.24-1.21c0-.29-.28-.79-.05-1.11a14.86 14.86 0 001.17-1.38c.3-.5.6-1 .87-1.58s.4-1.13.64-1.7.36-1.14.57-1.71 1-1 1.13-1.53.25-1.21.39-1.79A1.11 1.11 0 016.09.6c.76 0 1.67.32 1.67 1.15 0 .13-.16.27-.18.42-.14.53-.07 1.17-.25 1.73s-.58 1-.79 1.55-.65 1-.88 1.49-.51 1.29-.76 1.8c.63 0 1.66.24 1.66.89 0 .87-.11.87-.11 1.75s-.18.88-.18 1.75-.11.88-.11 1.75v3.51c0 .87.32.88.32 1.76v1.76c0 .88-.46.88-.46 1.76 0 .7-.41 1-1.11 1s-1.3-.27-1.3-1v-1.73c0-.87-.07-.86-.07-1.72s-.14-.86-.14-1.73-.13-.86-.13-1.72v-1.73a10.17 10.17 0 01.18-1.74c.09-.89.37-.91.18-1.75zm13.24 6.94c0 .84-.13.84-.13 1.68s.19.84.19 1.69-.08.84-.08 1.68A1.36 1.36 0 0115.61 25a1.55 1.55 0 01-1.46-1.43v-1.68c0-.84-.15-.89-.15-1.71s-.12-.85-.11-1.69.59-.94.61-1.89-.09-1-.07-1.9a7.71 7.71 0 000-1.92c-.24.52-.52 1.13-.79 1.64s-.68 1-1 1.45-.41 1.13-.74 1.6-.86.82-1.21 1.28-.93.74-1.31 1.17a1.1 1.1 0 01-1 .43c-.73 0-1.63-.35-1.63-1.05a2 2 0 01.58-1.12c.41-.43 1-.76 1.34-1.24s.83-.89 1.19-1.39.72-1 1-1.51.6-1.06.89-1.59.28-1.22.54-1.77.6-.87.83-1.43a4.75 4.75 0 00-2-.46C10.09 8.79 10.09 9 9 9c-.67 0-.94-.59-.94-1.21s.3-1.17.94-1.17c.86 0 .86-.08 1.72-.08s.87-.13 1.73-.13.92.52 1.55-.07 0-.6 0-1.4.19-.8.19-1.6.26-.79.26-1.59.5-.85 1.2-.85 1.32.07 1.32.85.18.79.18 1.59-.28.8-.28 1.6-.57 1.25 0 1.76 1.1-.33 2.06-.33 1 .07 1.91.07 1 .25 1.92.25c.68 0 .79.47.79 1.12s-.11 1.34-.79 1.34c-.85 0-.85-.3-1.7-.3s-.86.22-1.71.22-.93-.35-1.73-.05c.25.54.5 1.16.79 1.68s.65 1 1 1.52.81.88 1.17 1.36.71.95 1.1 1.4.59 1.08 1 1.51.73 1 1.16 1.4.63.58.63 1a1.2 1.2 0 01-1.35 1.23c-.37 0-.83.14-1.19-.23a17.72 17.72 0 01-1.35-1.16c-.37-.43-.77-.89-1.12-1.37s-.48-1.1-.8-1.6-.69-1-1-1.46-.41-1.06-.67-1.59c-.15 1 .23 1 .24 1.92s-.47 1-.49 1.94.13.95.13 1.92z"/><path class="cls-1" d="M3.63 11.55c-.29.46-1 .78-1.25 1.2s-.58.74-1 .74a1.16 1.16 0 01-1.24-1.21c0-.29-.28-.79-.05-1.11a14.86 14.86 0 001.17-1.38c.3-.5.6-1 .87-1.58s.4-1.13.64-1.7.36-1.14.57-1.71 1-1 1.13-1.53.25-1.21.39-1.79A1.11 1.11 0 016.09.6c.76 0 1.67.32 1.67 1.15 0 .13-.16.27-.18.42-.14.53-.07 1.17-.25 1.73s-.58 1-.79 1.55-.65 1-.88 1.49-.51 1.29-.76 1.8c.63 0 1.66.24 1.66.89 0 .87-.11.87-.11 1.75s-.18.88-.18 1.75-.11.88-.11 1.75v3.51c0 .87.32.88.32 1.76v1.76c0 .88-.46.88-.46 1.76 0 .7-.41 1-1.11 1s-1.3-.27-1.3-1v-1.73c0-.87-.07-.86-.07-1.72s-.14-.86-.14-1.73-.13-.86-.13-1.72v-1.73a10.17 10.17 0 01.18-1.74c.09-.89.37-.91.18-1.75zm13.24 6.94c0 .84-.13.84-.13 1.68s.19.84.19 1.69-.08.84-.08 1.68A1.36 1.36 0 0115.61 25a1.55 1.55 0 01-1.46-1.43v-1.68c0-.84-.15-.89-.15-1.71s-.12-.85-.11-1.69.59-.94.61-1.89-.09-1-.07-1.9a7.71 7.71 0 000-1.92c-.24.52-.52 1.13-.79 1.64s-.68 1-1 1.45-.41 1.13-.74 1.6-.86.82-1.21 1.28-.93.74-1.31 1.17a1.1 1.1 0 01-1 .43c-.73 0-1.63-.35-1.63-1.05a2 2 0 01.58-1.12c.41-.43 1-.76 1.34-1.24s.83-.89 1.19-1.39.72-1 1-1.51.6-1.06.89-1.59.28-1.22.54-1.77.6-.87.83-1.43a4.75 4.75 0 00-2-.46C10.09 8.79 10.09 9 9 9c-.67 0-.94-.59-.94-1.21s.3-1.17.94-1.17c.86 0 .86-.08 1.72-.08s.87-.13 1.73-.13.92.52 1.55-.07 0-.6 0-1.4.19-.8.19-1.6.26-.79.26-1.59.5-.85 1.2-.85 1.32.07 1.32.85.18.79.18 1.59-.28.8-.28 1.6-.57 1.25 0 1.76 1.1-.33 2.06-.33 1 .07 1.91.07 1 .25 1.92.25c.68 0 .79.47.79 1.12s-.11 1.34-.79 1.34c-.85 0-.85-.3-1.7-.3s-.86.22-1.71.22-.93-.35-1.73-.05c.25.54.5 1.16.79 1.68s.65 1 1 1.52.81.88 1.17 1.36.71.95 1.1 1.4.59 1.08 1 1.51.73 1 1.16 1.4.63.58.63 1a1.2 1.2 0 01-1.35 1.23c-.37 0-.83.14-1.19-.23a17.72 17.72 0 01-1.35-1.16c-.37-.43-.77-.89-1.12-1.37s-.48-1.1-.8-1.6-.69-1-1-1.46-.41-1.06-.67-1.59c-.15 1 .23 1 .24 1.92s-.47 1-.49 1.94.13.95.13 1.92zm15.64-1.04c.67 0 1.41.39 1.41 1.12 0 .18-.29.29-.37.49a13.69 13.69 0 01-.46 1.72A12.39 12.39 0 0132 22.19c-.33.41-.68.92-1.1.92a1.84 1.84 0 01-1.67-1.5 1.86 1.86 0 01.32-1c.3-.42.89-.62 1.14-1.07s.59-.82.82-1.31.49-.78 1-.78zM37 15.58a7.46 7.46 0 01-1.71-.08 2 2 0 01-1.2-1.07 2.66 2.66 0 01-.65-1.53c0-1 .16-1 .16-1.9s-.36-1-.36-1.91V5.26A2.88 2.88 0 0134 3.68c.28-.45.71-.55 1.37-.72A5.82 5.82 0 0137 2.67c1.07 0 1.16.37 2.2.12a17.06 17.06 0 00.56-1.9c.24-.6.68-.73 1.24-.73s1.74.26 1.74.91c0 .08-.26.17-.29.27A7.62 7.62 0 0142 2.49c.69.21.71-.14 1.43-.14s.72-.11 1.44-.11 1.17.62 1.63.74c.66.17 1 .29 1.32.73a2.64 2.64 0 01.38 1.55c0 1 .31 1 .31 1.9s-.13 1-.13 1.92.25.95.25 1.91-.21 1-.22 1.91a2.74 2.74 0 01-.63 1.53 1.77 1.77 0 01-1.28.76c-.48.12-1 .68-1.62.69-1 0-1-.1-2-.1s-1-.18-2-.18-1-.09-2-.1-.88.08-1.88.08zm-1.92 2.16a1.22 1.22 0 011.35-1.16 1.09 1.09 0 011.19 1.16c0 .88.29.88.29 1.75s-.16.88-.16 1.76c0 .38.24.29 1.43.36.41 0 .94.05 1.64.05s1.1 0 1.53-.06c.7 0 1.24.26 1.57.12a1.57 1.57 0 001-1.33.92.92 0 011.08-.95c.72 0 1.18.28 1.1 1.16a5 5 0 01-.18 1.63 2.35 2.35 0 01-1.14 1.1c-.42.23-.82.82-1.48.93-.49.09-1.09-.07-1.73 0s-1.08 0-1.7 0-1.3.13-1.83.11c-.74 0-1.37 0-1.87-.06-.82-.13-1.09-.83-1.41-1.15a1.81 1.81 0 01-.51-1.51V19.7c0-.95-.14-.99-.14-1.96zM45.72 5.57c0-.6-.27-.77-1.15-.77s-.9-.25-1.8-.25-.9.29-1.81.29-.9-.16-1.81-.16-.9.36-1.81.36-.82-.07-.82.53c0 .31-.48.25-.18.35a3.74 3.74 0 001.79.39c.94 0 .94.15 1.88.15s.94-.13 1.88-.13 1 .13 1.89.13a8.11 8.11 0 001.9-.18c.32-.05.04-.4.04-.71zm-9.5 4.25c.73.59 1-.08 1.91-.08s.94.26 1.87.26.94-.3 1.88-.3 1 .17 1.89.17 1 .28 1.71-.3c.59-.48.6-.62 0-1.09s-.78.08-1.72.08-.94-.4-1.88-.4S41 8 40 8s-.94.13-1.88.13S37 7.65 36.14 8s-.51 1.35.08 1.82zm8.35 3.63c.88 0 1-.26 1-.86 0-.36.46-.8.12-.93-.87-.34-1 .28-2 .28s-.94-.16-1.88-.16-.94.36-1.88.36h-1.79c-1 0-.91-.34-1.79 0-.34.13-.22.1-.21.46 0 .76.55 1.05 1.2 1.07.9 0 .9-.13 1.81-.13s.9.14 1.8.14.91-.2 1.81-.19.91-.04 1.81-.04zm-1.77 4a1.41 1.41 0 01.62 1c0 .67-.62 1-1.29 1-.29 0-.68.17-1-.09-.45-.39-1-1-1.49-1.41s-.87-.52-.87-.84a1.8 1.8 0 011.58-1.43 1.93 1.93 0 01.89.23c.59.31 1.09 1.09 1.56 1.5zM51.89 20a1.63 1.63 0 01.37.78c0 .75-.75 1.1-1.47 1.1-.39 0-.87.11-1.19-.33s-.49-.92-.83-1.33-1-.57-1.28-.95a1.92 1.92 0 01-.45-1 1.85 1.85 0 011.64-1.51c.36 0 .65.5 1 .81s.65.86 1 1.3.92.69 1.21 1.13z"/><path class="cls-1" d="M32.51 17.45c.67 0 1.41.39 1.41 1.12 0 .18-.29.29-.37.49a13.69 13.69 0 01-.46 1.72A12.39 12.39 0 0132 22.19c-.33.41-.68.92-1.1.92a1.84 1.84 0 01-1.67-1.5 1.86 1.86 0 01.32-1c.3-.42.89-.62 1.14-1.07s.59-.82.82-1.31.49-.78 1-.78zM37 15.58a7.46 7.46 0 01-1.71-.08 2 2 0 01-1.2-1.07 2.66 2.66 0 01-.65-1.53c0-1 .16-1 .16-1.9s-.36-1-.36-1.91V5.26A2.88 2.88 0 0134 3.68c.28-.45.71-.55 1.37-.72A5.82 5.82 0 0137 2.67c1.07 0 1.16.37 2.2.12a17.06 17.06 0 00.56-1.9c.24-.6.68-.73 1.24-.73s1.74.26 1.74.91c0 .08-.26.17-.29.27A7.62 7.62 0 0142 2.49c.69.21.71-.14 1.43-.14s.72-.11 1.44-.11 1.17.62 1.63.74c.66.17 1 .29 1.32.73a2.64 2.64 0 01.38 1.55c0 1 .31 1 .31 1.9s-.13 1-.13 1.92.25.95.25 1.91-.21 1-.22 1.91a2.74 2.74 0 01-.63 1.53 1.77 1.77 0 01-1.28.76c-.48.12-1 .68-1.62.69-1 0-1-.1-2-.1s-1-.18-2-.18-1-.09-2-.1-.88.08-1.88.08zm-1.92 2.16a1.22 1.22 0 011.35-1.16 1.09 1.09 0 011.19 1.16c0 .88.29.88.29 1.75s-.16.88-.16 1.76c0 .38.24.29 1.43.36.41 0 .94.05 1.64.05s1.1 0 1.53-.06c.7 0 1.24.26 1.57.12a1.57 1.57 0 001-1.33.92.92 0 011.08-.95c.72 0 1.18.28 1.1 1.16a5 5 0 01-.18 1.63 2.35 2.35 0 01-1.14 1.1c-.42.23-.82.82-1.48.93-.49.09-1.09-.07-1.73 0s-1.08 0-1.7 0-1.3.13-1.83.11c-.74 0-1.37 0-1.87-.06-.82-.13-1.09-.83-1.41-1.15a1.81 1.81 0 01-.51-1.51V19.7c0-.95-.14-.99-.14-1.96zM45.72 5.57c0-.6-.27-.77-1.15-.77s-.9-.25-1.8-.25-.9.29-1.81.29-.9-.16-1.81-.16-.9.36-1.81.36-.82-.07-.82.53c0 .31-.48.25-.18.35a3.74 3.74 0 001.79.39c.94 0 .94.15 1.88.15s.94-.13 1.88-.13 1 .13 1.89.13a8.11 8.11 0 001.9-.18c.32-.05.04-.4.04-.71zm-9.5 4.25c.73.59 1-.08 1.91-.08s.94.26 1.87.26.94-.3 1.88-.3 1 .17 1.89.17 1 .28 1.71-.3c.59-.48.6-.62 0-1.09s-.78.08-1.72.08-.94-.4-1.88-.4S41 8 40 8s-.94.13-1.88.13S37 7.65 36.14 8s-.51 1.35.08 1.82zm8.35 3.63c.88 0 1-.26 1-.86 0-.36.46-.8.12-.93-.87-.34-1 .28-2 .28s-.94-.16-1.88-.16-.94.36-1.88.36h-1.79c-1 0-.91-.34-1.79 0-.34.13-.22.1-.21.46 0 .76.55 1.05 1.2 1.07.9 0 .9-.13 1.81-.13s.9.14 1.8.14.91-.2 1.81-.19.91-.04 1.81-.04zm-1.77 4a1.41 1.41 0 01.62 1c0 .67-.62 1-1.29 1-.29 0-.68.17-1-.09-.45-.39-1-1-1.49-1.41s-.87-.52-.87-.84a1.8 1.8 0 011.58-1.43 1.93 1.93 0 01.89.23c.59.31 1.09 1.09 1.56 1.5zM51.89 20a1.63 1.63 0 01.37.78c0 .75-.75 1.1-1.47 1.1-.39 0-.87.11-1.19-.33s-.49-.92-.83-1.33-1-.57-1.28-.95a1.92 1.92 0 01-.45-1 1.85 1.85 0 011.64-1.51c.36 0 .65.5 1 .81s.65.86 1 1.3.92.69 1.21 1.13zM65.66 5.68s.07-.27.15-.27c1 0 1.88.28 2.68.2a1.19 1.19 0 011.34 1.31 1.13 1.13 0 01-1.09 1.24c-.46.05-.9-.08-1.44-.06s-.87.38-1.44.38c-.23 0-.56-.14-.8-.14C65 9 65 9.6 64.9 10.21s-.05 1.19-.14 1.8H65c.67 0 1.36-.13 2-.18s1.48.21 2.09.1c1-.16 1.71.33 1.71 1.08a1.6 1.6 0 01-1.33 1.45 15.23 15.23 0 01-1.49.33c-.48.06-1-.22-1.54-.19s-1 0-1.5 0c-.24 0-.33.29-.57.29-.08.91-.27 1.59-.27 2.21a6.73 6.73 0 00.14 2c.25.7.93.88 1.51 1.16a3.75 3.75 0 001.81.47 8.63 8.63 0 001.6-.13 4.06 4.06 0 001.53-.46 2.54 2.54 0 00.86-1.31 4 4 0 00.28-1.55 7.1 7.1 0 00-.1-1.95c0-.13-.13-.23-.13-.36 0-.78.72-1.12 1.47-1.12a1.49 1.49 0 011.61 1 7.78 7.78 0 01.32 2.37 8.45 8.45 0 01-.15 1.86 5.76 5.76 0 01-.92 1.6c-.32.54-.35 1.33-.83 1.72a6.79 6.79 0 01-1.74.81 9.32 9.32 0 01-1.82.44 10.9 10.9 0 01-1.87.3 9.29 9.29 0 01-1.74-.29 6.65 6.65 0 01-1.67-.52 5.52 5.52 0 01-1.57-.85 5.22 5.22 0 01-.8-1.6 6.72 6.72 0 01-.48-1.69 9.28 9.28 0 01-.18-1.73 21.36 21.36 0 010-2.58c-.56-.06-1-.06-1.47-.14s-1.07-.26-1.54-.38a1.38 1.38 0 01-1-1.45c0-.73.4-1.57 1.23-1.57.16 0 .31.15.47.2.43.11.89.17 1.37.25s.9.18 1.4.24c.07-.61.1-1.23.19-1.84s.07-1.1.17-1.71c-.48 0-.74-.38-1.17-.45s-1 .15-1.41 0a1.43 1.43 0 01-1.11-1.41 1.21 1.21 0 011.61-1.19c.43.1.94-.18 1.4-.11s.75.24 1.22.29a5.19 5.19 0 00.69-1.78c.16-.94-.27-1-.11-1.95.13-.75 1-.83 1.65-.83s1.42.25 1.23 1.21.27 1 .13 1.82-.4.91-.52 1.79z"/><path class="cls-1" d="M65.66 5.68s.07-.27.15-.27c1 0 1.88.28 2.68.2a1.19 1.19 0 011.34 1.31 1.13 1.13 0 01-1.09 1.24c-.46.05-.9-.08-1.44-.06s-.87.38-1.44.38c-.23 0-.56-.14-.8-.14C65 9 65 9.6 64.9 10.21s-.05 1.19-.14 1.8H65c.67 0 1.36-.13 2-.18s1.48.21 2.09.1c1-.16 1.71.33 1.71 1.08a1.6 1.6 0 01-1.33 1.45 15.23 15.23 0 01-1.49.33c-.48.06-1-.22-1.54-.19s-1 0-1.5 0c-.24 0-.33.29-.57.29-.08.91-.27 1.59-.27 2.21a6.73 6.73 0 00.14 2c.25.7.93.88 1.51 1.16a3.75 3.75 0 001.81.47 8.63 8.63 0 001.6-.13 4.06 4.06 0 001.53-.46 2.54 2.54 0 00.86-1.31 4 4 0 00.28-1.55 7.1 7.1 0 00-.1-1.95c0-.13-.13-.23-.13-.36 0-.78.72-1.12 1.47-1.12a1.49 1.49 0 011.61 1 7.78 7.78 0 01.32 2.37 8.45 8.45 0 01-.15 1.86 5.76 5.76 0 01-.92 1.6c-.32.54-.35 1.33-.83 1.72a6.79 6.79 0 01-1.74.81 9.32 9.32 0 01-1.82.44 10.9 10.9 0 01-1.87.3 9.29 9.29 0 01-1.74-.29 6.65 6.65 0 01-1.67-.52 5.52 5.52 0 01-1.57-.85 5.22 5.22 0 01-.8-1.6 6.72 6.72 0 01-.48-1.69 9.28 9.28 0 01-.18-1.73 21.36 21.36 0 010-2.58c-.56-.06-1-.06-1.47-.14s-1.07-.26-1.54-.38a1.38 1.38 0 01-1-1.45c0-.73.4-1.57 1.23-1.57.16 0 .31.15.47.2.43.11.89.17 1.37.25s.9.18 1.4.24c.07-.61.1-1.23.19-1.84s.07-1.1.17-1.71c-.48 0-.74-.38-1.17-.45s-1 .15-1.41 0a1.43 1.43 0 01-1.11-1.41 1.21 1.21 0 011.61-1.19c.43.1.94-.18 1.4-.11s.75.24 1.22.29a5.19 5.19 0 00.69-1.78c.16-.94-.27-1-.11-1.95.13-.75 1-.83 1.65-.83s1.42.25 1.23 1.21.27 1 .13 1.82-.4.91-.52 1.79zM91.1 12a15.76 15.76 0 012.18-.53 21.35 21.35 0 012.25 0 10.94 10.94 0 011.89.33 7.49 7.49 0 011.81.49 5.54 5.54 0 011.68.86 4.32 4.32 0 011 1.6 5.32 5.32 0 01.64 1.87 6.24 6.24 0 01-.62 1.84 5.14 5.14 0 01-.77 1.7 5.43 5.43 0 01-1.38 1.27 7.52 7.52 0 01-1.79.57 10.36 10.36 0 01-1.8.4c-1.06.15-1.5-.35-1.5-1.13a1.46 1.46 0 011-1.6 9.21 9.21 0 001.79-.15A3.45 3.45 0 0099 18.47a3.11 3.11 0 00.32-1.75 2.32 2.32 0 00-.44-1.66 3.54 3.54 0 00-1.52-1 7 7 0 00-1.76 0c-.52 0-1-.2-1.53-.15s-1 .44-1.45.54-.93.1-1.41.24a3.73 3.73 0 00-.2 1.52v1.54c0 .77-.09.78-.09 1.55a6.89 6.89 0 010 2 2.86 2.86 0 01-1.38 1.7c-.52.22-1.26-.14-2-.14a5 5 0 01-1.73 0c-.55-.19-.9-.74-1.36-1.09a4.25 4.25 0 01-1.14-1.18 3 3 0 01-.57-1.59 4.06 4.06 0 01.26-1.67 5 5 0 01.9-1.48 7.83 7.83 0 011.16-1.37c.42-.31 1.16-.24 1.73-.56s.69-.77 1.27-1a6.26 6.26 0 00.37-2.14 5.07 5.07 0 00-.28-2.15c-.61.06-1.13 0-1.7 0S85.24 9 84.69 9a1.39 1.39 0 01-1.29-1.53A1.33 1.33 0 0184.69 6c.55 0 1.15-.06 1.79-.1s1.2 0 1.81-.08c.28-1-.21-1-.21-2s.26-1 .26-2 .64-1 1.34-1 1.57.17 1.57 1-.43.89-.43 1.79a2.45 2.45 0 00.36 1.72c.88-.15 1.63-.33 2.36-.51a1.55 1.55 0 01.48 0 1.24 1.24 0 011.27 1.33 1.14 1.14 0 01-1 1.19c-.5.12-1 .39-1.57.5s-1.16.12-1.72.21c-.25.93 0 1-.09 1.94A2.73 2.73 0 0091.1 12zm-2.84 3.78a8.36 8.36 0 00-1.7 1.33 2.41 2.41 0 00-1 1.81 1.87 1.87 0 001.93 1.56c.75 0 1-.7 1-1.35 0-.84-.33-.85-.19-1.68s.43-.93-.04-1.63zm15.11-9a1.81 1.81 0 01.71 1.23 1.62 1.62 0 01-1.63 1.46c-.34 0-.6-.26-.93-.57s-1-.8-1.56-1.2a14.3 14.3 0 00-1.73-.89 1.28 1.28 0 01-.68-1.19c0-.75.61-1.8 1.44-1.8.23 0 .42.4.66.53a14.55 14.55 0 013.72 2.43z"/><path class="cls-1" d="M91.1 12a15.76 15.76 0 012.18-.53 21.35 21.35 0 012.25 0 10.94 10.94 0 011.89.33 7.49 7.49 0 011.81.49 5.54 5.54 0 011.68.86 4.32 4.32 0 011 1.6 5.32 5.32 0 01.64 1.87 6.24 6.24 0 01-.62 1.84 5.14 5.14 0 01-.77 1.7 5.43 5.43 0 01-1.38 1.27 7.52 7.52 0 01-1.79.57 10.36 10.36 0 01-1.8.4c-1.06.15-1.5-.35-1.5-1.13a1.46 1.46 0 011-1.6 9.21 9.21 0 001.79-.15A3.45 3.45 0 0099 18.47a3.11 3.11 0 00.32-1.75 2.32 2.32 0 00-.44-1.66 3.54 3.54 0 00-1.52-1 7 7 0 00-1.76 0c-.52 0-1-.2-1.53-.15s-1 .44-1.45.54-.93.1-1.41.24a3.73 3.73 0 00-.2 1.52v1.54c0 .77-.09.78-.09 1.55a6.89 6.89 0 010 2 2.86 2.86 0 01-1.38 1.7c-.52.22-1.26-.14-2-.14a5 5 0 01-1.73 0c-.55-.19-.9-.74-1.36-1.09a4.25 4.25 0 01-1.14-1.18 3 3 0 01-.57-1.59 4.06 4.06 0 01.26-1.67 5 5 0 01.9-1.48 7.83 7.83 0 011.16-1.37c.42-.31 1.16-.24 1.73-.56s.69-.77 1.27-1a6.26 6.26 0 00.37-2.14 5.07 5.07 0 00-.28-2.15c-.61.06-1.13 0-1.7 0S85.24 9 84.69 9a1.39 1.39 0 01-1.29-1.53A1.33 1.33 0 0184.69 6c.55 0 1.15-.06 1.79-.1s1.2 0 1.81-.08c.28-1-.21-1-.21-2s.26-1 .26-2 .64-1 1.34-1 1.57.17 1.57 1-.43.89-.43 1.79a2.45 2.45 0 00.36 1.72c.88-.15 1.63-.33 2.36-.51a1.55 1.55 0 01.48 0 1.24 1.24 0 011.27 1.33 1.14 1.14 0 01-1 1.19c-.5.12-1 .39-1.57.5s-1.16.12-1.72.21c-.25.93 0 1-.09 1.94A2.73 2.73 0 0091.1 12zm-2.84 3.78a8.36 8.36 0 00-1.7 1.33 2.41 2.41 0 00-1 1.81 1.87 1.87 0 001.93 1.56c.75 0 1-.7 1-1.35 0-.84-.33-.85-.19-1.68s.43-.93-.04-1.63zm15.11-9a1.81 1.81 0 01.71 1.23 1.62 1.62 0 01-1.63 1.46c-.34 0-.6-.26-.93-.57s-1-.8-1.56-1.2a14.3 14.3 0 00-1.73-.89 1.28 1.28 0 01-.68-1.19c0-.75.61-1.8 1.44-1.8.23 0 .42.4.66.53a14.55 14.55 0 013.72 2.43zm8.8 5.11c-.26.39-.56 1-.82 1.34a1.82 1.82 0 01-1.46.68 1.62 1.62 0 01-1.55-1.45 1.86 1.86 0 01.24-1.07 16.41 16.41 0 001.1-1.41c.29-.5.88-.88 1.15-1.43s.21-1.22.45-1.78.72-1 .93-1.58.29-1.18.46-1.75.43-1.14.57-1.72a1.15 1.15 0 011.2-1c.76 0 1.44.38 1.44 1.22 0 .13.08.26.05.42-.13.54-.31 1.09-.49 1.66s-.51 1-.71 1.58-.29 1.12-.51 1.66-.64 1.2-.89 1.72c.63.06 1.41.26 1.41.91 0 1 .1 1 .1 1.93s-.42 1-.42 1.92v1.93c0 .93.29 1 .29 1.93s.13 1 .13 1.92-.17 1-.17 1.94.17 1 .17 1.93a1.62 1.62 0 01-1.57 1.34 1.21 1.21 0 01-1.12-1.34v-1.91c0-.91-.37-1-.37-1.91s.15-.95.15-1.91-.29-.95-.29-1.91a8.9 8.9 0 01.22-1.92c.14-.97.47-.99.31-1.94zm19.41-2.35c.73 0 1.32.37 1.32 1a1.47 1.47 0 01-1.32 1.46h-2c-1 0-1 .12-2 .12s-1.16-.85-1.9-.19-.31.8-.31 1.67.32.87.32 1.74-.29.87-.29 1.75.1.87.1 1.75-.63 1.26 0 1.89 1-.06 1.82-.06H129c.84 0 .84-.1 1.67-.1a1.16 1.16 0 011.08 1.3 1 1 0 01-1.06 1.13c-.89 0-.89.12-1.79.12s-.9-.21-1.8-.21-.9.28-1.8.28-.9.09-1.8.09-.9-.41-1.81-.41h-1.8c-.9 0-.9.29-1.81.29a1.31 1.31 0 01-1.21-1.32 1.25 1.25 0 011.21-1.27c.78 0 .78-.17 1.56-.17s.78-.1 1.56-.1 1.25 1 1.77.46.06-1.06.06-1.94-.37-.87-.37-1.74.15-.87.15-1.75-.29-.87-.29-1.75.86-1.13.23-1.73-.9 0-1.82 0-.92.12-1.84.12-.92-.16-1.84-.16c-.7 0-.82-.63-.82-1.28s.12-1.11.82-1.11c.92 0 .92-.21 1.84-.21s.92.07 1.84.07 1 .39 1.64-.25.29-.68.29-1.57-.1-.88-.1-1.77V3.91c0-.89.27-.89.27-1.78s.48-1 1.21-1 1.32.14 1.32 1 .41.89.41 1.77-.38.89-.38 1.78v1.81c0 .88-.5 1.12.16 1.71s.93.24 1.91.24a12.67 12.67 0 012 .05 14.7 14.7 0 001.92.05z"/><path class="cls-1" d="M112.17 11.89c-.26.39-.56 1-.82 1.34a1.82 1.82 0 01-1.46.68 1.62 1.62 0 01-1.55-1.45 1.86 1.86 0 01.24-1.07 16.41 16.41 0 001.1-1.41c.29-.5.88-.88 1.15-1.43s.21-1.22.45-1.78.72-1 .93-1.58.29-1.18.46-1.75.43-1.14.57-1.72a1.15 1.15 0 011.2-1c.76 0 1.44.38 1.44 1.22 0 .13.08.26.05.42-.13.54-.31 1.09-.49 1.66s-.51 1-.71 1.58-.29 1.12-.51 1.66-.64 1.2-.89 1.72c.63.06 1.41.26 1.41.91 0 1 .1 1 .1 1.93s-.42 1-.42 1.92v1.93c0 .93.29 1 .29 1.93s.13 1 .13 1.92-.17 1-.17 1.94.17 1 .17 1.93a1.62 1.62 0 01-1.57 1.34 1.21 1.21 0 01-1.12-1.34v-1.91c0-.91-.37-1-.37-1.91s.15-.95.15-1.91-.29-.95-.29-1.91a8.9 8.9 0 01.22-1.92c.14-.97.47-.99.31-1.94zm19.41-2.35c.73 0 1.32.37 1.32 1a1.47 1.47 0 01-1.32 1.46h-2c-1 0-1 .12-2 .12s-1.16-.85-1.9-.19-.31.8-.31 1.67.32.87.32 1.74-.29.87-.29 1.75.1.87.1 1.75-.63 1.26 0 1.89 1-.06 1.82-.06H129c.84 0 .84-.1 1.67-.1a1.16 1.16 0 011.08 1.3 1 1 0 01-1.06 1.13c-.89 0-.89.12-1.79.12s-.9-.21-1.8-.21-.9.28-1.8.28-.9.09-1.8.09-.9-.41-1.81-.41h-1.8c-.9 0-.9.29-1.81.29a1.31 1.31 0 01-1.21-1.32 1.25 1.25 0 011.21-1.27c.78 0 .78-.17 1.56-.17s.78-.1 1.56-.1 1.25 1 1.77.46.06-1.06.06-1.94-.37-.87-.37-1.74.15-.87.15-1.75-.29-.87-.29-1.75.86-1.13.23-1.73-.9 0-1.82 0-.92.12-1.84.12-.92-.16-1.84-.16c-.7 0-.82-.63-.82-1.28s.12-1.11.82-1.11c.92 0 .92-.21 1.84-.21s.92.07 1.84.07 1 .39 1.64-.25.29-.68.29-1.57-.1-.88-.1-1.77V3.91c0-.89.27-.89.27-1.78s.48-1 1.21-1 1.32.14 1.32 1 .41.89.41 1.77-.38.89-.38 1.78v1.81c0 .88-.5 1.12.16 1.71s.93.24 1.91.24a12.67 12.67 0 012 .05 14.7 14.7 0 001.92.05zm11.07 1.53a2.91 2.91 0 01-1.7-.26 2 2 0 01-.77-1.6c0-.71-.11-.71-.11-1.43a2.08 2.08 0 01.87-1.6 2.83 2.83 0 011.71-.49c1 0 1 .33 2.11.33s1.12.15 2.07-.31c.46-.22.43-.62 0-.87-.77-.44-.84-.29-1.72-.29h-1.77c-.88 0-.88.51-1.77.51s-.88-.21-1.77-.21-.88-.16-1.77-.18c-.67 0-.74-.49-.74-1.06s0-1 .74-1.07c.89 0 .88-.2 1.77-.2s.88.23 1.76.23.89-.25 1.77-.25.89.25 1.77.25 1 .36 1.72-.17c.54-.41.19-.61.19-1.29A1 1 0 01148.16 0c.68 0 1.49.37 1.49 1.1s-.58.8 0 1.19c.75.54.82.07 1.74.07s.92.29 1.84.29.92-.33 1.84-.33h3.69c.7 0 1 .71 1 1.3a1 1 0 01-1 1.11c-.92 0-.92.32-1.84.32s-.92-.28-1.92-.28h-3.64c-.92 0-1-.41-1.84 0-.45.25-.39.67 0 1 .63.42.72.14 1.47.14s.76.16 1.51.16.75-.3 1.51-.3a2.32 2.32 0 011.51.72 1.46 1.46 0 01.68 1.34c0 .72.05.72.05 1.43a1.56 1.56 0 01-.7 1.39 2.37 2.37 0 01-1.54.56c-.76 0-.76.25-1.51.25s-.75-.16-1.51-.16-.79-.32-1.42.09c-.41.27-.54.68-.1.89 1 .44 1.07 0 2.12 0s1-.16 2.11-.16c.66 0 1.15.46 1.6.54.71.13 1.26 0 1.55.39a2.5 2.5 0 01.36 1.6c0 .38-.33.64 0 .77 1 .35 1-.18 2-.18a1.26 1.26 0 011.15 1.26 1.05 1.05 0 01-1.15 1c-1 0-1.11-.36-2.06 0-.36.14-.15.47-.15.86 0 .68.06 1.18-.25 1.56a2.32 2.32 0 01-1.41.91 11.29 11.29 0 01-1.69 0c-1.06 0-1.06.11-2.11.11s-1.3-.91-2.2-.38c-.54.32 0 .79 0 1.41s.25 1.27.07 1.68-.91.62-1.42.83a3.91 3.91 0 01-1.51.15 13.23 13.23 0 01-1.94 0 1.17 1.17 0 01-1.06-1.22c0-.72.5-1.29 1.51-1.11a5.29 5.29 0 001.1.07c.57 0 .74-.34.74-.83s.46-.91.07-1.09c-.82-.39-1 .21-1.92.21s-.91-.2-1.82-.2-.91.44-1.83.44h-1.82c-.62 0-.91-.73-.91-1.25a1 1 0 01.91-1.09c.91 0 .91-.08 1.82-.08s.91.31 1.82.31.91.07 1.82.07 1.15.4 1.93-.06a.85.85 0 00-.05-1.38c-.83-.48-1 .08-2 .08H143c-1 0-1 .18-1.92.18s-1-.4-1.92-.4-1 .43-1.93.41a1.41 1.41 0 01-1.21-1.26 1.41 1.41 0 011.21-1.26h1.92c.92 0 1-.05 1.92-.05H143c1 0 1 .19 1.92.19s1 .33 1.84-.13c.47-.26.59-.74.13-1-.78-.46-1-.14-1.86-.14h-1.82c-.91 0-.91.23-1.83.23s-.91-.14-1.82-.14a1 1 0 01-1.07-.89c0-.52.45-.8 1.07-.8.91 0 .91-.16 1.82-.16s.91-.36 1.82-.36.91.53 1.82.53 1.11.35 1.91-.09A.83.83 0 00147 11c-.95-.45-1.15.46-2.2.42s-1.1-.34-2.15-.35zm4.35-1.7c.56-.52.41-1.06-.15-1.58s-.78.07-1.61.07-.83.11-1.67.11c-.54 0-.6-.09-.6.28v.49c0 .47.17.76.58.76.84 0 .88-.5 1.68-.31s1.12.74 1.77.18zm2.46 0c.7.59 1-.19 1.91-.19h1.82c.55 0 .44 0 .44-.4s.17-.24.17-.49-.06-.43-.61-.43c-.91 0-.91-.33-1.82-.33a2.9 2.9 0 00-1.79.3c-.84.33-.74 1.05-.16 1.54zm0 6.1c.72.45.92-.2 1.77-.2h1.7a3.93 3.93 0 001.64-.11c.22-.06 0 0 0-.23 0-.52-.09-.51-1-.51s-1-.33-2-.33a3.94 3.94 0 00-2 .31.6.6 0 00-.13 1.07zm0 1.94a.64.64 0 00.11 1.14c.88.48 1-.05 2-.05s1-.12 2-.12 1 .17 1-.36c0-.24.28-.33.05-.4a4.09 4.09 0 00-1.68-.33c-.85 0-.88.48-1.71.31s-1.08-.6-1.79-.19z"/><path class="cls-1" d="M142.65 11.07a2.91 2.91 0 01-1.7-.26 2 2 0 01-.77-1.6c0-.71-.11-.71-.11-1.43a2.08 2.08 0 01.87-1.6 2.83 2.83 0 011.71-.49c1 0 1 .33 2.11.33s1.12.15 2.07-.31c.46-.22.43-.62 0-.87-.77-.44-.84-.29-1.72-.29h-1.77c-.88 0-.88.51-1.77.51s-.88-.21-1.77-.21-.88-.16-1.77-.18c-.67 0-.74-.49-.74-1.06s0-1 .74-1.07c.89 0 .88-.2 1.77-.2s.88.23 1.76.23.89-.25 1.77-.25.89.25 1.77.25 1 .36 1.72-.17c.54-.41.19-.61.19-1.29A1 1 0 01148.16 0c.68 0 1.49.37 1.49 1.1s-.58.8 0 1.19c.75.54.82.07 1.74.07s.92.29 1.84.29.92-.33 1.84-.33h3.69c.7 0 1 .71 1 1.3a1 1 0 01-1 1.11c-.92 0-.92.32-1.84.32s-.92-.28-1.92-.28h-3.64c-.92 0-1-.41-1.84 0-.45.25-.39.67 0 1 .63.42.72.14 1.47.14s.76.16 1.51.16.75-.3 1.51-.3a2.32 2.32 0 011.51.72 1.46 1.46 0 01.68 1.34c0 .72.05.72.05 1.43a1.56 1.56 0 01-.7 1.39 2.37 2.37 0 01-1.54.56c-.76 0-.76.25-1.51.25s-.75-.16-1.51-.16-.79-.32-1.42.09c-.41.27-.54.68-.1.89 1 .44 1.07 0 2.12 0s1-.16 2.11-.16c.66 0 1.15.46 1.6.54.71.13 1.26 0 1.55.39a2.5 2.5 0 01.36 1.6c0 .38-.33.64 0 .77 1 .35 1-.18 2-.18a1.26 1.26 0 011.15 1.26 1.05 1.05 0 01-1.15 1c-1 0-1.11-.36-2.06 0-.36.14-.15.47-.15.86 0 .68.06 1.18-.25 1.56a2.32 2.32 0 01-1.41.91 11.29 11.29 0 01-1.69 0c-1.06 0-1.06.11-2.11.11s-1.3-.91-2.2-.38c-.54.32 0 .79 0 1.41s.25 1.27.07 1.68-.91.62-1.42.83a3.91 3.91 0 01-1.51.15 13.23 13.23 0 01-1.94 0 1.17 1.17 0 01-1.06-1.22c0-.72.5-1.29 1.51-1.11a5.29 5.29 0 001.1.07c.57 0 .74-.34.74-.83s.46-.91.07-1.09c-.82-.39-1 .21-1.92.21s-.91-.2-1.82-.2-.91.44-1.83.44h-1.82c-.62 0-.91-.73-.91-1.25a1 1 0 01.91-1.09c.91 0 .91-.08 1.82-.08s.91.31 1.82.31.91.07 1.82.07 1.15.4 1.93-.06a.85.85 0 00-.05-1.38c-.83-.48-1 .08-2 .08H143c-1 0-1 .18-1.92.18s-1-.4-1.92-.4-1 .43-1.93.41a1.41 1.41 0 01-1.21-1.26 1.41 1.41 0 011.21-1.26h1.92c.92 0 1-.05 1.92-.05H143c1 0 1 .19 1.92.19s1 .33 1.84-.13c.47-.26.59-.74.13-1-.78-.46-1-.14-1.86-.14h-1.82c-.91 0-.91.23-1.83.23s-.91-.14-1.82-.14a1 1 0 01-1.07-.89c0-.52.45-.8 1.07-.8.91 0 .91-.16 1.82-.16s.91-.36 1.82-.36.91.53 1.82.53 1.11.35 1.91-.09A.83.83 0 00147 11c-.95-.45-1.15.46-2.2.42s-1.1-.34-2.15-.35zm4.35-1.7c.56-.52.41-1.06-.15-1.58s-.78.07-1.61.07-.83.11-1.67.11c-.54 0-.6-.09-.6.28v.49c0 .47.17.76.58.76.84 0 .88-.5 1.68-.31s1.12.74 1.77.18zm2.46 0c.7.59 1-.19 1.91-.19h1.82c.55 0 .44 0 .44-.4s.17-.24.17-.49-.06-.43-.61-.43c-.91 0-.91-.33-1.82-.33a2.9 2.9 0 00-1.79.3c-.84.33-.74 1.05-.16 1.54zm0 6.1c.72.45.92-.2 1.77-.2h1.7a3.93 3.93 0 001.64-.11c.22-.06 0 0 0-.23 0-.52-.09-.51-1-.51s-1-.33-2-.33a3.94 3.94 0 00-2 .31.6.6 0 00-.13 1.07zm0 1.94a.64.64 0 00.11 1.14c.88.48 1-.05 2-.05s1-.12 2-.12 1 .17 1-.36c0-.24.28-.33.05-.4a4.09 4.09 0 00-1.68-.33c-.85 0-.88.48-1.71.31s-1.08-.6-1.79-.19zm28.03-10.95l-1.86.24c-.59.08-1.15.51-1.78.6s-1.21.15-1.84.24-1.19.31-1.81.4l-1.83.28c-.62.09-1.24.13-1.84.22-1.1.16-1.55-.82-1.55-1.62s.21-1.4 1.15-1.51c.57-.07 1.16-.08 1.75-.15s1.19.11 1.78 0 1.13-.43 1.72-.5 1.16-.15 1.75-.21 1.2.2 1.79.13 1.16-.25 1.74-.32 1.19 0 1.77-.06 1.15-.4 1.72-.45l1.76-.16c.6-.06 1.19 0 1.76 0a1.29 1.29 0 011.57 1.26A1.36 1.36 0 01184 6.17a8.63 8.63 0 00-1.55.22c-.46.17-.74.8-1.2 1.06a13.91 13.91 0 00-1.55 1 9.92 9.92 0 00-1.37 1.24c-.46.5-1.06.83-1.34 1.35a6.84 6.84 0 00-.31 1.87 9.12 9.12 0 00-.45 1.82 5.61 5.61 0 00.12 1.72c.18.54.82.8 1.19 1.22s.49 1.12 1 1.41a7.34 7.34 0 001.6.69c.5.14 1.15-.16 1.74-.09a1.67 1.67 0 011.43 1.69 1.76 1.76 0 01-1.75 1.79c-.63-.05-1.19-.52-1.77-.66a11.63 11.63 0 01-1.79-.3 9.59 9.59 0 01-1.65-.88A8.39 8.39 0 01175 20c-.4-.46-.41-1.19-.69-1.73a7 7 0 01-.67-1.65 7.75 7.75 0 01-.48-1.79 9 9 0 01.38-1.86 9.59 9.59 0 01.36-1.88 10.23 10.23 0 01.86-1.72A11.28 11.28 0 01176 7.88c.41-.45 1.24-.57 1.76-1 .03-.1-.24-.42-.27-.42zm4.06 4.41c0-.52.29-.74.86-.74.24 0 .57-.24.8 0a12.31 12.31 0 011.07 1.09 12.2 12.2 0 011.06 1.12 1.53 1.53 0 01.28.83 1.43 1.43 0 01-1.25 1.21c-.32 0-.47-.44-.71-.78s-.82-.63-1.13-1-.64-.8-.95-1.11-.03-.43-.03-.62zm2.57-2.08c0-.52.27-.71.87-.71.26 0 .58-.22.84 0a11.28 11.28 0 011.06 1c.34.37.78.68 1.05 1.05a1.61 1.61 0 01.33.91 1.37 1.37 0 01-1.27 1.17c-.32 0-.5-.41-.76-.75s-.82-.57-1.15-.93-.63-.78-.93-1.1-.04-.43-.04-.64z"/><path class="cls-1" d="M177.49 6.46l-1.86.24c-.59.08-1.15.51-1.78.6s-1.21.15-1.84.24-1.19.31-1.81.4l-1.83.28c-.62.09-1.24.13-1.84.22-1.1.16-1.55-.82-1.55-1.62s.21-1.4 1.15-1.51c.57-.07 1.16-.08 1.75-.15s1.19.11 1.78 0 1.13-.43 1.72-.5 1.16-.15 1.75-.21 1.2.2 1.79.13 1.16-.25 1.74-.32 1.19 0 1.77-.06 1.15-.4 1.72-.45l1.76-.16c.6-.06 1.19 0 1.76 0a1.29 1.29 0 011.57 1.26A1.36 1.36 0 01184 6.17a8.63 8.63 0 00-1.55.22c-.46.17-.74.8-1.2 1.06a13.91 13.91 0 00-1.55 1 9.92 9.92 0 00-1.37 1.24c-.46.5-1.06.83-1.34 1.35a6.84 6.84 0 00-.31 1.87 9.12 9.12 0 00-.45 1.82 5.61 5.61 0 00.12 1.72c.18.54.82.8 1.19 1.22s.49 1.12 1 1.41a7.34 7.34 0 001.6.69c.5.14 1.15-.16 1.74-.09a1.67 1.67 0 011.43 1.69 1.76 1.76 0 01-1.75 1.79c-.63-.05-1.19-.52-1.77-.66a11.63 11.63 0 01-1.79-.3 9.59 9.59 0 01-1.65-.88A8.39 8.39 0 01175 20c-.4-.46-.41-1.19-.69-1.73a7 7 0 01-.67-1.65 7.75 7.75 0 01-.48-1.79 9 9 0 01.38-1.86 9.59 9.59 0 01.36-1.88 10.23 10.23 0 01.86-1.72A11.28 11.28 0 01176 7.88c.41-.45 1.24-.57 1.76-1 .03-.1-.24-.42-.27-.42zm4.06 4.41c0-.52.29-.74.86-.74.24 0 .57-.24.8 0a12.31 12.31 0 011.07 1.09 12.2 12.2 0 011.06 1.12 1.53 1.53 0 01.28.83 1.43 1.43 0 01-1.25 1.21c-.32 0-.47-.44-.71-.78s-.82-.63-1.13-1-.64-.8-.95-1.11-.03-.43-.03-.62zm2.57-2.08c0-.52.27-.71.87-.71.26 0 .58-.22.84 0a11.28 11.28 0 011.06 1c.34.37.78.68 1.05 1.05a1.61 1.61 0 01.33.91 1.37 1.37 0 01-1.27 1.17c-.32 0-.5-.41-.76-.75s-.82-.57-1.15-.93-.63-.78-.93-1.1-.04-.43-.04-.64zm20.68 9.27a3.28 3.28 0 01-2.06.63 4.91 4.91 0 01-1.74-.59 3.7 3.7 0 01-1.36-1.1c-.39-.43-1-.76-1.18-1.37a6.22 6.22 0 010-1.83 4.62 4.62 0 01.3-1.57 4.19 4.19 0 01.55-1.56 3.89 3.89 0 011.43-.85 4.39 4.39 0 011.61-.29 8.12 8.12 0 011.78.34c0-.7-.18-1.64-.21-2.34-.56 0-1.2.34-1.76.37s-1.15-.37-1.71-.34-1.1.49-1.66.52-1.16-.45-1.71-.41-1.12.18-1.67.22-1.13.17-1.67.21a1.41 1.41 0 01-1.52-1.43 1.45 1.45 0 011.39-1.46c.55 0 1.12.1 1.7.07s1.1-.44 1.68-.47l1.7-.08c.56 0 1.13.09 1.71.06s1.12-.19 1.69-.21 1.19.27 1.76.25c0-.5.17-1.08.16-1.64s-.21-1-.21-1.59a1.44 1.44 0 012.87 0c0 .54.17 1.06.17 1.55s-.12.94-.12 1.43c.64 0 1.2.14 1.83.13l1.9-.06c.65 0 1.29 0 1.91-.06s1.28.26 1.9.26c.91 0 1.22.41 1.22 1.14s-.31 1.36-1.12 1.36h-1.92c-.62 0-1.25.23-1.91.24s-1.27-.16-1.92-.15-1.4-.09-2.05-.07v1.66c0 .5.39 1 .42 1.49s-.13 1-.1 1.49a5.81 5.81 0 01.73 1.66 7.49 7.49 0 01.21 1.81 10.29 10.29 0 01-.41 1.82 8.8 8.8 0 01-.53 1.74 8.32 8.32 0 01-.88 1.57c-.35.5-.49 1.19-.95 1.62a11.29 11.29 0 01-1.6 1 13.59 13.59 0 01-1.59.94 2.15 2.15 0 01-.7.2c-.85 0-1.23-.73-1.23-1.49 0-.49.15-.75.88-1.06s.86-1.05 1.35-1.39 1.33-.41 1.71-.83a5.08 5.08 0 00.92-1.62c.09-.09.04.02.01.08zm-3.5-4.14a1.81 1.81 0 00.39 1.29c.35.42.71.87 1.18.87a1.82 1.82 0 001.75-1.93c0-.57-.49-1-.79-1.36a1.68 1.68 0 00-1.25-.86c-.88 0-1.28.84-1.28 1.99z"/><path class="cls-1" d="M204.8 18.06a3.28 3.28 0 01-2.06.63 4.91 4.91 0 01-1.74-.59 3.7 3.7 0 01-1.36-1.1c-.39-.43-1-.76-1.18-1.37a6.22 6.22 0 010-1.83 4.62 4.62 0 01.3-1.57 4.19 4.19 0 01.55-1.56 3.89 3.89 0 011.43-.85 4.39 4.39 0 011.61-.29 8.12 8.12 0 011.78.34c0-.7-.18-1.64-.21-2.34-.56 0-1.2.34-1.76.37s-1.15-.37-1.71-.34-1.1.49-1.66.52-1.16-.45-1.71-.41-1.12.18-1.67.22-1.13.17-1.67.21a1.41 1.41 0 01-1.52-1.43 1.45 1.45 0 011.39-1.46c.55 0 1.12.1 1.7.07s1.1-.44 1.68-.47l1.7-.08c.56 0 1.13.09 1.71.06s1.12-.19 1.69-.21 1.19.27 1.76.25c0-.5.17-1.08.16-1.64s-.21-1-.21-1.59a1.44 1.44 0 012.87 0c0 .54.17 1.06.17 1.55s-.12.94-.12 1.43c.64 0 1.2.14 1.83.13l1.9-.06c.65 0 1.29 0 1.91-.06s1.28.26 1.9.26c.91 0 1.22.41 1.22 1.14s-.31 1.36-1.12 1.36h-1.92c-.62 0-1.25.23-1.91.24s-1.27-.16-1.92-.15-1.4-.09-2.05-.07v1.66c0 .5.39 1 .42 1.49s-.13 1-.1 1.49a5.81 5.81 0 01.73 1.66 7.49 7.49 0 01.21 1.81 10.29 10.29 0 01-.41 1.82 8.8 8.8 0 01-.53 1.74 8.32 8.32 0 01-.88 1.57c-.35.5-.49 1.19-.95 1.62a11.29 11.29 0 01-1.6 1 13.59 13.59 0 01-1.59.94 2.15 2.15 0 01-.7.2c-.85 0-1.23-.73-1.23-1.49 0-.49.15-.75.88-1.06s.86-1.05 1.35-1.39 1.33-.41 1.71-.83a5.08 5.08 0 00.92-1.62c.09-.09.04.02.01.08zm-3.5-4.14a1.81 1.81 0 00.39 1.29c.35.42.71.87 1.18.87a1.82 1.82 0 001.75-1.93c0-.57-.49-1-.79-1.36a1.68 1.68 0 00-1.25-.86c-.88 0-1.28.84-1.28 1.99z"/></g></g></svg>