<svg xmlns="http://www.w3.org/2000/svg" viewBox="0 0 88.5 19.48"><path d="M0 1.63A1.63 1.63 0 01.58.55 1.48 1.48 0 011.67.16h1.35c.68 0 .68.06 1.35.06S5.05.1 5.73.1h1.35c.68 0 .68.16 1.36.16s.68.05 1.36.05.68-.09 1.36-.09a1.75 1.75 0 011.17.31 1.54 1.54 0 01.7 1.1 1.59 1.59 0 01-.68 1.12 1.93 1.93 0 01-1.19.53c-.75 0-.75-.31-1.5-.31s-.75.13-1.5.13h-1.5c-.75 0-.75-.1-1.5-.1h-1.5c-.12 0-.36.18-.36.29 0 .78.37.78.37 1.55s-.28.78-.28 1.55.24.78.24 1.55c0 .11-.09.23 0 .23.76 0 .76-.17 1.52-.17H6.7c.77 0 .77.07 1.53.07s.77.07 1.53.07a2.19 2.19 0 011.24.21 1.57 1.57 0 01.32 1.23 1.15 1.15 0 01-.53 1 1.55 1.55 0 01-1.03.42H6.71c-.76 0-.76.12-1.53.12H3.66c-.12 0-.35-.06-.35.06 0 .6.22.6.22 1.2v1.2c0 .6-.19.6-.19 1.2s.32.61.32 1.21c0 .11-.1.27 0 .27.75 0 .75-.29 1.5-.29s.74.22 1.49.22h1.5c.76 0 .76-.22 1.51-.22s.75.26 1.5.26a1.81 1.81 0 011.19.29A1.49 1.49 0 0113 17.7a1.5 1.5 0 01-.64 1.1 1.83 1.83 0 01-1.17.47c-.68 0-.68-.18-1.35-.18s-.68.19-1.36.19S7.78 19 7.1 19H5.74c-.68 0-.67.16-1.35.16S3.71 19.1 3 19.1s-.68.24-1.36.24a1.76 1.76 0 01-1.16-.48c-.23-.26-.19-.71-.19-1.16 0-.67-.14-.67-.14-1.33S.3 15.7.3 15v-2.64c0-.66-.3-.67-.3-1.36s.23-.67.23-1.34V8.32C.23 7.65.14 7.67.14 7S0 6.33 0 5.66V4.32A11.81 11.81 0 000 3a12.31 12.31 0 010-1.37zM18.18 2a1.77 1.77 0 01.53-1.3A1.58 1.58 0 0120 .07a1.73 1.73 0 011.19.57c.31.27.8.46 1.08.94s.24.66.59 1.25.5.5.85 1.09.38.58.73 1.17.29.63.64 1.22.32.61.67 1.2.3.63.65 1.22.25.65.6 1.25.52.49.87 1.08.12.74.48 1.33.41.56.79 1.14h.29c0-.65-.27-.66-.27-1.32s-.07-.66-.07-1.32.33-.66.33-1.32-.22-.66-.22-1.31.07-.66.07-1.32.13-.66.13-1.32-.08-.66-.08-1.32.08-.66.08-1.33-.2-.66-.2-1.32a1.78 1.78 0 01.41-1.21c.28-.3.7-.24 1.17-.24s.9-.08 1.17.23a1.84 1.84 0 01.5 1.2c0 .71-.22.71-.22 1.43s-.07.71-.07 1.42.11.71.11 1.43.08.71.08 1.42v1.43c0 .71.11.71.11 1.43s-.13.71-.13 1.43-.2.71-.2 1.42.26.72.26 1.43v1.44c0 .72-.25.71-.25 1.43s.1 1.16-.2 1.5a2 2 0 01-1.46.59A2.22 2.22 0 0129 19a5 5 0 01-.83-1.23c-.34-.59-.43-.54-.77-1.13s-.3-.63-.64-1.22-.16-.7-.51-1.3-.48-.52-.83-1.11-.29-.62-.64-1.22-.28-.63-.63-1.22-.36-.59-.71-1.18-.44-.59-.77-1.18-.46-.54-.81-1.13-.09-.76-.48-1.33c0 0-.26 0-.26.08a9.9 9.9 0 00.1 1.32c0 .65-.16.65-.16 1.31s.12.66.12 1.32v1.32c0 .66-.05.66-.05 1.32s.16.66.16 1.32-.18.66-.18 1.32.16.66.16 1.32S21 17 21 17.7a1.61 1.61 0 01-.3 1.15 1.39 1.39 0 01-1.11.43 1.36 1.36 0 01-1.06-.48 1.59 1.59 0 01-.51-1.1c0-.71-.1-.71-.1-1.42s.21-.72.21-1.43-.07-.71-.07-1.42S18 12.71 18 12v-1.42c0-.71.06-.72.06-1.43s.11-.72.11-1.43-.23-.72-.23-1.43.17-.71.17-1.43.14-.71.17-1.43-.1-.72-.1-1.43zm20.67 1.24a1.84 1.84 0 01-1.16-.52A1.56 1.56 0 0137 1.63a1.53 1.53 0 01.7-1.08 1.69 1.69 0 011.15-.29c.7 0 .7-.21 1.4-.21s.7.2 1.4.2.7-.19 1.4-.19.7.25 1.4.25.7-.31 1.4-.31.7.33 1.4.33S48 0 48.65 0s.7.29 1.4.29a1.66 1.66 0 011.14.25 1.33 1.33 0 01.57 1.06 1.43 1.43 0 01-.52 1.12 1.83 1.83 0 01-1.19.35c-.63 0-.63.06-1.25.06s-.63-.09-1.27-.09-.63.08-1.26.08c-.11 0 0 0 0 .13 0 .72-.21.72-.21 1.43s-.14.71-.14 1.43.11.71.11 1.43S46 8.28 46 9v1.43c0 .71.28.72.28 1.44s-.12.71-.12 1.43v1.43c0 .72-.15.72-.15 1.44s.27.71.27 1.43a1.85 1.85 0 01-.65 1.2 1.58 1.58 0 01-1.18.53 1.44 1.44 0 01-1.07-.62 1.43 1.43 0 01-.38-1.12v-1.43c0-.72-.15-.71-.15-1.42s.06-.72.06-1.43-.14-.72-.14-1.43.19-.72.19-1.43-.13-.72-.13-1.43.08-.72.08-1.43V6.15c0-.72-.32-.71-.32-1.43s.06-.72.06-1.44c0-.11.07-.08 0-.08-.62 0-.62-.12-1.25-.12A10.83 10.83 0 0040.11 3c-.64 0-.63.24-1.26.24zm28.24 15.05c-.29-.57-.33-.55-.62-1.11s-.13-.65-.42-1.21l-.57-1.14c-.29-.56-.53-.44-.82-1s-.23-.59-.52-1.16 0-.8-.52-1.15-.58-.11-1.17-.11-.59.1-1.19.1-.59-.05-1.18-.05a.23.23 0 00-.23.2v5.94a2.06 2.06 0 01-.32 1.34 1.79 1.79 0 01-1.32.37 1.84 1.84 0 01-1.29-.31 2.07 2.07 0 01-.34-1.36v-1.33c0-.67.16-.66.16-1.33v-2.65c0-.67.05-.66.05-1.33V9.67c0-.67-.16-.66-.16-1.33s.23-.66.23-1.33-.12-.66-.12-1.33-.28-.68-.28-1.38.16-.67.16-1.33.08-.67.08-1.34A1.44 1.44 0 0157 .57a1.51 1.51 0 011.07-.5c.77 0 .77.15 1.54.15s.79-.07 1.56-.07h1.54c.77 0 .77-.14 1.54-.14a7 7 0 011.3.38 6.55 6.55 0 011.29.27 6.55 6.55 0 011.29.45c.37.26.5.78.79 1.12s.72.58.92 1a6 6 0 01.31 1.31 6.27 6.27 0 01.32 1.31 6 6 0 01-.34 1.28 5.79 5.79 0 01-.28 1.29c-.2.39-.65.61-.93.94a5.12 5.12 0 01-.91.89 5.84 5.84 0 01-1.1.73c.11.65.34.57.65 1.15s.14.67.45 1.25.51.47.82 1.05.42.52.73 1.1.33.58.64 1.16a2.39 2.39 0 01.18 1.09 1.7 1.7 0 01-.51 1.16 1.66 1.66 0 01-1.17.32 1.62 1.62 0 01-1.61-.97zm0-12.46a2.69 2.69 0 00-.41-1.41 2.53 2.53 0 00-1-1.12 3.64 3.64 0 00-1.54-.3c-.68 0-.68.27-1.35.27s-.68-.06-1.36-.06h-1.35c-.11 0-.26 0-.26.13 0 .63.11.63.11 1.27v3.8a.24.24 0 00.24.2h2.7c.67 0 .68-.14 1.36-.14a3.54 3.54 0 001.45-.13 2.38 2.38 0 00.94-1.09 2.54 2.54 0 00.44-1.42zm12.78 11.76c0-.62-.25-.62-.25-1.24s.07-.61.07-1.23v-1.24c0-.62-.13-.62-.13-1.24s.23-.61.07-1.21-.3-.53-.61-1.1-.29-.57-.61-1.13-.2-.63-.51-1.19-.22-.62-.53-1.19-.61-.4-.92-1-.13-.62-.45-1.18-.3-.58-.61-1.14-.5-.47-.81-1a2.19 2.19 0 01-.25-1c0-.44.41-.71.69-1a1.44 1.44 0 011-.45A1.46 1.46 0 0177.4 1c.33.6.31.61.63 1.21s.31.61.63 1.2.6.45.93 1 .28.62.61 1.21.21.66.54 1.26.42.54.78 1.12c0 0 0 .15.06.12.36-.58.13-.71.45-1.31s.51-.5.83-1.1.23-.64.55-1.24.51-.5.83-1.09.27-.63.6-1.23.37-.57.7-1.18a1.31 1.31 0 011.31-.8 1.27 1.27 0 011 .33c.27.27.65.55.65 1a2.11 2.11 0 01-.32.93c-.32.57-.54.44-.85 1s0 .72-.35 1.28-.49.46-.8 1-.4.51-.72 1.08 0 .73-.33 1.29-.57.42-.88 1-.2.63-.52 1.2-.61.46-.78 1.08.23.65.23 1.27-.07.62-.07 1.23-.21.62-.21 1.24v1.24c0 .62.25.62.25 1.24a2 2 0 01-.39 1.35 1.92 1.92 0 01-1.33.54 1.89 1.89 0 01-1.29-.57 2 2 0 01-.27-1.31z" fill="#00cde5" data-name="レイヤー 2"/></svg>