<svg xmlns="http://www.w3.org/2000/svg" viewBox="0 0 234.39 24.7"><defs><style>.cls-1{fill:#fff}</style></defs><g id="レイヤー_2" data-name="レイヤー 2"><g id="design"><path class="cls-1" d="M10.93 1.9c0-.75.53-1 1.21-1s1.59.29 1.59 1v1.84c0 .92.09.92.09 1.84s-.89 1.15-.27 1.83.83-.15 1.66-.15 1.11.78 1.67.16-.19-.92-.19-1.84-.05-.92-.05-1.84V1.9c0-.75 1-.89 1.63-.89s1.65.14 1.65.89c0 .92-.05.92-.05 1.84s-.07.92-.07 1.84-.87 1.25-.2 1.89 1 0 2 0 1-.07 1.93-.07c.71 0 .93.59.93 1.24s-.22 1-.93 1c-1 0-1 .43-1.93.43s-1.2-.67-1.94-.07-.3.76-.3 1.6.39.84.39 1.68-.28.85-.28 1.69a4.15 4.15 0 01-.16 1.58 2.11 2.11 0 01-1.08 1.22 5 5 0 01-1.65.09c-.7 0-.7.22-1.4.22s-.7-.22-1.41-.22a4.94 4.94 0 01-1.64-.11 2.29 2.29 0 01-1.3-1.1 4.72 4.72 0 01-.16-1.65c0-.84.21-.84.21-1.68s-.39-.84-.39-1.69.93-1.16.29-1.71-1 0-2 0-1.27-.71-2 0 0 1 0 1.91.06.94.06 1.88v1.89c0 .94.22.94.22 1.89s.06.95.06 1.89.06 1.26 1.28 1.26c.88 0 .88.4 1.76.4s.88-.22 1.76-.22.87.19 1.75.19.88-.43 1.76-.43h1.76c.88 0 .92.42 1.81.42s.88-.13 1.76-.13.88.09 1.76.09c.7 0 .84.52.84 1.17s-.14 1.29-.84 1.29c-.9 0-.9-.1-1.8-.1s-.91-.11-1.81-.11-.9.35-1.8.35-.91-.19-1.81-.19-.9.14-1.8.14-.91-.07-1.81-.07H8.06A6.5 6.5 0 016.53 23a3 3 0 01-1.4-.51 2.24 2.24 0 01-.7-1.27 5.06 5.06 0 01-.25-1.51c0-1-.37-1-.37-1.95s.12-1 .12-1.94.11-1 .11-2 .21-1 .21-2 .26-1.09-.34-1.86c-.46-.6-.64.09-1.39.09S1.76 9.86 1 9.86a1 1 0 01-1-1.17C0 8 .33 7.34 1 7.34s.75.21 1.51.21.86.3 1.35-.27 0-.73 0-1.6S4 4.82 4 4s.23-.87.23-1.74.53-1 1.23-1S7 1.46 7 2.21s-.24.87-.24 1.79-.11.86-.11 1.73S6.3 6.77 7 7.34s.9-.14 1.87-.14 1.31 1 2 .29-.07-1-.07-1.91-.24-.93-.18-1.85.31-.91.31-1.83zm2.47 7.94c-.56.51 0 .88 0 1.65s.29.76.29 1.52v1.53c0 .76 0 .61.65.61.83 0 .83.27 1.66.27.68 0 .68-.21.68-.88s.16-.76.16-1.53-.19-.76-.19-1.52.59-.84 0-1.36-.76.27-1.57.08-1.08-.94-1.68-.37z"/><path class="cls-1" d="M10.93 1.9c0-.75.53-1 1.21-1s1.59.29 1.59 1v1.84c0 .92.09.92.09 1.84s-.89 1.15-.27 1.83.83-.15 1.66-.15 1.11.78 1.67.16-.19-.92-.19-1.84-.05-.92-.05-1.84V1.9c0-.75 1-.89 1.63-.89s1.65.14 1.65.89c0 .92-.05.92-.05 1.84s-.07.92-.07 1.84-.87 1.25-.2 1.89 1 0 2 0 1-.07 1.93-.07c.71 0 .93.59.93 1.24s-.22 1-.93 1c-1 0-1 .43-1.93.43s-1.2-.67-1.94-.07-.3.76-.3 1.6.39.84.39 1.68-.28.85-.28 1.69a4.15 4.15 0 01-.16 1.58 2.11 2.11 0 01-1.08 1.22 5 5 0 01-1.65.09c-.7 0-.7.22-1.4.22s-.7-.22-1.41-.22a4.94 4.94 0 01-1.64-.11 2.29 2.29 0 01-1.3-1.1 4.72 4.72 0 01-.16-1.65c0-.84.21-.84.21-1.68s-.39-.84-.39-1.69.93-1.16.29-1.71-1 0-2 0-1.27-.71-2 0 0 1 0 1.91.06.94.06 1.88v1.89c0 .94.22.94.22 1.89s.06.95.06 1.89.06 1.26 1.28 1.26c.88 0 .88.4 1.76.4s.88-.22 1.76-.22.87.19 1.75.19.88-.43 1.76-.43h1.76c.88 0 .92.42 1.81.42s.88-.13 1.76-.13.88.09 1.76.09c.7 0 .84.52.84 1.17s-.14 1.29-.84 1.29c-.9 0-.9-.1-1.8-.1s-.91-.11-1.81-.11-.9.35-1.8.35-.91-.19-1.81-.19-.9.14-1.8.14-.91-.07-1.81-.07H8.06A6.5 6.5 0 016.53 23a3 3 0 01-1.4-.51 2.24 2.24 0 01-.7-1.27 5.06 5.06 0 01-.25-1.51c0-1-.37-1-.37-1.95s.12-1 .12-1.94.11-1 .11-2 .21-1 .21-2 .26-1.09-.34-1.86c-.46-.6-.64.09-1.39.09S1.76 9.86 1 9.86a1 1 0 01-1-1.17C0 8 .33 7.34 1 7.34s.75.21 1.51.21.86.3 1.35-.27 0-.73 0-1.6S4 4.82 4 4s.23-.87.23-1.74.53-1 1.23-1S7 1.46 7 2.21s-.24.87-.24 1.79-.11.86-.11 1.73S6.3 6.77 7 7.34s.9-.14 1.87-.14 1.31 1 2 .29-.07-1-.07-1.91-.24-.93-.18-1.85.31-.91.31-1.83zm2.47 7.94c-.56.51 0 .88 0 1.65s.29.76.29 1.52v1.53c0 .76 0 .61.65.61.83 0 .83.27 1.66.27.68 0 .68-.21.68-.88s.16-.76.16-1.53-.19-.76-.19-1.52.59-.84 0-1.36-.76.27-1.57.08-1.08-.94-1.68-.37zm21.28 2.21a7 7 0 01-1.68-.29 2.49 2.49 0 01-1.55-1A3.94 3.94 0 0131.16 9V7.32c0-.84-.16-.81-.16-1.66s.29-.84.29-1.68a3.42 3.42 0 01.24-1.73A2.49 2.49 0 0133 1.46a7.19 7.19 0 011.68 0c.89 0 .89-.48 1.77-.48s.89.05 1.78.05h3.55c.89 0 .89.38 1.78.38s.89-.06 1.78-.06a8.07 8.07 0 011.71 0 2 2 0 011.18 1.09A2.61 2.61 0 0148.76 4c0 .84-.09.84-.09 1.68s-.13.84-.13 1.68.53.84.53 1.69a3.65 3.65 0 01-.39 1.81c-.28.45-1 .42-1.68.6a5.2 5.2 0 01-1.66.57 4.72 4.72 0 00-1.76.06c.41.33.9.29 1.39.62s.72.92 1.22 1.21 1.05.4 1.57.64.94.64 1.47.85 1.18 0 1.72.21a1.42 1.42 0 01.93 1.38 1.18 1.18 0 01-1.29 1.19c-.18 0-.35.11-.56 0-.59-.2-1.26-.22-1.83-.47s-1.07-.67-1.62-1-1.33-.72-1.86-1.05c-.31.89.07 1 .07 2s.37.94.37 1.88-.2.94-.2 1.88.24.94.24 1.88c0 .73-.92 1.35-1.63 1.35a1.29 1.29 0 01-1.23-1.35c0-1-.08-1-.08-1.9s-.34-.95-.34-1.9.33-.95.33-1.91-.25-.91-.25-1.87c0-.62.55-1 1.15-1.07a19.33 19.33 0 01-1.34-1.5c-.52-.47-1.23-.67-1.69-1.2-.26-.14-.23-.19-.49-.05-.46.53-1.08.84-1.58 1.32s-.85 1-1.38 1.49c.57.1 1.09.44 1.09 1.07v1a10.65 10.65 0 01-.16 1.83 8.13 8.13 0 01-.73 1.68 6.93 6.93 0 01-.87 1.54c-.36.48-.53 1.17-1 1.56a9.91 9.91 0 01-1.71.75 1.37 1.37 0 01-.77.06c-.78 0-1.07-.36-1.07-1 0-.44-.11-1 .44-1.3s1.17-.28 1.54-.61.38-1.06.63-1.53a4.84 4.84 0 00.5-1.43 8.19 8.19 0 00.14-1.55c0-.38.6-.67.3-.9-.52.35-1.24.7-1.77 1s-1.09.6-1.64.87-1 .82-1.57 1.06a1.89 1.89 0 01-.72.11c-.78 0-1.11-.77-1.11-1.4 0-.47.18-.72.86-1s.85-.93 1.36-1.16 1.06-.41 1.56-.68 1.23-.19 1.7-.5.84-.82 1.28-1.16.85-.83 1.26-1.22c-.72-.35-.8.25-1.53.24zm3.65-6.72c.77-.72.72-1 .05-1.86s-.77.16-1.63.16-.87-.18-1.73-.18-1 .14-1 .71-.51.76.06 1.09c1 .58 1 .06 2.11.25s1.32.6 2.14-.17zm0 4.24c.67-.83.85-1.17.08-1.91s-1 .16-2.16.16S35 7.06 34 7.63c-.57.33 0 .6.05 1.27s.31.5 1 .53a6.4 6.4 0 011.73.29c.8.16.98.52 1.53-.15zm3-4.21c.5.64.65 0 1.46 0s.81-.11 1.63-.11 1 .7 1.59.19 0-.6 0-1.25-.1-.53-1-.53-1-.29-1.92-.29-1-.27-1.86.15-.52 1 .12 1.84zm0 2.34c-.65.85-.8 1.13-.08 1.92s.86-.16 1.83-.16 1 .18 1.92.18 1-.15 1-.74.42-.7-.09-1.12-.64-.22-1.46-.22-.86.31-1.66.16-.94-.66-1.43-.02z"/><path class="cls-1" d="M34.68 12.05a7 7 0 01-1.68-.29 2.49 2.49 0 01-1.55-1A3.94 3.94 0 0131.16 9V7.32c0-.84-.16-.81-.16-1.66s.29-.84.29-1.68a3.42 3.42 0 01.24-1.73A2.49 2.49 0 0133 1.46a7.19 7.19 0 011.68 0c.89 0 .89-.48 1.77-.48s.89.05 1.78.05h3.55c.89 0 .89.38 1.78.38s.89-.06 1.78-.06a8.07 8.07 0 011.71 0 2 2 0 011.18 1.09A2.61 2.61 0 0148.76 4c0 .84-.09.84-.09 1.68s-.13.84-.13 1.68.53.84.53 1.69a3.65 3.65 0 01-.39 1.81c-.28.45-1 .42-1.68.6a5.2 5.2 0 01-1.66.57 4.72 4.72 0 00-1.76.06c.41.33.9.29 1.39.62s.72.92 1.22 1.21 1.05.4 1.57.64.94.64 1.47.85 1.18 0 1.72.21a1.42 1.42 0 01.93 1.38 1.18 1.18 0 01-1.29 1.19c-.18 0-.35.11-.56 0-.59-.2-1.26-.22-1.83-.47s-1.07-.67-1.62-1-1.33-.72-1.86-1.05c-.31.89.07 1 .07 2s.37.94.37 1.88-.2.94-.2 1.88.24.94.24 1.88c0 .73-.92 1.35-1.63 1.35a1.29 1.29 0 01-1.23-1.35c0-1-.08-1-.08-1.9s-.34-.95-.34-1.9.33-.95.33-1.91-.25-.91-.25-1.87c0-.62.55-1 1.15-1.07a19.33 19.33 0 01-1.34-1.5c-.52-.47-1.23-.67-1.69-1.2-.26-.14-.23-.19-.49-.05-.46.53-1.08.84-1.58 1.32s-.85 1-1.38 1.49c.57.1 1.09.44 1.09 1.07v1a10.65 10.65 0 01-.16 1.83 8.13 8.13 0 01-.73 1.68 6.93 6.93 0 01-.87 1.54c-.36.48-.53 1.17-1 1.56a9.91 9.91 0 01-1.71.75 1.37 1.37 0 01-.77.06c-.78 0-1.07-.36-1.07-1 0-.44-.11-1 .44-1.3s1.17-.28 1.54-.61.38-1.06.63-1.53a4.84 4.84 0 00.5-1.43 8.19 8.19 0 00.14-1.55c0-.38.6-.67.3-.9-.52.35-1.24.7-1.77 1s-1.09.6-1.64.87-1 .82-1.57 1.06a1.89 1.89 0 01-.72.11c-.78 0-1.11-.77-1.11-1.4 0-.47.18-.72.86-1s.85-.93 1.36-1.16 1.06-.41 1.56-.68 1.23-.19 1.7-.5.84-.82 1.28-1.16.85-.83 1.26-1.22c-.72-.35-.8.25-1.53.24zm3.65-6.72c.77-.72.72-1 .05-1.86s-.77.16-1.63.16-.87-.18-1.73-.18-1 .14-1 .71-.51.76.06 1.09c1 .58 1 .06 2.11.25s1.32.6 2.14-.17zm0 4.24c.67-.83.85-1.17.08-1.91s-1 .16-2.16.16S35 7.06 34 7.63c-.57.33 0 .6.05 1.27s.31.5 1 .53a6.4 6.4 0 011.73.29c.8.16.98.52 1.53-.15zm3-4.21c.5.64.65 0 1.46 0s.81-.11 1.63-.11 1 .7 1.59.19 0-.6 0-1.25-.1-.53-1-.53-1-.29-1.92-.29-1-.27-1.86.15-.52 1 .12 1.84zm0 2.34c-.65.85-.8 1.13-.08 1.92s.86-.16 1.83-.16 1 .18 1.92.18 1-.15 1-.74.42-.7-.09-1.12-.64-.22-1.46-.22-.86.31-1.66.16-.94-.66-1.43-.02zm16.37 6.47c0-.61-.44-1.25-.34-1.83s.73-1.06.93-1.62A10.25 10.25 0 0159 9.08c.31-.52.35-1.23.74-1.69a12.34 12.34 0 011.35-1.25 13.06 13.06 0 011.63-.82c.51-.3.89-.9 1.45-1.13a12.39 12.39 0 011.76-.53c.57-.15 1.23.14 1.84.07a14.71 14.71 0 011.78-.32 16.38 16.38 0 011.93-.12c.66.1 1.18.68 1.76.86a10.64 10.64 0 011.76.54 8.82 8.82 0 011.68.95 8.74 8.74 0 011.21 1.5A8.64 8.64 0 0179 8.74a9.78 9.78 0 01.61 1.85c.12.61-.26 1.29-.26 1.95a11.53 11.53 0 01.08 1.84 10 10 0 01-.63 1.74 9 9 0 01-.72 1.69A9.23 9.23 0 0177 19.28a9.56 9.56 0 01-1.39 1.22 10.9 10.9 0 01-1.58 1 14.48 14.48 0 01-1.69.77 2 2 0 01-.63.07 1.58 1.58 0 01-1.54-1.55c0-.57.48-.9 1.26-1.18.63-.23 1-.87 1.51-1.15a9.62 9.62 0 001.67-.82 6.29 6.29 0 001.09-1.51 6.23 6.23 0 00.79-1.69c.12-.57-.22-1.21-.22-1.86a8 8 0 00.09-1.67 6.82 6.82 0 00-.6-1.56 5.88 5.88 0 00-1-1.29 6.2 6.2 0 00-1.27-1.26 7.6 7.6 0 00-1.64-.45 8.68 8.68 0 00-1.74-.42c0 .65 0 1.39-.11 2s0 1.31-.08 1.93-.63 1.19-.79 1.8.1 1.38-.1 2a18.13 18.13 0 01-.75 1.79A14.38 14.38 0 0167.16 17 8.38 8.38 0 0166 18.7a5 5 0 01-1.57 1.36 5.4 5.4 0 01-2.07.18 4.55 4.55 0 01-1.74-.17 4.64 4.64 0 01-1.62-.88 5.71 5.71 0 01-.91-1.55 7.24 7.24 0 01-.22-1.76 9 9 0 01-.17-1.71zm2.48 0a4.49 4.49 0 00.81 2c.35.87.72 1.56 1.32 1.56a2.34 2.34 0 001.46-.73c.3-.27.3-.88.61-1.42a14.61 14.61 0 00.79-1.42 15.64 15.64 0 00.83-1.42c.17-.51 0-1.14.12-1.69s.3-1 .41-1.58.59-1 .67-1.57-.09-1.14 0-1.7a8.58 8.58 0 00-1.74.8c-.58.26-1.35.18-1.85.55A9.17 9.17 0 0062.35 9a8.15 8.15 0 00-.9 1.64 8.14 8.14 0 00-.77 1.7 8.59 8.59 0 00-.5 1.83z"/><path class="cls-1" d="M57.7 14.17c0-.61-.44-1.25-.34-1.83s.73-1.06.93-1.62A10.25 10.25 0 0159 9.08c.31-.52.35-1.23.74-1.69a12.34 12.34 0 011.35-1.25 13.06 13.06 0 011.63-.82c.51-.3.89-.9 1.45-1.13a12.39 12.39 0 011.76-.53c.57-.15 1.23.14 1.84.07a14.71 14.71 0 011.78-.32 16.38 16.38 0 011.93-.12c.66.1 1.18.68 1.76.86a10.64 10.64 0 011.76.54 8.82 8.82 0 011.68.95 8.74 8.74 0 011.21 1.5A8.64 8.64 0 0179 8.74a9.78 9.78 0 01.61 1.85c.12.61-.26 1.29-.26 1.95a11.53 11.53 0 01.08 1.84 10 10 0 01-.63 1.74 9 9 0 01-.72 1.69A9.23 9.23 0 0177 19.28a9.56 9.56 0 01-1.39 1.22 10.9 10.9 0 01-1.58 1 14.48 14.48 0 01-1.69.77 2 2 0 01-.63.07 1.58 1.58 0 01-1.54-1.55c0-.57.48-.9 1.26-1.18.63-.23 1-.87 1.51-1.15a9.62 9.62 0 001.67-.82 6.29 6.29 0 001.09-1.51 6.23 6.23 0 00.79-1.69c.12-.57-.22-1.21-.22-1.86a8 8 0 00.09-1.67 6.82 6.82 0 00-.6-1.56 5.88 5.88 0 00-1-1.29 6.2 6.2 0 00-1.27-1.26 7.6 7.6 0 00-1.64-.45 8.68 8.68 0 00-1.74-.42c0 .65 0 1.39-.11 2s0 1.31-.08 1.93-.63 1.19-.79 1.8.1 1.38-.1 2a18.13 18.13 0 01-.75 1.79A14.38 14.38 0 0167.16 17 8.38 8.38 0 0166 18.7a5 5 0 01-1.57 1.36 5.4 5.4 0 01-2.07.18 4.55 4.55 0 01-1.74-.17 4.64 4.64 0 01-1.62-.88 5.71 5.71 0 01-.91-1.55 7.24 7.24 0 01-.22-1.76 9 9 0 01-.17-1.71zm2.48 0a4.49 4.49 0 00.81 2c.35.87.72 1.56 1.32 1.56a2.34 2.34 0 001.46-.73c.3-.27.3-.88.61-1.42a14.61 14.61 0 00.79-1.42 15.64 15.64 0 00.83-1.42c.17-.51 0-1.14.12-1.69s.3-1 .41-1.58.59-1 .67-1.57-.09-1.14 0-1.7a8.58 8.58 0 00-1.74.8c-.58.26-1.35.18-1.85.55A9.17 9.17 0 0062.35 9a8.15 8.15 0 00-.9 1.64 8.14 8.14 0 00-.77 1.7 8.59 8.59 0 00-.5 1.83zM90.57 2.45A1.35 1.35 0 0191.88.93c.76 0 1.24.58 1.24 1.52 0 .65 0 1.3.07 1.92s.31 1.29.35 1.9.06 1.31.13 1.91.23 1.26.33 1.82c.53-.26 1-.71 1.55-1s1.32 0 1.9-.2 1-.81 1.6-1c.16-.06.37.34.52.34a1.21 1.21 0 01.36 2.38c-.57.18-1.18.39-1.77.61s-1.18.43-1.76.68-1.23.37-1.78.65-.85 1.08-1.35 1.39a9.69 9.69 0 00-1.42 1c-.51.47-1.16.7-1.41 1.16a3.51 3.51 0 00-.22 1.79 2 2 0 00.38 1.52c.32.3.88.24 1.55.4a9.33 9.33 0 001.55.23 15.7 15.7 0 001.61.2c.62 0 1.24.27 1.81.24s1.23-.27 1.79-.34 1.27 0 1.81-.12c1.12-.21 1.78.44 1.78 1.25a1.44 1.44 0 01-1.25 1.38 19.1 19.1 0 01-2 .38c-.64.07-1.3.24-2 .27s-1.32.16-2 .16a18.18 18.18 0 01-1.83-.33 11.84 11.84 0 01-1.76-.47 12.26 12.26 0 01-1.85-.19c-.61-.27-.88-.91-1.29-1.3s-1.19-.66-1.41-1.24a6 6 0 01-.11-1.77 6.3 6.3 0 01.68-1.9 5.93 5.93 0 01.66-1.89 9.57 9.57 0 011.33-1.55 18.35 18.35 0 011.77-1.07c-.13-.58-.38-1.2-.49-1.83s-.32-1.18-.4-1.82-.15-1.21-.2-1.85.39-1.24.36-1.87-.14-1.21-.14-1.84zm7.67.39a1 1 0 01.9-1.07c.26 0 .34.39.58.65s.67.72 1 1.13.8.71 1 1.13a1.11 1.11 0 01.13.63 1.06 1.06 0 01-1 1.07 1.26 1.26 0 01-1.1-.48c-.25-.43-.11-1.12-.38-1.49s-1-.55-1.25-.89c-.12-.18.12-.52.12-.68zM101 1a.93.93 0 01.87-1c.28 0 .4.4.66.66a12.6 12.6 0 011 1.06c.31.4.8.66 1 1.06a1.27 1.27 0 01.18.71 1 1 0 01-1 1 1.42 1.42 0 01-1.17-.47c-.26-.4-.13-1.09-.42-1.48s-.95-.55-1.22-.89c-.15-.13.1-.45.1-.65z"/><path class="cls-1" d="M90.57 2.45A1.35 1.35 0 0191.88.93c.76 0 1.24.58 1.24 1.52 0 .65 0 1.3.07 1.92s.31 1.29.35 1.9.06 1.31.13 1.91.23 1.26.33 1.82c.53-.26 1-.71 1.55-1s1.32 0 1.9-.2 1-.81 1.6-1c.16-.06.37.34.52.34a1.21 1.21 0 01.36 2.38c-.57.18-1.18.39-1.77.61s-1.18.43-1.76.68-1.23.37-1.78.65-.85 1.08-1.35 1.39a9.69 9.69 0 00-1.42 1c-.51.47-1.16.7-1.41 1.16a3.51 3.51 0 00-.22 1.79 2 2 0 00.38 1.52c.32.3.88.24 1.55.4a9.33 9.33 0 001.55.23 15.7 15.7 0 001.61.2c.62 0 1.24.27 1.81.24s1.23-.27 1.79-.34 1.27 0 1.81-.12c1.12-.21 1.78.44 1.78 1.25a1.44 1.44 0 01-1.25 1.38 19.1 19.1 0 01-2 .38c-.64.07-1.3.24-2 .27s-1.32.16-2 .16a18.18 18.18 0 01-1.83-.33 11.84 11.84 0 01-1.76-.47 12.26 12.26 0 01-1.85-.19c-.61-.27-.88-.91-1.29-1.3s-1.19-.66-1.41-1.24a6 6 0 01-.11-1.77 6.3 6.3 0 01.68-1.9 5.93 5.93 0 01.66-1.89 9.57 9.57 0 011.33-1.55 18.35 18.35 0 011.77-1.07c-.13-.58-.38-1.2-.49-1.83s-.32-1.18-.4-1.82-.15-1.21-.2-1.85.39-1.24.36-1.87-.14-1.21-.14-1.84zm7.67.39a1 1 0 01.9-1.07c.26 0 .34.39.58.65s.67.72 1 1.13.8.71 1 1.13a1.11 1.11 0 01.13.63 1.06 1.06 0 01-1 1.07 1.26 1.26 0 01-1.1-.48c-.25-.43-.11-1.12-.38-1.49s-1-.55-1.25-.89c-.12-.18.12-.52.12-.68zM101 1a.93.93 0 01.87-1c.28 0 .4.4.66.66a12.6 12.6 0 011 1.06c.31.4.8.66 1 1.06a1.27 1.27 0 01.18.71 1 1 0 01-1 1 1.42 1.42 0 01-1.17-.47c-.26-.4-.13-1.09-.42-1.48s-.95-.55-1.22-.89c-.15-.13.1-.45.1-.65zm10.11 15.83a7.47 7.47 0 01.26-2 1.61 1.61 0 011.61-1A1.24 1.24 0 01114.3 15c0 .11.19.26.16.39-.1.39-.49.89-.49 1.28a2.15 2.15 0 00.82 1.62 3.86 3.86 0 001.66.51 10.56 10.56 0 001.73.3c.52 0 1.11.17 1.77.17s1.2-.09 1.78-.13 1.22 0 1.8 0 1.17-.36 1.75-.45 1.18-.19 1.75-.31h.43a1.39 1.39 0 011.35 1.47 1.59 1.59 0 01-1.22 1.61c-.61.14-1.26.14-1.91.24s-1.27 0-1.92 0-1.24.27-1.89.31-1.27.22-1.92.22-1.34-.15-1.94-.19a14.88 14.88 0 01-1.89-.4 9.69 9.69 0 01-1.81-.55 5.05 5.05 0 01-1.6-.94 3.9 3.9 0 01-1.25-1.44 5.52 5.52 0 01-.35-1.88zm9-13c.57 0 1.11 0 1.64-.06s1.13 0 1.64 0 1.17 0 1.65-.05A1.41 1.41 0 01126.76 5c0 .62-.51 1-1.31 1.18-.56.08-1.12.33-1.75.39s-1.16.26-1.77.28-1.19 0-1.8 0-1.27-.13-1.9-.17-1.28 0-1.89-.08a18.67 18.67 0 01-1.85-.42c-.78-.18-1.25-.67-1.25-1.29A1.52 1.52 0 01115 3.32c.51.11 1.07.23 1.67.31s1.1.21 1.69.25 1.16-.1 1.74-.1z"/><path class="cls-1" d="M111.11 16.83a7.47 7.47 0 01.26-2 1.61 1.61 0 011.61-1A1.24 1.24 0 01114.3 15c0 .11.19.26.16.39-.1.39-.49.89-.49 1.28a2.15 2.15 0 00.82 1.62 3.86 3.86 0 001.66.51 10.56 10.56 0 001.73.3c.52 0 1.11.17 1.77.17s1.2-.09 1.78-.13 1.22 0 1.8 0 1.17-.36 1.75-.45 1.18-.19 1.75-.31h.43a1.39 1.39 0 011.35 1.47 1.59 1.59 0 01-1.22 1.61c-.61.14-1.26.14-1.91.24s-1.27 0-1.92 0-1.24.27-1.89.31-1.27.22-1.92.22-1.34-.15-1.94-.19a14.88 14.88 0 01-1.89-.4 9.69 9.69 0 01-1.81-.55 5.05 5.05 0 01-1.6-.94 3.9 3.9 0 01-1.25-1.44 5.52 5.52 0 01-.35-1.88zm9-13c.57 0 1.11 0 1.64-.06s1.13 0 1.64 0 1.17 0 1.65-.05A1.41 1.41 0 01126.76 5c0 .62-.51 1-1.31 1.18-.56.08-1.12.33-1.75.39s-1.16.26-1.77.28-1.19 0-1.8 0-1.27-.13-1.9-.17-1.28 0-1.89-.08a18.67 18.67 0 01-1.85-.42c-.78-.18-1.25-.67-1.25-1.29A1.52 1.52 0 01115 3.32c.51.11 1.07.23 1.67.31s1.1.21 1.69.25 1.16-.1 1.74-.1zm19.31 17.6c-.36.57-1.06.46-1.58.46-.75 0-1.32-.25-1.32-1a1.65 1.65 0 01.27-.73c.29-.51.23-1.23.5-1.79s.74-1 1-1.54.36-1.16.58-1.74.36-1.15.56-1.73.3-1.17.48-1.76.74-1.22.9-1.81c-.53.07-1.25.11-1.76.19s-1 .25-1.53.36A1.13 1.13 0 01136 9.1a1.31 1.31 0 011.06-1.4c.67-.13 1.38-.13 2.08-.23s1.51-.08 2.19-.16c.1-.52-.05-1.23 0-1.77s.35-1 .43-1.56.16-1.07.22-1.6a1.32 1.32 0 011.37-1.24 1.21 1.21 0 011.26 1.47c-.08.71 0 1.45-.11 2.17s-.35 1.54-.5 2.22c.52 0 1.19-.17 1.61-.17a7.53 7.53 0 011.67.19 3.23 3.23 0 011.41.84 3.11 3.11 0 01.86 1.34 6 6 0 01.43 1.58 15.63 15.63 0 010 1.67c0 .73.12 1.43.08 2.1s.19 1.47.1 2.12-.78 1.33-.95 1.93a14.88 14.88 0 01-.29 1.68 5.29 5.29 0 01-.79 1.56c-.41.4-1.07.41-1.64.58a5.64 5.64 0 01-1.65.38 14 14 0 01-1.79-.08c-.88-.13-1.05-.91-1.05-1.53 0-.78.31-1.26 1.29-1.13.5.05.92-.08 1.47-.08s.79-.3 1.11-.72a3.43 3.43 0 00.66-1.2 14.71 14.71 0 00.56-1.83c.09-.59.19-1.23.23-1.89s-.12-1.26-.12-1.91a7.52 7.52 0 00-.13-2c-.24-.76-.72-.79-1.51-.79-.57 0-1.25-.23-1.95-.18-.14.58-.38 1.18-.53 1.75s-.39 1.14-.56 1.71-.11 1.23-.3 1.79-.52 1.1-.73 1.65-.23 1.22-.46 1.76-.47 1.13-.73 1.65-.59 1.15-.88 1.66zm19.15-10.7c.15.31-.25.71-.25 1 0 .91-.46 1.41-1.24 1.41a1.39 1.39 0 01-1.28-1c-.24-.47-.85-.76-1.14-1.23s-.36-1.06-.66-1.51-.73-.82-1.06-1.24-.74-.82-1.09-1.2a1.87 1.87 0 01-.54-1c0-.73 1-1.09 1.74-1.09a1.4 1.4 0 011.09.4c.41.39.84.78 1.24 1.24s.73.91 1.07 1.39.81.91 1.11 1.39.77.96 1.01 1.44z"/><path class="cls-1" d="M139.42 21.43c-.36.57-1.06.46-1.58.46-.75 0-1.32-.25-1.32-1a1.65 1.65 0 01.27-.73c.29-.51.23-1.23.5-1.79s.74-1 1-1.54.36-1.16.58-1.74.36-1.15.56-1.73.3-1.17.48-1.76.74-1.22.9-1.81c-.53.07-1.25.11-1.76.19s-1 .25-1.53.36A1.13 1.13 0 01136 9.1a1.31 1.31 0 011.06-1.4c.67-.13 1.38-.13 2.08-.23s1.51-.08 2.19-.16c.1-.52-.05-1.23 0-1.77s.35-1 .43-1.56.16-1.07.22-1.6a1.32 1.32 0 011.37-1.24 1.21 1.21 0 011.26 1.47c-.08.71 0 1.45-.11 2.17s-.35 1.54-.5 2.22c.52 0 1.19-.17 1.61-.17a7.53 7.53 0 011.67.19 3.23 3.23 0 011.41.84 3.11 3.11 0 01.86 1.34 6 6 0 01.43 1.58 15.63 15.63 0 010 1.67c0 .73.12 1.43.08 2.1s.19 1.47.1 2.12-.78 1.33-.95 1.93a14.88 14.88 0 01-.29 1.68 5.29 5.29 0 01-.79 1.56c-.41.4-1.07.41-1.64.58a5.64 5.64 0 01-1.65.38 14 14 0 01-1.79-.08c-.88-.13-1.05-.91-1.05-1.53 0-.78.31-1.26 1.29-1.13.5.05.92-.08 1.47-.08s.79-.3 1.11-.72a3.43 3.43 0 00.66-1.2 14.71 14.71 0 00.56-1.83c.09-.59.19-1.23.23-1.89s-.12-1.26-.12-1.91a7.52 7.52 0 00-.13-2c-.24-.76-.72-.79-1.51-.79-.57 0-1.25-.23-1.95-.18-.14.58-.38 1.18-.53 1.75s-.39 1.14-.56 1.71-.11 1.23-.3 1.79-.52 1.1-.73 1.65-.23 1.22-.46 1.76-.47 1.13-.73 1.65-.59 1.15-.88 1.66zm19.15-10.7c.15.31-.25.71-.25 1 0 .91-.46 1.41-1.24 1.41a1.39 1.39 0 01-1.28-1c-.24-.47-.85-.76-1.14-1.23s-.36-1.06-.66-1.51-.73-.82-1.06-1.24-.74-.82-1.09-1.2a1.87 1.87 0 01-.54-1c0-.73 1-1.09 1.74-1.09a1.4 1.4 0 011.09.4c.41.39.84.78 1.24 1.24s.73.91 1.07 1.39.81.91 1.11 1.39.77.96 1.01 1.44zm9.9 2.68a10.75 10.75 0 011.3-1 12.76 12.76 0 011.51-.66 14.15 14.15 0 011.59-.38 12.55 12.55 0 011.58-.3c.55-.09 1.06-.56 1.59-.56a10 10 0 011.89.25 7.72 7.72 0 011.77.65 6.18 6.18 0 011.59 1 4.84 4.84 0 011.06 1.59 5 5 0 01.19 1.86 7.07 7.07 0 010 1.95c-.18.61-.79 1-1.17 1.55a6.35 6.35 0 01-1.17 1.49 9.9 9.9 0 01-1.69.87 11.13 11.13 0 01-1.65 1 15.26 15.26 0 01-1.84.61c-.6.12-1.29-.11-2 0-1.07.13-1.69-.49-1.69-1.24a1.45 1.45 0 011.37-1.42c.66-.08 1.27-.14 1.82-.26a11.72 11.72 0 001.77-.51 6.58 6.58 0 001.58-.92 4.67 4.67 0 001.42-1.21 4 4 0 00.5-1.85 2.57 2.57 0 00-.79-1.52 2.86 2.86 0 00-1.3-1c-.45-.14-1 .13-1.66.13a8.58 8.58 0 00-1.83-.06 9.84 9.84 0 00-1.7.7 10.65 10.65 0 00-1.81.52 10.72 10.72 0 00-1.41 1.22 10.94 10.94 0 00-1.19 1.41 2.05 2.05 0 01-1.45.72 1.77 1.77 0 01-1.17-.76A1.59 1.59 0 01165 16c.08-.56.38-1.12.48-1.75s.27-1.16.38-1.77 0-1.22.09-1.82.37-1.16.48-1.75-.06-1.25.07-1.84A1.71 1.71 0 01168.22 6c.83 0 1.85.68 1.67 1.61-.14.7-.25 1.36-.38 2s-.74 1.27-.86 1.87-.31 1.38-.43 2a.66.66 0 00.25-.07zm8-10.64a1.71 1.71 0 011 1.47A1.46 1.46 0 01176 5.65c-.23 0-.41-.22-.69-.35-.45-.2-.9-.45-1.38-.65s-1.11 0-1.57-.14-1-.42-1.4-.55a1.37 1.37 0 01-1-1.33A1.61 1.61 0 01171.52 1a4.14 4.14 0 01.45.07c.49.12 1 .42 1.5.59s1.1.09 1.6.29a15.66 15.66 0 011.41.82z"/><path class="cls-1" d="M168.47 13.41a10.75 10.75 0 011.3-1 12.76 12.76 0 011.51-.66 14.15 14.15 0 011.59-.38 12.55 12.55 0 011.58-.3c.55-.09 1.06-.56 1.59-.56a10 10 0 011.89.25 7.72 7.72 0 011.77.65 6.18 6.18 0 011.59 1 4.84 4.84 0 011.06 1.59 5 5 0 01.19 1.86 7.07 7.07 0 010 1.95c-.18.61-.79 1-1.17 1.55a6.35 6.35 0 01-1.17 1.49 9.9 9.9 0 01-1.69.87 11.13 11.13 0 01-1.65 1 15.26 15.26 0 01-1.84.61c-.6.12-1.29-.11-2 0-1.07.13-1.69-.49-1.69-1.24a1.45 1.45 0 011.37-1.42c.66-.08 1.27-.14 1.82-.26a11.72 11.72 0 001.77-.51 6.58 6.58 0 001.58-.92 4.67 4.67 0 001.42-1.21 4 4 0 00.5-1.85 2.57 2.57 0 00-.79-1.52 2.86 2.86 0 00-1.3-1c-.45-.14-1 .13-1.66.13a8.58 8.58 0 00-1.83-.06 9.84 9.84 0 00-1.7.7 10.65 10.65 0 00-1.81.52 10.72 10.72 0 00-1.41 1.22 10.94 10.94 0 00-1.19 1.41 2.05 2.05 0 01-1.45.72 1.77 1.77 0 01-1.17-.76A1.59 1.59 0 01165 16c.08-.56.38-1.12.48-1.75s.27-1.16.38-1.77 0-1.22.09-1.82.37-1.16.48-1.75-.06-1.25.07-1.84A1.71 1.71 0 01168.22 6c.83 0 1.85.68 1.67 1.61-.14.7-.25 1.36-.38 2s-.74 1.27-.86 1.87-.31 1.38-.43 2a.66.66 0 00.25-.07zm8-10.64a1.71 1.71 0 011 1.47A1.46 1.46 0 01176 5.65c-.23 0-.41-.22-.69-.35-.45-.2-.9-.45-1.38-.65s-1.11 0-1.57-.14-1-.42-1.4-.55a1.37 1.37 0 01-1-1.33A1.61 1.61 0 01171.52 1a4.14 4.14 0 01.45.07c.49.12 1 .42 1.5.59s1.1.09 1.6.29a15.66 15.66 0 011.41.82zm23.02 3.58c-.57.08-1.19.3-1.83.39s-1.2.15-1.83.25-1.2.25-1.82.34-1.25-.06-1.86 0-1.21.33-1.82.42-1.22.25-1.82.34c-1.09.16-1.47-.68-1.47-1.49s.15-1.47 1.08-1.57c.57-.08 1.17 0 1.76-.09s1.19.12 1.78 0 1.12-.55 1.71-.62 1.18 0 1.76-.07 1.17-.15 1.75-.22 1.21.17 1.79.11 1.15-.37 1.73-.43 1.18-.07 1.76-.13 1.15-.43 1.72-.48 1.2 0 1.77 0a1.7 1.7 0 011.84 1.49c0 .62-.68 1.13-1.48 1.28-.48.08-.88.54-1.38.73a9 9 0 00-1.45.45 13.66 13.66 0 00-1.5 1.14 12 12 0 00-1.6 1.05 7.41 7.41 0 00-1.08 1.64c-.32.59-.13 1.31-.26 1.9a8.47 8.47 0 00-.34 1.81 4.69 4.69 0 00.37 1.58 3.92 3.92 0 00.62 1.53 4.9 4.9 0 001.21 1.24 8.44 8.44 0 001.61.62c.51.14 1.15-.21 1.75-.14a1.72 1.72 0 011.34 1.8c0 .81-.55 1.36-1.64 1.29a12.48 12.48 0 01-1.84 0A10.33 10.33 0 01200 22a9.27 9.27 0 01-1.64-.9c-.5-.37-.69-1.07-1.09-1.52a7.37 7.37 0 01-1.18-1.39 7.86 7.86 0 01-.66-1.71 8.52 8.52 0 01-.4-1.83 9.07 9.07 0 01.23-1.92 10.22 10.22 0 01.69-1.8 10.82 10.82 0 011-1.59A11.78 11.78 0 01198.28 8a11.61 11.61 0 011.19-1.47c.07-.08.05-.18.02-.18zm4 4.34a.94.94 0 01.95-1 1 1 0 01.7.29 13.26 13.26 0 011.14 1 9.87 9.87 0 01.76 1.33c.18.24.34.36.34.59a1.05 1.05 0 01-1 1.07c-.32 0-.42-.33-.66-.67s-.92-.54-1.23-.9-.59-.84-.91-1.15-.11-.38-.11-.56zm2.58-2.08a.89.89 0 01.94-.94 1.24 1.24 0 01.76.31 11.73 11.73 0 011.12 1 10.31 10.31 0 01.75 1.27c.21.26.4.4.4.66a1 1 0 01-1 1c-.31 0-.45-.32-.71-.65s-.93-.49-1.25-.85-.58-.83-.89-1.14-.14-.45-.14-.66z"/><path class="cls-1" d="M199.49 6.35c-.57.08-1.19.3-1.83.39s-1.2.15-1.83.25-1.2.25-1.82.34-1.25-.06-1.86 0-1.21.33-1.82.42-1.22.25-1.82.34c-1.09.16-1.47-.68-1.47-1.49s.15-1.47 1.08-1.57c.57-.08 1.17 0 1.76-.09s1.19.12 1.78 0 1.12-.55 1.71-.62 1.18 0 1.76-.07 1.17-.15 1.75-.22 1.21.17 1.79.11 1.15-.37 1.73-.43 1.18-.07 1.76-.13 1.15-.43 1.72-.48 1.2 0 1.77 0a1.7 1.7 0 011.84 1.49c0 .62-.68 1.13-1.48 1.28-.48.08-.88.54-1.38.73a9 9 0 00-1.45.45 13.66 13.66 0 00-1.5 1.14 12 12 0 00-1.6 1.05 7.41 7.41 0 00-1.08 1.64c-.32.59-.13 1.31-.26 1.9a8.47 8.47 0 00-.34 1.81 4.69 4.69 0 00.37 1.58 3.92 3.92 0 00.62 1.53 4.9 4.9 0 001.21 1.24 8.44 8.44 0 001.61.62c.51.14 1.15-.21 1.75-.14a1.72 1.72 0 011.34 1.8c0 .81-.55 1.36-1.64 1.29a12.48 12.48 0 01-1.84 0A10.33 10.33 0 01200 22a9.27 9.27 0 01-1.64-.9c-.5-.37-.69-1.07-1.09-1.52a7.37 7.37 0 01-1.18-1.39 7.86 7.86 0 01-.66-1.71 8.52 8.52 0 01-.4-1.83 9.07 9.07 0 01.23-1.92 10.22 10.22 0 01.69-1.8 10.82 10.82 0 011-1.59A11.78 11.78 0 01198.28 8a11.61 11.61 0 011.19-1.47c.07-.08.05-.18.02-.18zm4 4.34a.94.94 0 01.95-1 1 1 0 01.7.29 13.26 13.26 0 011.14 1 9.87 9.87 0 01.76 1.33c.18.24.34.36.34.59a1.05 1.05 0 01-1 1.07c-.32 0-.42-.33-.66-.67s-.92-.54-1.23-.9-.59-.84-.91-1.15-.11-.38-.11-.56zm2.58-2.08a.89.89 0 01.94-.94 1.24 1.24 0 01.76.31 11.73 11.73 0 011.12 1 10.31 10.31 0 01.75 1.27c.21.26.4.4.4.66a1 1 0 01-1 1c-.31 0-.45-.32-.71-.65s-.93-.49-1.25-.85-.58-.83-.89-1.14-.14-.45-.14-.66zm18.78-3.15c.05 0 .29.3.37.3a23.22 23.22 0 002.68-.32 1.29 1.29 0 011.47 1.3 1.17 1.17 0 01-1.23 1.15 12.56 12.56 0 01-1.43.07c-.41 0-.87.38-1.44.38-.23 0-.41-.1-.65-.1-.08.61-.39 1.15-.49 1.75s-.25 1.25-.34 1.86c.13 0 .49-.08.62-.08.67 0 1.39.25 2.07.2a19 19 0 002-.46 1.24 1.24 0 011.52 1.34 1.23 1.23 0 01-1.07 1.32 13.69 13.69 0 01-1.49.28c-.49.06-1 .27-1.5.31s-1 0-1.52 0c-.24 0-.59-.19-.82-.19-.08.91-.27 1.67-.27 2.29a5.86 5.86 0 00.44 2 2.8 2.8 0 001.23 1.66 5.27 5.27 0 002 .1 7.1 7.1 0 001.58-.33 3.4 3.4 0 001.41-.56c.45-.31.91-.52 1.12-1.05a4.3 4.3 0 00.2-1.59 7 7 0 00-.3-1.91c0-.13-.25-.28-.25-.41 0-.78 1-1 1.75-1a1.19 1.19 0 011.34.95 7.75 7.75 0 01.53 2.33 7.42 7.42 0 01-.41 1.8 5.43 5.43 0 01-.63 1.68c-.32.55-.38 1.32-.86 1.72a7 7 0 01-1.7.89 8.24 8.24 0 01-1.82.58 11.65 11.65 0 01-1.91.15 10.25 10.25 0 01-1.79-.11c-.61-.11-1-.72-1.53-1a5 5 0 01-1.48-.85 5.22 5.22 0 01-1-1.42 7.07 7.07 0 01-.3-1.69 9.18 9.18 0 01-.14-1.71 22.14 22.14 0 01-.06-2.65c-.56-.06-1.1-.36-1.58-.44s-1.16.22-1.63.09a1.52 1.52 0 01-1-1.55 1.25 1.25 0 011.31-1.32c.16 0 .24.15.4.21.43.11.91.14 1.4.23s1 .05 1.54.11c.08-.61-.09-1.35 0-2s.35-1.19.45-1.8c-.48 0-1 0-1.4-.12s-.94-.14-1.36-.23a1.69 1.69 0 01-1.38-1.36 1.78 1.78 0 012-1.6c.43.1.85.2 1.32.27s1 .4 1.49.45a5.59 5.59 0 00.37-1.91c.17-.94.07-1 .23-1.89.13-.76.68-1 1.35-1S226 1.07 225.8 2a15 15 0 01-.5 1.7 10.91 10.91 0 00-.45 1.76z"/><path class="cls-1" d="M224.85 5.46c.05 0 .29.3.37.3a23.22 23.22 0 002.68-.32 1.29 1.29 0 011.47 1.3 1.17 1.17 0 01-1.23 1.15 12.56 12.56 0 01-1.43.07c-.41 0-.87.38-1.44.38-.23 0-.41-.1-.65-.1-.08.61-.39 1.15-.49 1.75s-.25 1.25-.34 1.86c.13 0 .49-.08.62-.08.67 0 1.39.25 2.07.2a19 19 0 002-.46 1.24 1.24 0 011.52 1.34 1.23 1.23 0 01-1.07 1.32 13.69 13.69 0 01-1.49.28c-.49.06-1 .27-1.5.31s-1 0-1.52 0c-.24 0-.59-.19-.82-.19-.08.91-.27 1.67-.27 2.29a5.86 5.86 0 00.44 2 2.8 2.8 0 001.23 1.66 5.27 5.27 0 002 .1 7.1 7.1 0 001.58-.33 3.4 3.4 0 001.41-.56c.45-.31.91-.52 1.12-1.05a4.3 4.3 0 00.2-1.59 7 7 0 00-.3-1.91c0-.13-.25-.28-.25-.41 0-.78 1-1 1.75-1a1.19 1.19 0 011.34.95 7.75 7.75 0 01.53 2.33 7.42 7.42 0 01-.41 1.8 5.43 5.43 0 01-.63 1.68c-.32.55-.38 1.32-.86 1.72a7 7 0 01-1.7.89 8.24 8.24 0 01-1.82.58 11.65 11.65 0 01-1.91.15 10.25 10.25 0 01-1.79-.11c-.61-.11-1-.72-1.53-1a5 5 0 01-1.48-.85 5.22 5.22 0 01-1-1.42 7.07 7.07 0 01-.3-1.69 9.18 9.18 0 01-.14-1.71 22.14 22.14 0 01-.06-2.65c-.56-.06-1.1-.36-1.58-.44s-1.16.22-1.63.09a1.52 1.52 0 01-1-1.55 1.25 1.25 0 011.31-1.32c.16 0 .24.15.4.21.43.11.91.14 1.4.23s1 .05 1.54.11c.08-.61-.09-1.35 0-2s.35-1.19.45-1.8c-.48 0-1 0-1.4-.12s-.94-.14-1.36-.23a1.69 1.69 0 01-1.38-1.36 1.78 1.78 0 012-1.6c.43.1.85.2 1.32.27s1 .4 1.49.45a5.59 5.59 0 00.37-1.91c.17-.94.07-1 .23-1.89.13-.76.68-1 1.35-1S226 1.07 225.8 2a15 15 0 01-.5 1.7 10.91 10.91 0 00-.45 1.76z"/></g></g></svg>