<svg xmlns="http://www.w3.org/2000/svg" viewBox="0 0 233.52 190.66"><defs><clipPath id="clip-path"><circle cx="79.11" cy="101.75" r="43.52" transform="rotate(-45 79.107 101.753)" fill="none"/></clipPath><style>.cls-2{fill:#202020}</style></defs><g id="レイヤー_2" data-name="レイヤー 2"><g id="design"><path class="cls-2" d="M8.66 90.82a1.56 1.56 0 01-.66-.13 2 2 0 00-.75-.17 1.58 1.58 0 00-.84.13 1.38 1.38 0 01-.63.13h-1.5a2.65 2.65 0 01-.68-.07 4 4 0 00-.76-.07 3.44 3.44 0 00-1.44.2 1.79 1.79 0 00-.8 1l-.15.33a2.49 2.49 0 00-.35 1.19 4.18 4.18 0 00.06.76 3.79 3.79 0 010 .7 6 6 0 010 .71 6.16 6.16 0 000 .75 5 5 0 01-.05.7 4.18 4.18 0 00-.06.76 3.18 3.18 0 00.09.78 2.55 2.55 0 01.08.68v1.46a1.55 1.55 0 01-.12.66 2.25 2.25 0 00-.14.8v2.91a3.15 3.15 0 00.09.77 2.61 2.61 0 01.08.68v2.91c0 .62.53 1 1.28 1s1.25-.41 1.25-1v-.69a6.09 6.09 0 000-.72v-1.41a3 3 0 00-.08-.75 2.56 2.56 0 01-.07-.67 2.41 2.41 0 01.08-.65 3 3 0 00.09-.75v-1.41a3 3 0 00-.08-.75 3.06 3.06 0 01-.07-.66 1.64 1.64 0 01.11-.64 2.06 2.06 0 00.14-.77 3 3 0 00-.08-.74 2.67 2.67 0 01-.07-.67v-.68a4 4 0 000-.72 2.9 2.9 0 00.05-.71 2.44 2.44 0 01-.08-.66v-1.4c0-.53.36-.8 1.06-.8a4.48 4.48 0 00.65 0 4.16 4.16 0 01.61 0h1.26a4.4 4.4 0 01.61 0h.64a4.48 4.48 0 00.65 0 4.4 4.4 0 01.61 0 1 1 0 001.06-1.11.94.94 0 00-1.09-1.21zM63 104.49a3.39 3.39 0 01-.32-.35 3.72 3.72 0 01-.24-.41c-.24-.44-.55-1-1.15-1a1.23 1.23 0 00-.86.34.83.83 0 01-.6.25 6.45 6.45 0 00-.75 0h-2.14a1.07 1.07 0 01-.63-.19 1.46 1.46 0 00-.83-.24 1.65 1.65 0 00-.81.25c-.26.15-.35.2-.54 0s-.22-.39-.13-.69a2.44 2.44 0 00.11-.7 1.58 1.58 0 01.13-.67 1.86 1.86 0 00.17-.82 1.44 1.44 0 00-.27-.85 1 1 0 01-.21-.63 5.31 5.31 0 010-.72 4.14 4.14 0 00.06-.77 2.25 2.25 0 01.09-.69 2.62 2.62 0 00.11-.79v-1.42a1.84 1.84 0 00-.16-.81 1.78 1.78 0 01-.12-.67 1.54 1.54 0 00-.43-1.08 1.78 1.78 0 00-.91-.74 1.4 1.4 0 01-.39-.33 1.25 1.25 0 00-.8-.48 1.5 1.5 0 00-.85.4 2.13 2.13 0 01-.41.26 3.64 3.64 0 01-.44.1 1.42 1.42 0 00-.91.41 2.14 2.14 0 00-.24 1.28v.18a2.39 2.39 0 00.12.8 1.79 1.79 0 01.11.68 1.6 1.6 0 01-.13.68 2 2 0 00-.15.81 5.81 5.81 0 000 .77 4 4 0 01.05.72 2.81 2.81 0 00.1.79 2.58 2.58 0 01.08.69v1.49a1.4 1.4 0 01-.15.66 1.84 1.84 0 00-.18.82 1.57 1.57 0 00.2.74c.11.22.13.25-.08.45s-.28.18-.49 0a1.46 1.46 0 00-.81-.25 6.43 6.43 0 01-.77 0 6.9 6.9 0 00-.8 0 1.57 1.57 0 00-.89.26 1.12 1.12 0 01-.68.21 2.4 2.4 0 00-.8.16c-.32.12-.49.18-.75-.08s-.15-.28 0-.6a1.73 1.73 0 00.29-.87 5.72 5.72 0 010-.72 4.46 4.46 0 00.05-.77 6.45 6.45 0 000-.75v-.73a1.74 1.74 0 00-.19-.83 1.34 1.34 0 01-.15-.66 4 4 0 00-.07-.77 3 3 0 01-.07-.71 1.14 1.14 0 01.18-.65 1.56 1.56 0 00.22-.83 2.14 2.14 0 01.1-.69 2.68 2.68 0 00.11-.79 1.33 1.33 0 00-.58-.93 2.44 2.44 0 01-.28-.27 1.35 1.35 0 00-.8-.48l-.28-.1a2.49 2.49 0 01-.24-.16 1.78 1.78 0 00-.8-.3h-.14a3.09 3.09 0 00-1.16.15 2.51 2.51 0 00-1.13.74 1.15 1.15 0 00-.12.91 2.59 2.59 0 010 .41 3.77 3.77 0 00.06.7 2.54 2.54 0 010 .8 2.24 2.24 0 01-.16.62 2 2 0 00-.15.85 2.27 2.27 0 01-.09.7 2.7 2.7 0 00-.1.79 6.57 6.57 0 000 .75v.73a2.19 2.19 0 01-.1.69 2.3 2.3 0 00-.13.8 1.19 1.19 0 00.37.86.85.85 0 01.27.62v.11c0 .61 0 .62-.44 1.06s-.36.31-.67.28h-.48a2.18 2.18 0 01-.68-.09 2.67 2.67 0 00-.78-.1 1.47 1.47 0 00-.83.23 1.07 1.07 0 01-.63.18.8.8 0 01-.6-.26 1.21 1.21 0 00-.86-.35 1.44 1.44 0 00-.79.26c-.22.13-.27.17-.47 0a.48.48 0 01-.18-.61 2.71 2.71 0 00.07-.59 3.88 3.88 0 00-.06-.73 3.24 3.24 0 01-.06-.67 1.17 1.17 0 01.16-.61 1.58 1.58 0 00.2-.79 2.44 2.44 0 00-.1-.75 2.41 2.41 0 01-.08-.65 1.62 1.62 0 01.11-.63 1.84 1.84 0 00.15-.77 2.87 2.87 0 00-.09-.74 2.52 2.52 0 01-.07-.66 6 6 0 000-.71v-.69a2.06 2.06 0 00-.5-1.27 1.49 1.49 0 00-.83-.45l-.34-.11a1.7 1.7 0 01-.41-.31 1.22 1.22 0 00-.81-.46h-.05a4 4 0 00-1.4.16c-.34.13-.47.5-.58.84a1.73 1.73 0 01-.2.45 3 3 0 01-.31.28 1.15 1.15 0 00-.6.87 5 5 0 010 .68 5.22 5.22 0 00-.05.73 1.33 1.33 0 00.26.81.92.92 0 01.19.59 5 5 0 010 .68 5.59 5.59 0 000 .72 3.8 3.8 0 00.06.73 3.57 3.57 0 01.05.67 1.64 1.64 0 01-.11.64 2.29 2.29 0 000 1.52 1.89 1.89 0 01.1.64 2.27 2.27 0 00.11.67c.09.3.12.42-.11.65a.8.8 0 01-.84.24h-.51a2.65 2.65 0 01-.68-.07 3.76 3.76 0 00-.75-.07 3.24 3.24 0 01-.67-.06 3.14 3.14 0 00-.75-.08 3.24 3.24 0 01-.67-.06A4.14 4.14 0 0019 103a2.54 2.54 0 00-1.93.71 2.77 2.77 0 00-.27 1.64v.32a3.15 3.15 0 00.58 1.74c.35.48.87 1.2 1.62 1.2a1.74 1.74 0 00.79-.16 1.43 1.43 0 01.64-.13 3.92 3.92 0 00.74-.06 3.36 3.36 0 01.68-.06 1.12 1.12 0 01.62.17 1.48 1.48 0 00.8.21 1.38 1.38 0 00.85-.35c.28-.21.34-.23.49-.08s.16.3 0 .56a1.81 1.81 0 00-.21.78 1.29 1.29 0 01-.14.64 1.87 1.87 0 00-.16.78 3 3 0 00.08.75 3.09 3.09 0 01.07.67 1.19 1.19 0 00.33.83.8.8 0 01.25.58.75.75 0 01-.3.57 1.12 1.12 0 00-.41.85 2.44 2.44 0 00.1.75 2.44 2.44 0 01.08.66 1.22 1.22 0 00.3.82.9.9 0 01.22.59 2.46 2.46 0 01-.08.67 3 3 0 00-.08.75.88.88 0 01-.22.59 1.22 1.22 0 00-.3.82 1.5 1.5 0 00.22.8 1.08 1.08 0 01.17.61 2.27 2.27 0 01-.09.65 2.5 2.5 0 00-.11.76 3.24 3.24 0 01-.06.67 3.09 3.09 0 00-.07.74 1.34 1.34 0 00.24.81 1.1 1.1 0 01.18.61 2.47 2.47 0 01-.13.69 2.41 2.41 0 00-.12.84 1.76 1.76 0 00.47.88 1.81 1.81 0 01.32.5 5.35 5.35 0 01.11.55 2.22 2.22 0 00.27.91 2.44 2.44 0 00.76.71 4.17 4.17 0 01.37.26 2.61 2.61 0 01.35.43 1.78 1.78 0 00.72.72 1.91 1.91 0 00.89.08 2.21 2.21 0 01.68 0 2 2 0 01.54.23 2.2 2.2 0 00.9.32 5 5 0 01.6.13 3.41 3.41 0 00.92.17 5.84 5.84 0 00.74 0 5.81 5.81 0 01.7 0 1.88 1.88 0 00.79-.16 1.48 1.48 0 01.65-.13 1.29 1.29 0 01.64.14 1.71 1.71 0 00.8.18 1.44 1.44 0 00.82-.25 1 1 0 01.61-.19 1.16 1.16 0 01.63.16 1.63 1.63 0 00.81.2 2.64 2.64 0 00.77-.1 2.36 2.36 0 01.66-.09 3.29 3.29 0 00.76-.07 3.36 3.36 0 01.68-.06 1.4 1.4 0 01.63.14 1.65 1.65 0 00.8.18 2.59 2.59 0 00.77-.1 2 2 0 01.66-.09 2.26 2.26 0 00.78-.12 1.91 1.91 0 01.65-.1 4 4 0 00.75-.06 4.92 4.92 0 01.69-.05 1.43 1.43 0 01.64.13 2 2 0 00.79.15 2.1 2.1 0 01.67.1 2.2 2.2 0 00.77.11 2 2 0 00.79-.15 1.43 1.43 0 01.64-.13 1.06 1.06 0 01.62.19 1.41 1.41 0 00.81.24 1.57 1.57 0 00.8-.19 1.31 1.31 0 01.64-.15 2.64 2.64 0 00.76-.09 2.46 2.46 0 01.67-.08h1.43a1 1 0 01.61.21 1.3 1.3 0 00.82.27c.39 0 .63-.32.83-.57a1.65 1.65 0 01.26-.3l.18-.13a1.67 1.67 0 00.68-.73 2.6 2.6 0 00.12-1v-.54a1.84 1.84 0 00-.07-.9 2 2 0 00-.08-.22 2.11 2.11 0 00-.57-1 2.49 2.49 0 00-1.37-.51h-.71a5.51 5.51 0 01-.69 0 1.41 1.41 0 00-.8.23 1 1 0 01-.6.18 5.43 5.43 0 01-.68 0 6.09 6.09 0 00-.72 0 2 2 0 01-.65-.09 2.87 2.87 0 00-.74-.09 2 2 0 00-.76.13 1.89 1.89 0 01-.64.1 1.33 1.33 0 01-.62-.13 1.75 1.75 0 00-.78-.16 1.44 1.44 0 00-.79.21 1 1 0 01-.6.17.84.84 0 01-.58-.24 1.16 1.16 0 00-.82-.33 1.35 1.35 0 00-.8.25.93.93 0 01-.59.2.88.88 0 01-.59-.21 1.25 1.25 0 00-.81-.27 1.88 1.88 0 00-.77.15 1.37 1.37 0 01-.62.13 1.55 1.55 0 00-.79.2 1.19 1.19 0 01-1.21 0 1.35 1.35 0 00-.79-.23 3.21 3.21 0 01-.66-.06 3.73 3.73 0 00-.74-.07 1.22 1.22 0 00-.8.27.87.87 0 01-.59.2 4.86 4.86 0 00-.73.06 3.24 3.24 0 01-.67.06h-1.39a3.21 3.21 0 01-.66-.06 3.7 3.7 0 00-.73-.07 3.8 3.8 0 00-.73.06 4.46 4.46 0 01-.67.05 5.91 5.91 0 01-1.55-.25c-.48-.13-.72-.58-.94-1.08a1.54 1.54 0 010-.76 6.35 6.35 0 00.05-.66 1.8 1.8 0 00-.16-.76 1.52 1.52 0 01-.12-.61v-1.38a1.87 1.87 0 01.09-.63 2.41 2.41 0 00.1-.74 1.76 1.76 0 00-.14-.75 1.56 1.56 0 01-.11-.62 1.6 1.6 0 00-.17-.76 1.22 1.22 0 01-.14-.61.8.8 0 01.22-.56 1.19 1.19 0 00.3-.81 1.64 1.64 0 00-.17-.76 1.29 1.29 0 01-.14-.6.88.88 0 01.2-.58 1.29 1.29 0 00.25-.79 1.65 1.65 0 00-.17-.77 1.26 1.26 0 01-.14-.6 5 5 0 00-.05-.71 3.33 3.33 0 01-.05-.65 4.76 4.76 0 010-.66 5.53 5.53 0 000-.71 2.17 2.17 0 01.09-.63 2.09 2.09 0 00.11-.74 1.48 1.48 0 00-.31-.83c-.2-.31-.22-.39-.07-.53s.44-.21.77-.13a3.12 3.12 0 00.68.09h1.47a4.18 4.18 0 00.76-.06 3.6 3.6 0 01.7-.06 1.22 1.22 0 01.64.17 1.53 1.53 0 00.82.21 1.84 1.84 0 00.69-.14c.22-.09.29-.12.53.11s.17.19.05.39a1.37 1.37 0 00-.21.72 3.72 3.72 0 00.06.71 4.48 4.48 0 010 .65 5.23 5.23 0 000 .7 4.76 4.76 0 010 .66 1.52 1.52 0 01-.12.61 1.92 1.92 0 00-.14.74 1.2 1.2 0 00.32.81.76.76 0 01.23.55 1.37 1.37 0 01-.12.61 1.73 1.73 0 00-.15.75 1.64 1.64 0 00.17.76 1.26 1.26 0 01.13.59 9.59 9.59 0 00.1 1.52 3.52 3.52 0 010 .65 2 2 0 00.09.92 2.78 2.78 0 00.8 1l.26.22a3.55 3.55 0 001.31.77 2.07 2.07 0 01.48.33 2 2 0 00.94.51 1.6 1.6 0 00.88-.24 1.87 1.87 0 01.9-.24h1.33a1.68 1.68 0 01.6.1 1.88 1.88 0 00.72.13H47a3.66 3.66 0 00.69 0 4 4 0 01.63 0 6.06 6.06 0 001.09-.12l.43-.07h.56a2.91 2.91 0 001-.15 2.22 2.22 0 00.84-.69 2.5 2.5 0 01.31-.34 1.89 1.89 0 01.47-.29 1.6 1.6 0 00.84-.7 2.4 2.4 0 00.13-1 4.5 4.5 0 010-.64 2.71 2.71 0 01.18-.55 2.88 2.88 0 00.24-1 2 2 0 00-.13-.74 1.54 1.54 0 01-.12-.62 1.7 1.7 0 01.11-.61 1.84 1.84 0 00.14-.75 2 2 0 00-.13-.74 1.56 1.56 0 01-.11-.62v-1.36a1 1 0 01.16-.58 1.39 1.39 0 00.21-.77 1.07 1.07 0 00-.39-.82.7.7 0 01-.29-.54 3.1 3.1 0 00-.09-.66c-.09-.39-.12-.58.12-.8s.39-.15.74 0a2.15 2.15 0 00.82.2 2 2 0 01.67.1 2.23 2.23 0 00.79.13 2.6 2.6 0 00.78-.11 2.48 2.48 0 011.36 0 2.67 2.67 0 00.78.1 3.08 3.08 0 00.77-.09 2.7 2.7 0 01.69-.08 1.75 1.75 0 001.49-.89c.07-.08.13-.17.2-.26a2.26 2.26 0 00.67-1.38 1.86 1.86 0 00-.65-1.3zM42.8 115.9a.91.91 0 01-.21-.61 2.72 2.72 0 00-.09-.77 2.46 2.46 0 01-.08-.67 1.71 1.71 0 01.11-.66 2.26 2.26 0 00.12-.78 5.17 5.17 0 010-.69 5.4 5.4 0 00.05-.74 5.81 5.81 0 010-.7 6 6 0 000-.74 1.75 1.75 0 00-.28-.86c-.19-.37-.22-.48 0-.65a.53.53 0 01.37-.18 1.31 1.31 0 01.48.16 4.15 4.15 0 00.73.28 1.35 1.35 0 001-.05 1.75 1.75 0 01.65-.12h1.57a3.82 3.82 0 00.56 0c.3 0 .4-.05.75.27s.18.22.07.42a1.45 1.45 0 00-.2.73 5 5 0 010 .7 4 4 0 00-.06.75 5.73 5.73 0 010 .69 6 6 0 000 .74 1.31 1.31 0 00.27.83 1 1 0 01.2.61 5.84 5.84 0 000 .74 5.35 5.35 0 010 .7 1.27 1.27 0 01-.15.63 1.78 1.78 0 00-.18.8 1.29 1.29 0 01-.28 1c-.17.2-.3.27-.94.27a1.85 1.85 0 00-.86.19 1.57 1.57 0 01-.71.15 4.57 4.57 0 00-.82.07 3.19 3.19 0 01-.75.07 1.21 1.21 0 01-1-.57l-.08-.09c-.09-.1-.08-.23 0-.53s0-.35 0-.57a1.31 1.31 0 00-.24-.82zm115.03-3.05a4.76 4.76 0 00-.42-1.32l-.07-.14a2.91 2.91 0 00-.74-1.06 2.51 2.51 0 00-.95-.39l-.39-.11a2.82 2.82 0 00-.83-.1 4.88 4.88 0 01-.53 0 2.63 2.63 0 01-.49-.14 2.52 2.52 0 00-.85-.19 1.61 1.61 0 01-.63-.1 2.38 2.38 0 00-.76-.12 1.43 1.43 0 00-.78.21 1.16 1.16 0 01-.6.16 1.23 1.23 0 01-.62-.14 1.93 1.93 0 00-1.54 0 1.32 1.32 0 01-.61.13 1.89 1.89 0 00-.76.18c-.33.12-.47.16-.67 0s-.13-.33 0-.65a1.69 1.69 0 00.28-.86v-1.47a2 2 0 00-.15-.8 1.74 1.74 0 01-.12-.67 1.07 1.07 0 01.19-.63 1.38 1.38 0 00.25-.83 1.73 1.73 0 00-.92-1.3l-.17-.13a2.31 2.31 0 00-1.23-.55 1.91 1.91 0 00-1.13.54l-.24.18-.09.06c-.38.26-.9.62-.9 1.2a1.46 1.46 0 00.24.83 1.13 1.13 0 01.19.64 5.41 5.41 0 010 .71 6.23 6.23 0 000 .76v2a.66.66 0 01-.23.72c-.22.22-.28.2-.51.13a2.23 2.23 0 00-.63-.1 5.23 5.23 0 00-.7 0 4.76 4.76 0 01-.66 0h-.66a5.7 5.7 0 00-.7 0 1.74 1.74 0 01-.61-.1 2 2 0 00-.74-.12H135a2.06 2.06 0 00-.84.25 1.45 1.45 0 01-.5.18 6.18 6.18 0 00-1.3.32l-.35.11a2.45 2.45 0 00-.91.38 3.21 3.21 0 00-.93 1 2.39 2.39 0 00-.19.88 3.91 3.91 0 01-.05.48 6.67 6.67 0 000 1.11v1.66a3.44 3.44 0 01-.06.68 3.19 3.19 0 00-.07.75 1.71 1.71 0 01-.11.66 2.4 2.4 0 00-.12.77v.51a3.84 3.84 0 000 .9 1.85 1.85 0 00.49.85 1.79 1.79 0 01.29.37 2.61 2.61 0 00.85.92l.07.06.22.19a2.51 2.51 0 00.9.56l.38.15a3.14 3.14 0 00.94.29 2.15 2.15 0 00.75-.09 2.59 2.59 0 01.62-.1 4.54 4.54 0 00.64 0 2.38 2.38 0 01.73 0c.27 0 .43.06.57.08a2.78 2.78 0 00.78.08 1.56 1.56 0 01.62.11 2 2 0 00.74.13h1.36a1.43 1.43 0 00.72-.22c.2-.12.23-.13.39 0s.17.26.05.48a1.49 1.49 0 00-.22.76 1.85 1.85 0 00.17.81 1.31 1.31 0 01.14.65 5.45 5.45 0 000 .75 3.84 3.84 0 01.05.71v4.36a2.18 2.18 0 01-.09.68 2.59 2.59 0 00-.1.77 1.9 1.9 0 00.64 1.52.9.9 0 00.56.16 3.31 3.31 0 00.53-.06 4.14 4.14 0 01.77 0 1.78 1.78 0 001.14-.19 1.54 1.54 0 00.52-1.39 1.07 1.07 0 01.18-.63 1.56 1.56 0 00.22-.83 1.76 1.76 0 00-.17-.8 1.53 1.53 0 01-.13-.66 3.59 3.59 0 01.05-.69 4.18 4.18 0 00.06-.76v-1.46a2.73 2.73 0 00-.1-.78 2.44 2.44 0 01-.09-.67 1.51 1.51 0 01.14-.66 2 2 0 00.16-.8 1.55 1.55 0 00-.29-.84c-.17-.29-.22-.38 0-.56s.25-.14.53 0a1.59 1.59 0 00.81.27 2.38 2.38 0 00.76-.12 1.54 1.54 0 01.63-.11h.68a5.7 5.7 0 00.7 0 1.89 1.89 0 01.64.09 2.54 2.54 0 00.75.1 2.94 2.94 0 00.73-.08 3.17 3.17 0 01.65-.06 10.51 10.51 0 001.2-.09h.16a3.75 3.75 0 01.58 0 2.24 2.24 0 00.83-.07 4.36 4.36 0 001.31-.67 3.61 3.61 0 001-1.15 3.18 3.18 0 00.26-1v-.37a1.79 1.79 0 00-.09-.79 2.51 2.51 0 01-.1-.6 2.56 2.56 0 01.07-.67 3.17 3.17 0 00.08-.76 1.41 1.41 0 01.14-.64 2 2 0 00.16-.79v-1.43a2.29 2.29 0 00-.22-.89 2 2 0 01-.25-.49zm-12.19 6.31a2.83 2.83 0 00.3-.69 1.42 1.42 0 000-.87 1.56 1.56 0 01-.1-.56 5.41 5.41 0 000-.71 4.48 4.48 0 010-.65v-.66a5.51 5.51 0 000-.69 2.47 2.47 0 00-.06-.55c-.05-.23-.06-.29.18-.54s.19-.16.37-.07a1.3 1.3 0 00.66.18 1.28 1.28 0 00.74-.21 1.07 1.07 0 01.56-.15h.66a4.81 4.81 0 01.64 0 2.5 2.5 0 01.6.07 2.64 2.64 0 00.69.08h.63a4.7 4.7 0 00.67 0h.49a2 2 0 01.94.09 1.72 1.72 0 01.48 1.36v1.76a5.39 5.39 0 01-.06.86 5.65 5.65 0 00-.07.91 1.16 1.16 0 01-.52 1.09 1.46 1.46 0 01-.81.1h-.43a1.31 1.31 0 00-.75.21 1 1 0 01-.55.17 3.54 3.54 0 00-.68 0 4.21 4.21 0 01-.62 0 2.07 2.07 0 01-.6-.07 2.67 2.67 0 00-.7-.08 2.05 2.05 0 01-.6-.08 2.64 2.64 0 00-.69-.08 1.56 1.56 0 00-.77.24c-.29.16-.37.18-.52 0s-.24-.16-.08-.46zm-3.86-4.16a4.38 4.38 0 01.05.65 2.18 2.18 0 01-.08.63 2.85 2.85 0 00-.08.72 2.73 2.73 0 01-.07.63 2.75 2.75 0 00-.09.72 1.68 1.68 0 00.25.8c.17.32.19.4 0 .55-.36.3-.51.25-1 .09-.17 0-.36-.12-.6-.18a3 3 0 00-.71-.1h-.9a2.46 2.46 0 01-.74-.1 2.76 2.76 0 00-.85-.11h-1.58a3.7 3.7 0 00-.79.08c-.28 0-.52.08-.62 0a1.8 1.8 0 01-.49-1.34 5.13 5.13 0 01.07-.86 4.41 4.41 0 00.08-.91v-.86a8.64 8.64 0 000-.9v-.07c0-.6 0-1.12.24-1.29a2.69 2.69 0 011.44-.32H137a3.35 3.35 0 01.76.07 4.86 4.86 0 00.83.06 2.17 2.17 0 01.74.11 2.58 2.58 0 00.84.12 1.82 1.82 0 00.71-.13c.23-.08.31-.1.59.14s.29.3.26.56 0 .27 0 .47a3.71 3.71 0 00.05.77zm44.8 5.75h-.12a.62.62 0 00-.45-.08q-.3.09-.6.15c-.22 0-.45.1-.68.17a2.31 2.31 0 00-.64.38 2 2 0 01-.5.32 3.75 3.75 0 01-.6.12 3.29 3.29 0 00-.69.16c-.19.07-.39.12-.58.17a5.89 5.89 0 00-.68.21 3.94 3.94 0 00-.66.37l-.35.22a3.74 3.74 0 00-.67-1.2 2.63 2.63 0 00-1.31-.83l-.37-.14a3 3 0 00-1.15-.29 3.6 3.6 0 00-.82.13l-.3.08a1.52 1.52 0 00-.38.11 1.74 1.74 0 01.1-.19c.12-.21.24-.42.37-.63s.3-.53.44-.8.2-.4.31-.6h.53a4.56 4.56 0 00.74 0c.24 0 .48-.08.71-.12a4.08 4.08 0 01.59-.11 7.16 7.16 0 00.7-.17 4.51 4.51 0 01.58-.15 2.27 2.27 0 01.63 0 2.41 2.41 0 00.71 0 1.39 1.39 0 001.09-1.55 1.25 1.25 0 00-.39-1.1 1.46 1.46 0 00-1.2-.33 4.75 4.75 0 00-.54.14 3.43 3.43 0 01-.61.16 6 6 0 01-.61.05h-.58l-.5.08h-.27a15.1 15.1 0 00.63-1.57 1.33 1.33 0 00.08-.48c0-.78-.84-1.19-1.67-1.19a1.44 1.44 0 00-1.52.86c-.06.21-.11.42-.16.63a7.88 7.88 0 01-.24.83 5.8 5.8 0 01-.33.66c-.09.17-.19.35-.28.54h-.45l-.68.05a5.3 5.3 0 01-.69 0h-.62a5 5 0 00-.69.1 3.57 3.57 0 01-.62.09 1.53 1.53 0 00-1.62 1.45 1.32 1.32 0 00.39.94 1.7 1.7 0 001.24.43h1.47l.91-.05c-.13.19-.28.37-.43.55l-.37.48-.27.37c-.22.29-.44.6-.68.88a6 6 0 01-.64.58c-.18.15-.37.3-.54.47a7.33 7.33 0 01-.73.63l-.46.38a1.91 1.91 0 00-.64 1.36 1.77 1.77 0 001.64 1.62 1.82 1.82 0 001-.48 3.74 3.74 0 01.69-.42 5.54 5.54 0 00.53-.3 4.1 4.1 0 00.57-.52 2.13 2.13 0 01.49-.43 7.93 7.93 0 011.16-.51l.13-.05a2.44 2.44 0 011.07-.11 3.56 3.56 0 00.76 0 .82.82 0 01.52 0c.14.08.18.21.27.49v.14c-.39.2-.69.38-1 .58a7.66 7.66 0 00-.84.56l-.36.26-.09.06c-.4.28-.78.54-1.1.81a7.94 7.94 0 00-1 1.07 5.08 5.08 0 00-.73 1.34 4.51 4.51 0 00-.21 1.52 3.88 3.88 0 00.31 1.51 2.19 2.19 0 00.77.83l.3.24c.1.09.19.19.29.3a2.41 2.41 0 00.85.67 4.31 4.31 0 001 .24l.46.09a3.78 3.78 0 00.83 0h.63l.5.06a5.66 5.66 0 00.94.09h.7l.57-.05h.55a5.58 5.58 0 00.71 0h.42c.29 0 .57 0 .85-.06a3.57 3.57 0 01.57 0 3.39 3.39 0 00.71 0 1.64 1.64 0 001.39-1.62 1.5 1.5 0 00-.64-1.1l-.12-.11a1.29 1.29 0 00-1.11-.47 3 3 0 00-.78.29 2.63 2.63 0 01-.74.26 6.3 6.3 0 01-.87 0 5.77 5.77 0 00-.72 0 4.93 4.93 0 01-.85-.06 6 6 0 00-.73-.06 3.52 3.52 0 00-.84.13 2 2 0 01-.63.1 3.83 3.83 0 01-1.21-.38l-.15-.07a1.11 1.11 0 01-.76-1 2.25 2.25 0 01.64-1.31 5 5 0 011.09-1.06l.22-.15a10.73 10.73 0 01.93-.61c0 .09 0 .18.05.28a7.05 7.05 0 01.1.73 1.66 1.66 0 01-.09.51 2.49 2.49 0 00-.11.69 1.53 1.53 0 001.61 1.36 1.76 1.76 0 001.11-.44 1.36 1.36 0 00.56-1.09 7.48 7.48 0 010-.82 5.64 5.64 0 000-.82 4.82 4.82 0 00-.2-1 4.64 4.64 0 01-.12-.47l.44-.21a6.42 6.42 0 01.66-.3l1.27-.46a2.08 2.08 0 01.63-.09 2.92 2.92 0 00.72-.11l.53-.18c.25-.09.5-.18.75-.25l.81-.25.47-.13a1.63 1.63 0 001.12-1.59 1.4 1.4 0 00-1.53-1.41zM29.56 185.37l-.52-.11a7.7 7.7 0 01-.86-.19 3.23 3.23 0 01-.67-.29 4.78 4.78 0 00-.61-.28l-.52-.16c-.28-.09-.55-.17-.81-.28a4 4 0 00-.65-.2 3.29 3.29 0 01-.69-.22 2.67 2.67 0 01-.58-.45 3.29 3.29 0 00-.54-.43 4 4 0 00-.72-.31l-.32-.13h.26a3.57 3.57 0 00.91-.2 2 2 0 00.64-.56 1.81 1.81 0 01.48-.45 3 3 0 01.64-.2 3 3 0 00.75-.25 2.61 2.61 0 01.65-.21 2.86 2.86 0 00.74-.27c.33-.19.63-.4.91-.6l.32-.21a1.6 1.6 0 00.55-1.53v-.49a1.41 1.41 0 00-.29-1.17 2 2 0 00-1.46-.43 1.88 1.88 0 00-1.26.44l-.39.32a9 9 0 01-.83.62l-.27.18c-.33.22-.67.44-1 .65a2.05 2.05 0 01-.7.21 3.16 3.16 0 00-.81.24 2.44 2.44 0 00-.64.56 1.91 1.91 0 01-.56.48l-.15.07c-.4.2-.86.41-1.24.58a7.55 7.55 0 01-.44-.62l-.36-.52a1.89 1.89 0 01-.25-.63 2.45 2.45 0 00-.26-.68 5.48 5.48 0 00-.46-.57 5 5 0 01-.38-.45.72.72 0 01.39.08 2.55 2.55 0 00.53.17 1.53 1.53 0 00.75 0 1.76 1.76 0 01.48-.06h1.19a12.45 12.45 0 001.39-.12 5.72 5.72 0 001.34-.41 3 3 0 001.17-.79 3.13 3.13 0 00.6-1.28 5.86 5.86 0 00.18-1.38 2.61 2.61 0 01.08-.68 3.2 3.2 0 00.08-.77 2.17 2.17 0 00-.13-.78 1.93 1.93 0 01-.11-.66v-2.17a6 6 0 010-.71 2 2 0 01.1-.67 2.52 2.52 0 00.11-.77 4.36 4.36 0 010-.51 3.08 3.08 0 000-1 3.9 3.9 0 00-.61-1.43 1.94 1.94 0 00-.92-.48 3.9 3.9 0 01-.48-.17l-.2-.1a3.81 3.81 0 00-1.14-.41 4.58 4.58 0 00-1 0h-.44a5.08 5.08 0 00-.82 0 6.63 6.63 0 01-.78 0h-.53c-.33 0-.41.05-.77-.29s-.36-.41-.33-.78v-.42a1.29 1.29 0 01.16-.67 1.79 1.79 0 00.19-.84 1.63 1.63 0 00-.82-1.3 2.84 2.84 0 00-1.39-.51 2.54 2.54 0 00-1.28.51h-.08a1.34 1.34 0 00-.6 1.25 6 6 0 00.05.78 5.91 5.91 0 010 .73 2.59 2.59 0 00.13.75c.1.35.15.54-.11.8s-.39.18-.74.05a2.19 2.19 0 00-.81-.19 1.44 1.44 0 01-.68-.14 1.88 1.88 0 00-.83-.17 2.55 2.55 0 00-.93.23 2 2 0 01-.48.15l-.45.06a3.35 3.35 0 00-1 .21 3 3 0 00-1 .9l-.09.1a3.18 3.18 0 00-.54 1.5 5.39 5.39 0 00-.15 1.4 3.37 3.37 0 010 .66 3.76 3.76 0 00-.06.72v.71a5.25 5.25 0 010 .67 1.3 1.3 0 01-.12.61 1.67 1.67 0 00-.16.77v1.37a1.4 1.4 0 00.24.8.87.87 0 01.19.58 1.22 1.22 0 01-.14.61 1.65 1.65 0 00-.17.77 4.76 4.76 0 010 .66 5.29 5.29 0 000 .71 2.41 2.41 0 00.1.74 2.27 2.27 0 01.08.64 5.13 5.13 0 000 .71 4.76 4.76 0 010 .66 2.41 2.41 0 01-.07.64 2.88 2.88 0 00-.08.73 2.78 2.78 0 00.09.73 2.32 2.32 0 01.08.64 3.76 3.76 0 00.06.72 3.21 3.21 0 01.06.66 1.87 1.87 0 01-.1.63 2.3 2.3 0 00-.11.74v.35a1.88 1.88 0 01-.11.81l-.44.08a5.36 5.36 0 01-.62.1 5.08 5.08 0 01-.68 0h-.66l-1.33.15a2.35 2.35 0 00-1.38.62 2.54 2.54 0 00-.52 1.49 1.54 1.54 0 00.7 1.08l.26.23a1.5 1.5 0 001.32.48A1.76 1.76 0 013 189a2.2 2.2 0 00.85.14 3.36 3.36 0 00.76-.24 3.06 3.06 0 01.65-.21c.27 0 .52-.1.77-.16s.44-.11.67-.15l.66-.07a7.08 7.08 0 00.79-.09 3.06 3.06 0 01.68 0 2.68 2.68 0 00.8 0l.59-.1.78-.12a2.59 2.59 0 00.75-.31 2.73 2.73 0 01.62-.26l.65-.13.78-.16c.22-.06.45-.09.68-.13a6.8 6.8 0 00.76-.15 2.35 2.35 0 001.07-.73 1.91 1.91 0 00.38-1.27 2.09 2.09 0 00-.34-1.42 2.23 2.23 0 00-1.47-.46.58.58 0 00-.38.19.47.47 0 01-.18.12 2.45 2.45 0 01-.77 0 3.57 3.57 0 00-.86 0 6.86 6.86 0 01-.81.12c-.26 0-.51.06-.77.11a4.15 4.15 0 00-.75.27 4.13 4.13 0 01-.55.21 1.77 1.77 0 01-.1-.79v-3.53a4 4 0 01.06-.73 4.49 4.49 0 00.06-.79 2 2 0 00-.23-.85c-.16-.31-.21-.45 0-.69s.15-.13.48.07a1.43 1.43 0 00.79.3 4.23 4.23 0 01.6 0 4.59 4.59 0 00.65 0 1.21 1.21 0 00.7-.22.55.55 0 01.43-.11 4.06 4.06 0 00.38.63 3.74 3.74 0 01.32.53 3.19 3.19 0 01.2.57 3.51 3.51 0 00.28.74 3.07 3.07 0 01.25.55 4 4 0 00.36.71 7.38 7.38 0 00.54.71l.32.39c.24.31.5.6.75.89l.15.18a3 3 0 00.64.48 2.76 2.76 0 01.5.35 1.74 1.74 0 01.31.54 1.85 1.85 0 00.44.69c.26.23.54.44.81.64l.3.22a2.64 2.64 0 00.71.36 3.63 3.63 0 01.56.26 4 4 0 00.71.36 4.45 4.45 0 01.54.25 2.61 2.61 0 01.47.38 2.56 2.56 0 00.64.48 4 4 0 00.76.26c.19.06.38.11.56.18a3.64 3.64 0 01.53.31 2.49 2.49 0 00.7.38 6.31 6.31 0 00.83.21l.53.12c.17 0 .34.1.51.15a7.39 7.39 0 00.84.23 2.83 2.83 0 00.41 0 2.47 2.47 0 001.45-.45 1.8 1.8 0 00.51-1.59v-.43a1.22 1.22 0 00-.24-1.09 2.71 2.71 0 00-1.26-.48zm-8.31-17.79a.6.6 0 01-.64 0 1.59 1.59 0 00-.77-.2 1.55 1.55 0 00-.82.22 1.07 1.07 0 01-.63.18 1 1 0 01-.63-.2 1.5 1.5 0 00-1.66 0 1 1 0 01-.62.19 2 2 0 01-.67-.1 2.23 2.23 0 00-.79-.13 1.75 1.75 0 01-.66-.11 2 2 0 00-.79-.14h-1.45a1.62 1.62 0 00-.89.34c-.33.22-.42.26-.59.1s-.14-.26 0-.59a1.69 1.69 0 00.29-.85v-.1c0-.49 0-.76.23-.91a2.06 2.06 0 011.14-.24 6 6 0 00.71 0 4.82 4.82 0 01.67 0h1.38a1.14 1.14 0 01.6.15 1.68 1.68 0 00.78.18 1.32 1.32 0 00.78-.22 1.07 1.07 0 01.6-.17 5.7 5.7 0 00.7 0h.67a2.27 2.27 0 01.64.08 2.48 2.48 0 00.74.09 1.09 1.09 0 01.78.36l.2.16.18.11c.32.2.51.34.51.66a2.77 2.77 0 00.11.69c.16.24.17.34-.1.45zm-11.36 5.13a1.33 1.33 0 00.19-.69 1.52 1.52 0 00-.35-.87c-.21-.32-.25-.41-.09-.56s.31-.13.62 0a1.72 1.72 0 00.86.29 3.13 3.13 0 00.77-.08 2.8 2.8 0 01.69-.07H14a5.84 5.84 0 00.74 0 5.66 5.66 0 01.71 0H17a1.34 1.34 0 01.64.15 1.65 1.65 0 00.81.19 1.55 1.55 0 00.82-.22 1.07 1.07 0 01.63-.18 2.58 2.58 0 00.74-.13c.34-.1.5-.15.75.09s.16.35 0 .69a2.13 2.13 0 00-.19.79c0 .37-.19.49-.49.68l-.09.06a1.13 1.13 0 00-.26.23 1 1 0 01-.72.39 5.32 5.32 0 01-.83 0l-.58-.07a2.92 2.92 0 01-.63-.11 2.43 2.43 0 00-.81-.11 1.43 1.43 0 00-.81.22 1.11 1.11 0 01-.61.17 1 1 0 01-.61-.19 1.34 1.34 0 00-.81-.25 1.45 1.45 0 00-.82.24.94.94 0 01-.61.19 2 2 0 01-.65-.1 2.15 2.15 0 00-.77-.12 3.18 3.18 0 00-.57.06c-.22 0-.27.07-.53-.19s-.2-.32-.11-.5zm46.48 11.87a1.89 1.89 0 01-.5-.41 2.76 2.76 0 01-.29-.57 3.53 3.53 0 00-.36-.66 4.3 4.3 0 01-.35-.55 4.74 4.74 0 00-.41-.62l-.32-.42c-.17-.23-.34-.46-.52-.68s-.32-.37-.49-.55-.29-.32-.43-.49a2.35 2.35 0 00-.61-.48 2.28 2.28 0 01-.5-.39 1.52 1.52 0 01-.24-.59 1.8 1.8 0 00-.32-.75 2.47 2.47 0 00-.65-.46 2.05 2.05 0 01-.52-.35 5.27 5.27 0 00-.55-.51 4.9 4.9 0 01-.47-.43 5.47 5.47 0 01-.4-.52 5.92 5.92 0 00-.45-.57 2.5 2.5 0 01-.84-1.56c0-.34.21-.58.54-.93l.34-.4a5 5 0 00.45-.58 5 5 0 01.39-.52 3.28 3.28 0 01.49-.4 3.13 3.13 0 00.59-.5 3.5 3.5 0 00.41-.62 3.35 3.35 0 01.35-.56 3.43 3.43 0 01.49-.41 2.53 2.53 0 00.59-.5 2.25 2.25 0 00.35-.69 2.23 2.23 0 01.28-.58 2.88 2.88 0 01.48-.43 2.72 2.72 0 00.56-.51 3.61 3.61 0 00.39-.65 3.71 3.71 0 01.31-.56c.13-.17.28-.34.42-.5a6.47 6.47 0 00.47-.57 2.56 2.56 0 00.32-.72 2.27 2.27 0 01.24-.57 4.63 4.63 0 01.3-.4 1.37 1.37 0 00.41-.83 2 2 0 00-.83-1.47 2.15 2.15 0 00-1.51-.48 2 2 0 00-1.88.79 3.78 3.78 0 00-.31.64 3.92 3.92 0 01-.29.62l-.78 1.14a5.47 5.47 0 01-.44.54c-.15.17-.31.35-.45.54l-.21.3c-.2.28-.39.55-.6.83a3.36 3.36 0 00-.34.65 3.05 3.05 0 01-.3.6 2.75 2.75 0 01-.51.43 2.9 2.9 0 00-.57.48c-.1.14-.21.27-.32.4l-.54.68a4.38 4.38 0 00-.41.58 2.93 2.93 0 01-.39.56 1.81 1.81 0 01-.57.37 2.13 2.13 0 00-.62.4 2.21 2.21 0 00-.45.81 2.87 2.87 0 01-.21.43 5 5 0 00-.6 1.24 4.89 4.89 0 00-.26 1.37 3.08 3.08 0 00.28 1.12l.12.32a5.48 5.48 0 00.66 1.3 3 3 0 01.23.5 2.37 2.37 0 00.45.84c.29.33.58.66.87 1a5.32 5.32 0 00.48.47 5.32 5.32 0 01.47.48 2.85 2.85 0 00.57.47 2.24 2.24 0 01.49.4 1.61 1.61 0 01.24.58 2 2 0 00.3.71l.67.87.4.53.56.74a3.86 3.86 0 00.48.51 3.9 3.9 0 01.44.48 3.16 3.16 0 01.3.58 3 3 0 00.32.62l.21.3.55.8.35.49.41.6a3.33 3.33 0 00.91 1 .88.88 0 00.45.11 2.74 2.74 0 00.5-.07 2 2 0 01.39-.06 2.31 2.31 0 001.58-.5 2 2 0 00.7-1.54v-.15a2.5 2.5 0 00-.33-1.47 2.41 2.41 0 00-.61-.49zm38.13-6.28a2.11 2.11 0 00-1.48-.5 2.24 2.24 0 00-1.93.69c-.14.18-.26.36-.38.54a5.42 5.42 0 01-.42.58 9.43 9.43 0 01-.72.7l-.27.25a3.64 3.64 0 00-.44.53 2.63 2.63 0 01-.46.52 2.7 2.7 0 01-.68.34 3.23 3.23 0 00-.57.26 3.09 3.09 0 00-.54.48 1.91 1.91 0 01-.52.44 3.87 3.87 0 01-.78.19 5.22 5.22 0 00-.57.11h-.06a9.5 9.5 0 01-1.28.3 10.7 10.7 0 01-1.36.06 2.26 2.26 0 01-.81-.21 3.61 3.61 0 00-.42-.16 2.28 2.28 0 01-1.06-.51 2.83 2.83 0 01-.72-1 2.53 2.53 0 00-.26-.44 2.08 2.08 0 01-.36-.73 1.92 1.92 0 010-.61 2.54 2.54 0 00.08-.75 5.45 5.45 0 010-.69v-.62a5.51 5.51 0 00-.06-.71 5.51 5.51 0 01-.06-.7 2.92 2.92 0 00-.1-.73 2.38 2.38 0 01-.1-.68v-1.41a2.28 2.28 0 01.17-.63 2.31 2.31 0 00.2-.77c0-.23 0-.47.07-.7s.06-.47.07-.7a2.44 2.44 0 00-.14-.77 2.28 2.28 0 01-.11-.66 2.44 2.44 0 01.17-.64 2.68 2.68 0 00.2-.75v-.71a5.45 5.45 0 010-.7 5.56 5.56 0 01.08-.7c0-.23.06-.47.08-.7s0-.48 0-.72v-.68a3.7 3.7 0 000-.75 3.88 3.88 0 010-.67v-1.4a1.45 1.45 0 00-.62-1.39 2.08 2.08 0 00-1.43-.55 2 2 0 00-1.35.5 1.51 1.51 0 00-.63 1.26c0 .21 0 .43-.07.65s-.06.5-.08.76a2.54 2.54 0 01-.14.64 3.32 3.32 0 00-.16.76 2.85 2.85 0 00.09.77 2.69 2.69 0 01.09.67c0 .23 0 .45-.08.68a5.82 5.82 0 00-.09.73c0 .47 0 1-.07 1.43a5.93 5.93 0 000 .73v.69a3.26 3.26 0 01-.12.67 4.52 4.52 0 00-.13.75v1.42a4.59 4.59 0 000 .75 5.16 5.16 0 010 .67c0 .23 0 .46-.06.68s-.05.49-.06.74 0 .51 0 .77v2.06a6.12 6.12 0 00.08.88c0 .19 0 .38.06.57s0 .3 0 .45c0 .34 0 .67.07 1 .08.55.19 1.05.28 1.42 0 .16.07.31.1.47a5.4 5.4 0 00.26.94c.06.15.11.31.16.46a4 4 0 00.41.92 2.62 2.62 0 00.74.67 3.34 3.34 0 01.41.3 5.31 5.31 0 001.17.87 6.7 6.7 0 001.35.59 3.87 3.87 0 00.9.09h.56a2.35 2.35 0 01.56.17 2.38 2.38 0 00.88.22 2.29 2.29 0 00.85-.23 2.35 2.35 0 01.62-.2 2.46 2.46 0 01.64.07 2.18 2.18 0 00.88.06 3.63 3.63 0 00.85-.32 4.41 4.41 0 01.56-.23 8.59 8.59 0 001-.41l.38-.18a7.7 7.7 0 00.9-.49l.39-.23a3.07 3.07 0 01.55-.25 4.32 4.32 0 00.8-.41 7.15 7.15 0 00.73-.61l.4-.36a8.39 8.39 0 00.68-.65l.38-.39a8.67 8.67 0 00.57-.66c.13-.16.25-.32.39-.47.28-.32.58-.66 1-1.13l.25-.3a1.54 1.54 0 00.49-1 2 2 0 00-.85-1.36zm37.25 4.58l-.43.07c-.36.06-.72.12-1.09.16a4.3 4.3 0 00-.7.13 5.75 5.75 0 01-.83.14h-1.55a2.86 2.86 0 01-.72-.13 3.42 3.42 0 00-.62-.13 2.88 2.88 0 01-.81-.12 4.74 4.74 0 00-.5-.15 2.75 2.75 0 00-.76 0 1.1 1.1 0 01-.58 0 2.43 2.43 0 01-.94-.94 1.37 1.37 0 01-.05-.69 3.42 3.42 0 000-.64 1.52 1.52 0 00-.68-1l-.07-.06-.2-.19a1.5 1.5 0 00-1-.55 2.64 2.64 0 00-1.66.71 2.11 2.11 0 00-.37 1.68 7.26 7.26 0 00.2 1.29v.06a5.43 5.43 0 00.42 1.29 3.26 3.26 0 01.16.5 1.91 1.91 0 00.35.84 2.08 2.08 0 00.77.48 3.58 3.58 0 01.48.24 4 4 0 00.94.44l.3.12a3.09 3.09 0 01.44.23 3 3 0 00.81.36c.16 0 .32.1.49.16a4.31 4.31 0 00.84.23c.4 0 .82.07 1.27.1h.18a2.93 2.93 0 00.66-.1 11.53 11.53 0 011.38-.14l.55-.05a2.2 2.2 0 01.6.12 2.14 2.14 0 00.72.13 2.29 2.29 0 00.73-.22 2.61 2.61 0 01.53-.16 1.66 1.66 0 01.61.07 2 2 0 00.73.07 2.56 2.56 0 001.4-.73 2.32 2.32 0 00.34-1.49 2.46 2.46 0 00-.61-1.75 2.18 2.18 0 00-1.73-.38zm-13.09-15.14l1.26-.34.36-.07a1.35 1.35 0 00.89-.38 1.37 1.37 0 00.18-1 2.72 2.72 0 010-.28 1.89 1.89 0 00-.56-1.29 1.57 1.57 0 00-1.2-.7h-.19a.92.92 0 00-.41 0l-.69.17-.78.2a4.45 4.45 0 00-.77.28l-.46.18v-1.18a2 2 0 01.21-.58 2.5 2.5 0 00.28-.78 2.57 2.57 0 000-.73 2.76 2.76 0 01-.06-.7 2 2 0 00-.31-1.71 2.73 2.73 0 00-1.69-.65 2.43 2.43 0 00-1.41.66 2 2 0 00-.86 1.3 3.7 3.7 0 000 .75 2.55 2.55 0 010 .6v.64c0 .21 0 .46-.07.69a5 5 0 000 .67 3.74 3.74 0 010 .67c0 .22-.08.49-.14.75l-.12.54a4.89 4.89 0 01-.77 0 5.7 5.7 0 00-.84 0 5.06 5.06 0 01-.87 0 6.59 6.59 0 00-.77 0 3 3 0 00-.89.31 1.94 1.94 0 01-.7.24 1.63 1.63 0 00-1.25.57l-.16.17a1.71 1.71 0 00-.62 1.13 2 2 0 00.75 1.4l.11.12a1.78 1.78 0 001.34.7 1.89 1.89 0 00.72-.26 1.58 1.58 0 01.6-.22 1.91 1.91 0 01.6.08 2.09 2.09 0 00.79.09 2.94 2.94 0 00.8-.25 2.87 2.87 0 01.37-.15c0 .12-.12.26-.18.39a3.33 3.33 0 00-.31.78c0 .23-.12.46-.19.69s-.12.44-.17.66-.09.45-.12.67-.08.47-.13.7-.09.44-.14.65-.09.49-.15.72-.09.46-.13.69-.07.46-.13.69a4.68 4.68 0 01-.25.64 6.47 6.47 0 00-.26.66 3.82 3.82 0 00-.08.75 2.31 2.31 0 01-.07.66c-.06.23-.16.46-.24.68s-.17.42-.24.63a2.84 2.84 0 00-.1.76 2.22 2.22 0 01-.09.65 1.67 1.67 0 01-.38.54 2.05 2.05 0 00-.45.65 3.08 3.08 0 00-.15.72 4 4 0 01-.14.66 3.57 3.57 0 01-.33.6 3.5 3.5 0 00-.35.63 2.65 2.65 0 00-.14 1v.08a1.91 1.91 0 00.7 1.41 2.17 2.17 0 001.44.48 2.24 2.24 0 001.4-.41 1.91 1.91 0 00.59-1c0-.1.06-.19.1-.29a2.3 2.3 0 01.36-.52 2.58 2.58 0 00.43-.69c.09-.26.18-.52.26-.79l.18-.59a3.22 3.22 0 00.15-.75 3.46 3.46 0 01.13-.67 2 2 0 01.33-.57 2.42 2.42 0 00.4-.72c.08-.26.15-.53.22-.8s.11-.39.16-.59c.13-.46.26-.92.38-1.39a3 3 0 00.07-.78 2.5 2.5 0 01.06-.68 5.84 5.84 0 01.2-.64 5.79 5.79 0 00.23-.74 3.94 3.94 0 00.08-.77 3.75 3.75 0 010-.68 2.11 2.11 0 01.31-.59 2.21 2.21 0 00.36-.74c.05-.25.1-.51.14-.77s.07-.43.12-.65a2.44 2.44 0 000-.81 2.3 2.3 0 010-.68 2 2 0 01.26-.56 2.1 2.1 0 00.29-.58 3.87 3.87 0 00.59-.25 3 3 0 01.64-.27c.27-.06.54-.14.81-.22l.67-.19zm1.34 3.8a2.35 2.35 0 00.61 1.7 1.44 1.44 0 001 .3 4.08 4.08 0 00.8-.09l.51-.11.86-.17a3.93 3.93 0 00.67-.19 4.5 4.5 0 01.7-.18l.9-.1h.5a2.64 2.64 0 01.68 0 4.53 4.53 0 00.74.05 3.33 3.33 0 01.7 0 4 4 0 00.7.06 2.25 2.25 0 00.77-.25 1.52 1.52 0 01.62-.21 1.53 1.53 0 001.24-.48l.15-.15a1.59 1.59 0 00.64-1.1 2.07 2.07 0 00-.74-1.4s-.09-.1-.14-.15a1.78 1.78 0 00-1.26-.73 7.91 7.91 0 00-.83.06l-.66.06a3.66 3.66 0 00-.8.16 3.42 3.42 0 01-.67.16 7.53 7.53 0 00-.83.11l-.65.1a2.35 2.35 0 01-.68-.07 2.57 2.57 0 00-.83-.06 3 3 0 00-.8.26 2.5 2.5 0 01-.63.22 2.09 2.09 0 01-.7 0 2.51 2.51 0 00-.82 0 2.74 2.74 0 00-1.37.73 2.26 2.26 0 00-.38 1.47zm53.11 5.02c-.1-.29-.23-.59-.35-.87s-.13-.29-.19-.44l-.1-.26c-.14-.34-.28-.69-.44-1a3 3 0 00-.47-.63 3 3 0 01-.39-.51 2.49 2.49 0 01-.18-.6 2.67 2.67 0 00-.25-.77c-.16-.26-.33-.51-.51-.76l-.28-.41a6.43 6.43 0 00-.5-.64c-.13-.15-.25-.3-.37-.46a5.34 5.34 0 01-.33-.53 3.93 3.93 0 00-.43-.66l-.27-.34a9.25 9.25 0 00-.63-.75 5.58 5.58 0 00-.64-.56l-.44-.36a3 3 0 00-3.28-.24 1.74 1.74 0 00.14 2.87 6 6 0 00.45.42 5.8 5.8 0 01.56.55 1.67 1.67 0 01.25.6 1.92 1.92 0 00.31.72c.28.37.54.74.8 1.12a2.08 2.08 0 00.6.5 1.79 1.79 0 01.5.43c.2.31.38.63.56 1l.14.25c.15.25.27.51.4.77s.15.31.23.47a3.78 3.78 0 01.26.69c.07.2.13.41.22.61a2.91 2.91 0 01.19.69 3.63 3.63 0 00.16.65 1.68 1.68 0 00.78.78l.21.14.19.14a1.74 1.74 0 001 .48 2.42 2.42 0 001.49-.72 1.89 1.89 0 00.6-1.47 1.5 1.5 0 010-.2 1.59 1.59 0 000-.61zm-14.43 3.01v-.07a2 2 0 00-.4-1.52 2.48 2.48 0 00-1.61-.57 2 2 0 00-1.29.55 2.25 2.25 0 00-.81 1.14 10.84 10.84 0 01-.38 1.11l-.06.15-.16.45a2.5 2.5 0 01-.33.73c-.35.44-.62.61-.95.61s-.47-.26-.8-.61l-.14-.15a4.05 4.05 0 01-.71-1 5 5 0 00-.3-.45 2.55 2.55 0 01-.42-.69c-.06-.16-.12-.31-.2-.48a5.05 5.05 0 01-.29-.8 1.54 1.54 0 010-.59 2 2 0 000-.82c-.08-.41-.15-.85-.22-1.32a1.71 1.71 0 00-.29-.68 1.59 1.59 0 01-.27-.62c0-.29-.06-.59-.08-.89v-1.84a4.93 4.93 0 010-.65 5.58 5.58 0 000-.72 2.37 2.37 0 01.08-.63 3.57 3.57 0 00.08-.74 2.35 2.35 0 00-.14-.7 2.75 2.75 0 01-.13-.66 3.36 3.36 0 01.15-.85 2.9 2.9 0 00.14-.7 6.35 6.35 0 000-.76 4.25 4.25 0 010-.8 1.89 1.89 0 00-.67-1.56 2.49 2.49 0 00-1.57-.7 2.45 2.45 0 00-1.41.65 1.85 1.85 0 00-.79 1.31 6 6 0 000 .84 8.92 8.92 0 010 .91 5.78 5.78 0 01-.08.67 6.92 6.92 0 00-.11 1.09 5.06 5.06 0 01-.05.68 4.77 4.77 0 000 .76 5.16 5.16 0 00.08.78c0 .22.06.43.07.64s0 .37 0 .56v.87a2.94 2.94 0 00.17.78 3.89 3.89 0 01.14.62 1.86 1.86 0 01-.12.67 2 2 0 00-.13.79 2.42 2.42 0 00.29.79 2.26 2.26 0 01.22.59 2.23 2.23 0 010 .67 2.33 2.33 0 000 .79 3.49 3.49 0 00.26.79 5.61 5.61 0 01.2.57c.13.55.25 1 .37 1.39a4.86 4.86 0 00.36.8c.08.17.17.34.23.51a4.43 4.43 0 01.18.59 4.33 4.33 0 00.27.79 4.74 4.74 0 00.56.8c.1.13.2.25.29.38a4.57 4.57 0 01.29.47 3.28 3.28 0 00.53.75 6.67 6.67 0 001.17.94 6.22 6.22 0 001.39.63 6 6 0 001.5.18 2.19 2.19 0 001-.35 4.26 4.26 0 01.49-.23 4.33 4.33 0 001.37-.74 6.25 6.25 0 001.12-1.08 6.9 6.9 0 00.64-1.1l.13-.26c.08-.16.18-.31.28-.47a4.45 4.45 0 00.49-.89c.16-.44.35-.94.49-1.46a.6.6 0 00-.09-.5.51.51 0 01-.03-.14zm56.18 5.63a2.3 2.3 0 00-.8-.82c-.21-.12-.43-.23-.65-.34a7.23 7.23 0 01-.73-.4c-.33-.21-.65-.45-1-.68l-.31-.24a20.3 20.3 0 01-1.08-.84l-.32-.27c-.24-.2-.49-.41-.72-.63a8.37 8.37 0 01-.57-.62l-.35-.39c-.14-.15-.29-.29-.44-.43a6.72 6.72 0 01-.53-.54l-.37-.43c-.2-.23-.4-.46-.58-.7a2.58 2.58 0 01-.31-.67 3.51 3.51 0 00-.32-.68c-.12-.18-.25-.36-.38-.53a5.81 5.81 0 01-.46-.68 5.26 5.26 0 01-.33-.72c-.08-.21-.17-.42-.27-.62s-.2-.37-.31-.56-.28-.48-.39-.73l-.12-.27c-.17-.36-.33-.71-.47-1.08a4 4 0 01-.18-.72 4.32 4.32 0 00-.17-.71 2.69 2.69 0 00-.41-.72 2.8 2.8 0 01-.37-.67c-.11-.37-.2-.75-.29-1.13l-.09-.38c-.05-.24-.13-.47-.2-.7a6.15 6.15 0 01-.23-.81 2.07 2.07 0 010-.74 2.65 2.65 0 000-.79 3.35 3.35 0 000-.64 3.44 3.44 0 010-.55 2.71 2.71 0 01.08-.54 3.47 3.47 0 00.11-.67 1.61 1.61 0 00-.23-.69 1.18 1.18 0 01-.19-.52v-.25c0-.48 0-1-.36-1.26a2.19 2.19 0 00-1.36-.27H199a2.28 2.28 0 00-1.35.56l-.12.09a1.37 1.37 0 00-.76 1.13 5.68 5.68 0 010 .72c0 .22 0 .44-.05.65v4.09a4.39 4.39 0 01-.17.67 3.55 3.55 0 00-.17.66 2.49 2.49 0 00.08.77 1.76 1.76 0 01.07.62 3.41 3.41 0 01-.22.66 3.77 3.77 0 00-.23.64 6.09 6.09 0 01-.21.73q-.1.28-.18.57l-.12.51c-.06.28-.12.54-.2.8a3.39 3.39 0 00-.13.68 3.32 3.32 0 01-.13.67 4.47 4.47 0 01-.35.69c-.09.18-.19.35-.27.52a3.37 3.37 0 00-.19.69 2.4 2.4 0 01-.19.64 6.75 6.75 0 01-.44.65l-.34.48-.07.11c-.22.35-.44.7-.68 1s-.62.82-.9 1.15a4 4 0 01-.57.5 4.51 4.51 0 00-.53.45 4.34 4.34 0 01-.61.51c-.18.14-.35.27-.51.41s-.32.33-.47.5a4.62 4.62 0 01-.53.55 6.46 6.46 0 01-.67.44 6.37 6.37 0 00-.55.35 4 4 0 00-.53.47 4.15 4.15 0 01-.57.48 4.38 4.38 0 01-.69.32 5.82 5.82 0 00-.64.27 2.29 2.29 0 00-1.22 1.93 2 2 0 00.72 1.29l.08.09a1.65 1.65 0 001.35.46h.7a1.16 1.16 0 00.61-.16c.3-.16.59-.36.87-.54l.36-.24a5.39 5.39 0 01.52-.3 8 8 0 00.73-.45 6.76 6.76 0 00.64-.54 4.69 4.69 0 01.47-.42 3.67 3.67 0 01.55-.34 3.92 3.92 0 00.7-.44 2.47 2.47 0 00.48-.68 2.28 2.28 0 01.36-.55l.46-.4a6.64 6.64 0 00.62-.57l.45-.43a5.48 5.48 0 00.59-.59 3.33 3.33 0 00.44-.71 3.61 3.61 0 01.32-.55 2.69 2.69 0 01.45-.44 2.85 2.85 0 00.57-.58 2.77 2.77 0 00.29-.77 2.12 2.12 0 01.21-.6 3 3 0 01.39-.5 3.13 3.13 0 00.48-.65 3.67 3.67 0 00.28-.76 5.1 5.1 0 01.2-.59 6.35 6.35 0 00.28-.8l.18-.55c.07-.18.15-.36.23-.54a6.51 6.51 0 00.31-.77 4 4 0 01.21-.5l.11-.22a1.24 1.24 0 00.14.18 1.48 1.48 0 01.28.45 5.25 5.25 0 01.17.6 5 5 0 00.22.75 3.62 3.62 0 01.18.61 5.31 5.31 0 00.24.74 3.71 3.71 0 00.44.65 3.25 3.25 0 01.36.52 3.45 3.45 0 01.23.59 3.24 3.24 0 00.28.73 3 3 0 00.53.6 2.57 2.57 0 01.43.45 2.44 2.44 0 01.25.59 2.54 2.54 0 00.33.71 3.75 3.75 0 00.54.58 6.08 6.08 0 01.44.44c.26.34.54.65.81 1l.09.11c.34.38.65.72.95 1a2.32 2.32 0 01.35.53 2.47 2.47 0 00.46.65 4.11 4.11 0 00.65.47 3.26 3.26 0 01.51.35 3.18 3.18 0 00.69.4 3.88 3.88 0 01.53.31 3.41 3.41 0 01.45.41 3.79 3.79 0 00.6.53 2.23 2.23 0 01.47.41 2.77 2.77 0 00.62.51 1.46 1.46 0 001 .1h.27a2 2 0 001.42-.74 2.12 2.12 0 00.73-1.44 2 2 0 00-.35-1.14zm18.62-3.96v-.72a2.26 2.26 0 00-.12-.78 2.1 2.1 0 01-.1-.67 2.83 2.83 0 01.07-.7 3.89 3.89 0 00.07-.76 6.16 6.16 0 000-.75 5.89 5.89 0 010-.71v-1.45a3.48 3.48 0 01.06-.69 4 4 0 00.07-.76 3.18 3.18 0 00-.09-.78 2.55 2.55 0 01-.08-.68c0-.62-.44-1-1.19-1s-1.29.37-1.29 1a5 5 0 010 .68 4.09 4.09 0 00-.05.73 1.93 1.93 0 00.14.78 1.61 1.61 0 01.12.64 1.35 1.35 0 01-.14.62 1.75 1.75 0 00-.17.79 5.36 5.36 0 00.05.73 5 5 0 010 .68 5.59 5.59 0 000 .72v3.5a3.32 3.32 0 01-.06.67 3.09 3.09 0 00-.07.74 2.08 2.08 0 00.12.76 1.64 1.64 0 01.11.64 2.56 2.56 0 01-.07.67 3.73 3.73 0 00-.07.74v.72a5.17 5.17 0 010 .69.86.86 0 01-.92 1 2.77 2.77 0 01-.6 0 4.3 4.3 0 00-.66-.05h-3.77a1.17 1.17 0 00-1.16 1.23 1.23 1.23 0 001.16 1.31 2.72 2.72 0 00.8-.1 3.3 3.3 0 01.66-.1h1.44a2.65 2.65 0 01.68.07 3.27 3.27 0 00.77.08h1.66a2.78 2.78 0 001.25-.16 2.27 2.27 0 001-1.15 3.34 3.34 0 00.24-1.41 5.41 5.41 0 010-.71 6.23 6.23 0 000-.76v-2.92a6 6 0 010-.71 4.2 4.2 0 00.05-.75 5.84 5.84 0 00.09-.92z"/><circle cx="79.11" cy="101.75" r="43.52" transform="rotate(-45 79.107 101.753)" fill="#fff"/><g clip-path="url(#clip-path)"><path class="cls-2" d="M10.28 100.15a1.66 1.66 0 001.72 1.51 1.45 1.45 0 001.52-1.51 2.05 2.05 0 01.09-.65 2.57 2.57 0 00.11-.79v-1.44a4.36 4.36 0 00-.05-.75 5 5 0 010-.68v-2.87a4 4 0 00-.07-.77 2.56 2.56 0 01-.07-.67 1.59 1.59 0 01.12-.63 2 2 0 00.15-.8v-1.44a4.36 4.36 0 00-.05-.75 4.62 4.62 0 010-.68 3.24 3.24 0 01.06-.67 4 4 0 00.07-.76 2 2 0 00-.15-.8 1.62 1.62 0 01-.11-.63 3.24 3.24 0 01.06-.67 3.27 3.27 0 00.08-.77 4 4 0 00-.06-.75 3.62 3.62 0 010-.68 2.52 2.52 0 01.07-.66 2.64 2.64 0 00.1-.77 1.15 1.15 0 01.23-.86c.17-.16.45-.18.88-.18a2.26 2.26 0 00.72-.1 2 2 0 01.59-.08h2.61a2.94 2.94 0 01.61 0 4.67 4.67 0 00.69.05 2 2 0 00.73-.12 1.53 1.53 0 01.57-.09A1.47 1.47 0 0023 77.4a1.55 1.55 0 00-1.64-1.54 3.84 3.84 0 01-.72-.06 3.43 3.43 0 00-.78-.07 3.06 3.06 0 00-.82.1 2.25 2.25 0 01-.69.09 2.8 2.8 0 01-.69-.07 3.54 3.54 0 00-.81-.08h-1.5a4.66 4.66 0 00-.79 0 3.72 3.72 0 01-.71.06h-.39a2.87 2.87 0 00-1 .07 3.12 3.12 0 00-1.26.75 3 3 0 00-.71 1.35 4.79 4.79 0 00-.18 1.39v4.17a5.17 5.17 0 010 .66 4 4 0 000 .72 2.15 2.15 0 00.12.77 1.85 1.85 0 01.09.62v1.39a2.22 2.22 0 01-.08.62 2.44 2.44 0 00-.11.76 2.51 2.51 0 00.1.76 2.24 2.24 0 01.08.63v2.09a5.36 5.36 0 010 .67 1.59 1.59 0 01-.1.62 2.4 2.4 0 00-.12.77 2.13 2.13 0 00.12.76 1.85 1.85 0 01.09.62 2.35 2.35 0 01-.07.64 3 3 0 00-.08.75 5.18 5.18 0 00.05.72 4.42 4.42 0 010 .66 4.94 4.94 0 010 .67 5.53 5.53 0 00-.12.69zm82.14-4.82a3.72 3.72 0 00-.34-1.53c0-.14-.08-.29-.12-.44a1.74 1.74 0 00-.6-1.14 3 3 0 00-1.73-.69 4.05 4.05 0 00-.75.06 4.05 4.05 0 01-.61 0 2.66 2.66 0 01-.59 0 4.22 4.22 0 00-.77-.06 2 2 0 00-.86.17 1.09 1.09 0 01-.49.1 2.19 2.19 0 00-.85.16 1.07 1.07 0 01-.5.1h-1.35a1.89 1.89 0 01-.55-.07 2.4 2.4 0 00-.8-.11H81c-.13 0-.22 0-.4-.15s-.22-.22-.21-.53v-1.01a5.59 5.59 0 000-.72v-1.35a6 6 0 000-.71v-.63a5.78 5.78 0 000-.73v-.62a4.54 4.54 0 010-.63v-.72a4.4 4.4 0 010-.61 4.09 4.09 0 00.05-.73 3.8 3.8 0 00-.07-.76 2.59 2.59 0 01-.06-.59v-1.34a4.47 4.47 0 010-.62 5.65 5.65 0 000-.73v-.27a2.34 2.34 0 00-.34-1.56 3.45 3.45 0 00-1.5-1.19 5 5 0 00-1.81-.43 3.82 3.82 0 00-1.48.4l-.29.12A3.52 3.52 0 0073.57 77a2.89 2.89 0 00-.7 1.77v1.33a2.78 2.78 0 00.1.8 1.79 1.79 0 01.07.55 5.54 5.54 0 000 .74 4 4 0 010 .61 1.76 1.76 0 01-.07.54 2.7 2.7 0 00-.11.8 2.77 2.77 0 010 .6 4.14 4.14 0 00-.06.75 1.57 1.57 0 00.28.93.66.66 0 01.14.42v1.34c0 .12 0 .16-.2.32a1.31 1.31 0 00-.52 1 1.36 1.36 0 00.44 1c.14.16.18.21.18.34a3.15 3.15 0 00.08.67c.06.31.06.33-.07.46s-.14.12-.45.06a3 3 0 00-.69-.09 3.47 3.47 0 01-.59 0 4.18 4.18 0 00-.76-.06 4.26 4.26 0 01-.63 0 5.65 5.65 0 00-.73 0 2 2 0 01-.57-.07 3.11 3.11 0 00-.78-.09 1.89 1.89 0 00-.89.21.91.91 0 01-.47.11A3.3 3.3 0 0066 92c-.28 0-.29 0-.48-.11a1.57 1.57 0 01.07-.18 1.9 1.9 0 00.22-.85 1.89 1.89 0 01.07-.55 2.78 2.78 0 00.1-.8 3.57 3.57 0 010-.59 3.29 3.29 0 00.07-.76 4.14 4.14 0 00-.06-.75 2.73 2.73 0 010-.59 1.73 1.73 0 00-.23-.9.83.83 0 01-.11-.45 3.13 3.13 0 00-.08-.77 2.42 2.42 0 01-.06-.58.83.83 0 01.12-.45 1.83 1.83 0 00.22-.89v-2.69a2.14 2.14 0 00-.16-.85 1.12 1.12 0 01-.09-.5 2.55 2.55 0 00-.6-1.67 3.78 3.78 0 01-.22-.33 2.37 2.37 0 00-1.06-1 3.32 3.32 0 00-1.39-.12h-.66a4.18 4.18 0 00-1.55.19A3.29 3.29 0 0058.73 77a2 2 0 00-.32 1.41v.34a.88.88 0 01-.12.5A2.58 2.58 0 0058 80a3.06 3.06 0 01-.12.5 2.83 2.83 0 00-.14 1 2 2 0 00.18.86 1.08 1.08 0 01.11.49 6.09 6.09 0 000 .72 4.47 4.47 0 010 .62v.63a5.59 5.59 0 000 .72 2 2 0 00.18.87 1 1 0 01.1.48 1.1 1.1 0 01-.09.49 2 2 0 00-.17.85.9.9 0 01-.11.48 2 2 0 00-.18.87 4 4 0 00.06.75 2.73 2.73 0 010 .59 1.87 1.87 0 00.35 1 1 1 0 00.13.18c-.11.11-.13.12-.45 0a2.88 2.88 0 00-.65-.1c-.16 0-.22 0-.37-.17a1.41 1.41 0 00-1-.4 2.37 2.37 0 00-.84.15 1.33 1.33 0 01-.51.09 1.46 1.46 0 01-.54-.08 2.72 2.72 0 00-.81-.11 1.77 1.77 0 00-.91.23.77.77 0 01-.45.12.88.88 0 01-.47-.11 2 2 0 00-.88-.19 1.83 1.83 0 00-1 .41l-.14.09a1.63 1.63 0 01.11-.17 2 2 0 00.37-1 3.43 3.43 0 00-.08-.8 2.76 2.76 0 01-.06-.62v-.75a5.07 5.07 0 010-.66v-.66a6.16 6.16 0 000-.75 3.41 3.41 0 00-.09-.81 2.7 2.7 0 01-.06-.6v-.67a6.57 6.57 0 000-.75v-1.4a3 3 0 00-.1-.83 2 2 0 01-.07-.59 1.12 1.12 0 01.11-.5 2 2 0 00.2-.9 3.08 3.08 0 00-.28-1.57 2.14 2.14 0 00-.88-.79l-.26-.17a4 4 0 00-1.25-.61 5 5 0 00-1.35-.19 1.8 1.8 0 00-.92.31 2.19 2.19 0 01-.35.17 1.24 1.24 0 01-.41 0 1.18 1.18 0 00-1.58 1.15 1.43 1.43 0 01-.09.37 2.34 2.34 0 00-.31 1.28 2 2 0 01-.07.58 3 3 0 00-.11.83 1 1 0 01-.11.51 2.17 2.17 0 000 1.82 1 1 0 01.12.5 3.44 3.44 0 00.09.82 2.15 2.15 0 01.07.59.72.72 0 01-.13.46 1.68 1.68 0 00-.28 1v1.41a2 2 0 00.19.9 1 1 0 01.11.51v1.41a3.33 3.33 0 00.09.71c.08.36.07.39-.06.51s-.22.16-.56.08a3.65 3.65 0 00-.74-.09h-1.4a3.25 3.25 0 01-.65-.06 3.6 3.6 0 00-.83-.08h-1.47a.74.74 0 01-.47-.16 1.79 1.79 0 00-1-.3 1.54 1.54 0 00-1.2.8 2.27 2.27 0 01-.28.31 2.67 2.67 0 00-1 1.22l-.15.32a2.91 2.91 0 00-.35 1.23 3.67 3.67 0 00.38 1.46v.12a2.82 2.82 0 001.06 1.22 2.29 2.29 0 01.27.27 1.67 1.67 0 001.23.71 4.67 4.67 0 00.81-.06 4.46 4.46 0 01.67 0 3.08 3.08 0 00.85-.1 2.22 2.22 0 01.62-.08 1.17 1.17 0 01.56.12 2.22 2.22 0 00.92.18A3.47 3.47 0 0040 99a3.06 3.06 0 01.64-.06 2.16 2.16 0 001-.27l.26-.12.1.08a1 1 0 01-.1.26 2.1 2.1 0 00-.25.93 3.44 3.44 0 00.09.82 2 2 0 01.07.59v.67a6.29 6.29 0 000 .73 2.83 2.83 0 00.12.84 1.65 1.65 0 01.08.57.85.85 0 01-.12.48 1.86 1.86 0 00-.22.92 4.16 4.16 0 010 .63 4.4 4.4 0 00-.06.77v1.4a1.56 1.56 0 00.32 1 .63.63 0 01.15.43 1.23 1.23 0 01-.1.52 2 2 0 00-.18.87.76.76 0 01-.13.46 1.61 1.61 0 00-.27.94 2.89 2.89 0 00.11.83 2 2 0 01.07.57 1.53 1.53 0 00.33 1 .64.64 0 01.15.42.82.82 0 01-.13.47 1.85 1.85 0 00-.24.94 2 2 0 01-.08.58 3.31 3.31 0 00-.1.82 4.18 4.18 0 00.06.76 4.43 4.43 0 010 .64 1.58 1.58 0 01-.08.56 2.48 2.48 0 00-.12.84 1.7 1.7 0 00.25.93.84.84 0 01.13.47c0 .47 0 .92.08 1.43a3.55 3.55 0 00.2.93 3.89 3.89 0 01.12.49 11 11 0 00.36 1.4c0 .14.08.29.12.43a3.76 3.76 0 00.36 1 4.28 4.28 0 01.2.43 2.88 2.88 0 00.54.91c.08.09.16.19.25.28a4.22 4.22 0 00.86.82 1.87 1.87 0 001 .23 1.89 1.89 0 01.53.07 3.78 3.78 0 00.9.21l.52.09a2 2 0 01.41.23 2.1 2.1 0 00.94.43c.3 0 .63 0 1 .06h.48a2.34 2.34 0 01.53.12 3.2 3.2 0 00.91.17 3.44 3.44 0 00.82-.09 2.12 2.12 0 01.6-.07 1.61 1.61 0 001-.29.73.73 0 01.45-.14.89.89 0 01.49.12 1.81 1.81 0 00.93.24 3.43 3.43 0 00.8-.08 3.8 3.8 0 01.62-.05 5.1 5.1 0 01.65 0 5.76 5.76 0 00.76.05 4.36 4.36 0 00.78-.06 3.14 3.14 0 01.64-.05 5.76 5.76 0 00.76 0 4.89 4.89 0 01.65 0 .64.64 0 01.43.15 1.65 1.65 0 001 .32 2.48 2.48 0 00.84-.12 1.65 1.65 0 01.57-.08 2.22 2.22 0 00.87-.16 1.53 1.53 0 01.55-.09.62.62 0 01.42.15 1.59 1.59 0 001 .33 1.68 1.68 0 001-.28.73.73 0 01.45-.14 3.47 3.47 0 00.81-.08 2.21 2.21 0 01.61-.07h1.41a1.78 1.78 0 01.59.08 3.31 3.31 0 00.82.1.65.65 0 01.44.15 1.64 1.64 0 001 .3 4.41 4.41 0 00.76 0 4.48 4.48 0 01.65 0h2.08a6.49 6.49 0 00.74 0 3.43 3.43 0 00.8-.08 3.76 3.76 0 01.61-.05 2.83 2.83 0 00.84-.12 1.61 1.61 0 01.57-.09 6.45 6.45 0 00.75 0 5.17 5.17 0 01.66 0 3.34 3.34 0 00.81-.09 2.88 2.88 0 01.61-.06.61.61 0 01.42.16 1.56 1.56 0 001 .34 2.35 2.35 0 00.87-.15 1.23 1.23 0 01.54-.1 2.79 2.79 0 001.71-.63 3.38 3.38 0 001.13-1.38 4.55 4.55 0 00.28-1.7 4.38 4.38 0 010-.5 2.54 2.54 0 00-.06-1.31 1.63 1.63 0 00-1.13-.83 1.88 1.88 0 01-.46-.19l-.22-.18a1.86 1.86 0 00-1.29-.58 3.68 3.68 0 00-.81.07 3.84 3.84 0 01-.63 0 1.05 1.05 0 01-.52-.12 2 2 0 00-.92-.2 2.91 2.91 0 00-.84.11 2.18 2.18 0 01-.6.07 1 1 0 01-.51-.11 1.88 1.88 0 00-.92-.21 3.19 3.19 0 01-.65 0 6.33 6.33 0 00-.79 0h-1.43a1.75 1.75 0 00-1 .29.66.66 0 01-.45.15 2 2 0 01-.58-.08 2.61 2.61 0 00-.86-.13 4.23 4.23 0 00-.81.08 2.32 2.32 0 01-.62.06 2.1 2.1 0 00-.89.18 1.27 1.27 0 01-.54.1.55.55 0 01-.41-.18 1.5 1.5 0 00-1-.39 1.82 1.82 0 00-.94.24.81.81 0 01-.49.14.7.7 0 01-.47-.15 1.81 1.81 0 00-1-.27 4.58 4.58 0 00-.79.06 3.14 3.14 0 01-.64 0 1.56 1.56 0 00-1 .33.7.7 0 01-.45.15 4.76 4.76 0 01-.66 0 6.29 6.29 0 00-.77 0h-3.02a3.47 3.47 0 00-.79.07 4.43 4.43 0 01-.64 0 .89.89 0 01-.49-.13 1.81 1.81 0 00-.94-.25 1.05 1.05 0 01-.52-.12 2.11 2.11 0 00-.91-.2 1.49 1.49 0 00-1 .43.49.49 0 01-.39.19.59.59 0 01-.43-.17 1.54 1.54 0 00-1-.35 5.73 5.73 0 01-.69 0h-1.43a2.44 2.44 0 01-.71 0l-.36-.05a1.89 1.89 0 01-.83-.22 1.82 1.82 0 01-.79-.91 1.62 1.62 0 01.07-.57 4.24 4.24 0 00.12-.86 1.71 1.71 0 00-.29-1 .73.73 0 01-.15-.47 1 1 0 01.13-.52 1.87 1.87 0 00.22-.93 1.92 1.92 0 00-.21-.93 1.05 1.05 0 01-.12-.52 6.43 6.43 0 000-.77v-.67a3 3 0 01.06-.63 3.47 3.47 0 00.08-.81 2.21 2.21 0 01.07-.61 3 3 0 00.1-.83v-.67a6.56 6.56 0 000-.77 2.59 2.59 0 00-.13-.87 2 2 0 01-.08-.58.67.67 0 01.15-.44 1.62 1.62 0 00.33-1 4.4 4.4 0 00-.06-.79 4.71 4.71 0 010-.65v-.67a4.55 4.55 0 00.05-.77 1.48 1.48 0 00-.4-1 .59.59 0 01-.18-.41 2.29 2.29 0 01.07-.62 3.47 3.47 0 00.09-.83 1.09 1.09 0 01.11-.52 2 2 0 00.2-.91 4.82 4.82 0 010-.67 6.49 6.49 0 000-.78 1.7 1.7 0 00-.24-.86c.1-.11.15-.14.15-.15h.12a2.61 2.61 0 00.56 0 3.33 3.33 0 00.77-.07 3.33 3.33 0 01.58-.05.48.48 0 01.37.17 1.48 1.48 0 002 0 .53.53 0 01.38-.15 2.32 2.32 0 00.81-.12 1.76 1.76 0 01.54-.07c.14 0 .19 0 .34.18a1.37 1.37 0 001 .44A1.47 1.47 0 0058 99l.24.26v.2a3.22 3.22 0 000 .33.65.65 0 01-.14.43 1.72 1.72 0 00-.27.94 1.5 1.5 0 00.34 1 .56.56 0 01.15.39v1.37a.66.66 0 01-.14.42 1.58 1.58 0 00-.3 1 2.47 2.47 0 00.13.84 1.41 1.41 0 01.09.53 1.08 1.08 0 01-.11.49 2.08 2.08 0 00-.18.88v.64a5.65 5.65 0 000 .73 3.11 3.11 0 00.09.78 2.56 2.56 0 01.06.58 5.36 5.36 0 00.13 1 5.16 5.16 0 01.09.52 4.22 4.22 0 00.28 1.05 4 4 0 01.16.45 5.82 5.82 0 00.54 1.48 2.63 2.63 0 01.18.5 2.27 2.27 0 00.55 1 5.78 5.78 0 001.43.93 3.82 3.82 0 001.1.3l.49.1a4.07 4.07 0 001 .06 3.9 3.9 0 01.59 0 2 2 0 01.53.14 3.12 3.12 0 001 .21 2.81 2.81 0 01.61.05 4.22 4.22 0 00.77.06h1.26a1.61 1.61 0 001-.29.69.69 0 01.43-.14.59.59 0 01.4.15 1.53 1.53 0 001 .32 2 2 0 00.88-.19 1 1 0 01.49-.12 3 3 0 001-.21 2.64 2.64 0 01.52-.15 1.57 1.57 0 01.56.15 1.83 1.83 0 001.07.17 6.29 6.29 0 001.32-.54l.2-.09a4.42 4.42 0 001.08-.85l.38-.36a4.5 4.5 0 001-1.1 7.66 7.66 0 00.62-1.53 6.14 6.14 0 00.16-1.14v-.44a2.59 2.59 0 00-.11-.93 2.46 2.46 0 01-.11-.62 2.78 2.78 0 00-.11-.81 1.91 1.91 0 01-.07-.56c0-.15 0-.2.19-.36a1.41 1.41 0 00.44-1 2.8 2.8 0 00-.11-.82 1.86 1.86 0 01-.07-.56 1.91 1.91 0 01.07-.56 2.8 2.8 0 00.1-.81v-1.37a2.75 2.75 0 00-.1-.79 2.53 2.53 0 01-.06-.57 1.77 1.77 0 00-.22-.9.91.91 0 01-.11-.47 1.35 1.35 0 01.09-.52 2.18 2.18 0 00.15-.85 3.12 3.12 0 000-.52v-.08s0-.06.16-.19a1.32 1.32 0 00.79.24h.72a4.81 4.81 0 01.64 0 4 4 0 00.75-.06 3.89 3.89 0 01.6 0 1.5 1.5 0 001-.35.54.54 0 01.38-.16 3.65 3.65 0 01.61 0 4.28 4.28 0 00.75 0 1.09 1.09 0 01.49.1 2 2 0 00.86.17 1.71 1.71 0 01.54.08 2.72 2.72 0 00.81.11 3 3 0 001.77-.69 2.14 2.14 0 00.7-1.18c0-.13.08-.26.13-.38a3.08 3.08 0 00.19-1.38zm-19.27 5.26v.66a3 3 0 010 .62 4.36 4.36 0 00-.06.78v.64a6.16 6.16 0 000 .75 2.12 2.12 0 01-.07.6 3.24 3.24 0 00-.09.8 1.92 1.92 0 00.2.9 1 1 0 01.12.5 2 2 0 01-.07.58 2.86 2.86 0 00-.1.81 2.92 2.92 0 010 .62 4.45 4.45 0 00-.06.78 1.58 1.58 0 01-.38 1.21c-.09.1-.15.12-.74.11h-.36a4.18 4.18 0 00-.76.06 2.77 2.77 0 01-.6 0 1.8 1.8 0 00-.89.22.81.81 0 01-.46.12 3.13 3.13 0 00-.77.08 3.57 3.57 0 01-.59 0 1.49 1.49 0 01-1.2-.6 2 2 0 01-.27-1.3v-1.4a2 2 0 00-.16-.87 1.45 1.45 0 01-.09-.53v-1.4a.82.82 0 01.13-.47 1.81 1.81 0 00.24-.93 2.43 2.43 0 00-.13-.84 1.85 1.85 0 01-.08-.56 2.7 2.7 0 01.06-.6 4 4 0 00.08-.79 2.8 2.8 0 00-.1-.81 2.74 2.74 0 01-.06-.59 2.14 2.14 0 00-.24-.92c-.13-.32-.12-.33-.07-.38a.22.22 0 01.08-.07 2 2 0 01.34.13 4.66 4.66 0 00.72.29 2.87 2.87 0 00.88.21h.4a1.68 1.68 0 00.94-.28.61.61 0 01.42-.14h1.35c.12 0 .16 0 .33.2a1.31 1.31 0 001 .51 1.71 1.71 0 001.08-.49l.16-.13v.37a2.72 2.72 0 00-.15.81 6 6 0 00.02.74zm33.75 24.82a7.94 7.94 0 001.22-.7 4.76 4.76 0 00.64-.63 4.14 4.14 0 01.35-.38 3 3 0 00.45-.66 4.07 4.07 0 01.31-.49c.1-.13.21-.25.32-.37a4.83 4.83 0 00.56-.68c.1-.14.22-.27.35-.42a3.66 3.66 0 00.51-.65 5.46 5.46 0 00.34-.74c.08-.19.16-.38.25-.56a4.11 4.11 0 00.27-.74 5.27 5.27 0 01.2-.6c.07-.15.15-.3.22-.46s.26-.54.37-.83l.07-.17c.15-.37.31-.75.45-1.14a2.74 2.74 0 01.3-.55 2.73 2.73 0 00.39-.71 3.21 3.21 0 00.11-.8 2.53 2.53 0 01.07-.63c.06-.2.12-.39.19-.58s.18-.51.25-.77v-.21c.1-.39.19-.77.28-1.17s.1-.53.14-.8.06-.4.1-.6a7 7 0 00.09-.77 4.62 4.62 0 01.06-.64c0-.2.09-.41.14-.61a4.79 4.79 0 00.17-.77 4.05 4.05 0 01.16-.62 4.79 4.79 0 00.17-.77 5.08 5.08 0 000-.78 3.45 3.45 0 010-.64 4 4 0 01.1-.6c0-.15.06-.3.09-.47.36 0 .68 0 1 .11a4.62 4.62 0 00.64.06 3.5 3.5 0 01.76.1 11.11 11.11 0 011.34.45 2.31 2.31 0 01.6.43 3.71 3.71 0 00.54.42l.49.25a3.89 3.89 0 01.72.42 9.53 9.53 0 011 .94l.42.39a3.61 3.61 0 01.59.58 2.42 2.42 0 01.29.67 3.1 3.1 0 00.24.64 2.61 2.61 0 00.43.56 2.17 2.17 0 01.41.59l.11.29a6.86 6.86 0 01.36 1.05 3.25 3.25 0 01.06.78v.64a3.29 3.29 0 010 .76 4.48 4.48 0 00-.06.64v1.38a6 6 0 01-.17.82c0 .18-.1.36-.14.54a9.86 9.86 0 01-.36 1.32 2.39 2.39 0 00-.06.8 1.52 1.52 0 01-.06.66 1.73 1.73 0 01-.49.48 2.17 2.17 0 00-.57.52 2.66 2.66 0 00-.3.64 2 2 0 01-.33.64 9.62 9.62 0 01-.81.72l-.26.2-.38.34a5.53 5.53 0 01-.7.58c-.25.16-.53.3-.82.45l-.45.22a8.16 8.16 0 01-.84.37l-.46.19a5.35 5.35 0 01-.74.25l-.62.19a3.11 3.11 0 00-1.39 1.07 2.67 2.67 0 00-.66 1.66 2.88 2.88 0 00.43 1.36l.12.24a2.22 2.22 0 00.75 1 2.18 2.18 0 001.12.21h.36a1.85 1.85 0 00.76-.22l.29-.12a3.35 3.35 0 01.6-.12 3.81 3.81 0 00.78-.18 5.28 5.28 0 00.75-.38c.16-.09.32-.18.49-.26l.45-.2a8.76 8.76 0 00.82-.39 4.44 4.44 0 00.69-.48l.45-.33a5 5 0 01.5-.29 4.07 4.07 0 00.71-.43l.42-.3a7.25 7.25 0 00.7-.54c.38-.35.71-.67 1-1a5.61 5.61 0 00.53-.7l.3-.44c.12-.15.26-.29.39-.43a3.85 3.85 0 00.55-.64 6.39 6.39 0 00.4-.78 4.37 4.37 0 01.23-.49l.25-.44a6.73 6.73 0 00.42-.8c.07-.17.15-.33.24-.5a5.15 5.15 0 00.36-.79 4.8 4.8 0 00.14-.83 3.88 3.88 0 01.09-.58v-.1c.1-.41.19-.84.26-1.28a3.75 3.75 0 000-.82 4.06 4.06 0 010-.6 7.85 7.85 0 000-.84 5.07 5.07 0 010-.55v-.59a5.13 5.13 0 000-.88 5 5 0 00-.17-.87 3.53 3.53 0 01-.14-.56l-.06-.38a10.36 10.36 0 00-.2-1.06 3 3 0 01-.05-.62 2.56 2.56 0 00-.1-.87l-.1-.28a10.67 10.67 0 00-.44-1.11 2.27 2.27 0 00-.58-.69 1.94 1.94 0 01-.42-.45 2.33 2.33 0 01-.21-.58 2.09 2.09 0 00-.34-.83 2.34 2.34 0 00-.7-.56 2.21 2.21 0 01-.51-.36 4.47 4.47 0 01-.36-.47 3.61 3.61 0 00-.57-.68 5.39 5.39 0 00-.76-.52l-.47-.3a3.53 3.53 0 01-.44-.43 3.19 3.19 0 00-.67-.59 4.44 4.44 0 00-.82-.34l-.56-.22a5 5 0 00-.83-.26 4 4 0 01-.59-.16 8.08 8.08 0 00-.93-.26l-.48-.12a5.1 5.1 0 01-.55-.19 5.61 5.61 0 00-.85-.26 5.93 5.93 0 00-.84-.06h-.62a3.11 3.11 0 01-.6-.18 3.34 3.34 0 00-.84-.21h-3.3q-.51 0-1 .06a4 4 0 00-.79.22 2.94 2.94 0 01-.58.18l-.58.07a8.3 8.3 0 00-.83.12c-.43.1-.85.22-1.26.35h-.11c-.33.1-.66.22-1 .34l-.35.13c-.52.19-.93.36-1.31.53a3.39 3.39 0 01-.59.17 3.16 3.16 0 00-.79.25c-.37.2-.77.43-1.24.72a7.25 7.25 0 00-.68.53c-.14.12-.29.25-.44.36-.37.27-.75.57-1.12.88a5.55 5.55 0 01-.46.35 5.47 5.47 0 00-.67.54 2.77 2.77 0 00-.47.7 2.76 2.76 0 01-.31.51c-.33.37-.61.75-.88 1.11s-.5.73-.74 1.12v.06a2.7 2.7 0 01-.4.45 2.84 2.84 0 00-.53.65 5.21 5.21 0 00-.3.8c-.06.19-.12.37-.19.55a4.09 4.09 0 01-.26.51 5 5 0 00-.36.78l-.16.46a6.75 6.75 0 00-.29.9l-.08.3c-.09.36-.18.73-.24 1.11a3 3 0 000 .84 2.18 2.18 0 010 .61c0 .18 0 .36-.06.55a4.93 4.93 0 00-.09.87 2.51 2.51 0 00.18.83 3 3 0 01.14.55 2 2 0 01-.11.6 2 2 0 00-.12.83 8.87 8.87 0 00.25.92c0 .15.1.29.14.44a2.47 2.47 0 00.41.77 3.41 3.41 0 01.28.47 2.09 2.09 0 01.09.59 1.88 1.88 0 00.19.84 2.3 2.3 0 00.63.65 2.4 2.4 0 01.4.36 7.83 7.83 0 001 1 3.85 3.85 0 01.3.27 5 5 0 00.79.64 3.71 3.71 0 00.89.34l.44.13a7.8 7.8 0 001.35.35c.17 0 .33.08.49.12a3 3 0 00.9.18 4 4 0 00.87-.12 4.37 4.37 0 01.5-.09 5.5 5.5 0 001-.23l.37-.12a2.26 2.26 0 01.54 0 2 2 0 00.97-.12zm-7.07-10.79a2.55 2.55 0 010-.72 1.67 1.67 0 01.25-.6 2.6 2.6 0 00.3-.68 2.24 2.24 0 000-.73 1.79 1.79 0 010-.66 2.9 2.9 0 01.34-.65 4.88 4.88 0 00.28-.58c.07-.18.14-.35.2-.53a4.84 4.84 0 01.3-.73 2.15 2.15 0 01.46-.5 3.33 3.33 0 00.48-.51c.11-.16.21-.34.31-.51a3.6 3.6 0 01.41-.63c.13-.16.25-.33.37-.5a3.4 3.4 0 01.45-.59l.31-.3a8.3 8.3 0 01.69-.64 3.86 3.86 0 01.66-.4c.18-.1.35-.19.52-.3s.32-.23.48-.36a3.94 3.94 0 01.62-.44 2.21 2.21 0 01.66-.18 2.87 2.87 0 00.69-.16 12.33 12.33 0 011.26-.46l.32-.09a6.13 6.13 0 01.61-.18l-.06.41c0 .2-.06.4-.08.6a3.74 3.74 0 000 .75 2.54 2.54 0 010 .67c0 .25-.1.49-.15.74a4.69 4.69 0 00-.14.65l-.07.44c0 .32-.1.63-.16 1s-.07.36-.1.54-.1.57-.16.84c-.1.47-.22.92-.33 1.37a3.19 3.19 0 01-.29.63 3.6 3.6 0 00-.3.66c-.14.46-.27.9-.41 1.34a5.39 5.39 0 00-.18.66 5.71 5.71 0 01-.19.69c-.17.45-.35.88-.53 1.3a6.29 6.29 0 01-.37.67 6 6 0 00-.31.55 2.87 2.87 0 00-.23.72 2.45 2.45 0 01-.21.63 10.16 10.16 0 01-.67 1.08 7.92 7.92 0 01-.82 1 1.67 1.67 0 01-.72.3 4.38 4.38 0 00-.43.13l-.17.07a2.44 2.44 0 01-1 .27 2.21 2.21 0 01-1.15-.48 2.65 2.65 0 01-.8-1 4.71 4.71 0 01-.47-1.22 3.39 3.39 0 00-.24-.55 2.3 2.3 0 01-.27-.76 4.48 4.48 0 010-.82v-.59a4.62 4.62 0 00.04-.66z"/></g><path d="M124.62 105.43a3.07 3.07 0 00-.5-1.82 3 3 0 00.72-1.86 3.19 3.19 0 00-.68-1.86 3.27 3.27 0 00.44-1.81 4.11 4.11 0 00-.52-1.6c0-.09-.09-.17-.12-.25a4.65 4.65 0 00-.5-1.43l-.12-.23a3.48 3.48 0 010-.5 5.68 5.68 0 00-.09-1.31v-.37a4.72 4.72 0 00-.08-1.42v-.33a4.33 4.33 0 00-.09-1.57 1.93 1.93 0 010-.34 4.37 4.37 0 00-.18-1.6 4.23 4.23 0 00-.9-1.43l-.19-.22a4 4 0 00-1-1.38l-.12-.11v-.2a4.38 4.38 0 00-.36-1.6 3.43 3.43 0 00-1.46-1.44 4 4 0 00-.46-1.69 4.67 4.67 0 01-.23-.51 7.46 7.46 0 00-.56-1.15 7.76 7.76 0 00-.77-1 4.14 4.14 0 01-.37-.46 3.93 3.93 0 01-.18-.39 5.8 5.8 0 00-.67-1.26l-.33-.45c-.26-.34-.51-.69-.78-1a4.38 4.38 0 00-1.25-1l-.27-.14a4 4 0 00-1.47-1l-.18-.08-.14-.24a5.31 5.31 0 00-.65-1v-.13a3.36 3.36 0 00-1-1.91l-.48-.46c-.28-.28-.57-.56-.87-.81a4 4 0 00-1.64-.74 1.55 1.55 0 01-.23-.06 8.9 8.9 0 00-1-.58c-.17-.09-.35-.18-.5-.28s-.33-.26-.49-.39a8.83 8.83 0 00-.94-.7 3 3 0 01-.24-.26 4.53 4.53 0 00-1.17-1 10.8 10.8 0 00-1.08-.53c-.2-.09-.4-.17-.59-.27-.36-.19-.73-.36-1.11-.53l-.55-.26a3.9 3.9 0 00-1.88-.28h-.06l-.06-.07a4 4 0 00-1.43-1 3.11 3.11 0 00-1.56-.12A2.84 2.84 0 0092 57.41a3.05 3.05 0 00-2.5.53 4.57 4.57 0 00-1.3-.51 3 3 0 01-.51-.16 6.28 6.28 0 00-1.25-.36 6 6 0 00-1.39 0h-.31l-.11-.08a3.77 3.77 0 00-1.8-.73 2.25 2.25 0 01-.43-.11 5.61 5.61 0 00-1.4-.27 5.3 5.3 0 00-1.51.22 1.73 1.73 0 01-.34.09 2.31 2.31 0 01-.44-.08 5.7 5.7 0 00-1.41-.16 10.1 10.1 0 00-1.21.14l-.63.09a3.58 3.58 0 00-1.83.76l-.08.06h-.22a5.16 5.16 0 00-1.49 0 4.88 4.88 0 00-1.39.48l-.29.13h-.22a4.12 4.12 0 00-1.73 0 3.38 3.38 0 00-1.66 1 3.58 3.58 0 00-1.86 0 4.23 4.23 0 00-1.46.94l-.18.16c-.16.06-.33.1-.5.15a7.78 7.78 0 00-1.16.38 5.89 5.89 0 01-.59.21 9 9 0 00-1.12.43 5.67 5.67 0 00-1.13.74 2.5 2.5 0 01-.4.28 10.55 10.55 0 00-1 .64c-.17.11-.34.23-.53.34a10.41 10.41 0 00-1 .69 4.41 4.41 0 01-.49.36 6.05 6.05 0 01-.55.32 9.59 9.59 0 00-.88.51h-.2a3.8 3.8 0 00-1.75.65 6.61 6.61 0 00-1 .93c-.06.08-.13.15-.19.22h-.1a3.45 3.45 0 00-2 .77 3.24 3.24 0 00-.9 1.83 3.42 3.42 0 00-1.72.93c-.4.43-.82.86-1.2 1.3l-.46.48c-.28.28-.56.58-.81.88a3.91 3.91 0 00-.73 1.65l-.06.24A4.49 4.49 0 0042 76a2.27 2.27 0 01-.06.25 5.2 5.2 0 00-.55 1.16s0 .12-.08.18a3.43 3.43 0 00-1.69 1.36 3.65 3.65 0 00-.43 1.74 3.29 3.29 0 00-1.45 1.43 4.4 4.4 0 00-.37 1.56v.19l-.09.08a3.76 3.76 0 00-1.15 1.5 5.82 5.82 0 00-.3 1.36 3 3 0 01-.08.47 3.28 3.28 0 000 2 3.33 3.33 0 00-1 1.6 3.83 3.83 0 00.09 1.87 1.94 1.94 0 01.05.2c-.06.39-.08.74-.1 1.06a5.65 5.65 0 010 .59c0 .22-.09.42-.13.63a9.31 9.31 0 00-.21 1.13 2.26 2.26 0 01-.13.33 4.72 4.72 0 00-.41 1.48 3.17 3.17 0 01-.11.45 5.93 5.93 0 00-.25 1.34 1.69 1.69 0 01-.1.35 4.87 4.87 0 00-.29 1.51 4.5 4.5 0 00.32 1.56l.1.28a5 5 0 00.34 1.5 1.16 1.16 0 01.11.31v.61a7.4 7.4 0 000 1.22 5.75 5.75 0 00.37 1.36 2.49 2.49 0 01.14.41 6.82 6.82 0 00.38 1.28c0 .07.06.15.09.21v.05a3.39 3.39 0 00-.3 2.17 3 3 0 001 1.57 3 3 0 00-.11 2 2.82 2.82 0 01.08.46 5.89 5.89 0 00.3 1.37 3.62 3.62 0 001.21 1.52 3.77 3.77 0 00.28 1.88 3.72 3.72 0 001.3 1.42l.17.12a3.67 3.67 0 001.31 1.2l.13.09.19.39.3.58v.06a3.15 3.15 0 00.3 2.58 6.24 6.24 0 00.93 1 3.78 3.78 0 01.35.35 4.07 4.07 0 001.34 1.09l.22.13c.1.13.18.27.27.41a8.11 8.11 0 00.74 1 4.92 4.92 0 001.19.93 2.64 2.64 0 01.3.18 3.69 3.69 0 01.3.41 6.33 6.33 0 00.72.92 1.46 1.46 0 00.07.19 3.76 3.76 0 001 1.62 4.22 4.22 0 001.54.8l.25.08a3.31 3.31 0 001.58.62 3.12 3.12 0 001.15 1.72 3.08 3.08 0 01.44.37 7.58 7.58 0 001 .8 2.92 2.92 0 001.87.39 2.92 2.92 0 001.3 1.53c.41.21.85.42 1.28.62l.39.18a3.8 3.8 0 001.81.31h.23a3.61 3.61 0 001.87.1l.05.05a4.19 4.19 0 001.43.88 3.55 3.55 0 01.45.22 6.16 6.16 0 001.2.52 2.69 2.69 0 01.32.19 4.9 4.9 0 001.39.63 3.18 3.18 0 001.86-.15 3.11 3.11 0 001.74 1 5.66 5.66 0 001.43 0 2.66 2.66 0 01.44 0 4.72 4.72 0 001.53-.11l.28-.07a1.46 1.46 0 01.33.12 4.65 4.65 0 001.52.36 3.27 3.27 0 001.67-.43 3 3 0 001.92.79H81a3.24 3.24 0 002.14-1.1l.07-.06c.33-.06.62-.15.87-.22a3.1 3.1 0 002.46.86A3.15 3.15 0 0088.4 146a4 4 0 001.6 0 3.81 3.81 0 001.59-.91 3.52 3.52 0 002 0c.58-.2 1.16-.4 1.73-.62a4 4 0 001.4-1 3.28 3.28 0 002.13-.14 3.33 3.33 0 001.53-1.78h.12a6.3 6.3 0 001.15-.44h.22a3.81 3.81 0 001.78-.51 3.63 3.63 0 001.27-1.61h.1a4.43 4.43 0 001.47-.67 6.15 6.15 0 001-.94 4.48 4.48 0 01.35-.37 4.61 4.61 0 001-1.18l.15-.25a3.24 3.24 0 01.32-.17 5 5 0 001-.62h.14a3.42 3.42 0 002-.92 4.46 4.46 0 00.86-1.45 1.53 1.53 0 01.11-.27 5.14 5.14 0 00.73-1.22 2.53 2.53 0 01.16-.33 6.44 6.44 0 00.71-1.15 2.36 2.36 0 01.19-.36 2 2 0 01.19-.12 4.14 4.14 0 001.32-1.15 3.31 3.31 0 00.53-1.64 3 3 0 001.72-1.3 3.16 3.16 0 00.3-2.1 3.55 3.55 0 001.14-1.3 3.39 3.39 0 00.29-1.65 3.07 3.07 0 001.56-1.58 4 4 0 00.18-1.77 2.29 2.29 0 010-.25 6.4 6.4 0 00.23-1.2 3.93 3.93 0 01.07-.51 5.19 5.19 0 00.18-1.42 2.37 2.37 0 010-.41 2.55 2.55 0 01.18-.44 5.81 5.81 0 00.45-1.27 2.41 2.41 0 01.15-.33 4.54 4.54 0 00.51-1.43 2.68 2.68 0 01.15-.4 5.88 5.88 0 00.39-1.38 5.61 5.61 0 000-1.39 2.93 2.93 0 01-.13-.62zm-4 1.8a5.25 5.25 0 00-.36 1.19 1.66 1.66 0 01-.16.33 5.22 5.22 0 00-.47 1.28 3.82 3.82 0 01-.19.45 5.92 5.92 0 00-.41 1.12 5.29 5.29 0 00-.14 1.28 3.74 3.74 0 010 .4 7.47 7.47 0 00-.21 1.15 2.6 2.6 0 01-.08.51 3.65 3.65 0 00-.15 1.45 3.12 3.12 0 00-1.5 1.49 3.77 3.77 0 00-.24 1.72 3.76 3.76 0 00-1.18 1.27 3 3 0 00-.29 1.68 2.87 2.87 0 00-1.45 1.13 3.54 3.54 0 00-.5 1.79 4.09 4.09 0 00-1.24 1 5.75 5.75 0 00-.6 1 2.37 2.37 0 01-.24.42 5.53 5.53 0 00-.69 1.17 2.44 2.44 0 01-.15.32 4.34 4.34 0 00-.76 1.34 3.44 3.44 0 00-1.79.8 2.27 2.27 0 01-.31.17 4.83 4.83 0 00-1.17.73 4.63 4.63 0 00-.88 1.1 2.86 2.86 0 01-.16.25 7 7 0 00-.82.83l-.27.32a1.86 1.86 0 01-.31.1 4.57 4.57 0 00-1.37.6 3.61 3.61 0 00-1.14 1.45 3.87 3.87 0 00-1.59.45 4 4 0 01-.43.15 5.55 5.55 0 00-1.15.43 3 3 0 00-1.22 1.41 3 3 0 00-1.72.16 3.94 3.94 0 00-1.34 1l-.15.15-1.21.43h-.13a3.68 3.68 0 00-1.89 0 4 4 0 00-1.48.88H89a4.3 4.3 0 00-1.58 0 2.76 2.76 0 00-1.41.78 2.69 2.69 0 00-1.9-.53 5.74 5.74 0 00-1.13.26 4.77 4.77 0 01-.49.12 2.81 2.81 0 00-1.59.69 2.83 2.83 0 00-1.72-.63 3.55 3.55 0 00-1.86.61h-.09a5.18 5.18 0 00-1.38-.36 4.83 4.83 0 00-1.41.13l-.29.06a6 6 0 00-1.29 0h-.12a3.38 3.38 0 00-1.79-1.15 3.61 3.61 0 00-2 .26l-.09-.05a5 5 0 00-1.25-.6 3.89 3.89 0 01-.47-.23 8.2 8.2 0 00-1-.45 1.4 1.4 0 01-.2-.16 4.17 4.17 0 00-1.3-.84 3.64 3.64 0 00-1.9-.11h-.15a4.37 4.37 0 00-1.44-.17h-.21l-.26-.13-.71-.33a3.31 3.31 0 00-1.37-1.9 3.37 3.37 0 00-2.23-.29l-.17-.15-.51-.45v-.08a3.35 3.35 0 00-1.13-1.86 3.79 3.79 0 00-1.78-.64h-.15a4.61 4.61 0 00-1.23-.56h-.07a3.86 3.86 0 00-.91-1.54 2.86 2.86 0 01-.31-.41 7.12 7.12 0 00-.72-.92 5.11 5.11 0 00-1.1-.83 2.91 2.91 0 01-.28-.17 4.81 4.81 0 01-.35-.51A7.54 7.54 0 0047 128a4.17 4.17 0 00-1.26-1l-.22-.13a6.46 6.46 0 00-.76-.79 3.1 3.1 0 00-.28-2.38c-.13-.22-.24-.44-.35-.66s-.26-.54-.42-.81a3.73 3.73 0 00-1.34-1.27l-.14-.09a4 4 0 00-1.09-1.07 3.29 3.29 0 00-1.41-3.15l-.08-.07v-.3c0-.09-.07-.49-.13-.77v-.07a3.38 3.38 0 00.27-2.26 3 3 0 00-1-1.47 3.25 3.25 0 00.11-1.71 7.73 7.73 0 00-.35-1.11 4.16 4.16 0 01-.17-.48 5 5 0 00-.35-1.19 4.1 4.1 0 01-.14-.43 3.85 3.85 0 010-.68v-1a4.64 4.64 0 00-.34-1.35c0-.12-.09-.23-.11-.31a4.93 4.93 0 00-.34-1.45c0-.09-.07-.18-.1-.28s.07-.19.1-.29a4.91 4.91 0 00.29-1.38 2.7 2.7 0 01.11-.47 5.88 5.88 0 00.23-1.14 1.89 1.89 0 01.13-.33 4.77 4.77 0 00.39-1.34 6.17 6.17 0 01.15-.77c.06-.29.13-.57.17-.86a8.8 8.8 0 00.1-1 5.38 5.38 0 010-.64 3.64 3.64 0 00-.08-1.65 3.49 3.49 0 001-1.53 3.54 3.54 0 00-.12-2v-.11a6.76 6.76 0 00.15-.88v-.32l.11-.09a4.08 4.08 0 001.1-1.4 4.79 4.79 0 00.39-1.52 3.46 3.46 0 001.45-1.36 3.65 3.65 0 00.33-1.58 3.15 3.15 0 001.46-1.19 5.47 5.47 0 00.54-1.11c.06-.14.14-.35.18-.41a4.29 4.29 0 00.6-1.5v-.23a4 4 0 00.59-1.46l.06-.21c.15-.18.32-.35.49-.53s.39-.4.57-.61.62-.66 1-1h.11a3.55 3.55 0 001.79-.84 3.26 3.26 0 00.86-1.62 3.33 3.33 0 001.58-.66 7 7 0 00.82-.82c.08-.1.18-.2.25-.28h.15a4 4 0 001.66-.59 5.07 5.07 0 01.64-.37c.27-.15.54-.29.8-.46a8.9 8.9 0 00.79-.58 5.44 5.44 0 01.55-.39c.27-.16.53-.33.79-.51s.39-.27.61-.39a6.63 6.63 0 001-.66 2.93 2.93 0 01.41-.29A4.86 4.86 0 0162 64c.3-.1.6-.2.9-.33a4.34 4.34 0 01.64-.2c.32-.09.64-.18.95-.29a4.32 4.32 0 001.34-.9 3.71 3.71 0 001.83 0 3.51 3.51 0 001.57-1.06 4.09 4.09 0 001.59 0 5.16 5.16 0 001.24-.45l.32-.15a2.58 2.58 0 01.38 0 4.86 4.86 0 001.35 0 3.68 3.68 0 001.73-.62l.13-.09.7-.1a6.49 6.49 0 01.74-.09 3.7 3.7 0 01.43.07 5.58 5.58 0 001.27.17 5.07 5.07 0 001.38-.23l.31-.09c.08 0 .3.08.45.12a8 8 0 001 .24l.15.09a3.77 3.77 0 001.67.71 5.77 5.77 0 001.25 0 3.88 3.88 0 01.44 0 5.08 5.08 0 01.54.17 7.55 7.55 0 001 .32 1.44 1.44 0 01.33.16 5 5 0 001.24.52 2.66 2.66 0 001.75-.2 2.63 2.63 0 001.4 1.17A3.56 3.56 0 0094 63a3.42 3.42 0 003 1.13h.18l.45.2c.3.14.61.27.89.42a8 8 0 00.84.39c.23.11.47.21.64.3a3 3 0 01.24.26 4.87 4.87 0 001.06 1 6 6 0 01.56.44c.25.2.5.4.76.59a10.28 10.28 0 00.91.53 3.94 3.94 0 01.54.31 4.07 4.07 0 001.54.66h.21c.17.15.33.31.49.47l.4.39v.1a3.52 3.52 0 00.9 1.82 3.45 3.45 0 01.2.32 4.94 4.94 0 00.77 1.1 4.13 4.13 0 001.38.89l.21.09a4.77 4.77 0 001.07.8l.22.11c.23.27.44.56.65.85l.36.49a3.93 3.93 0 01.18.39 5.58 5.58 0 00.58 1.14 8 8 0 00.64.8 4.56 4.56 0 01.41.51 3.65 3.65 0 01.24.54 9 9 0 00.4.86v.21a4.05 4.05 0 00.4 1.62 3.52 3.52 0 001.41 1.34 4.45 4.45 0 00.31 1.48 4 4 0 001 1.33l.16.16a4.46 4.46 0 00.78 1.18l.14.16v.24a4.83 4.83 0 00.12 1.4 1.51 1.51 0 010 .3 4.39 4.39 0 00.07 1.46 2.29 2.29 0 010 .37 5.48 5.48 0 00.06 1.36 3.41 3.41 0 010 .5 6.08 6.08 0 00.06 1.16 4.6 4.6 0 00.49 1.37l.12.22a4.06 4.06 0 00.51 1.47 3.63 3.63 0 00-.51 1.84 3.15 3.15 0 00.55 1.58 3 3 0 00-.68 1.72 3.37 3.37 0 00.7 2 .35.35 0 000 .08 6.58 6.58 0 00.06.83 3.15 3.15 0 010 .46 3.21 3.21 0 01-.03.49z" fill="#00cde5"/><path class="cls-2" d="M41.21 34.68l-.34-.16a3.23 3.23 0 00-.66-.23 2.63 2.63 0 01-.65-.23 2 2 0 01-.47-.45 2.27 2.27 0 00-.55-.52 2 2 0 01-.47-.45 2.56 2.56 0 00-.53-.51 1.67 1.67 0 00-.76-.22 1.38 1.38 0 01-.63-.17 1.76 1.76 0 01-.39-.51 2.16 2.16 0 00-.47-.61 2 2 0 00-.71-.31 1.84 1.84 0 01-.6-.25 3.11 3.11 0 00-.59-.38 4.12 4.12 0 01-.58-.37 1.7 1.7 0 01-.31-.57 1.94 1.94 0 00-.4-.68c-.14-.14-.29-.27-.44-.4s-.39-.34-.57-.52a3.85 3.85 0 00-.64-.5c-.15-.11-.3-.22-.43-.33a4.71 4.71 0 01.48-.13 2.6 2.6 0 00.88-.32 2.5 2.5 0 00.52-.6 2.24 2.24 0 01.4-.49 1.82 1.82 0 01.58-.26 2.05 2.05 0 00.73-.35 1.85 1.85 0 00.44-.69 1.65 1.65 0 01.33-.54 1.69 1.69 0 01.57-.28 1.94 1.94 0 00.73-.37 1.56 1.56 0 00.36-.79 1.46 1.46 0 01.24-.59 6.1 6.1 0 01.46-.41 6.92 6.92 0 00.56-.49 2.33 2.33 0 00.7-1.76 2.53 2.53 0 010-.38 1.39 1.39 0 00-.12-1 2.52 2.52 0 00-.94-.68l-.21-.11a2.73 2.73 0 00-1.29-.22 2.4 2.4 0 00-1.15.2 2 2 0 01-.32.11 1.6 1.6 0 00-.81.45c-.31.38-.61.75-.92 1.11a1.89 1.89 0 00-.35.76 1.87 1.87 0 01-.28.62l-.41.45c-.19.21-.38.43-.57.62a3.44 3.44 0 01-.6.44 3.35 3.35 0 00-.59.42 7.74 7.74 0 01-.62.47 5.39 5.39 0 00-.54.4 5.81 5.81 0 00-.57.55c-.16.16-.32.33-.47.46l-.36-.44a6.66 6.66 0 01-.53-.66c-.17-.28-.33-.56-.49-.85l-.23-.39a3.37 3.37 0 01-.28-.67 3.39 3.39 0 00-.27-.66 2.19 2.19 0 01-.18-.67 2.74 2.74 0 00-.2-.73 3.94 3.94 0 01-.22-.63 5.85 5.85 0 00-.19-.6 1.47 1.47 0 00-.29-.72.94.94 0 01-.19-.61 2.08 2.08 0 00-.16-.75c-.11-.35-.16-.52.06-.74s.36-.15.71 0a2 2 0 00.79.2 2 2 0 01.66.09 2.52 2.52 0 00.77.11 1.56 1.56 0 00.79-.19 1.27 1.27 0 01.63-.15 1.4 1.4 0 01.63.14 1.58 1.58 0 00.79.18 1.56 1.56 0 00.79-.19 1.27 1.27 0 01.63-.15 1.14 1.14 0 01.62.17 1.55 1.55 0 00.8.21 3.49 3.49 0 01.67.05 3.09 3.09 0 00.74.07 3.85 3.85 0 00.75-.07 3.32 3.32 0 01.67-.06A1.64 1.64 0 0036 14a1.22 1.22 0 01.62-.15 1 1 0 01.6.2 1.27 1.27 0 00.81.27 1.19 1.19 0 00.84-.33.8.8 0 01.58-.25 4 4 0 01.49 0c.49.05 1 .1 1.29-.28a3.16 3.16 0 00.36-1.8 2.42 2.42 0 00-.67-1.45l-.12-.16a1.72 1.72 0 00-1.35-.89 3.25 3.25 0 00-.75.07 3.24 3.24 0 01-.67.06 2.17 2.17 0 00-.78.13 1.62 1.62 0 01-.65.11.83.83 0 01-.6-.19 1.31 1.31 0 00-.83-.29 1.22 1.22 0 00-.82.29.88.88 0 01-.6.21 1.45 1.45 0 01-.64-.12 2.12 2.12 0 00-.78-.14 2.52 2.52 0 01-.66-.07 3.06 3.06 0 00-.76-.09 2.17 2.17 0 00-.76.12 2 2 0 01-.65.1 3.09 3.09 0 01-.67-.07A3.14 3.14 0 0028 9.2h-.7a6.09 6.09 0 00-.72 0 5.62 5.62 0 01-.69 0h-.72a1.44 1.44 0 00-.71.19c-.19.1-.21.11-.41-.08-.37-.37-.37-.41-.36-.85v-.38a1.08 1.08 0 01.18-.61 1.44 1.44 0 00.24-.81 2.52 2.52 0 00-.11-.77 2 2 0 01-.1-.65 1.61 1.61 0 01.12-.64 2 2 0 00.14-.78 5.65 5.65 0 000-.73 5.29 5.29 0 010-.69 2.52 2.52 0 00-.32-1.4 1.68 1.68 0 00-.93-.49l-.36-.15-.18-.07A2.84 2.84 0 0021.29 0a2.33 2.33 0 00-1.39.66l-.26.2a1.72 1.72 0 00-.85 1.49 2.67 2.67 0 00.09.77 2.46 2.46 0 01.08.67 1.45 1.45 0 01-.12.64 2.23 2.23 0 00-.14.79 6 6 0 000 .74 5.05 5.05 0 010 .69 1.43 1.43 0 01-.13.64 1.9 1.9 0 00-.15.78 1.69 1.69 0 00.13.65c.07.17.08.2-.13.41s-.21.19-.37.11a1.47 1.47 0 00-.67-.16h-1.41a2.1 2.1 0 00-.77.13 1.64 1.64 0 01-.64.11 1.41 1.41 0 01-.56-.16 1.87 1.87 0 00-.77-.16 1.27 1.27 0 00-.81.27.93.93 0 01-.6.2 4.82 4.82 0 01-.67 0 5.36 5.36 0 00-.73 0 1.08 1.08 0 01-.61-.17A1.51 1.51 0 009 9a1.27 1.27 0 00-.81.28.93.93 0 01-.6.2 1 1 0 01-.59-.2A1.25 1.25 0 006.2 9a5.59 5.59 0 00-.72 0 5.11 5.11 0 01-.68 0 3.73 3.73 0 00-.74.07 3.24 3.24 0 01-.67.06 2.31 2.31 0 00-1.71.69A3 3 0 001 11.64a3.21 3.21 0 00.58 1.83 2.43 2.43 0 001.8.77 3 3 0 01.62.06 2.83 2.83 0 00.82 0 1.53 1.53 0 00.77-.26 1 1 0 01.61-.18 3.42 3.42 0 01.67 0 5.4 5.4 0 00.74.05 1.68 1.68 0 01.64.11 2.08 2.08 0 00.76.13 5.4 5.4 0 00.74-.05 3.24 3.24 0 01.67-.06 3.92 3.92 0 00.74-.06 3.42 3.42 0 01.67-.05 1.89 1.89 0 01.64.1 2.08 2.08 0 00.76.13 1.22 1.22 0 00.82-.29.88.88 0 01.59-.21.85.85 0 01.58.22 1.2 1.2 0 00.82.31 2.5 2.5 0 00.76-.11 1.89 1.89 0 01.64-.1 2 2 0 00.77-.19c.29-.13.4-.18.62 0s.23.43.17.77a4.16 4.16 0 00-.06.58 1.21 1.21 0 01-.15.61 1.5 1.5 0 00-.2.78 2.94 2.94 0 00.08.73 3 3 0 01.06.65 2.18 2.18 0 01-.08.63 2.46 2.46 0 00-.1.74 2.35 2.35 0 01-.08.65 2.94 2.94 0 00-.08.73 1.15 1.15 0 00.31.81.81.81 0 01.23.57v2.75a1.21 1.21 0 01-.15.61 1.63 1.63 0 00-.18.77 2.32 2.32 0 01-.08.64 2.78 2.78 0 00-.09.73 1.32 1.32 0 00.22.78 1 1 0 01.16.6 1.15 1.15 0 01-.14.6 1.52 1.52 0 00-.18.77 1.86 1.86 0 00.14.76 1.56 1.56 0 01.11.62 1.87 1.87 0 01-.1.63 2 2 0 00-.12.74 1.35 1.35 0 00.23.79 1 1 0 01.17.59 1.35 1.35 0 01-.13.61 1.65 1.65 0 00-.17.77 2.33 2.33 0 01-.16 1.17 1.25 1.25 0 01-1.06.45 3.1 3.1 0 01-1.06-.28 4.73 4.73 0 00-.84-.14 3.16 3.16 0 00-1.61.23 1.53 1.53 0 00-.71.89 3 3 0 01-.17.36 2.32 2.32 0 00-.27 1.33V40a1.93 1.93 0 00.33 1.38l.13.17a2.25 2.25 0 001.26 1h.21a13.3 13.3 0 001.38.22 6.19 6.19 0 001 0h2.09a2 2 0 00.87-.4 1.69 1.69 0 01.48-.27 3.25 3.25 0 001-.52l.25-.16a3.49 3.49 0 001.06-.9 4.41 4.41 0 00.68-1.24 6 6 0 00.26-1.28 2.8 2.8 0 01.14-.51 2.82 2.82 0 00.19-.9 2.21 2.21 0 01.1-.7 2.54 2.54 0 00.11-.82 1.32 1.32 0 00-.29-.86 1 1 0 01-.22-.65 1.44 1.44 0 01.14-.68 1.85 1.85 0 00.16-.84 2 2 0 00-.17-.81 1.55 1.55 0 01-.15-.65 1 1 0 01.21-.62 1.26 1.26 0 00.28-.85 1.5 1.5 0 00-.24-.82 1.12 1.12 0 01-.19-.63 3 3 0 01.05-.69 2.9 2.9 0 00.06-.76 4 4 0 00-.05-.62v-.24l.11.15a5.52 5.52 0 01.32.47 2 2 0 01.19.6 1.46 1.46 0 00.89 1.29 1.89 1.89 0 01.5.39 1.74 1.74 0 01.24.59 2 2 0 00.32.74A2.48 2.48 0 0027 30a2.22 2.22 0 01.5.39c.13.15.25.31.37.46s.32.42.5.62a2.86 2.86 0 01.35.53 2.82 2.82 0 00.43.65 3.07 3.07 0 00.62.47 5.2 5.2 0 01.51.38c.19.19.4.36.61.54s.3.24.44.37a2.08 2.08 0 01.39.51 2.85 2.85 0 00.49.61c.36.3.73.6 1.09.88l.41.32q.34.29.69.54a3.56 3.56 0 00.69.37 3.25 3.25 0 01.56.29 2.21 2.21 0 00.79.25 1.51 1.51 0 01.59.17 3 3 0 01.5.39 2.77 2.77 0 00.6.47 5 5 0 01.45.3 2.15 2.15 0 001.16.51 3.33 3.33 0 001.57-.41 1.87 1.87 0 00.69-.91c.06-.14.12-.28.18-.4a2.89 2.89 0 00.37-1.42 2.6 2.6 0 00-.33-1.54 2.34 2.34 0 00-1.01-.66z"/><path class="cls-2" d="M26.87 5.29a1.53 1.53 0 01.51.17 1.27 1.27 0 01.29.47 1.83 1.83 0 00.45.69l.46.32a5.9 5.9 0 01.59.43 5.88 5.88 0 00.51.36 4.31 4.31 0 01.56.39 2.62 2.62 0 003.66.07 2.93 2.93 0 00.81-1.87 2.86 2.86 0 00-1-2l-.25-.24a9.88 9.88 0 00-.88-.8l-.15-.12c-.35-.28-.71-.56-1.06-.81a3.7 3.7 0 00-.86-.35 2.81 2.81 0 01-.51-.23l-.36-.24A2.14 2.14 0 0028.52 1a1.85 1.85 0 00-1.27.79c-.1.11-.19.21-.29.3a2 2 0 00-.79 1.51 1.63 1.63 0 01-.05.35 1.32 1.32 0 00.06 1 1.07 1.07 0 00.69.34zM5.56 19.61a1.14 1.14 0 00.68.42 1.85 1.85 0 01.51.24 5.79 5.79 0 01.43.43 4.94 4.94 0 00.45.47 1.4 1.4 0 01.26.49 2 2 0 00.37.66 1.6 1.6 0 00.71.33 1.09 1.09 0 01.52.23 1.22 1.22 0 01.23.59 1.48 1.48 0 00.26.66 3.56 3.56 0 001 .73 2.23 2.23 0 001 .18h.21a2.56 2.56 0 001.37-.35 2.75 2.75 0 001.4-2.4 3.14 3.14 0 00-.8-1.92 1.8 1.8 0 00-.72-.43 2.1 2.1 0 01-.61-.34 3.89 3.89 0 01-.36-.54 2.88 2.88 0 00-.49-.67 5.85 5.85 0 00-.68-.55c-.16-.12-.32-.24-.46-.36a3 3 0 01-.46-.54 2.44 2.44 0 00-.51-.59A3.62 3.62 0 008 15.58a3.34 3.34 0 00-1.33.4 3 3 0 00-1.07.9A1.84 1.84 0 005.46 18v.55a1.64 1.64 0 00.1 1.06zm8.18 13.61c.17-.14.33-.29.51-.42a5.41 5.41 0 00.62-.55c.16-.16.32-.32.49-.46l.51-.37c.23-.17.47-.34.68-.52a2.77 2.77 0 001-1.91 3 3 0 00-.76-1.91 2.84 2.84 0 00-1.9-.74 2 2 0 00-1.22.71l-.38.34a1.41 1.41 0 01-.57.21 1.9 1.9 0 00-.74.28 3.24 3.24 0 00-.49.49 2.91 2.91 0 01-.47.46 2 2 0 01-.59.25 2.62 2.62 0 00-.67.29 6 6 0 00-.51.37 5.45 5.45 0 01-.57.41 2.72 2.72 0 01-.6.26 4 4 0 00-.64.28 2.37 2.37 0 00-.55.5 2 2 0 01-.46.43 5 5 0 01-.62.26c-.2.08-.42.16-.62.26a2.14 2.14 0 00-.56.52 1.77 1.77 0 01-.46.42 5.24 5.24 0 01-.65.27 6.25 6.25 0 00-.6.24 4 4 0 00-.6.37 2.54 2.54 0 01-.55.35 2.67 2.67 0 01-.42.15 1.41 1.41 0 00-.77.45 2.06 2.06 0 00-.34 1.31v.38a1.66 1.66 0 00.11 1 3.1 3.1 0 00.86 1.14 3 3 0 001.46.33A3.23 3.23 0 004 38.82a3.28 3.28 0 00.67-.45 2.89 2.89 0 01.52-.37 2.55 2.55 0 01.66-.17 3 3 0 00.81-.23 1.93 1.93 0 00.62-.6 1.75 1.75 0 01.47-.5c.2-.11.4-.2.61-.29s.49-.22.73-.36a2.05 2.05 0 01.66-.18 2.3 2.3 0 00.82-.25 1.84 1.84 0 00.57-.67 1.73 1.73 0 01.43-.54 1.77 1.77 0 01.66-.18 1.87 1.87 0 00.85-.25 8.38 8.38 0 00.66-.56zM94 14.49a1.48 1.48 0 00-.55-.53 2.06 2.06 0 01-.41-.32 1.59 1.59 0 01-.27-.52 2 2 0 00-.41-.73 3.91 3.91 0 01-.4-.48 4.61 4.61 0 00-.51-.58 2.94 2.94 0 00-.64-.42 3 3 0 01-.55-.35 3.31 3.31 0 00-.64-.41 2.88 2.88 0 01-.54-.33c-.36-.3-.72-.58-1.08-.85s-.74-.56-1.11-.81a3.26 3.26 0 00-1.82-.76 1.51 1.51 0 00-.91.41 2.29 2.29 0 01-.33.24 2.45 2.45 0 01-.48.16 1.31 1.31 0 00-.85.46 3 3 0 00-.5 1.47 3 3 0 001.16 2.14 2 2 0 00.66.29 1.69 1.69 0 01.59.27 5.88 5.88 0 00.51.36 6 6 0 01.58.41c.16.15.31.32.47.5s.28.33.44.49a1.55 1.55 0 01.33.52 2.35 2.35 0 00.41.63c.17.17.34.35.5.53s.27.3.41.44a2.22 2.22 0 00.61.4 2 2 0 01.55.35l.07.08a3.75 3.75 0 00.9.73l.14.07a2.48 2.48 0 001.12.37 2.92 2.92 0 001.43-.47 3.07 3.07 0 001-1.08c.05-.1.13-.2.2-.31a1.92 1.92 0 00.49-1.08 2.45 2.45 0 00-.35-1zm-3.69 14.92a2.9 2.9 0 00-1.41-2.52 3.11 3.11 0 00-1.46-.33 3 3 0 00-1.33.37 2.49 2.49 0 00-1.07.86 2.6 2.6 0 00-.35 1.33c0 .48-.07 1-.14 1.45a3 3 0 01-.28.82 4.72 4.72 0 00-.21.55 4.25 4.25 0 00-.1.69 2 2 0 01-.16.75 4.33 4.33 0 01-1 1.11 5.11 5.11 0 01-1.24.8 2.39 2.39 0 01-.75.1 4.5 4.5 0 00-.72.07 3.23 3.23 0 01-.7 0 3.83 3.83 0 00-.76 0 4.52 4.52 0 01-.74 0h-.7a2.22 2.22 0 00-.74.24 1.8 1.8 0 01-.7.23 5.84 5.84 0 01-.7-.06 6.57 6.57 0 00-1.47 0h-1.34a4.85 4.85 0 01-.65 0 1.42 1.42 0 01-.65-.32 1.6 1.6 0 00-.6-.32 2 2 0 00-.88.11 1 1 0 01-.53.07c-.27-.12-.37-.43-.48-.73a2.26 2.26 0 00-.15-.39 2.27 2.27 0 01-.29-1.14 2.36 2.36 0 01.14-.67 5.75 5.75 0 00.18-.69 2.56 2.56 0 000-.62 2.64 2.64 0 01.06-.79 3.1 3.1 0 00.39-.77 4 4 0 01.22-.47 4.76 4.76 0 00.31-.87c0-.15.09-.3.14-.45a7.94 7.94 0 00.26-1.07l.06-.28A4.6 4.6 0 0170 26a3 3 0 00.23-.81 1.67 1.67 0 01.2-.58 2 2 0 00.25-.82 2.24 2.24 0 00-.29-1 2.35 2.35 0 01-.2-.53 5.06 5.06 0 01-.08-.52 3.21 3.21 0 00-.19-.92 4.79 4.79 0 00-.09-.55 2.83 2.83 0 01-.07-.7 4 4 0 000-.68 3.21 3.21 0 010-.63v-1.3a3.3 3.3 0 01.07-.61 3 3 0 00.09-.69 5 5 0 000-.68 4.74 4.74 0 010-.63 1.27 1.27 0 01.15-.68 3.66 3.66 0 00.16-.37h.41a2.21 2.21 0 00.63 0 1.48 1.48 0 00.73-.43 1.22 1.22 0 01.51-.32 1.57 1.57 0 01.63.06 1.79 1.79 0 00.76.06c.21 0 .42-.06.63-.08s.48-.05.71-.1a2.7 2.7 0 001.44-1.07A2.35 2.35 0 0077 9.87v-.22a2.49 2.49 0 00-.2-1.25 2.14 2.14 0 00-1.08-.76l-.15-.06a1.88 1.88 0 00-1.24 0h-.13a2.63 2.63 0 01-.69 0 3.78 3.78 0 00-.82 0 3.29 3.29 0 01-.71 0 4.23 4.23 0 00-.79 0 4.41 4.41 0 00-.71.2c-.19.06-.37.12-.56.16a.58.58 0 01.08-.31 1.46 1.46 0 00.13-.63V5.65a2.68 2.68 0 01.08-.65 3 3 0 00.09-.69v-.67a5.86 5.86 0 010-.64 1.09 1.09 0 00-.58-.82 1.65 1.65 0 01-.3-.26 1.83 1.83 0 00-.87-.75 1.32 1.32 0 01-.38-.29 1.24 1.24 0 00-.78-.44 1.66 1.66 0 00-.87.35 3.78 3.78 0 01-.38.21 2.16 2.16 0 00-1 .83A1.81 1.81 0 0064.7 3a1.4 1.4 0 01-.15.64 1.92 1.92 0 00-.18.8v1.45a1.8 1.8 0 00.17.8 1.36 1.36 0 01.14.65 3.91 3.91 0 000 .55 1.62 1.62 0 01-.06.7 5.06 5.06 0 01-.55 0 4.19 4.19 0 00-.71 0c-.22 0-.45.05-.67.08l-.7.09c-.23 0-.46.05-.69.08l-.69.08a2 2 0 01-.61-.11 2.68 2.68 0 00-.74-.13 3.37 3.37 0 00-.73.13 2.61 2.61 0 01-.64.11 1.47 1.47 0 00-.93.42 2.14 2.14 0 01-.26.19 1.9 1.9 0 01-.38.17 1.39 1.39 0 00-.8.56 3.39 3.39 0 00-.52 1.38 2.21 2.21 0 00.39 1.06c.05.1.11.19.15.28a2 2 0 00.86.77l.18.1a2 2 0 001.24.32h1.38a3.18 3.18 0 01.62.05 3.94 3.94 0 00.77 0 2.1 2.1 0 00.74-.21 2 2 0 01.62-.19 1.54 1.54 0 01.6.16 1.65 1.65 0 00.81.2 2.65 2.65 0 00.64-.08 2.7 2.7 0 01.36-.09c.07.15.13.25.18.34a.88.88 0 01.17.57 2.64 2.64 0 00.08.64 2.59 2.59 0 01.06.59v.16a2.21 2.21 0 01-.12.9c-.34 0-.74-.05-1.16-.05a3.06 3.06 0 01-.59-.07A2.49 2.49 0 0062 17a3.59 3.59 0 00-.95.39l-.45.22a2.3 2.3 0 00-.74.57 2.86 2.86 0 01-.42.37 1.57 1.57 0 01-.6.19 1.66 1.66 0 00-.89.38 1.45 1.45 0 00-.29.9 1.72 1.72 0 01-.16.65 3.39 3.39 0 01-.35.42 2.6 2.6 0 00-.55.75 3.16 3.16 0 01-.31.51 2.43 2.43 0 00-.45.82 1.55 1.55 0 00.13.89 1.71 1.71 0 01.14.67 3.53 3.53 0 01-.16.57 2.69 2.69 0 00-.18.87 5 5 0 00.13 1.06c0 .15.05.3.07.45a4.29 4.29 0 010 .62 2.83 2.83 0 00.1.92 4 4 0 00.55 1c.08.12.16.23.23.35a3.14 3.14 0 00.76.78l.33.28a5 5 0 001.21.86 2.31 2.31 0 01.47.39 1.77 1.77 0 00.84.55 4.25 4.25 0 001.13 0 6.59 6.59 0 001-.08h.23a6.09 6.09 0 00-.3 1.47 5.09 5.09 0 010 .55 3.16 3.16 0 000 1 2 2 0 00.57.88 2.55 2.55 0 01.35.43 3.72 3.72 0 00.83.85l.23.19a6 6 0 001.23.79 1.93 1.93 0 01.44.39 2 2 0 00.79.6c.38.11.79.19 1.22.28l.44.08c.42.09.85.17 1.3.23a3.57 3.57 0 00.8 0 3.29 3.29 0 01.7 0 2.6 2.6 0 00.79-.11 2.57 2.57 0 01.7-.1 1.79 1.79 0 01.62.18 2.23 2.23 0 00.85.22 3.81 3.81 0 01.67.07 5.36 5.36 0 00.69.06h.06a1.68 1.68 0 00.82-.33 1.42 1.42 0 01.57-.26 2.14 2.14 0 01.65.1 2.25 2.25 0 00.77.11 3.62 3.62 0 01.66 0 5 5 0 00.77 0 2.17 2.17 0 00.79-.35 2.13 2.13 0 01.55-.27l.45-.08a8.28 8.28 0 00.92-.2 6.11 6.11 0 00.94-.35l.38-.16a2.12 2.12 0 01.64-.08 1.82 1.82 0 00.84-.15 3.89 3.89 0 00.74-.6 4.14 4.14 0 01.38-.35 4.12 4.12 0 00.67-.72 3.51 3.51 0 01.29-.36c.1-.11.2-.22.31-.32a3.91 3.91 0 00.64-.76 4.07 4.07 0 01.32-.44 3.75 3.75 0 00.51-.78c.18-.44.36-.91.5-1.38a3.66 3.66 0 00.09-.81v-.63c0-.2.08-.35.13-.53a7.88 7.88 0 00.18-.87 3.29 3.29 0 000-.77 3 3 0 010-.66zm-25-5.25a3.86 3.86 0 01-.17 1c0 .16-.08.31-.11.46a4.25 4.25 0 00-.06.71 1.72 1.72 0 01-.11.76 1.37 1.37 0 01-.74.52 2.36 2.36 0 00-.5.26 1.65 1.65 0 01-1.14.3h-.36c-.33 0-.54 0-.72-.12a1 1 0 01-.23-.61 3.48 3.48 0 00-.12-.49c0-.12-.09-.24-.14-.36a1.85 1.85 0 01-.22-.78 3.19 3.19 0 00-.09-.7 1.82 1.82 0 01-.06-.75 1.63 1.63 0 01.48-.7 2.39 2.39 0 00.38-.46 2.26 2.26 0 01.82-.75l.12-.08a2.83 2.83 0 00.28-.2 1.39 1.39 0 01.81-.37h.39a1.08 1.08 0 01.72.17 2 2 0 01.62 1 4.13 4.13 0 01.16 1.19zm50.13-16.47c0 .23.06.45.08.69a1.61 1.61 0 00.33.76 1.46 1.46 0 01.27.59v1.4a1.61 1.61 0 01-.17.62 1.76 1.76 0 00-.2.8 2.39 2.39 0 00.21.75 2.75 2.75 0 01.18.63 5.51 5.51 0 00.09.71 5.68 5.68 0 01.09.69 5.14 5.14 0 010 .68v.72a2.19 2.19 0 01-.1.65 2.81 2.81 0 00-.11.77v1.4a2.69 2.69 0 00.19.74 2.35 2.35 0 01.17.64v1.41a5.31 5.31 0 010 .68 5.78 5.78 0 000 .73c0 .23 0 .47.06.7s0 .46.06.7 0 .46.06.7 0 .46.06.7a2.21 2.21 0 01-.11.64 2.82 2.82 0 00-.12.77 2.54 2.54 0 00.87 1.61 1.89 1.89 0 001.37.3h1.08a1.35 1.35 0 00.93-.27 2.43 2.43 0 00.89-1.67 3.77 3.77 0 00-.08-.76 2.59 2.59 0 01-.08-.66 3.74 3.74 0 00-.07-.75 3.85 3.85 0 01-.06-.66l.06-1.4v-1.4a4.3 4.3 0 01.1-.68 4.19 4.19 0 00.1-.71 2.48 2.48 0 00-.12-.77 2.19 2.19 0 01-.1-.65 1.58 1.58 0 01.22-.6 2 2 0 00.28-.77c0-.23 0-.45.07-.68a5.94 5.94 0 00.08-.71A2.07 2.07 0 00122 16a1.72 1.72 0 01-.12-.64 6 6 0 000-.74 3.82 3.82 0 010-.67 3.36 3.36 0 01.15-.65 3.51 3.51 0 00.16-.73 3.21 3.21 0 01.13-.66 4.36 4.36 0 00.14-.72v-2.8a2.44 2.44 0 00-.1-.76 2.21 2.21 0 01-.08-.66.41.41 0 01.12-.08.5.5 0 00.32-.42 4 4 0 00-.28-1.35 2 2 0 00-.67-.75 2.15 2.15 0 01-.28-.23 2 2 0 00-.86-.42l-.29-.1a2.5 2.5 0 01-.37-.18 1.66 1.66 0 00-.84-.29 2.77 2.77 0 00-1 .24l-.29.1a1.89 1.89 0 01-.41.1 1.76 1.76 0 00-.88.36 3.07 3.07 0 00-.72 1.19 3.56 3.56 0 00-.33 1.33.34.34 0 010 .17.53.53 0 00-.06.41c-.05.21-.02.43 0 .64zm7.04 27.46l-.16-.34a2.29 2.29 0 00-.67-.85l-.21-.21c-.09-.09-.17-.19-.26-.29a2 2 0 00-.77-.65l-.28-.12a2.75 2.75 0 00-1.11-.32 3.9 3.9 0 00-1.43.35 3.63 3.63 0 00-1.18.84 1.69 1.69 0 00-.4.88 4.43 4.43 0 01-.12.43 2.36 2.36 0 01-.28.42 1.53 1.53 0 00-.41.89 4.08 4.08 0 00.31 1.45 2 2 0 00.69.79c.1.09.21.17.31.27a2.25 2.25 0 00.92.5l.29.11c.12.05.24.12.37.19a1.79 1.79 0 00.93.33 2.75 2.75 0 001.09-.29l.26-.11.41-.13a2 2 0 00.93-.43 3.77 3.77 0 00.75-1.26 3.85 3.85 0 00.35-1.42 2.28 2.28 0 00-.33-1.03z"/></g></g></svg>