<svg xmlns="http://www.w3.org/2000/svg" viewBox="0 0 322.82 180.78"><defs><style>.cls-1{fill:#fff}.cls-3{fill:#00cde5}</style></defs><g id="レイヤー_2" data-name="レイヤー 2"><g id="design"><path class="cls-1" d="M322.82 35.66L11.73 90.53V54.87L322.82 0v35.66z"/><path d="M8 40.64a3.86 3.86 0 00-.46-.64l-1-1.11-.48-.55c-.13-.13-.25-.27-.48-.54l-1-1.09a5.19 5.19 0 00-.55-.57 4.15 4.15 0 01-.46-.47l-.47-.54-.48-.57a3.34 3.34 0 01-.31-.56 3.84 3.84 0 00-.48-.68l-.95-1.1a.5.5 0 10-.76.66l1 1.1a3.54 3.54 0 01.37.52 3.67 3.67 0 00.47.67l.48.55.47.56a7.48 7.48 0 00.55.56 4 4 0 01.47.47l.49.56.47.54.49.55.48.54 1 1.1a3.08 3.08 0 01.38.52 3.36 3.36 0 00.48.68.52.52 0 00.28.2.49.49 0 00.32-.12.51.51 0 00.05-.71 2.9 2.9 0 01-.37-.53zm75.36-23.06a.49.49 0 00-.64.29 7.17 7.17 0 00-.25.72 6.86 6.86 0 01-.23.66c-.12.33-.19.49-.26.65s-.15.35-.28.7a5.09 5.09 0 01-.28.62 6.4 6.4 0 00-.31.71c-.13.34-.2.5-.27.67s-.14.34-.27.69-.19.51-.25.68-.13.34-.26.68a5.89 5.89 0 00-.24.74 6.18 6.18 0 01-.22.65 4 4 0 01-.28.6 6.33 6.33 0 00-.33.73 3.81 3.81 0 00-.22.8 2.4 2.4 0 01-.17.61.5.5 0 00.29.65h.18a.51.51 0 00.47-.32 5.09 5.09 0 00.22-.8 2.56 2.56 0 01.17-.62 3.65 3.65 0 01.27-.6 5.34 5.34 0 00.34-.73 6.47 6.47 0 00.24-.73A5.48 5.48 0 0181 25l.26-.7.25-.67c.12-.33.19-.5.26-.66l.27-.69a6.66 6.66 0 01.27-.62 6.36 6.36 0 00.32-.72c.13-.33.2-.49.27-.65l.28-.69c.13-.36.19-.54.24-.72s.11-.34.23-.66a.5.5 0 00-.29-.64zm-18.29 4.88c-.45-.32-.68-.14-1.09.22s-.06.42-.12.85-.08.43-.14.86 0 .43-.09.86-.12.42-.18.85 0 .44-.08.87a2.32 2.32 0 00-.11.86c.06.5.29.8-.14.89s-.24-.38-.44-.76-.16-.4-.37-.77l-.4-.76c-.2-.37-.23-.36-.43-.73s-.18-.4-.38-.78-.23-.36-.43-.74-.18-.39-.36-.78v-.1c-.55.05-.68-.17-1.09.19s-.07.45-.13.87 0 .44-.11.87-.07.42-.13.85-.08.43-.14.86l-.12.86c-.06.43 0 .44-.08.87s.3.79-.13.87-.2-.39-.4-.77-.19-.4-.39-.78-.23-.37-.43-.75-.18-.4-.39-.78-.22-.38-.42-.76-.26-.36-.47-.74 0-.62-.37-.78-.78-.29-1.09.17.2.41.41.8.24.38.45.77.17.42.38.81.24.37.45.77.16.42.37.81.22.39.43.78.25.38.46.77.2.41.41.8 0 .65.39.83a.79.79 0 001.06-.2c.33-.29.06-.44.12-.87s0-.44.11-.87l.12-.87c.06-.44 0-.44.08-.88s.09-.43.15-.87 0-.44.1-.87-.29-.81.14-.89.18.42.38.81.25.36.46.75.21.38.42.77.21.38.42.77l.41.78.41.78c.2.39 0 .66.36.83s.65.12 1-.24.09-.41.15-.85.09-.44.15-.89 0-.44.08-.88 0-.45.08-.89.07-.44.13-.88.08-.44.14-.88.1-.44.16-.89 0-.44.11-.89.52-.64.16-.91zM44 32.24c-.08-.42 0-.43-.11-.84s-.11-.41-.19-.83 0-.42-.12-.84-.1-.42-.17-.83l-.14-.85c-.08-.42-.07-.42-.14-.84s.23-.62-.15-.82-.7-.24-1.06.17.06.41.13.83.12.41.19.82 0 .43.1.84.09.42.16.83.07.42.15.84a2.31 2.31 0 00.16.83c.21.44.52.65.15.86s-.35-.28-.68-.55-.31-.29-.64-.56-.33-.27-.66-.55-.29-.32-.61-.59-.33-.27-.66-.54-.34-.27-.66-.54-.34-.26-.67-.54l-.63-.54c-.33-.28-.22-.5-.64-.58s-.72-.2-1.09.2.09.42.16.84.06.42.13.84l.14.84c.07.42.13.41.2.83s0 .42.11.84.09.41.16.83.06.43.13.84.1.42.17.84-.23.64.14.84a.7.7 0 001.06-.19c.29-.31-.09-.4-.16-.82s0-.42-.12-.84-.07-.41-.15-.82-.05-.42-.13-.84-.06-.42-.13-.84-.13-.41-.2-.83-.49-.62-.12-.83.32.26.64.54.32.29.64.57.35.25.67.53.31.29.64.57.31.29.63.56l.65.56.72.52c.32.27.34.26.67.54s.22.5.64.59.69.16 1.06-.25 0-.4-.1-.81-.18-.41-.27-.83zm-9.71.11c-.45.08-.45 0-.9.12s-.44.12-.89.19-.45 0-.9.12-.44.12-.89.2l-.89.16c-.45.08-.45.11-.9.19s-.46 0-.91.08-.57.52-.92.23-.1-.56-.2-1.1-.41-.59-.14-1.06.43-.07.88-.15l.9-.15c.45-.08.44-.14.88-.22l.9-.15c.45-.08.45-.06.9-.14s.44-.1.89-.18.46 0 .91-.09.44-.14.89-.22.71.28.94-.12.16-.71-.24-1.06-.43.06-.87.14-.46 0-.91.12-.44.11-.89.19-.44.1-.89.18-.45.05-.9.12-.44.1-.89.18-.46.05-.9.13-.45.1-.9.18-.53.42-.88.13-.1-.52-.19-1.06-.52-.62-.25-1.1.48-.07.93-.14.45-.06.9-.14.45-.05.9-.13l.89-.17c.45-.08.44-.11.89-.19l.89-.16.9-.16.9-.17c.45-.08.65.24.88-.15s.23-.68-.18-1-.43.08-.89.16-.46 0-.92.1l-.91.16c-.46.08-.45.13-.91.21s-.45.1-.91.18-.46 0-.92.12l-.91.16c-.46.08-.45.1-.91.18s-.46.21-.93.19-.67-.28-.94.11.15.48.23.95 0 .47.12.94.11.47.19.93.07.47.16.94 0 .48.12.95.1.46.18.93l.18 1c.08.47-.21.65.18.93s.45 0 .91-.12.44-.14.9-.22.47 0 .92-.1l.92-.16.91-.17.91-.15.91-.17c.46-.08.46-.11.91-.19s.46-.11.92-.19.7.28.94-.13a.72.72 0 00-.19-1.1c-.34-.37-.46.03-.91.11zm20.97.75c-.35-.29-.43.06-.88.14s-.45 0-.9.12-.44.13-.89.21l-.89.17-.89.16-.9.16c-.45.08-.45 0-.9.13l-.91.15c-.45.08-.57.49-.92.19s0-.57-.13-1.1-.52-.61-.25-1.08.48-.05.92-.12l.9-.16c.45-.07.44-.14.88-.22s.46 0 .91-.1l.89-.17.9-.15c.45-.08.45-.09.9-.16s.44-.12.89-.2.66.25.89-.14.23-.69-.19-1-.43 0-.88.11-.44.1-.89.18-.44.11-.89.18l-.9.14c-.45.07-.45.05-.9.12s-.44.15-.89.23-.45 0-.9.11-.45.12-.9.2-.56.43-.91.14-.08-.55-.18-1.09-.47-.61-.2-1.08.45-.08.9-.16l.9-.15c.44-.08.44-.11.89-.19l.89-.15c.45-.08.46 0 .9-.1l.9-.17c.45-.08.45-.1.9-.18s.44-.1.89-.18.66.24.89-.15.26-.73-.16-1.07-.47.06-.93.14-.45.11-.9.19-.47 0-.92.12-.46.11-.91.19l-.91.16c-.46.08-.46.1-.91.18s-.46.05-.92.13l-.92.16c-.46.08-.45.2-.91.18s-.68-.23-.94.16.13.47.21.94 0 .48.12.95.12.46.21.93 0 .47.11.94.15.46.23.93.07.47.15.94 0 .48.11 1-.18.64.21.92.44-.09.9-.17.46-.06.91-.14l.92-.15.91-.16c.46-.08.45-.13.91-.21s.46 0 .92-.11l.91-.15c.46-.08.45-.12.91-.2s.47 0 .93-.11.67.2.91-.2.21-.78-.2-1.13zm-30.68 3.59l-.64-.57-.65-.57-.65-.55c-.32-.29-.45-.19-.65-.57a3.51 3.51 0 00.75-.44 2.94 2.94 0 00.54-.67 2.63 2.63 0 00.66-1.58 3.15 3.15 0 00-.11-.85 3 3 0 00-.24-.81 3.09 3.09 0 00-.46-.71 3.45 3.45 0 00-.62-.59 3 3 0 00-.75-.4 3.45 3.45 0 00-.84-.21 3.58 3.58 0 00-.86 0c-.43.08-.43.11-.86.19l-.88.15c-.43.08-.44 0-.87.12s-.44.09-.87.17-.43.12-.87.19-.43.09-.87.16-.45 0-.89.11-.63-.2-.89.17.06.45.14.89.13.43.2.87 0 .45.12.88.14.43.22.87 0 .46.08.89.06.45.14.88.11.44.19.87.13.44.21.88.07.44.15.88 0 .45.09.89-.19.63.2.85.7.26 1.07-.14-.12-.41-.19-.81 0-.41-.12-.82-.06-.4-.13-.81-.37-.46-.11-.78.41-.15.86-.23.45-.05.9-.13.46 0 .92-.11l.9-.15c.46-.08.45-.1.91-.18s.46-.32.91-.21.29.32.6.59.35.24.66.52.29.3.6.58.3.3.61.58.25.38.65.52.33-.06.67-.12.67.25.69-.1-.3-.28-.62-.59zM21 33.55l-.85.13c-.42.07-.41.11-.83.18s-.41.13-.83.21-.43.06-.85.14-.44 0-.86.09a2.42 2.42 0 00-.83.21c-.44.18-.54.4-.89.15s-.08-.46-.15-.89l-.14-.86c-.07-.43-.09-.43-.16-.86s-.06-.44-.14-.87-.39-.5-.14-.86.42-.05.84-.13.43-.06.85-.14.41-.1.84-.18l.84-.14c.43-.08.43 0 .86-.12s.42-.09.84-.16.42-.12.84-.2a2.31 2.31 0 01.87 0 2.17 2.17 0 01.76.38 2.24 2.24 0 01.58.61 2.15 2.15 0 01.29.79 2.24 2.24 0 010 .85 2.52 2.52 0 01-.38.77 2.36 2.36 0 01-.58.64 2.37 2.37 0 01-.78.26zm51.09-7.65a2.19 2.19 0 00-.76-.61 4.44 4.44 0 00-.94-.27 8.31 8.31 0 00-1-.1 3.48 3.48 0 01-1-.18c-.6-.2-.74-.51-.76-.64a1 1 0 01.19-.71 1.64 1.64 0 01.53-.44 2.16 2.16 0 01.65-.21 3 3 0 011 0 2.21 2.21 0 01.93.43 1.27 1.27 0 00.66-.85 3 3 0 00-.84-.47 3.72 3.72 0 00-1-.2 4.09 4.09 0 00-1 0 3.08 3.08 0 00-1 .39 2.07 2.07 0 00-1.19 1.44 1.76 1.76 0 000 .79 1.53 1.53 0 00.37.79 2.08 2.08 0 00.69.53 3.31 3.31 0 00.84.26 4.7 4.7 0 00.88.11 7.18 7.18 0 01.8.14 2.74 2.74 0 01.77.22.84.84 0 01.32 1.31 1.69 1.69 0 01-1.17.58 3.05 3.05 0 01-2.46-.57 1.52 1.52 0 00-.62.9 3.44 3.44 0 00.73.41 4.57 4.57 0 00.8.31 4.93 4.93 0 00.86.1 5 5 0 00.86-.06h.08a3.09 3.09 0 001-.32 2.37 2.37 0 00.81-.69 2 2 0 00.29-.73 1.72 1.72 0 000-.78 1.8 1.8 0 00-.32-.88z" fill="#ff5"/><path class="cls-1" d="M12.13 108.66c.57-.1.6.06 1.17 0l1.13-.21c.57-.1.54-.28 1.11-.38s.59 0 1.16-.09c.32 0 .37-.4.37-.7s-.07-.69-.39-.63-.38.27-.78.34-.46.25-.78 0 .06-.35.06-.76-.44-.42-.79-.36-.65.23-.65.6.36.7 0 .93-.47-.13-.86-.06-.38.09-.77.16-.35.46-.35.76.06.46.37.4zm10.72-.01c-.57.11-.56.2-1.13.3s-.62-.11-1.2 0-.59.54-1.1.24-.15-.38-.15-.82a2.09 2.09 0 01.05-.9c.33-.14.76-.19 1.07-.34s.65-.33.95-.49.53-.51.82-.69.46-.33.46-.57-.26-.56-.65-.49c-.1 0-.3-.12-.41 0s-.42.49-.7.65-.62.13-.91.27-.53.23-.83.36c-.11-.06-.24.09-.41.12-.34.06-.65.25-.65.63s-.09.52-.1 1-.08.52-.08 1 .11.51.11 1v2.24c0 .36-.23.73-.29 1.08a10.2 10.2 0 01-.29 1.06 9.26 9.26 0 01-.33 1 7.47 7.47 0 01-.38 1 1.24 1.24 0 00-.19.48c0 .39.33.51.69.44a.82.82 0 00.68-.4 9.62 9.62 0 00.47-.84c.12-.28.15-.62.25-.93s.11-.62.19-.94.35-.56.41-.89.06-.63.1-1 0-.64 0-1v-1c.56-.25.77-.53 1.28-.19s-.13.56-.13 1.07.11.5.11 1-.09.51-.09 1v1c0 .5.1.5.1 1s.12.5.12 1 .26.65.6.59a.93.93 0 00.72-.84c0-.5-.11-.5-.11-1s-.06-.5-.06-1v-2c0-.5.16-.5.16-1s-.35-.61 0-1 .46 0 .9 0a.87.87 0 00.58-.83.49.49 0 00-.63-.37z"/><path class="cls-1" d="M11.8 117.71a1.17 1.17 0 00.54-.26c.26-.27.41-.69.67-1a12.33 12.33 0 00.8-1c.16.36 0 .38-.12.79a3.07 3.07 0 00-.11.79c0 .34.11.34.11.68s.36.49.68.43a.63.63 0 00.57-.66c0-.48.14-.48.14-1s-.09-.46.06-.91c.27.14.4.32.65.46s.29 0 .41 0a.8.8 0 00.63-.73c0-.2-.13-.32-.35-.44a5.54 5.54 0 00-.67-.44 4.72 4.72 0 00-.69-.24c-.1-.25-.28-.33-.08-.5s.38-.15.78-.22.44.14.83.07.55-.52.55-.82a.5.5 0 00-.57-.52c-.4.07-.38.15-.78.22s-.58.4-.86.1-.2-.61.12-1 .43-.16.94-.25.52 0 1-.09a.83.83 0 00.58-.77.53.53 0 00-.59-.53c-.65.12-.66.42-1.31.35.14-.35.41-.82.57-1.31v-.25c0-.34-.37-.45-.68-.4s-.39.2-.48.53-.21.54-.3.79-.22.6-.33.86c-.42.18-.5-.07-.95 0s-.44.12-.89.2-.47 0-.92.05-.54.5-.54.81a.48.48 0 00.56.49c.49-.08.47-.18 1-.26s.56-.31.93 0 .3.48 0 .89-.33.23-.74.3-.41 0-.82.09a.69.69 0 00-.58.63c0 .3.27.65.58.6.65-.12.63-.46 1.28-.41-.18.31-.4.7-.6 1a10.26 10.26 0 01-.57.92c-.23.29-.63.41-.87.64s-.11.47-.11.64c-.04.42.18.74.53.68z"/><path class="cls-1" d="M13.16 108.64a.74.74 0 00-.49.74c0 .1-.16.22-.1.3.11.25.13.37.22.55s.42.22.65.18a.64.64 0 00.59-.61c0-.08.05-.14 0-.22-.1-.25-.27-.31-.37-.52s-.28-.46-.5-.42zm15.02 5.56a1.81 1.81 0 00.92.5 4 4 0 001.06-.08 5.79 5.79 0 00.93-.4 4.78 4.78 0 00.92-.37 5.75 5.75 0 00.9-.44 7.9 7.9 0 00.76-.68c.23-.23.34-.57.56-.84a9.78 9.78 0 00.68-.74.81.81 0 00.09-.53.62.62 0 00-.7-.68c-.2 0-.36.3-.54.57a8.83 8.83 0 01-.81.81 5.68 5.68 0 01-.82.76 5.07 5.07 0 01-.88.72 3.94 3.94 0 01-1.09.34 1.19 1.19 0 01-.95-.18 1.39 1.39 0 01-.4-.87 4.94 4.94 0 01-.12-1v-2.18c0-.37.1-.73.11-1.1s0-.73 0-1.09.05-.73.07-1.09.09-.73.12-1.08a.71.71 0 00-.86-.69 1 1 0 00-.79.88c0 .35.09.73.07 1.11s-.08.72-.1 1.09 0 .74 0 1.11-.16.73-.17 1.1 0 .74 0 1.1-.11.74-.11 1.09a8.09 8.09 0 00.09 1.07 4.32 4.32 0 00.34 1 1.81 1.81 0 00.72.79zm15.13-3.2a4.49 4.49 0 00.44-.85 6.79 6.79 0 00.33-.88.73.73 0 000-.25.71.71 0 00-.85-.63c-.28.05-.49.33-.59.74a3.1 3.1 0 01-.4.76c-.18.38-.29.58-.5.62s-.52-.14-.77-.62a3.54 3.54 0 01-.39-.94c-.08-.29-.1-.63-.16-1s-.08-.64-.11-1 0-.66 0-1-.09-.66-.09-1 .19-.79.22-1.21a.68.68 0 00-.87-.64.86.86 0 00-.67.81 9.23 9.23 0 00-.19 1.35v1c0 .28.17.71.2 1.05s.06.71.11 1a10 10 0 00.15 1 7.74 7.74 0 00.27 1 3.63 3.63 0 00.54.9 2 2 0 00.8.67 1.87 1.87 0 001 .11 2.1 2.1 0 00.9-.33 3.07 3.07 0 00.63-.66zm3.79-5.11c.19.27.36.56.52.84a8.82 8.82 0 01.41.89.53.53 0 00.68.31c.36-.06.83-.32.83-.76 0-.07-.08-.17-.11-.28a7.12 7.12 0 00-.4-1 10.65 10.65 0 00-.58-1 9.9 9.9 0 00-.73-.85 6.91 6.91 0 00-.89-.67c-.18-.14-.36-.31-.54-.28a1 1 0 00-.69.89.5.5 0 00.19.43 6.61 6.61 0 01.73.68 9.63 9.63 0 01.58.8zm10.28 3.93c.32-.1.64-.24 1-.35s.61-.34.92-.46.61-.34.91-.47a1.54 1.54 0 00.44-.25 4 4 0 01-.27.68c-.08.15-.29.25-.29.37 0 .35.43.53.75.48s.32-.25.47-.53.32-.57.46-.88a9.22 9.22 0 00.39-.91c.11-.3.17-.63.26-1s.29-.61.36-.94.06-.66.12-1 .14-.65.18-1 0-.66 0-1 .1-.67.1-1c.11-.12.17-.09.36-.07s.41 0 .41.28-.22.75-.23 1.12 0 .75 0 1.11.16.77.13 1.13-.1.75-.14 1.11-.24.74-.29 1.08-.09.46-.32.5-.22.19-.36.19a.68.68 0 00-.72.67c0 .29.18.43.53.44s.46.21.77.16.49-.35.7-.54.49-.3.6-.62a3.89 3.89 0 00.24-.86c0-.3-.09-.65-.06-1s.07-.64.09-1 .1-.64.11-1 .07-.65.08-1 0-.65 0-1v-1a1.21 1.21 0 00-.34-1 1.36 1.36 0 00-1.07-.19c-.24 0-.32.4-.41.18-.23-.57 0-.6 0-1.23s.06-.62.06-1.25a.64.64 0 00-.75-.54.84.84 0 00-.67.76c0 .63.15.63.15 1.27a2.59 2.59 0 01-.19 1.23c-.07.21-.11.12-.33.16a.57.57 0 00-.47.63c0 .31.13.54.46.47s.27-.16.46 0v1.07c0 .34-.08.71-.12 1s0 .72-.06 1-.34.65-.42 1-.12.69-.23 1a9.24 9.24 0 01-.35 1 .56.56 0 00-.78-.38c-.27.1-.64.34-.95.45a.45.45 0 010-.65c.48-.31.61 0 1.17-.05a.73.73 0 00.51-.7c0-.26-.2-.39-.51-.34-.55.1-.58.23-1.12.08-.25-.08-.25-.37-.09-.57s.35.13.6.09a1.51 1.51 0 00.83-.62 1.34 1.34 0 00.46-.91v-.87c0-.44-.18-.43-.18-.86s-.07-.67-.28-.83a1.06 1.06 0 00-.89-.16c-.25 0-.27.22-.47 0s-.22-.31 0-.47.39 0 .77-.12l.77-.12a.78.78 0 00.63-.66.54.54 0 00-.64-.49l-.77.13c-.38.06-.37.31-.69.09s-.11-.22 0-.51c.4-.15.72-.3 1.09-.46a.67.67 0 00.36-.69c0-.31-.16-.66-.49-.6-.07 0-.1.17-.16.2-.32.15-.68.27-1.05.4s-.68.3-1 .41-.74.17-1.09.27a.6.6 0 00-.5.6.45.45 0 00.59.48c.32-.09.73-.24 1.08-.35.17.18.05.3-.14.45s-.35.13-.76.2-.4.09-.81.16-.38.37-.38.65.1.63.4.57.39-.17.8-.25.49-.43.88-.27c.23.1.19.5 0 .7s-.31.06-.54.1a1.36 1.36 0 00-.85.44 1.23 1.23 0 00-.39.89c0 .43.06.43.06.86s-.06.44-.06.87a.9.9 0 00.35.8 1.06 1.06 0 00.87.15c.23 0 .27-.22.37 0s.32.33.1.46a2.36 2.36 0 01-1.2.34c-.3 0-.6.23-.6.49a.53.53 0 00.59.5c.61-.11.66-.55 1.23-.32.33.13.21.46.09.79l-.91.29c-.28.08-.55.2-.82.26s-.6.27-.6.55a.51.51 0 00.67.5c.33.12.7.14 1.03.03zm2.46-5.27a.32.32 0 01-.29.29c-.26 0-.44.3-.54.06s-.26-.46 0-.69.44-.23.78-.09.05.22.05.43zm-.84-1.79c.16-.21.25-.13.51-.18s.26.11.26.27.15.32 0 .39c-.34.14-.46.38-.77.18s-.17-.42 0-.66zm-1.83.52c0-.15.14-.25.3-.28s.41-.29.51-.06.25.44 0 .65-.43.22-.76.09-.04-.2-.04-.4zm.83 1.82c-.15.2-.25.13-.53.07s-.28 0-.28-.18-.1-.31.07-.44.47-.39.76-.18.17.46-.02.73z"/><path class="cls-1" d="M55.47 108.37v-4c0-.49-.09-.51-.09-1 0-.29 0-.48-.27-.49.1-.28.14-.5.23-.79s.15-.59.23-.88.06-.61.12-.91.3-.57.35-.86c.09-.55-.41-.78-.82-.71a.71.71 0 00-.54.68c-.06.35-.15.71-.23 1.07s-.19.71-.28 1-.17.72-.28 1.06-.35.66-.48 1-.24.72-.4 1a1 1 0 00-.16.38c0 .37.26.51.6.45a.81.81 0 00.64-.48s0-.06 0 0c0 .49-.09.49-.09 1s.06.49.06 1v1c0 .51-.06.48-.06 1v1c0 .49.06.49.06 1s.38.39.7.33.79-.21.79-.56c0-.51-.15-.51-.15-1s.07-.78.07-1.29zM75 107a.82.82 0 00.66-.77c0-.35-.25-.59-.76-.46s-.79 0-1.32.1c-.37.07-.67.17-.94.19a3 3 0 01-1 0c-.4-.12-.61-.34-.61-.67s.22-.46.51-.7a2.15 2.15 0 01.73-.48 5.4 5.4 0 01.85-.33c.31 0 .64-.07 1-.09a7.73 7.73 0 011 0 7.63 7.63 0 011 .09c.12 0 .21.13.31.11a.8.8 0 00.66-.82.66.66 0 00-.14-.5 8.64 8.64 0 01-.85-.86c-.25-.31-.46-.7-.68-1 .4-.15.78-.37 1.14-.52s.8-.29 1.15-.46a.76.76 0 00.46-.67.5.5 0 00-.63-.52.75.75 0 00-.18.09c-.26.13-.62.07-.91.2s-.53.26-.82.38-.54.32-.83.43c-.18-.38-.27-.75-.42-1.15.4-.15.71-.31 1.07-.47s.81-.31 1.15-.47a.89.89 0 00.4-.75.59.59 0 00-.74-.51h-.25c-.32.16-.68.36-1.1.53s-.72.22-1.12.36c-.14-.42-.34-.81-.46-1.24s-.31-.37-.61-.31-.72.27-.72.66a.52.52 0 00.06.16c.1.42.29.88.43 1.3-.4.14-.85.3-1.24.41s-.84.19-1.21.28a.7.7 0 00-.57.7c0 .35.24.73.68.62.29-.07.61-.12.93-.21l.91-.29c.3-.09.56-.24.86-.35.16.4.34.76.54 1.15l-.86.26c-.28.09-.55.26-.84.34s-.57.21-.86.29-.63-.06-.92 0a.82.82 0 00-.57.85c0 .34.2.58.65.47s.68-.11 1-.19.66-.22 1-.32.65-.24 1-.35.7-.1 1-.22c.16.24.28.49.43.7s.41.41.56.6a4.52 4.52 0 00-.89-.09c-.27 0-.57.11-.89.17a6.71 6.71 0 00-1 .23 6 6 0 00-1 .32 4.17 4.17 0 00-.85.56 2.59 2.59 0 00-.57.85 2.18 2.18 0 00-.09 1 2.23 2.23 0 00.07 1 1.65 1.65 0 00.85.56 3 3 0 001 .25 7.3 7.3 0 001-.06 9.67 9.67 0 001-.09A13.11 13.11 0 0075 107zm17.88-12.83c-.46.08-.43.22-.89.3s-.46.11-.92.19-.48 0-.94 0l-.92.15c-.46.08-.61.51-1 .23s.14-.51.14-.94v-.87a.64.64 0 00-.79-.56.77.77 0 00-.57.81 6.48 6.48 0 010 .88c0 .43.24.57-.08.87s-.56.11-1.12.2-.54.15-1.1.25-.55.12-1.1.22-.59-.13-1.15 0a1 1 0 00-.62.89.54.54 0 00.64.54c.5-.09.52 0 1 0s.49-.16 1-.25.51 0 1-.13.46-.22 1-.14v.92c0 .34-.17.67-.24 1s-.12.69-.22 1-.3.62-.43.94a10.37 10.37 0 01-.36 1 6.89 6.89 0 01-.55.89 7.49 7.49 0 01-.69.69c-.22.24-.42.49-.66.71s-.44.48-.69.68a.78.78 0 00-.39.66c0 .37.22.65.63.57a.93.93 0 00.44-.18c.26-.2.56-.36.8-.57s.5-.44.72-.67a9.19 9.19 0 00.64-.76 9.8 9.8 0 00.53-.83c.18-.27.33-.56.49-.85s.3-.58.44-.88.14-.64.25-1 .22-.71.3-1c.4-.2.51.14 1 .07s.42-.2.85-.27.42-.16.86-.23.47.12.46.42 0 .69 0 1 0 .7-.09 1-.25.67-.32 1a1.07 1.07 0 01-1 1 3.58 3.58 0 01-1 .14c-.07 0-.15-.13-.2-.13-.43.08-.54.57-.54.94s.06.52.45.54a5.21 5.21 0 001.37 0 2.83 2.83 0 001-.49 2.23 2.23 0 00.88-.76 4 4 0 00.37-1.12c.09-.37.19-.76.26-1.16s0-.8 0-1.2 0-.79.06-1.18a1.4 1.4 0 00-.13-.82.78.78 0 00-.67-.45 3.79 3.79 0 00-.89.08c-.59.1-.62-.06-1.21 0s-.6.53-1.17.38c.07-.5.11-1.14.14-1.64.42-.27.56.06 1.06 0s.48-.19 1-.27.52 0 1-.06.48-.15 1-.24.48-.16 1-.25a.78.78 0 00.66-.72.58.58 0 00-.79-.54zm4.52 1.13c.31-.1.57-.34.88-.44s.6-.23.91-.33.62-.17.92-.27L101 94c.32-.1.65-.12 1-.22s.6-.29.89-.38c0 0 .06.06 0 .09a10.33 10.33 0 00-.76.7 7.17 7.17 0 00-.5.89 7.78 7.78 0 00-.55.87 6.75 6.75 0 00-.28 1 5.38 5.38 0 00-.13 1 3.53 3.53 0 00.27 1 3.24 3.24 0 001.11 1.61 3.18 3.18 0 00.85.52 4.43 4.43 0 001 .2 5.56 5.56 0 001 .14 1 1 0 00.77-1c0-.36-.15-.6-.63-.59a4.43 4.43 0 01-1-.18 2.71 2.71 0 01-1-.24 1.66 1.66 0 01-.58-.79 2.15 2.15 0 01-.24-1 5 5 0 010-1 4.51 4.51 0 01.45-.91 4.44 4.44 0 01.51-.88 5.37 5.37 0 01.59-.84 9.05 9.05 0 01.78-.68 6.5 6.5 0 01.75-.37 5.37 5.37 0 01.75-.33.79.79 0 00.51-.81c0-.37-.2-.76-.71-.63l-1 .28c-.32.09-.66.15-1 .24s-.6.37-.92.46-.66.16-1 .26-.67.12-1 .21-.68.1-1 .19-.61.35-.93.44-.69.08-1 .18l-1 .28a.92.92 0 00-.67.9.69.69 0 001.07.69z"/><path class="cls-1" d="M107 93.45c-.13-.08-.26-.19-.39-.17a.67.67 0 00-.49.65.32.32 0 00.09.29c.3.27.59.67.89 1 .13.15.37.07.53 0a.53.53 0 00.45-.55.43.43 0 00-.1-.35 5 5 0 00-.98-.87zm-1.32 1.26c-.11-.08-.24-.18-.36-.15a.7.7 0 00-.49.65.36.36 0 00.08.29 7.67 7.67 0 01.88 1c.12.16.36.1.51.07a.56.56 0 00.46-.58.39.39 0 00-.08-.31 5.15 5.15 0 00-1-.97zM22.47 130.9c-.52.09-.54 0-1.07 0s-.53.11-1 .21-.53.05-1.06.15-.49.29-1 .38-.52.07-1.05.16-.53 0-1.05.12-.54 0-1.07.08-.49.25-1 .34-.55 0-1.07.07-.52.07-1 .16a.88.88 0 00-.61.9c0 .35.23.8.64.73s.5-.25 1-.34.52-.12 1.05-.22.53-.06 1.05-.15l1.05-.17c.52-.09.54 0 1.06-.1s.5-.19 1-.28.54 0 1.06-.05.5-.25 1-.34l1.05-.18c.52-.09.52-.06 1-.16a.79.79 0 00.64-.8c0-.34-.2-.58-.62-.51zm9.09 1c-.09-.24-.19-.23-.38-.2s-.63.25-.54.59a6.67 6.67 0 01.28.86c.07.29.16.59.2.88s.2.49.45.45a.8.8 0 00.58-.84c0-.27-.1-.59-.18-.91a7.12 7.12 0 00-.41-.83z"/><path class="cls-1" d="M30.35 131c.25-.08.56-.21.81-.3 0 .08.07.21.09.27a.41.41 0 00.48.3.65.65 0 00.5-.67c0-.07 0-.09-.06-.16a5 5 0 00-.29-.82 7.43 7.43 0 00-.43-.75c-.13-.17-.27-.37-.46-.34a.94.94 0 00-.64.7c0 .08.21.12.25.19s.11.32.17.42c-.33.1-.79.13-1.13.22.15-.25.25-.63.41-.9s.36-.49.5-.76.22-.58.36-.84.32-.54.44-.8c.06-.1.15-.16.15-.26a.62.62 0 00-.69-.57c-.21 0-.28.34-.38.59s-.48.8-.72 1.25c-.11-.12-.27-.28-.4-.4.2-.37.43-.74.6-1.12s.25-.83.38-1.2a.46.46 0 000-.2c0-.36-.24-.64-.57-.58a1 1 0 00-.64.59c-.1.29-.12.61-.24.9s-.25.57-.38.84a.46.46 0 00-.4-.09.72.72 0 00-.53.72c0 .14 0 .18.16.29s.38.56.63.79.6.41.81.65c-.12.23-.24.53-.37.76s-.34.41-.48.63c-.19 0-.36.13-.55.16-.36.07-.45.34-.45.66s.12.71.49.63.81-.27 1.28-.39c.23.43.07.46 0 .94a5.46 5.46 0 000 1c0 .49.06.49.06 1s-.12.49-.12 1 .17.49.17 1c0 .33.26.36.59.3s.62-.2.62-.53v-1c0-.49.1-.51.1-1s-.11-.51-.11-1 .16-.5.16-1-.28-.67-.17-1.12z"/><path class="cls-1" d="M38.77 126.74a3.22 3.22 0 01-1.18.17c.17-.28.33-.67.48-1s.42-.53.56-.82.11-.67.24-1c.05-.11.19-.18.19-.28a.64.64 0 00-.74-.59.83.83 0 00-.57.56c-.12.28-.35.51-.48.79s-.11.62-.26.89-.26.56-.41.82-.37.52-.54.77-.45.3-.57.06c-.25-.48-.21-.6.08-1.06s.32-.15.71-.21a.75.75 0 00.63-.66.48.48 0 00-.61-.45c-.39.07-.59.41-.83.11s0-.58 0-1.12c0-.39-.3-.54-.64-.48a.69.69 0 00-.57.71c0 .54.37.77 0 1.17s-.67.08-1.26.19a.57.57 0 00-.47.63c0 .31.14.7.48.64.59-.11.61-.6 1.09-.24s.45.6.13 1-.47.16-.91.23-.45 0-.88.1-.4.33-.4.63 0 .53.38.47.41-.15.83-.22.44 0 .87-.1a1.76 1.76 0 01.85-.06c-.2.25-.48.4-.69.63s-.26.63-.49.85-.53.37-.77.58-.48.41-.73.61a.87.87 0 00-.37.59c0 .32.28.5.64.44a.76.76 0 00.31-.19c.19-.16.33-.2.52-.36a2.71 2.71 0 010 .9c0 .46.09.46.09.92v.93a1.07 1.07 0 00.41 1c.24.15.59.08 1.11 0s.48-.11 1-.19.52.09 1 0a1.9 1.9 0 001.06-.61 1.34 1.34 0 00.34-1.08c0-.49.1-.49.1-1s-.05-.49-.05-1v-1c0-.51 0-.93-.26-1.11a1.88 1.88 0 00-1.19 0c-.39.07-.36.24-.75.33a1.38 1.38 0 01-.83 0c.23-.25.45-.54.66-.81s.39-.62.6-.89c.49-.18.57.08 1.08 0s.52-.11 1-.2a.83.83 0 00.6-.76c-.01-.14-.26-.29-.59-.23zM37 133.57c0 .25 0 .32-.31.37a14.34 14.34 0 00-1.42.41c-.27 0-.53-.08-.54-.38s-.18-.51.1-.75c.45-.37.57-.15 1.13-.25s.67-.47 1.19-.22c.37.15-.15.45-.15.82zm-.28-2.73c.33-.06.33-.06.33.19s.4.59.1.73c-.52.26-.59.13-1.16.23s-.62.33-1.16.11c-.3-.12 0-.34 0-.67a.5.5 0 01.46-.53c.71-.13.71.1 1.46-.06zm-8.35 1.27a.66.66 0 00-.43.61c0 .38-.09.81-.17 1.19a7.23 7.23 0 01-.5 1.1c0 .08.1.19.1.25 0 .32.18.37.46.32a.63.63 0 00.55-.38c.08-.24.12-.54.2-.85s.09-.57.14-.87.29-.56.32-.85-.38-.57-.67-.52zM44 123c-.32 0-.73.17-.81.57s0 .71-.11 1-.12.7-.17 1-.08.7-.11 1 0 .7 0 1v1c0 .31-.16.68-.16 1s.13.71.15 1.07.06.73.09 1.07 0 .78 0 1.08.39.53.75.47a.76.76 0 00.67-.88c0-.31.08-.67 0-1s-.09-.67-.11-1 0-.7 0-1v-1c0-.34-.09-.67-.07-1s.23-.64.27-1 0-.67 0-1 .14-.65.19-1 .07-.66.14-1c.04-.38-.34-.48-.72-.38zm7.81 6.4c-.32.11-.63.27-1 .36a9.83 9.83 0 01-1 .3 6.35 6.35 0 01-.88.08 1.8 1.8 0 01-.91-.11c-.25-.13-.33-.45-.38-.81s-.33-.46-.65-.41a.81.81 0 00-.69.89 2.8 2.8 0 00.19 1.15 1.74 1.74 0 001 .64 3.71 3.71 0 001.16.1 9.16 9.16 0 001.15-.14c.37-.07.72-.26 1.11-.37s.8-.05 1.17-.19a.92.92 0 00.52-.89.59.59 0 00-.79-.6zm-3.39-5.94c-.3.07-.6.15-.9.2a.94.94 0 00-.73.88c0 .37.26.6.77.49.31-.06.66.06 1 0s.59-.26.9-.34.62-.12.92-.2.6-.23.89-.32a.78.78 0 00.57-.82c0-.39-.17-.66-.69-.52-.29.09-.58.21-.88.3s-.63 0-.93.08-.62.18-.92.25zm8.73-2a12 12 0 011.12.63.49.49 0 00.43.13.83.83 0 00.72-.72c0-.18-.14-.33-.33-.48a7.1 7.1 0 00-1.11-.6c-.16-.08-.26-.17-.4-.14a.76.76 0 00-.64.72.46.46 0 00.21.46zm8.52-.15a1 1 0 00.47-.2c.24-.22.46-.5.71-.78s.47-.5.69-.78.07-.34.07-.49a.46.46 0 00-.6-.47.82.82 0 00-.58.29c-.18.24-.31.51-.5.74s-.35.49-.56.7-.33.31-.33.5a.5.5 0 00.63.49zm.45.58c-.14 0-.22-.14-.35-.12a.82.82 0 00-.67.77.47.47 0 00.29.48c.25.13.53.25.8.4s.5.34.74.5.35 0 .52 0a.73.73 0 00.64-.73.61.61 0 00-.26-.59c-.25-.15-.56-.25-.84-.4s-.61-.2-.87-.31zm-9.57 3.62a.5.5 0 00.62.53c.12 0 .33 0 .47-.05s.39-.46.6-.65.41-.42.61-.62.44-.4.62-.6a.72.72 0 00.11-.55c0-.34-.19-.55-.55-.48a.87.87 0 00-.56.26 9 9 0 01-.72.84c-.27.25-.51.55-.81.78s-.39.33-.39.54zm11.24 2.57c-.34 0-.7 0-1.05-.05s-.69-.1-1-.18-.63-.36-.95-.47a9.39 9.39 0 01-1-.38c.42-.2.47-.11.94-.19s.47 0 .93-.07.46-.13.92-.21.45-.11.91-.19.64-.3.64-.59a.57.57 0 00-.64-.54c-.56.1-.56.12-1.13.22l-1.13.21c-.57.1-.54.24-1.11.34A1.63 1.63 0 0163 126c-.26-.08-.06-.16-.06-.43s-.32-.48-.66-.42a.72.72 0 00-.64.66c0 .27.26.49 0 .64-.48.32-.62.06-1.18.15s-.59 0-1.15 0-.52.28-1.08.38-.58 0-1.14.07a.79.79 0 00-.61.7.54.54 0 00.62.52c.45-.08.46 0 .91-.12s.43-.17.89-.25.44-.11.89-.19a2.54 2.54 0 01.91-.09c-.24.21-.46.43-.72.63s-.46.46-.72.64-.59.28-.86.45-.55.34-.82.49-.53.39-.81.53-.65.33-.65.57a.6.6 0 00.74.51c.09 0 .23.09.32 0 .32-.16.6-.43.92-.62s.61-.41.92-.61.64-.38.93-.6.52-.55.8-.78.67-.43.92-.68c.13.72-.11.74-.12 1.47 0 .45.06.45.06.9s.28.34.62.28.67-.18.67-.52v-.9c0-.75-.34-.81-.06-1.5a9.76 9.76 0 00.86.49c.28.14.62.17.93.29s.61.19.92.28.58.37.9.43.65.09 1 .13c.09 0 .18-.08.25-.09a.82.82 0 00.67-.8.57.57 0 00-.58-.53zm-4.71-9.21a.61.61 0 00-.69-.6 1 1 0 00-.68.8c-.06.27-.1.55-.18.81h-.12a1.73 1.73 0 00-1 .55 1.34 1.34 0 00-.35 1c0 .43-.08.43-.08.87s.07.43.07.86.07.44.07.87 0 .79.25 1a1.46 1.46 0 001 .07c.45-.07.45 0 .9-.1s.45 0 .9-.12a1.9 1.9 0 001-.54 1.5 1.5 0 00.31-1.08c0-.44.07-.44.07-.87s-.05-.44-.05-.88-.09-.43-.09-.87 0-.78-.25-.94a1.47 1.47 0 00-1-.07c-.14 0-.22.19-.35.12 0-.18.29-.45.34-.66s-.07-.17-.07-.22zm.28 4.45c0 .25-.09.38-.39.44-.66.11-.65.19-1.31.29a.34.34 0 01-.43-.37c0-.32-.18-.42.07-.63.4-.32.49-.15 1-.24s.6-.45 1.07-.24c.3.14-.01.43-.01.75zm-.4-2.65c.3 0 .4.06.4.31s.3.6 0 .74c-.47.23-.54.06-1 .15s-.55.33-1 .11c-.3-.14 0-.31 0-.64a.46.46 0 01.38-.52c.55-.11.56-.03 1.26-.15zm16.81 2.55a.94.94 0 00-.64.39 11.35 11.35 0 01-.66.93 7.15 7.15 0 01-.78.84 4.57 4.57 0 01-1 .56 4.83 4.83 0 01-1.08.34 1.06 1.06 0 01-.89-.25 1.19 1.19 0 01-.53-.77 5.07 5.07 0 01-.13-1c0-.35.1-.72.11-1.09s0-.73 0-1.1v-1.1c0-.37.1-.73.12-1.09s.11-.73.13-1.08-.06-.75 0-1.09-.31-.59-.71-.52-.82.26-.85.71-.06.72-.08 1.1 0 .73 0 1.11-.07.73-.09 1.1 0 .74 0 1.1v1.1c0 .36-.07.74-.07 1.1a7.71 7.71 0 00.11 1 3.49 3.49 0 00.32 1 1.52 1.52 0 001.5 1.2 4 4 0 001-.13 6.86 6.86 0 001-.07 6.07 6.07 0 00.88-.51 7 7 0 00.9-.46 7.08 7.08 0 00.7-.74 8.38 8.38 0 00.66-.76c.2-.25.43-.49.63-.78a.84.84 0 00.09-.54.53.53 0 00-.64-.5zm8.54.46c-.2-.24-.43-.48-.65-.72s-.44-.46-.66-.7-.38-.54-.61-.76-.5-.42-.73-.64a.59.59 0 01-.26-.52.84.84 0 01.13-.66c.2-.26.51-.46.72-.75s.37-.58.58-.86.48-.52.67-.8.33-.63.51-.91.33-.62.5-.9.24-.35.24-.5c0-.43-.44-.57-.83-.5a.75.75 0 00-.56.4c-.17.29-.37.58-.56.89s-.41.55-.6.84-.33.62-.53.91-.35.61-.55.88-.49.52-.7.78a2.8 2.8 0 00-.43.68 2.3 2.3 0 00-.31.78c0 .26.21.49.34.73a2.63 2.63 0 00.52.55c.22.21.37.51.6.75s.46.43.67.67.44.46.64.7.35.54.54.78.34.55.51.79a.74.74 0 00.79.23.89.89 0 00.74-.88c0-.15.09-.38 0-.55s-.5-.46-.72-.71zm16.91-3.94c-.3.05-.52.43-.57.84-.11.93-.3 1.18-.55 1.22s-.57-.21-.94-.68a4.94 4.94 0 01-.65-1c.2-.29.38-.62.56-.92s.44-.56.61-.87.41-.6.56-.92.17-.69.3-1c.06-.12 0-.21 0-.3 0-.4-.26-.69-.61-.62a1 1 0 00-.65.65c-.12.31-.23.61-.37.91s-.26.6-.42.89-.31.45-.48.72a7.18 7.18 0 01-.19-.83c-.07-.31-.08-.63-.13-.95s-.28-.61-.32-.93 0-.59 0-.91a2.87 2.87 0 011.13-.25c.57-.1.59 0 1.17-.09s.55-.19 1.13-.3a.7.7 0 00.49-.75c0-.31-.16-.66-.51-.6-.59.1-.55.29-1.14.39s-.61 0-1.19.08-.58.34-1.18.31c0-.25-.08-.62-.09-.89s.19-.53.19-.81-.48-.61-.83-.55a.72.72 0 00-.56.78c0 .28-.2.55-.2.82s.07.51.08.77a3.52 3.52 0 01-1.1.34c-.56.1-.6-.09-1.16 0s-.52.31-1.09.41a4.13 4.13 0 00-1 .17 1.56 1.56 0 00-.66.71 2.06 2.06 0 00-.37 1v1.69c0 .35.24.68.23 1s-.2.67-.23 1-.14.65-.19 1 0 .66-.12 1-.08.67-.19 1-.24.62-.38.91-.24.27-.24.41a.61.61 0 00.77.52 1.05 1.05 0 00.81-.52c.13-.27.07-.64.19-.94s.33-.55.42-.86.17-.6.23-.92.05-.63.09-.95.17-.61.19-.94 0-.52 0-.85a4.88 4.88 0 011.37-.49c.22 0 .24.17.24.42s.14.63.11.91a8 8 0 01-.26.87c0 .26-.11.43-.31.46a2.94 2.94 0 01-.41 0 .73.73 0 00-.72.73.61.61 0 00.56.65 4.76 4.76 0 00.74-.19 1.72 1.72 0 001.06-.45c.23-.25.22-.66.32-1.11a8.84 8.84 0 00.33-1.16 11 11 0 00.08-1.2 1 1 0 00-.44-.9c-.23-.14-.54-.08-1 0s-.45-.07-.87 0-.61.57-.89.24 0-.62 0-1.21c0-.43.19-.7.75-.8s.54 0 1.08-.07a10.19 10.19 0 001.08-.12c.53-.09.5-.33 1-.26v1c0 .37.17.64.22 1s.14.63.21 1 .1.72.2 1.06.28.68.41 1c-.21.25-.36.57-.58.81s-.52.39-.75.61-.48.44-.72.64-.45.48-.71.67-.59.37-.59.6a.62.62 0 00.77.53c.13 0 .35 0 .49-.07s.43-.46.66-.65.45-.42.68-.63.47-.39.68-.61.43-.56.63-.79a4.9 4.9 0 00.64 1 2.64 2.64 0 00.81.72 1.81 1.81 0 001.08 0 1.59 1.59 0 00.92-.55 2.27 2.27 0 00.6-.93 5.94 5.94 0 00.21-1.11.61.61 0 00-.52-1.01z"/><path class="cls-1" d="M102.79 111.51a.62.62 0 00-.32-.05.84.84 0 00-.61.79c0 .17.12.23.31.32s.48.38.81.57c.13.09.29 0 .42 0a.71.71 0 00.59-.68c0-.19-.09-.29-.3-.41a5.06 5.06 0 00-.9-.54zm17.32 2.83c-.48.08-.47.17-1 .25s-.47.14-1 .23-.5 0-1 .08-.45.26-.93.35-.51 0-1 0-.46.19-.94.28-.48.06-1 .15-.49.24-.92 0-.29-.36 0-.59.48-.26 1-.36.57.1 1.1 0 .53-.13 1.06-.23.51-.23 1-.32.57.09 1.1 0c.34-.06.35-.45.35-.73s0-.51-.37-.45c-.53.1-.52.14-1.06.23s-.57-.07-1.1 0l-1.07.19-1.06.19c-.53.1-.61.65-1.09.42-.32-.16-.19-.54.08-.77s.52 0 1-.11.52-.15 1-.24.51-.19 1-.28.52-.11 1-.2.55 0 1.07-.07a.7.7 0 00.49-.71c0-.27-.18-.63-.52-.57-.53.09-.5.28-1 .38s-.55 0-1.08 0-.53.07-1.06.17-.52.15-1.05.24a2.25 2.25 0 01-1 .09c-.16 0 .1 0 .1-.22s-.06-.53.35-.6.58.11 1.13 0 .53-.24 1.08-.33.57 0 1.12-.08.53-.2 1.08-.3.56 0 1.1-.14a.72.72 0 00.55-.72c0-.32-.21-.67-.56-.61s-.46.19-.93.27-.48 0-1 .07-.44.26-.91.35-.49-.06-1 0-.47.06-.94.14-.45.15-.92.23a3.19 3.19 0 00-.84.33c-.32.15-.62.25-.75.51a2.41 2.41 0 00-.06.92v2c0 .48-.11.51-.11 1s.28.58 0 1-.4.13-.86.21-.47 0-.93.06-.49.5-.49.82.18.7.53.64.43-.21.89-.29.59-.47.92-.15.12.53.12 1.06-.1.53-.1 1.05a1.85 1.85 0 01-.11 1c-.47.16-.8.45-1.23.58s-.67.35-.67.65a.55.55 0 00.8.5c.3-.09.63-.11 1-.23s.62-.17.94-.29.54-.4.85-.53.63-.19.93-.33.56-.34.84-.49.43-.31.43-.55-.19-.65-.57-.58c-.06 0-.17-.06-.25 0-.25.13-.46.37-.74.5s-.54.19-.82.3c-.15-.46 0-.48 0-1s.13-.48.13-1-.49-.67-.12-1c.57-.47.74-.31 1.48-.29a6.73 6.73 0 00.4 1c.19.27.54.42.78.66a5.83 5.83 0 00.75.65 6.74 6.74 0 00.82.58 5.81 5.81 0 00.92.4 6.29 6.29 0 001 .3 7.77 7.77 0 001 .23.65.65 0 00.24 0c.42-.07.61-.57.61-.94a.5.5 0 00-.52-.57 7.6 7.6 0 01-.88-.18 6 6 0 01-.84-.3 5.23 5.23 0 01-.73-.26c.24-.2.3-.47.54-.69s.44-.45.66-.69.34-.31.34-.48a.68.68 0 00-.31-.54 5.2 5.2 0 011.53-.15.77.77 0 00.54-.78c.26 0 .06-.39-.31-.32zm-2.38 2c-.21.27-.42.54-.64.77s-.55.37-.81.59a6.33 6.33 0 01-1-1.16c.53-.35.62 0 1.28-.07a6.85 6.85 0 001.27-.2s-.06-.01-.1.03zm13.44-2.34a1.09 1.09 0 00-.69.46c-.24.34-.33.74-.56 1a7.73 7.73 0 01-.81.81 4.69 4.69 0 01-1 .53 4.2 4.2 0 01-1.07.39 1.08 1.08 0 01-.9-.25 1.24 1.24 0 01-.53-.79 6.32 6.32 0 010-1c0-.35.07-.71.08-1.09s-.06-.72 0-1.09 0-.74 0-1.1v-1.1l.06-1.09c0-.37.21-.73.24-1.07a.66.66 0 00-.84-.66.87.87 0 00-.65.86c0 .35-.22.71-.24 1.09s.06.73 0 1.1-.08.73-.1 1.1 0 .74 0 1.11-.13.73-.14 1.09.1.75.1 1.1a8 8 0 00.08 1 5.36 5.36 0 00.12 1.07 2 2 0 00.74.76 1.75 1.75 0 001 .33 3.74 3.74 0 001 0 6.84 6.84 0 001-.26 6.11 6.11 0 00.92-.4 5.54 5.54 0 00.87-.5 7.53 7.53 0 00.77-.66c.22-.22.36-.55.58-.82s.44-.49.64-.78a1 1 0 00.22-.51.7.7 0 00-.89-.63zm13.06-.6a10.48 10.48 0 00-1.07-.38 8.5 8.5 0 00-1.12-.21 8.7 8.7 0 00-1.14-.17c0-.29 0-.62-.05-.9s.05-.52 0-.8c.28-.07.49-.17.77-.24s.58-.12.85-.19.54-.26.81-.35a.91.91 0 00.72-.77.66.66 0 00-.88-.6c-.39.12-.75.41-1.18.52s-.83.09-1.25.19c0-.46-.12-1-.12-1.43.33-.06.75 0 1.07-.08s.64-.28.95-.33.69 0 1 0a.75.75 0 00.6-.81c0-.35-.15-.6-.59-.53s-.66 0-1 .09-.67 0-1 .05-.66.3-1 .37v-.68a5.61 5.61 0 010-.71c0-.4-.3-.51-.65-.45a.77.77 0 00-.7.71v1.29l-1 .18c-.36.07-.68.27-1 .35s-.71.11-1 .19a.82.82 0 00-.68.79.63.63 0 00.73.67c.32-.07.67-.12 1-.2s.64-.33 1-.4l1.13-.2c0 .47-.06 1 0 1.46-.23 0-.45.14-.69.18s-.67 0-1 0-.65.21-.92.23a.81.81 0 00-.77.79.66.66 0 00.66.69c.25 0 .61-.13 1-.19s.66-.16 1-.22l.83-.15c0 .46.07 1 .11 1.5-.37 0-.81-.08-1.16 0a5.13 5.13 0 00-1 .3 3.46 3.46 0 00-.8.64 2.22 2.22 0 00-.64.74 2.1 2.1 0 00-.42.93 1.7 1.7 0 00.3.86 1.41 1.41 0 00.68.56 2.26 2.26 0 00.86.32 6.34 6.34 0 00.9-.21 4.64 4.64 0 001-.21 3.68 3.68 0 00.88-.53 2.71 2.71 0 00.69-.79 2.46 2.46 0 00.12-1v-.12a8.28 8.28 0 011.21.42 10.86 10.86 0 011.22.4.75.75 0 00.42.14 1 1 0 00.78-.93.75.75 0 00-.46-.78zm-5.06 1.65a1.93 1.93 0 01-.87.44c-.84.15-1.25-.16-1.25-.51a.84.84 0 01.53-.69 3.75 3.75 0 01.86-.15 6 6 0 011.17-.27v.36a1.1 1.1 0 01-.44.82zm16.56-5.21a.88.88 0 00-.59.42 8.39 8.39 0 01-.74.87 6.09 6.09 0 01-.88.71 5.84 5.84 0 01-.86.75 4.87 4.87 0 01-1.09.33 1.1 1.1 0 01-.91-.25 1.27 1.27 0 01-.54-.8 5.76 5.76 0 01-.06-1c0-.35-.06-.71-.06-1.09s.06-.72.08-1.09 0-.74 0-1.1.16-.73.18-1.09 0-.74 0-1.09v-1.09a.57.57 0 00-.71-.65 1 1 0 00-.85.85v1.1c0 .38-.09.73-.11 1.1s0 .74 0 1.11v2.2c0 .36-.05.74-.05 1.1a10.21 10.21 0 000 1.07 4.37 4.37 0 00.32 1 2.19 2.19 0 00.61.87 2 2 0 001 .26 3.63 3.63 0 001.06.05 5.7 5.7 0 001-.27 8 8 0 00.84-.55 6.37 6.37 0 00.89-.47 8 8 0 00.69-.72 6.59 6.59 0 00.77-.66c.2-.24.29-.59.49-.88s.27-.31.27-.47c.02-.36-.34-.59-.75-.52zm11.82.16a8.21 8.21 0 00-.83-.44 7.64 7.64 0 00-.91-.24 7.39 7.39 0 00-.88-.27c0-.41-.13-.79-.16-1.21s-.11-.87-.12-1.28l1.18-.33c.39-.13.76-.25 1.11-.38a.64.64 0 00.43-.63c0-.35-.22-.7-.65-.55s-.67.23-1 .34-.69.29-1 .38v-1.81a.53.53 0 00-.65-.51.75.75 0 00-.56.73v.68c0 .34-.11.78-.1 1.14s.13.78.15 1.14 0 .77.06 1.13.1.84.13 1.2a8.48 8.48 0 00-1.14.1 3.4 3.4 0 00-1.07.4 2.66 2.66 0 00-.94.65 1.78 1.78 0 00-.34 1.09 1.32 1.32 0 00.35.94 1.49 1.49 0 00.9.5 3.44 3.44 0 001.06 0 4.16 4.16 0 001.16-.39 2.86 2.86 0 00.79-.91 2.32 2.32 0 00.55-1 7.88 7.88 0 01.94.2 8.67 8.67 0 01.92.44.7.7 0 00.44.12.8.8 0 00.58-.79c-.08-.21-.16-.32-.4-.44zm-4.19 1.12a1.72 1.72 0 01-.89.31c-.69.12-.89 0-.89-.33s.24-.71.93-.83a5.85 5.85 0 011.19 0 1.22 1.22 0 01-.34.85zm10.98-10.55c.29 0 .61.05.94.08l.95.11h1c.09 0 .19.1.26.09a1 1 0 00.68-.94.64.64 0 00-.47-.66 9.86 9.86 0 00-1-.22c-.33 0-.68-.06-1-.08a9.71 9.71 0 00-1 .16.92.92 0 00-.95.82.65.65 0 00.59.64zm4.32 2.43a1.58 1.58 0 00-.79-.74 2 2 0 00-1-.5 4.82 4.82 0 00-1.12.14 6.3 6.3 0 00-1 .23 8.68 8.68 0 00-1 .34c-.31.13-.57.38-.88.54s-.64.24-.93.42a.94.94 0 00-.46.79.64.64 0 00.73.66c.11 0 .16-.2.28-.27a10.75 10.75 0 011.11-.41c.37-.18.68-.46 1-.58a6.51 6.51 0 011.13-.31 1.6 1.6 0 011.08.11 1 1 0 01.45 1 5.65 5.65 0 010 1.09 5.73 5.73 0 01-.36 1 6.2 6.2 0 01-.45 1 7.65 7.65 0 01-.74.79 7.32 7.32 0 01-.69.82.89.89 0 00-.3.73c0 .38.23.59.65.52a.9.9 0 00.47-.23 9 9 0 00.69-.69 9.5 9.5 0 00.72-.69 9.28 9.28 0 00.56-.83c.16-.29.2-.64.33-.94s.24-.61.33-.92a8.13 8.13 0 00.15-1 9 9 0 00.22-1 3.31 3.31 0 00-.18-1.07z"/><path class="cls-3" d="M42.71 64c0-.47-.13-.47-.13-.94a3.72 3.72 0 00-.09-.86 2.22 2.22 0 00-.29-.8 1.7 1.7 0 00-.64-.55c-.25-.13-.48-.39-.8-.43s-.57.18-.89.2-.55.09-.86.14-.49-.17-.93-.09l-.87.16c-.44.07-.42.16-.86.24s-.48.4-.82.11-.19-.4-.19-.85.27-.46.27-.91-.17-.45-.17-.91.12-.45.12-.9-.18-.45-.18-.9v-.91a.72.72 0 00-.46-.76 1.5 1.5 0 00-1-.16 2.57 2.57 0 00-.77.2 1.85 1.85 0 00-.62.52 1.37 1.37 0 00-.33.77c0 .45.09.45.09.91s-.15.45-.15.91.11.45.11.91.08.45.08.9v.9c0 .45.34.67 0 1s-.62 0-1.13 0-.52.05-1 .14-.48.26-1 .35c-.34.06-.71-.09-1 0a5.12 5.12 0 00-.87.47 4.75 4.75 0 00-.87.46c-.25.22-.3.6-.46.88a3.09 3.09 0 00-.37.87 4.33 4.33 0 000 1c0 .48-.06.48-.06 1s.08.48.08 1v1c0 .53-.25.47-.25.94s.21.47.21.94a4.83 4.83 0 00-.05.9 2.34 2.34 0 00.28.88c.16.25.53.3.8.44a2.53 2.53 0 00.83.19 3.82 3.82 0 00.87.2 8.38 8.38 0 00.87-.21c.51-.09.5-.19 1-.26s.54 0 1.05 0 .63-.56 1-.25-.09.52-.09 1 .2.47.2.93-.19.47-.19.93v.93c0 .46.16.46.16.92s-.17.47-.17.93v1.85c0 .46-.12.46-.12.93s.42.63.74.79a1.51 1.51 0 001 .2 2.29 2.29 0 00.77-.23 1.86 1.86 0 00.59-.56 1.3 1.3 0 00.14-.77v-.93c0-.46.07-.47.07-.94s-.12-.46-.12-.92v-1.86c0-.47.07-.46.07-.92s.13-.46.13-.93-.1-.46-.1-.92-.39-.63-.1-1 .54.11 1 0 .4-.28.84-.36.46.09.9 0 .43-.12.87-.2a9.63 9.63 0 00.91-.33 5.39 5.39 0 00.91-.31 3.81 3.81 0 00.85-.46 2.85 2.85 0 00.54-.82 3.06 3.06 0 00.35-.89 4.52 4.52 0 000-1c0-.47.07-.47.07-1s.21-.47.21-1v-.94c0-.47.02-.47.02-.96zm-10.38 3.29c0 .44.05.44.05.89s-.18.45-.18.89.39.59.1.92-.44.08-.95.06-.44.26-.9.34-.5-.15-1-.07-.8.07-.8-.54.11-.47.11-.94-.2-.47-.2-.93v-.94c0-.47-.08-.46-.08-.93a1.07 1.07 0 01.26-.71 1.23 1.23 0 01.66-.38l.92-.15c.46-.08.51.17 1 .09s.57-.65.93-.35-.12.5-.12.95-.07.45-.07.9.27.45.27.9zM39.61 66c0 .46-.25.46-.25.93s.21.46.21.93a.87.87 0 01-.31.63c-.13.14-.31.14-.62.2s-.36.28-.76.35-.39.11-.79.18-.43-.1-.83 0-.52.51-.81.23-.22-.48-.11-1a2.42 2.42 0 00.18-.87v-.9c0-.45-.17-.45-.17-.89s.23-.45.23-.89-.39-.54-.12-.89.41 0 .81 0 .36-.26.76-.33.41 0 .8-.1.39-.14.78-.21c.67-.12.91.19.91.78s.08.46.08.93.01.46.01.92zm-15.84-9.38a2.11 2.11 0 00-.82.06 2.24 2.24 0 00-1.07.36 2.09 2.09 0 00-.5 1c-.07.28-.07.58-.15.87s-.12.57-.21.85-.11.58-.2.86-.34.5-.44.78-.22.55-.32.82 0 .61-.14.89-.42.46-.53.73-.1.59-.21.86-.33.49-.45.76-.06.62-.18.88-.29.51-.42.77-.19.56-.32.82-.33.49-.47.74-.22.56-.37.8l-.47.75c-.26.4-.61.71-.61 1s.28.49.42.69.28.48.52.57a1.73 1.73 0 00.82.13c.25 0 .46-.36.71-.55a2.56 2.56 0 00.53-.66c.17-.27.5-.46.68-.76s.33-.63.49-.93c.13.44 0 .46-.06.93a4.73 4.73 0 00-.12.92c0 .45.28.45.28.91s-.09.45-.09.91-.06.45-.06.91v.9c0 .45.09.46.09.91v.91c0 .45-.1.51-.1.99s.12.46.12.91v1.81c0 .45-.07.46-.07.91s-.12.45-.12.9.09.46.09.91.28.6.61.75a1.81 1.81 0 001 .3c.25 0 .44-.33.67-.46s.54-.17.69-.37a1.36 1.36 0 00.21-.78c0-.44-.11-.44-.11-.88v-.89c0-.44.09-.44.09-.88s-.1-.44-.1-.89v-.87c0-.44-.12-.44-.12-.88s.06-.44.06-.88.21-.44.21-.88v-.88c0-.44-.07-.44-.07-.88s-.13-.44-.13-.88v-2.63c0-.44.18-.44.18-.88s-.22-.44-.22-.88v-.88c0-.44.25-.44.25-.88a1.09 1.09 0 00-.46-.88 1.6 1.6 0 00-.94-.11c.12-.27.3-.5.42-.78s0-.65.14-.93.48-.46.59-.74.05-.63.16-.91.32-.53.42-.81 0-.63.12-.92.15-.58.24-.87.17-.58.25-.86.2-.58.27-.86.14-.31.14-.46a1.2 1.2 0 00-.22-.76 1.29 1.29 0 00-.6-.53zm44.99 12.62c0-.46.09-.46.09-.92s-.13-.47-.13-.93.07-.46.07-.92-.2-.46-.2-.92.25-.46.25-.92a5.07 5.07 0 00-.13-.85 2.73 2.73 0 00-.22-.82 1.78 1.78 0 00-.61-.61 2.09 2.09 0 00-.81-.26 3.44 3.44 0 00-.84-.13 7 7 0 00-.84.1c-.44.08-.42.21-.86.29s-.47-.08-.91 0-.43.15-.87.23-.44 0-.88.12l-.88.15a8.69 8.69 0 00-.89.25 6.22 6.22 0 00-.89.28 3 3 0 00-.71.61c-.22.21-.21.58-.34.86s-.46.47-.52.79a7.3 7.3 0 000 .93c0 .46.08.46.08.92s.11.47.11.93-.1.46-.1.92.1.46.1.92-.25.46-.25.92a5.22 5.22 0 00.1.85 2.88 2.88 0 00.23.83 1.88 1.88 0 00.58.67 2.14 2.14 0 00.85.18 3.68 3.68 0 00.84.05 7.05 7.05 0 00.83-.11c.44-.07.43-.1.87-.19s.45 0 .89-.11l.88-.16c.44-.08.43-.12.87-.2s.43-.14.87-.22a8.25 8.25 0 00.91-.09 4.31 4.31 0 00.8-.42c.28-.15.63-.2.83-.41s.21-.58.34-.87.4-.49.46-.81a7 7 0 00.03-.93zm-3 .42c0 .5-.11.65-.75.76-.46.08-.43.23-.88.32s-.51-.19-1-.11-.44.16-.89.24-.45.16-.9.24-.91.06-.91-.53-.21-.64.1-1.07.44-.19.87-.27.48.17.92.09.43-.11.86-.18.44-.05.88-.13.43 0 .86-.13.53-.59.83-.27.03.52.03 1.04zm.12-3.3c-.35.28-.54-.17-1-.09s-.42.16-.86.23-.42.16-.85.23-.42.19-.85.27-.45 0-.88 0-.66.53-1 .22.21-.61.21-1.12.05-.59.68-.71c.46-.08.46 0 .92-.13s.46-.06.92-.14.43-.19.89-.27l.91-.15c.64-.11.75 0 .75.48s.58.82.18 1.18z"/><path class="cls-3" d="M75.55 54.33c0-.45.07-.45.07-.9s-.2-.45-.2-.9.25-.44.25-.89a5.28 5.28 0 00-.14-1 2.69 2.69 0 00-.26-.92 1.75 1.75 0 00-.74-.63 2.5 2.5 0 00-.93-.21 4.54 4.54 0 00-.95-.1l-1 .12c-.43.08-.4.21-.83.29s-.45-.08-.87 0-.41.14-.84.21-.42 0-.84.12-.6.11-.86.18a5.21 5.21 0 00-.82.3 4.66 4.66 0 00-.83.31 2.75 2.75 0 00-.65.62c-.19.22-.15.57-.26.84s-.43.46-.47.76a6.76 6.76 0 000 .89c0 .4.08.4.08.81s.11.41.11.81-.1.41-.1.81.11.41.11.82-.25.4-.25.8a5.31 5.31 0 00.1.94 2.57 2.57 0 00.28.91 1.76 1.76 0 00.75.65 3.73 3.73 0 001 .09 5.94 5.94 0 00.93 0 9 9 0 00.93-.13c.4-.07.43 0 .83 0s.39-.19.79-.26.43 0 .83 0 .37-.26.78-.33.54-.37.83-.09.09.47.09.91v.9c0 .45.07.44.07.89v.89c0 .45-.26.44-.26.89s.21.44.21.88-.14.45-.14.89-.07.45-.07.89.21.44.21.89v.88c0 .44-.18.45-.18.89s.11.44.11.89v.88a1.51 1.51 0 01-.13.86c-.15.17-.51.06-.85.12a9.9 9.9 0 01-1.23.08 1.94 1.94 0 00-.94.35 2 2 0 00-.71.69 2 2 0 00-.11 1 1.53 1.53 0 00.29 1 1.33 1.33 0 001 .34 9.73 9.73 0 001.08 0 10.28 10.28 0 001.07-.26 7.18 7.18 0 00.89-.25 4.23 4.23 0 00.87-.29 3.69 3.69 0 00.83-.46 3.31 3.31 0 00.59-.75c.15-.25.09-.63.18-.94a5.89 5.89 0 00.1-.9 8 8 0 00.17-.9v-.91c0-.45-.13-.45-.13-.9s.12-.46.12-.91v-.9c0-.45-.16-.45-.16-.9s.14-.44.14-.89v-2.7c0-.45-.06-.45-.06-.9s.13-.45.13-.9-.09-.44-.09-.89.16-.45.16-.9-.21-.44-.21-.89.21-.45.21-.9-.07-.45-.07-.9.09-.44.09-.89-.1-.45-.1-.9zm-8-1.36c0-.31.26-.42.44-.56a1.3 1.3 0 01.63-.25c.48-.09.48-.06 1-.14l1-.15c.48-.08.46-.2.93-.28a1.33 1.33 0 01.67 0c.21.07.26.22.26.55s.45.71.1.93-.58-.16-1-.08-.46.16-.94.25-.46.16-.94.24-.45.19-.93.28-.58.33-1 .06-.26-.44-.26-.82zm5 3.08c-.1.38 0 .38-.23.66s-.39.12-.87.21-.47.16-1 .24-.45.2-.93.28-.49 0-1 .07c-.32.06-.59.17-.73.11s-.08-.37-.08-.71-.35-.48-.06-.79.44 0 .91-.12l1-.14c.47-.09.45-.2.93-.29l1-.15c.47-.08.52-.44.92-.18s.2.39.11.81zm-13.34 5.52a5.89 5.89 0 001-.27c.31-.14.5-.51.76-.75a2.18 2.18 0 00.53-.76c.14-.29.4-.54.44-.85a5.22 5.22 0 000-1v-.81c0-.4-.1-.41-.1-.82s.26-.4.26-.81v-.81c0-.41-.06-.4-.06-.81A5.8 5.8 0 0062 53a2.29 2.29 0 00-.44-.85 1.59 1.59 0 00-.64-.67 3.14 3.14 0 00-.93-.14 5.72 5.72 0 00-.94 0c-.28 0-.58.12-.92.18s-.38.1-.77.17-.41 0-.8.07-.41 0-.8 0l-.78.13c-.31.06-.55.32-.81.39a6 6 0 00-.8.34 5.22 5.22 0 00-.82.29 3.08 3.08 0 00-.67.55 2.48 2.48 0 00-.31.81 3.11 3.11 0 00-.32.8 5.92 5.92 0 00-.07.88c0 .45.16.45.16.91s-.14.46-.14.91v2.73c0 .46.07.45.07.9s-.13.46-.13.91.09.45.09.91-.16.45-.16.9.21.46.21.91-.21.45-.21.91.07.45.07.9-.09.45-.09.9.12.45.12.9-.06.46-.06.91.2.45.2.9-.25.46-.25.91.07.45.07.9v2.72c0 .45-.09.45-.09.9v.91c0 .45.14.45.14.9a1.06 1.06 0 00.46 1 2.14 2.14 0 001.13 0 2.36 2.36 0 00.78-.24 2.06 2.06 0 00.63-.54 1.43 1.43 0 00.21-.8c0-.47.08-.47.08-.93s-.06-.46-.06-.93-.22-.46-.22-.92.27-.46.27-.92-.08-.46-.08-.92-.07-.46-.07-.92-.12-.46-.12-.92.11-.46.11-.92-.11-.46-.11-.92.25-.46.25-.92v-2.75c0-.45-.12-.46-.12-.92v-.92c0-.46-.31-.55 0-.9s.43-.31.93-.31a3.62 3.62 0 00.93-.15c.48-.09.52.17 1 .08s.44-.28.91-.37.77.01 1.12-.08zm-5-6.26c0-.31.27-.42.45-.56a1.12 1.12 0 01.62-.25c.44-.08.45 0 .89-.13s.44-.06.88-.13.42-.19.86-.27a1.25 1.25 0 01.65 0c.19.08.24.23.24.55s.45.71.1.93-.55-.17-1-.09-.43.16-.88.24-.44.16-.89.24-.42.18-.87.26-.57.33-.93.06-.08-.44-.08-.85zm2.83 4.33c-.45.09-.5-.19-.94-.11s-.43.16-.88.24-.52.49-.89.23-.12-.41-.12-.81-.16-.52.11-.81.45-.19.9-.27.49.16.94.08.45-.11.9-.19.45 0 .9-.12.43-.45.79-.17.06.32.06.75a.68.68 0 01-.24.63 1.43 1.43 0 01-.67.24c-.41.08-.38.23-.82.31zm51.15-7.48a1.58 1.58 0 00-.82-.06 2.41 2.41 0 00-.61.2c-.27.13-.53.3-.81.44s-.52.33-.79.47-.5.36-.77.5-.64.09-.91.24-.46.42-.73.57-.58.2-.85.35-.49.37-.75.52-.59.2-.85.35-.52.53-.78.69a6.17 6.17 0 00-.27-.91c-.16-.27-.43-.4-.61-.59a2.4 2.4 0 00-.64-.53 3.05 3.05 0 00-.8-.29 3.92 3.92 0 00-.86-.06c-.26 0-.54.09-.84.14a6 6 0 00-.82.36c-.29.09-.65 0-.92.11s-.47.43-.72.57v-.07c.15-.23.24-.47.39-.72s.31-.46.46-.7l.43-.73c.14-.24.25-.51.39-.76s.29-.42.43-.67c.3-.08.53-.19.83-.28s.54-.35.83-.44.66 0 1 0 .57-.25.86-.34.56-.26.85-.35.55-.29.83-.39.62-.12.9-.22a1.83 1.83 0 00.58-.43c.2-.18.52-.25.62-.47a1.74 1.74 0 00.15-.77 1.44 1.44 0 00-.23-.83 1.21 1.21 0 00-.75-.47 2.11 2.11 0 00-.83.21l-.78.2c-.27.1-.55.19-.84.28s-.57.13-.85.22-.57.14-.85.22-.46.2-.75.28c.11-.27.14-.48.24-.75s.16-.56.26-.84.23-.53.32-.81-.06-.31-.06-.46a.87.87 0 00-.46-.85 1.5 1.5 0 00-1-.2 2.23 2.23 0 00-1.55 1.28c-.09.3-.16.61-.26.92s-.25.59-.36.89l-.33.91c-.11.29-.16.6-.28.9-.31.08-.62.11-.92.18l-.94.21c-.31.08-.58.35-.88.41l-.94.19-.94.17a1.92 1.92 0 00-.76.3c-.25.17-.58.26-.71.5a1.8 1.8 0 00-.15.88 1.45 1.45 0 00.2.75 1.22 1.22 0 00.6.54 1.69 1.69 0 00.82.05l.78-.17c.26-.06.48-.29.75-.35s.53 0 .8-.1l.88-.23c-.16.27-.5.53-.66.79s-.22.58-.39.83-.33.52-.5.77-.43.44-.61.69l-.56.72c-.18.24-.33.51-.52.74s-.4.47-.59.7-.34.51-.54.74-.5.37-.71.59a2.7 2.7 0 00-.39.72 1.85 1.85 0 00-.26.77 1.47 1.47 0 00.19.79c.14.22.47.25.71.35a1.38 1.38 0 00.73.11 2 2 0 001.07-.51c.23-.22.42-.46.63-.66s.44-.44.66-.63.42-.48.64-.66.53-.34.76-.51.52-.35.76-.51.54-.31.78-.45.56-.33.8-.44a3.83 3.83 0 01.88-.23 2.84 2.84 0 01.83 0c.3 0 .63 0 .84.15a2.33 2.33 0 01.42.82c-.26.18-.62.27-.87.45s-.49.39-.73.57-.51.36-.74.54-.51.37-.74.56-.3.6-.51.8-.57.32-.77.53-.46.43-.64.66-.33.55-.49.79a6.84 6.84 0 00-.38.84 5.88 5.88 0 00-.35.83 6.18 6.18 0 00-.27.87 5.66 5.66 0 000 .92 4.52 4.52 0 000 .89 3.09 3.09 0 00.24.88 2.92 2.92 0 00.6.67 3.12 3.12 0 00.76.45c.24.14.43.45.74.54a5.4 5.4 0 00.88.21c.28 0 .59.1.91.12s.59-.12.9-.13a9 9 0 00.91 0c.29 0 .59 0 .9-.07s.55-.31.86-.36.58-.05.87-.1l.85-.2.85-.21c.28-.07.62.08.91 0s.54-.23.82-.31.53-.26.81-.35.53-.24.8-.33a2.51 2.51 0 00.71-.38 1.8 1.8 0 00.5-.61 1.75 1.75 0 00.27-.75 1.45 1.45 0 00-.24-.86 1.21 1.21 0 00-.74-.52 1.74 1.74 0 00-.91.08c-.3.11-.6.23-.91.33s-.61.23-.92.32-.6.26-.91.34-.65.06-1 .14-.66 0-1 .09-.59.37-.91.43-.6-.05-.87 0-.59 0-.84 0a8.28 8.28 0 01-.84 0 4.38 4.38 0 01-.84 0c-.33-.09-.67-.11-.83-.29s-.11-.56-.11-.87a2.62 2.62 0 01.1-.85 4.13 4.13 0 01.33-.82c.14-.22.43-.36.64-.61s.22-.55.45-.77.47-.33.71-.53.52-.25.77-.44.35-.34.61-.51c0 .29 0 .51.06.85s.13.6.14.94-.1.61-.09.94a1 1 0 00.61.83 1.53 1.53 0 001 .35 2.41 2.41 0 00.79-.45c.25-.17.58-.29.73-.55a1.82 1.82 0 00.07-.91v-1c0-.34-.08-.65-.1-1s.1-.67.07-1-.23-.7-.27-1c.27-.16.61-.3.89-.45s.56-.3.83-.45.61-.22.88-.37.51-.39.79-.54.51-.38.79-.53.61-.2.89-.34.54-.34.82-.48l.84-.42c.29-.13.59-.23.87-.36a2 2 0 00.81-.69 1.78 1.78 0 00.38-1 1.61 1.61 0 00-.18-.76 1.32 1.32 0 00-.56-.43zm35.44-9.44a1.41 1.41 0 00-1-.17 1.64 1.64 0 00-.8.54 1.17 1.17 0 00-.4.8 1.37 1.37 0 01-.34.67c-.12.19-.2.45-.5.55s-.47 0-.77 0c-.67.12-.77.1-.77-.37v-1c0-.49-.07-.51-.07-1v-1c0-.49-.22-.52-.49-.67a1.28 1.28 0 00-.87-.18 1.92 1.92 0 00-.94.42 1.14 1.14 0 00-.33.92c0 .46-.06.46-.06.92s-.16.45-.16.91.09.45.09.91.12.45.12.91a3.39 3.39 0 000 .91 1.28 1.28 0 00.51.77c.22.14.54.05.91.08a4.25 4.25 0 00.92.07 7.63 7.63 0 00.93 0c.33-.06.6-.27.88-.34s.64-.1.91-.19a4.74 4.74 0 00.81-.44 3.24 3.24 0 00.75-.49 2.66 2.66 0 00.6-.7 3.59 3.59 0 00.41-.86 7.52 7.52 0 000-1 1.06 1.06 0 00-.34-.97z"/><path class="cls-3" d="M127.91 45.18a1.59 1.59 0 001 .08 2 2 0 00.92-.53 1.13 1.13 0 00.51-.88v-.82c0-.41-.1-.41-.1-.82s.29-.81.9-.91c.44-.08.47.08.91 0s.42-.16.86-.24.42-.2.86-.28.46 0 .9-.05.44 0 .88-.11.41-.25.84-.32.46 0 .89-.07.46 0 .9-.06.41-.23.85-.31.44 0 .88-.08c.61-.11.9.08.9.6s-.05.53-.05 1.06a.83.83 0 00.42.83 1.82 1.82 0 001 .2 2.2 2.2 0 001-.6 1.29 1.29 0 00.55-.95v-.78c0-.39-.12-.39-.12-.78a4.65 4.65 0 00-.06-1c-.08-.36-.07-.72-.27-.94s-.57-.24-.92-.32a2.83 2.83 0 00-1-.21 5.88 5.88 0 00-1 .06 6.87 6.87 0 00-.87.21c-.44.11-.45 0-.89.13s-.43.17-.87.25-.45 0-.89.09-.42.21-.86.29-.48-.15-.92-.07-.41.23-.85.31l-.88.15c-.44.08-.43.16-.87.24s-.47-.12-.91-.05-.42.21-.86.29a6.18 6.18 0 00-.85.22 4.59 4.59 0 00-.8.33 3.68 3.68 0 00-.82.35 2.57 2.57 0 00-.53.74 3.73 3.73 0 00-.17.87 6 6 0 00-.06.88v1.07c0 .54-.15.54-.15 1.07a.9.9 0 00.6.86z"/><path class="cls-3" d="M134.08 41.62a1.67 1.67 0 00-.81-.11 1.83 1.83 0 00-.82.57 1.62 1.62 0 00-.5.83 9.07 9.07 0 01-.14.91 8 8 0 01-.38.84c-.12.28-.4.48-.55.74a6.82 6.82 0 01-.41.81 6.4 6.4 0 01-.47.79 8.23 8.23 0 01-.71.59c-.22.2-.48.36-.73.55s-.29.5-.42.71a1.46 1.46 0 00-.32.72 1.21 1.21 0 00.32 1 1.13 1.13 0 001 .12 1.78 1.78 0 00.84-.34c.24-.18.42-.43.64-.62s.48-.37.69-.58.47-.37.67-.6.47-.39.65-.63.24-.57.4-.82.4-.46.55-.72.25-.55.37-.82.12-.59.23-.87.21-.55.29-.84.31-.55.36-.84-.14-.55-.24-.75a1 1 0 00-.51-.64zm-7.66 12.53a1.57 1.57 0 00.44-.65 1.34 1.34 0 00.22-.71 1.39 1.39 0 00-.23-1c-.23-.23-.6-.19-1-.13-.17 0-.38 0-.59.09l-.9.58a1.07 1.07 0 01-.12-.87c0-.46.07-.45.07-.91v-1.81c0-.45-.46-.69-.12-1s.74.11 1.38 0c.38-.07.59-.47.79-.77a1.9 1.9 0 00.42-1 1.37 1.37 0 00-.39-.87c-.2-.22-.44-.25-.83-.19-.63.12-.73.43-1.28.1s0-.48 0-1-.14-.5-.14-1v-1c0-.51.27-.49.27-1s-.22-.49-.22-1 0-.84-.32-1-.71 0-1.08.06a2.36 2.36 0 00-.74.23 1.79 1.79 0 00-.65.46c-.14.21 0 .5 0 .78 0 .49-.24.49-.24 1s.09.5.09 1 .12.49.12 1v1c0 .51.27.66-.06 1s-.59 0-1.12.12l-1.07.21a1.22 1.22 0 00-.82.61 1.92 1.92 0 00-.43 1 1.53 1.53 0 00.34.93.93.93 0 00.91.28c.54-.09.51-.23 1-.32s.68-.42 1.12-.11.12.52.12 1v1.87c0 .47-.12.47-.12.94s.08.46.08.93a2.64 2.64 0 01-.14.92c-.28.15-.56.24-.83.37s-.52.36-.8.49-.59.21-.87.33a1.78 1.78 0 00-.69.73c-.21.3-.53.59-.53.9a1.55 1.55 0 00.55 1 1.07 1.07 0 001 .3c.14 0 .25-.16.39-.22.3-.12.67-.08 1-.22s.58-.39.87-.53c.17.44 0 .48 0 1v.94c0 .47-.16.46-.16.93v.93c0 .47.1.46.1.92v.93c0 .47-.17.7-.57.77a3.37 3.37 0 01-.83-.1 1.58 1.58 0 00-.83.34 1.72 1.72 0 00-.56.67 1.86 1.86 0 00-.1.84 1.24 1.24 0 00.21.87 1 1 0 00.85.34c.24 0 .51-.11.81-.13s.55 0 .82-.06a6.34 6.34 0 00.9 0 4.17 4.17 0 00.78-.44 3 3 0 00.61-.63 2.68 2.68 0 00.56-.65 3.16 3.16 0 00.31-.83 6.06 6.06 0 00-.1-.89c0-.46.09-.46.09-.92s.09-.46.09-.92-.15-.45-.15-.91.07-.46.07-.92-.07-.45-.07-.91v-.91c0-.46.07-.46.07-.91a2.65 2.65 0 01.1-.89c.24-.15.35-.35.58-.5s.53-.22.76-.36.58-.37.81-.52zm17.34 2.95c-.27-.1-.51-.27-.78-.38s-.51-.26-.77-.38-.54-.2-.79-.33-.59-.12-.84-.26-.37-.51-.6-.66-.6-.14-.83-.3-.39-.45-.61-.63-.49-.37-.7-.56a1.8 1.8 0 01.83-.22c.41-.08.43 0 .84 0l.83-.13c.41-.07.38-.22.79-.29s.41-.09.81-.16.46.19.87.12.55-.45.74-.73.5-.59.5-.92a1.34 1.34 0 00-.47-.82.77.77 0 00-.79-.27c-.44.08-.46 0-.91.05s-.41.27-.85.35-.49-.16-.93-.08-.43.17-.87.24-.42.19-.86.27-.44.1-.88.18-.62.41-.94.09.06-.55.06-1.06v-1a.85.85 0 00-.51-.8 1.64 1.64 0 00-1-.24 2.51 2.51 0 00-.71.32 1.58 1.58 0 00-.53.53 1.2 1.2 0 00-.09.71c0 .51-.08.51-.08 1s.37.69.06 1.1-.52.11-.95.18-.42.1-.85.18-.45 0-.88 0-.41.15-.84.23-.45-.07-.87 0-.43 0-.86.11a1.28 1.28 0 00-.78.64 1.74 1.74 0 00-.34.95 1.3 1.3 0 00.39.79c.18.22.4.53.77.46s.44-.23.9-.32l.94-.16c.47-.08.45-.17.92-.25a2.49 2.49 0 01.94 0c-.17.23-.3.39-.48.62s-.33.47-.51.69-.35.45-.54.67-.5.32-.69.53-.38.42-.58.62-.33.48-.54.68l-.62.59c-.22.19-.4.41-.62.59s-.54.25-.76.43-.41.41-.64.58a1.78 1.78 0 00-.51.6 1.38 1.38 0 00-.11.76 1.13 1.13 0 00.28.9 1 1 0 00.94.27 2 2 0 00.94-.57c.24-.2.52-.36.76-.56s.59-.3.82-.51.4-.5.63-.72.36-.53.58-.75.51-.39.73-.62.46-.43.67-.67.28-.59.48-.83.46-.44.65-.69.38-.46.56-.72a2.22 2.22 0 01.13.88c0 .45-.08.44-.09.89s.06.44.05.88-.06.44-.07.89-.07.49-.07 1-.1.5-.1 1 .14.5.14 1a.92.92 0 00.43.88 1.65 1.65 0 001 .09 2.32 2.32 0 00.65-.36 1.61 1.61 0 00.54-.46c.14-.2.37-.4.37-.67 0-.49-.19-.49-.19-1s.14-.49.14-1 .06-.49.06-1-.12-.44-.16-.9a6.93 6.93 0 010-.91v-.91a2 2 0 01.07-.87c.19.21.2.47.42.68l.65.6c.23.19.49.34.72.53s.52.3.76.46.54.24.79.4.39.51.65.65.61.12.87.24.5.35.77.45a1.52 1.52 0 00.87 0 1.87 1.87 0 00.83-.24c.23-.18.2-.57.33-.81s.39-.47.39-.74-.21-.45-.37-.67a1.11 1.11 0 00-.5-.42zm28.64-9.4a1.55 1.55 0 00-.78-.08 1.89 1.89 0 00-.81.27 2.65 2.65 0 00-.62.63c-.18.26-.4.48-.57.72s-.27.59-.46.82-.49.39-.69.61-.44.43-.65.64-.44.43-.66.62-.37.53-.61.71-.49.38-.75.54a9.18 9.18 0 01-.89.28c-.28.14-.53.29-.81.4s-.57.22-.86.3a7.11 7.11 0 01-.89.2 4.75 4.75 0 01-.93.22 2.17 2.17 0 01-.92-.3c-.26-.13-.38-.43-.57-.71a2.89 2.89 0 01-.53-.78 8.58 8.58 0 01-.06-.94 9.27 9.27 0 01-.26-.92c0-.3.06-.61.06-1v-2.74c0-.31.09-.6.1-.91s0-.6 0-.91-.09-.61-.08-.92.13-.6.15-.91 0-.61 0-.91V40.8c0-.3.2-.6.21-.9s-.09-.61-.07-.91 0-.61 0-.91v-.91c0-.3.06-.6.08-.9s.12-.61.14-.91a1.52 1.52 0 00-.07-.87 1.38 1.38 0 00-.74-.51 2.17 2.17 0 00-.87.06 2.25 2.25 0 00-.81.32 2.09 2.09 0 00-.67.58 2 2 0 00-.12.87c0 .3-.07.61-.09.91s-.1.6-.12.91-.12.61-.14.92.08.61.06.92-.11.61-.13.92 0 .61 0 .92.07.62.06.93-.05.61-.07.92-.15.61-.16.91.12.62.11.93-.13.61-.14.91-.06.61-.07.91 0 .62 0 .92.12.62.12.92-.06.61-.07.91.06.62.06.92v1.81c0 .29 0 .61.07.89s0 .63.07.91.14.61.24.88.44.47.59.71a3.88 3.88 0 00.49.73 4.09 4.09 0 00.63.62 4.55 4.55 0 00.78.43 4.86 4.86 0 00.87.25 5.16 5.16 0 00.9.1 7.43 7.43 0 00.9-.12l.9-.12c.29-.05.57-.13.86-.2s.58-.14.86-.23.57-.16.85-.27.58-.14.85-.27a8.78 8.78 0 00.76-.48c.26-.14.48-.34.74-.51s.56-.21.81-.39.5-.33.73-.52.44-.4.66-.61.31-.53.52-.75.41-.41.62-.64.44-.39.64-.62.34-.48.52-.72.38-.45.56-.7.4-.44.57-.69a2 2 0 00.39-1.14 1.46 1.46 0 00-.14-.83c-.05-.17-.38-.21-.65-.31zm28.13-18.8a1.74 1.74 0 00-.82.08c-.28.08-.59.06-.87.14s-.53.29-.81.36-.6 0-.89.1-.55.22-.84.3-.59.05-.88.13-.52.33-.8.41-.6 0-.89.12-.57.13-.86.21-.54.26-.83.35l-.85.24c-.28.08-.57.13-.86.22l-.85.25c-.28.08-.59.08-.87.17s-.55.22-.83.3-.55.21-.83.3-.6.06-.88.14l-.84.26c-.28.08-.54.26-.82.34s-.61 0-.88.09-.56.18-.84.27-.57.15-.85.24-.55.23-.82.32-.58.12-.86.21a2.31 2.31 0 00-.74.48 1.79 1.79 0 00-.49.68 1.77 1.77 0 00-.15.81 1.46 1.46 0 00.2.84 1.19 1.19 0 00.7.56 1.87 1.87 0 00.94 0c.29-.1.56-.24.85-.34s.61-.12.9-.22.55-.3.84-.4.57-.24.87-.33.63-.05.92-.14.59-.17.88-.27l.87-.3c.29-.09.55-.3.83-.39l.88-.29.87-.29c.29-.09.57-.23.86-.32s.61-.1.9-.19.62-.08.9-.17.56-.31.84-.4c0 0 .07.07 0 .11-.22.21-.39.45-.59.66s-.51.33-.69.55a8.53 8.53 0 00-.46.76c-.18.23-.34.47-.5.71s-.31.5-.46.74-.31.49-.44.75-.34.48-.46.74-.34.5-.44.77-.2.56-.28.83a8.79 8.79 0 00-.15.87c-.07.29-.12.57-.17.86s-.15.57-.18.86.1.59.1.87-.16.63-.13.93a8.65 8.65 0 00.14.91 6.4 6.4 0 00.39.84 5.62 5.62 0 00.39.82 6.41 6.41 0 00.31.87 7.88 7.88 0 00.55.74 8.11 8.11 0 00.66.65 8.6 8.6 0 00.78.49c.25.16.51.33.78.47s.55.26.85.37a8 8 0 00.87.28 8.93 8.93 0 00.92.1c.3 0 .6.08.91.1s.6-.11.91-.12.62.16.93.13a2.24 2.24 0 00.94-.42 2.18 2.18 0 00.66-.76 2.28 2.28 0 00.35-1 1.73 1.73 0 00-.23-.79 1.42 1.42 0 00-.58-.61c-.22-.1-.52 0-.83 0a8.63 8.63 0 01-.91-.16c-.31 0-.62.11-.9.08a7.86 7.86 0 01-.89-.15 5.41 5.41 0 01-.86-.27 5.29 5.29 0 01-.84-.35 4.36 4.36 0 01-.68-.6 3.85 3.85 0 01-.52-.73 3.56 3.56 0 01-.31-.83 3.81 3.81 0 01-.25-.85 6.46 6.46 0 010-.89c0-.28-.07-.57-.05-.86a8.46 8.46 0 01.12-.86c0-.28 0-.58.1-.87s.17-.55.27-.83.17-.56.3-.83.3-.49.45-.75.24-.53.41-.78.43-.4.61-.64.38-.43.58-.65.3-.51.52-.72.49-.32.71-.52.41-.41.64-.59.44-.38.68-.56.5-.37.75-.53.56-.26.82-.41.56-.23.83-.35a8.81 8.81 0 01.81-.41 1.89 1.89 0 00.63-.47c.21-.18.5-.31.61-.54a2.07 2.07 0 00.12-.81 1.59 1.59 0 00-.19-.85 1.28 1.28 0 00-.71-.37zm34.1 5.62c-.11-.27-.39-.48-.52-.75s-.18-.58-.32-.85-.3-.52-.45-.77-.36-.49-.53-.74-.4-.44-.58-.68-.19-.61-.37-.85-.52-.35-.71-.57-.37-.48-.58-.69-.46-.38-.68-.57-.41-.45-.64-.63a1.74 1.74 0 00-.62-.23 1.63 1.63 0 00-.66-.14c-.28.05-.48.3-.72.47s-.58.25-.73.49a1.59 1.59 0 00-.13.86 1.28 1.28 0 00.37 1.07c.21.19.5.31.71.52s.31.5.51.72.43.4.62.62.41.42.59.65.4.43.56.67.36.47.52.72.31.5.45.75.3.51.43.77.1.61.22.87.31.5.42.77a1.17 1.17 0 001.57.85 2.22 2.22 0 00.85-.3 2.12 2.12 0 00.63-.67 1.91 1.91 0 00.25-.89 3.3 3.3 0 00-.2-.61c-.1-.27-.14-.58-.26-.86zm-11.92 4.69a1.33 1.33 0 00-.64-.48 1.52 1.52 0 00-1.43.35c-.19.13-.52.17-.66.39s-.06.5-.12.77-.22.63-.3.89a8.78 8.78 0 01-.29.9 2.66 2.66 0 01-.57.75 1.46 1.46 0 01-.78.53 1.25 1.25 0 01-.83-.35 2.4 2.4 0 01-.72-.57c-.15-.22-.13-.58-.27-.89a7.18 7.18 0 01-.44-.79c-.09-.27 0-.6-.1-.92s-.25-.54-.31-.86 0-.59 0-.91-.15-.57-.19-.88-.13-.58-.16-.89-.11-.59-.14-.9-.07-.59-.09-.91 0-.59 0-.9v-.91c0-.3.18-.6.18-.91s-.08-.6-.08-.9.07-.62.08-.9-.05-.61 0-.9.1-.58.12-.89a1.67 1.67 0 00-.18-.88 1.43 1.43 0 00-.73-.55 2.21 2.21 0 00-.88.05 2.37 2.37 0 00-.85.25 2.19 2.19 0 00-.62.63 1.94 1.94 0 00-.17.86c0 .3 0 .63-.06 1s0 .63 0 1v1c0 .36-.09.6-.09.9s-.1.6-.09.89.14.6.16.89.05.6.07.89-.11.61-.09.9.21.58.23.87-.07.61 0 .9.09.59.13.88.12.59.17.88.19.57.25.86 0 .61.09.89.28.55.36.82.23.56.33.82.27.54.39.79a8 8 0 00.32.83 6.24 6.24 0 00.45.77 5.61 5.61 0 00.62.66 4.51 4.51 0 00.74.52 4 4 0 00.85.32 4.63 4.63 0 00.91 0 5.22 5.22 0 00.89 0 4.81 4.81 0 00.85-.36 3.91 3.91 0 00.83-.39 4.91 4.91 0 00.71-.6 5.2 5.2 0 00.67-.66c.18-.23.18-.6.34-.88a8.84 8.84 0 00.43-.81c.13-.27.41-.48.53-.79s.22-.57.32-.87.18-.59.26-.9-.1-.36-.1-.54a1.39 1.39 0 00-.3-.76zm41.01-4.16c-.29-.13-.53-.36-.82-.48l-.88-.35c-.3-.1-.63-.1-.93-.19s-.58-.27-.88-.35-.64-.06-.94-.13-.61-.16-.92-.22-.6-.22-.91-.26-.65 0-1 0c0-.31-.06-.64-.09-1s-.09-.63-.11-1 0-.64 0-1v-.92c.32-.07.54-.31.86-.39s.64-.1.95-.18.64-.11.95-.19.6-.26.91-.35.69.05 1 0 .57-.37.87-.46a1.79 1.79 0 00.67-.4 1.83 1.83 0 00.55-.56 1.75 1.75 0 00.14-.77c0-.3.07-.63-.08-.85a1.29 1.29 0 00-.76-.41 2.1 2.1 0 00-.81.18c-.3.08-.64 0-.95.08s-.57.26-.87.35-.62.11-.93.19l-.91.22c-.3.08-.58.26-.88.33s-.64.1-.95.17c0-.34-.1-.7-.11-1s.1-.68.09-1 0-.61 0-1c.32-.06.56-.06.88-.12s.6-.22.9-.28.6-.25.91-.31.65 0 .95-.06.65 0 1 0 .59-.3.9-.35.66.12 1 .08a2.08 2.08 0 00.82-.33 2 2 0 00.56-.68 2 2 0 00.17-.86 1.68 1.68 0 00-.22-.77c-.12-.22-.39-.27-.64-.37a1.29 1.29 0 00-.72-.23c-.3.05-.62.05-.94.1s-.62.17-.94.22-.64 0-1 0-.6.24-.92.3l-.94.16c-.31.05-.62.14-.94.2l-1 .17c0-.22-.05-.48-.05-.71s.12-.45.12-.68v-.78c0-.39-.17-.38-.17-.77s0-.81-.35-1a1.8 1.8 0 00-1.1 0 2.29 2.29 0 00-.83.12 1.8 1.8 0 00-.54.65 1.43 1.43 0 00-.39.76c0 .38.06.38.06.75s.07.38.07.75.07.49.07.74v.8l-.92.19-.78.2c-.29.06-.62-.1-.9 0s-.57.2-.85.26-.59.06-.87.12-.56.21-.84.27-.59.07-.87.13-.58.11-.86.17a2.15 2.15 0 00-.81.36 1.85 1.85 0 00-.46.74 2.14 2.14 0 00-.27.82c0 .27.28.47.4.69s.19.5.44.6a1.47 1.47 0 00.8.09c.27-.06.53-.27.82-.33l.86-.16.86-.2c.28-.06.59 0 .88-.08s.56-.16.85-.22.6 0 .89-.07l.86-.19c.29-.06.55-.22.84-.27v3c-.26.05-.4.23-.66.28s-.53 0-.79.06-.55.18-.82.22-.56.12-.83.16l-.84.09h-.84l-.84.06a2 2 0 00-.91.2 2.22 2.22 0 00-.6.73 2 2 0 00-.08.91 1.47 1.47 0 001.33 1.36c.26 0 .56-.1.9-.14s.6.06.92 0 .58-.2.89-.25.61 0 .92-.05.58-.2.89-.25l.82-.13c.28-.05.61-.16.89-.21 0 .34-.14.75-.12 1.1s.17.68.2 1 .12.73.15 1.08h-1.64c-.26 0-.5.16-.77.21a8.66 8.66 0 00-.91.13 7.33 7.33 0 00-.86.34c-.29.1-.62.1-.89.22a7.25 7.25 0 00-.75.55 8.36 8.36 0 00-.85.38c-.25.19-.34.54-.54.76a4.44 4.44 0 00-.52.73 4.4 4.4 0 00-.48.76 4.32 4.32 0 00-.21.86c-.06.3-.29.58-.29.89a4.84 4.84 0 00.24.87c.07.3 0 .65.12.9a3.27 3.27 0 00.61.68 3.43 3.43 0 00.7.54 4.22 4.22 0 00.82.31 5.57 5.57 0 00.87.18c.28 0 .56.27.87.27a7.08 7.08 0 00.91 0c.28 0 .58-.14.88-.2a8.1 8.1 0 00.87-.3c.3-.08.66 0 .94-.07s.51-.39.78-.52a7.67 7.67 0 00.8-.43 8.88 8.88 0 00.81-.44 6.53 6.53 0 00.59-.71 5.87 5.87 0 00.65-.67 5.33 5.33 0 00.39-.84 5.37 5.37 0 00.13-.92 5.25 5.25 0 00.21-.91c0-.05-.1-.14-.1-.2.31.06.6.22.9.3s.65 0 1 .11.54.35.84.45.68 0 1 .13.58.25.87.38.59.25.87.39.63.44.95.38a2.13 2.13 0 00.89-.44 2.48 2.48 0 00.55-.8 2 2 0 00.22-.91 1.49 1.49 0 00-.22-.87 1.8 1.8 0 00-.88-.39zm-10.27 2.51c-.1.26-.44.38-.64.6a2.63 2.63 0 01-.65.51 3 3 0 01-.75.34 4.79 4.79 0 01-.81.24 7.13 7.13 0 01-.8.14c-.31 0-.59.16-.82.12a1.51 1.51 0 01-.67-.48.82.82 0 01-.24-.69 1.36 1.36 0 01.22-.91 2.35 2.35 0 01.81-.5 3.87 3.87 0 01.84-.48 6.85 6.85 0 011-.22c.29 0 .58-.13.86-.16l.87-.06h.92c0 .2-.1.46-.1.7a2.31 2.31 0 01-.04.85zm45.7-24.08c-.12-.24-.25-.54-.51-.64a1.53 1.53 0 00-.83 0c-.28 0-.55.11-.84.16s-.54.18-.83.23l-.85.15c-.28.05-.55.17-.83.22s-.6-.09-.89 0-.52.29-.81.35-.57.06-.86.12-.58 0-.87.07-.56.15-.84.21l-.8.17c0-.28.06-.52.06-.82s-.09-.57-.09-.87.09-.57.09-.87-.16-.58-.16-.88c0-.46-.07-.88-.36-1.06s-.74-.05-1.13 0-.64-.05-.88.11-.27.53-.42.77a1.53 1.53 0 00-.35.75c0 .31.08.61.08.9s.07.6.07.89v.9c0 .29-.08.62-.07.91-.29.06-.62 0-.91.12s-.56.24-.86.31-.6 0-.9.1-.56.19-.86.26-.6 0-.89.08-.54.33-.83.39-.6.08-.89.15-.6.06-.88.13-.58.14-.87.21-.61 0-.9.08-.56.21-.85.27l-.87.2-.87.2a1.94 1.94 0 00-.72.44 1.77 1.77 0 00-.58.61 1.86 1.86 0 00-.14.84 2 2 0 00.06.86c.14.25.48.3.75.41a1.25 1.25 0 00.78.09c.28-.07.58-.07.87-.14s.55-.2.84-.27.56-.19.85-.26.6 0 .89-.08.58-.09.87-.15.56-.22.85-.28.55-.22.84-.28.57-.18.86-.25.63.08.92 0l.86-.23c.28-.06.58-.08.87-.15l.87-.2.78-.17c0 .26 0 .42.05.68s.08.51.09.77 0 .55 0 .81a6.78 6.78 0 00-.9-.16 5.73 5.73 0 00-.87.16 5.8 5.8 0 00-.8.37 5.08 5.08 0 00-.79.34c-.26.14-.61.13-.84.31A4.3 4.3 0 00281 23.1a5.41 5.41 0 00-.42.79 7 7 0 00-.24.85 7.23 7.23 0 00-.19.86 8.33 8.33 0 00-.05.88 7.52 7.52 0 00.18.85 6.2 6.2 0 00.18.82 4.91 4.91 0 00.23.82 3.73 3.73 0 00.4.77 3.37 3.37 0 00.58.67c.23.17.59.12.86.23a4.25 4.25 0 00.82.16 4.63 4.63 0 00.84.17 6.92 6.92 0 00.85-.15 4.77 4.77 0 00.8-.13 3.29 3.29 0 00.71-.41c.18-.11.37-.2.53-.32a6.18 6.18 0 01-.31.64 8.53 8.53 0 01-.41.87 9.26 9.26 0 01-.49.85c-.2.24-.51.4-.74.63s-.55.34-.8.55-.37.57-.64.76-.65.17-.93.34a2.88 2.88 0 00-.83.73 1.93 1.93 0 00-.36 1.07 1.63 1.63 0 00.27.82 1.4 1.4 0 00.68.51c.23.1.5 0 .8-.1a2.18 2.18 0 00.83-.15c.25-.17.53-.3.77-.46s.43-.42.66-.6.55-.28.77-.47.35-.51.56-.71.42-.43.61-.64.37-.47.55-.7.36-.47.52-.71.3-.51.45-.77.4-.46.53-.72.28-.53.39-.81.07-.6.15-.89a8.3 8.3 0 00.14-.87c.07-.29.3-.55.34-.84s-.06-.6 0-.9.17-.59.17-.89a9.79 9.79 0 00-.18-1 7.11 7.11 0 00-.17-1 6.76 6.76 0 00-.21-1 5.52 5.52 0 00-.37-.89c0-.28-.22-.51-.23-.79s-.1-.56-.11-.84.05-.56 0-.84-.1-.56-.11-.84.06-.56.05-.84 0-.56 0-.84c.29-.06.58-.09.86-.14s.54-.27.83-.33l.85-.17c.28-.06.58-.05.86-.11s.58-.09.86-.14.56-.17.84-.23l.85-.17.86-.16c.28-.06.57-.1.85-.15s.61.06.89 0a1.6 1.6 0 00.71-.45 2 2 0 00.58-.62 2.11 2.11 0 00.06-.83 1.7 1.7 0 00-.18-.64zm-12.33 12.15a2.92 2.92 0 01-.19.76c-.07.28 0 .6-.12.8a2.1 2.1 0 01-.55.63 2.35 2.35 0 01-.81.19 1.89 1.89 0 01-.82 0 1.83 1.83 0 01-.64-.51 2 2 0 01-.45-.67 2.69 2.69 0 010-.81 3.18 3.18 0 01.1-.77 2.62 2.62 0 01.25-.73 1.92 1.92 0 01.55-.55 1.86 1.86 0 01.71-.3 2.19 2.19 0 01.85-.1 1.7 1.7 0 01.75.45 1.92 1.92 0 01.35.78 2.83 2.83 0 01.02.83zm24.65-14.04c0 .3.1.59.12.89s.1.59.11.88.06.6.07.9-.08.6-.07.9.09.59.11.89.16.59.18.89v.9c0 .29-.14.6-.13.9s0 .6 0 .9.05.59.06.89 0 .6 0 .9.08.6.09.9 0 .6 0 .9a1.09 1.09 0 00.39.87c.22.17.54.12.92 0a1.54 1.54 0 00.9-.47 1.36 1.36 0 00.44-.92c0-.31.09-.62.1-.92s.11-.61.12-.92-.16-.62-.15-.92 0-.61 0-.91.13-.61.14-.91 0-.62 0-.92.1-.61.12-.91 0-.61 0-.91.12-.6.14-.9 0-.61 0-.92v-.91c0-.3.15-.6.17-.9s.1-.6.12-.9-.15-.62-.12-.92.22-.6.24-.9-.17-.17-.17-.33a2.22 2.22 0 00-.06-1 1.52 1.52 0 00-.85-.59 2.18 2.18 0 00-1-.1 3.34 3.34 0 00-.85.24c-.26.14-.37.47-.57.68a2.11 2.11 0 00-.45.69 2.23 2.23 0 00-.14.83c0 .16-.12.15-.13.31s.06.61.08.9.05.62.07.92zm3.59 14.82a2 2 0 00-.78-.31 2.11 2.11 0 00-.81.07 2.38 2.38 0 00-.88.22 2.93 2.93 0 00-.74.57 3.27 3.27 0 00-.3.88c-.1.29-.33.55-.33.86a2 2 0 00.31.77c.11.26.12.59.32.76a2.89 2.89 0 001.62.36 2.51 2.51 0 00.9-.29c.27-.15.39-.5.59-.73a2.64 2.64 0 00.48-.76 2.33 2.33 0 00.16-.88 2.07 2.07 0 00-.12-.8 1.85 1.85 0 00-.42-.72z"/><path class="cls-1" d="M28.1 177.23c-.22-.45-.16-.48-.39-.93l-.44-.9c-.22-.44-.26-.42-.48-.87s-.14-.5-.36-.94-.24-.45-.46-.9-.31-.4-.53-.85-.11-.5-.33-1-.28-.42-.5-.87-.28-.43-.5-.88a9.46 9.46 0 00-.4-.92 1.56 1.56 0 01-.36-.93 5.86 5.86 0 00.89-.5 6.93 6.93 0 00.89-.6 9 9 0 00.75-.77c.24-.28.56-.49.76-.78a7.36 7.36 0 00.41-1 8.07 8.07 0 00.51-1 8 8 0 00.14-1.08 7.81 7.81 0 00.05-1.08c0-.07.1-.07.1-.13a6.55 6.55 0 00-.47-2.21 5.51 5.51 0 00-.44-1 6.74 6.74 0 00-.62-.95 6.12 6.12 0 00-.81-.8 6.66 6.66 0 00-.87-.48 5.87 5.87 0 00-.86-.45 6 6 0 00-.93-.32 7.84 7.84 0 00-.94-.29 8.37 8.37 0 00-1 0 7 7 0 00-1 .2c-.49.08-.51 0-1 .09s-.47.22-1 .31-.5 0-1 .11-.49.12-1 .21-.49.11-1 .2-.51 0-1 .08l-1 .19s-.07.07-.11.09a.58.58 0 00-.19 0s-.13-.07-.17-.05-.09.11-.14.15 0 .11-.07.13l-.15.11h-.17c-.03 0 0 .15-.05.2s-.09 0-.11.08-.12.09-.14.15.08.13.06.17-.09.11-.11.18 0 .07-.05.11a2 2 0 00-.09.33c0 .52.1.52.1 1s-.07.53-.07 1v1c0 .48.06.52.06 1v2c0 .48-.06.52-.06 1v2c0 .48-.06.52-.06 1s.09.52.09 1-.11.53-.11 1.05v3.05c0 .48-.09.53-.09 1.05s.12.52.12 1v1.05c0 .52-.08.53-.08 1v2.11a1.73 1.73 0 00.22.87 1.76 1.76 0 00.62.65 1.76 1.76 0 00.89.18 1.69 1.69 0 00.86-.22 1.63 1.63 0 00.62-.63 1.71 1.71 0 00.3-.85v-2c0-.48-.09-.52-.09-1s.13-.51.13-1v-1c0-.48-.06-.52-.06-1s.1-.52.1-1-.09-.52-.09-1 .07-.52.07-1.05-.37-.65 0-1 .49 0 .95 0 .46-.08.93-.12.46-.11.93-.15.47 0 .94-.06.52-.31.92-.07.2.43.42.87.2.46.42.91.23.43.45.88.31.41.53.85.16.48.38.92.21.45.43.9.19.47.41.91.3.41.52.85l.44.89c.22.45.15.49.37.94s.2.46.42.9.29.42.51.87.16.48.38.93a1.75 1.75 0 00.75.62 1.52 1.52 0 001.64.11 1.63 1.63 0 00.7-.56 2.11 2.11 0 00.17-1.77c-.06-.1-.18-.04-.4-.49zm-5-14a3.43 3.43 0 01-.75.72 5.47 5.47 0 01-1 .31 5.1 5.1 0 01-1 .22c-.52.06-.52.08-1 .13s-.54-.05-1.07 0-.52.07-1.05.12a3.36 3.36 0 00-1.05.13c-.52.16-.63.4-1 0s-.07-.49-.07-1v-2.18c0-.55.12-.55.12-1.09s-.23-.59-.23-1.1-.23-.63.13-1.05.48-.16 1-.25.55-.13 1.09-.22.57 0 1.11-.11.55-.13 1.1-.23.54-.13 1.09-.22a3.36 3.36 0 01.95 0 3.12 3.12 0 01.9.27 2.89 2.89 0 01.81.48 3.61 3.61 0 01.66.56 3.24 3.24 0 01.37.8 3.1 3.1 0 01.11.87c0 .06-.11.06-.11.13a4.29 4.29 0 01-.13 1 4.12 4.12 0 01-.3 1 3.53 3.53 0 01-.68.72zm16.81-9.15c.5-.08.48-.22 1-.31s.5 0 1-.12.51 0 1-.13l1-.19c.5-.08.5-.09 1-.18s.49-.17 1-.26.5 0 1-.13l1-.18c.5-.09.52 0 1-.07s.49-.15 1-.24.5-.07 1-.15a1.7 1.7 0 00.76-.49c.24-.2.54-.37.65-.66a1.85 1.85 0 00.07-.94 1.91 1.91 0 00-2.1-1.42c-.51.09-.5.13-1 .22s-.53 0-1 .09-.5.18-1 .27-.53.05-1 .15-.52.06-1 .15-.52.13-1 .22-.5.16-1 .25-.52.06-1 .15-.52 0-1 .14-.51.17-1 .26-.54 0-1.06.06-.51.16-1 .25l-1 .19s-.16-.06-.23 0 0 .15-.09.17-.09.07-.14.1l-.14.07-.13.08s-.12 0-.16.08-.11 0-.15.09 0 .14 0 .19-.21 0-.24.06 0 .14 0 .19v.16c0 .05-.09.1-.1.16a.68.68 0 000 .15 1.17 1.17 0 00-.06.2v3.05c0 .48.12.53.12 1.05s-.1.52-.1 1 .07.52.07 1.05-.14.52-.14 1 .09.52.09 1.05-.06.52-.06 1v5.05c0 .52.11.52.11 1s-.11.53-.11 1.05.06.52.06 1v3.1c0 .53-.05.52-.05 1v1.05c0 .53.11.52.11 1s-.09.53-.09 1.05v1.06a1.84 1.84 0 00.26.89 1.77 1.77 0 00.68.62 1.66 1.66 0 00.87.17c.51 0 .51.15 1 .15s.52-.13 1-.13.52.12 1 .12.52-.08 1-.08.52-.08 1-.08.52.14 1 .14h2c.49 0 .51-.09 1-.09s.51.1 1 .1.52-.06 1-.06.52.12 1 .12h1a1.79 1.79 0 00.87-.31 1.66 1.66 0 00.61-.65 1.43 1.43 0 000-1.7 1.67 1.67 0 00-.61-.63 1.77 1.77 0 00-.85-.26c-.53 0-.53-.07-1.06-.07s-.53.05-1.06.05-.52.08-1.05.08h-1.12c-.53 0-.53-.13-1.06-.13h-1.06c-.53 0-.53.12-1.06.12H42.1c-.53 0-.53.36-1.1.36s-.53.1-1.07.1-.71.39-1.1 0 0-.54 0-1v-1c0-.51.12-.5.12-1v-2c0-.51-.08-.5-.08-1v-2c0-.51.1-.5.1-1v-1c0-.5-.39-.66-.06-1s.54 0 1.05-.07.51 0 1 0 .49-.14 1-.19.52.07 1 0 .49-.15 1-.2.5-.09 1-.14l1-.11c.51-.05.51 0 1-.08l1-.1c.51-.05.52.08 1 0a1.89 1.89 0 00.85-.39 1.74 1.74 0 00.5-.74 1.59 1.59 0 00.18-.86 1.63 1.63 0 00-.36-.8 1.78 1.78 0 00-.62-.63 1.86 1.86 0 00-.9-.21l-1 .08c-.49.05-.49 0-1 .08s-.48.19-1 .24-.49 0-1 .06-.49 0-1 .06-.48.15-1 .2-.51-.14-1-.09-.47.18-1 .23l-1 .09c-.49.05-.57.33-.93 0s-.07-.46-.07-1-.08-.53-.08-1.06.12-.53.12-1-.11-.53-.11-1.06v-1.06c0-.53.14-.53.14-1.05v-1.07c0-.53-.32-.64 0-1.05s.74-.01 1.23-.1zm29.86.63a1.87 1.87 0 00.74.56 2.23 2.23 0 001.73 0 1.7 1.7 0 00.68-.62 1.74 1.74 0 00.2-.89 8.08 8.08 0 00-.09-1 7.68 7.68 0 00-.26-1 8 8 0 00-.19-1 7.78 7.78 0 00-.42-.93 12.11 12.11 0 00-1.25-1.61c-.24-.23-.51-.45-.77-.66a9.59 9.59 0 00-.9-.47 8.4 8.4 0 00-.87-.53 7.9 7.9 0 00-1-.21 7.89 7.89 0 00-1-.36 8.8 8.8 0 00-1 .09 7.19 7.19 0 00-1-.07 7.83 7.83 0 00-1 .26 7.29 7.29 0 00-1 .29 7.08 7.08 0 00-.92.44 6.61 6.61 0 00-.82.6 5.6 5.6 0 00-1.41 1.4 7.08 7.08 0 00-.51.89 7 7 0 00-.41.92 7.53 7.53 0 00-.31 1 6.42 6.42 0 00-.26 1 6.77 6.77 0 00-.06 1c0 .5.07.5.07 1v2c0 .5.09.5.09 1s-.12.5-.12 1v1c0 .5.15.5.15 1v1c0 .5-.13.5-.13 1s.13.51.13 1v4c0 .5-.11.51-.11 1s.05.5.05 1 .07.5.07 1v1c0 .5-.06.51-.06 1a7 7 0 000 1 6.44 6.44 0 00.37 1 7.73 7.73 0 00.28 1 7.37 7.37 0 00.48.87 12.56 12.56 0 001.13 1.66 10.12 10.12 0 001.64 1.16 7.5 7.5 0 00.88.48 7.68 7.68 0 001 .26 7.83 7.83 0 001 .31 8.44 8.44 0 001 0 6.56 6.56 0 001-.14 6.52 6.52 0 001-.09 9.58 9.58 0 00.93-.39 9.46 9.46 0 00.92-.4 7.21 7.21 0 00.84-.56 9.51 9.51 0 00.71-.71 8.26 8.26 0 00.76-.67 7.73 7.73 0 00.51-.88 7.65 7.65 0 00.5-.88c.12-.31.26-.63.35-1a6.91 6.91 0 000-1 6.69 6.69 0 00.14-1 1.6 1.6 0 00-.3-.82 1.71 1.71 0 00-.56-.68 1.68 1.68 0 00-.87-.17 1.77 1.77 0 00-.9.11 1.82 1.82 0 00-.66.66 1.78 1.78 0 00-.09.9 4.42 4.42 0 01-.29 1.08 4.26 4.26 0 01-.4 1 4.36 4.36 0 01-.65.88 4.45 4.45 0 01-.85.71 4.61 4.61 0 01-1 .34 4.27 4.27 0 01-1.07.17 3.94 3.94 0 01-1.09-.16 3.62 3.62 0 01-1-.45 4 4 0 01-.92-.6 3.79 3.79 0 01-.62-.9 3.85 3.85 0 01-.47-1 4 4 0 01-.06-1.1v-1c0-.5-.09-.5-.09-1v-1c0-.5.15-.5.15-1v-1c0-.5-.07-.5-.07-1s-.09-.5-.09-1 .17-.5.17-1-.17-.5-.17-1 .18-.5.18-1-.07-.5-.07-1v-1c0-.49-.07-.5-.07-1s.18-.5.18-1-.17-.5-.17-1 .13-.5.13-1-.12-.5-.12-1 .1-.5.1-1v-1a4 4 0 01.09-1.1 4.1 4.1 0 01.41-1 4.17 4.17 0 01.79-.78 4.37 4.37 0 01.8-.75 4 4 0 011-.33 3.9 3.9 0 011.08-.21 4.1 4.1 0 011.11.07 4.19 4.19 0 011 .5 4.43 4.43 0 01.91.62 4.13 4.13 0 01.62.92 3.66 3.66 0 01.47 1 4 4 0 01.17 1.1 1.86 1.86 0 00-.19.87zm27.03-4.42a7.14 7.14 0 00-.14-1 9.71 9.71 0 00-.35-.93c-.12-.3-.29-.59-.44-.89s-.22-.63-.4-.92a9.32 9.32 0 00-.66-.75c-.21-.26-.39-.53-.63-.78s-.37-.57-.63-.79-.6-.34-.91-.54a10.35 10.35 0 00-.88-.59c-.29-.15-.67-.16-1-.29a7.75 7.75 0 00-1-.45 9.18 9.18 0 00-1.06 0 8.5 8.5 0 00-1-.11 9.56 9.56 0 00-1 .05c-.33 0-.68.07-1 .13-.55.1-.53.19-1.08.29s-.58-.08-1.13 0-.53.21-1.08.31l-1.1.19a1.63 1.63 0 00-1 .6 1.58 1.58 0 00-.39 1.08v1c0 .49-.11.52-.11 1s.07.51.07 1v2c0 .49-.09.52-.09 1s.1.52.1 1-.14.51-.14 1v1c0 .48.08.52.08 1v1c0 .48-.1.52-.1 1s-.1.51-.1 1v1c0 .51.11.51.11 1s-.08.51-.08 1v1c0 .52.18.52.18 1s-.16.52-.16 1v1c0 .49-.06.52-.06 1v1c0 .49.15.52.15 1v2c0 .49-.16.51-.16 1v2c0 .48-.06.52-.06 1v3c0 .48.11.52.11 1a1.59 1.59 0 00.22.83 1.69 1.69 0 00.57.67 1.67 1.67 0 00.87.14 1.71 1.71 0 00.88-.12 2 2 0 00.65-.64 1.87 1.87 0 00.2-.88c0-.5-.08-.5-.08-1v-2c0-.5.05-.5.05-1v-2c0-.5.06-.5.06-1s-.13-.5-.13-1v-1c0-.5.12-.5.12-1s-.17-.5-.17-1v-1c0-.5.11-.49.11-1v-3c0-.5-.42-.62-.08-1s.49-.07 1-.12.5-.11 1-.16.51-.07 1-.12.57-.25 1 0 .28.43.45.93.11.52.29 1 .25.47.43 1 0 .55.2 1.05.21.48.38 1 .13.52.3 1 .2.49.37 1 .24.47.41 1 .09.53.26 1 .13.52.3 1 .36.44.53.94.06.54.23 1 .29.46.46 1 0 .55.2 1 .24.48.42 1 .09.52.26 1 .29.47.47 1 .08.53.26 1a1.73 1.73 0 00.66.86 1.78 1.78 0 001 .34c.19 0 .36-.15.55-.22a1.74 1.74 0 00.77-.42 1.69 1.69 0 00.39-.82 1.73 1.73 0 000-.9c-.17-.48-.16-.49-.33-1s-.14-.5-.31-1-.25-.46-.42-.94-.11-.51-.28-1-.22-.47-.39-.95-.11-.51-.28-1-.22-.47-.38-.95-.12-.5-.29-1l-.34-1c-.16-.49-.08-.52-.24-1s-.27-.46-.44-.94-.28-.45-.45-.94-.16-.49-.33-1-.14-.49-.31-1-.15-.49-.32-1l-.34-1c-.17-.48 0-.53-.22-1s-.31-.43-.31-.95c.32-.12.52-.3.82-.44s.66-.21 1-.38a9.85 9.85 0 00.77-.68 6.93 6.93 0 00.85-.56 8.35 8.35 0 00.63-.81 8.22 8.22 0 00.6-.82 8.39 8.39 0 00.48-.89c.14-.3.2-.64.32-1s.2-.63.28-1 .07-.66.12-1 .23-.65.25-1 0-.68 0-1a6 6 0 00.14.28zm-3.42 2c0 .35 0 .69-.11 1a7.19 7.19 0 01-.21 1 5.85 5.85 0 01-.43.95 5.51 5.51 0 01-.69.76 4.94 4.94 0 01-.82.6 5.51 5.51 0 01-.85.52 7.78 7.78 0 01-.91.47 9.51 9.51 0 01-1 .16 7.69 7.69 0 01-1 .21c-.51.05-.5.12-1 .17s-.52 0-1 0-.51.08-1 .13-.7.46-1.09.12.08-.56.08-1.06-.1-.5-.1-1v-1c0-.5.15-.5.15-1s-.11-.5-.11-1 .07-.5.07-1-.13-.5-.13-1 .16-.5.16-1-.15-.5-.15-1v-2c0-.5-.31-.63 0-1s.48-.19 1-.27.52.08 1 0 .47-.2 1-.28a6.87 6.87 0 011.07-.12 6.47 6.47 0 011.08 0 6.23 6.23 0 011.06.22 5.09 5.09 0 011 .4 5.41 5.41 0 01.83.7 5.93 5.93 0 01.75.65 7.3 7.3 0 01.62.78 7 7 0 01.47.89 5.55 5.55 0 01.25 1 4.84 4.84 0 01.24 1c-.05.33-.2.71-.23 1zm27.34 4.58c0-.51-.22-.51-.22-1s.12-.51.12-1v-3.06c0-.49-.08-.52-.08-1s.06-.51.06-1 .07-.51.07-1-.14-.51-.14-1 .13-.51.13-1v-1c0-.48-.08-.52-.08-1s.08-.52.08-1-.17-.51-.17-1v-1c0-.49.06-.52.06-1s-.07-.52-.07-1 .13-.51.13-1a1.78 1.78 0 00-.3-.87 1.68 1.68 0 00-.61-.66 1.77 1.77 0 00-.88-.25 1.71 1.71 0 00-.85.3 1.82 1.82 0 00-.74.56 1.85 1.85 0 00-.12.92c0 .51-.1.51-.1 1s.18.52.18 1-.19.51-.19 1 .09.51.09 1v2c0 .49-.12.52-.12 1s.07.51.07 1-.06.51-.06 1 .14.51.14 1-.07.52-.07 1 .14.52.14 1v1c0 .48-.25.52-.25 1s.17.52.17 1-.17.52-.17 1 .2.52.2 1-.12.52-.12 1v1c0 .48.11.52.11 1v1c0 .49-.11.51-.11 1s-.07.52-.07 1 .22.51.22 1-.24.51-.24 1 .11.51.11 1v1c0 .52.13.52.13 1s-.07.52-.07 1 .08.52.08 1-.25.51-.25 1 .21.52.21 1v1a4.86 4.86 0 01-.17 1.09c-.08.36-.4.62-.55.94a4.49 4.49 0 01-.49.95 4.55 4.55 0 01-.76.76 4.45 4.45 0 01-.91.56 4.4 4.4 0 01-1 .32 3.86 3.86 0 01-2.13.08 3.22 3.22 0 01-1.89-1 5.32 5.32 0 01-.88-.66 5.57 5.57 0 01-.58-.93 5.34 5.34 0 01-.22-1.07 4.9 4.9 0 01-.29-1.06c0-.51.2-.51.2-1s-.08-.51-.08-1v-2c0-.49.19-.51.19-1s-.18-.51-.18-1 .09-.51.09-1 .07-.51.07-1-.2-.51-.2-1 .08-.51.08-1-.08-.51-.08-1 .12-.51.12-1v-3c0-.48.14-.51.14-1s-.16-.51-.16-1v-1c0-.49.19-.51.19-1v-1c0-.49-.16-.52-.16-1s.24-.51.24-1-.08-.51-.08-1v-1c0-.49.06-.51.06-1s-.08-.51-.08-1 .06-.51.06-1-.16-.52-.16-1 .14-.51.14-1-.09-.51-.09-1 .08-.51.08-1a1.82 1.82 0 00-.27-.89 1.32 1.32 0 00-1.54-.76 1.62 1.62 0 00-.86.17 1.53 1.53 0 00-.57.66 1.58 1.58 0 00-.28.82c0 .51-.12.51-.12 1v1c0 .49.11.51.11 1s-.07.51-.07 1-.06.51-.06 1v1c0 .49.08.51.08 1v1c0 .49-.11.51-.11 1s.09.51.09 1v1c0 .49-.07.51-.07 1v1c0 .51.11.51.11 1v1c0 .49-.08.51-.08 1s.07.51.07 1-.09.51-.09 1 .2.51.2 1-.2.51-.2 1 .09.51.09 1 .15.51.15 1-.16.51-.16 1v1c0 .48-.09.51-.09 1s.18.51.18 1-.12.51-.12 1 .15.51.15 1-.07.52-.07 1-.06.51-.06 1 .13.51.13 1c0 .34-.22.69-.18 1s.31.62.39 1a8 8 0 00.26 1 9.35 9.35 0 00.38.92 6.9 6.9 0 00.48.89 8.19 8.19 0 00.58.83c.22.25.61.33.86.56s.39.58.66.77a9.53 9.53 0 00.84.57 7.84 7.84 0 001 .35 7.72 7.72 0 001 .32c.32.08.67 0 1 0s.65.14 1 .14a8.82 8.82 0 001 0c.33 0 .64-.28 1-.35a10 10 0 001-.21 9.59 9.59 0 00.9-.47 9.47 9.47 0 00.91-.43 3.57 3.57 0 001.44-1.41 5.18 5.18 0 001.06-1.69c.16-.29.48-.51.6-.83s.13-.66.21-1a1000 1000 0 01.2-2v-2c0-.49-.06-.52-.06-1s.19-.52.19-1-.15-.52-.15-1v-1c0-.49-.06-.51-.06-1s.18-.52.18-1-.12-.52-.12-1 .1-.51.1-1-.15-.51-.15-1 .1-.51.1-1v-2c0-.49-.1-.36-.1-.88zm12.15-4.4c0-.51-.12-.51-.12-1s-.06-.5-.06-1v-1c0-.49.12-.5.12-1v-2c0-.49-.06-.51-.06-1s-.1-.51-.1-1 .06-.51.06-1v-3c0-.49.08-.51.08-1v-1c0-.49.05-.52.05-1v-1a1.93 1.93 0 00-.22-.93 2.1 2.1 0 00-.66-.7c-.26-.14-.62 0-.94 0a1.91 1.91 0 00-.93.06 2 2 0 00-.62.71 1.79 1.79 0 00-.07.9v1c0 .5-.15.51-.15 1s.09.5.09 1v1c0 .49-.08.5-.08 1s.11.51.11 1-.09.51-.09 1v1c0 .49-.09.5-.09 1s.24.51.24 1-.13.51-.13 1v4c0 .5-.06.51-.06 1v1c0 .49.1.51.1 1s.13.51.13 1-.18.51-.18 1 .19.51.19 1v1c0 .5-.15.51-.15 1s.05.51.05 1v1c0 .5.14.51.14 1s-.13.51-.13 1v3c0 .49.13.51.13 1v2c0 .5-.19.5-.19 1s.19.51.19 1v1c0 .49-.18.51-.18 1s.07.51.07 1 .12.51.12 1-.18.51-.18 1v1c0 .48.06.51.06 1a1.73 1.73 0 00.38.81c.15.26.25.57.52.72a1.7 1.7 0 00.88.08 1.51 1.51 0 00.82-.2 1.53 1.53 0 00.62-.59 1.74 1.74 0 00.33-.82c0-.51-.08-.51-.08-1v-1c0-.49.05-.51.05-1s-.12-.51-.12-1 .19-.51.19-1v-1c0-.5-.07-.51-.07-1s-.08-.51-.08-1v-1c0-.49.21-.5.21-1v-1c0-.49-.16-.51-.16-1s.13-.51.13-1v-1c0-.49-.22-.51-.22-1v-1c0-.49.15-.51.15-1v-2c0-.49.11-.51.11-1s-.07-.51-.07-1v-1c0-.49-.12-.51-.12-1s-.06-.5-.06-1 .26-.51.26-1-.21-.51-.21-1.04zm25.72-22.04a1.76 1.76 0 00-.69-.58 1.87 1.87 0 00-.94-.16c-.5.08-.49.14-1 .23s-.47.3-1 .38-.54-.12-1 0-.52 0-1 .11-.46.32-1 .41-.52 0-1 .07-.48.2-1 .29-.52 0-1 .08l-1 .18c-.5.09-.51.06-1 .14s-.48.25-1 .34-.55-.18-1.05-.09-.47.32-1 .41-.53-.08-1 0-.52 0-1 .09-.47.27-1 .36-.48.19-1 .28-.52 0-1 .08a1.56 1.56 0 00-.76.43c-.24.2-.53.35-.64.64a1.79 1.79 0 00.06.91 1.66 1.66 0 00.53 1 1.71 1.71 0 001.11.41c.1 0 .21.06.31 0 .5-.09.47-.28 1-.37s.52 0 1-.08.52 0 1 0 .51 0 1-.12.47-.25 1-.34l1-.18c.5-.09.55-.39.94 0s-.07.43-.07.95.28.51.28 1v1c0 .48-.24.52-.24 1s.21.52.21 1-.12.51-.12 1v6c0 .48.1.52.1 1v1c0 .48-.26.52-.26 1s.1.52.1 1 .13.52.13 1-.1.52-.1 1-.07.52-.07 1-.05.52-.05 1 .08.52.08 1v1c0 .48.14.52.14 1v2c0 .48-.08.52-.08 1s.06.52.06 1-.23.53-.23 1.05.07.52.07 1v1c0 .48-.14.52-.14 1s.19.52.19 1 .05.52.05 1v1c0 .48-.13.52-.13 1s-.11.52-.11 1 .24.52.24 1-.23.52-.23 1 .18.52.18 1-.15.53-.15 1.05.21.52.21 1v1.05c0 .31-.11.67 0 .93s.52.37.78.52a1.8 1.8 0 00.84.39c.32 0 .58-.25.84-.4a1.56 1.56 0 00.55-.64 1.68 1.68 0 00.37-.8v-1c0-.48.11-.51.11-1s-.21-.51-.21-1 .21-.51.21-1v-1c0-.48-.14-.51-.14-1s.09-.51.09-1v-1c0-.48-.05-.51-.05-1s-.11-.52-.11-1v-4c0-.48.25-.52.25-1s-.25-.52-.25-1v-1c0-.49.14-.51.14-1s.11-.52.11-1-.13-.52-.13-1 .13-.52.13-1-.18-.52-.18-1 .06-.52.06-1-.1-.52-.1-1v-1c0-.48.17-.52.17-1s-.1-.52-.1-1 .12-.52.12-1-.08-.52-.08-1-.19-.52-.19-1 .06-.52.06-1v-1c0-.49-.07-.51-.07-1v-1c0-.52.07-.52.07-1v-2c0-.48.17-.51.17-1s-.28-.51-.28-1 .22-.52.22-1v-1c0-.48-.08-.52-.08-1s-.39-.69-.07-1.09.54-.08 1-.16.49 0 1 0 .49 0 1-.11.46-.16.93-.24l.94-.2c.48-.08.48-.1 1-.19s.48-.07 1-.16.5 0 1-.06a1.93 1.93 0 00.8-.51 1.65 1.65 0 00.56-.72 1.85 1.85 0 00-.05-.9 1.68 1.68 0 00-.36-.68zm22.06 47.48a1.94 1.94 0 00-.75-.6 1.91 1.91 0 00-.9-.32c-.52 0-.52.1-1 .1s-.51.15-1 .15-.52-.08-1-.08h-3c-.52 0-.52-.2-1-.2s-.52.2-1 .2-.52-.07-1-.07-.53.18-1.05.18-.76.31-1.14 0-.05-.6-.05-1.11.23-.51.23-1-.16-.51-.16-1-.07-.51-.07-1 .11-.51.11-1 .09-.51.09-1 .06-.5.06-1v-1c0-.5-.11-.5-.11-1v-2c0-.49-.13-.51-.13-1s.26-.51.26-1-.11-.51-.11-1v-1c0-.49-.14-.51-.14-1s-.13-.5-.13-1 .1-.51.1-1 .2-.51.2-1-.14-.51-.14-1v-1c0-.49.06-.51.06-1s-.4-.6-.06-1 .45-.07.94-.12.48-.23 1-.27.5.07 1 0 .49-.1 1-.14.51.11 1 .06.47-.2 1-.24.5 0 1 0 .48-.2 1-.24.52.2 1 .15l1-.1c.32 0 .55-.29.79-.46a1.76 1.76 0 00.63-.64 1.73 1.73 0 00.05-.88 1.8 1.8 0 00-1.81-1.55c-.53 0-.53.08-1.06.13s-.54 0-1.08 0-.52.1-1 .15-.55-.05-1.08 0-.51.21-1 .26-.54 0-1.08 0-.53 0-1.07.08-.54-.06-1.08 0-.62.54-1 .19-.12-.48-.12-1 .13-.52.13-1-.13-.53-.13-1 .11-.52.11-1-.06-.52-.06-1 .09-.51.09-1 .06-.52.06-1v-1.05c0-.53-.2-.52-.2-1s.13-.52.13-1v-1c0-.48.07-.52.07-1s-.12-.53-.12-1 .19-.52.19-1v-1c0-.53-.1-.53-.1-1s-.2-.53-.2-1.05-.18-.63.15-1 .47-.18.95-.26.5 0 1-.14.51.06 1 0 .47-.2 1-.29.47-.2 1-.28.53.18 1 .1.47-.21 1-.3.48-.15 1-.24.52.08 1 0 .5 0 1-.13.46-.28.95-.37.52.07 1 0a1.94 1.94 0 00.86-.43 1.9 1.9 0 00.57-.77c.1-.28-.07-.6-.13-.92a1.61 1.61 0 00-.28-.83 1.73 1.73 0 00-.76-.45 1.65 1.65 0 00-.86 0c-.5.09-.52 0-1 .11s-.49.16-1 .25-.5.13-1 .22-.53-.07-1 0-.51.06-1 .15l-1 .17c-.51.09-.5.15-1 .24l-1 .17c-.5.09-.53-.07-1 0s-.47.29-1 .38-.52 0-1 .08-.48.28-1 .37-.56-.18-1.07-.09c-.06 0-.12.11-.18.13s-.12 0-.16 0a.83.83 0 00-.16.09s-.06.13-.1.16l-.13.09c-.05 0 0 .13-.08.18s-.22-.06-.25 0-.06.11-.1.16l-.09.15s.08.16.05.22.06.12 0 .17-.13.08-.14.14-.14.08-.15.12.06.15.06.22c0 .52.08.52.08 1v1c0 .52-.1.52-.1 1s.14.52.14 1v1c0 .48-.19.52-.19 1s.21.52.21 1v1c0 .48-.19.52-.19 1s.1.52.1 1 .1.52.1 1-.07.51-.07 1-.05.52-.05 1v3c0 .48.26.52.26 1s-.15.52-.15 1 .16.52.16 1-.17.52-.17 1 .06.52.06 1v1c0 .48-.08.52-.08 1s-.11.52-.11 1v1c0 .48.18.52.18 1s-.12.52-.12 1 .06.52.06 1-.12.52-.12 1 .19.52.19 1 .05.52.05 1-.07.52-.07 1v1.05c0 .53-.13.51-.13 1v1c0 .48.25.52.25 1s-.12.52-.12 1v4.05c0 .48-.09.52-.09 1s.07.52.07 1 .06.53.06 1.05-.07.52-.07 1.05v1c0 .52.16.52.16 1.05a1.51 1.51 0 00.25.8c.15.27.2.65.47.8a1.86 1.86 0 00.92.2c.51 0 .51-.11 1-.11h1c.49 0 .51.13 1 .13s.5.07 1 .07.51-.17 1-.17h2c.49 0 .5.11 1 .11h1c.51 0 .51.1 1 .1s.51-.23 1-.23.51-.08 1-.08.51.31 1 .31c.32 0 .56-.35.82-.5a1.67 1.67 0 00.71-.54 1.85 1.85 0 00.27-.87 2 2 0 00-.86-.37z"/></g></g></svg>