<svg xmlns="http://www.w3.org/2000/svg" viewBox="0 0 245.57 81.34"><defs><style>.cls-2{fill:#202020}</style></defs><g id="レイヤー_2" data-name="レイヤー 2"><g id="design"><path fill="none" stroke="#ff5" stroke-linecap="round" stroke-linejoin="round" stroke-width="15.18" d="M91.29 49.58l17.72 17.72 44.28-53.15"/><path class="cls-2" d="M12.6 14.51a.82.82 0 00.89-.78V2.35q0-.69.72-.69h3.69a.8.8 0 00.82-.82.79.79 0 00-.82-.84h-4.25a1.77 1.77 0 00-2 2v11.73a.85.85 0 00.95.78zm13.84 1.28c2.73 0 4.64-1.73 4.64-4.2s-1-3.49-3.89-4.29l-.65-.18C24.69 6.61 24.35 6 24.35 5s.76-1.56 1.93-1.56a2.68 2.68 0 012.19 1.17 1 1 0 00.85.36 1.13 1.13 0 001.2-1.18 1.07 1.07 0 00-.39-.79 5.07 5.07 0 00-3.92-1.52C23.67 1.44 22 2.88 22 5.11s1.06 3.45 3.77 4.2l.64.18c1.92.53 2.31 1.21 2.31 2.13a2.06 2.06 0 01-2.26 2.17 3.25 3.25 0 01-2.86-1.49 1 1 0 00-.83-.38A1.13 1.13 0 0021.61 13a1.39 1.39 0 00.32.84 5.41 5.41 0 004.51 1.95zm11.2-.14h1.83c4 0 6.6-2.79 6.6-7.11 0-4.48-2.33-7-6.58-7h-1.85c-2.08 0-2.82.67-2.82 2.54v9c0 1.92.74 2.57 2.82 2.57zm2-2h-1.46c-.78 0-.91-.2-.91-.85V4.48c0-.66.13-.86.91-.86h1.42c2.68 0 4 1.66 4 4.92s-1.47 5.07-4 5.07zm15.52 2.14a4 4 0 003-1.14 1 1 0 001.06 1.07 1 1 0 001.09-1.11V9.73a1.81 1.81 0 00-2-2h-2.84a.93.93 0 00-1.06 1 1 1 0 001.06 1h2.08c.48 0 .55.08.55.57v1.95a3.18 3.18 0 01-2.92 1.53c-2.28 0-3.76-2-3.76-5.1s1.51-5.09 3.76-5.09a3.45 3.45 0 012.59 1 1.2 1.2 0 00.92.37 1.14 1.14 0 001.14-1.13 1.35 1.35 0 00-.71-1.16 6.44 6.44 0 00-3.94-1.19c-3.73 0-6.24 2.88-6.24 7.18s2.44 7.13 6.22 7.13zm12.22-.05c2.21 0 3.63-1.19 3.63-3 0-1.68-.8-2.51-2.85-3l-.65-.15C66.11 9.27 66 9 66 8.47s.48-.92 1.28-.92a2.08 2.08 0 011.72.78 1 1 0 00.68.26 1 1 0 001-1 .91.91 0 00-.32-.76 4.45 4.45 0 00-3.14-1.09c-2 0-3.38 1.08-3.38 2.69s.77 2.42 2.94 3l.59.14c1.27.32 1.49.64 1.49 1.2 0 .77-.54 1.21-1.5 1.21a2.55 2.55 0 01-2.09-.9 1 1 0 00-.75-.34 1 1 0 00-1 .91.86.86 0 00.26.72 4.58 4.58 0 003.6 1.37zm7.11 1.71h4.25a1.76 1.76 0 002-1.95V3.72a.84.84 0 00-.91-.78.82.82 0 00-.89.78V15.1a.62.62 0 01-.71.69h-3.74a.83.83 0 000 1.66zm11.63-2.94a.82.82 0 00.89-.78V2.35a.62.62 0 01.71-.69h3.69a.79.79 0 00.82-.82.79.79 0 00-.82-.84h-4.24a1.76 1.76 0 00-2 2v11.73a.84.84 0 00.95.78zM95 7.22h2.67v3a1.16 1.16 0 002.29 0v-3h3.87v.32c0 3.52-1.19 5.6-4 6.93a1.13 1.13 0 00-.72 1 1.11 1.11 0 001.1 1.11 1.24 1.24 0 00.53-.12c3.49-1.57 5.34-4.62 5.34-8.82v-.42h3a.93.93 0 00.92-1 .93.93 0 00-.92-1h-3v-3.1a1.16 1.16 0 00-2.29 0v3.1h-3.87V2.37a1.16 1.16 0 00-2.29 0v2.85H95a.94.94 0 00-.93 1 .94.94 0 00.93 1zm18.28 8.52a1.3 1.3 0 00.57-.14 20.83 20.83 0 005.83-4.42 28 28 0 014.32 4.16 1.23 1.23 0 00.94.47 1.25 1.25 0 001.26-1.18 1.39 1.39 0 00-.37-.88 27.21 27.21 0 00-4.76-4.22 16.57 16.57 0 002.42-4.25 3 3 0 00.2-1 1.55 1.55 0 00-.43-1.12 2.43 2.43 0 00-1.79-.53l-7.17.12a1 1 0 00-1 1.11 1 1 0 001 1.08l6.45-.13c.35 0 .35.1.35.13a.62.62 0 01-.07.25 17.12 17.12 0 01-8.27 8.4 1.09 1.09 0 00-.66 1 1.15 1.15 0 001.18 1.15zm15.91-7.28h5.42a7.26 7.26 0 01-3.45 5.83 1.12 1.12 0 00-.59 1 1.17 1.17 0 001.12 1.16 1.23 1.23 0 00.61-.17 9.76 9.76 0 004.6-7.79h5.17a1 1 0 00.93-1.08.94.94 0 00-.89-1h-12.92a.93.93 0 00-.87 1 1 1 0 00.87 1.05zm2.22-4.21h8.39a1 1 0 00.89-1.07 1 1 0 00-.89-1.07h-8.39a1 1 0 00-.88 1.07 1 1 0 00.88 1.07zm29.33 2.53a1 1 0 00-1-1.07h-5a1.48 1.48 0 000-.21V1.76a1.17 1.17 0 00-2.32 0v3.93h-5.41a1 1 0 00-1 1.07 1 1 0 001 1.07h5.27a8.52 8.52 0 01-3.65 6.52 1.16 1.16 0 00-.55 1 1.18 1.18 0 001.16 1.17 1.28 1.28 0 00.74-.26c2.72-1.86 4.19-4.52 4.64-8.39h5.12a1 1 0 001-1.09zm9.04 9.22a27.67 27.67 0 005.66-.49 1.07 1.07 0 00.91-1 1.12 1.12 0 00-1.11-1.13 1.35 1.35 0 00-.29 0 24.6 24.6 0 01-5.27.48c-2.24 0-2.62-.29-2.62-1.19V9.61a27.61 27.61 0 007.29-2.8 1.15 1.15 0 00.65-1 1.15 1.15 0 00-1.15-1.11 1.38 1.38 0 00-.66.19 27.65 27.65 0 01-6.13 2.51V2.64a1.18 1.18 0 00-2.33 0V13c0 2.27 1.27 3 5.05 3zm7.27-13a.87.87 0 00.71.37.81.81 0 00.82-.79.91.91 0 00-.22-.6A8.86 8.86 0 00177 .44a1 1 0 00-.6-.24.82.82 0 00-.86.76.69.69 0 00.23.51c.32.38.85.94 1.28 1.53zm-1.8 1.41a.81.81 0 001.49-.41.79.79 0 00-.18-.54 8.55 8.55 0 00-1.42-1.59.85.85 0 00-1.42.56.74.74 0 00.21.49 14 14 0 011.32 1.49zm10.36 12.52a1.38 1.38 0 00.58-.16c3.68-1.75 5.48-4.72 5.48-9v-5.4a1.19 1.19 0 00-2.36 0v5.2c0 3.65-1.2 5.73-4.14 7.17a1.13 1.13 0 00.44 2.19zm-2.04-6.14a1.08 1.08 0 001.18-1V2.67a1.19 1.19 0 00-2.36 0v7.08a1.08 1.08 0 001.18 1.04zm15.68-6.54h8.39a1 1 0 00.89-1.07 1 1 0 00-.89-1.07h-8.39a1 1 0 00-.88 1.07 1 1 0 00.88 1.07zM197 8.46h5.42a7.26 7.26 0 01-3.42 5.83 1.12 1.12 0 00-.59 1 1.18 1.18 0 001.13 1.16 1.26 1.26 0 00.61-.17 9.78 9.78 0 004.59-7.79h5.17a1 1 0 00.89-1.05.94.94 0 00-.89-1H197a.93.93 0 00-.87 1 1 1 0 00.87 1.02zm17.08 3.97a1.08 1.08 0 00.53-.14 22.7 22.7 0 003.48-2.23v6a1 1 0 002 0V9.61a.84.84 0 00-.55-.79 20.63 20.63 0 002.91-3.17 1 1 0 00.2-.58 1.11 1.11 0 00-1.09-1 1 1 0 00-.79.42 21.2 21.2 0 01-7.13 6 1 1 0 00.39 1.94zm12.62 5.02h4.3a1.76 1.76 0 002-1.95V3.72a.84.84 0 00-.91-.78.82.82 0 00-.89.78V15.1a.62.62 0 01-.71.69h-3.79a.83.83 0 000 1.66zM15.12 32h-4.25a1.76 1.76 0 00-1.95 2v11.73a.84.84 0 00.91.78.82.82 0 00.89-.78V34.35a.62.62 0 01.71-.69h3.69a.83.83 0 000-1.66zm14.3 1.52v5.18h-2.5a1 1 0 000 2h2.5v5.64h-3.61a1 1 0 000 2H35a.93.93 0 00.89-1 .91.91 0 00-.89-1h-3.37v-5.61h2.82a1 1 0 000-2h-2.82v-5.21a1.11 1.11 0 00-2.21 0z"/><path class="cls-2" d="M19.72 44a1.11 1.11 0 00.65-.22c.4-.28.76-.54 1.09-.81v5.48a1.06 1.06 0 002.09 0v-5.82a11 11 0 011.06.75 1 1 0 00.66.25 1 1 0 00.94-1 1.06 1.06 0 00-.46-.84 12.13 12.13 0 00-2-1.21 11.62 11.62 0 001.68-2.72 2.69 2.69 0 00.24-1c0-.88-.62-1.39-1.7-1.39h-.42v-2.4c0-.57-.54-.84-1-.84s-1.05.26-1.05.84v2.39h-1.56a.85.85 0 00-.77.94c0 .47.24 1 .77 1h3.2c.23 0 .23.06.23.08a.35.35 0 01-.05.15 11.83 11.83 0 01-4.05 4.5 1 1 0 00-.51.88 1 1 0 00.96.99zM50 40.25a1 1 0 000-2h-5.63a1 1 0 000 2zm3.73 3.26a1 1 0 000-2h-13a1 1 0 000 2h3.55a29.56 29.56 0 01-1.79 3.06h-1.18a1 1 0 00-1 1 1 1 0 00.31.76 1 1 0 00.77.26 88.76 88.76 0 009.62-1c.23.26.45.53.63.78a1.25 1.25 0 001 .54 1 1 0 001.08-1 1.32 1.32 0 00-.31-.78A21.55 21.55 0 0050.35 44a1.24 1.24 0 00-.77-.29 1 1 0 00-1 .94.94.94 0 00.34.69c.19.17.4.37.61.59-1.47.19-3 .31-4.44.43.6-1 1.15-1.93 1.65-2.92z"/><path class="cls-2" d="M39.2 38.8a1.1 1.1 0 00-.6 1 1.08 1.08 0 001 1.06 1 1 0 00.55-.16 26.62 26.62 0 006.94-5.75 24.68 24.68 0 007 5.46 1.36 1.36 0 00.68.18 1.06 1.06 0 001.07-1.09 1.19 1.19 0 00-.72-1.07 22.17 22.17 0 01-6.81-5.1.87.87 0 000-.26 1.05 1.05 0 00-1.11-1 1.19 1.19 0 00-1 .5 24 24 0 01-7 6.23zm24.48-.66h-3.53c-.54 0-.78.49-.78 1a.85.85 0 00.78.94h3.53a1 1 0 000-1.89zm-3.53 2.52c-.54 0-.78.49-.78 1a.85.85 0 00.78.94h3.53a1 1 0 000-1.89zm5.16-4.15a.9.9 0 00-.84-1H59.2a1 1 0 000 2h5.27a.9.9 0 00.84-1zm-1.63-1.63a1 1 0 000-1.89h-3.53c-.54 0-.78.49-.78.95a.85.85 0 00.78.94z"/><path class="cls-2" d="M69.28 44.87l-.06 1.69v1.89a.92.92 0 001 .87.91.91 0 001-.87v-1.88l-.07-1.83a15.08 15.08 0 002.94 2.78 1.26 1.26 0 00.72.25 1 1 0 001-1 1.08 1.08 0 00-.59-.94 14.64 14.64 0 01-3.17-2.7h2.56a.87.87 0 00.8-1 .85.85 0 00-.8-.94h-3.36v-1h1.13c1.32 0 2.2-.38 2.24-2v-3.35c0-1.35-.76-2-2.33-2h-4c-1.59 0-2.33.64-2.33 2v3.44c0 1.39.69 2 2.24 2h1.06v1H66c-.52 0-.76.49-.76.94s.24 1 .76 1h2.32a14.17 14.17 0 01-3.1 3 1.13 1.13 0 00-.5.8v-2c0-1.2-.56-1.72-1.87-1.72h-1.74c-1.31 0-1.87.52-1.87 1.72v2.27c0 1.21.56 1.72 1.87 1.72h1.74c1.33 0 1.85-.5 1.87-1.72V47a1 1 0 001 .91 1.22 1.22 0 00.73-.27 15 15 0 002.83-2.77zm-6.53.43v1.47c0 .26 0 .3-.26.3h-1c-.22 0-.26 0-.26-.3V45.3c0-.26 0-.3.26-.3h1c.21 0 .26 0 .26.3zm5.14-9.55V35c0-.32 0-.41.45-.41h.93v1.14zm0 1.67h1.38v1.12h-.92c-.38 0-.46-.06-.46-.41zm4.77 0v.71c0 .32-.06.41-.46.41h-1v-1.12zm-1.46-1.67v-1.14h1c.4 0 .46.09.46.41v.73zm23.43 10.87c-1.75.15-3.31.22-5.06.22a21.11 21.11 0 01-5.2-.47v-1.82h1.36a.9.9 0 000-1.78h-1.36v-1.35h1.9a.93.93 0 000-1.86h-6.55a.94.94 0 000 1.86h2.69v4a4.08 4.08 0 01-.71-.8c.08-.54.17-1.1.22-1.66a.89.89 0 00-.21-.7 1.07 1.07 0 00-.79-.31.9.9 0 00-1 .81 17.53 17.53 0 01-1.17 5.07 1.5 1.5 0 00-.09.43.91.91 0 001 .89 1 1 0 00.92-.62c.2-.49.4-1.06.61-1.74 1.46 1.46 3.83 2 8.34 2 1.8 0 3.44-.06 5.3-.2a1 1 0 001-1 1 1 0 00-.32-.74 1.09 1.09 0 00-.88-.23z"/><path class="cls-2" d="M92.32 34.67h2.52a.87.87 0 000-1.72h-7a.87.87 0 000 1.72h2.45c-.08.23-.17.47-.26.7h-.24c-1.37 0-2 .55-2 1.79v5.1A1.55 1.55 0 0089.16 44a10 10 0 01-2 .92 1 1 0 00-.7.9.91.91 0 00.91 1 1 1 0 00.34-.06 11.81 11.81 0 002.47-1.16.92.92 0 00.48-.79 1 1 0 00-.29-.69h1.45a.83.83 0 00-.3.64 1 1 0 00.59.88 12.77 12.77 0 002.08.87 1.29 1.29 0 00.37.06.93.93 0 00.93-1 1 1 0 00-.74-.92 15.47 15.47 0 01-1.52-.65 1.57 1.57 0 001.46-1.75v-5.1c0-1.24-.61-1.79-2-1.79h-.65c0-.11.07-.21.11-.32zm.44 6.89v.55c0 .19 0 .3-.4.3H90.2c-.32 0-.41-.06-.41-.3v-.55zm0-2.3v.81h-3v-.81zm0-1.5h-3v-.49c0-.19 0-.3.41-.3h2.16c.37 0 .4.11.4.3zM80 34.5v2.62c0 1.24.61 1.8 2 1.8h2.49c1.37 0 2-.56 2-1.8V34.5c0-1.24-.61-1.8-2-1.8H82c-1.43 0-2 .56-2 1.8zm1.89.49v-.35c0-.22.05-.3.33-.3h2c.28 0 .33.08.33.3V35zm2.68 1.6V37c0 .22 0 .3-.33.3h-2c-.25 0-.33-.07-.33-.3v-.39zm23.07-2.11c-4.82 0-8.46 3.26-8.46 7.58 0 3 1.74 4.38 3.47 4.38 1.57 0 2.59-.67 3.53-2.32a18.21 18.21 0 002-7.59 4.29 4.29 0 014.14 4.39c0 2.28-1.11 3.75-3.51 4.61a1.13 1.13 0 00-.83 1.08 1.11 1.11 0 001.11 1.13 1.33 1.33 0 00.45-.08 6.81 6.81 0 005.09-6.74c.04-3.85-2.79-6.44-6.99-6.44zm-5 9.75c-.58 0-1.2-.57-1.2-2.17a5.59 5.59 0 014.46-5.39 16 16 0 01-1.78 6.4c-.45.81-.89 1.16-1.47 1.16zm22.88-10.31a.83.83 0 00.8.91h1.39a4.49 4.49 0 01-1.81 2.45 1 1 0 00-.51.87 1 1 0 001 1 1.11 1.11 0 00.65-.22 6.69 6.69 0 002.75-4.05h1.34a.85.85 0 01.38.05.25.25 0 010 .18 4.79 4.79 0 01-.26 1.2c-.1.25-.19.3-.39.3a4.7 4.7 0 01-.6-.06.94.94 0 00-.79.21.93.93 0 00-.32.7 1 1 0 00.88 1 7.68 7.68 0 001 .07 1.9 1.9 0 002.14-1.59 10 10 0 00.39-2.18 1.5 1.5 0 00-.34-1.16 2.15 2.15 0 00-1.62-.51h-5.29a.83.83 0 00-.79.83z"/><path class="cls-2" d="M133.63 43.6h-2.5v-1.3h1.94a.9.9 0 000-1.78h-1.94v-1.13a1.06 1.06 0 00-2.07 0v1.13h-.58v-.13l.09-.32a1 1 0 000-.25.89.89 0 00-1-.83.9.9 0 00-.9.66 8.82 8.82 0 01-1 2.35 1.16 1.16 0 00-.2.62.88.88 0 00.93.83 1 1 0 00.93-.55 3.62 3.62 0 00.32-.6h1.26v1.3h-2.65a.82.82 0 00-.77.91.84.84 0 00.77.91h2.65v3a1.06 1.06 0 002.07 0v-3h2.5a.93.93 0 000-1.82zm-14.31 4.94a13.7 13.7 0 001-4.19h3.21v2.59c0 .17 0 .2-.19.2a3.92 3.92 0 01-.67 0 .8.8 0 00-.67.18 1 1 0 00-.34.78.93.93 0 00.8 1 6.59 6.59 0 001 .07c1.23 0 1.88-.61 1.88-1.76v-9.03c0-1.24-.58-1.77-1.92-1.77H123a8.09 8.09 0 00.39-1 1.41 1.41 0 00.07-.47c0-.55-.37-1.18-1.43-1.18h-.84a.54.54 0 00.05-.11 4.77 4.77 0 00.22-.52 1 1 0 00.06-.33.92.92 0 00-1-.84.91.91 0 00-.87.56 14.4 14.4 0 01-2.12 3.5 1 1 0 00-.3.7.94.94 0 001 .86 1.23 1.23 0 00.38-.07 2.28 2.28 0 00-.07.63v3.16a15.28 15.28 0 01-1 6.35 1.13 1.13 0 00-.12.47.94.94 0 001 .9 1.07 1.07 0 00.9-.68zm4.18-7.32v1.42h-.75v-1.42zm-.75-1.64v-1.31h.56c.15 0 .19 0 .19.24v1.07zm-1.68 1.64v1.42h-.72V41.2zm-.7-1.64v-1.07c0-.24 0-.24.19-.24h.51v1.31zm1-3.83a4.54 4.54 0 01-.36.79v.07h-.53a3 3 0 00-.87.1c.26-.35.51-.72.74-1.09h.9a.31.31 0 01.17 0 .2.2 0 01-.04.13zm32.3 5.41a.85.85 0 00-.82-.95h-.94v-2.44c0-1.38-.79-2.08-2.33-2.08H148V33.2a1.09 1.09 0 00-2.15 0v2.49h-2.49a1 1 0 000 1.91h2.49v1.27c0 .44 0 .9-.07 1.34h-3.28a1 1 0 000 1.89h3a7.52 7.52 0 01-4 5 1.09 1.09 0 00-.61.92 1.06 1.06 0 001 1 1.1 1.1 0 00.52-.14 9.9 9.9 0 004.79-5.32 11.68 11.68 0 004.56 5.08 1.07 1.07 0 00.57.16 1.16 1.16 0 001.13-1.14 1.15 1.15 0 00-.65-1 10.18 10.18 0 01-4.21-4.55h4.2a.86.86 0 00.87-.95zM148 38.64v-1h1.3c.39 0 .48.08.48.44v2.17H148v-1.61z"/><path class="cls-2" d="M139.58 48.14a19.75 19.75 0 002.2-4.72 1 1 0 00.06-.34 1.1 1.1 0 00-1.16-1 1 1 0 00-1 .7 19.62 19.62 0 01-2.06 4.33 1.16 1.16 0 00-.22.67 1.06 1.06 0 001.11 1 1.25 1.25 0 001.07-.64zm.42-15.26a1.21 1.21 0 00-.69-.23 1.05 1.05 0 00-1.09 1 1 1 0 00.4.76c.41.33 1 .85 1.43 1.31h.05a1.08 1.08 0 00.78.38 1.1 1.1 0 001.12-1.03 1.22 1.22 0 00-.35-.81 12.4 12.4 0 00-1.65-1.38zm-.4 7.57a1.11 1.11 0 001.11-1.08 1.18 1.18 0 00-.35-.8 11.12 11.12 0 00-1.71-1.44 1.27 1.27 0 00-.69-.21 1.09 1.09 0 00-1.11 1 1 1 0 00.42.77 16.06 16.06 0 011.57 1.41 1 1 0 00.76.35zm17.13 8.16a.79.79 0 00.81.84h4.25a1.76 1.76 0 002-2V35.72a.84.84 0 00-.91-.78.82.82 0 00-.89.78V47.1a.62.62 0 01-.71.69h-3.7a.79.79 0 00-.85.82zm23.83-1.8a1.12 1.12 0 00-.38-.86 1.1 1.1 0 00-.94-.21 19.8 19.8 0 01-3.71.32c-2.92 0-3.5-.61-3.5-1.59s.69-1.95 2-2.83a21 21 0 014.71-2.08 1 1 0 00.74-1 1.08 1.08 0 00-1-1.11 1 1 0 00-.35.06 25.87 25.87 0 00-3.44 1.35 31.25 31.25 0 01-.39-5.12 1.15 1.15 0 00-2.29 0 29 29 0 00.65 6.31c-2 1.37-2.92 2.8-2.92 4.51 0 2.48 1.89 3.68 5.77 3.68a21.16 21.16 0 004.17-.34 1.09 1.09 0 00.88-1.09zM198.1 43a1.11 1.11 0 002.16-.31 1.21 1.21 0 00-.07-.35 14.6 14.6 0 00-3.52-5.53 1.28 1.28 0 00-.86-.37 1.1 1.1 0 00-1.13 1 1 1 0 00.34.73A16 16 0 01198.1 43zm-7.49.58c-.37 1.37-.74 1.56-1.08 1.56-.67 0-1.93-1.64-1.93-7.85 0-.56 0-.95.05-1.4v-.24a1 1 0 00-.26-.76 1.26 1.26 0 00-.9-.35 1.1 1.1 0 00-1.15 1c0 .47-.07 1-.07 1.84 0 8.4 2.34 10.16 4.3 10.16 1 0 2.35-.58 3.12-3.36a1 1 0 000-.34 1.09 1.09 0 00-1.13-1.07 1 1 0 00-.95.81zm26.06-1.11c0-2.3-1.78-3.79-4.53-3.79a19.84 19.84 0 00-7.53 1.81 1 1 0 00-.67.94 1 1 0 00.95.94 1 1 0 00.47-.1 17.85 17.85 0 016.78-1.75c1.57 0 2.51.73 2.51 1.95 0 2-1.3 3-4.51 3.56a.94.94 0 00-.82.94 1 1 0 00.34.77.92.92 0 00.59.21h.2c4.01-.59 6.22-2.53 6.22-5.48zm17.83 5.2a1.06 1.06 0 00.91-1.06 1.15 1.15 0 00-.38-.86 1.06 1.06 0 00-.87-.23 16.09 16.09 0 01-2.41.18c-1.93 0-2.52-.31-2.64-1.38a.92.92 0 00-1-.85 1.12 1.12 0 00-.83.34 1 1 0 00-.27.79c.12 2.26 1.59 3.27 4.74 3.27a17.44 17.44 0 002.75-.2zm-14.2-10.04a1.06 1.06 0 00.33.79.94.94 0 00.77.24c.61 0 1.28-.1 2-.19a47.66 47.66 0 01-2.38 8.3 1.41 1.41 0 00-.11.54 1 1 0 001.09 1 1.28 1.28 0 001.19-.85 54.21 54.21 0 002.51-9.43c.76-.17 1.53-.36 2.28-.58a1 1 0 00.78-1 1 1 0 00-1-1.05 1.54 1.54 0 00-.3 0l-1.4.33c.09-.56.18-1.2.27-2.06a1 1 0 00-.23-.75 1.19 1.19 0 00-.88-.37 1 1 0 00-1.09.92l-.05.49c-.08.76-.15 1.42-.28 2.2a22.46 22.46 0 01-2.48.3 1 1 0 00-1.02 1.17zm7.7 1.96a1.06 1.06 0 00.38.83.94.94 0 00.61.21h.24a23.63 23.63 0 014.38-.47 1 1 0 001-1 1 1 0 00-1.08-1.07 25 25 0 00-4.64.49 1.06 1.06 0 00-.89 1.01zM13.39 71.91l-5.18.86-.41-2.34 4-.61a1 1 0 00.83-1 1.15 1.15 0 00-.39-.87 1 1 0 00-.81-.22l-4 .62-.51-2.84a1 1 0 00-1.09-.84 1.28 1.28 0 00-1 .41.9.9 0 00-.18.75l.51 2.86-3.9.59a.92.92 0 00-.82 1 1.15 1.15 0 00.38.89.93.93 0 00.78.2l3.93-.61.47 2.37L.82 74A1 1 0 000 75a1.15 1.15 0 00.39.88 1 1 0 00.79.2l5.18-.86.84 4.71a1 1 0 001.09.85 1.23 1.23 0 00.94-.4.93.93 0 00.19-.78l-.85-4.76 5.2-.86a1 1 0 00.82-1 1.12 1.12 0 00-.38-.86.94.94 0 00-.82-.21zm15.73-.22H18.6c-.6 0-.87.58-.87 1.12s.3 1.13.87 1.13h10.52c.58 0 .88-.57.88-1.13s-.28-1.12-.88-1.12zm13.65-5.15h-7.24c-1.94 0-2.8.71-2.8 2.31v3.24c0 .64.6.93 1.16.93s1.16-.29 1.16-.93v-2.8c0-.46.1-.64.72-.64h6.68c.37 0 .57 0 .66.14s.1.24.06.5a10.52 10.52 0 01-6.28 8.6 1.2 1.2 0 00-.76 1.11 1.16 1.16 0 001.15 1.16 1.27 1.27 0 00.58-.13 13.08 13.08 0 007.71-10.76 5.28 5.28 0 000-.55c.04-1.48-.89-2.18-2.8-2.18zm17.13 5.15H49.39c-.61 0-.88.58-.88 1.12s.3 1.13.88 1.13H59.9c.58 0 .88-.57.88-1.13s-.28-1.12-.88-1.12zm13.58 1.19a21.13 21.13 0 00-3.83-2.32 1.24 1.24 0 00-.51-.11 1.13 1.13 0 00-.79.35V66A1.17 1.17 0 0066 66v13.78a1.17 1.17 0 002.32 0v-7.45a1.87 1.87 0 00.38.28 31.41 31.41 0 013.35 2.16 1.33 1.33 0 00.82.29A1.15 1.15 0 0074 73.89a1.26 1.26 0 00-.52-1.01zm.87-7.58a1 1 0 00-.6-.24.83.83 0 00-.86.77.67.67 0 00.23.5c.36.38.89 1 1.32 1.49a.89.89 0 00.71.36.8.8 0 00.82-.79.88.88 0 00-.22-.59 9.31 9.31 0 00-1.4-1.5zm-1.82 1.41a.81.81 0 00-.57-.23.85.85 0 00-.85.79.71.71 0 00.21.48 12.94 12.94 0 011.32 1.52.81.81 0 00.67.39.83.83 0 00.82-.83.85.85 0 00-.17-.54 9 9 0 00-1.43-1.58zm14.2 3.2a47.44 47.44 0 005.08-.4 1.08 1.08 0 001-1.09 1 1 0 00-.34-.79 1.07 1.07 0 00-.89-.26 43.79 43.79 0 01-4.94.39 1.09 1.09 0 00-.76 1.85 1.1 1.1 0 00.8.3zm-4.11-3.74a1.21 1.21 0 00-.92-.39 1.07 1.07 0 00-1.11.84 40.68 40.68 0 00-.84 8.38 36.43 36.43 0 00.3 4.46 1.09 1.09 0 001.15 1 1.24 1.24 0 00.89-.38 1.05 1.05 0 00.23-.83A34 34 0 0182.83 67a1 1 0 00-.21-.83zm9.95 10.42a14.61 14.61 0 01-2.69.27c-2.3 0-2.73-.43-2.88-1.45a1 1 0 00-1-.86 1.18 1.18 0 00-.87.37 1.08 1.08 0 00-.28.84c.21 2.3 1.71 3.28 5 3.28a16.05 16.05 0 003.15-.31 1 1 0 00.87-1 1.17 1.17 0 00-.4-.89 1 1 0 00-.9-.25zm10.93.99a1.28 1.28 0 00-.57.13A21.72 21.72 0 0199 79.24a.93.93 0 00-.74.92 1 1 0 001 1 .85.85 0 00.31 0 21.76 21.76 0 004.43-1.81.9.9 0 00.54-.81 1 1 0 00-1.04-.96zm10.35-1.97H113l.37-8.35a1.76 1.76 0 00-.39-1.37 2 2 0 00-1.55-.49h-1.13a.9.9 0 000 1.79h.65c.23 0 .38 0 .43.06s.05.13 0 .3v1.17h-.84a.86.86 0 000 1.71h.78l-.1 1.57h-.81a.79.79 0 00-.76.86.78.78 0 00.76.85h.74l-.08 1.89h-1.6v-8.46a1.57 1.57 0 00-1.79-1.81h-3.3a1.74 1.74 0 00-1.47.57.94.94 0 00-.91-.9 1.14 1.14 0 00-.54.14c-.37.21-.76.41-1.25.64a1.24 1.24 0 00-.48-.09 1 1 0 00-.74.27.66.66 0 00-.19.51l.34 9.17h-.85a.91.91 0 000 1.79h15.59a.91.91 0 000-1.79zm-6-8.25v8.25h-3.58v-8.25c0-.25.06-.35.42-.35h2.76c.32-.01.36.11.36.35zm-5.22-.22v8.47H101v-1.89h.72a.86.86 0 000-1.71h-.79l-.06-1.58h.76a.86.86 0 000-1.71h-.82v-1.2a14.82 14.82 0 001.64-.8 1.16 1.16 0 00.29-.22 3.1 3.1 0 00-.15.64z"/><path class="cls-2" d="M105 67.82a.7.7 0 00-.64.78.71.71 0 00.64.79h2a.71.71 0 00.66-.79.7.7 0 00-.66-.78zm7.92 11.25a21.74 21.74 0 01-3.8-1.41 1.18 1.18 0 00-.58-.16 1 1 0 00-1 1 1 1 0 00.55.86 20.34 20.34 0 004.29 1.76 1 1 0 00.34 0 1 1 0 001-1 1 1 0 00-.8-1.05zm-6.58-8.97h-.64c-.84 0-1.17.39-1.17 1.36v2.13c0 1 .33 1.36 1.17 1.36h.65c1 0 1.14-.51 1.16-1.36v-2.13c0-.97-.33-1.36-1.17-1.36zm0 1.63v1.59c0 .13 0 .13-.1.13h-.36s-.1 0-.1-.13v-1.59c0-.13 0-.13.1-.13h.36c.04 0 .06 0 .06.13zm23.74 1.35h3.27a.88.88 0 00.83-1 .87.87 0 00-.83-1h-3.83v-1.82h2.71a1 1 0 000-1.93h-2.71v-2.28a1.07 1.07 0 00-2.11 0v2.28H125a1 1 0 000 1.93h2.42v1.89h-3.23a1 1 0 000 1.93h2.48a18 18 0 01-4.73 4.67 1.08 1.08 0 00-.51.9 1 1 0 001 1 1.15 1.15 0 00.7-.23 20.72 20.72 0 004.4-4.17l-.07 2.54v2.72a1 1 0 001.06.87.94.94 0 001.05-.87v-2.76l-.06-2.48a22.61 22.61 0 002.95 3.54 1.35 1.35 0 00.92.41 1 1 0 001-1 1.29 1.29 0 00-.5-1 20.14 20.14 0 01-3.8-4.14z"/><path class="cls-2" d="M123 74.61v-7.32c0-1.21-.58-1.78-1.83-1.78h-1.55c-1.24 0-1.83.57-1.83 1.78v7.32c0 1.2.59 1.76 1.83 1.76h1.55c1.29-.02 1.83-.56 1.83-1.76zm-2-6.82v6.32c0 .28-.1.33-.28.33h-.69c-.14 0-.27 0-.27-.33v-6.32c0-.3.09-.35.27-.35h.69c.28 0 .34.05.34.35zm27.54 10.49a21.49 21.49 0 00-2.45-1.45v-.13h3.72a.88.88 0 000-1.74h-3.37v-.66h2.55a.77.77 0 00.73-.86.76.76 0 00-.73-.83h-1c.12-.21.23-.43.34-.64a1.13 1.13 0 00.09-.4.93.93 0 00-1-.85.89.89 0 00-.86.58 13.22 13.22 0 01-.65 1.31h-.89a.73.73 0 00.05-.3.89.89 0 00-.13-.48 4.32 4.32 0 00-.56-.74 1 1 0 00-.7-.32.9.9 0 00-.95.84 1 1 0 00.2.56 3.64 3.64 0 01.31.44h-1.16a.77.77 0 00-.73.83.78.78 0 00.73.86h2.38v.66h-3a.88.88 0 000 1.74h2.62a4.24 4.24 0 01-2.27 2 .9.9 0 00-.56.83 1 1 0 00.93 1 1.34 1.34 0 00.44-.1 6.66 6.66 0 002.59-2c.77.49 1.51 1 2.15 1.51a1.14 1.14 0 00.73.28 1 1 0 001-1 1.12 1.12 0 00-.55-.94z"/><path class="cls-2" d="M151.06 64.85h-2.45c-1.75 0-2.37.5-2.37 1.93v2c0 1.39.62 1.88 2.37 1.88h2.69v7.9c0 .36-.1.42-.41.42a5.27 5.27 0 01-.57 0 1 1 0 00-.82.2 1 1 0 00-.36.81 1 1 0 00.9 1 9.69 9.69 0 001.2.09c1.52 0 2.22-.74 2.22-2.33V66.84c-.04-1.44-.7-1.99-2.4-1.99zM148.33 67v-.31c0-.18 0-.28.44-.28h2.09c.42 0 .44.08.44.28V67zm0 1.46h3v.63h-2.53c-.4 0-.44-.09-.44-.3zm-5.67 2.22a3.12 3.12 0 001.68-.38 1.75 1.75 0 00.59-1.5v-2c0-1.43-.62-1.93-2.37-1.93h-2.31c-1.69 0-2.35.55-2.35 2v13.51c0 .58.56.85 1.07.85s1.06-.29 1.06-.85v-9.7h2.63zm.18-2.18v.33c0 .21-.05.3-.44.3H140v-.63zM140 67v-.31c0-.2 0-.28.44-.28h1.93c.42 0 .44.1.44.28V67zm33.28 6.25a14.59 14.59 0 00-2.56-3 1.23 1.23 0 00-.78-.31 1.07 1.07 0 00-1.09 1 1.06 1.06 0 00.35.77 18.43 18.43 0 012.22 2.76 1.16 1.16 0 001 .57 1.14 1.14 0 001.09-1.04 1.29 1.29 0 00-.23-.7zm-3.61 2.51a1 1 0 00-1 .82c-.18 1.35-.48 1.66-3 1.66-1.89 0-2-.2-2-.78v-8a1.11 1.11 0 00-2.21 0v8.43c0 1.65.59 2.35 4.27 2.35 3.52 0 4.61-.71 5-3.31a.9.9 0 00-.2-.75 1.18 1.18 0 00-.86-.42zm-10.3-4.86a1 1 0 00-1 .74 13.34 13.34 0 01-1.46 3.51 1.29 1.29 0 00-.23.69 1 1 0 001.07 1 1.28 1.28 0 001-.62 13.8 13.8 0 001.64-4 1.57 1.57 0 000-.28 1.07 1.07 0 00-1.02-1.04zm3.68-4.96a1.13 1.13 0 00.55.93 18.81 18.81 0 012.06 1.62 1.11 1.11 0 001.89-.79 1.23 1.23 0 00-.42-.9 12.1 12.1 0 00-2.35-1.73 1.44 1.44 0 00-.66-.17 1.05 1.05 0 00-1.07 1.04zm28.78 6.11a16.08 16.08 0 00-2.89-4 1.31 1.31 0 00-.89-.37 1.1 1.1 0 00-1.15 1 1.09 1.09 0 00.32.72 17.72 17.72 0 012.54 3.68 1.2 1.2 0 001.08.74 1.13 1.13 0 001.16-1.11 1.43 1.43 0 00-.15-.66zm-.25-8.14a1 1 0 00-.6-.23.82.82 0 00-.85.76.68.68 0 00.22.5c.4.42.91 1 1.33 1.49a.89.89 0 00.71.36.8.8 0 00.82-.78 1 1 0 00-.22-.6 9 9 0 00-1.41-1.5zm-8.5 5.37h-.85c.19-1 .34-2 .44-2.86a.94.94 0 00-.23-.77 1.17 1.17 0 00-.88-.36 1 1 0 00-1.09.93c-.11 1-.28 2.12-.5 3.23-.87.1-1.87.23-2.8.41a1.06 1.06 0 00-.52 1.85 1 1 0 00.85.18c.68-.14 1.35-.25 2-.34a30.36 30.36 0 01-2.71 6.88 1.33 1.33 0 00-.18.6 1 1 0 001.09 1 1.23 1.23 0 001.06-.62 33.72 33.72 0 003-8.1h1.25c.74 0 1.07.28 1.07 2a14.27 14.27 0 01-.46 3.88c-.3 1-.59 1.19-1.17 1.19a7.2 7.2 0 01-.83-.06h-.15a1 1 0 00-.81.22 1.12 1.12 0 00-.36.85 1.06 1.06 0 001 1.07 7.94 7.94 0 001.24.09c1.86 0 2.72-.76 3.3-2.88a16 16 0 00.49-4.33c0-2.99-.88-4.06-3.25-4.06zm5.26-3.4a.76.76 0 00.21.49 12.15 12.15 0 011.32 1.51.82.82 0 101.32-1 9 9 0 00-1.42-1.59.88.88 0 00-.57-.22.84.84 0 00-.86.81zm17.33 4.77v-.16c0-.09 0-.18.07-.29a.76.76 0 000-.21 1 1 0 00-1-.89 1 1 0 00-1 .73c0 .22-.11.43-.18.64a11.59 11.59 0 00-2.46.26l.06-.86c0-.28 0-.57.07-.85 1.7-.14 3-.31 4.08-.5a1 1 0 00.88-1 1 1 0 00-.35-.77 1.08 1.08 0 00-.91-.21c-1 .18-2.22.34-3.46.44.08-.53.17-1.09.25-1.66a.81.81 0 00-.19-.69 1.14 1.14 0 00-.85-.36 1.06 1.06 0 00-1.07.86c-.1.71-.19 1.36-.26 2-.75 0-1.56.07-2.41.07a1 1 0 00-1 1 1 1 0 001 1h2.21c-.07.81-.11 1.55-.13 2.24-3.14 1.46-4.25 3.81-4.25 5.4a2.5 2.5 0 002.64 2.69 4.26 4.26 0 002.22-.58v.1l.06.23a.94.94 0 001 .72 1 1 0 001.1-1 1.86 1.86 0 000-.26c-.09-.33-.16-.67-.23-1a13 13 0 003.44-5.25 3 3 0 012.28 2.83c0 1.58-1 2.67-3.17 3.32a1.09 1.09 0 00-.85 1 1.06 1.06 0 001 1.09 2.91 2.91 0 00.32 0c3.05-.75 4.88-2.78 4.88-5.43a4.8 4.8 0 00-3.79-4.65zM203 72.31a11.67 11.67 0 01-1.75 2.92c-.08-.88-.12-1.68-.12-2.38v-.23a9.36 9.36 0 011.87-.31zm-5.38 5.07c-.53 0-.64-.21-.65-.75A4.05 4.05 0 01199 73.5a30.17 30.17 0 00.25 3.28 3.1 3.1 0 01-1.67.6zM221.09 71a6.18 6.18 0 00-2 .35 40.58 40.58 0 003.4-3.86 1.52 1.52 0 00.34-.91 1.16 1.16 0 00-.41-.9 1.45 1.45 0 00-1.2-.31c-1.72.27-3.63.48-5.08.57a1 1 0 00-1 1 1.11 1.11 0 00.33.81 1 1 0 00.75.26c1.39-.1 2.51-.22 3.41-.36a40.3 40.3 0 01-5.91 5.87 1.17 1.17 0 00-.49.93 1.12 1.12 0 001.11 1.09 1.35 1.35 0 00.82-.31A9.16 9.16 0 01220.9 73c1.57 0 2.63.88 2.63 2.2A3 3 0 01222 78a3.67 3.67 0 00-3.52-2.9 2.35 2.35 0 00-2.6 2.4c0 1.74 1.7 3 4.13 3 3.57 0 5.88-2.06 5.88-5.26-.05-2.6-1.89-4.24-4.8-4.24zm-2.7 5.84q1 0 1.47 1.56c-1.24 0-2-.37-2-1a.56.56 0 01.53-.54zm26.29-9.53h-6.26v-2.26a1.11 1.11 0 00-2.18 0v2.26h-6a1 1 0 000 2h5.42a12.29 12.29 0 01-2.6 7.33 11.2 11.2 0 01-2.78 2.3 1.08 1.08 0 00-.63 1A1.1 1.1 0 00230.7 81a1.29 1.29 0 00.65-.2 12.48 12.48 0 005.88-7.72h3.54a.6.6 0 01.4.09.55.55 0 01.08.36 21.14 21.14 0 01-.58 4c-.19.76-.55 1.08-1.23 1.08a6.06 6.06 0 01-1.37-.18 1.47 1.47 0 00-.27 0 1 1 0 00-1 1.09 1.06 1.06 0 00.87 1 8.15 8.15 0 001.9.2c1.82 0 2.8-.8 3.24-2.68a25.47 25.47 0 00.65-4.7 2.06 2.06 0 00-.46-1.63 2.85 2.85 0 00-2.16-.64h-3.14a15.89 15.89 0 00.21-1.8h6.81a1 1 0 000-2z"/></g></g></svg>