<svg xmlns="http://www.w3.org/2000/svg" viewBox="0 0 317.58 66.86"><defs><style>.cls-1{fill:#fff}.cls-2{fill:#00cde5}</style></defs><g id="レイヤー_2" data-name="レイヤー 2"><g id="design"><path class="cls-1" d="M212.16 44.57a6.36 6.36 0 01.08-.75 10.6 10.6 0 00.13-1.49 6.64 6.64 0 00-.75-2.86l-.07-.15a5.15 5.15 0 00-2.8-2.73 4 4 0 00-1.62-.26 7.86 7.86 0 00-.1-1.11 5.45 5.45 0 01-.05-.75 6.62 6.62 0 00-.19-1.66 1.73 1.73 0 01-.07-.54 3.62 3.62 0 00-3.8-3.86 4.15 4.15 0 00-3.22 1.39 3.77 3.77 0 00-3.17-1.8 2.78 2.78 0 00-1.77.66l-.21.07c-.36.11-.73.23-1.13.32a6.85 6.85 0 01-.91.1c-.37 0-.74.07-1.12.13a6.81 6.81 0 00-1.53.46l-.47.17c-.33 0-.66 0-1 .05s-.74 0-1.06 0L187 30l-.22-.29a4.27 4.27 0 00-3.44-1.41c-3.58 0-4.22 2.45-4.32 3.12a10.73 10.73 0 00-.15 1.27 7.09 7.09 0 01-.12.91c-.08.34-.14.7-.2 1s-.13.73-.23 1.09a3.86 3.86 0 01-.31.72 10.74 10.74 0 00-.53 1.29 4.61 4.61 0 01-.35.72 10 10 0 00-.58 1.22 7.63 7.63 0 00-.38 1.61c0 .18-.06.43-.08.48-.16.36-.3.73-.43 1.09l-.23.6a2.94 2.94 0 00-1.3 2.38 4.47 4.47 0 003.8 4.21 6.38 6.38 0 000 .66 8.59 8.59 0 00.11 1.46 5.4 5.4 0 010 .74 6.72 6.72 0 00.19 1.67 1.7 1.7 0 01.07.53 1.23 1.23 0 01-.06.44 6.12 6.12 0 00-.24 1.76v2.2a6.27 6.27 0 00.21 1.7 1.52 1.52 0 01.06.5A4 4 0 00182.2 66a4.29 4.29 0 003.72-2.24 3 3 0 00.67 0 5.47 5.47 0 001.81-.55l.3-.14c.44-.06.88-.14 1.32-.23l.8-.14h.57a7.13 7.13 0 001.62-.07 11.94 11.94 0 001.34-.34 3.87 3.87 0 004 2.54 4.1 4.1 0 002.66-.73 4 4 0 001.3.47 4.79 4.79 0 002.11-.09 2.92 2.92 0 01.42-.07 2.26 2.26 0 01.43.07 4.09 4.09 0 003.25-.44 4.93 4.93 0 001.78-2.71c0-.16.11-.32.17-.49l.11-.25a9.75 9.75 0 00.7-2.38 11.66 11.66 0 00.09-1.5 7.36 7.36 0 010-.81 7.6 7.6 0 000-1.6 4.68 4.68 0 010-.69c0-.24.08-.48.12-.72a10.42 10.42 0 00.22-1.46 2.32 2.32 0 01.13-.4 5.85 5.85 0 00.44-1.9 5.4 5.4 0 00-.38-2c0-.11-.08-.21-.11-.32s.07-.27.11-.41a6.76 6.76 0 00.26-1.83zm-76.22 8.1a4.21 4.21 0 00-3.19-1.34A4 4 0 00129 53.5c-.05-.11-.1-.22-.16-.33a6.69 6.69 0 00-1-1.34 2.94 2.94 0 01-.45-.53c-.25-.58-.46-1.21-.67-1.83-.11-.33-.18-.68-.27-1s-.13-.59-.21-.89a5.74 5.74 0 01-.12-.8c0-.28-.07-.57-.12-.86h.41a9.33 9.33 0 001.57 0l1.13-.09c.31 0 .62 0 1.3-.11l.14.05a5.2 5.2 0 002.18.27 4.5 4.5 0 003.86-4.48 4.07 4.07 0 00-1.34-3 4.35 4.35 0 00-2.67-1.09 3.83 3.83 0 00.13-1 3.44 3.44 0 00-1.57-2.72l-.23-.18-.06-.06c-.21-.22-.42-.46-.63-.7a12.42 12.42 0 00-2-2 3.39 3.39 0 00-2.67-.55 4.3 4.3 0 00-1.41.23 4.16 4.16 0 00-3.9-2.67 4.36 4.36 0 00-4.38 4.33 3.72 3.72 0 01-.1.51 7 7 0 00-.24 1.75 10.73 10.73 0 00.18 1.59 6.06 6.06 0 01.1.71 10 10 0 00.24 1.58 2.29 2.29 0 01.07.28H116a5.54 5.54 0 00-2 .56.93.93 0 01-.39.11 3.47 3.47 0 00-.52.08l.15-.42c.09-.26.18-.51.28-.76s.23-.5.35-.74a14.41 14.41 0 00.62-1.41l.21-.56c.16-.44.32-.86.45-1.24a2.78 2.78 0 00.63-1.74c0-2.36-2.06-4.14-4.79-4.14-2.3 0-4 1.07-4.56 2.88a5.34 5.34 0 00-.17 1.86 1.74 1.74 0 010 .32c-.18.52-.39 1-.61 1.55l-.1.25c-.13.33-.3.64-.46 1l-.44.88a6.18 6.18 0 01-.43.73c-.22.34-.43.67-.61 1a7.38 7.38 0 00-.55 1.5 3.19 3.19 0 01-.12.45c-.16.26-.31.53-.45.8s-.36.65-.55 1a6.38 6.38 0 01-.6.67c-.25.27-.5.53-.75.84a4.27 4.27 0 00-1 2.7c0 2.27 1.72 4.7 4.29 4.7a4 4 0 001.26-.21v1.05a1.33 1.33 0 01-.08.49 6.22 6.22 0 00-.26 1.86v2.36a7.18 7.18 0 00.19 1.72 2.6 2.6 0 01.09.65l-.06.13a5 5 0 00-.48 2.2c0 2.46 2.4 4.11 4.65 4.11s4.68-1.65 4.68-4.11a4.48 4.48 0 00-.67-2.42v-2.29a2.73 2.73 0 01.07-.71 8.44 8.44 0 00.15-1.64 1.27 1.27 0 01.07-.48 6 6 0 00.28-1.88 4.8 4.8 0 00-.51-2.22v-.13a.75.75 0 01.07-.37 5.6 5.6 0 00.33-2v-.26a4.19 4.19 0 00.61 0l1.27-.1 1.27-.1v.16c.12.59.29 1.17.44 1.74l.18.64c.07.27.13.54.19.81a13 13 0 00.41 1.6 5.16 5.16 0 001.33 2l.22.23c.08.2.15.4.22.59a15.56 15.56 0 00.61 1.44 5.87 5.87 0 01.26.65 8 8 0 00.67 1.52 3.39 3.39 0 01.24.55 6.25 6.25 0 00.88 1.69 5.33 5.33 0 002 1.46c.11 0 .21.1.21.07a2.64 2.64 0 01.35.4 5.19 5.19 0 001.87 1.36 7.71 7.71 0 003.17.76 6.59 6.59 0 003.38-1.06l.25-.14a5.85 5.85 0 002.43-2.23 4.88 4.88 0 00.5-2.31 4.17 4.17 0 010-.56 10.83 10.83 0 00.24-1.82c0-.21 0-.43.05-.67a4.16 4.16 0 00-.97-3.3zm-6.14 2.63zM52.24 35.79v-.29a4 4 0 00-.62-3.15 4.83 4.83 0 00-3.81-1.53 3.24 3.24 0 01-.7-.06 8.73 8.73 0 00-1.51-.12 5.76 5.76 0 01-.76-.05 8.49 8.49 0 00-1.46-.11 4.28 4.28 0 00-2.4.72.93.93 0 01-.3-.06 6.43 6.43 0 00-1.68-.21 8.59 8.59 0 00-1.5.12 4 4 0 01-.68.05v-2.2l.41-.1a6.83 6.83 0 001.64-.67 4.36 4.36 0 01.45-.22c.63-.2 1.34-.43 2.13-.75.17-.07.35-.11.54-.17a9.27 9.27 0 001.56-.55 4.82 4.82 0 003-4.39 5.32 5.32 0 00-1.11-3.72 5.56 5.56 0 00-3.87-1.85 7.72 7.72 0 00-3.08.89 10.33 10.33 0 00-1.16.74 5 5 0 01-.42.28l-.27.11a8.68 8.68 0 01-1.39.49c-.4.09-.81.16-1.27.23a4.59 4.59 0 00-1.68 0h-.27a4.61 4.61 0 00-2.83 1l-.17.06a5.39 5.39 0 00-1.35.74 4 4 0 00-3.33-1.78 6 6 0 01-.74 0 9.64 9.64 0 00-1.34-.08h-1.6v-.21a4.44 4.44 0 00-2-3.75 4.07 4.07 0 00-2.89-.48h-.31a4.61 4.61 0 00-2.73.93l-.17.06c-1.78.62-2.68 1.7-2.68 3.19a.86.86 0 000 .16 8.13 8.13 0 00-1-.06 3.92 3.92 0 00-2.31.74 4.39 4.39 0 00-4.06 4.55A4.48 4.48 0 005.81 29a4.65 4.65 0 000 .48 4.76 4.76 0 00.57 2.18 3.61 3.61 0 00-1-.14C2.66 31.52.6 34.39.6 36.87a4.76 4.76 0 003.32 4.46 5.4 5.4 0 00-1.43 3.92c0 3.31 2.2 4.48 4.08 4.48a.88.88 0 01.45.08c-.14.14-.33.3-.53.48a12.09 12.09 0 00-.92.83 9.49 9.49 0 01-.82.73c-.26.22-.51.43-.75.65a6 6 0 01-.54.32 8.26 8.26 0 00-1.23.77A5.7 5.7 0 000 57.73a5.73 5.73 0 001.72 3.79 5.54 5.54 0 007.1-.09l.12-.1c.52-.41 1.06-.85 1.57-1.32a5.36 5.36 0 00-.26 1.76 3.62 3.62 0 002 3.16h.07l.1.14a3.74 3.74 0 003 1.75 3.79 3.79 0 003-1.72l.09-.11h.08a3.71 3.71 0 002.21-3.22 7.77 7.77 0 01.05-.89 8.72 8.72 0 00.09-1.3l.39.07a8.49 8.49 0 00.16.92v.14A4.29 4.29 0 0023 64a4.91 4.91 0 003.31 1.46A5.47 5.47 0 0031 62.94a10 10 0 00.73-1.53c.09-.22.17-.45.28-.66l.27-.51c.28-.53.57-1.06.81-1.62l.2-.44c.25-.57.5-1.15.72-1.75 0-.08.17-.29.26-.44a6.89 6.89 0 00.84-1.7 8.75 8.75 0 00.28-1.65 4 4 0 01.09-.69v-.24c.17-.66.34-1.35.47-2a5.17 5.17 0 01.21-.63 9.53 9.53 0 00.44-1.58 5.52 5.52 0 00.4 1.71v.11a4 4 0 00-.86 2.52 6.31 6.31 0 00.24 1.79 1.32 1.32 0 01.07.5c0 .66 0 1 .05 1.32s0 .48 0 1a5.36 5.36 0 00.34 2v.16a4.21 4.21 0 00-.63 2.39 4.77 4.77 0 002.25 3.68 3.75 3.75 0 003.14.56h.21a4.55 4.55 0 003-.89A3.75 3.75 0 0046.56 61a9.08 9.08 0 00-.1-1.48 6.39 6.39 0 01-.06-.84l.05-.13a4.91 4.91 0 00.45-2.13 7.46 7.46 0 00-.18-1.69 2.1 2.1 0 01-.07-.6 2.78 2.78 0 01.06-.64 7.3 7.3 0 00.17-1.65 6.31 6.31 0 00-.24-1.84 1.53 1.53 0 01-.07-.49 2.89 2.89 0 01.07-.66 7.21 7.21 0 00.16-1.63 7.33 7.33 0 00-.15-1.6 3.1 3.1 0 01-.06-.68 1.48 1.48 0 01.07-.54 6.91 6.91 0 00.21-1.74V41a3.31 3.31 0 001 .14 5.18 5.18 0 003.8-2 4.09 4.09 0 00.63-3.07.706.706 0 01-.06-.28zm-27 14.56l-.08-.06.22-.08zm2-20.1a.83.83 0 000 .12 4.17 4.17 0 00-.72 1.37 3.57 3.57 0 00-.92-.12 5.53 5.53 0 00-1.67.23c.12-.31.25-.62.36-1a3.13 3.13 0 00.13-1.63v-.09a.17.17 0 000-.07 4.24 4.24 0 002.43-.9v.06a5.48 5.48 0 00.39 2.03zm9.68 10.88a1.5 1.5 0 000 .24c-.07-.26-.14-.49-.21-.7 0-.05 0-.1-.05-.15a.47.47 0 01.05-.1H37a3.35 3.35 0 01-.08.71zm58.9 1.8a3.84 3.84 0 00-3.7-3.79 5.09 5.09 0 00.6-2.57A3.5 3.5 0 0089 32.75h-2.58a5.17 5.17 0 00.06-.82 4.17 4.17 0 10-8.32 0v.24a6.33 6.33 0 00-1.74.25 1.33 1.33 0 01-.45.06 4.3 4.3 0 00-2.3.67 4.37 4.37 0 00-2.31-2.52 7.6 7.6 0 00-2.94-.41h-1.47c-.37 0-.87-.05-1.74-.05a4.65 4.65 0 00-2.64.9c-.07 0-.13.08-.11.08A4.2 4.2 0 0060 33.67a6.77 6.77 0 00-.47 2.69 2.59 2.59 0 01-.06.62 7.36 7.36 0 00-.15 1.56v1.23a9.31 9.31 0 010 1 4.65 4.65 0 00-.49 2.13 4.79 4.79 0 00.52 2.2v2.21a4.77 4.77 0 00-.46 2.1 5.76 5.76 0 00.25 1.77.91.91 0 01.06.4.66.66 0 010 .29 5.44 5.44 0 00-.31 1.87 7.07 7.07 0 00.64 2.75v.12a4.72 4.72 0 002.78 2.52l.21.11a5.19 5.19 0 002.6.78 14.49 14.49 0 002.41-.16c.25 0 .55-.08 1-.12a6.34 6.34 0 002.35-.62l.22-.1a4.55 4.55 0 002.57-2.17v.05l.19.19a4.54 4.54 0 01.51.83 12.27 12.27 0 00.78 1.28 4.12 4.12 0 002 1.42 4.31 4.31 0 003.26 4.51 4.89 4.89 0 00.83.07 6.85 6.85 0 001.85-.2 3.26 3.26 0 011.22-.12 5.78 5.78 0 002.6-.36 5.08 5.08 0 003-2.68 5.44 5.44 0 00.26-2.55v-.66a1 1 0 01.07-.42 5.93 5.93 0 00.28-1.87 13.35 13.35 0 00-.06-1.37V53.9h.6a3.52 3.52 0 003.61-3.9 3.57 3.57 0 00-1.55-3.31 4.09 4.09 0 002.7-3.76zm147.83 4.01c.49-.12.95-.23 1.37-.37a4.38 4.38 0 003-4.17 4.76 4.76 0 00-3.65-4.61 4.67 4.67 0 00.35-1.81 4.36 4.36 0 00-4.18-4.49 2.56 2.56 0 00-1.76.69 5.45 5.45 0 00-1.48.15c-.33.08-.67.14-1 .2l-.72.14a4.43 4.43 0 00-.12-1.17c-.17-.71-1-3-4.39-3-2.56 0-4.34 1.59-4.34 3.86a2.64 2.64 0 00.28 1.19v.55a7.17 7.17 0 00-1.32 0 6.7 6.7 0 00-1.69.42 1.66 1.66 0 00-.29.12 4.24 4.24 0 00-4.24 4.09 4.37 4.37 0 001.78 3.36 4.31 4.31 0 00-1.5 3.59 4.17 4.17 0 001.25 3.13 3.67 3.67 0 002 .95l-.23.21-.14.13-.33.3a5.72 5.72 0 00-1.76 2.18 6.45 6.45 0 00-.35 2.71v.43a8.08 8.08 0 00.77 3.2l.1.27a6.65 6.65 0 001.74 2.7 5 5 0 002.39 1 3.21 3.21 0 01.55.13 2.12 2.12 0 01.41.23 7 7 0 002.14.89 7.31 7.31 0 001.89.07 4.54 4.54 0 01.74 0h.37c.59.05 1.26.1 2 .11l.2.08a4.6 4.6 0 001.79.43h.16a9.47 9.47 0 001.58-.24 1.87 1.87 0 01.4-.08c1.68-.16 3.64-1.41 3.64-4.42a4.93 4.93 0 00-.9-3h.65a4.38 4.38 0 004.32-4.52 4.45 4.45 0 00-1.13-3 3.14 3.14 0 01-.29-.54 8 8 0 00-.8-1.37c-.13-.17-.28-.34-.42-.51l.43-.1zm-11.47 8.82a6 6 0 002.1-.39l.4-.12a5.34 5.34 0 01.5.23l.58.27h-.11c-.21 0-.42.07-.64.08a4.64 4.64 0 00-1.51.36h-.08l-.12-.06a6.65 6.65 0 00-1.12-.37zM286 33.69a10 10 0 00-1.6.12 4.58 4.58 0 01-.87.07A12.24 12.24 0 00282 34h-1a.94.94 0 01-.46-.08 6 6 0 00-2-.32 6.1 6.1 0 01-.92-.06 9.79 9.79 0 00-1.54-.1 4.72 4.72 0 00.31-1.72c0-2.29-1.93-3.9-4.7-3.9-2.53 0-4.3 1.61-4.3 3.9a.63.63 0 01-.07.34 5.77 5.77 0 00-.34 1.78 5 5 0 00-2-.38 5.14 5.14 0 00-2.19.47h-2.57a5.29 5.29 0 01-.86-.06 11 11 0 00-1.52-.1A3.92 3.92 0 00254 38a3.93 3.93 0 003.9 4.2 2.06 2.06 0 01.54.06 7 7 0 001.61.18h2.14a4.92 4.92 0 002-.39h.16a5.72 5.72 0 01.75.05 4.53 4.53 0 00.47 0l-.15.76c-.06.24-.11.49-.16.74a5.36 5.36 0 00.06 2v.29l-.1.4a13.76 13.76 0 01-.42 1.39c0 .09-.22.33-.33.49a8.79 8.79 0 00-.78 1.21c-.15.3-.28.62-.42.93a5.48 5.48 0 01-.36.79c-.09.08-.2.15-.31.23a6.05 6.05 0 00-1.26 1.09 7 7 0 00-.88 1.37c-.08.16-.2.38-.2.4a5.64 5.64 0 01-.76.49c-.35.21-.69.42-1 .66a4.66 4.66 0 01-.72.37 9.12 9.12 0 00-1.12.58 4.68 4.68 0 00-2.29 4.17 4.4 4.4 0 004.49 4.3 3.51 3.51 0 002.09-.75l.17-.12c.71-.41 1.32-.83 1.84-1.19l.28-.08a4.9 4.9 0 002.06-.94c.52-.44 1-.91 1.4-1.33l.32-.33a5 5 0 001.12-1.91c0-.09.07-.19.12-.29.49-.59.9-1.11 1.31-1.7a2.15 2.15 0 01.24-.18 5 5 0 001.57-1.63 7 7 0 00.62-1.68 2.9 2.9 0 01.18-.57c.24-.56.42-1.1.6-1.62l.2-.58a2.16 2.16 0 01.17-.3l.1-.17a2.52 2.52 0 01.46 0 2.31 2.31 0 01.64.07 7.71 7.71 0 001.7.18h.95v.25c0 .53-.12 1.07-.2 1.6v.27a3.32 3.32 0 01-.17.51 8 8 0 00-.39 1.29 6.59 6.59 0 00-.08 1.54v.34a1.92 1.92 0 01-.23.25 5.06 5.06 0 01-1.2-.21c-.3-.08-.64-.17-1.06-.26a3.33 3.33 0 00-1.24 0 4.26 4.26 0 00-3.95 4.51 4.09 4.09 0 003.36 4.09l.52.14a7.28 7.28 0 001.49.34l.29.09a5.46 5.46 0 001.85.37 7.67 7.67 0 002.44-.46l.41-.12a7.63 7.63 0 003-1.45 5.47 5.47 0 001.44-2.26c.07-.17.13-.33.21-.49a3.15 3.15 0 01.22-.33 6 6 0 001-2.14c.15-.62.28-1.28.4-1.95l.08-.44a5.65 5.65 0 00-.11-2.16 1.55 1.55 0 00-.09-.31 5.59 5.59 0 01.18-.54 6.52 6.52 0 00.46-1.81 7.59 7.59 0 00-.07-1.77 3.53 3.53 0 01-.06-.65c0-.24 0-.47.07-.69a4.79 4.79 0 00-.37-3.12 4.31 4.31 0 00-3-2 8.1 8.1 0 00.85-.13 2.13 2.13 0 01.61-.07 4.18 4.18 0 01.76.06 10.19 10.19 0 001.46.1c.61 0 3.66-.19 3.66-4 .1-4.22-3.18-4.34-3.54-4.34z"/><path class="cls-2" d="M13 53.34a33.74 33.74 0 01-5.79 6.08 2.82 2.82 0 01-1.79.7A2.37 2.37 0 014 55.78a37.58 37.58 0 007.53-8.23H6.57a2.06 2.06 0 01-1.84-2.3A2.05 2.05 0 016.57 43h6.24v-3.8H5.33a2.06 2.06 0 01-1.85-2.29 2.06 2.06 0 011.85-2.3h10.33A43 43 0 0017.8 29a2.25 2.25 0 012.25-1.69 2.32 2.32 0 012.44 2.14 2 2 0 01-.15.75 59.32 59.32 0 01-1.69 4.39h5c1.24 0 1.84 1.15 1.84 2.3s-.6 2.29-1.84 2.29H17.9V43H24c1.25 0 1.85 1.14 1.85 2.29s-.6 2.3-1.85 2.3h-6.1v2a29.46 29.46 0 015.64 3.2 2.47 2.47 0 011.15 2.09 2.42 2.42 0 01-2.35 2.4 2.24 2.24 0 01-1.39-.5c-.95-.7-2-1.4-3.05-2.1v7.14a2.27 2.27 0 01-2.54 2.15 2.3 2.3 0 01-2.55-2.15v-2.59zm-.3-34.29c0-1.39 1.35-2 2.65-2s2.64.65 2.64 2v3.1h6.24c1.25 0 1.85 1.14 1.85 2.29s-.6 2.3-1.85 2.3H6.77a2.06 2.06 0 01-1.84-2.3 2.05 2.05 0 011.84-2.29h5.94zm1.5 13a2.28 2.28 0 01-2.4 2.09 2.23 2.23 0 01-2.14-1.44c-.35-.75-.55-1.2-1-2.2a2 2 0 01-.25-1.05 2.18 2.18 0 012.35-2A2.45 2.45 0 0113 28.88c.4.85.65 1.35 1.05 2.35a2.54 2.54 0 01.16.85zm15.07-8.49c0-1.44 1.35-2.14 2.64-2.14a3.08 3.08 0 011.7.45A16.71 16.71 0 0039.72 20a4.24 4.24 0 011.74-.52A2.56 2.56 0 0144 22.07a2.43 2.43 0 01-1.49 2.25 28.44 28.44 0 01-7.89 2.52v6.63h13.22a2.08 2.08 0 012 2.3 2.09 2.09 0 01-2 2.34h-3.39V61a2.37 2.37 0 01-2.64 2.25A2.4 2.4 0 0139.16 61V38.11h-4.64c-.3 10.29-2.35 17.89-5.79 23.41A2.85 2.85 0 0126.29 63a2.48 2.48 0 01-2.6-2.4 3.42 3.42 0 01.6-1.74c3.24-5 5-12.33 5-23.56zm35.94 33.69c-2.52 0-3.5-1.08-3.5-3.53V36.36c0-2.45 1-3.53 3.5-3.53h3.21c2.58 0 3.58 1.08 3.58 3.53v17.36c0 2.52-1 3.5-3.53 3.53zm3.21-20c0-.77-.17-1-.87-1h-1.47c-.66 0-.84.25-.84 1v5.69h3.18zm-.87 16.7c.7 0 .87-.25.87-1v-6.74h-3.18v6.68c0 .62.11 1 .84 1zm12.89-15.7H76a1.69 1.69 0 010-3.36h4.47v-3a1.89 1.89 0 013.74 0v3H89a1.69 1.69 0 010 3.36h-4.82v3h7.37a1.69 1.69 0 010 3.35H74.26a1.68 1.68 0 010-3.35h6.18zM74.82 51.7a1.71 1.71 0 010-3.39h9.25v-1.5A1.7 1.7 0 0186 45.2a1.68 1.68 0 011.85 1.61v1.5H91a1.71 1.71 0 010 3.39h-3.19v6.88c0 3-1.33 4.09-4 4.09a13.07 13.07 0 01-2.81-.25 1.74 1.74 0 01-1.39-1.78 1.7 1.7 0 012.06-1.78 6.58 6.58 0 001.46.14c.67 0 .91-.21.91-.87V51.7zm5.62 3.67a1.88 1.88 0 01.38 1 2 2 0 01-1.95 1.86 1.66 1.66 0 01-1.37-.74 18.78 18.78 0 00-1.78-2.13 1.66 1.66 0 01-.45-1.12 1.8 1.8 0 011.82-1.67 2.06 2.06 0 011.29.52 10.29 10.29 0 012.06 2.28zm26.77-10.24a28.88 28.88 0 01-1.85 2.55 2 2 0 01-1.54.8 2 2 0 01-2-1.85 2.05 2.05 0 01.49-1.29A42.36 42.36 0 00109.06 32a1.85 1.85 0 011.85-1.33 1.93 1.93 0 012.1 1.78 2 2 0 01-.11.6 46.62 46.62 0 01-3.45 8.28 1.57 1.57 0 011.57 1.5v18.79c0 .94-1 1.43-1.89 1.43s-1.92-.49-1.92-1.43zm25-5.42c1-.1 1.57.88 1.57 1.82a1.46 1.46 0 01-1.26 1.64L123 44a36.4 36.4 0 002.23 8.18c2 4.64 3.57 5.8 4.61 5.8.46 0 .88-.46 1.12-2.73a1.67 1.67 0 011.75-1.57 1.88 1.88 0 012 2.1c-.49 4.85-2.31 6.32-4.65 6.32-3.08 0-6-2.94-8.53-8.88a39.76 39.76 0 01-2.41-8.9l-5.1.45c-1 .11-1.57-.87-1.57-1.78a1.49 1.49 0 011.26-1.64l5-.46a85.86 85.86 0 01-.42-8.73c0-1.09 1-1.61 2-1.61s2 .52 2 1.61a79.34 79.34 0 00.38 8.38zm-2.93-4.64a2.11 2.11 0 01.62 1.36 2 2 0 01-1.9 1.89 1.74 1.74 0 01-1.26-.63 17.64 17.64 0 00-2.38-2.27 1.55 1.55 0 01-.62-1.19 1.86 1.86 0 011.81-1.75 1.92 1.92 0 011.15.42 22.59 22.59 0 012.56 2.17zM146 54.68a9.74 9.74 0 01.21-2.17 9.26 9.26 0 01.78-2 9.59 9.59 0 011.29-1.71 10 10 0 011.3-1.73 11.4 11.4 0 011.73-1.34 12.1 12.1 0 012-.91 13.15 13.15 0 012.14-.55 14.21 14.21 0 012.19-.15 12 12 0 012.08.44 10.12 10.12 0 012 .51 9.43 9.43 0 011.94.82 8.68 8.68 0 011.65 1.35c.46.52.49 1.33.8 2a8.53 8.53 0 01.74 1.9 9.65 9.65 0 01.3 2 10.16 10.16 0 01-.25 2 9.25 9.25 0 01-.41 2 8.49 8.49 0 01-1.02 1.86 9.1 9.1 0 01-1.39 1.58 10.47 10.47 0 01-1.93.82 10.61 10.61 0 01-1.91.72c-.2.08-.32.37-.49.37-.85 0-1.2-.73-1.2-1.45a1.21 1.21 0 01.87-1.32 9.52 9.52 0 001.85-1.2c.68-.42 1.54-.55 2-1.09a5.93 5.93 0 001-2 8.17 8.17 0 00.07-2.23 6.39 6.39 0 00-.46-2.32 5.63 5.63 0 00-1.26-2 5.88 5.88 0 00-1.9-1.42 6.72 6.72 0 00-2.23-.37c0 .75 0 1.37-.08 2.09s-.7 1.39-.85 2.1.06 1.55-.15 2.24-.48 1.44-.75 2.1a16.13 16.13 0 01-1.12 1.92 8.41 8.41 0 01-1.14 1.66 4.84 4.84 0 01-1.57 1.31 5.57 5.57 0 01-2 0 4.23 4.23 0 01-2-.39 4.28 4.28 0 01-1.5-1.41 5.79 5.79 0 01-.83-1.9 8 8 0 01-.5-2.13zm3 0a5.16 5.16 0 00.34 1.94c.35.83.83 1.21 1.4 1.21a2.62 2.62 0 002.36-1.57 20 20 0 00.8-2.26 22.65 22.65 0 00.59-2.3c.19-.74.31-1.51.44-2.32s.25-1.34.32-2.15a6.24 6.24 0 00-1.77.73 7.84 7.84 0 00-1.92 1 6.58 6.58 0 00-2.18 3.67 7.34 7.34 0 00-.38 2.05z"/><path class="cls-2" d="M146 54.68a9.74 9.74 0 01.21-2.17 9.26 9.26 0 01.78-2 9.59 9.59 0 011.29-1.71 10 10 0 011.3-1.73 11.4 11.4 0 011.73-1.34 12.1 12.1 0 012-.91 13.15 13.15 0 012.14-.55 14.21 14.21 0 012.19-.15 12 12 0 012.08.44 10.12 10.12 0 012 .51 9.43 9.43 0 011.94.82 8.68 8.68 0 011.65 1.35c.46.52.49 1.33.8 2a8.53 8.53 0 01.74 1.9 9.65 9.65 0 01.3 2 10.16 10.16 0 01-.25 2 9.25 9.25 0 01-.41 2 8.49 8.49 0 01-1.02 1.86 9.1 9.1 0 01-1.39 1.58 10.47 10.47 0 01-1.93.82 10.61 10.61 0 01-1.91.72c-.2.08-.32.37-.49.37-.85 0-1.2-.73-1.2-1.45a1.21 1.21 0 01.87-1.32 9.52 9.52 0 001.85-1.2c.68-.42 1.54-.55 2-1.09a5.93 5.93 0 001-2 8.17 8.17 0 00.07-2.23 6.39 6.39 0 00-.46-2.32 5.63 5.63 0 00-1.26-2 5.88 5.88 0 00-1.9-1.42 6.72 6.72 0 00-2.23-.37c0 .75 0 1.37-.08 2.09s-.7 1.39-.85 2.1.06 1.55-.15 2.24-.48 1.44-.75 2.1a16.13 16.13 0 01-1.12 1.92 8.41 8.41 0 01-1.14 1.66 4.84 4.84 0 01-1.57 1.31 5.57 5.57 0 01-2 0 4.23 4.23 0 01-2-.39 4.28 4.28 0 01-1.5-1.41 5.79 5.79 0 01-.83-1.9 8 8 0 01-.5-2.13zm3 0a5.16 5.16 0 00.34 1.94c.35.83.83 1.21 1.4 1.21a2.62 2.62 0 002.36-1.57 20 20 0 00.8-2.26 22.65 22.65 0 00.59-2.3c.19-.74.31-1.51.44-2.32s.25-1.34.32-2.15a6.24 6.24 0 00-1.77.73 7.84 7.84 0 00-1.92 1 6.58 6.58 0 00-2.18 3.67 7.34 7.34 0 00-.38 2.05zm31.35-8.26a2.07 2.07 0 01-1.75 1.16 1.72 1.72 0 01-1.71-1.72 2.28 2.28 0 01.32-1 42.89 42.89 0 004.29-12.92 1.71 1.71 0 011.82-1.4 1.77 1.77 0 011.89 2.13 46.94 46.94 0 01-2.48 8.88 1.38 1.38 0 011.27 1.31v18.87c0 .94-.87 1.39-1.78 1.39s-1.78-.45-1.78-1.39V46.32zm8.88 5c-2.31 0-3.32-1-3.32-3.18v-4.58c0-2.16 1-3.18 3.32-3.18h1.25v-1.32h-4.4a1.32 1.32 0 01-1.22-1.44 1.29 1.29 0 011.22-1.43h4.4V35c-.94.14-1.85.21-2.72.28a1.5 1.5 0 01-1.64-1.54 1.39 1.39 0 011.39-1.43 49.82 49.82 0 008.49-1.4 1.39 1.39 0 01.53-.07 1.52 1.52 0 011.5 1.57 1.49 1.49 0 01-1.26 1.47c-1 .24-2.06.45-3.14.66v1.75h4.12a1.35 1.35 0 011.4 1.43 1.37 1.37 0 01-1.4 1.44h-4.12v1.32H195c2.3 0 3.31 1 3.31 3.18v4.58c0 2.17-1 3.18-3.31 3.18h-1.33v1.36h3a1.41 1.41 0 010 2.8h-3v1.36c.84-.14 1.64-.28 2.37-.42a1.42 1.42 0 11.67 2.76A78.59 78.59 0 01186.33 61a1.53 1.53 0 01-1.68-1.61 1.42 1.42 0 011.4-1.5c1.43-.11 2.93-.28 4.43-.49v-1.82h-3.28a1.41 1.41 0 010-2.8h3.28v-1.36zm.1-8.28c-.42 0-.56.14-.56.56v1h1.89v-1.56zm1.33 5.62v-1.67h-1.89v1.11c0 .39.18.56.56.56zm4.75-5.06c0-.42-.14-.56-.56-.56h-1.4v1.57h2zm-.56 5.06c.42 0 .56-.14.56-.56v-1.11h-2v1.67zm9.75-6.67c-.18 8.32-1.71 14.64-4.79 19.56a1.85 1.85 0 01-1.57 1 1.64 1.64 0 01-1.71-1.54 2 2 0 01.31-1c2.87-4.65 4.23-10.27 4.4-17.89h-1.15c-.87 0-1.33-.83-1.33-1.67s.39-1.54 1.3-1.54h1.18v-6.74a1.7 1.7 0 013.36 0v6.61h1.26c2.58-.07 3.7 1 3.7 3.49a112.2 112.2 0 01-.84 15.45c-.45 3.28-1.75 4.4-3.88 4.4a9 9 0 01-2-.21 1.72 1.72 0 01.52-3.39 4.73 4.73 0 001 .14c.6 0 .88-.28 1.05-1.29a94.89 94.89 0 00.84-14.57c0-.63-.17-.8-.77-.8zm32.45 8.07c-.77-1.08-1.68-2.45-2.58-3.95a98.4 98.4 0 01-10.73 1.23 1.71 1.71 0 01-1.82-1.79 1.63 1.63 0 011.61-1.71c3-.14 6.22-.52 9.33-1-.52-1.11-1-2.23-1.43-3.35-2.59.42-5.14.73-7.34.87a1.66 1.66 0 01-1.78-1.78 1.56 1.56 0 011.5-1.68c1.89-.1 4.16-.35 6.43-.7-.39-1.18-.74-2.37-1-3.52a1.83 1.83 0 01-.07-.46 1.94 1.94 0 013.73-.24c.32 1.18.67 2.41 1 3.6a52.57 52.57 0 006-1.4 2 2 0 01.63-.11 1.78 1.78 0 011.8 1.83 1.53 1.53 0 01-1.19 1.5c-1.75.52-3.84 1.05-6.11 1.5.42 1.12.9 2.24 1.39 3.32a67.82 67.82 0 006.75-1.64 1.73 1.73 0 01.56-.11 1.86 1.86 0 011.78 1.85 1.67 1.67 0 01-1.3 1.58 54.8 54.8 0 01-6.08 1.53 43.4 43.4 0 004.06 5.66 2.19 2.19 0 01.52 1.44 1.86 1.86 0 01-1.92 1.85 2.88 2.88 0 01-.91-.18 21.9 21.9 0 00-7.58-1.36c-4.3 0-5.52 1.26-5.52 2.72 0 1.68 1.5 2.84 6.6 2.84 1.44 0 2.41-.07 3.46-.14a1.77 1.77 0 012.06 1.78 1.79 1.79 0 01-1.74 1.78c-1 .1-2.24.17-3.74.17-7.37 0-10.66-2.3-10.66-6.35 0-3.6 3-6 9.5-6a17.94 17.94 0 014.76.56zm32.76-18.45a1.72 1.72 0 011.92-1.57c1 0 1.92.52 1.92 1.57v4.58H286a1.76 1.76 0 010 3.49h-13.4a36.3 36.3 0 01-.45 3.88h6.32c3.5 0 5 1.15 4.89 4.19a50.31 50.31 0 01-1.25 9.09c-.88 3.67-2.76 5.06-6.11 5.06a15.37 15.37 0 01-3.63-.38 1.86 1.86 0 01-1.54-1.82 1.83 1.83 0 011.82-1.92 3.39 3.39 0 01.49.07 11.47 11.47 0 002.69.35c1.32 0 2.16-.56 2.58-2.23a39.59 39.59 0 001.12-7.9c0-.8-.21-1.08-1.12-1.08h-7a24.1 24.1 0 01-11.36 15 2.3 2.3 0 01-1.15.35 1.9 1.9 0 01-.8-3.63 22.64 22.64 0 005.45-4.51c3.42-4 4.78-9.37 5.1-14.54h-10.76a1.77 1.77 0 010-3.49h11.92zm37.83 15.39c-.66.09-1.33.55-2.07.65s-1.38.3-2.1.41-1.44-.11-2.16 0-1.43.05-2.13.16-1.38.53-2.07.64a1.44 1.44 0 01-1.63-1.51 1.41 1.41 0 011.25-1.5c.68-.09 1.37-.27 2.09-.36s1.41 0 2.12-.06 1.4-.09 2.11-.17l2.1-.24c.7-.08 1.39-.28 2.09-.35s1.4-.31 2.1-.38 1.44.12 2.13 0 1.43 0 2.11-.09a1.46 1.46 0 011.74 1.21 1.72 1.72 0 01-1.38 1.49 8.17 8.17 0 00-2.82.77 11.39 11.39 0 00-1.66 1.56 9.29 9.29 0 00-1.63 1.51 6.16 6.16 0 00-.89 2 8.07 8.07 0 00-.6 2.19A4.68 4.68 0 00307 57a3.94 3.94 0 001.26 1.47 5.68 5.68 0 001.69 1 10 10 0 002 .36 1.46 1.46 0 011.24 1.58 1.54 1.54 0 01-1.55 1.67 10 10 0 01-2-.73 9.56 9.56 0 01-1.94-.61 8.26 8.26 0 01-1.63-1.22 7.3 7.3 0 01-1.23-1.52 6.86 6.86 0 01-.93-1.78 7.35 7.35 0 01-.17-2 8.52 8.52 0 01.37-2.19 9 9 0 01.78-2.07 10.33 10.33 0 011-2 10.83 10.83 0 011.56-1.63c.13-.21.22-.23.19-.23zm3.9 4.24c0-.5.28-1.1.83-1.1a1.44 1.44 0 01.87.24 13.11 13.11 0 011.76 2.39c.18.23.06.41.06.64 0 .55-.25 1.1-.78 1.1-.3 0-.57-.27-.79-.6a18 18 0 00-2-2c-.19-.21.05-.5.05-.67zm2.47-2c0-.5.26-1.07.83-1.07a1.57 1.57 0 01.91.25 13.18 13.18 0 011.71 2.28c.2.25.1.46.1.71 0 .55-.24 1.06-.77 1.06a1.25 1.25 0 01-.85-.58c-.57-.72-1.39-1.36-2-2-.17-.16.06-.45.06-.65z"/><path class="cls-2" d="M307.64 47.1c-.66.09-1.33.55-2.07.65s-1.38.3-2.1.41-1.44-.11-2.16 0-1.43.05-2.13.16-1.38.53-2.07.64a1.44 1.44 0 01-1.63-1.51 1.41 1.41 0 011.25-1.5c.68-.09 1.37-.27 2.09-.36s1.41 0 2.12-.06 1.4-.09 2.11-.17l2.1-.24c.7-.08 1.39-.28 2.09-.35s1.4-.31 2.1-.38 1.44.12 2.13 0 1.43 0 2.11-.09a1.46 1.46 0 011.74 1.21 1.72 1.72 0 01-1.38 1.49 8.17 8.17 0 00-2.82.77 11.39 11.39 0 00-1.66 1.56 9.29 9.29 0 00-1.63 1.51 6.16 6.16 0 00-.89 2 8.07 8.07 0 00-.6 2.19A4.68 4.68 0 00307 57a3.94 3.94 0 001.26 1.47 5.68 5.68 0 001.69 1 10 10 0 002 .36 1.46 1.46 0 011.24 1.58 1.54 1.54 0 01-1.55 1.67 10 10 0 01-2-.73 9.56 9.56 0 01-1.94-.61 8.26 8.26 0 01-1.63-1.22 7.3 7.3 0 01-1.23-1.52 6.86 6.86 0 01-.93-1.78 7.35 7.35 0 01-.17-2 8.52 8.52 0 01.37-2.19 9 9 0 01.78-2.07 10.33 10.33 0 011-2 10.83 10.83 0 011.56-1.63c.13-.21.22-.23.19-.23zm3.9 4.24c0-.5.28-1.1.83-1.1a1.44 1.44 0 01.87.24 13.11 13.11 0 011.76 2.39c.18.23.06.41.06.64 0 .55-.25 1.1-.78 1.1-.3 0-.57-.27-.79-.6a18 18 0 00-2-2c-.19-.21.05-.5.05-.67zm2.47-2c0-.5.26-1.07.83-1.07a1.57 1.57 0 01.91.25 13.18 13.18 0 011.71 2.28c.2.25.1.46.1.71 0 .55-.24 1.06-.77 1.06a1.25 1.25 0 01-.85-.58c-.57-.72-1.39-1.36-2-2-.17-.16.06-.45.06-.65z"/><path class="cls-1" d="M146 54.68a9.74 9.74 0 01.21-2.17 9.26 9.26 0 01.78-2 9.59 9.59 0 011.29-1.71 10 10 0 011.3-1.73 11.4 11.4 0 011.73-1.34 12.1 12.1 0 012-.91 13.15 13.15 0 012.14-.55 14.21 14.21 0 012.19-.15 12 12 0 012.08.44 10.12 10.12 0 012 .51 9.43 9.43 0 011.94.82 8.68 8.68 0 011.65 1.35c.46.52.49 1.33.8 2a8.53 8.53 0 01.74 1.9 9.65 9.65 0 01.3 2 10.16 10.16 0 01-.25 2 9.25 9.25 0 01-.41 2 8.49 8.49 0 01-1.02 1.86 9.1 9.1 0 01-1.39 1.58 10.47 10.47 0 01-1.93.82 10.61 10.61 0 01-1.91.72c-.2.08-.32.37-.49.37-.85 0-1.2-.73-1.2-1.45a1.21 1.21 0 01.87-1.32 9.52 9.52 0 001.85-1.2c.68-.42 1.54-.55 2-1.09a5.93 5.93 0 001-2 8.17 8.17 0 00.07-2.23 6.39 6.39 0 00-.46-2.32 5.63 5.63 0 00-1.26-2 5.88 5.88 0 00-1.9-1.42 6.72 6.72 0 00-2.23-.37c0 .75 0 1.37-.08 2.09s-.7 1.39-.85 2.1.06 1.55-.15 2.24-.48 1.44-.75 2.1a16.13 16.13 0 01-1.12 1.92 8.41 8.41 0 01-1.14 1.66 4.84 4.84 0 01-1.57 1.31 5.57 5.57 0 01-2 0 4.23 4.23 0 01-2-.39 4.28 4.28 0 01-1.5-1.41 5.79 5.79 0 01-.83-1.9 8 8 0 01-.5-2.13zm3 0a5.16 5.16 0 00.34 1.94c.35.83.83 1.21 1.4 1.21a2.62 2.62 0 002.36-1.57 20 20 0 00.8-2.26 22.65 22.65 0 00.59-2.3c.19-.74.31-1.51.44-2.32s.25-1.34.32-2.15a6.24 6.24 0 00-1.77.73 7.84 7.84 0 00-1.92 1 6.58 6.58 0 00-2.18 3.67 7.34 7.34 0 00-.38 2.05zm158.64-7.58c-.66.09-1.33.55-2.07.65s-1.38.3-2.1.41-1.44-.11-2.16 0-1.43.05-2.13.16-1.38.53-2.07.64a1.44 1.44 0 01-1.63-1.51 1.41 1.41 0 011.25-1.5c.68-.09 1.37-.27 2.09-.36s1.41 0 2.12-.06 1.4-.09 2.11-.17l2.1-.24c.7-.08 1.39-.28 2.09-.35s1.4-.31 2.1-.38 1.44.12 2.13 0 1.43 0 2.11-.09a1.46 1.46 0 011.74 1.21 1.72 1.72 0 01-1.38 1.49 8.17 8.17 0 00-2.82.77 11.39 11.39 0 00-1.66 1.56 9.29 9.29 0 00-1.63 1.51 6.16 6.16 0 00-.89 2 8.07 8.07 0 00-.6 2.19A4.68 4.68 0 00307 57a3.94 3.94 0 001.26 1.47 5.68 5.68 0 001.69 1 10 10 0 002 .36 1.46 1.46 0 011.24 1.58 1.54 1.54 0 01-1.55 1.67 10 10 0 01-2-.73 9.56 9.56 0 01-1.94-.61 8.26 8.26 0 01-1.63-1.22 7.3 7.3 0 01-1.23-1.52 6.86 6.86 0 01-.93-1.78 7.35 7.35 0 01-.17-2 8.52 8.52 0 01.37-2.19 9 9 0 01.78-2.07 10.33 10.33 0 011-2 10.83 10.83 0 011.56-1.63c.13-.21.22-.23.19-.23zm3.9 4.24c0-.5.28-1.1.83-1.1a1.44 1.44 0 01.87.24 13.11 13.11 0 011.76 2.39c.18.23.06.41.06.64 0 .55-.25 1.1-.78 1.1-.3 0-.57-.27-.79-.6a18 18 0 00-2-2c-.19-.21.05-.5.05-.67zm2.47-2c0-.5.26-1.07.83-1.07a1.57 1.57 0 01.91.25 13.18 13.18 0 011.71 2.28c.2.25.1.46.1.71 0 .55-.24 1.06-.77 1.06a1.25 1.25 0 01-.85-.58c-.57-.72-1.39-1.36-2-2-.17-.16.06-.45.06-.65zM54.39 27a1.24 1.24 0 01-1.24-1.25c0-6.75-2.66-11-6.93-11a1.25 1.25 0 110-2.49c4.27 0 6.93-4.2 6.93-10.95a1.25 1.25 0 112.49 0c0 6.75 2.66 11 6.93 11a1.25 1.25 0 010 2.49c-4.27 0-6.93 4.2-6.93 11a1.25 1.25 0 01-1.25 1.2zm-3.78-13.41a10 10 0 013.78 4.88 10.06 10.06 0 013.79-4.88 10.13 10.13 0 01-3.79-4.89 10.06 10.06 0 01-3.78 4.89zm20.01 1.1a1.25 1.25 0 01-1.25-1.25c0-2.34-.75-4.85-2.84-4.85a1.25 1.25 0 110-2.49c2.09 0 2.84-2.51 2.84-4.85a1.25 1.25 0 112.49 0c0 2.34.75 4.85 2.84 4.85a1.25 1.25 0 110 2.49c-2.09 0-2.84 2.51-2.84 4.85a1.24 1.24 0 01-1.24 1.25zm-.87-7.34a5.65 5.65 0 01.87 1.05 5.25 5.25 0 01.86-1.05 5.31 5.31 0 01-.86-1.06 5.73 5.73 0 01-.87 1.06z"/></g></g></svg>