<svg xmlns="http://www.w3.org/2000/svg" viewBox="0 0 318.83 76.39"><defs><style>.cls-1{fill:#fff}</style></defs><g id="レイヤー_2" data-name="レイヤー 2"><g id="design"><path class="cls-1" d="M16.4 30.62l-.57-1.3v-.05l-.89-1.12a.16.16 0 00-.08-.06L12.36 27l.11-.47.14-.22a.16.16 0 000-.15.22.22 0 00-.08-.13l-1.12-.72a.2.2 0 00-.23 0l-.87.59-.05.05-.39.51-1.3.26-1.1.12v-1.69l1.38-.27 1.56-.06 1.59-.19a.18.18 0 00.12-.05l1.05-1a.2.2 0 00.06-.15.21.21 0 00-.07-.15l-1.47-1.15a.19.19 0 00-.19 0l-1.26.46-1.29.27-1.07-.08.33-1.78a.24.24 0 00-.05-.18L7 19.56a.26.26 0 00-.15-.07.24.24 0 00-.15.08l-.86 1.12a.16.16 0 000 .09L5.39 23l-1.31-.22H4l-1.39.29a.21.21 0 00-.1.06l-.83.9a.21.21 0 000 .25l.83 1.27a.2.2 0 00.2.09L4 25.41l1.13-.16-.4 2.33-.81.87-1.23.55-1.12.8a.16.16 0 00-.07.09L1 31.17l-.8 1.07a.36.36 0 000 .09L0 33.69a.23.23 0 000 .12l.73 1.39.81 1.2a.28.28 0 00.11.08l1.48.42h.09l1.33-.25 1.05-.53.27.37.74.77a.2.2 0 00.28 0l1-1a.19.19 0 000-.21l-.4-1.4 1.16-.79 1.8-2.23 1-2.37 1.09.47 1.05 1 .41 1.38-.29 1.27-.57 1.28-1.29.54-1.28.63h-.05l-.94 1a.2.2 0 00-.06.15.2.2 0 00.06.14l1.12 1.06a.18.18 0 00.13.06h.41l1.35-.57 1.21-.76 1.1-.85.87-1.12.75-1.23v-.07l.24-1.45a.14.14 0 000-.09zm-8.91 1.17l.11-.94v-.06l-.25-1.46-.06-.23 1.64-.1-.41.81L8 31.12zm-4.1 2.3l-.82-.57 1.35-2.59.88-.7-.16 1a.17.17 0 000 .07l.59 2.48-.91.33zm31.41-7.92a.19.19 0 00.11.09l1.5.44 1.36.82.65.31h.09a.18.18 0 00.15-.08l1.07-1.32a.21.21 0 000-.24l-.67-1a.14.14 0 00-.06-.09l-1.56-.62-1.5-.55-.29-.38a.21.21 0 00-.16-.08.16.16 0 00-.15.07l-1.15 1.29a.21.21 0 000 .23zM32.17 28l-.27 2v.08l.46 1.92-.9.07-1.41-.23a.14.14 0 00-.12 0l-1.25.7-1.14.85a.18.18 0 00-.08.14L27.28 35l.22 1.37a.2.2 0 00.05.09l.9 1.11a.14.14 0 00.11.07L30 38l1.35.12 1.39.09h.09l1.25-.66a.2.2 0 00.09-.09l.6-1.27L35 35l1.11.41.87 1a.2.2 0 00.17.06l.78-.06a.16.16 0 00.11 0l1.09-.94a.2.2 0 000-.22l-.45-1.12a.14.14 0 00-.08-.09l-1.23-.77-1.37-.54-1.25-.27-.08-1.24-.32-1.22.42-1.58a.21.21 0 00-.05-.2l-1.18-1.05a.2.2 0 00-.25 0l-1 .76a.22.22 0 00-.12.07zm.38 6.54l-.45.74-.79.37-.89-.3L30 35l.49-.51h1l1.06-.09zM24 26.78a.2.2 0 00.21.09L26 26.5l-.52 1.15-.86 1.35-.73 1.33-.66 1.36a.1.1 0 000 .07l-.06.77a.17.17 0 00.05.15l1.06 1.12a.2.2 0 00.14.06.19.19 0 00.13 0l.94-.91 1-1.14v-.06l.55-1.37.67-1.38.68-1.33a.14.14 0 000-.06l.25-1.44L30 25.9l1.48.11a.2.2 0 00.18-.09l.86-1.2a.21.21 0 000-.27l-1.3-1.26a.21.21 0 00-.2 0l-1.33.38.66-1.92a.23.23 0 00-.05-.21L29 20.11a.2.2 0 00-.27 0l-1.11.89a.22.22 0 00-.05.08L27 22.55l-.26 1.33-1.19.34-1.55.09a.15.15 0 00-.14.07l-.76.89a.2.2 0 000 .24zm30.73 1.35l1.08 1a.2.2 0 00.14.06l3.21-.51h1.64a.15.15 0 00.13-.05l1.13-1a.19.19 0 00.06-.16.18.18 0 00-.08-.15l-1.19-.85a.14.14 0 00-.09 0l-1.33-.15-1.27.1H56.8l-1.27.32a.21.21 0 00-.11.08l-.75 1.12a.2.2 0 00.06.19zm-7.61-1.36a.24.24 0 00.12 0l1.14-.08.91.11-.23 1.08-.36 1.36-.27 1.39-.17 1.37-.52 1.32-.44 1.28-.75 1.2a.16.16 0 000 .13l.07.64a.31.31 0 00.06.13l1.12 1a.19.19 0 00.14.05.21.21 0 00.13-.05l1-1a.1.1 0 000-.05l.66-1.2a.08.08 0 000-.05l.29-1.32.36-1.29.62-1.22.34-1.33.3-1.34.46-2.54 1.2-.23 1.27-.46a.18.18 0 00.1-.07l.65-1a.19.19 0 000-.23l-.87-1.1a.18.18 0 00-.18-.08l-.33.05-1.45.4.12-.94.33-1.2a.21.21 0 00-.05-.2l-1.28-1.2a.2.2 0 00-.28 0l-.94 1a.12.12 0 000 .09l-.39 1.6-.19 1.4-1.25.24-1.43.09a.18.18 0 00-.12.05l-1.11 1.09a.17.17 0 00-.06.16.15.15 0 00.09.14zm14.35 7.87h-4l-1.09-.43-.38-1.05a.18.18 0 00-.09-.1l-1.07-.6a.18.18 0 00-.21 0l-1.2.91a.21.21 0 00-.07.21l.39 1.42a.59.59 0 000 .08l.88 1 1.15.8h.07l1.44.28h4.44a.25.25 0 00.16-.08l1-1.21a.29.29 0 000-.16.22.22 0 00-.08-.13l-1.3-.95zm15.71-8.55a.2.2 0 00.14.06l1.38-.2h1.45l1.36-.21L83 26a.21.21 0 00.18-.07l1.12-1.29a.18.18 0 000-.16.19.19 0 00-.09-.14l-1.35-.87h-.1l-1.4-.09h-.06l-1.3.3h-2.74s-.12 0-.15.06l-1 1.09a.19.19 0 000 .27zM75.5 34.2l1.1 1 1.22.72h.05l1.42.35h.06l1.46-.06h1.78l1.69-.4a.18.18 0 00.09-.06l.83-.86a.17.17 0 000-.15.21.21 0 00-.07-.15L84 33.67a.15.15 0 00-.11 0l-1.59-.16-1.5.14-1.34.22-1.1-.63-.7-1.1-1-1a.23.23 0 00-.16-.06.28.28 0 00-.15.08l-1 1.36a.2.2 0 000 .13l.09 1.46a.21.21 0 00.06.09zm-5.85-2.47l-.24 1.62v.06l.25 1.59v1.66a.22.22 0 00.1.17l1.31.77a.19.19 0 00.1 0 .19.19 0 00.13 0l1.22-1a.21.21 0 00.06-.21l-.43-1.51v-3.17l-.11-1.45.15-1.51V27.3l.29-1.48.14-1.46.64-1.36a.2.2 0 000-.22l-1.33-1.41a.19.19 0 00-.27 0l-1.24.95a.22.22 0 00-.08.14L70.17 24l-.41 1.51v1.59l-.17 1.52-.29 1.55v.08zm74.53-2.58l1.54-.24 1.32.29 1 .8.47 1.2-.22 1.34-1 .93-1.14.77-1.37.35-1.36.53h-.06l-.93.88a.17.17 0 00-.06.15.21.21 0 00.07.15l1.22 1a.2.2 0 00.13 0l1.41-.3 1.39-.43L148 36l1.28-.68a.2.2 0 00.08-.08l.73-1.28.56-1.31.41-1.4a.24.24 0 000-.12l-.48-1.44-.72-1.22a.12.12 0 00-.06-.06l-1.22-.81-1.32-.5h-.05l-1.43-.14-1.44-.1h-.06l-1.42.31-2.77.77-1.41.43-1.29.64a.13.13 0 00-.07.06l-.62.85a.21.21 0 000 .26l.85.89a.21.21 0 00.14.07h.6l1.38-.7 1.5-.45 1.56-.32zM165.67 28a.19.19 0 00.08.15l1.42 1.14a.17.17 0 00.12 0l3.18-.55 1.63.12a.23.23 0 00.16-.06l1.21-1.23a.23.23 0 00.06-.16.22.22 0 00-.09-.14l-1.26-.94a.2.2 0 00-.11 0l-1.29-.09h-.05l-1.25.25-1.29-.08h-.05l-1.27.25a.24.24 0 00-.11.06l-1.06 1.1a.22.22 0 00-.03.18zm3 9.37l1.44-.13 1.46-.2 1.52.07a.2.2 0 00.16-.07l.95-1.13a.2.2 0 000-.27l-1.33-1.26a.18.18 0 00-.16-.05l-1.31.18-2.6.09-1-.52-.44-.94a.24.24 0 00-.08-.09l-1.15-.67a.2.2 0 00-.24 0l-1.08 1a.22.22 0 00-.06.19l.26 1.37a.31.31 0 000 .1l.94 1 1.09.92h.08l1.41.33zM166 25.61l.61-1a.22.22 0 000-.22l-.83-1.21a.21.21 0 00-.16-.08h-.41l-1.42.5v-.94l.38-1.16a.23.23 0 00-.05-.21l-1.2-1.17a.2.2 0 00-.26 0l-1.25.94a.19.19 0 00-.08.15l-.13 1.53-.16 1.33-1.15.24-1.43-.06a.18.18 0 00-.16.07l-1.19 1.3a.19.19 0 000 .16.16.16 0 00.08.14l1.28.9a.17.17 0 00.14 0l1.16-.13 1.11-.07-.22 1.38-.66 1.2a.19.19 0 000 .08l-.12 1.37-.42 1.35-.53 1.34-.26 1.35-.67 1.2a.19.19 0 000 .08v.58a.27.27 0 000 .15l1.06 1.18a.21.21 0 00.14.07.24.24 0 00.14-.05l1.16-1.07.75-1.22.43-1.34.15-1.38.18-1.32.44-1.27.58-1.27a.14.14 0 000-.06l.31-2.58 1.17-.32 1.3-.32a.22.22 0 00.19-.14zM14.93 64.15a.2.2 0 00-.17 0l-1.34.34-1.42.21-1.3.3-1.42-.09h-.07l-1.35.42-.18.07.14-.06L9 64.45l.81-1.05 1.06-.86.05-.06.64-1.21.49-.83a.2.2 0 000-.26l-1.55-1.13-.44-.23a.23.23 0 00-.14 0l-4.35.86-1.48.16a.14.14 0 00-.12.06L2.89 61a.25.25 0 00-.05.15.2.2 0 00.06.14l1.37 1.26a.23.23 0 00.18 0l1.44-.31 1.33-.47.78-.04-.53.82-1.24.9-1.03 1.07-1.38.65-1.49.83-1.56.74a.2.2 0 00-.09.09L.08 68a.18.18 0 000 .23l.91.94a.22.22 0 00.17 0h.35l2.05-.56 1.23-.3 1.29-.21 1.22-.27h.77l-.65.59a.16.16 0 00-.06.08L7 69.86l-.38 1.41v.08l.17 1.33a.18.18 0 000 .1l1.66 2.1a.22.22 0 00.09.07l1.29.49 2.66.59a.2.2 0 00.15-.06l1.26-1.32a.2.2 0 00.06-.15.17.17 0 00-.07-.14l-1.17-1a.18.18 0 00-.09 0l-1.56-.3-1.44-.52-.29-1.4.27-1.5.81-1.37 1.37-.84 1.76-.34 1.72-.48a.21.21 0 00.11-.08l.79-1.2a.19.19 0 00-.05-.27zm24.71 6.27a.18.18 0 00-.21 0l-.79.33h-.06l-.8.83-1 .29-.51-.58.11-1.29.07-1.43-.05-1.38.25-1.39-.11-1.4v-1.45a.17.17 0 000-.12l-.87-1.17a.23.23 0 00-.1-.07L34.11 61H34l-1.46.38-1.33.68L29 63.87l-.56.74v-.3l.73-1.25a.2.2 0 00-.05-.26l-.65-.53v-1.33l.35-1.41a.22.22 0 00-.09-.22l-1.25-.75a.22.22 0 00-.22 0l-1.09.75a.24.24 0 00-.09.15l-.12 1.62.21 1.48-1.26.23-1.4.21a.2.2 0 00-.12.06l-.9.95a.23.23 0 00-.06.16.19.19 0 00.09.14l1.15.8a.28.28 0 00.13 0L25 65l1-.12.08 1-.93.95-.62 1.17-.45 1.19-.68 1.09-.83 1a.16.16 0 000 .06l-.23.62a.18.18 0 00.05.21l1.24 1.27a.23.23 0 00.16.06.25.25 0 00.14-.08l.67-.86.75-1.15.6-.71-.09 1-.17 1.5a.2.2 0 000 .07l.36 1.5a.18.18 0 00.07.1l.87.78a.24.24 0 00.14.05.18.18 0 00.13-.05l.89-.78a.2.2 0 00.06-.12l.17-1.39-.05-1.33.13-1.37v-1.34l.06-1.25 1-.86.76-1.18 1-.88 1.29-.56 1-.48.67.68-.35 1.27-.28 2.75.1 1.38.22 1.35v1.42a.49.49 0 000 .11l.85 1.2a.23.23 0 00.18.09l1.53-.09 1.37-.2a.09.09 0 00.07 0l1.23-.75 1.09-.93a.13.13 0 00.05-.07l.34-.75a.22.22 0 000-.23zM59 59.82l-.76.71a.21.21 0 000 .28l1.68 2.1.08.09.57.35a.23.23 0 00.11 0 .17.17 0 00.12 0l.89-.71a.21.21 0 00.08-.16.21.21 0 00-.07-.15l-.43-.37-.39-1.11a.2.2 0 00-.09-.11l-1.06-.56-.44-.32a.2.2 0 00-.29-.04zm4.25.43l-.4-1.08a.26.26 0 00-.1-.11l-1-.5-.48-.34a.2.2 0 00-.25 0l-.76.69a.21.21 0 000 .28l1 1.22.72.86h.06l.62.34h.1a.19.19 0 00.12 0l.82-.61a.19.19 0 00.08-.15.2.2 0 00-.07-.16zm-2.88 4.04a.2.2 0 00-.11 0h-1.43a.26.26 0 00-.1 0l-1.26.71-1.31.3-1.38.18-1.31.12 1-.87 1-1 .67-1.17 1.1-.77a.24.24 0 00.06-.08l.48-1a.2.2 0 00-.06-.23L56 59a.22.22 0 00-.27 0l-.33.3-1.43.2-1.46.28-1.44.22h-1.5a.19.19 0 00-.17.1l-.63 1.13a.22.22 0 000 .22l.91 1.24a.22.22 0 00.24.07l1.34-.56 1.43-.13 1.15-.26-1 .72-.95 1.16-1.38.74-1.11 1-3.1 1.59a.27.27 0 00-.08.07l-.62 1a.18.18 0 000 .22l.9 1.16a.19.19 0 00.23.06l.32-.14 2.06-.43 1.31-.17 1.29-.32 1.11-.47.45-.11-.5.6a.25.25 0 000 .07L52.29 70l-.05 1.49.24 1.25.32 1.34a.21.21 0 00.06.1l1 .93h.07l2.59.94h1.45a.21.21 0 00.13 0l1.4-1.21a.19.19 0 00.07-.14.2.2 0 00-.07-.16l-1.29-1.18a.27.27 0 00-.15 0l-1.58.11-1.2-.88-.44-1.26.16-1.55 1-1.16 1.34-.83 1.66-.67 1.69-.64h.06l1.1-.87a.18.18 0 00.07-.17.19.19 0 00-.09-.16zm25.05 6.12a.19.19 0 00-.19 0l-.88.25a.19.19 0 00-.09 0l-.79.8-1 .27-.45-.43.34-1.3.14-1.45-.11-1.38.15-1.41.08-1.4v-.06l-.35-1.44a.19.19 0 000-.08l-.87-1.11a.24.24 0 00-.12-.07l-1.39-.23-1.36.12h-.09l-1.23.74-1.07.88-1.23.74-.06.06-.49.69-.1-.28 1-1.22a.22.22 0 000-.17.21.21 0 00-.1-.14l-1-.53v-1.32l.27-1.41a.21.21 0 00-.05-.17l-1.08-1.2a.17.17 0 00-.14-.06.19.19 0 00-.14 0l-1.28 1.19a.18.18 0 00-.06.17l.22 1.55-.2 1.27-1.09.16-1.34.33a.23.23 0 00-.13.11L68.58 64a.22.22 0 000 .22l.84 1a.19.19 0 00.2.06l1.17-.28.91.06.17.85-.86 1-.59 1.09-.77 1.08-.65 1.18-.6 1.14-.37.57a.21.21 0 000 .26l1.31 1.25a.2.2 0 00.23 0l1-.58a.18.18 0 00.09-.1l.51-1.28.44-.67v2.43l.16 1.5a.16.16 0 000 .09l.84 1.23a.18.18 0 00.15.08.24.24 0 00.14 0l1.23-1.24a.19.19 0 000-.19L74 73.42l.33-1.33.12-1.35a.22.22 0 000-.08L74 69.37l.33-1.24L75 67l1-1 2.42-1.46 1-.8.52 1-.3 1.28.08 1.34-.13 1.35-.18 1.35a.16.16 0 000 .07l.3 1.34v1.48a.2.2 0 000 .13l1 1.22a.21.21 0 00.13.07l1.54.21h.07l1.47-.3a.16.16 0 00.1 0l1-1 1.21-.8a.18.18 0 00.08-.09l.31-.84a.2.2 0 00-.05-.22zm23.45-5.84a.14.14 0 000-.07l-.74-1.31-1-1.1-1.25-.83-1.37-.61-1.42-.43H103l-1.47.22-1.37.1-1.36.17h-.06l-1.21.52-1.44.22h-.1l-1.11.89-.69 1.22-1 .95a.24.24 0 00-.06.09l-.42 1.4-.85 2.66a.17.17 0 000 .07l.08 1.4v.06l.49 1.32.81 1.14 1.17.81a.18.18 0 00.13 0l1.46.02 1.57-.1h.07l1.49-.74.08-.08.89-1.4.43-1.39.71-1.36.37-1.47.15-1.45.38-1.47.07-1.25 1.22.33 1.33.67 1.27.86.64 1.38.23 1.5-.45 1.38-.22 1.36-1.16.82-1 .93-1.25.62-1.08 1a.2.2 0 00-.06.15.21.21 0 00.07.15l1.34 1.1a.2.2 0 00.13 0h.52l1.26-.6 1.38-.48a.16.16 0 00.08-.06l.94-1.1 1-1.07v-.06l.51-1.37.33-1.39.14-1.4zm-9.24-1.85l-.33 2.88-.81 1.4-.44 1.46-.32 1.47-.84.72-.89.56-1.12-.92.06-1.53v-1.43l.46-1.3.81-1.13 1.1-.88 1.05-1zM136 70a.12.12 0 00-.05 0l-1.21-.76-.74-1.33a.3.3 0 00-.08-.08l-1.27-.65-.88-1.12a.12.12 0 00-.05 0l-1.19-.79-1-.72.92-1 1-1.24a.11.11 0 000-.08l.32-1.56.86-1.24v-.05l.49-1.46.44-1.46a.24.24 0 000-.12l-.49-1.4a.22.22 0 00-.05-.08l-1.18-1.1a.21.21 0 00-.17 0l-1.56.29-1.33-.42h-1.53l-1.34.35-1.36-.25h-.05l-1.39.15-1.39.07-1.36.14-1.36-.21h-.09l-1.11.43a.22.22 0 00-.12.13l-.35 1.16a.18.18 0 000 .16l.54 1a.18.18 0 00.05.07l.95.74a.19.19 0 00.16 0l1.43-.24 1.4-.25h1.45l1.4-.1 1.43.29 1.43.13a.08.08 0 00.07 0l1.35-.35.6.35-.16.32-.43 1.4-1 1-.71 1.22-.84 1.17-.82 1.22-.7 1.27-1.14.89-1.06 1-1 1-1.28.77-1.09.94-1.3.55-1.43.38a.21.21 0 00-.13.11l-.77 1.65a.19.19 0 000 .19l.6.94.06.06.94.61a.18.18 0 00.16 0l2.17-.65h.07l1.11-.91 1.17-.79 1.33-.63h.06l1-1 1.09-1 1-1 1-.74 1 .54 1.13.74.85 1.07 1 1 1.08.79.72 1.14 1 .93 1.27 1a.28.28 0 00.12 0 .15.15 0 00.11 0l1.19-.78.06-.07.65-1.13a.23.23 0 000-.2l-.68-1.19zm27.7-7.54l-1-.41h-.09l-1.43.08-2.68.58-1.44.11-1.28.41-1.22.07-.27-1.15-.4-1.24.15-1.08 1.24-.6 1.6.15a.17.17 0 00.1 0l1.46-.67 1.62.34a.18.18 0 00.19-.07l1.29-1.6a.24.24 0 000-.2l-.49-1.34a.22.22 0 00-.21-.13l-1.29.13-1.64-.26a.17.17 0 00-.1 0l-1.49.6-1.57.26-1.47.16v-1.51l-.22-1.53a.14.14 0 000-.06l-.68-1.5-1.38-1.35a.19.19 0 00-.24 0l-1.15.64a.24.24 0 00-.09.11l-.43 1.1a.19.19 0 000 .08l.12 1.56a.13.13 0 000 .06l.57 1.44v1.31l-1.31.19h-1.63l-1.57.37-1.51.73-1.46 1.06a.2.2 0 00-.06.26l.65 1.21a.21.21 0 00.14.1l1.24.24h1.67l1.49-.44 1.62-.11 1.26-.26v1.08a.36.36 0 000 .1l.64 1.2-.06 1h-1.1l-1.37.36-1.28.51-1.34.24-1.41.08-1.37.25a.27.27 0 00-.1.06l-1.44 1.38a.2.2 0 000 .24l.71 1.22a.18.18 0 00.16.1h1.17l1.44.22a.2.2 0 00.11 0l1.26-.56 1.38.16a.08.08 0 00.07 0l1.35-.26h.06l1.24-.63 1.16.09.42 1.25.11 1.48-.12 1.58v.06l.41 1.5.63 1.43a.18.18 0 00.07.08l1.38.94a.15.15 0 00.11 0h.06l1.07-.31a.28.28 0 00.11-.08l.77-1.09a.19.19 0 000-.19l-.58-1.44-.43-1.46-.24-1.48.25-1.57v-.09l-.29-1.12.92-.33 2.71-.52 1.4.13a.24.24 0 00.12 0l1.24-.72 1.36.08a.2.2 0 00.17-.09l1-1.43a.21.21 0 000-.2l-.48-1a.19.19 0 00-.06-.09zm28.83 1.98l-1.3-.32a.2.2 0 00-.18 0l-2.29 2-.91 1.07-2.34 1.54-1.22.67a.24.24 0 00-.08.09l-.06.11v-.18l-.17-2.8.05-1.4a.11.11 0 000-.08l-.54-1.33.5-1.33a.2.2 0 000-.13L183.6 61v-2.77l.43-1.37v-1.4a.17.17 0 000-.07l-.42-1.39-.24-1.17a.2.2 0 00-.17-.16l-1.2-.17h-.08l-1.11.29a.18.18 0 00-.14.15l-.24 1.06-.11 1.48-.25 1.52a.19.19 0 000 .08l.35 1.45V60l-.2 1.48-.32 1.49V63l.35 1.45v1.46l-.41 1.46v.06L180 69l.32 1.47.16 1.6a.18.18 0 000 .1l1 1.32a.23.23 0 00.1.07l1.62.55h.15l1.15-.59 1.2-.4 1.34-.72 1.47-.61a.16.16 0 00.09-.07l.89-1.3 1.31-.86 1.2-1.08.94-1.26a.23.23 0 000-.14l-.27-2.42a.19.19 0 00-.14-.22zm-15.73-9.81l-.47-1.28a.22.22 0 00-.11-.12l-1.31-.51a.22.22 0 00-.22 0l-1 .94-1 .85a.21.21 0 00-.06.24l.66 1.44-.1 1.49-.27 1.46v.07l.27 1.46-.19 1.45-.43 1.39-.66 1.33a.19.19 0 000 .07l-.17 1.45-.59 1.27-1.14 1-.88 1.16-.82 1.26-.76 1.21a.21.21 0 000 .17l.41 1.21a.22.22 0 00.1.11l1.21.62h.1a.28.28 0 00.12 0l1.12-.87 1.11-.92 1-1 1.13-1a.26.26 0 00.07-.11l.34-1.42.88-1.17.69-1.34.39-1.41v-.08l-.22-1.44.64-1.31a.29.29 0 000-.09v-1.5l-.27-1.41.31-1.39-.08-1.55.21-1.58a.34.34 0 00-.01-.15zm25.54 7.13l-1.46-.55a.26.26 0 00-.15 0l-1.41.6a.22.22 0 00-.11.1l-.6 1.41a.22.22 0 000 .16l.59 1.42a.22.22 0 00.1.11l1.43.6a.11.11 0 00.08 0h.07l1.45-.58a.19.19 0 00.12-.11l.56-1.46a.33.33 0 000-.14l-.55-1.46a.2.2 0 00-.12-.1zm33.14-2.01l-.55-1.44-.8-1.24A.19.19 0 00234 57h-1.6l-1 .06.36-1.25a.17.17 0 000-.1l-.35-1.29.13-1.28.22-1.32a.19.19 0 00-.1-.2l-1.53-.81a.2.2 0 00-.21 0l-1 .8a.24.24 0 00-.07.16v2.65l-.47 1.3a.22.22 0 000 .08l.09 1.05-.66-.14a.21.21 0 00-.21.08l-1 1.48a.2.2 0 000 .23l1 1.5a.18.18 0 00.13.08l.62.12.16 1-.39 1.43a.22.22 0 000 .08l.26 1.48-.11 1.47-.64 1.34-.5 1.44-.23 1.44-.55 1.42-.16.7-1.57-.8h-1.66l-.1-.55.92-.29 1.13.3a.2.2 0 00.21-.06l.92-1.15a.2.2 0 000-.24l-.93-1.28a.16.16 0 00-.14-.08l-1.21-.13h-.82l-.2-.44.81.36a.17.17 0 00.17 0l1.38-.65 1.36-.73a.2.2 0 00.11-.21l-.27-1.49.41-1.17a.29.29 0 000-.13l-.42-1.15.49-1.15a.17.17 0 000-.12l-.32-1.5a.24.24 0 00-.09-.13l-1.27-.78a.35.35 0 00-.11 0l-1.33.07-.87-.33-.09-.82 1.49-.17 1.61.5a.22.22 0 00.23-.08l.94-1.33a.21.21 0 000-.25l-.97-1.13a.21.21 0 00-.13-.07l-1.65-.22h-.07l-1.64.4-.06-1.36 1.35-.4 1.23-.33h.06l1.24-.85a.18.18 0 00.08-.15.17.17 0 00-.06-.16L225 50.42a.12.12 0 00-.08 0l-.5-.13a.15.15 0 00-.13 0l-1.23.55-1.33.12h-1.48l-1.26.58-1.34-.16a.19.19 0 00-.19.09l-.91 1.37a.19.19 0 000 .26l1.1.93h.08l1.12.27h.15l.71-.1.11.56h-1.56l-1.76.33a.11.11 0 00-.08 0l-1.22.8a.24.24 0 00-.09.14.18.18 0 000 .16l1.22 1.42a.2.2 0 00.19.07l1.74-.35 1.56.09.08.7-.8-.12h-.1l-1.46.22a.24.24 0 00-.13.07l-.9 1.13a.18.18 0 00-.05.12v1.34l-.16 1.23.16 1.16-.61 1.17a.19.19 0 000 .18l.68 1.38.88 1.14a.22.22 0 00.19.07l1.43-.22 1.08.07v1.15l-1.3-.11-1.31-.33a.19.19 0 00-.22.09l-.82 1.32a.2.2 0 000 .24l.82.93a.19.19 0 00.09.05l1.31.44h.09l1-.11.21 1-1.71.17h-1.79a.16.16 0 00-.13.06l-1.2 1.17-.06-.9.19-1.52-.24-1.49.13-1.48.22-1.51a.19.19 0 000-.08l-.39-1.39.3-1.46a.14.14 0 000-.09l-.41-1.47-.12-1.51a.19.19 0 000-.08l-.6-1 .61-1.19v-.05l.25-1.46.39-1.43v-1.45l.82-1.29a.2.2 0 000-.15l-.36-1.47a.19.19 0 00-.16-.15l-1.4-.2a.17.17 0 00-.14 0l-1.49 1a.18.18 0 00-.08.15l-.08 1.34-.62 1.27-.37 1.34-.38 2.73-.64 1.23-.39 1.27-1.15.87a.24.24 0 00-.08.19l.12 1a.19.19 0 000 .1l1.29 1.55a.21.21 0 00.15.07.19.19 0 00.15-.07l1.09-1.18h.29l-.33 1.19a.25.25 0 000 .08l.21 1.38.18 1.32-.5 1.32a.29.29 0 000 .13l.45 1.31-.13 1.33-.22 1.37a.12.12 0 000 .1l.51 1.33v1.33a.21.21 0 00.08.17l1.13.82a.16.16 0 00.12 0 .19.19 0 00.12 0l1.08-.83a.13.13 0 00.07-.09l.49-1.52a.17.17 0 000-.07v-.07l1.4 1a.17.17 0 00.13 0l1.4-.06 1.36-.12 1.45.14a.27.27 0 00.12 0l1.19-.73h1.4l1-.09-.28.81a.2.2 0 00.08.23l1.64 1.15a.2.2 0 00.21 0l1.28-.66a.17.17 0 00.1-.1l.55-1.35.72-.91-.08 1.06a.27.27 0 000 .12l.8 1.36a.18.18 0 00.16.1l1.64.1h1.35a.21.21 0 00.11 0l1.22-.82.06-.07.66-1.25a.17.17 0 000-.14l-.36-1.35.8-1.2a.19.19 0 000-.15l-.27-1.35.51-1.29a.23.23 0 000-.14l-.46-1.34.46-1.3a.17.17 0 000-.12l-.31-1.3.52-1.3a.24.24 0 000-.08V61.2zm-11.69 4.08l-.14.63-.22.6-1-.08.34-.92zm-1.14-3.16l.84.16.59.22-.11.69-1.15-.42zm-3.37 4.4l-.06-.56a.43.43 0 000-.05l-.25-.65 1 .13.26 1zm-.36-3.54l.13-.54.22-.6.9.08-.33.84zm10.3 11.35l.59-1.42.26-1.5.13-1.44.47-1.41.08-1.44.8-1.35a.2.2 0 000-.13l-.26-1.49.34-1.43a.11.11 0 000-.08l-.24-1.4.49.17.36.48.42 1.4-.21 2.85-.36 1.31a.17.17 0 000 .1l.37 1.44L232 69l-.35 1.44-.17 1.41-.43 1-.56-.43a.2.2 0 00-.2 0l-1.11.47zm34.06-14.33l-1.14-.5a.23.23 0 00-.14 0l-.44.15-1.39.14a.11.11 0 00-.08 0l-1.23.69-1.31.34-1.27.24-.71-1.11v-1.11l.87-.17h.06l1.11-.61 1.23-.07a.32.32 0 00.09 0l1.17-.64 1.11-1a.22.22 0 00.06-.21l-.34-1.16a.21.21 0 00-.13-.13l-1.19-.4a.12.12 0 00-.1 0l-.59.1-1.51.53-1.68.16-1.26.24-.42-1-.52-1.42a.18.18 0 00-.06-.09l-1.42-1.08a.21.21 0 00-.23 0l-.91.56-1 .72a.18.18 0 00-.08.18.21.21 0 00.17.1l.5.24-.18 1.43a.17.17 0 000 .14l.8 1.13-2.48-.08h-.06l-1.23.35h-1.26a.22.22 0 00-.17.09l-1.09 1.53a.2.2 0 000 .21l.46.88a.2.2 0 00.09.09l.86.42h1.58l1.46-.11 1.51.07h.06l1.17-.3.84.89.48 1.34-1.44.33-1.54-.14-1.5.1-1.4.48-1.47-.52a.18.18 0 00-.21.05l-1.61 1.72a.19.19 0 000 .25l.74 1a.21.21 0 00.15.09l1 .06 1.46.53h.1l1.46-.21 1.38-.39 1.48.1 2.61-.42.84.63.67 1 .17.89-.74-.06h-1.24l-1.23-.45a.17.17 0 00-.1 0l-1.42.28-1.44.1-1.47.15a.16.16 0 00-.09 0l-1.23.8-.92 1-1.18 1a.18.18 0 00-.17.31l.13 1.55.28 1.35.33 1.39a.2.2 0 000 .08l1 1.14a.19.19 0 00.12.07l1.43.28 1.21.72h.06l1.38.36h.1l1.4-.36 1.34.31h.09l1.47-.29 1.52-.12 1-.27a.2.2 0 00.13-.11l.47-1a.22.22 0 000-.14l-.37-1.33a.2.2 0 00-.17-.15l-1.37-.12h-.07l-1.31.34-1.33-.52a.19.19 0 00-.15 0l-1.56.59-1.47-.42-1.18-.92-.57-1 .1-1.21 1.19-.47 1.31-.29 1.35.23h.08l1.54-.33 1.5.09 1.49.42 1.3.91a.19.19 0 00.18 0l.84-.29.88-.45a.18.18 0 00.1-.11l.32-.85a.28.28 0 000-.09l-.09-1.08a.11.11 0 000-.08l-.77-1.23-1-1-.82-1.13-.75-1.13 3.26-.45 1.62-.44a.31.31 0 00.11-.09l.92-1.39a.22.22 0 000-.14l-.22-1.15a.19.19 0 00-.07-.13zm31.13-3.69a.25.25 0 00-.14-.06h-1.47l-1.35.33-1.35-.66a.17.17 0 00-.17 0l-1.34.65-1.34-.4h-.1l-1.37.31h-1.37l.35-1.27.1-1.26-.18-1.23a.14.14 0 00-.05-.1l-.75-.8-.88-.67a.2.2 0 00-.23 0l-1 .62h-.06l-.57.84a.16.16 0 000 .16l.27 1.2-.06 1.15-.38.82-1.06.11-1.32.43-1.36-.22-1.33.07-1.38-.17h-1.4l-1.36.22-.11.05-1.32 1.25a.17.17 0 00-.06.14.19.19 0 000 .14l1.33 1.35a.19.19 0 00.15.06l1.44-.11 1.4-.15 1.44.39 1.43.09h.06l1.37-.35 1.1.45-.21.91v1.36l-.5 1.32-.2 1.35-.37 1.38-.13 1.38-1.07 1a.21.21 0 00-.06.1l-.35 1.37-.92.93-1.26.76a.23.23 0 00-.07.07l-.72 1.25-1.19.77-2.34 2.13a.19.19 0 000 .26l.77 1 1 .69a.21.21 0 00.11 0l1.08-.18a.22.22 0 00.13-.08l.86-1.21 1.08-.75 1.38-.54a.18.18 0 00.1-.09l.73-1.24 1-1 1-1 .77-1.19a.13.13 0 000-.08l.39-1.41.54-1.25.6-1.27.52-1.29 1.29.39h1.41a.14.14 0 00.09 0l1.36-.62 1.27.08.85 1-.17 1.51-.13 1.55-.52 1.53a.13.13 0 000 .06L288 70.8l-.52 1.34-1.44.22-1.06.18-1-.43-.41-.15a.2.2 0 00-.15 0l-1.12.53a.18.18 0 00-.11.14l-.19 1.15a.26.26 0 000 .15l1.07 1.81a.2.2 0 00.22.09l1.5-.36 1.39.39a.17.17 0 00.1 0l1.34-.31 1.5-.06a.24.24 0 00.15-.08l.9-1.21.83-1.2v-.07l.69-2.81v-1.47l.28-1.42.51-1.43a.17.17 0 000-.12l-.4-1.46-.08-1.46-.46-1.51a.18.18 0 00-.15-.13l-1.56-.37-1.52-.3h-.08l-2.5.56h-1.22l-1-.52-.09-1.18.27-1.53 1.39-.06 1.5.52h.1l1.5-.29h1.56l1.49-.21 1.49.39a.17.17 0 00.12 0l1.53-.52h.06l1.29-1a.23.23 0 00.08-.14.2.2 0 00-.06-.15zM316 66.09L314.46 65a.19.19 0 00-.26 0l-.79.89a.16.16 0 00-.05.14.17.17 0 00.07.14l.3.26.69.86.56 1a.23.23 0 00.15.1l.68.11a.24.24 0 00.13-.05l.65-.56a.19.19 0 00.07-.11l.12-.66a.16.16 0 00-.05-.17zm2.77-.77l-.82-.85-1.51-1.06a.2.2 0 00-.26 0l-.79.88a.19.19 0 00-.05.14.21.21 0 00.07.14l.32.28.68.86.58 1a.18.18 0 00.15.1l.72.09a.17.17 0 00.12 0l.66-.51a.19.19 0 00.07-.14l.08-.72a.19.19 0 00-.02-.21z"/><path class="cls-1" d="M314.1 72.89a.27.27 0 00-.14-.07l-1.27-.12-1.08-.7-1.15-.56-.68-1.07-.06-1.26.47-1.39.2-1.39.85-1.08 1.17-.83 1.09-.9 1.08-.37 1.08-.43a.15.15 0 00.09-.06l.87-1.1a.21.21 0 000-.27l-1.16-1.06a.18.18 0 00-.16 0l-1.5.23-1.46.26-1.5-.18a.17.17 0 00-.1 0l-1.44.46-1.52-.1-1.47.15h-1.6l-1.41.63-1.47.1a.28.28 0 00-.12 0l-1.09 1a.2.2 0 00-.07.16.22.22 0 00.09.16l1.36.9a.19.19 0 00.12 0l1.4-.11 1.46.13h.02l1.41-.28 1.34-.36h1.48l.86-.24-1.47 1.86-1 1.11a.22.22 0 00-.05.08l-.34 1.44-.23 1.43a.17.17 0 000 .1l.45 1.38 1 2.62a.14.14 0 00.08.1l1.25.72 2.43 1.44h.06l1.42.29a.21.21 0 00.16-.08l1.12-1.4a.2.2 0 000-.25zM95.11 19.85h.66a1.37 1.37 0 00.7-.17c.24-.14.48-.3.71-.45l.52-.35a2.85 2.85 0 00.61-.54 2.56 2.56 0 01.49-.45 5.2 5.2 0 00.62-.5 5.15 5.15 0 01.52-.43 4.68 4.68 0 01.59-.31 4 4 0 00.71-.38 3.07 3.07 0 01.6-.31 3.05 3.05 0 00.71-.38 6 6 0 00.59-.53 5.34 5.34 0 01.5-.46 4.22 4.22 0 00.55-.57 5.35 5.35 0 01.47-.48l.62-.57.46-.42a5.88 5.88 0 00.53-.59 3.67 3.67 0 01.44-.51 4.39 4.39 0 01.53-.41 4.76 4.76 0 00.62-.49 2.65 2.65 0 01.57-.36 2.29 2.29 0 00.69-.45c.22-.22.42-.45.63-.68l.36-.4a3.17 3.17 0 00.44-.7 2.46 2.46 0 01.34-.57l.42-.46c.15-.15.29-.31.42-.46l.24.36a4.48 4.48 0 00.47.67c.14.15.27.31.4.47s.35.42.54.62a5.78 5.78 0 00.6.51 4.39 4.39 0 01.51.42 4.18 4.18 0 01.43.5 4.15 4.15 0 00.51.6l.45.44c.19.2.38.39.58.57a2.62 2.62 0 00.68.41 2.46 2.46 0 01.57.34 2.73 2.73 0 00.72.37 2.44 2.44 0 01.58.3 1.87 1.87 0 01.39.53 1.9 1.9 0 00.5.66 6.77 6.77 0 00.66.43c.18.12.36.23.54.36a3 3 0 01.47.47 2.92 2.92 0 00.56.55 4.28 4.28 0 00.7.37 4.62 4.62 0 01.59.29 4 4 0 01.51.43 4.08 4.08 0 00.6.5 1.77 1.77 0 00.85.19 1.5 1.5 0 01.62.17 3.33 3.33 0 01.51.43 3.25 3.25 0 00.61.5 2 2 0 001.21.15h.35a1.86 1.86 0 001.5-.64 2 2 0 00.64-1.51 2 2 0 00-.46-1.23 1.66 1.66 0 01-.17-.4 1.46 1.46 0 00-.61-.88c-.2-.1-.4-.23-.61-.36a4.15 4.15 0 00-.57-.35 1.81 1.81 0 00-.76-.18 1.72 1.72 0 01-.64-.15l-.54-.29c-.23-.11-.46-.23-.68-.36a2.56 2.56 0 01-.49-.45 2.69 2.69 0 00-.55-.51 3.31 3.31 0 00-.67-.29 2.7 2.7 0 01-.62-.27c-.19-.13-.38-.29-.57-.45s-.34-.28-.52-.41-.38-.24-.57-.35a7.11 7.11 0 01-.61-.39l-.5-.35-.63-.46c-.24-.19-.48-.4-.72-.6l-.33-.33-1-.87a6.19 6.19 0 01-.48-.53 5.35 5.35 0 00-.45-.5 2.57 2.57 0 01-.39-.55 3.14 3.14 0 00-.42-.59 2.65 2.65 0 00-.62-.43 2.47 2.47 0 01-.54-.38 2.83 2.83 0 01-.36-.56 3.24 3.24 0 00-.28-.47 1.47 1.47 0 00.1-.62 2 2 0 00-.85-1.59A3 3 0 00112 0a3.17 3.17 0 00-1.3.33 2.94 2.94 0 00-1.07.85 4.94 4.94 0 00-.36.57 5.49 5.49 0 01-.4.62 4.67 4.67 0 01-.49.51 5.78 5.78 0 00-.49.5 5.34 5.34 0 00-.4.57 3.83 3.83 0 01-.41.59 3.52 3.52 0 00-.4.63 2.4 2.4 0 01-.37.58l-.42.49c-.16.2-.32.4-.5.59a5.6 5.6 0 00-.45.54 3.72 3.72 0 01-.46.56 2.16 2.16 0 01-.58.34 2.31 2.31 0 00-.68.39l-.45.44c-.18.18-.37.37-.57.54l-.28.25c-.26.23-.52.46-.79.68a4.51 4.51 0 01-.6.41q-.29.18-.57.39a4.83 4.83 0 00-.51.5 4.67 4.67 0 01-.51.49 2.17 2.17 0 01-.62.25 2.42 2.42 0 00-.73.29c-.18.13-.36.28-.53.42s-.38.31-.59.45-.41.24-.64.36-.4.2-.59.32a1.72 1.72 0 00-.53.66 1.37 1.37 0 01-.43.53 2.72 2.72 0 00-.93.75 2 2 0 00-.35 1.18 2.36 2.36 0 00.45 1.7 2.37 2.37 0 001.66.58z"/><path class="cls-1" d="M117.65 14.81a1.48 1.48 0 01-.65.13 1.17 1.17 0 01-.64-.17 1.56 1.56 0 00-.83-.22 5.9 5.9 0 00-.75 0 5.66 5.66 0 01-.71 0 2 2 0 01-.67-.11 2 2 0 00-.79-.14 3.18 3.18 0 00-.78.09 2.64 2.64 0 01-.69.08 2.18 2.18 0 01-.68-.09 2.6 2.6 0 00-.78-.11 1.34 1.34 0 00-.84.29.94.94 0 01-.62.21 1.75 1.75 0 01-.66-.11 2 2 0 00-.8-.15 1.76 1.76 0 00-.8.17 1.53 1.53 0 01-.66.13 1.28 1.28 0 00-1.18.56 1.88 1.88 0 00-.43 1.28 1.85 1.85 0 00.47 1.24 2 2 0 01.19.28c.2.33.45.74 1 .74a2.1 2.1 0 00.83-.14 2.22 2.22 0 01.65-.15c.31 0 .5-.06.66-.08a3.71 3.71 0 01.8-.07 2.8 2.8 0 01.69.07 3.27 3.27 0 00.77.08 1.31 1.31 0 01.65.14 1.85 1.85 0 00.81.17h1.46a1.93 1.93 0 00.8-.15 1.78 1.78 0 01.67-.12h1.46a2.18 2.18 0 01.68.09 2.67 2.67 0 00.78.1h.71a6.49 6.49 0 00.74 0 1.92 1.92 0 001.42-.8 2.66 2.66 0 00.62-1.46 2.82 2.82 0 00-.45-1.6 2 2 0 00-1.59-.49 1.85 1.85 0 00-.86.31zm-1.42 23.48c.27-.21.42-.3.56-.4a7.08 7.08 0 00.58-.41l.54-.44.54-.43.55-.41.57-.41.55-.41c.15-.1.3-.2.58-.42a2.91 2.91 0 00.53-.51 2.27 2.27 0 01.47-.46c.12-.1.25-.18.38-.27a3.38 3.38 0 00.72-.59 6.49 6.49 0 00.84-1.13 4.87 4.87 0 00.41-1.2v-.15a5.43 5.43 0 00.13-1.39 6.4 6.4 0 00-.73-2.66l-.18-.4a3.2 3.2 0 00-.48-.84 4.72 4.72 0 00-.79-.68l-.29-.21a.09.09 0 00-.06 0 3.85 3.85 0 00-.88-.45l-.43-.2a3.94 3.94 0 01-.49-.31 2.67 2.67 0 00-.84-.47 2.76 2.76 0 00-1 0 4 4 0 01-.6 0 3 3 0 01-.51-.08 4.77 4.77 0 00-1-.09 7.67 7.67 0 00-1.38.28h-.12l-.49.1a4 4 0 00-1 .29 4.27 4.27 0 00-.88.63l-.23.2a4.31 4.31 0 00-.78-.38l-.45-.19a7.62 7.62 0 00-1.4-.54 7.9 7.9 0 00-1.48-.25 8.27 8.27 0 00-1.5 0 4.19 4.19 0 01-.5 0 5.07 5.07 0 00-1 .12 9.37 9.37 0 00-1.41.58 7 7 0 00-1.17.79l-.09.07c-.13.1-.28.19-.42.28a3.41 3.41 0 00-.71.54 3.63 3.63 0 00-.5.87l-.18.36-.16.28a4 4 0 00-.45 1 2.05 2.05 0 000 .89 3.2 3.2 0 01.06.51 5.22 5.22 0 00.15 1.34c0 .14.06.29.08.43a2.77 2.77 0 00.26.91l.16.32a4 4 0 00.54.9 7.94 7.94 0 001 .92 4 4 0 00.62.41 4 4 0 01.56.36 3.9 3.9 0 01.49.46 3.08 3.08 0 00.54.5c.26.21.38.32.51.44a4.75 4.75 0 00.55.47 2.39 2.39 0 00.66.38 1.91 1.91 0 01.56.31 2.55 2.55 0 01.47.46 2.46 2.46 0 00.52.53l.56.42.55.42a5.1 5.1 0 00.59.41 5.17 5.17 0 01.55.38 3.29 3.29 0 01.49.46 4.13 4.13 0 00.54.5.79.79 0 00.51.15 2 2 0 00.35 0h.53a1.47 1.47 0 001-.24 1.77 1.77 0 01.56-.32 2.69 2.69 0 00.66-.38 1.81 1.81 0 00.51-.63A1.16 1.16 0 01115 39a3.25 3.25 0 01.56-.35 2.76 2.76 0 00.67-.36zm.6-4.72c-.13.12-.26.24-.53.45a2.73 2.73 0 01-.58.35 3 3 0 00-.65.39 3.17 3.17 0 00-.55.52 3.81 3.81 0 01-.49.47 4.22 4.22 0 01-.57.37 4.86 4.86 0 00-.62.41 1.61 1.61 0 00-.49.69c-.12.27-.18.4-.46.4-.35 0-.44-.13-.62-.38a3.12 3.12 0 00-.48-.52 2.13 2.13 0 01-.48-.47 2.79 2.79 0 00-.55-.54 3.49 3.49 0 01-.5-.46 4.25 4.25 0 00-.55-.51l-.59-.43a5.5 5.5 0 01-.56-.41 3.93 3.93 0 00-.63-.41 4.22 4.22 0 01-.57-.37 4.06 4.06 0 01-.5-.47 3.21 3.21 0 00-.55-.51 6.48 6.48 0 01-.52-.45 6.54 6.54 0 00-.56-.47 3.28 3.28 0 00-.38-.27 1.68 1.68 0 01-.59-.51 1.83 1.83 0 01-.17-1v-.16a2.08 2.08 0 01.3-1.11 3.32 3.32 0 01.76-.95 3.86 3.86 0 011.22-.53l.22-.07a4.53 4.53 0 00.57-.23 2.41 2.41 0 011-.29 1.91 1.91 0 01.73.22 3.44 3.44 0 00.53.21h.2a3.33 3.33 0 011 .37 3.82 3.82 0 011 .84 1.59 1.59 0 001.34.49h.04a1.63 1.63 0 001.36-.41c.1-.13.2-.27.29-.41a2 2 0 01.6-.68 3 3 0 011-.31l.36-.07a5.27 5.27 0 011.4-.16 3.33 3.33 0 011 .28l.4.16.31.1a3.19 3.19 0 011 .44l.3.22a2.35 2.35 0 01.67.61 2.6 2.6 0 01.33 1.23 2.52 2.52 0 01-.36 1.21 3.55 3.55 0 01-.87.94 3 3 0 01-.58.37 2.89 2.89 0 00-.63.4c-.29.23-.43.35-.56.47l-.55.45c-.37.25-.47.38-.64.5z"/></g></g></svg>