<svg xmlns="http://www.w3.org/2000/svg" viewBox="0 0 247.08 68.33"><defs><style>.cls-2{fill:#202020}</style></defs><g id="レイヤー_2" data-name="レイヤー 2"><g id="design"><path fill="none" stroke="#ff5" stroke-linecap="round" stroke-linejoin="round" stroke-width="15.18" d="M91.99 43.02l17.71 17.71 44.29-53.14"/><path class="cls-2" d="M70.62 18.14c.68.58 1.37 1.23 2.11 2a1.33 1.33 0 001 .47 1.17 1.17 0 001.14-1.18 1.42 1.42 0 00-.39-.93A27 27 0 0072 16.21a27.23 27.23 0 002.84-5.45 1.28 1.28 0 00.1-.47 1.19 1.19 0 00-1.24-1.13 1.14 1.14 0 00-1.1.77 25 25 0 01-2.47 4.83 24.83 24.83 0 00-2.43-1.59 1.36 1.36 0 00-.64-.17 1.19 1.19 0 00-1.2 1.14 1.07 1.07 0 00.61.93 19.83 19.83 0 012.3 1.57 22.27 22.27 0 01-5.4 5 1.26 1.26 0 00-.66 1.06 1.15 1.15 0 001.16 1.14 1.58 1.58 0 00.76-.23 23.75 23.75 0 005.99-5.47zm16.95-1.63h5.16a1 1 0 00.9-1.05 1 1 0 00-.9-1.06H79.86a.94.94 0 00-.86 1.06 1 1 0 00.87 1.05h5.42a7.26 7.26 0 01-3.45 5.83 1.09 1.09 0 00-.59 1 1.17 1.17 0 001.12 1.16 1.25 1.25 0 00.61-.18 9.76 9.76 0 004.59-7.81zm-5.49-4.21h7.67a1 1 0 00.89-1.07 1 1 0 00-.89-1.08h-7.67c-.61 0-.88.56-.88 1.08a1 1 0 00.88 1.07zm9.58-.79a.84.84 0 00.75.48.8.8 0 00.8-.8 1 1 0 00-.12-.46A11.69 11.69 0 0091.91 9a.77.77 0 00-.65-.31.8.8 0 00-.84.73.73.73 0 00.15.44 17.11 17.11 0 011.09 1.65zm2-1.17a.88.88 0 00.77.48.8.8 0 00.82-.8 1.05 1.05 0 00-.14-.5 10.88 10.88 0 00-1.22-1.69.91.91 0 00-.69-.31.79.79 0 00-.82.72.69.69 0 00.17.45 16.46 16.46 0 011.11 1.65zm3.86 9.77a1 1 0 00.53-.14 22.08 22.08 0 003.47-2.22v6a1 1 0 002.06 0v-6.46a.84.84 0 00-.55-.78 21.1 21.1 0 002.91-3.17 1 1 0 00.19-.58 1.09 1.09 0 00-1.09-1 .92.92 0 00-.78.42 21.2 21.2 0 01-7.13 6 1 1 0 00.39 1.93zm21.99-5.77a1.16 1.16 0 00-2.29 0v.85a7.15 7.15 0 01-3.68 6.66 1.31 1.31 0 00-.71 1.08A1.13 1.13 0 00114 24a1.45 1.45 0 00.74-.23 9.5 9.5 0 004.8-8.62z"/><path class="cls-2" d="M125.75 11.77a1.52 1.52 0 00-.45-1.12 2.7 2.7 0 00-2-.62l-10.82.07a1.09 1.09 0 000 2.18l10.22-.07c.32 0 .32.09.32.11a.5.5 0 01-.11.27 9 9 0 01-1.87 2 1.25 1.25 0 00-.54 1 1.08 1.08 0 001.07 1.1 1.38 1.38 0 00.82-.31 13.69 13.69 0 002.88-3.16 2.7 2.7 0 00.48-1.45zm3.16 10.93a1.1 1.1 0 00-.57.93 1.05 1.05 0 001.06 1 1.12 1.12 0 00.67-.24 13.45 13.45 0 001.93-1.77c1.45 1.34 3.49 1.81 7.72 1.81 1.87 0 3.43-.05 4.9-.16a1 1 0 001-1 1.08 1.08 0 00-.32-.8.94.94 0 00-.78-.22c-1.28.13-2.81.19-4.81.19-3.89 0-5.68-.39-6.8-1.49v-3.37c0-1.41-.65-2-2.1-2h-1.33a.91.91 0 00-.89 1 .92.92 0 00.89 1h.9c.42 0 .44.07.44.35v3.18a13.89 13.89 0 01-1.91 1.59z"/><path class="cls-2" d="M134.55 12.28a.9.9 0 001-.84v-.79c0-.24 0-.33.47-.33h3c-.4.07-.75.31-.75.73v.13h-1.82a.82.82 0 000 1.64h1.82v.5h-1.55c-1.46 0-2.05.51-2.05 1.74v2c0 1.23.59 1.74 2.05 1.74h1.55v.52h-3.79a.86.86 0 000 1.71h3.79v.44a.89.89 0 001 .82.88.88 0 001-.82v-.44h4.16a.86.86 0 000-1.71h-4.16v-.52h1.68c1.45 0 2-.51 2-1.74v-2c0-1.23-.59-1.74-2-1.74h-1.68v-.5h1.9a.82.82 0 000-1.64h-1.9v-.13a.77.77 0 00-.74-.73h3c.44 0 .48.09.48.33v.74a1 1 0 002 0v-1c0-1.33-.59-1.87-2.06-1.87h-7.26c-1.47 0-2.08.54-2.08 1.87v1a.9.9 0 00.94.89zm2 4.48h1.67v.56H137c-.33 0-.42 0-.42-.3zm0-1.39v-.25c0-.23 0-.3.42-.3h1.25v.55zm5.45 1.39V17c0 .23 0 .3-.43.3h-1.37v-.56zm0-1.39h-1.8v-.55h1.37c.39 0 .43.07.43.3zM131 12a1.14 1.14 0 00.87.45 1.16 1.16 0 001.13-1.1 1.23 1.23 0 00-.31-.78 9.13 9.13 0 00-1.53-1.43 1.37 1.37 0 00-.75-.25 1.09 1.09 0 00-1.1 1 1.06 1.06 0 00.39.78A9.21 9.21 0 01131 12zm24.73-1.91c0 .09.08.17.13.26a1 1 0 002-.33 1 1 0 00-.1-.46 9.66 9.66 0 00-.67-1.2 1 1 0 00-.91-.49 1 1 0 00-1 .87.85.85 0 00.16.5c.11.27.25.56.39.85zm-2.56 9.35c-1.68 0-2.4.54-2.4 1.8v1.58c0 1.26.72 1.79 2.4 1.79h7.44c1.69 0 2.41-.53 2.41-1.79v-1.58c0-1.26-.72-1.8-2.41-1.8H157c.17-.37.31-.75.45-1.13h1.78c1.52 0 2.17-.49 2.17-1.63v-1.33c0-1.16-.65-1.65-2.17-1.65h-4.77c-1.52 0-2.17.49-2.17 1.65v1.33c0 1.14.65 1.63 2.17 1.63h.86c-.16.42-.31.78-.47 1.13zm1.62-2.71c-.45 0-.47-.09-.47-.32v-.77c0-.24 0-.32.47-.32h4.13c.45 0 .48.08.48.32v.77c0 .29-.12.32-.48.32zm-1.35 4.39h6.88c.54 0 .59.1.59.37v1c0 .27-.06.39-.59.39h-6.88c-.41 0-.56-.06-.56-.39v-1c0-.26.05-.37.56-.37z"/><path class="cls-2" d="M150 15.18a1 1 0 001.07-.88v-1.09c0-.37.06-.46.62-.46h10.2c.56 0 .62.09.62.46v1a1.1 1.1 0 002.16 0v-1.33c0-1.31-.73-1.9-2.35-1.9h-1.1a15.91 15.91 0 00.79-1.51 1 1 0 00.1-.44 1 1 0 00-1.09-1 1 1 0 00-.95.62 17.46 17.46 0 01-1.19 2.3h-5.13a.89.89 0 00.35-.71 1 1 0 00-.14-.48 8.76 8.76 0 00-.77-1.2 1.1 1.1 0 00-.85-.42 1 1 0 00-1.07.91.76.76 0 00.16.49 11.61 11.61 0 01.72 1.11 1.07 1.07 0 00.23.3h-1.08c-1.62 0-2.35.59-2.35 1.9v1.45a1 1 0 001.05.88zm25.14-4.84a12.89 12.89 0 011.75 1.25 1.1 1.1 0 00.78.31 1.1 1.1 0 00.7-2 10.09 10.09 0 00-2-1.34 1.32 1.32 0 00-.68-.19 1.11 1.11 0 00-1.11 1.07 1.07 1.07 0 00.56.9z"/><path class="cls-2" d="M176.58 23l-2.65-7.85a15.82 15.82 0 015.24-1.06c1.47 0 2.28.47 2.28 1.33s-.65 1.46-1.74 1.46a4.78 4.78 0 01-1.23-.16 1.67 1.67 0 00-.37 0A1.07 1.07 0 00177 17.8a1.2 1.2 0 001 1.14 7.33 7.33 0 001.81.18c2.4 0 3.95-1.44 3.95-3.66s-1.74-3.38-4.54-3.38a18.2 18.2 0 00-6 1.14l-.94-2.77a1 1 0 00-1-.64 1.08 1.08 0 00-1.18 1 1.1 1.1 0 00.06.32l1 2.89c-.8.32-1.69.71-2.72 1.18a1.06 1.06 0 00.36 2 1.19 1.19 0 00.5-.11c.85-.41 1.68-.77 2.54-1.12l2.65 7.77a1 1 0 001 .72 1.1 1.1 0 001.14-1 1.36 1.36 0 00-.05-.46zM12.78 45.45a1.18 1.18 0 00-1 .61 16.37 16.37 0 01-10.2 7.75 1.17 1.17 0 00-.9 1.12 1.1 1.1 0 001.11 1.13A1.93 1.93 0 002.2 56a18.88 18.88 0 0011.58-8.85 1.29 1.29 0 00.18-.63 1.14 1.14 0 00-1.18-1.07zM2.7 43.55a19.93 19.93 0 012.2 1.5 1.12 1.12 0 00.73.27 1.2 1.2 0 001.16-1.18 1.16 1.16 0 00-.41-.86 11.74 11.74 0 00-2.44-1.62 1.32 1.32 0 00-.58-.15 1.22 1.22 0 00-1.22 1.16 1 1 0 00.56.88zm8.77.72a.82.82 0 00.68.39.83.83 0 00.81-.82.81.81 0 00-.17-.54 9 9 0 00-1.42-1.59.88.88 0 00-.58-.22.84.84 0 00-.85.78.76.76 0 00.21.49 12.15 12.15 0 011.32 1.51zm1.71-3.97a1 1 0 00-.6-.24.83.83 0 00-.86.77.69.69 0 00.23.5c.39.42.9 1 1.32 1.49a.89.89 0 00.71.36.8.8 0 00.82-.78.91.91 0 00-.22-.6 9.31 9.31 0 00-1.4-1.5zm-9.7 9.11a1.23 1.23 0 001.17-1.2 1.14 1.14 0 00-.41-.86 10.93 10.93 0 00-2.46-1.62 1.27 1.27 0 00-.58-.14A1.19 1.19 0 000 46.74a1 1 0 00.55.88 18.63 18.63 0 012.2 1.52 1.14 1.14 0 00.73.27zM28 46.74a2.69 2.69 0 00-.56 0l-4.47.71-.54-2.82a1 1 0 00-1-.77 1.07 1.07 0 00-.85.36.84.84 0 00-.15.7l.56 2.85-2.99.49a.88.88 0 00-.77.91 1 1 0 00.35.78.88.88 0 00.74.18l2.93-.47 1.26 6.51a.93.93 0 001 .75 1.06 1.06 0 00.84-.36.81.81 0 00.18-.71l-1.24-6.51 3.91-.63h.25a.52.52 0 01-.06.14 8.46 8.46 0 01-1.57 1.94 1.06 1.06 0 00-.37.76 1 1 0 001 1 1.17 1.17 0 00.81-.35 10.75 10.75 0 002.14-2.89 2.38 2.38 0 00.3-1.11c.02-.87-.7-1.46-1.7-1.46zm17.12.63H34.61c-.61 0-.88.59-.88 1.13s.3 1.13.88 1.13h10.51c.58 0 .88-.57.88-1.13s-.28-1.13-.88-1.13zm17.65-1.98h-5v-3.95a1 1 0 00-1.16-1 1.06 1.06 0 00-1.17 1v3.95H50a1.08 1.08 0 000 2.15h5.27a8.51 8.51 0 01-3.66 6.51 1.15 1.15 0 00.62 2.13 1.27 1.27 0 00.74-.25c2.71-1.86 4.19-4.53 4.64-8.39h5.12a1.08 1.08 0 000-2.15zm8.35-3.03a1.08 1.08 0 00-1.17-1 1.1 1.1 0 00-1.19 1v7.08a1.09 1.09 0 001.19 1 1.07 1.07 0 001.17-1zM76.88 41a1.08 1.08 0 00-1.2 1v5.2c0 3.65-1.2 5.72-4.14 7.17a1.15 1.15 0 00-.72 1A1.17 1.17 0 0072 56.61a1.5 1.5 0 00.58-.15C76.25 54.7 78 51.74 78 47.4v-5.34A1.06 1.06 0 0076.88 41zm19.96-1.25a1 1 0 00-.67-.28.79.79 0 00-.83.73.7.7 0 00.18.46 18.6 18.6 0 011.18 1.61.92.92 0 00.75.44.8.8 0 00.82-.8 1.16 1.16 0 00-.17-.54 9.53 9.53 0 00-1.26-1.62zm-5.4 9.83a16.74 16.74 0 002.42-4.25 3.26 3.26 0 00.2-1 1.49 1.49 0 00-.44-1.11 2.43 2.43 0 00-1.79-.53l-7.16.12a1 1 0 00-1 1.11 1 1 0 001 1.07l6.44-.12c.35 0 .35.09.35.13a.55.55 0 01-.06.25 17.18 17.18 0 01-8.27 8.39 1.12 1.12 0 00-.67 1 1.17 1.17 0 001.14 1.15 1.26 1.26 0 00.57-.14A21 21 0 0090 51.23a28 28 0 014.34 4.16 1.22 1.22 0 00.94.47 1.24 1.24 0 001.25-1.18 1.4 1.4 0 00-.36-.88 27.53 27.53 0 00-4.73-4.22zm2.84-8.89a.84.84 0 00-.85.77.73.73 0 00.16.46 12.81 12.81 0 011.18 1.62.78.78 0 00.7.45.83.83 0 00.84-.82.92.92 0 00-.14-.48A10.33 10.33 0 0094.9 41a.86.86 0 00-.62-.31zm17.43 7.64a1.29 1.29 0 00-1-.49 1.09 1.09 0 00-1.13 1 1.14 1.14 0 00.26.68 26.26 26.26 0 011.62 2.29c-1.88.29-3.82.53-5.93.74a84.87 84.87 0 003.28-10.06 2 2 0 000-.29 1.16 1.16 0 00-1.25-1.09 1.12 1.12 0 00-1.16.85 91.13 91.13 0 01-3.4 10.8h-.68l-.79.05a1.06 1.06 0 00-1 1.12 1.19 1.19 0 00.35.87 1 1 0 00.82.26 80.49 80.49 0 0010.92-1.41l.16.31c.19.35.36.68.51 1a1.13 1.13 0 001 .69 1.2 1.2 0 001.22-1.17 1.41 1.41 0 00-.14-.58 28.72 28.72 0 00-3.66-5.57zM132 52.27a14.71 14.71 0 01-2.7.27c-2.29 0-2.73-.42-2.87-1.44a1 1 0 00-1-.86 1.2 1.2 0 00-.87.37 1.07 1.07 0 00-.27.84c.2 2.29 1.7 3.27 5 3.27a16.16 16.16 0 003.14-.3 1.05 1.05 0 00.87-1.06 1.13 1.13 0 00-.4-.88 1 1 0 00-.9-.21zm-9.92-10.41a1.23 1.23 0 00-.93-.39 1.06 1.06 0 00-1.1.84 40.62 40.62 0 00-.85 8.33 34.1 34.1 0 00.31 4.46 1.08 1.08 0 001.14 1 1.18 1.18 0 00.89-.38 1 1 0 00.24-.83 34.42 34.42 0 01-.33-4.22 37.78 37.78 0 01.83-7.94 1 1 0 00-.2-.87zm2.92 2.66a1 1 0 00.32.78 1.1 1.1 0 00.79.3 45.16 45.16 0 005.09-.39 1.09 1.09 0 001-1.09 1.07 1.07 0 00-.34-.8 1.14 1.14 0 00-.89-.26 43.27 43.27 0 01-4.94.4 1.06 1.06 0 00-1.03 1.06zm20.08 1.27h-.65c-.84 0-1.16.38-1.16 1.36v2.13c0 1 .32 1.36 1.16 1.36h.65c.95 0 1.14-.51 1.16-1.36v-2.13c0-.98-.32-1.36-1.16-1.36zm-.08 1.63V49c0 .13 0 .13-.1.13h-.36s-.09 0-.09-.13v-1.58c0-.13 0-.13.09-.13h.36c.1 0 .1 0 .1.13zm6.66 7.34a21.15 21.15 0 01-3.8-1.41 1.25 1.25 0 00-.59-.16 1 1 0 00-1 1 1 1 0 00.56.86 19.72 19.72 0 004.28 1.75 1 1 0 00.34 0 1 1 0 00.19-2zm-7.93-11.26a.71.71 0 00-.64.79.7.7 0 00.64.78h2a.69.69 0 00.65-.78.7.7 0 00-.65-.79z"/><path class="cls-2" d="M152.59 51.3h-.89l.37-8.36a1.78 1.78 0 00-.39-1.37 2 2 0 00-1.54-.48H149a.9.9 0 000 1.79h.65a.83.83 0 01.44.06v1.46h-.84a.87.87 0 000 1.72h.75v1.58h-.8a.86.86 0 000 1.71h.74l-.08 1.89h-1.66v-8.47c0-1.24-.57-1.81-1.79-1.81h-3.29a1.7 1.7 0 00-1.47.57 1 1 0 00-1-.91 1 1 0 00-.53.14c-.38.21-.77.41-1.25.64a1.3 1.3 0 00-.49-.1 1 1 0 00-.74.27.69.69 0 00-.18.52l.33 9.17H137a.91.91 0 000 1.78h15.6a.91.91 0 000-1.78zm-6.05-8.25v8.25H143v-8.25c0-.25.06-.35.43-.35h2.75c.33 0 .36.1.36.35zm-5.22-.22v8.47h-1.57l-.06-1.89h.72a.86.86 0 000-1.71h-.78l-.07-1.58h.76a.86.86 0 000-1.72h-.82v-1.2a13.69 13.69 0 001.64-.79 1.4 1.4 0 00.29-.23 2.59 2.59 0 00-.11.65zm.91 10.43a1.22 1.22 0 00-.56.14 22.92 22.92 0 01-3.95 1.52.94.94 0 00-.74.93 1 1 0 001 1 .94.94 0 00.32 0 21.62 21.62 0 004.45-1.8.92.92 0 00.54-.81 1 1 0 00-1.06-.98zM162 50.3V43c0-1.21-.58-1.77-1.83-1.77h-1.54c-1.25 0-1.83.56-1.83 1.77v7.3c0 1.2.58 1.76 1.83 1.76h1.55c1.19-.06 1.76-.56 1.82-1.76zm-2-6.82v6.32c0 .28-.09.33-.28.33H159c-.15 0-.28 0-.28-.33v-6.32c0-.3.09-.35.28-.35h.68c.2 0 .32.05.32.35z"/><path class="cls-2" d="M172.77 52.93a20.48 20.48 0 01-3.77-4.17h3.27a1 1 0 000-1.93h-3.82V45h2.7a1 1 0 000-1.93h-2.7v-2.33a1.07 1.07 0 00-2.11 0V43h-2.42a1 1 0 000 1.93h2.42v1.88h-3.24a1 1 0 000 1.93h2.47a17.69 17.69 0 01-4.73 4.68 1.09 1.09 0 00-.51.89 1 1 0 001 1 1.27 1.27 0 00.7-.23 20.92 20.92 0 004.39-4.17l-.06 2.53v2.72a1.07 1.07 0 002.11 0v-2.73l-.1-2.43a23.26 23.26 0 003 3.54 1.31 1.31 0 00.91.4 1 1 0 001-1 1.25 1.25 0 00-.51-1.01zm12.32-10.76c-4.82 0-8.45 3.26-8.45 7.57 0 3 1.74 4.39 3.46 4.39 1.57 0 2.6-.67 3.53-2.32a18.11 18.11 0 002-7.59 4.29 4.29 0 014.15 4.39c0 2.28-1.12 3.74-3.52 4.6a1.15 1.15 0 00-.82 1.09 1.11 1.11 0 001.11 1.13 1.23 1.23 0 00.44-.08 6.8 6.8 0 005.09-6.74c.04-3.85-2.78-6.44-6.99-6.44zm-5 9.74c-.57 0-1.19-.57-1.19-2.17a5.57 5.57 0 014.45-5.38 16 16 0 01-1.78 6.4c-.45.81-.89 1.15-1.47 1.15zm26.39-5.57a1 1 0 010-.17c0-.09 0-.18.07-.28a.82.82 0 000-.21 1 1 0 00-2-.17 6 6 0 01-.18.64 12.28 12.28 0 00-2.46.27l.06-.86c0-.29 0-.57.07-.85 1.7-.15 3-.31 4.08-.5a1 1 0 00.87-1 1 1 0 00-.34-.77 1.06 1.06 0 00-.91-.21c-1 .18-2.22.33-3.46.44.08-.54.17-1.09.25-1.66a.85.85 0 00-.19-.69 1.1 1.1 0 00-.85-.36 1 1 0 00-1.07.86c-.1.7-.19 1.36-.26 2-.75 0-1.56.07-2.41.07a1 1 0 00-1 1 1 1 0 001 1h2.21c-.07.81-.11 1.54-.13 2.24-3.14 1.45-4.25 3.81-4.25 5.39a2.5 2.5 0 002.64 2.7 4.35 4.35 0 002.22-.58v.1a1.74 1.74 0 01.05.22 1 1 0 001 .73 1 1 0 001.1-1 1 1 0 000-.26c-.08-.32-.15-.68-.22-1a13 13 0 003.48-5.18 3 3 0 012.27 2.75c0 1.59-1 2.67-3.17 3.33a1.09 1.09 0 00-.84 1 1.06 1.06 0 001 1.09 1.38 1.38 0 00.31 0c3.06-.75 4.89-2.78 4.89-5.42a4.79 4.79 0 00-3.83-4.66zM203.77 48a12 12 0 01-1.77 2.92c-.08-.88-.13-1.68-.13-2.38v-.23a8.9 8.9 0 011.9-.31zm-5.38 5.06c-.53 0-.64-.21-.65-.74a4.06 4.06 0 012.1-3.13c0 1.09.12 2.19.26 3.28a3.11 3.11 0 01-1.71.59zm24.03-6.35a6.44 6.44 0 00-2 .34 40.4 40.4 0 003.4-3.85 1.52 1.52 0 00.34-.91 1.18 1.18 0 00-.41-.91 1.52 1.52 0 00-1.2-.31c-1.72.27-3.62.49-5.08.58a1 1 0 00-1 1 1.09 1.09 0 00.34.81.92.92 0 00.74.26c1.39-.11 2.51-.23 3.41-.36a40.3 40.3 0 01-5.91 5.87 1.15 1.15 0 00-.49.92 1.12 1.12 0 001.11 1.09 1.33 1.33 0 00.82-.31 9.2 9.2 0 015.74-2.31c1.57 0 2.63.88 2.63 2.2a3 3 0 01-1.58 2.79 3.67 3.67 0 00-3.52-2.91 2.35 2.35 0 00-2.6 2.41c0 1.74 1.7 3 4.13 3 3.57 0 5.88-2.07 5.88-5.27 0-2.51-1.86-4.13-4.75-4.13zm-2.7 5.83c.68 0 1.17.53 1.47 1.57-1.24 0-2-.37-2-1a.57.57 0 01.53-.57zM246.19 43h-6.26v-2.26a1.11 1.11 0 00-2.18 0V43h-6a1 1 0 000 2h5.42a12.29 12.29 0 01-2.6 7.33 11.66 11.66 0 01-2.78 2.3 1.08 1.08 0 00-.63 1 1.11 1.11 0 001.09 1.09 1.29 1.29 0 00.65-.2 12.47 12.47 0 005.88-7.73h3.54c.21 0 .34 0 .4.1s.08.17.08.36a21.14 21.14 0 01-.58 4.05c-.19.76-.55 1.07-1.23 1.07a5.53 5.53 0 01-1.37-.18h-.27a1 1 0 00-1 1.09 1.06 1.06 0 00.87 1 8.15 8.15 0 001.9.2c1.82 0 2.8-.8 3.25-2.69a27 27 0 00.65-4.7 2.13 2.13 0 00-.47-1.63 2.86 2.86 0 00-2.15-.63h-3.15a15.89 15.89 0 00.21-1.8h6.81a1 1 0 000-2z"/></g></g></svg>