<svg xmlns="http://www.w3.org/2000/svg" viewBox="0 0 218.43 24.59"><defs><style>.cls-1{fill:#fff}</style></defs><g id="レイヤー_2" data-name="レイヤー 2"><g id="design"><path class="cls-1" d="M2.81 20.17A2.34 2.34 0 011 19.26a2.33 2.33 0 01-.75-1.82c0-.92.17-.92.17-1.84S0 14.68 0 13.76s.47-.92.47-1.85S0 11 0 10.07s.37-.92.37-1.85.08-.92.08-1.85S0 5.45 0 4.52a2.59 2.59 0 01.93-1.89 2.5 2.5 0 011.88-.89C4 1.74 4 2 5.2 2a2.37 2.37 0 011.87.63 2.36 2.36 0 01.67 1.86c0 .92.13.92.13 1.84s.23.93.23 1.85-.1.95-.1 1.87-.12.92-.12 1.85-.19.92-.19 1.84v1.85c0 .92.1.93.09 1.85a2.43 2.43 0 01-2.6 2.63c-1.18.07-1.18.1-2.37.1zm2.29-15c0-.58 0-1-.55-1s-.54.23-1.09.23a.73.73 0 00-.84.8c0 1.06.42 1.06.42 2.12s-1.17 1.56-.38 2.26 1.52.44 2.4-.35.34-.91.31-2-.27-1.02-.27-2.08zm-.55 12.3c.52 0 .92-.08.92-.65 0-.83-.22-.83-.22-1.65s.17-.83.17-1.66.35-1-.33-1.49c-1-.68-1.43-1.06-2.4-.39-.68.48.36 1 .36 1.88s-.37.83-.37 1.65-.08.84-.08 1.66c0 .47.3.56.84.56a8.17 8.17 0 011.11.09zM14.07 6c-.5-.67-.75-.34-1.59-.34s-.83.23-1.66.23-.9-.58-.9-1.2.17-1.45.9-1.45.83.47 1.66.47 1 .26 1.5-.4c.66-.88.33-1 .33-2.08 0-.81.54-1 1.24-1s1.58.15 1.58 1c0 1.1-1 1.45-.32 2.31.56.7 1-.25 1.91-.25s.9.29 1.8.29.9.48.9 1.11-.15 1.15-.9 1.15-.9.14-1.8.14-1-.57-1.58.12c-.7.88-.76 1.08-.05 1.94s.75 0 1.67 0 .91.2 1.83.2h1.83a1 1 0 011.09 1.13 1 1 0 01-1.09 1.11c-.92 0-.92.14-1.84.14s-.91-.07-1.83-.07-.92-.21-1.84-.21-.92.22-1.84.22h-1.84c-.92 0-.92-.22-1.84-.22s-.92.32-1.84.32a1.33 1.33 0 01-1.29-1.25A1.49 1.49 0 019.55 8c.76 0 .76.45 1.53.45s.77-.17 1.53-.17.93.4 1.59 0c.98-.62.53-1.4-.13-2.28zM10 16c-.73 0-.84-.73-.84-1.38s.11-1.2.84-1.2.86.17 1.72.17.86-.42 1.72-.42.87.47 1.73.47a2 2 0 001.61-.45c.46-.3.28-.38.28-.93 0-.81.53-1 1.24-1s1.57.15 1.57 1c0 .55-.77 1-.26 1.26 1.08.51 1.26-.3 2.46-.3.75 0 1 .78 1 1.43s-.23 1-1 1c-1.2 0-1.48-.56-2.45.14-.69.49.1.93.1 1.78s.23.86.23 1.71-.07.85-.07 1.71a4.28 4.28 0 01-.38 1.66 2.06 2.06 0 01-1.25 1 4.13 4.13 0 01-1.59.24 10.12 10.12 0 01-2-.09 1.16 1.16 0 01-.91-1.3c0-.75.41-1.51 1.4-1.33a4.45 4.45 0 001.09.17c.49 0 .95-.22.95-.71 0-.8-.21-.8-.21-1.59v-1.6c0-.8.71-1.26.13-1.8S16 16 15.13 16s-.86.14-1.72.14H11.7c-.86 0-.87-.14-1.7-.14zm4.27 2.57c.19.26-.07.58-.07.84a1.2 1.2 0 01-1.2 1.37c-.37 0-.55-.24-.84-.63-.41-.57-1.16-.8-1.65-1.32-.23-.26.08-.68.08-1 0-.65.35-1.46 1.08-1.46.32 0 .55.47.86.73a7.8 7.8 0 011.7 1.51z"/><path class="cls-1" d="M2.81 20.17A2.34 2.34 0 011 19.26a2.33 2.33 0 01-.75-1.82c0-.92.17-.92.17-1.84S0 14.68 0 13.76s.47-.92.47-1.85S0 11 0 10.07s.37-.92.37-1.85.08-.92.08-1.85S0 5.45 0 4.52a2.59 2.59 0 01.93-1.89 2.5 2.5 0 011.88-.89C4 1.74 4 2 5.2 2a2.37 2.37 0 011.87.63 2.36 2.36 0 01.67 1.86c0 .92.13.92.13 1.84s.23.93.23 1.85-.1.95-.1 1.87-.12.92-.12 1.85-.19.92-.19 1.84v1.85c0 .92.1.93.09 1.85a2.43 2.43 0 01-2.6 2.63c-1.18.07-1.18.1-2.37.1zm2.29-15c0-.58 0-1-.55-1s-.54.23-1.09.23a.73.73 0 00-.84.8c0 1.06.42 1.06.42 2.12s-1.17 1.56-.38 2.26 1.52.44 2.4-.35.34-.91.31-2-.27-1.02-.27-2.08zm-.55 12.3c.52 0 .92-.08.92-.65 0-.83-.22-.83-.22-1.65s.17-.83.17-1.66.35-1-.33-1.49c-1-.68-1.43-1.06-2.4-.39-.68.48.36 1 .36 1.88s-.37.83-.37 1.65-.08.84-.08 1.66c0 .47.3.56.84.56a8.17 8.17 0 011.11.09zM14.07 6c-.5-.67-.75-.34-1.59-.34s-.83.23-1.66.23-.9-.58-.9-1.2.17-1.45.9-1.45.83.47 1.66.47 1 .26 1.5-.4c.66-.88.33-1 .33-2.08 0-.81.54-1 1.24-1s1.58.15 1.58 1c0 1.1-1 1.45-.32 2.31.56.7 1-.25 1.91-.25s.9.29 1.8.29.9.48.9 1.11-.15 1.15-.9 1.15-.9.14-1.8.14-1-.57-1.58.12c-.7.88-.76 1.08-.05 1.94s.75 0 1.67 0 .91.2 1.83.2h1.83a1 1 0 011.09 1.13 1 1 0 01-1.09 1.11c-.92 0-.92.14-1.84.14s-.91-.07-1.83-.07-.92-.21-1.84-.21-.92.22-1.84.22h-1.84c-.92 0-.92-.22-1.84-.22s-.92.32-1.84.32a1.33 1.33 0 01-1.29-1.25A1.49 1.49 0 019.55 8c.76 0 .76.45 1.53.45s.77-.17 1.53-.17.93.4 1.59 0c.98-.62.53-1.4-.13-2.28zM10 16c-.73 0-.84-.73-.84-1.38s.11-1.2.84-1.2.86.17 1.72.17.86-.42 1.72-.42.87.47 1.73.47a2 2 0 001.61-.45c.46-.3.28-.38.28-.93 0-.81.53-1 1.24-1s1.57.15 1.57 1c0 .55-.77 1-.26 1.26 1.08.51 1.26-.3 2.46-.3.75 0 1 .78 1 1.43s-.23 1-1 1c-1.2 0-1.48-.56-2.45.14-.69.49.1.93.1 1.78s.23.86.23 1.71-.07.85-.07 1.71a4.28 4.28 0 01-.38 1.66 2.06 2.06 0 01-1.25 1 4.13 4.13 0 01-1.59.24 10.12 10.12 0 01-2-.09 1.16 1.16 0 01-.91-1.3c0-.75.41-1.51 1.4-1.33a4.45 4.45 0 001.09.17c.49 0 .95-.22.95-.71 0-.8-.21-.8-.21-1.59v-1.6c0-.8.71-1.26.13-1.8S16 16 15.13 16s-.86.14-1.72.14H11.7c-.86 0-.87-.14-1.7-.14zm4.27 2.57c.19.26-.07.58-.07.84a1.2 1.2 0 01-1.2 1.37c-.37 0-.55-.24-.84-.63-.41-.57-1.16-.8-1.65-1.32-.23-.26.08-.68.08-1 0-.65.35-1.46 1.08-1.46.32 0 .55.47.86.73a7.8 7.8 0 011.7 1.51zm17.84-8.38c-.63.68.1.85.1 1.78s-.12.93-.12 1.86-.11.93-.11 1.86-.21.93-.21 1.86v1.86c0 .93.13.93.13 1.86s.37.94.37 1.87c0 .73-1 .91-1.68.91s-1.56-.18-1.56-.91.25-.88.25-1.75-.06-.87-.06-1.75V17.9c0-.87-.11-.87-.11-1.75s.23-.87.23-1.74-.34-.88-.34-1.75.37-.88.37-1.75S29 10 29 9.16V7.41c0-.87.5-.88.5-1.76S29 4.78 29 3.9a3.2 3.2 0 01.64-1.63 1.93 1.93 0 011.28-1 5.59 5.59 0 011.7-.45c.71 0 .71.28 1.41.28s.7-.24 1.4-.24a7.24 7.24 0 011.75.14 2.46 2.46 0 011.54 1c.24.42 0 1.09 0 1.77 0 .9.36.9.36 1.8s-.44.9-.44 1.79 0 1.57-.75 2.06a4.43 4.43 0 01-2.49.62 5.4 5.4 0 01-1.65-.18c-.83-.15-1.06-.3-1.64.33zm3.83-6.34c0-.5-.07-.47-.72-.47-1.18 0-1.18-.12-2.36-.12-.65 0-.88.09-.88.59s-.38.84 0 1c.95.34 1.09 0 2.1 0a7.26 7.26 0 002-.13c.36-.12-.14-.51-.14-.87zm-.72 4c.65 0 .66 0 .66-.54s.51-.56.15-.69c-.94-.36-1-.11-2-.11s-1.33-.74-2.16-.16a1.17 1.17 0 000 1.78c.6.53.95 0 1.75-.07s.8-.19 1.6-.19zM38 21.2a4.92 4.92 0 01-1.6-.2 2.07 2.07 0 01-1.15-1.1 3.55 3.55 0 01-.19-1.53c0-1 .21-1 .21-2.05v-2a3.27 3.27 0 01.15-1.46c.23-.45.43-1.08 1-1.27s1 .23 1.62.23c1 0 1-.31 2-.31s1 .25 2 .25a4.81 4.81 0 011.51.15 1.82 1.82 0 011.1.94 3.15 3.15 0 01.38 1.47c0 1-.23 1-.23 2s.37 1 .36 2.05c0 .63-.47 1-.66 1.4s-.36 1-.88 1.21a5 5 0 01-1.58.31c-1 0-1-.55-2-.51S39 21.2 38 21.2zm4.2-6.8c0-.44 0-.39-.59-.39-.82 0-.82-.11-1.63-.11s-.82-.11-1.64-.11c-.57 0-1 .17-1 .61s-.26.88.13 1.11c.68.39.9-.1 1.67-.1S40 15 40.74 15s.86.69 1.61.45c.44-.11-.17-.59-.17-1.05zm-.59 4.39c.58 0 .53 0 .53-.46s.54-.64.14-.88c-.67-.4-.74-.1-1.52-.1s-.78-.21-1.56-.21-1-.34-1.68.06c-.4.24 0 .66 0 1.13s.36.29.8.29c.82 0 .83.5 1.64.46s.81-.29 1.63-.29zm3-8.56a8.05 8.05 0 01-1.74-.11 2.19 2.19 0 01-1.41-1 3.42 3.42 0 01-.24-1.69c0-.89.21-.89.21-1.79v-1.8a3.15 3.15 0 01.2-1.61c.26-.45.55-1.07 1.24-1.24.45-.12 1.08.27 1.77.27S45.32.9 46.08.9s.76.25 1.52.25a7.07 7.07 0 011.71.13 2 2 0 011.32 1 3.22 3.22 0 01.43 1.65c0 .92-.23.92-.23 1.85s.36.92.36 1.85-.38.93-.38 1.85.38.93.38 1.85.09.93.09 1.86-.51.93-.51 1.85.46.93.46 1.86-.31.93-.31 1.86.08.93.08 1.86a5.93 5.93 0 010 1.87 2.49 2.49 0 01-1.44 1.16 4.1 4.1 0 01-1.75.55 12.39 12.39 0 01-2-.14 1.76 1.76 0 01-1.38-1.59 1.49 1.49 0 011.82-1.29c.41.05.74-.25 1.13-.25.59 0 1 .08 1-.57v-1.7c0-.85-.1-.85-.1-1.7s.19-.85.19-1.7-.34-.85-.34-1.71.36-.85.36-1.7.39-1.16-.23-1.74-.95-.22-1.86-.18-.93.3-1.84.3zm3.52-6.38c0-.5-.06-.48-.74-.48-1.29 0-1.29-.11-2.57-.11-.68 0-.88.09-.88.59s-.38.84 0 1c1 .34 1.15 0 2.22 0a8.16 8.16 0 002.15-.13c.27-.12-.23-.51-.23-.87zm.06 2.82c-.89-.59-1 .08-2.07.08S45 6.28 44 6.64c-.36.12-.07.31-.07.69s.2.9.88.9h1.71c.86 0 1 .2 1.76-.13s.44-1.04-.14-1.43z"/><path class="cls-1" d="M32.11 10.19c-.63.68.1.85.1 1.78s-.12.93-.12 1.86-.11.93-.11 1.86-.21.93-.21 1.86v1.86c0 .93.13.93.13 1.86s.37.94.37 1.87c0 .73-1 .91-1.68.91s-1.56-.18-1.56-.91.25-.88.25-1.75-.06-.87-.06-1.75V17.9c0-.87-.11-.87-.11-1.75s.23-.87.23-1.74-.34-.88-.34-1.75.37-.88.37-1.75S29 10 29 9.16V7.41c0-.87.5-.88.5-1.76S29 4.78 29 3.9a3.2 3.2 0 01.64-1.63 1.93 1.93 0 011.28-1 5.59 5.59 0 011.7-.45c.71 0 .71.28 1.41.28s.7-.24 1.4-.24a7.24 7.24 0 011.75.14 2.46 2.46 0 011.54 1c.24.42 0 1.09 0 1.77 0 .9.36.9.36 1.8s-.44.9-.44 1.79 0 1.57-.75 2.06a4.43 4.43 0 01-2.49.62 5.4 5.4 0 01-1.65-.18c-.83-.15-1.06-.3-1.64.33zm3.83-6.34c0-.5-.07-.47-.72-.47-1.18 0-1.18-.12-2.36-.12-.65 0-.88.09-.88.59s-.38.84 0 1c.95.34 1.09 0 2.1 0a7.26 7.26 0 002-.13c.36-.12-.14-.51-.14-.87zm-.72 4c.65 0 .66 0 .66-.54s.51-.56.15-.69c-.94-.36-1-.11-2-.11s-1.33-.74-2.16-.16a1.17 1.17 0 000 1.78c.6.53.95 0 1.75-.07s.8-.19 1.6-.19zM38 21.2a4.92 4.92 0 01-1.6-.2 2.07 2.07 0 01-1.15-1.1 3.55 3.55 0 01-.19-1.53c0-1 .21-1 .21-2.05v-2a3.27 3.27 0 01.15-1.46c.23-.45.43-1.08 1-1.27s1 .23 1.62.23c1 0 1-.31 2-.31s1 .25 2 .25a4.81 4.81 0 011.51.15 1.82 1.82 0 011.1.94 3.15 3.15 0 01.38 1.47c0 1-.23 1-.23 2s.37 1 .36 2.05c0 .63-.47 1-.66 1.4s-.36 1-.88 1.21a5 5 0 01-1.58.31c-1 0-1-.55-2-.51S39 21.2 38 21.2zm4.2-6.8c0-.44 0-.39-.59-.39-.82 0-.82-.11-1.63-.11s-.82-.11-1.64-.11c-.57 0-1 .17-1 .61s-.26.88.13 1.11c.68.39.9-.1 1.67-.1S40 15 40.74 15s.86.69 1.61.45c.44-.11-.17-.59-.17-1.05zm-.59 4.39c.58 0 .53 0 .53-.46s.54-.64.14-.88c-.67-.4-.74-.1-1.52-.1s-.78-.21-1.56-.21-1-.34-1.68.06c-.4.24 0 .66 0 1.13s.36.29.8.29c.82 0 .83.5 1.64.46s.81-.29 1.63-.29zm3-8.56a8.05 8.05 0 01-1.74-.11 2.19 2.19 0 01-1.41-1 3.42 3.42 0 01-.24-1.69c0-.89.21-.89.21-1.79v-1.8a3.15 3.15 0 01.2-1.61c.26-.45.55-1.07 1.24-1.24.45-.12 1.08.27 1.77.27S45.32.9 46.08.9s.76.25 1.52.25a7.07 7.07 0 011.71.13 2 2 0 011.32 1 3.22 3.22 0 01.43 1.65c0 .92-.23.92-.23 1.85s.36.92.36 1.85-.38.93-.38 1.85.38.93.38 1.85.09.93.09 1.86-.51.93-.51 1.85.46.93.46 1.86-.31.93-.31 1.86.08.93.08 1.86a5.93 5.93 0 010 1.87 2.49 2.49 0 01-1.44 1.16 4.1 4.1 0 01-1.75.55 12.39 12.39 0 01-2-.14 1.76 1.76 0 01-1.38-1.59 1.49 1.49 0 011.82-1.29c.41.05.74-.25 1.13-.25.59 0 1 .08 1-.57v-1.7c0-.85-.1-.85-.1-1.7s.19-.85.19-1.7-.34-.85-.34-1.71.36-.85.36-1.7.39-1.16-.23-1.74-.95-.22-1.86-.18-.93.3-1.84.3zm3.52-6.38c0-.5-.06-.48-.74-.48-1.29 0-1.29-.11-2.57-.11-.68 0-.88.09-.88.59s-.38.84 0 1c1 .34 1.15 0 2.22 0a8.16 8.16 0 002.15-.13c.27-.12-.23-.51-.23-.87zm.06 2.82c-.89-.59-1 .08-2.07.08S45 6.28 44 6.64c-.36.12-.07.31-.07.69s.2.9.88.9h1.71c.86 0 1 .2 1.76-.13s.44-1.04-.14-1.43zm12.99-4.26c.83 0 1.77.42 1.59 1.48-.14.65-.42 1.25-.53 1.87s-.15 1.3-.24 1.92S62 9 62 9.61s-.56 1.25-.6 1.89.14 1.3.12 1.94-.15 1.28-.15 1.92.41 1.32.45 2 0 1.37.12 2-.22 1.47-.13 2.08c.13 1-.5 1.33-1.31 1.33s-1.26-.18-1.36-1.06c-.07-.47-.45-1-.51-1.56s.22-1.08.18-1.63-.14-1.07-.16-1.6-.34-1.09-.34-1.62.24-1.15.25-1.72-.15-1.17-.12-1.74.18-1.14.23-1.72 0-1.15.09-1.73.26-1.12.35-1.7.42-1.08.52-1.67-.1-1.17 0-1.75c.12-.7.9-.86 1.55-.86zM73 18.4c.6 0 1.26-.29 2-.36s1.33 0 2-.12a1.35 1.35 0 011.69 1.37 1.51 1.51 0 01-1.11 1.56c-.5.11-1.07-.25-1.56-.18S75 21 74.47 21H73c-.69 0-1.35.35-1.93.29a9.73 9.73 0 01-1.9-.41c-.68-.21-1.07-.81-1.53-1.16a3.45 3.45 0 01-1.07-1.43A5.36 5.36 0 0166 16.5a1.5 1.5 0 011.37-1.75c.62 0 1.09.56 1.19 1.31a2.31 2.31 0 00.89 1.6c.37.28 1 .16 1.76.26a9.79 9.79 0 001.79.48zm4-12.47a1.38 1.38 0 01-1.17 1.53c-.59.08-1.22 0-1.84.06s-1.21.18-1.83.23-1.21.27-1.82.3-1.34-.38-1.91-.37c-1 0-1.47-.43-1.47-1.16a1.24 1.24 0 011.38-1.25c.59 0 1.18-.42 1.77-.45s1.2 0 1.79-.07 1.23.26 1.82.2 1.21-.09 1.79-.17c1.04-.1 1.49.39 1.49 1.15z"/><path class="cls-1" d="M61.18 2.41c.83 0 1.77.42 1.59 1.48-.14.65-.42 1.25-.53 1.87s-.15 1.3-.24 1.92S62 9 62 9.61s-.56 1.25-.6 1.89.14 1.3.12 1.94-.15 1.28-.15 1.92.41 1.32.45 2 0 1.37.12 2-.22 1.47-.13 2.08c.13 1-.5 1.33-1.31 1.33s-1.26-.18-1.36-1.06c-.07-.47-.45-1-.51-1.56s.22-1.08.18-1.63-.14-1.07-.16-1.6-.34-1.09-.34-1.62.24-1.15.25-1.72-.15-1.17-.12-1.74.18-1.14.23-1.72 0-1.15.09-1.73.26-1.12.35-1.7.42-1.08.52-1.67-.1-1.17 0-1.75c.12-.7.9-.86 1.55-.86zM73 18.4c.6 0 1.26-.29 2-.36s1.33 0 2-.12a1.35 1.35 0 011.69 1.37 1.51 1.51 0 01-1.11 1.56c-.5.11-1.07-.25-1.56-.18S75 21 74.47 21H73c-.69 0-1.35.35-1.93.29a9.73 9.73 0 01-1.9-.41c-.68-.21-1.07-.81-1.53-1.16a3.45 3.45 0 01-1.07-1.43A5.36 5.36 0 0166 16.5a1.5 1.5 0 011.37-1.75c.62 0 1.09.56 1.19 1.31a2.31 2.31 0 00.89 1.6c.37.28 1 .16 1.76.26a9.79 9.79 0 001.79.48zm4-12.47a1.38 1.38 0 01-1.17 1.53c-.59.08-1.22 0-1.84.06s-1.21.18-1.83.23-1.21.27-1.82.3-1.34-.38-1.91-.37c-1 0-1.47-.43-1.47-1.16a1.24 1.24 0 011.38-1.25c.59 0 1.18-.42 1.77-.45s1.2 0 1.79-.07 1.23.26 1.82.2 1.21-.09 1.79-.17c1.04-.1 1.49.39 1.49 1.15zm11 7.81c-.91.08-1.81.43-2.64.45s-1.15-.88-1.15-1.5a1 1 0 011.09-1c.34 0 .63-.27 1-.27.28-.4.45-.82.7-1.23s.62-.72.88-1.13c-.44-.55-1-1-1.5-1.5s-.64-1.41-1.12-1.89c-.23-.26-.4-.31-.4-.6 0-.62.4-.89 1-.89.23 0 .54-.17.78 0 .27-.5.63-1 .86-1.52s.14-1.2.33-1.74a1.59 1.59 0 011.41-.87 1.35 1.35 0 011.29 1.27c0 .16.11.37.06.53-.17.45-.69.8-.92 1.29s-.51.87-.76 1.34-.31 1-.57 1.47c.26.31.57.65.83.93.44-.8.93-1.57 1.27-2.27.23-.47.49-.88.93-.88.63 0 1.54.61 1.54 1.26 0 .18-.26.38-.37.56-.24.46-.77.81-1.06 1.33s-.45 1-.75 1.49-.47 1-.77 1.5-.56.94-.87 1.38c.68-.05 1.34 0 2-.06-.13-.2-.46-.42-.57-.62s.25-.41.25-.54a1 1 0 01.9-1.1c.33 0 .68.34.91.73a14.76 14.76 0 01.8 1.64 13.79 13.79 0 01.69 1.7c.05.15.19.24.19.37a1 1 0 01-1.17 1c-.44 0-1-.08-1.14-.58v-.17c-.47.08-.87-.15-1.34-.07a4.3 4.3 0 00-.34 1.64c0 .83.43.83.43 1.66v1.65c0 .83.15.83.15 1.66s-.24.83-.24 1.66-.28.82-.28 1.65a1.06 1.06 0 01-1 1.17c-.65 0-1.49-.52-1.49-1.17 0-1 .41-1 .41-1.93s-.45-1-.45-1.93.14-1 .14-1.93-.32-1-.18-2 .66-1.07.24-1.94zm-1.45 1.47c.54 0 1.4.36 1.35 1s-.4 1.1-.49 1.65-.41 1.14-.55 1.63-.09 1.22-.27 1.68a1.35 1.35 0 01-1.14.88 1.19 1.19 0 01-1.1-1.15c0-.13-.13-.36-.08-.51.17-.39.8-.75 1-1.3s.09-1 .19-1.54.3-1 .36-1.5.18-.84.72-.84zm7.23 4.06a1.08 1.08 0 11-2.08.36c-.08-.58 0-1.24-.12-1.85a16.66 16.66 0 00-.69-1.72A1.17 1.17 0 0192 14.71a1.16 1.16 0 011 .85 15.83 15.83 0 01.69 1.79 16.38 16.38 0 01.08 1.92zm11-13.22a4 4 0 012.2.28 2.78 2.78 0 01.58 2.14c0 .93-.2.93-.2 1.85s.26.92.26 1.85a2.52 2.52 0 01-.72 2 3.66 3.66 0 01-2.12.42c-.91 0-.91.16-1.81.16s-.91-.49-1.81-.49-.91.15-1.82.15-.91-.13-1.82-.13-1.58.1-2-.24a2.21 2.21 0 01-.62-1.9c0-.93-.34-.93-.34-1.85V8.44a2.42 2.42 0 01.91-1.92 3.2 3.2 0 012-.68c1.15 0 1.33.81 2.37.32a.93.93 0 00.06-1.45c-.71-.45-1 .18-1.84.18h-1.68c-.85 0-.85-.09-1.7-.09a1.07 1.07 0 01-1.18-1c0-.58.5-1.38 1.18-1.38.84 0 .84.23 1.69.23s.85.3 1.7.3 1.2.44 1.82-.15-.08-.93-.08-1.73A1.14 1.14 0 01101.05 0a1.06 1.06 0 011.16 1.09c0 .8-.26.86.26 1.48s.53.32 1.2.32.68-.34 1.35-.36c0 0-.11.1-.16 0-.42-.26-.72-.51-1.08-.72a.94.94 0 01-.56-.89.9.9 0 01.92-1 1.31 1.31 0 01.5.2 8 8 0 011.36.52 1.76 1.76 0 01.87 1.15c0 .42-.52.74-.88.9.87.1.88.33 1.76.33.7 0 1.2.25 1.2.83a1.28 1.28 0 01-1.2 1.23c-.91 0-.91.15-1.82.15s-.88-.23-1.79-.23-1.16-.7-2-.24c-.46.27-.15.8.25 1.16.94.79 1.14.13 2.35.13zm-2 9.6a1.33 1.33 0 011.23-1.3 1.4 1.4 0 011.32 1.33c0 .2-.26.55 0 .58 1.22.21 1.26-.25 2.5-.25a1.27 1.27 0 011.17 1.23 1.23 1.23 0 01-1.22 1.17c-1.24 0-1.31-.48-2.37.14-.63.36-.4.55-.4 1.27s.15.73.15 1.45a4.44 4.44 0 01-.3 1.48c-.18.6-.22 1.06-.67 1.29a3.39 3.39 0 01-1.53.18c-.37 0-1 .31-1.37.23a1.67 1.67 0 01-1.29-1.52 1.44 1.44 0 011.67-1.34 2.72 2.72 0 00.75 0c.26 0 .52.05.52-.39 0-.69.09-.69.09-1.39s.32-1-.24-1.43c-.78-.56-1 0-1.95 0s-1-.08-1.92-.08-1 .28-1.93.28-1 .12-1.93.12c-.67 0-1.07-.83-1.07-1.4s.4-.88 1.07-.88c1 0 1-.1 1.93-.1s1-.13 1.92-.13 1-.08 1.92-.08 1 .25 1.94.15c.17-.09-.04-.39-.04-.61zm-3.16 4.2c.37.32.82.64.82 1 0 .68-.9 1.35-1.61 1.35-.26 0-.41-.26-.67-.47-.52-.44-1-.53-1.64-1a1.42 1.42 0 01-.65-1 1.44 1.44 0 011.43-1.25 1.8 1.8 0 01.82.07 12.08 12.08 0 011.45 1.3zm.21-10.47c.56-.28.35-.69-.17-1-.76-.51-.76-.2-1.68-.2-.52 0-.83.1-.83.52s0 .4.23.64c.9.83 1.29.6 2.4.04zm0 3.14c.53-.37.43-.76-.15-1.06a2.2 2.2 0 00-2.36-.23c-.34.09-.18.33-.18.68s.41.52.85.52c.88.32 1.01.63 1.8.09zm2.52-3.14c1.2.56 1.31 0 2.59-.3.34-.09 0-.07 0-.42s-.11-.72-.63-.72a3.57 3.57 0 00-2 .25.61.61 0 000 1.19zm0 1.8c-.58.29-.38.73.16 1.09.84.54.85.21 1.85.21.52 0 .82-.16.82-.57s0-.41-.22-.64c-1.07-.91-1.46-.67-2.65-.09z"/><path class="cls-1" d="M88 13.74c-.91.08-1.81.43-2.64.45s-1.15-.88-1.15-1.5a1 1 0 011.09-1c.34 0 .63-.27 1-.27.28-.4.45-.82.7-1.23s.62-.72.88-1.13c-.44-.55-1-1-1.5-1.5s-.64-1.41-1.12-1.89c-.23-.26-.4-.31-.4-.6 0-.62.4-.89 1-.89.23 0 .54-.17.78 0 .27-.5.63-1 .86-1.52s.14-1.2.33-1.74a1.59 1.59 0 011.41-.87 1.35 1.35 0 011.29 1.27c0 .16.11.37.06.53-.17.45-.69.8-.92 1.29s-.51.87-.76 1.34-.31 1-.57 1.47c.26.31.57.65.83.93.44-.8.93-1.57 1.27-2.27.23-.47.49-.88.93-.88.63 0 1.54.61 1.54 1.26 0 .18-.26.38-.37.56-.24.46-.77.81-1.06 1.33s-.45 1-.75 1.49-.47 1-.77 1.5-.56.94-.87 1.38c.68-.05 1.34 0 2-.06-.13-.2-.46-.42-.57-.62s.25-.41.25-.54a1 1 0 01.9-1.1c.33 0 .68.34.91.73a14.76 14.76 0 01.8 1.64 13.79 13.79 0 01.69 1.7c.05.15.19.24.19.37a1 1 0 01-1.17 1c-.44 0-1-.08-1.14-.58v-.17c-.47.08-.87-.15-1.34-.07a4.3 4.3 0 00-.34 1.64c0 .83.43.83.43 1.66v1.65c0 .83.15.83.15 1.66s-.24.83-.24 1.66-.28.82-.28 1.65a1.06 1.06 0 01-1 1.17c-.65 0-1.49-.52-1.49-1.17 0-1 .41-1 .41-1.93s-.45-1-.45-1.93.14-1 .14-1.93-.32-1-.18-2 .66-1.07.24-1.94zm-1.45 1.47c.54 0 1.4.36 1.35 1s-.4 1.1-.49 1.65-.41 1.14-.55 1.63-.09 1.22-.27 1.68a1.35 1.35 0 01-1.14.88 1.19 1.19 0 01-1.1-1.15c0-.13-.13-.36-.08-.51.17-.39.8-.75 1-1.3s.09-1 .19-1.54.3-1 .36-1.5.18-.84.72-.84zm7.23 4.06a1.08 1.08 0 11-2.08.36c-.08-.58 0-1.24-.12-1.85a16.66 16.66 0 00-.69-1.72A1.17 1.17 0 0192 14.71a1.16 1.16 0 011 .85 15.83 15.83 0 01.69 1.79 16.38 16.38 0 01.08 1.92zm11-13.22a4 4 0 012.2.28 2.78 2.78 0 01.58 2.14c0 .93-.2.93-.2 1.85s.26.92.26 1.85a2.52 2.52 0 01-.72 2 3.66 3.66 0 01-2.12.42c-.91 0-.91.16-1.81.16s-.91-.49-1.81-.49-.91.15-1.82.15-.91-.13-1.82-.13-1.58.1-2-.24a2.21 2.21 0 01-.62-1.9c0-.93-.34-.93-.34-1.85V8.44a2.42 2.42 0 01.91-1.92 3.2 3.2 0 012-.68c1.15 0 1.33.81 2.37.32a.93.93 0 00.06-1.45c-.71-.45-1 .18-1.84.18h-1.68c-.85 0-.85-.09-1.7-.09a1.07 1.07 0 01-1.18-1c0-.58.5-1.38 1.18-1.38.84 0 .84.23 1.69.23s.85.3 1.7.3 1.2.44 1.82-.15-.08-.93-.08-1.73A1.14 1.14 0 01101.05 0a1.06 1.06 0 011.16 1.09c0 .8-.26.86.26 1.48s.53.32 1.2.32.68-.34 1.35-.36c0 0-.11.1-.16 0-.42-.26-.72-.51-1.08-.72a.94.94 0 01-.56-.89.9.9 0 01.92-1 1.31 1.31 0 01.5.2 8 8 0 011.36.52 1.76 1.76 0 01.87 1.15c0 .42-.52.74-.88.9.87.1.88.33 1.76.33.7 0 1.2.25 1.2.83a1.28 1.28 0 01-1.2 1.23c-.91 0-.91.15-1.82.15s-.88-.23-1.79-.23-1.16-.7-2-.24c-.46.27-.15.8.25 1.16.94.79 1.14.13 2.35.13zm-2 9.6a1.33 1.33 0 011.23-1.3 1.4 1.4 0 011.32 1.33c0 .2-.26.55 0 .58 1.22.21 1.26-.25 2.5-.25a1.27 1.27 0 011.17 1.23 1.23 1.23 0 01-1.22 1.17c-1.24 0-1.31-.48-2.37.14-.63.36-.4.55-.4 1.27s.15.73.15 1.45a4.44 4.44 0 01-.3 1.48c-.18.6-.22 1.06-.67 1.29a3.39 3.39 0 01-1.53.18c-.37 0-1 .31-1.37.23a1.67 1.67 0 01-1.29-1.52 1.44 1.44 0 011.67-1.34 2.72 2.72 0 00.75 0c.26 0 .52.05.52-.39 0-.69.09-.69.09-1.39s.32-1-.24-1.43c-.78-.56-1 0-1.95 0s-1-.08-1.92-.08-1 .28-1.93.28-1 .12-1.93.12c-.67 0-1.07-.83-1.07-1.4s.4-.88 1.07-.88c1 0 1-.1 1.93-.1s1-.13 1.92-.13 1-.08 1.92-.08 1 .25 1.94.15c.17-.09-.04-.39-.04-.61zm-3.16 4.2c.37.32.82.64.82 1 0 .68-.9 1.35-1.61 1.35-.26 0-.41-.26-.67-.47-.52-.44-1-.53-1.64-1a1.42 1.42 0 01-.65-1 1.44 1.44 0 011.43-1.25 1.8 1.8 0 01.82.07 12.08 12.08 0 011.45 1.3zm.21-10.47c.56-.28.35-.69-.17-1-.76-.51-.76-.2-1.68-.2-.52 0-.83.1-.83.52s0 .4.23.64c.9.83 1.29.6 2.4.04zm0 3.14c.53-.37.43-.76-.15-1.06a2.2 2.2 0 00-2.36-.23c-.34.09-.18.33-.18.68s.41.52.85.52c.88.32 1.01.63 1.8.09zm2.52-3.14c1.2.56 1.31 0 2.59-.3.34-.09 0-.07 0-.42s-.11-.72-.63-.72a3.57 3.57 0 00-2 .25.61.61 0 000 1.19zm0 1.8c-.58.29-.38.73.16 1.09.84.54.85.21 1.85.21.52 0 .82-.16.82-.57s0-.41-.22-.64c-1.07-.91-1.46-.67-2.65-.09zm16.45 2.12a10.32 10.32 0 011.42-.82 10.5 10.5 0 011.37-.91 11.79 11.79 0 011.55-.53 13.27 13.27 0 011.59-.41 12.25 12.25 0 011.64-.24 8.8 8.8 0 011.85.48 7.8 7.8 0 011.84.36 6 6 0 011.66 1c.45.45.42 1.22.66 1.79s.72 1.08.72 1.73a7.1 7.1 0 01-.16 2 6.6 6.6 0 01-1.09 1.64 7.18 7.18 0 01-1.38 1.3 9 9 0 01-1.47 1.12 12.29 12.29 0 01-1.74.88 17.76 17.76 0 01-1.86.55c-.6.12-1.29 0-2 .05a1.62 1.62 0 01-1.92-1.37 1.85 1.85 0 011.56-1.63c.65-.07 1.32.22 1.87.1a11.24 11.24 0 001.7-.77 6.33 6.33 0 001.55-.9 3.65 3.65 0 001.13-1.32 3.13 3.13 0 00.37-1.65c0-.54.21-1.18-.16-1.62a3.2 3.2 0 00-1.46-.9c-.45-.15-1 .12-1.68.12s-1.26-.35-1.88-.22a12.9 12.9 0 00-1.72.76 12.86 12.86 0 00-1.76.65 13.53 13.53 0 00-1.39 1.26 10.87 10.87 0 00-1.21 1.39c-.36.44-1 .35-1.42.35s-.94 0-1.24-.32a1.72 1.72 0 01-.44-1.34c.09-.56.37-1.12.47-1.75s0-1.22 0-1.83.64-1.1.76-1.7-.1-1.25 0-1.84.23-1.19.35-1.77c.16-.76 1-1 1.59-1 .83 0 1.81.47 1.63 1.4-.14.7-.33 1.35-.46 2s-.32 1.35-.44 2-.61 1.31-.73 1.9a1 1 0 00.33.01zm8-10.64a1.49 1.49 0 01.77 1.47 1.35 1.35 0 01-1.26 1.48 2 2 0 01-.78-.22c-.44-.2-.93-.36-1.41-.55s-1-.27-1.45-.44-.9-.64-1.34-.77c-.67-.21-1.1-.59-1.1-1.11A1.78 1.78 0 01121.85.8c.13 0 .23.49.39.51.48.12 1.09-.1 1.62.08s1.07.23 1.56.43a13.48 13.48 0 011.39.84z"/><path class="cls-1" d="M118.8 13.3a10.32 10.32 0 011.42-.82 10.5 10.5 0 011.37-.91 11.79 11.79 0 011.55-.53 13.27 13.27 0 011.59-.41 12.25 12.25 0 011.64-.24 8.8 8.8 0 011.85.48 7.8 7.8 0 011.84.36 6 6 0 011.66 1c.45.45.42 1.22.66 1.79s.72 1.08.72 1.73a7.1 7.1 0 01-.16 2 6.6 6.6 0 01-1.09 1.64 7.18 7.18 0 01-1.38 1.3 9 9 0 01-1.47 1.12 12.29 12.29 0 01-1.74.88 17.76 17.76 0 01-1.86.55c-.6.12-1.29 0-2 .05a1.62 1.62 0 01-1.92-1.37 1.85 1.85 0 011.56-1.63c.65-.07 1.32.22 1.87.1a11.24 11.24 0 001.7-.77 6.33 6.33 0 001.55-.9 3.65 3.65 0 001.13-1.32 3.13 3.13 0 00.37-1.65c0-.54.21-1.18-.16-1.62a3.2 3.2 0 00-1.46-.9c-.45-.15-1 .12-1.68.12s-1.26-.35-1.88-.22a12.9 12.9 0 00-1.72.76 12.86 12.86 0 00-1.76.65 13.53 13.53 0 00-1.39 1.26 10.87 10.87 0 00-1.21 1.39c-.36.44-1 .35-1.42.35s-.94 0-1.24-.32a1.72 1.72 0 01-.44-1.34c.09-.56.37-1.12.47-1.75s0-1.22 0-1.83.64-1.1.76-1.7-.1-1.25 0-1.84.23-1.19.35-1.77c.16-.76 1-1 1.59-1 .83 0 1.81.47 1.63 1.4-.14.7-.33 1.35-.46 2s-.32 1.35-.44 2-.61 1.31-.73 1.9a1 1 0 00.33.01zm8-10.64a1.49 1.49 0 01.77 1.47 1.35 1.35 0 01-1.26 1.48 2 2 0 01-.78-.22c-.44-.2-.93-.36-1.41-.55s-1-.27-1.45-.44-.9-.64-1.34-.77c-.67-.21-1.1-.59-1.1-1.11A1.78 1.78 0 01121.85.8c.13 0 .23.49.39.51.48.12 1.09-.1 1.62.08s1.07.23 1.56.43a13.48 13.48 0 011.39.84zm20.55 6.84c.47-.46 1-.85 1.45-1.24s1-.83 1.4-1.19.9-.93 1.35-1.25a11.15 11.15 0 011.5-1.12 4.43 4.43 0 011.87-.09 3.13 3.13 0 011.73.57c.57.34 1.16.62 1.39 1.25a5.33 5.33 0 01-.04 1.93c-.05.91.37.94.32 1.85s-.46.89-.51 1.8.26.94.21 1.85.09.92 0 1.84-.17.91-.21 1.83c0 .62.06.52.53.52a1.83 1.83 0 001.39-.26c.32-.23.52-.72.95-1.17s.94-.14 1.33-.14c.78 0 1.28.39 1.28 1.17a1.37 1.37 0 01-.35 1 10.11 10.11 0 01-1.43 1.21 6.37 6.37 0 01-1.62.89 5.07 5.07 0 01-1.78.42 5.63 5.63 0 01-2 0A2.62 2.62 0 01155 19.6a4.45 4.45 0 01-.16-1.86c0-.88-.24-.9-.19-1.78s.31-.87.36-1.75-.18-.9-.14-1.78.37-.87.42-1.76.06-.88.11-1.77-.42-1.25-1.1-1.25c-.41 0-.8.28-1.51.77-.41.28-1.12.33-1.67.81-.4.35-.6 1-1.09 1.49s-1.12.52-1.58 1-.67 1-1.12 1.45a5.74 5.74 0 00-.2 1.75c0 .88.3.88.3 1.75s.06.88.06 1.76v1.76c0 .88-.4.88-.41 1.76a1.18 1.18 0 11-2.35 0c0-1-.37-1-.36-2s.3-1 .31-1.95.93-1.8 0-2.2-.41 1.14-.9 1.9-.83.54-1.33 1.3c-.31.44-.56.83-.95.83a1.65 1.65 0 01-1.5-1.4 1.68 1.68 0 01.22-.82c.3-.43.87-.74 1.2-1.24s.46-1 .77-1.52.43-1 .72-1.54.62-.93.9-1.44.7-.92 1-1.43c.12-.79.64-1.15 0-1.67s-.84.16-1.62.3-.77.16-1.54.3a1.31 1.31 0 01-1.56-1.29c0-.59.51-1 1.21-1.06.88-.14.89-.13 1.76-.28s1 0 1.54-.69.2-.88.22-1.9.1-1 .12-2a1.35 1.35 0 011.27-1.42 1.52 1.52 0 011.55 1.38c0 .92.07.92.05 1.85s-.38.89-.09 1.77a.93.93 0 01.94.9 3.13 3.13 0 01-1 1.89c-.4.48-.66.54-.31.98z"/><path class="cls-1" d="M147.35 9.5c.47-.46 1-.85 1.45-1.24s1-.83 1.4-1.19.9-.93 1.35-1.25a11.15 11.15 0 011.5-1.12 4.43 4.43 0 011.87-.09 3.13 3.13 0 011.73.57c.57.34 1.16.62 1.39 1.25a5.33 5.33 0 01-.04 1.93c-.05.91.37.94.32 1.85s-.46.89-.51 1.8.26.94.21 1.85.09.92 0 1.84-.17.91-.21 1.83c0 .62.06.52.53.52a1.83 1.83 0 001.39-.26c.32-.23.52-.72.95-1.17s.94-.14 1.33-.14c.78 0 1.28.39 1.28 1.17a1.37 1.37 0 01-.35 1 10.11 10.11 0 01-1.43 1.21 6.37 6.37 0 01-1.62.89 5.07 5.07 0 01-1.78.42 5.63 5.63 0 01-2 0A2.62 2.62 0 01155 19.6a4.45 4.45 0 01-.16-1.86c0-.88-.24-.9-.19-1.78s.31-.87.36-1.75-.18-.9-.14-1.78.37-.87.42-1.76.06-.88.11-1.77-.42-1.25-1.1-1.25c-.41 0-.8.28-1.51.77-.41.28-1.12.33-1.67.81-.4.35-.6 1-1.09 1.49s-1.12.52-1.58 1-.67 1-1.12 1.45a5.74 5.74 0 00-.2 1.75c0 .88.3.88.3 1.75s.06.88.06 1.76v1.76c0 .88-.4.88-.41 1.76a1.18 1.18 0 11-2.35 0c0-1-.37-1-.36-2s.3-1 .31-1.95.93-1.8 0-2.2-.41 1.14-.9 1.9-.83.54-1.33 1.3c-.31.44-.56.83-.95.83a1.65 1.65 0 01-1.5-1.4 1.68 1.68 0 01.22-.82c.3-.43.87-.74 1.2-1.24s.46-1 .77-1.52.43-1 .72-1.54.62-.93.9-1.44.7-.92 1-1.43c.12-.79.64-1.15 0-1.67s-.84.16-1.62.3-.77.16-1.54.3a1.31 1.31 0 01-1.56-1.29c0-.59.51-1 1.21-1.06.88-.14.89-.13 1.76-.28s1 0 1.54-.69.2-.88.22-1.9.1-1 .12-2a1.35 1.35 0 011.27-1.42 1.52 1.52 0 011.55 1.38c0 .92.07.92.05 1.85s-.38.89-.09 1.77a.93.93 0 01.94.9 3.13 3.13 0 01-1 1.89c-.4.48-.66.54-.31.98zm27.47-7.93c.15-.78.86-1 1.49-1 .8 0 1.69.47 1.48 1.51-.1.5-.08 1.06-.21 1.58s-.63 1.15-.77 1.67c.78-.13 1.66-.57 2.39-.7a1.51 1.51 0 011.74 1.46 1.47 1.47 0 01-1.24 1.41c-.57.12-1.24 0-1.87.09s-1.16.42-1.77.51c-.22.61-.44 1.18-.67 1.78s-.35 1.26-.6 1.85-.5 1.2-.78 1.78-.63 1.14-.93 1.69-.52 1.22-.84 1.75-1.16.6-1.68.6c-.78 0-1.61-.39-1.61-1.17 0-.29.28-.57.49-.88.34-.54.52-1.21.85-1.79s.82-1 1.12-1.64.46-1.24.72-1.85.38-1.14.61-1.76c-.46 0-.77-.15-1.2-.12s-.93.13-1.35.14c-.88 0-1.23-.6-1.23-1.33s.29-1.58 1.12-1.6c.6 0 1.27.44 1.93.39s1.26-.31 1.9-.37c.2-.66.25-1.37.42-2s.36-1.35.49-2zm4.74 21.89a7.44 7.44 0 01-1.73-.38 5.36 5.36 0 01-1.72-.42 3.63 3.63 0 01-1.36-1.24c-.26-.48.07-1.17.07-1.82a3.4 3.4 0 01.13-1.75 3.88 3.88 0 011.28-1.27 5.5 5.5 0 011.67-.66 9.34 9.34 0 011.79.08 9.51 9.51 0 011.25-.15c-.07-.52-.13-.93-.17-1.34s-.22-1-.22-1.38a14.76 14.76 0 01.16-2.56 1.58 1.58 0 011.55-1.14c.78 0 1.81.67 1.68 1.58-.13.75-.63 1.36-.63 2.09 0 .44.38 1 .46 1.68.06.47-.06 1.08.06 1.74.56.17 1.23.2 1.79.43a17.86 17.86 0 011.54 1 17.36 17.36 0 011.61.82 1.71 1.71 0 01.86 1.24 1.45 1.45 0 01-1.55 1.25 1.39 1.39 0 01-.83-.21c-.47-.33-.95-.66-1.43-.93a10.25 10.25 0 00-1.42-.47c0 .66-.52.93-.73 1.41a3.13 3.13 0 01-.85 1.41 4.38 4.38 0 01-1.52.86 7.5 7.5 0 01-1.74.13zm1.76-4.33a7.15 7.15 0 00.11-.75 8.55 8.55 0 00-1.69.06 3.71 3.71 0 00-1.42.33c-.65.22-1.21.38-1.21.83s.48.74 1.07.93a4.38 4.38 0 001.38.18 1.89 1.89 0 001.29-.35 1.43 1.43 0 00.47-1.23zm8.13-12.21a1.54 1.54 0 01.7 1.42 1.44 1.44 0 01-1.26 1.54 1.8 1.8 0 01-.91-.12c-.59-.34-1-1.1-1.59-1.4a18.41 18.41 0 00-2-.52 1.42 1.42 0 01-1-1.26 1.61 1.61 0 011.57-1.51c.15 0 .26.29.44.34a12.32 12.32 0 012.12.52 15.39 15.39 0 011.93.99z"/><path class="cls-1" d="M174.82 1.57c.15-.78.86-1 1.49-1 .8 0 1.69.47 1.48 1.51-.1.5-.08 1.06-.21 1.58s-.63 1.15-.77 1.67c.78-.13 1.66-.57 2.39-.7a1.51 1.51 0 011.74 1.46 1.47 1.47 0 01-1.24 1.41c-.57.12-1.24 0-1.87.09s-1.16.42-1.77.51c-.22.61-.44 1.18-.67 1.78s-.35 1.26-.6 1.85-.5 1.2-.78 1.78-.63 1.14-.93 1.69-.52 1.22-.84 1.75-1.16.6-1.68.6c-.78 0-1.61-.39-1.61-1.17 0-.29.28-.57.49-.88.34-.54.52-1.21.85-1.79s.82-1 1.12-1.64.46-1.24.72-1.85.38-1.14.61-1.76c-.46 0-.77-.15-1.2-.12s-.93.13-1.35.14c-.88 0-1.23-.6-1.23-1.33s.29-1.58 1.12-1.6c.6 0 1.27.44 1.93.39s1.26-.31 1.9-.37c.2-.66.25-1.37.42-2s.36-1.35.49-2zm4.74 21.89a7.44 7.44 0 01-1.73-.38 5.36 5.36 0 01-1.72-.42 3.63 3.63 0 01-1.36-1.24c-.26-.48.07-1.17.07-1.82a3.4 3.4 0 01.13-1.75 3.88 3.88 0 011.28-1.27 5.5 5.5 0 011.67-.66 9.34 9.34 0 011.79.08 9.51 9.51 0 011.25-.15c-.07-.52-.13-.93-.17-1.34s-.22-1-.22-1.38a14.76 14.76 0 01.16-2.56 1.58 1.58 0 011.55-1.14c.78 0 1.81.67 1.68 1.58-.13.75-.63 1.36-.63 2.09 0 .44.38 1 .46 1.68.06.47-.06 1.08.06 1.74.56.17 1.23.2 1.79.43a17.86 17.86 0 011.54 1 17.36 17.36 0 011.61.82 1.71 1.71 0 01.86 1.24 1.45 1.45 0 01-1.55 1.25 1.39 1.39 0 01-.83-.21c-.47-.33-.95-.66-1.43-.93a10.25 10.25 0 00-1.42-.47c0 .66-.52.93-.73 1.41a3.13 3.13 0 01-.85 1.41 4.38 4.38 0 01-1.52.86 7.5 7.5 0 01-1.74.13zm1.76-4.33a7.15 7.15 0 00.11-.75 8.55 8.55 0 00-1.69.06 3.71 3.71 0 00-1.42.33c-.65.22-1.21.38-1.21.83s.48.74 1.07.93a4.38 4.38 0 001.38.18 1.89 1.89 0 001.29-.35 1.43 1.43 0 00.47-1.23zm8.13-12.21a1.54 1.54 0 01.7 1.42 1.44 1.44 0 01-1.26 1.54 1.8 1.8 0 01-.91-.12c-.59-.34-1-1.1-1.59-1.4a18.41 18.41 0 00-2-.52 1.42 1.42 0 01-1-1.26 1.61 1.61 0 011.57-1.51c.15 0 .26.29.44.34a12.32 12.32 0 012.12.52 15.39 15.39 0 011.93.99zm9.19-3.31c.81 0 1.66.24 1.61 1.2s-.1 1.43-.1 2.36c0 .63-.13 1.22-.11 1.78s.15 1.21.19 1.77.29 1.2.35 1.74.11 1.22.21 1.75.18 1.23.33 1.72a7.06 7.06 0 00.77 1.56c.45.77.74 1.08 1.12 1.08a1.21 1.21 0 001.25-.76 6 6 0 00.69-1.45c.18-.78.5-1 1.08-1 .75 0 1.45.36 1.45 1.22a1.31 1.31 0 01-.06.43 9.85 9.85 0 01-.76 1.56 7.9 7.9 0 01-.69 1.56 4.43 4.43 0 01-1.23 1.19 3.07 3.07 0 01-1.65.31 3.85 3.85 0 01-1.63-.3 4.21 4.21 0 01-1.39-.95 6.43 6.43 0 01-1.07-1.33 9.65 9.65 0 01-.82-1.54c-.18-.5 0-1.16-.1-1.76s-.64-1-.74-1.6.21-1.16.14-1.75-.38-1.1-.42-1.7.13-1.13.12-1.73-.32-1.12-.32-1.72a19.09 19.09 0 01.37-2.64c.08-.83.71-1 1.41-1zM218 14.45c.06.21.43.32.43.47a1.54 1.54 0 01-1.54 1.46 1.48 1.48 0 01-1.32-1.09c-.2-.5-.52-1-.78-1.5s-.68-.89-1-1.38-.54-1-.85-1.43-.59-1-.93-1.4-.8-.79-1.18-1.19a1.61 1.61 0 01-.38-1.11c0-.73.8-1.23 1.58-1.23.36 0 .61.24 1 .58a18.19 18.19 0 011.33 1.31c.4.48.9.88 1.27 1.41s.69 1.06 1 1.6a18.56 18.56 0 01.7 1.77c.27.6.48 1.17.67 1.73z"/><path class="cls-1" d="M198.64 3.61c.81 0 1.66.24 1.61 1.2s-.1 1.43-.1 2.36c0 .63-.13 1.22-.11 1.78s.15 1.21.19 1.77.29 1.2.35 1.74.11 1.22.21 1.75.18 1.23.33 1.72a7.06 7.06 0 00.77 1.56c.45.77.74 1.08 1.12 1.08a1.21 1.21 0 001.25-.76 6 6 0 00.69-1.45c.18-.78.5-1 1.08-1 .75 0 1.45.36 1.45 1.22a1.31 1.31 0 01-.06.43 9.85 9.85 0 01-.76 1.56 7.9 7.9 0 01-.69 1.56 4.43 4.43 0 01-1.23 1.19 3.07 3.07 0 01-1.65.31 3.85 3.85 0 01-1.63-.3 4.21 4.21 0 01-1.39-.95 6.43 6.43 0 01-1.07-1.33 9.65 9.65 0 01-.82-1.54c-.18-.5 0-1.16-.1-1.76s-.64-1-.74-1.6.21-1.16.14-1.75-.38-1.1-.42-1.7.13-1.13.12-1.73-.32-1.12-.32-1.72a19.09 19.09 0 01.37-2.64c.08-.83.71-1 1.41-1zM218 14.45c.06.21.43.32.43.47a1.54 1.54 0 01-1.54 1.46 1.48 1.48 0 01-1.32-1.09c-.2-.5-.52-1-.78-1.5s-.68-.89-1-1.38-.54-1-.85-1.43-.59-1-.93-1.4-.8-.79-1.18-1.19a1.61 1.61 0 01-.38-1.11c0-.73.8-1.23 1.58-1.23.36 0 .61.24 1 .58a18.19 18.19 0 011.33 1.31c.4.48.9.88 1.27 1.41s.69 1.06 1 1.6a18.56 18.56 0 01.7 1.77c.27.6.48 1.17.67 1.73z"/></g></g></svg>