<svg xmlns="http://www.w3.org/2000/svg" viewBox="0 0 137.8 24.55"><defs><style>.cls-1{fill:#fff}</style></defs><g id="レイヤー_2" data-name="レイヤー 2"><g id="design"><path class="cls-1" d="M13.32 8.14c.72.62 1 0 2 0s1-.35 1.91-.35 1 .4 1.92.4 1-.07 1.91-.07a1.15 1.15 0 011.22 1.18A1.38 1.38 0 0121 10.79c-.95 0-.95-.18-1.9-.18s-1 .12-1.91.12-1 .15-1.92.15-1.22-.91-2-.33c-.58.44 0 .82 0 1.55s-.56 1 0 1.48c.75.58 1 .16 1.93.16s1-.26 1.9-.26h1.91c.96 0 .95.22 1.91.22s.95-.26 1.91-.26c.75 0 .91.72.91 1.37s-.05 1.19-.8 1.19c-1 0-1 .42-1.91.42s-1-.4-1.9-.4-.95.08-1.91.08h-1.91c-.96 0-1.21-.55-1.94.07s.23.83.23 1.63-.08.8-.08 1.6-.36.8-.36 1.61a4.5 4.5 0 01-.11 1.78 2.3 2.3 0 01-1.23 1.33 5.59 5.59 0 01-1.85 0A12 12 0 017.92 24a1.24 1.24 0 01-1.07-1.36c0-.78.43-1.27 1.47-1.07a6.52 6.52 0 001.46 0c.52 0 .67-.36.67-1s-.07-.75-.07-1.51.06-.75.06-1.5.86-1.2.27-1.66c-.77-.6-1.09 0-2.07 0s-1 .07-1.95.07-1 .32-1.95.32-1-.21-1.95-.21-1-.29-1.95-.29c-.75 0-.84-.43-.84-1.08s.09-1.33.84-1.33c1 0 1-.11 2-.11s1-.07 2-.07 1 .07 2 .07 1 .05 2 .05 1.21.73 2 .15c.58-.44.14-.79.14-1.52s.44-1.09-.14-1.52c-.78-.59-1 .13-2 .13h-4.1c-.95 0-1 .13-1.95.13-.75 0-1.18-.9-1.18-1.55S2 7.85 2.79 7.85c1 0 1 .36 2 .36s1-.43 2-.43 1 .14 2 .14 1 .55 1.83 0c.59-.44.25-.58.25-1.31s.37-.88.1-1.56c-.55.07-1.31.49-1.86.54s-1.15-.25-1.7-.21-1.1.33-1.65.36-1.13-.16-1.68-.14a1.4 1.4 0 01-1.54-1.3A1.39 1.39 0 013.8 3c.63 0 1.28.18 1.92.14s1.28-.5 1.86-.56 1.29.16 1.92.08 1.24-.38 1.86-.47 1.29 0 1.91-.14 1.29-.07 1.9-.19 1.19-.57 1.79-.71S18.24 1 18.84.81h.41a1.46 1.46 0 011.55 1.33 1.6 1.6 0 01-1.23 1.44c-.65.17-1.38.16-2.07.31s-1.32.44-2 .57-1.42.14-2.11.24c-.31.78.37.91.18 1.72s-.88 1.17-.25 1.72z"/><path class="cls-1" d="M13.32 8.14c.72.62 1 0 2 0s1-.35 1.91-.35 1 .4 1.92.4 1-.07 1.91-.07a1.15 1.15 0 011.22 1.18A1.38 1.38 0 0121 10.79c-.95 0-.95-.18-1.9-.18s-1 .12-1.91.12-1 .15-1.92.15-1.22-.91-2-.33c-.58.44 0 .82 0 1.55s-.56 1 0 1.48c.75.58 1 .16 1.93.16s1-.26 1.9-.26h1.91c.96 0 .95.22 1.91.22s.95-.26 1.91-.26c.75 0 .91.72.91 1.37s-.05 1.19-.8 1.19c-1 0-1 .42-1.91.42s-1-.4-1.9-.4-.95.08-1.91.08h-1.91c-.96 0-1.21-.55-1.94.07s.23.83.23 1.63-.08.8-.08 1.6-.36.8-.36 1.61a4.5 4.5 0 01-.11 1.78 2.3 2.3 0 01-1.23 1.33 5.59 5.59 0 01-1.85 0A12 12 0 017.92 24a1.24 1.24 0 01-1.07-1.36c0-.78.43-1.27 1.47-1.07a6.52 6.52 0 001.46 0c.52 0 .67-.36.67-1s-.07-.75-.07-1.51.06-.75.06-1.5.86-1.2.27-1.66c-.77-.6-1.09 0-2.07 0s-1 .07-1.95.07-1 .32-1.95.32-1-.21-1.95-.21-1-.29-1.95-.29c-.75 0-.84-.43-.84-1.08s.09-1.33.84-1.33c1 0 1-.11 2-.11s1-.07 2-.07 1 .07 2 .07 1 .05 2 .05 1.21.73 2 .15c.58-.44.14-.79.14-1.52s.44-1.09-.14-1.52c-.78-.59-1 .13-2 .13h-4.1c-.95 0-1 .13-1.95.13-.75 0-1.18-.9-1.18-1.55S2 7.85 2.79 7.85c1 0 1 .36 2 .36s1-.43 2-.43 1 .14 2 .14 1 .55 1.83 0c.59-.44.25-.58.25-1.31s.37-.88.1-1.56c-.55.07-1.31.49-1.86.54s-1.15-.25-1.7-.21-1.1.33-1.65.36-1.13-.16-1.68-.14a1.4 1.4 0 01-1.54-1.3A1.39 1.39 0 013.8 3c.63 0 1.28.18 1.92.14s1.28-.5 1.86-.56 1.29.16 1.92.08 1.24-.38 1.86-.47 1.29 0 1.91-.14 1.29-.07 1.9-.19 1.19-.57 1.79-.71S18.24 1 18.84.81h.41a1.46 1.46 0 011.55 1.33 1.6 1.6 0 01-1.23 1.44c-.65.17-1.38.16-2.07.31s-1.32.44-2 .57-1.42.14-2.11.24c-.31.78.37.91.18 1.72s-.88 1.17-.25 1.72zm37.02-6.93a1.29 1.29 0 011.26 1.22 1.34 1.34 0 01-1.26 1.3c-.86 0-.86-.11-1.72-.11s-.87-.19-1.73-.19-.86.3-1.72.3-.87-.07-1.73-.07-.86-.16-1.73-.16-.86-.09-1.72-.09-.87.46-1.73.46h-1.74c-.86 0-.86-.51-1.73-.51-1.2 0-1.33.64-1.33 1.55s-.22.77-.22 1.54v1.53c0 .77.16.77.16 1.54s-.19 1.28-.21 1.88.14 1.3.09 1.9-.33 1.25-.41 1.85-.29 1.24-.4 1.84-.22 1.25-.38 1.83-.2 1.27-.42 1.84a15.69 15.69 0 01-.79 1.71 1.42 1.42 0 01-1.35.82A1.15 1.15 0 0128.29 22a1.24 1.24 0 01.21-.62c.25-.52.18-1.18.38-1.73s.39-1.06.55-1.63.15-1.11.26-1.7.26-1.09.33-1.69.27-1.1.31-1.7.18-1.13.2-1.73-.36-1.13-.36-1.74c0-.83.19-.83.19-1.67s-.22-.84-.22-1.67V4.44a4 4 0 01.47-2 3 3 0 011.71-1 7.18 7.18 0 011.95-.15c.88 0 .88-.22 1.77-.22s.89.5 1.78.5.89-.32 1.78-.32.89-.08 1.78-.08h3.57c.89 0 .89-.12 1.78-.12s.9.33 1.79.33.92-.17 1.82-.17zm-8.86 16.35a1.38 1.38 0 011.42-1.21c.16 0 .3.14.45.17a11.88 11.88 0 001.16-.44c.13-.08.38-.18.38-.24s-.32 0-.51 0c-.88 0-.88-.07-1.77-.07s-.88-.16-1.77-.16-.89-.09-1.78-.09-.88.46-1.77.46c-.63 0-1.14-.77-1.14-1.31s.54-.86 1.14-.86c.87 0 .87-.5 1.74-.5s.87.23 1.75.23h1.74c.88 0 .88-.16 1.75-.16s.88.18 1.75.18a3.41 3.41 0 011.57.17 1.46 1.46 0 01.63 1.36c0 .6-.4 1.09-1.23 1.61-.65.41-1.17 1-1.72 1.3 1 .18 1-.19 2-.19h2c1 0 1 .08 2 .08.62 0 .72.52.72 1.09s-.1.88-.72.88c-.87 0-.87.34-1.74.34h-1.74c-.87 0-.88.13-1.75.13s-1-.66-1.67-.1-.12.63-.12 1.34a3.19 3.19 0 01-.38 1.46c-.23.48-.38 1.1-.91 1.31a5.66 5.66 0 01-1.63.05 10.93 10.93 0 01-1.67.12A1.73 1.73 0 0138.28 23 1.65 1.65 0 0140 21.49c.41.05.73.22 1 .22s.47 0 .47-.38c0-.58.37-.66-.12-1a2.09 2.09 0 00-1.68-.47c-.91 0-.91.33-1.81.33s-.91.07-1.81.07h-1.81c-.62 0-1-.66-1-1.23s.38-1.33 1-1.33c.9 0 .9.33 1.8.33h3.62c.9 0 .89-.26 1.79-.34.19-.04.03.03.03-.13zm-2.74-5a9.46 9.46 0 01-1.68 0 2.21 2.21 0 01-1.37-1 3.22 3.22 0 01-.24-1.64c0-1.29.18-1.29.18-2.57 0-.67-.18-1.24.06-1.64a2.15 2.15 0 011.41-.84 8.09 8.09 0 011.64 0c.91 0 .91.09 1.82.09s.92-.46 1.83-.46h1.83c.91 0 .91.52 1.83.52.66 0 1.25-.44 1.69-.34A2.14 2.14 0 0149 5.73a3.06 3.06 0 01.32 1.59c0 1.28.17 1.28.16 2.57a2.55 2.55 0 01-1 2.06 4.84 4.84 0 01-2.49.71c-.91 0-.91-.23-1.82-.23s-.92-.11-1.83-.11-.91.06-1.83.07-.85.15-1.77.15zm7.91-5.28c0-.49-.16-.45-.89-.45s-.84-.11-1.68-.11-.84-.12-1.68-.12-.84-.18-1.68-.18-.85.29-1.69.29-.9.08-.9.57c0 .21-.25.52-.05.57a5.12 5.12 0 001.75.09c.85 0 .85-.46 1.71-.46h1.71c.85 0 .85.52 1.71.52s.84-.39 1.69-.5c.2-.05 0-.03 0-.24zm-.89 3.31c.73 0 .72-.13.72-.63 0-.22.39-.3.17-.36A4.56 4.56 0 0045 9.47c-.85 0-.85-.19-1.7-.19s-.86.3-1.71.3-.86-.07-1.72-.07-.92-.37-1.75-.15c-.21.05-.2.36-.2.58 0 .6.63.43 1.15.43h1.68c.84 0 .84.52 1.68.52s.84-.49 1.69-.5.8.18 1.64.18z"/><path class="cls-1" d="M50.34 1.21a1.29 1.29 0 011.26 1.22 1.34 1.34 0 01-1.26 1.3c-.86 0-.86-.11-1.72-.11s-.87-.19-1.73-.19-.86.3-1.72.3-.87-.07-1.73-.07-.86-.16-1.73-.16-.86-.09-1.72-.09-.87.46-1.73.46h-1.74c-.86 0-.86-.51-1.73-.51-1.2 0-1.33.64-1.33 1.55s-.22.77-.22 1.54v1.53c0 .77.16.77.16 1.54s-.19 1.28-.21 1.88.14 1.3.09 1.9-.33 1.25-.41 1.85-.29 1.24-.4 1.84-.22 1.25-.38 1.83-.2 1.27-.42 1.84a15.69 15.69 0 01-.79 1.71 1.42 1.42 0 01-1.35.82A1.15 1.15 0 0128.29 22a1.24 1.24 0 01.21-.62c.25-.52.18-1.18.38-1.73s.39-1.06.55-1.63.15-1.11.26-1.7.26-1.09.33-1.69.27-1.1.31-1.7.18-1.13.2-1.73-.36-1.13-.36-1.74c0-.83.19-.83.19-1.67s-.22-.84-.22-1.67V4.44a4 4 0 01.47-2 3 3 0 011.71-1 7.18 7.18 0 011.95-.15c.88 0 .88-.22 1.77-.22s.89.5 1.78.5.89-.32 1.78-.32.89-.08 1.78-.08h3.57c.89 0 .89-.12 1.78-.12s.9.33 1.79.33.92-.17 1.82-.17zm-8.86 16.35a1.38 1.38 0 011.42-1.21c.16 0 .3.14.45.17a11.88 11.88 0 001.16-.44c.13-.08.38-.18.38-.24s-.32 0-.51 0c-.88 0-.88-.07-1.77-.07s-.88-.16-1.77-.16-.89-.09-1.78-.09-.88.46-1.77.46c-.63 0-1.14-.77-1.14-1.31s.54-.86 1.14-.86c.87 0 .87-.5 1.74-.5s.87.23 1.75.23h1.74c.88 0 .88-.16 1.75-.16s.88.18 1.75.18a3.41 3.41 0 011.57.17 1.46 1.46 0 01.63 1.36c0 .6-.4 1.09-1.23 1.61-.65.41-1.17 1-1.72 1.3 1 .18 1-.19 2-.19h2c1 0 1 .08 2 .08.62 0 .72.52.72 1.09s-.1.88-.72.88c-.87 0-.87.34-1.74.34h-1.74c-.87 0-.88.13-1.75.13s-1-.66-1.67-.1-.12.63-.12 1.34a3.19 3.19 0 01-.38 1.46c-.23.48-.38 1.1-.91 1.31a5.66 5.66 0 01-1.63.05 10.93 10.93 0 01-1.67.12A1.73 1.73 0 0138.28 23 1.65 1.65 0 0140 21.49c.41.05.73.22 1 .22s.47 0 .47-.38c0-.58.37-.66-.12-1a2.09 2.09 0 00-1.68-.47c-.91 0-.91.33-1.81.33s-.91.07-1.81.07h-1.81c-.62 0-1-.66-1-1.23s.38-1.33 1-1.33c.9 0 .9.33 1.8.33h3.62c.9 0 .89-.26 1.79-.34.19-.04.03.03.03-.13zm-2.74-5a9.46 9.46 0 01-1.68 0 2.21 2.21 0 01-1.37-1 3.22 3.22 0 01-.24-1.64c0-1.29.18-1.29.18-2.57 0-.67-.18-1.24.06-1.64a2.15 2.15 0 011.41-.84 8.09 8.09 0 011.64 0c.91 0 .91.09 1.82.09s.92-.46 1.83-.46h1.83c.91 0 .91.52 1.83.52.66 0 1.25-.44 1.69-.34A2.14 2.14 0 0149 5.73a3.06 3.06 0 01.32 1.59c0 1.28.17 1.28.16 2.57a2.55 2.55 0 01-1 2.06 4.84 4.84 0 01-2.49.71c-.91 0-.91-.23-1.82-.23s-.92-.11-1.83-.11-.91.06-1.83.07-.85.15-1.77.15zm7.91-5.28c0-.49-.16-.45-.89-.45s-.84-.11-1.68-.11-.84-.12-1.68-.12-.84-.18-1.68-.18-.85.29-1.69.29-.9.08-.9.57c0 .21-.25.52-.05.57a5.12 5.12 0 001.75.09c.85 0 .85-.46 1.71-.46h1.71c.85 0 .85.52 1.71.52s.84-.39 1.69-.5c.2-.05 0-.03 0-.24zm-.89 3.31c.73 0 .72-.13.72-.63 0-.22.39-.3.17-.36A4.56 4.56 0 0045 9.47c-.85 0-.85-.19-1.7-.19s-.86.3-1.71.3-.86-.07-1.72-.07-.92-.37-1.75-.15c-.21.05-.2.36-.2.58 0 .6.63.43 1.15.43h1.68c.84 0 .84.52 1.68.52s.84-.49 1.69-.5.8.18 1.64.18zm13.43-7.16a1.25 1.25 0 011.33 1.46c-.05.8.2 1.44.2 2.37 0 .63-.29 1.22-.27 1.79s.09 1.22.12 1.77.17 1.23.24 1.77.38 1.19.48 1.72 0 1.3.12 1.79a6.34 6.34 0 00.84 1.58c.46.78.92 1.16 1.31 1.16a1.5 1.5 0 001.38-.84c.18-.35 0-1 .21-1.6a1.34 1.34 0 011.42-1 1.19 1.19 0 011.26 1.33c0 .15.38.33.32.48a11.08 11.08 0 01-.71 1.61 7.43 7.43 0 01-.89 1.49 4.22 4.22 0 01-1.3 1.1 3.49 3.49 0 01-1.62.69 4.31 4.31 0 01-1.71-.42c-.5-.23-.81-.76-1.24-1.21a6.19 6.19 0 01-1.15-1.27 9.51 9.51 0 01-.65-1.6c-.18-.5-.26-1.07-.41-1.67s-.1-1.1-.2-1.7-.2-1.09-.27-1.69-.48-1.09-.52-1.69.33-1.14.32-1.74 0-1.12 0-1.72c0-1.19-.42-2-.37-2.67.09-.88 1.06-1.29 1.76-1.29zm19.62 11c0 .21-.11.4-.11.55a1.34 1.34 0 01-1.26 1.48c-.54 0-.93-.46-1.19-1.16-.2-.5-.47-1-.73-1.54s-.58-1-.87-1.45-.78-.84-1.09-1.3-.41-1.11-.76-1.54a16.73 16.73 0 00-1.24-1.16 1.26 1.26 0 01-.35-1c0-.73.62-1.08 1.4-1.08.36 0 .84-.17 1.21.17A18.77 18.77 0 0175 8c.4.47.66 1 1 1.58s1 .85 1.33 1.4.49 1.2.75 1.75a18.53 18.53 0 01.73 1.73z"/><path class="cls-1" d="M59.19 3.43a1.25 1.25 0 011.33 1.46c-.05.8.2 1.44.2 2.37 0 .63-.29 1.22-.27 1.79s.09 1.22.12 1.77.17 1.23.24 1.77.38 1.19.48 1.72 0 1.3.12 1.79a6.34 6.34 0 00.84 1.58c.46.78.92 1.16 1.31 1.16a1.5 1.5 0 001.38-.84c.18-.35 0-1 .21-1.6a1.34 1.34 0 011.42-1 1.19 1.19 0 011.26 1.33c0 .15.38.33.32.48a11.08 11.08 0 01-.71 1.61 7.43 7.43 0 01-.89 1.49 4.22 4.22 0 01-1.3 1.1 3.49 3.49 0 01-1.62.69 4.31 4.31 0 01-1.71-.42c-.5-.23-.81-.76-1.24-1.21a6.19 6.19 0 01-1.15-1.27 9.51 9.51 0 01-.65-1.6c-.18-.5-.26-1.07-.41-1.67s-.1-1.1-.2-1.7-.2-1.09-.27-1.69-.48-1.09-.52-1.69.33-1.14.32-1.74 0-1.12 0-1.72c0-1.19-.42-2-.37-2.67.09-.88 1.06-1.29 1.76-1.29zm19.62 11c0 .21-.11.4-.11.55a1.34 1.34 0 01-1.26 1.48c-.54 0-.93-.46-1.19-1.16-.2-.5-.47-1-.73-1.54s-.58-1-.87-1.45-.78-.84-1.09-1.3-.41-1.11-.76-1.54a16.73 16.73 0 00-1.24-1.16 1.26 1.26 0 01-.35-1c0-.73.62-1.08 1.4-1.08.36 0 .84-.17 1.21.17A18.77 18.77 0 0175 8c.4.47.66 1 1 1.58s1 .85 1.33 1.4.49 1.2.75 1.75a18.53 18.53 0 01.73 1.73zm8.73-.43c-.37.39-.4.72-.76 1.06s-.73.22-1.07.22a1.18 1.18 0 01-1.29-1.13 1.59 1.59 0 01.39-1.26 17.18 17.18 0 001.3-1.44c.41-.47 1-.87 1.36-1.41s.67-1.12 1-1.67.75-1.08 1.07-1.65a1.51 1.51 0 011.3-.72A1.23 1.23 0 0192 7.34c0 .21.36.51.23.75-.33.61-1 1-1.45 1.62s-.43 1.33-.86 1.9a1 1 0 01.74 1c0 .91-.1.91-.1 1.82s-.27.91-.27 1.81.36.91.36 1.82.1.91.1 1.82-.43.91-.43 1.83v1.82c0 .7-.46.84-1.13.84s-1.5-.14-1.5-.84c0-1 .13-1 .13-1.91s.11-1 .11-1.91v-1.92c0-.92.12-1 .11-1.92s-.28-.96-.5-1.87zM90 .08a1.7 1.7 0 011.53 1.52c0 .2-.27.33-.4.56-.29.48-.47 1-.83 1.55s-.51 1.08-.89 1.53-.74 1-1.14 1.37-1 .73-1.39 1.1a1.82 1.82 0 01-1 .51 1.7 1.7 0 01-1.49-1.55A1.61 1.61 0 0185 5.52c.46-.41 1.23-.62 1.72-1.15s.55-1.29 1-1.83 1.16-.89 1.5-1.43.37-1.03.78-1.03zm8.56 6.12c-.54-.7-.68-.08-1.57-.08s-.9-.25-1.79-.25a1 1 0 01-1.1-1.08c0-.62.38-1.47 1.1-1.47h1.79c.9 0 1.13.9 1.7.21.69-.85-.13-1-.13-2.12A1.59 1.59 0 01100.17 0a1.5 1.5 0 011.52 1.36c0 1.09-1.06 1.57-.32 2.38s1.2-.34 2.19-.34 1 .41 2 .41c.76 0 1.27.36 1.27 1a1.38 1.38 0 01-1.27 1.39c-1 0-1-.1-2-.1s-1.51-.94-2.16-.19-.49 1.51.27 2.38.92-.14 1.93-.14 1 .42 2 .42h2c.75 0 .92.41.92 1s-.17 1.4-.92 1.4-.88-.13-1.76-.13-.87-.11-1.75-.11h-1.76c-.88 0-.88-.11-1.76-.11s-.87.23-1.75.23-.88-.25-1.76-.25-.88.35-1.77.35-.88-.34-1.76-.34-.94-.4-.94-1 .21-1.15.94-1.15.86-.26 1.72-.26.87.35 1.73.35 1 .23 1.72-.19c1.05-.56.56-1.24-.14-2.16zm-4.42 10.22c-.73 0-1.19-.89-1.19-1.54a1.08 1.08 0 011.19-1.07c1 0 1-.16 1.9-.16s1-.24 1.91-.24 1-.06 1.92-.06 1 .65 1.86.19c.46-.25-.15-.43-.15-.95 0-.8.9-1.33 1.61-1.33a1.47 1.47 0 011.49 1.33c0 .52-.7 1.11-.22 1.31 1.19.48 1.39-.41 2.68-.41.75 0 .86.77.86 1.42s-.11 1.4-.86 1.4c-1.29 0-1.42-.74-2.5 0-.7.46 0 .73 0 1.57s-.28.84-.28 1.68.36.84.36 1.68a4.91 4.91 0 01-.18 1.72c-.22.55-.89.65-1.41.88a3.93 3.93 0 01-1.55.23 11.61 11.61 0 01-2.17-.19c-.68-.13-1.18-.51-1.18-1.11a1.41 1.41 0 011.63-1.39 6.19 6.19 0 001.28.24.68.68 0 00.77-.74c0-.78.11-.78.11-1.56s-.22-.78-.22-1.56.76-1.25.16-1.74-1.1.29-2.05.29-1-.34-1.91-.34a13.79 13.79 0 00-2 .03c-.93.07-.91.42-1.86.42zm4.94 2.18a1.71 1.71 0 01.18 1c0 .75-.78 1.18-1.51 1.18a1.13 1.13 0 01-1-.36A15.9 15.9 0 0095.17 19a1.91 1.91 0 01-.51-1c0-.68.93-1.38 1.66-1.38a1.7 1.7 0 011.09.31 9.23 9.23 0 011.67 1.67z"/><path class="cls-1" d="M87.54 14c-.37.39-.4.72-.76 1.06s-.73.22-1.07.22a1.18 1.18 0 01-1.29-1.13 1.59 1.59 0 01.39-1.26 17.18 17.18 0 001.3-1.44c.41-.47 1-.87 1.36-1.41s.67-1.12 1-1.67.75-1.08 1.07-1.65a1.51 1.51 0 011.3-.72A1.23 1.23 0 0192 7.34c0 .21.36.51.23.75-.33.61-1 1-1.45 1.62s-.43 1.33-.86 1.9a1 1 0 01.74 1c0 .91-.1.91-.1 1.82s-.27.91-.27 1.81.36.91.36 1.82.1.91.1 1.82-.43.91-.43 1.83v1.82c0 .7-.46.84-1.13.84s-1.5-.14-1.5-.84c0-1 .13-1 .13-1.91s.11-1 .11-1.91v-1.92c0-.92.12-1 .11-1.92s-.28-.96-.5-1.87zM90 .08a1.7 1.7 0 011.53 1.52c0 .2-.27.33-.4.56-.29.48-.47 1-.83 1.55s-.51 1.08-.89 1.53-.74 1-1.14 1.37-1 .73-1.39 1.1a1.82 1.82 0 01-1 .51 1.7 1.7 0 01-1.49-1.55A1.61 1.61 0 0185 5.52c.46-.41 1.23-.62 1.72-1.15s.55-1.29 1-1.83 1.16-.89 1.5-1.43.37-1.03.78-1.03zm8.56 6.12c-.54-.7-.68-.08-1.57-.08s-.9-.25-1.79-.25a1 1 0 01-1.1-1.08c0-.62.38-1.47 1.1-1.47h1.79c.9 0 1.13.9 1.7.21.69-.85-.13-1-.13-2.12A1.59 1.59 0 01100.17 0a1.5 1.5 0 011.52 1.36c0 1.09-1.06 1.57-.32 2.38s1.2-.34 2.19-.34 1 .41 2 .41c.76 0 1.27.36 1.27 1a1.38 1.38 0 01-1.27 1.39c-1 0-1-.1-2-.1s-1.51-.94-2.16-.19-.49 1.51.27 2.38.92-.14 1.93-.14 1 .42 2 .42h2c.75 0 .92.41.92 1s-.17 1.4-.92 1.4-.88-.13-1.76-.13-.87-.11-1.75-.11h-1.76c-.88 0-.88-.11-1.76-.11s-.87.23-1.75.23-.88-.25-1.76-.25-.88.35-1.77.35-.88-.34-1.76-.34-.94-.4-.94-1 .21-1.15.94-1.15.86-.26 1.72-.26.87.35 1.73.35 1 .23 1.72-.19c1.05-.56.56-1.24-.14-2.16zm-4.42 10.22c-.73 0-1.19-.89-1.19-1.54a1.08 1.08 0 011.19-1.07c1 0 1-.16 1.9-.16s1-.24 1.91-.24 1-.06 1.92-.06 1 .65 1.86.19c.46-.25-.15-.43-.15-.95 0-.8.9-1.33 1.61-1.33a1.47 1.47 0 011.49 1.33c0 .52-.7 1.11-.22 1.31 1.19.48 1.39-.41 2.68-.41.75 0 .86.77.86 1.42s-.11 1.4-.86 1.4c-1.29 0-1.42-.74-2.5 0-.7.46 0 .73 0 1.57s-.28.84-.28 1.68.36.84.36 1.68a4.91 4.91 0 01-.18 1.72c-.22.55-.89.65-1.41.88a3.93 3.93 0 01-1.55.23 11.61 11.61 0 01-2.17-.19c-.68-.13-1.18-.51-1.18-1.11a1.41 1.41 0 011.63-1.39 6.19 6.19 0 001.28.24.68.68 0 00.77-.74c0-.78.11-.78.11-1.56s-.22-.78-.22-1.56.76-1.25.16-1.74-1.1.29-2.05.29-1-.34-1.91-.34a13.79 13.79 0 00-2 .03c-.93.07-.91.42-1.86.42zm4.94 2.18a1.71 1.71 0 01.18 1c0 .75-.78 1.18-1.51 1.18a1.13 1.13 0 01-1-.36A15.9 15.9 0 0095.17 19a1.91 1.91 0 01-.51-1c0-.68.93-1.38 1.66-1.38a1.7 1.7 0 011.09.31 9.23 9.23 0 011.67 1.67zm20.3.2a5.38 5.38 0 001.44.92 7.21 7.21 0 001.54.82 12.83 12.83 0 001.7.49c.53.07 1.13 0 1.77 0h3.49c.62 0 1.19.33 1.75.32s1.19-.06 1.75-.08 1.17-.32 1.73-.36 1.21.2 1.76.14c1-.11 1.49.35 1.49 1.08a1.46 1.46 0 01-1.32 1.48c-.58.05-1.16.2-1.76.23s-1.17 0-1.78 0h-1.77c-.61 0-1.16-.24-1.77-.24s-1.16.36-1.69.34-1.14-.43-1.67-.46-1.15 0-1.67-.09a15.16 15.16 0 01-1.62-.43 10.57 10.57 0 01-1.58-.45 8.34 8.34 0 01-1.51-.6 6.83 6.83 0 01-1.41-.84c-.42.48-1.09.71-1.58 1.17s-.7 1.23-1.21 1.62a2.15 2.15 0 01-1 .43c-.75 0-1.22-.88-1.22-1.58a1.32 1.32 0 01.58-1.26 18.39 18.39 0 001.62-.95c.46-.4.79-1 1.21-1.45a5.09 5.09 0 00.09-1.56c0-.78-.4-.78-.4-1.55s.18-.78.18-1.55c0-.5 0-.89-.68-.89s-.65.22-1.3.22-1-.63-1-1.28.22-1.49 1-1.49h1.92a4.63 4.63 0 011.62.25 2.34 2.34 0 011.21 1.17 4.34 4.34 0 01.19 1.61c0 .81-.1.81-.1 1.63s.27.83.23 1.64-.39.75-.23 1.55zm-.26-14.93a1.89 1.89 0 01.52 1A1.57 1.57 0 01118 6.28c-.39 0-.61-.24-1-.66a15.15 15.15 0 00-2-1.81 1.31 1.31 0 01-.58-.94 1.49 1.49 0 011.46-1.41c.31 0 .49.39.83.62a12.53 12.53 0 011.14.9c.43.36.96.53 1.27.89zm14.54 6.78a4 4 0 012.17.41c.56.4.64 1.14.64 2 0 1.08-.15 1.08-.15 2.17s.16 1.09.16 2.17a2.32 2.32 0 01-.66 1.94 3.17 3.17 0 01-2 .61c-.49 0-.85-.38-1.32-.43-.68-.08-.78-.35-.78-.87s.18-1.23 1-1.12c.34.05.6.35.85.35s.39-.37.39-.79v-1.87c0-.93-.12-.94-.12-1.87 0-.47 0-.48-.6-.48-.79 0-.79-.07-1.58-.07s-1.16-.82-1.67-.21.21 1 .34 1.94c.26-.05.37.07.63 0-.05-.05-.07-.31-.12-.38s0-.3 0-.45c0-.47.21-.5.7-.5s.56 0 .82.34a18.63 18.63 0 011.42 2.07c.1.21-.19.4-.19.58 0 .6-.2 1.16-.72 1.16a1.43 1.43 0 01-1.18-.68c0-.11.15-.45.1-.55-.65.17-1.28.52-1.94.66s-1.38 0-2 .1-1.33.41-2 .48a1 1 0 01-1.26-1.11c0-.52.2-1.32.9-1.38s1.33.13 2 0c.31-1.08.89-1.39.29-2.36-.37-.59-.9.11-1.6.11s-.7-.15-1.4-.15-.65.38-.65.85v5.46c0 .64-.86 1.11-1.54 1.11a1.29 1.29 0 01-1.35-1.11c0-1-.23-1-.23-1.92v-1.92c0-.92.19-.95.19-1.91a2 2 0 011-1.79 3.32 3.32 0 012-.62c.85 0 .85-.24 1.7-.24s.84.49 1.54 0c.49-.34.65-.6.12-.87-1.06-.53-1.14.11-2.32.11a3.69 3.69 0 01-2.24-.55 2.51 2.51 0 01-.8-2.07c0-.93.39-.93.39-1.85s-.43-.93-.43-1.86a2.1 2.1 0 011.08-1.75 3 3 0 011.93-.88H127c.91 0 .92.09 1.84.09s.92.28 1.84.28.93-.36 1.85-.36a4 4 0 012.22.46c.55.41.44 1.25.44 2.14v3.71c0 .93.06 1.66-.49 2.08a3.81 3.81 0 01-2.17.41c-1.28 0-1.44-.64-2.59-.1a.8.8 0 000 1.37c.78.5 1 .13 1.91.12s.89-.21 1.81-.21zm-8-7.84c-.6 0-.66.14-.66.61s-.53.77-.15.88c1.28.37 1.64.74 2.82.12.62-.32.36-1.1 0-1.68-.6-.74-1.09.07-2.04.07zm1.88 4.67c.57-.43.59-1 0-1.3a2.49 2.49 0 00-2.72-.18c-.39.11-.23.5-.23.9s.51.69 1 .72c.94.3 1.16.43 1.92-.14zm5.3-4.06c0-.47-.16-.5-.76-.5-1 0-1.28-.8-2.14-.21a1.06 1.06 0 00-.12 1.67c.51.5.89-.09 1.61-.09a3.62 3.62 0 001.43-.1c.34-.1-.05-.38-.05-.77zm-.76 4.06c.6 0 .65-.14.65-.61s.53-.69.18-.89c-.62-.35-.77-.17-1.48-.17s-1-.31-1.5.19-.35.92.07 1.5c.59.83 1-.02 2.05-.02z"/><path class="cls-1" d="M119.38 18.8a5.38 5.38 0 001.44.92 7.21 7.21 0 001.54.82 12.83 12.83 0 001.7.49c.53.07 1.13 0 1.77 0h3.49c.62 0 1.19.33 1.75.32s1.19-.06 1.75-.08 1.17-.32 1.73-.36 1.21.2 1.76.14c1-.11 1.49.35 1.49 1.08a1.46 1.46 0 01-1.32 1.48c-.58.05-1.16.2-1.76.23s-1.17 0-1.78 0h-1.77c-.61 0-1.16-.24-1.77-.24s-1.16.36-1.69.34-1.14-.43-1.67-.46-1.15 0-1.67-.09a15.16 15.16 0 01-1.62-.43 10.57 10.57 0 01-1.58-.45 8.34 8.34 0 01-1.51-.6 6.83 6.83 0 01-1.41-.84c-.42.48-1.09.71-1.58 1.17s-.7 1.23-1.21 1.62a2.15 2.15 0 01-1 .43c-.75 0-1.22-.88-1.22-1.58a1.32 1.32 0 01.58-1.26 18.39 18.39 0 001.62-.95c.46-.4.79-1 1.21-1.45a5.09 5.09 0 00.09-1.56c0-.78-.4-.78-.4-1.55s.18-.78.18-1.55c0-.5 0-.89-.68-.89s-.65.22-1.3.22-1-.63-1-1.28.22-1.49 1-1.49h1.92a4.63 4.63 0 011.62.25 2.34 2.34 0 011.21 1.17 4.34 4.34 0 01.19 1.61c0 .81-.1.81-.1 1.63s.27.83.23 1.64-.39.75-.23 1.55zm-.26-14.93a1.89 1.89 0 01.52 1A1.57 1.57 0 01118 6.28c-.39 0-.61-.24-1-.66a15.15 15.15 0 00-2-1.81 1.31 1.31 0 01-.58-.94 1.49 1.49 0 011.46-1.41c.31 0 .49.39.83.62a12.53 12.53 0 011.14.9c.43.36.96.53 1.27.89zm14.54 6.78a4 4 0 012.17.41c.56.4.64 1.14.64 2 0 1.08-.15 1.08-.15 2.17s.16 1.09.16 2.17a2.32 2.32 0 01-.66 1.94 3.17 3.17 0 01-2 .61c-.49 0-.85-.38-1.32-.43-.68-.08-.78-.35-.78-.87s.18-1.23 1-1.12c.34.05.6.35.85.35s.39-.37.39-.79v-1.87c0-.93-.12-.94-.12-1.87 0-.47 0-.48-.6-.48-.79 0-.79-.07-1.58-.07s-1.16-.82-1.67-.21.21 1 .34 1.94c.26-.05.37.07.63 0-.05-.05-.07-.31-.12-.38s0-.3 0-.45c0-.47.21-.5.7-.5s.56 0 .82.34a18.63 18.63 0 011.42 2.07c.1.21-.19.4-.19.58 0 .6-.2 1.16-.72 1.16a1.43 1.43 0 01-1.18-.68c0-.11.15-.45.1-.55-.65.17-1.28.52-1.94.66s-1.38 0-2 .1-1.33.41-2 .48a1 1 0 01-1.26-1.11c0-.52.2-1.32.9-1.38s1.33.13 2 0c.31-1.08.89-1.39.29-2.36-.37-.59-.9.11-1.6.11s-.7-.15-1.4-.15-.65.38-.65.85v5.46c0 .64-.86 1.11-1.54 1.11a1.29 1.29 0 01-1.35-1.11c0-1-.23-1-.23-1.92v-1.92c0-.92.19-.95.19-1.91a2 2 0 011-1.79 3.32 3.32 0 012-.62c.85 0 .85-.24 1.7-.24s.84.49 1.54 0c.49-.34.65-.6.12-.87-1.06-.53-1.14.11-2.32.11a3.69 3.69 0 01-2.24-.55 2.51 2.51 0 01-.8-2.07c0-.93.39-.93.39-1.85s-.43-.93-.43-1.86a2.1 2.1 0 011.08-1.75 3 3 0 011.93-.88H127c.91 0 .92.09 1.84.09s.92.28 1.84.28.93-.36 1.85-.36a4 4 0 012.22.46c.55.41.44 1.25.44 2.14v3.71c0 .93.06 1.66-.49 2.08a3.81 3.81 0 01-2.17.41c-1.28 0-1.44-.64-2.59-.1a.8.8 0 000 1.37c.78.5 1 .13 1.91.12s.89-.21 1.81-.21zm-8-7.84c-.6 0-.66.14-.66.61s-.53.77-.15.88c1.28.37 1.64.74 2.82.12.62-.32.36-1.1 0-1.68-.6-.74-1.09.07-2.04.07zm1.88 4.67c.57-.43.59-1 0-1.3a2.49 2.49 0 00-2.72-.18c-.39.11-.23.5-.23.9s.51.69 1 .72c.94.3 1.16.43 1.92-.14zm5.3-4.06c0-.47-.16-.5-.76-.5-1 0-1.28-.8-2.14-.21a1.06 1.06 0 00-.12 1.67c.51.5.89-.09 1.61-.09a3.62 3.62 0 001.43-.1c.34-.1-.05-.38-.05-.77zm-.76 4.06c.6 0 .65-.14.65-.61s.53-.69.18-.89c-.62-.35-.77-.17-1.48-.17s-1-.31-1.5.19-.35.92.07 1.5c.59.83 1-.02 2.05-.02z"/></g></g></svg>