<svg xmlns="http://www.w3.org/2000/svg" viewBox="0 0 500.5 280.75"><defs><style>.cls-2{fill:#fff}</style></defs><g id="レイヤー_2" data-name="レイヤー 2"><g id="design"><path d="M12.16 65.18a.52.52 0 01-.38-.17 6.26 6.26 0 01-.72-1 3.89 3.89 0 00-.61-.85l-.74-.85-.71-.87-.75-.85c-.19-.21-.38-.42-.75-.85s-.56-.64-.75-.85-.38-.42-.74-.84a7.7 7.7 0 00-.75-.76 7.57 7.57 0 01-.83-.85c-.38-.43-.56-.65-.75-.87l-.72-.85a5.87 5.87 0 01-.72-1 4.42 4.42 0 00-.6-.84L.12 51.17a.51.51 0 01.05-.71.51.51 0 01.71 0l1.48 1.71a6.08 6.08 0 01.71 1 4.93 4.93 0 00.6.85l.74.85c.18.22.36.44.73.86a5.94 5.94 0 00.75.76 8.57 8.57 0 01.83.85c.36.42.55.63.74.84s.38.42.75.86l.74.83.76.87.75.85c.19.21.38.42.75.85a6.26 6.26 0 01.72 1 4.14 4.14 0 00.61.85.52.52 0 010 .71.54.54 0 01-.38.18zm110.22-19.44h-.18a.5.5 0 01-.29-.65 4.47 4.47 0 00.28-1 5.52 5.52 0 01.33-1.19 7.53 7.53 0 01.5-1.09 7.83 7.83 0 00.44-1 10.48 10.48 0 00.35-1 11.55 11.55 0 01.37-1.12c.2-.52.3-.78.39-1l.4-1.06c.2-.53.31-.8.42-1.06s.21-.52.41-1a9.06 9.06 0 01.48-1.08 9.14 9.14 0 00.43-1c.21-.54.32-.8.43-1.07s.22-.51.42-1 .27-.78.36-1 .17-.56.37-1.1a.5.5 0 11.94.36c-.2.51-.28.77-.36 1a11.48 11.48 0 01-.38 1.1c-.2.54-.32.8-.43 1.07s-.22.51-.41 1a9.2 9.2 0 01-.48 1.08 10.09 10.09 0 00-.44 1c-.2.54-.31.8-.42 1.06s-.21.52-.41 1-.29.78-.39 1.05-.19.53-.4 1.06a10.63 10.63 0 00-.34 1 10.71 10.71 0 01-.37 1.12 8.83 8.83 0 01-.5 1.09 7.55 7.55 0 00-.45 1 5.1 5.1 0 00-.28 1 5.35 5.35 0 01-.32 1.19.51.51 0 01-.47.24zm-24.74-.87c-.65.13-.37-.59-.68-1.18s-.26-.61-.57-1.2l-.62-1.17c-.32-.58-.36-.56-.68-1.14s-.27-.61-.58-1.2-.36-.57-.67-1.16-.28-.61-.56-1.21v-.16c-.84.09-1.05-.25-1.69.31s-.11.69-.2 1.35-.07.67-.16 1.34-.11.66-.21 1.32-.12.67-.22 1.34-.09.66-.19 1.33 0 .68-.12 1.35.46 1.22-.21 1.35-.3-.61-.61-1.2-.29-.61-.61-1.2-.35-.58-.66-1.17-.29-.61-.6-1.21-.35-.58-.67-1.18-.39-.55-.71-1.15 0-1-.59-1.21c-.79-.3-1.21-.44-1.69.27s.32.63.65 1.24.37.59.69 1.2.27.64.59 1.25.38.58.7 1.19.24.66.57 1.27.35.59.67 1.21.39.58.71 1.19.31.63.63 1.24 0 1 .61 1.28a1.23 1.23 0 001.65-.3c.5-.46.1-.69.19-1.36s.08-.68.17-1.35l.18-1.35c.1-.67 0-.68.12-1.36s.15-.66.25-1.34 0-.69.14-1.36-.45-1.25.23-1.38.27.65.58 1.25.4.57.71 1.17.34.59.65 1.19l.65 1.2.64 1.21c.32.6.32.61.63 1.21s-.06 1 .57 1.29 1 .19 1.61-.37.14-.65.24-1.33.14-.68.23-1.37 0-.69.12-1.38 0-.69.13-1.37.1-.68.19-1.37.14-.68.23-1.37.15-.68.25-1.36.06-.7.16-1.39.76-1 .2-1.41-1-.22-1.69.34-.09.65-.19 1.32-.12.66-.21 1.33 0 .67-.14 1.33-.19.66-.28 1.33 0 .67-.13 1.34a3.6 3.6 0 00-.16 1.34c.12.77.42 1.24-.24 1.38zm-31.25 5.72c-.57.33-.54-.43-1-.85s-.49-.45-1-.88-.51-.41-1-.84-.45-.5-.95-.92l-1-.84c-.51-.43-.53-.41-1-.84s-.53-.4-1-.83-.49-.45-1-.88-.35-.77-1-.91c-.83-.18-1.12-.31-1.68.32s.13.65.24 1.3.09.66.21 1.3.09.66.21 1.3.2.64.31 1.29.06.65.17 1.3.13.65.25 1.3.08.65.2 1.3.15.65.27 1.3-.37 1 .22 1.3a1.08 1.08 0 001.64-.29c.44-.48-.15-.63-.26-1.27s-.06-.66-.18-1.3-.12-.64-.23-1.29-.09-.65-.2-1.3-.09-.65-.21-1.29-.19-.64-.31-1.29-.76-1-.19-1.29.5.41 1 .83.48.46 1 .89.54.39 1 .82.49.45 1 .88.49.45 1 .88l1 .87c.51.43.53.41 1 .84s.53.41 1 .84.35.78 1 .91c.83.18 1.07.26 1.64-.37s0-.62-.16-1.27-.26-.61-.38-1.28 0-.66-.16-1.31-.17-.64-.29-1.29-.08-.65-.19-1.3-.15-.64-.27-1.29-.1-.65-.21-1.3-.11-.66-.23-1.31.36-1-.22-1.28c-.75-.4-1.08-.36-1.65.26s.1.65.21 1.3.18.63.3 1.27 0 .66.15 1.3.13.65.25 1.29l.22 1.3c.12.65 0 .69.26 1.29s.83 1 .22 1.33zm-28.06-7.86c-.42.61.22.74.34 1.46s.07.74.2 1.47.16.72.28 1.45.12.72.25 1.45.07.74.19 1.47.16.72.29 1.45l.26 1.46c.13.74-.31 1 .29 1.45s.7 0 1.41-.18.69-.21 1.4-.34.72 0 1.43-.16l1.42-.25 1.41-.26 1.41-.2c.71-.13.71-.14 1.42-.26s.7-.18 1.41-.31.71-.16 1.42-.29 1.09.43 1.46-.19a1.12 1.12 0 00-.29-1.71c-.53-.45-.72.17-1.41.29s-.71.06-1.4.18-.68.18-1.38.31-.7.06-1.4.18-.68.19-1.37.31l-1.37.22c-.7.12-.69.17-1.39.29s-.72 0-1.42.12-.88.81-1.42.35-.16-.86-.31-1.69-.64-.92-.22-1.65.68-.11 1.37-.23.7-.11 1.39-.23.68-.23 1.37-.35.7-.1 1.39-.23.7-.09 1.39-.21.69-.16 1.39-.28.72 0 1.41-.15.69-.21 1.38-.34 1.1.44 1.46-.18.27-1.11-.37-1.65-.66.1-1.36.22-.7.07-1.4.19-.68.16-1.38.29-.69.15-1.38.28-.7.07-1.39.19-.7.15-1.39.27-.71.08-1.4.2-.7.16-1.4.28-.81.66-1.36.2-.15-.79-.29-1.63-.81-1-.39-1.71.74-.1 1.44-.23.7-.08 1.39-.2.7-.09 1.4-.21.69-.14 1.38-.26.69-.18 1.38-.3l1.39-.25 1.4-.24c.7-.12.69-.15 1.39-.27s1 .38 1.37-.23.36-1.06-.29-1.6-.67.13-1.37.25-.73 0-1.43.16l-1.44.3c-.71.12-.7.19-1.4.32s-.71.15-1.41.28-.72.05-1.43.18l-1.42.22c-.71.12-.7.15-1.41.28s-.71.32-1.44.28-1.04-.43-1.45.17zm31.17 1.39c-.42.61.2.74.33 1.46s0 .75.18 1.47.19.72.32 1.45 0 .73.18 1.46.23.71.36 1.44.1.73.23 1.46 0 .75.17 1.48-.28 1 .32 1.44.69-.14 1.4-.27.71-.09 1.42-.21l1.42-.24 1.41-.25c.71-.12.7-.2 1.41-.32s.71-.05 1.42-.18l1.42-.23c.71-.13.7-.19 1.42-.31s.72-.05 1.44-.17 1 .31 1.4-.31.34-1.08-.31-1.62-.66.09-1.36.21-.7.06-1.4.18-.68.21-1.37.33-.69.14-1.39.27l-1.38.24-1.39.25c-.7.13-.71.08-1.4.21l-1.41.23c-.69.12-.89.75-1.43.3s-.06-.89-.21-1.72-.8-.94-.38-1.67.74-.07 1.43-.19l1.4-.24c.69-.12.67-.22 1.37-.34s.71 0 1.4-.17l1.38-.25 1.4-.24 1.39-.25c.7-.13.69-.18 1.39-.31s1 .4 1.37-.22.36-1.06-.28-1.61-.68 0-1.37.17-.69.16-1.39.28-.68.17-1.38.29-.7.09-1.39.22-.7.06-1.4.18-.67.23-1.37.36-.71 0-1.41.16-.69.19-1.38.32-.87.66-1.41.2-.14-.84-.29-1.68-.74-.94-.32-1.68.71-.12 1.4-.24l1.4-.23c.69-.12.68-.18 1.37-.31s.7-.1 1.4-.23.7 0 1.4-.15.69-.14 1.39-.26.69-.16 1.38-.28.7-.16 1.4-.28 1 .38 1.38-.24.39-1.12-.26-1.66-.73.1-1.43.22-.7.18-1.41.3-.72.06-1.43.19-.7.16-1.41.29l-1.41.25c-.71.13-.7.16-1.41.28s-.72.07-1.43.2l-1.42.25c-.71.12-.7.3-1.42.27s-1.04-.35-1.45.25zM36.69 48.2a4.84 4.84 0 00-.38-1.26 4.54 4.54 0 00-.72-1.1 5.17 5.17 0 00-1-.92 5 5 0 00-3.8-.89c-.67.12-.67.17-1.34.29l-1.36.23c-.67.12-.68.06-1.36.18s-.67.15-1.34.27-.67.18-1.34.3l-1.36.25c-.68.12-.69.05-1.38.17s-1-.31-1.38.25.09.71.21 1.39.2.67.32 1.35.06.69.18 1.37.22.67.34 1.35 0 .7.13 1.38.1.69.22 1.37.17.67.29 1.35.21.67.33 1.35.1.69.22 1.37 0 .7.15 1.39-.29 1 .31 1.31 1.09.4 1.66-.21-.19-.65-.3-1.27-.07-.63-.18-1.26-.09-.63-.2-1.26-.57-.71-.18-1.22.64-.23 1.34-.35.7-.08 1.4-.2.71 0 1.42-.16l1.4-.24c.71-.12.7-.16 1.4-.28s.72-.51 1.42-.33.45.49.93.92.54.37 1 .8.45.47.94.9.46.47.94.9.39.6 1 .8.51-.08 1-.17 1 .37 1.07-.16-.48-.48-1-.92l-1-.88c-.5-.45-.51-.44-1-.88l-1-.89c-.5-.45-.7-.29-1-.88A5.08 5.08 0 0035 53a4.92 4.92 0 00.84-1 5.42 5.42 0 00.71-1.14 5.83 5.83 0 00.32-1.31 5.6 5.6 0 00-.18-1.35zm-13.57 5.88c-.55-.39-.12-.71-.24-1.37s-.1-.68-.21-1.34-.14-.67-.25-1.34-.09-.67-.21-1.34-.61-.77-.22-1.34.65-.08 1.31-.2l1.31-.21c.65-.12.64-.17 1.29-.28l1.32-.23c.65-.12.66-.06 1.32-.18s.65-.14 1.31-.26.65-.18 1.31-.29a3.35 3.35 0 011.34 0 3.22 3.22 0 011.18.6 3.36 3.36 0 01.9.94 3.09 3.09 0 01.42 1.25 3.48 3.48 0 01.06 1.32A3.54 3.54 0 0134.5 51a3.37 3.37 0 01-.89 1 3.47 3.47 0 01-1.28.37c-.65.12-.65.1-1.31.21s-.64.17-1.3.29-.64.2-1.29.31-.66.1-1.31.22-.68 0-1.33.14a4 4 0 00-1.29.32c-.68.27-.83.61-1.38.22zM107.41 39a5.66 5.66 0 01-1.59-.29c-.94-.31-1.16-.79-1.19-1a1.53 1.53 0 01.31-1.11 2.36 2.36 0 01.81-.68 3.23 3.23 0 011-.32 4.55 4.55 0 011.61 0 3.3 3.3 0 011.44.67 2 2 0 001-1.32 4.6 4.6 0 00-1.3-.72 5.64 5.64 0 00-1.5-.32 6.51 6.51 0 00-1.53 0 4.56 4.56 0 00-1.62.6 3.88 3.88 0 00-1.34 1.09 3.23 3.23 0 00-.51 1.14 3 3 0 000 1.26 2.5 2.5 0 00.56 1.21 3.27 3.27 0 001.08.83 5.67 5.67 0 001.3.41 8.17 8.17 0 001.37.16 10.33 10.33 0 011.24.21 4.28 4.28 0 011.2.35 1.31 1.31 0 01.49 2 2.65 2.65 0 01-1.81.9 6 6 0 01-1.33.11 5.55 5.55 0 01-1.29-.33 4.8 4.8 0 01-1.2-.66 2.34 2.34 0 00-1 1.38 5.77 5.77 0 001.14.64 6.63 6.63 0 001.24.48 6.92 6.92 0 002.67.06h.12a5 5 0 001.56-.49 3.83 3.83 0 001.25-1.07 3 3 0 00.45-1.14 2.69 2.69 0 00-.56-2.56 3.47 3.47 0 00-1.17-.94 6.72 6.72 0 00-1.46-.42 10.55 10.55 0 00-1.44-.13z" fill="#ff5"/><path class="cls-2" d="M500.5 55.31L17.92 140.43V85.12L500.5 0v55.31zM21.15 179.43a18 18 0 01-1.24 1.5 16.47 16.47 0 01-1.05 1.57 1.61 1.61 0 01-.83.41c-.54.1-.88-.41-.88-.92 0-.27-.14-.69.16-1s1-.56 1.36-1 .55-1 .88-1.43.65-1.06.94-1.54c-1-.07-1 .46-2 .64-.49.08-.91-.46-.91-.93a1.06 1.06 0 01.91-1c.63-.11.64 0 1.27-.15s.78.06 1.15-.46.58-.89 0-1.39-.7-.16-1.46 0-.73.28-1.49.41a.75.75 0 01-.87-.77c0-.47.36-1.17.85-1.25.69-.12.73.05 1.42-.07s.69-.19 1.38-.31.82.25 1.48 0c.16-.4.36-.92.51-1.33s.33-.78.46-1.23.37-.75.75-.82 1.06.09 1.06.62c0 .1.08.27 0 .38-.24.76-.66 1.49-.88 2 1 .11 1-.37 2-.54a.81.81 0 01.91.82 1.29 1.29 0 01-.89 1.19c-.78.14-.81 0-1.59.15s-.94-.22-1.45.38-.71 1-.19 1.53.72 0 1.33-.15.6-.23 1.21-.34a.76.76 0 01.88.8c0 .47-.34 1.19-.84 1.28s-.68-.23-1.29-.12-.74-.06-1.22.34c-.31.27 0 .4.14.78a8.91 8.91 0 011.06.37 8 8 0 011 .69c.35.19.55.37.55.68a1.23 1.23 0 01-1 1.13c-.18 0-.45.15-.63 0-.39-.22-.59-.51-1-.72-.24.69-.09.68-.09 1.42s-.22.73-.22 1.46a1 1 0 01-.88 1c-.5.09-1.06-.07-1.06-.66s-.17-.53-.16-1a4.61 4.61 0 01.16-1.23c.24-.62.55-.62.3-1.19zm-.11-14c0-.58.48-.85 1-.94s1.22 0 1.22.56-.58.77-.09 1.18.58.12 1.21 0 .57-.42 1.2-.53.62.5.62 1-.08 1-.58 1.09c-.88.16-.92 0-1.8.13s-.83.43-1.71.59l-1.77.33c-.89.15-.93-.09-1.81.07-.49.08-.55-.23-.55-.71s.06-1.08.55-1.17.59-.15 1.19-.25.83.42 1.33.09-.05-.87-.05-1.46zm.45 5.24a1 1 0 01-.91.94c-.36.07-.85.1-1-.28s-.17-.47-.35-.85c-.08-.13.15-.32.15-.46a1.15 1.15 0 01.77-1.16c.35-.06.6.28.8.66s.43.42.59.8c.03.1-.05.21-.05.33zm6.25-4.56c0-.6.48-.89 1-1 .26-.05.46-.29.64-.2.45-.2.87-.34 1.29-.54s1-.21 1.4-.43.68-.76 1.08-1c.19-.11.48.11.65.09.6-.11 1 .19 1 .75 0 .37-.29.61-.72.89s-.76.79-1.26 1.06-1 .52-1.47.77-1.15.3-1.66.52a3.14 3.14 0 00-.08 1.4c0 .68-.36.93.23 1.27.79.46.82-.21 1.71-.37s1 .18 1.85 0 .87-.31 1.77-.46a.75.75 0 01.93.75 1.35 1.35 0 01-.91 1.29c-.68.12-1-.49-1.4.06s.07.78.07 1.56-.25.78-.25 1.56.06.78.06 1.56-.06.79-.06 1.57.09.78.09 1.57.17.78.17 1.57a1.44 1.44 0 01-1.12 1.3c-.52.09-.93-.31-.93-.92 0-.78-.18-.78-.18-1.56s-.16-.78-.16-1.56.05-.78.05-1.56.13-.79.13-1.57-.16-.78-.16-1.57.86-1.22.2-1.66-1.12-.09-2 .29v1.61c0 .48.07 1 0 1.5s-.07 1-.16 1.49-.52.92-.64 1.39-.14 1-.29 1.45-.2 1-.39 1.44a14.84 14.84 0 01-.73 1.31 1.34 1.34 0 01-1.06.62c-.54.1-1.06-.09-1.06-.68a1.79 1.79 0 01.29-.75 13.8 13.8 0 00.59-1.61 15.63 15.63 0 00.52-1.63c.14-.53.35-1.06.45-1.65s.39-1.08.45-1.68 0-1.14 0-1.74v-1.73c0-.8-.16-.8-.16-1.6s.09-.8.12-1.6.11-.79.11-1.59zm14.51-3.29a1.56 1.56 0 011.22-1.37 1.1 1.1 0 011.33 1.08c0 .54-.15 1.09-.19 1.68s-.07 1.11-.1 1.69 0 1.12 0 1.69-.15 1.14-.17 1.7 0 1.14-.06 1.69 0 1.15 0 1.7a7.43 7.43 0 00.18 1.51 2.08 2.08 0 00.62 1.35 1.86 1.86 0 001.47.29 6.62 6.62 0 001.69-.53 7.45 7.45 0 001.36-1.11 9.82 9.82 0 001.24-1.19 13.55 13.55 0 001.25-1.26c.28-.42.52-.83.85-.88a1 1 0 011.08 1 1.24 1.24 0 01-.13.82 14.88 14.88 0 01-1.06 1.15 14.92 14.92 0 01-.88 1.31 11.19 11.19 0 01-1.17 1 10.16 10.16 0 01-1.4.7 9.12 9.12 0 01-1.43.58 10.41 10.41 0 01-1.43.61 7.14 7.14 0 01-1.66.13 2.92 2.92 0 01-1.42-.78 2.8 2.8 0 01-1-1.19 5.94 5.94 0 01-.53-1.56 13 13 0 01-.14-1.65c0-.55.15-1.12.16-1.71s0-1.13 0-1.7.24-1.13.26-1.7 0-1.15 0-1.72.11-1.14.15-1.7-.13-1.08-.09-1.63zm18.87-2.73a1.06 1.06 0 011.35 1c0 .65-.34 1.14-.34 1.87 0 .56.12 1.09.14 1.58s0 1.1 0 1.58.1 1.1.17 1.57a15.55 15.55 0 00.24 1.57 6.14 6.14 0 00.61 1.47c.39.74.86 1 1.19 1s.5-.37.78-1a5 5 0 00.63-1.16c.14-.64.47-1.08.91-1.16a1.1 1.1 0 011.31 1 1.35 1.35 0 010 .39 11.26 11.26 0 01-.52 1.37 7.15 7.15 0 01-.68 1.3 4.92 4.92 0 01-.93 1.16 3.14 3.14 0 01-1.39.51 2.89 2.89 0 01-1.61-.17 3.12 3.12 0 01-1.23-1 6 6 0 01-.84-1.4 12.73 12.73 0 01-.43-1.58c-.12-.49-.15-1-.23-1.6s-.13-1-.17-1.62-.29-1-.31-1.62 0-1.07 0-1.64a15.4 15.4 0 01.29-2.09 1.35 1.35 0 011.06-1.33zm15.29 6c0 .15.17.31.17.43 0 .68-.73 1.08-1.3 1.18a.83.83 0 01-1-.48 10.75 10.75 0 00-.64-1.39 12.73 12.73 0 00-.81-1.3 14.17 14.17 0 00-.9-1.25 10.87 10.87 0 00-1.12-1 .83.83 0 01-.3-.68 1.44 1.44 0 011.07-1.37c.28-.06.56.22.84.43a9.59 9.59 0 011.38 1 13.08 13.08 0 011.08 1.34 13.4 13.4 0 01.9 1.49 11.73 11.73 0 01.63 1.65zm7.25-3.09a1.29 1.29 0 01-1 .74c-.52.09-.94-.12-.94-.69 0-.19.14-.35.26-.6.24-.47.39-1 .61-1.58s.57-1 .75-1.52.28-1.09.43-1.64.31-1.09.44-1.64.26-1.11.35-1.66a1.1 1.1 0 01.85-1c.63-.11 1.4.25 1.26 1.1-.07.46-.44.87-.54 1.34s-.06.95-.18 1.4-.22.92-.36 1.37-.2.79-.35 1.23c.4 0 .41.31.41.76 0 .79.15.79.15 1.58v3.15c0 .79-.07.79-.07 1.58s.08.79.08 1.58v1.59c0 .79.24.8.24 1.59 0 .55-.69.78-1.22.87s-1.09.05-1.09-.51c0-.75-.1-.75-.1-1.5v-1.5c0-.75.1-.75.1-1.5v-1.51c0-.75-.1-.76-.1-1.52s.17-.75.14-1.51c-.07-.13-.1-.07-.12 0zm5.16 2a1.62 1.62 0 01-1.34-.24 1.41 1.41 0 01-.54-1.24c0-.67.09-.67.09-1.34s-.1-.67-.1-1.34a1.89 1.89 0 01.62-1.38 2 2 0 011.31-.68c.36-.07.61.12.84-.17s.3-.92-.06-1.07c-.59-.26-.71.31-1.35.42s-.61.27-1.24.38c-.47.09-.63-.47-.63-.88s.13-.93.59-1c.64-.11.63-.14 1.27-.25s.66.09 1.17-.3c.3-.24.48-.44.22-.71-.55.18-1.18.41-1.68.54a.69.69 0 01-.91-.74.94.94 0 01.78-.94c.53-.14 1.12-.23 1.68-.4s1.09-.44 1.62-.64 1.13-.39 1.62-.62c.1-.06.14-.3.24-.32.53-.09.77.46.77.93a1.06 1.06 0 01-.56 1.08c-.56.24-1.06.47-1.69.7-.23.46-.49.51-.06.8s.48 0 1.07-.15.6-.09 1.2-.2a.84.84 0 011 .77 1.2 1.2 0 01-1 1l-1.2.19c-.59.11-.73-.2-1.2.19-.3.25-.25.48 0 .73s.34 0 .72-.09a1.73 1.73 0 011.39.25c.33.25.44.63.44 1.29s.27.67.27 1.34v1.34a2 2 0 01-.72 1.41 2.25 2.25 0 01-1.29 1c-.39.07-.68-.44-.93-.13s-.25.76.13.88c.84.24.88 0 1.74-.12.49-.08.8.12.8.53a1.14 1.14 0 01-.8 1.08c-.86.15-1.07-.39-1.8.08a.67.67 0 00-.09 1c.48-.16 1.06-.54 1.48-.7a.89.89 0 011.24.72c0 .34-.43.55-.89.75s-.89.54-1.41.73-.92.53-1.42.71-1 .39-1.5.55-1.07.14-1.57.28a.79.79 0 01-1-.78c0-.43.36-.71.92-.85s.84-.28 1.28-.41 1-.31 1.41-.44c.18-.52.37-1-.14-1.23-.89-.36-1 .33-1.91.5a.84.84 0 01-.92-.78c0-.41.47-.69.94-.77a3.64 3.64 0 001.86-.52c.34-.21 0-.36-.15-.72s-.24-.12-.61-.02zm.07-4.87c-.25 0-.46.19-.46.43s-.14.52.13.62c.52.19.8.26 1.18-.13s.12-.59-.06-1-.41-.05-.79.05zm.82 3.25c.27-.41.43-.84 0-1.13s-.75-.06-1.18.28c-.26.21-.1.35-.1.68s.21.33.43.29c.46.06.63.17.85-.15zm2.75-3.49c0-.25-.16-.45-.4-.41-.4.07-.55-.06-.8.27s-.43.78 0 1 .66-.06 1.19-.28c.24-.12.01-.31.01-.61zm-.37 3.08c.25 0 .46-.19.46-.44s.17-.55-.13-.67c-.54-.22-.83-.28-1.22.14s-.13.61.06 1.07.43-.07.83-.13zm5.58-5c0 .52-.12 1.07-.15 1.57s0 1 0 1.55-.21 1-.28 1.53-.08 1.05-.18 1.54-.41 1-.55 1.46-.24 1-.41 1.48-.39.95-.6 1.41-.47.91-.72 1.36-.4.76-.73.82c-.5.09-1.16-.2-1.16-.74 0-.18.33-.35.45-.57.26-.48.36-1 .58-1.52s.38-1 .56-1.52.21-1 .34-1.58.56-1 .66-1.51 0-1.07.09-1.62.15-1.06.19-1.62 0-1.11 0-1.66c-.28-.19-.38 0-.71 0-.51.11-.71-.24-.71-.73a.88.88 0 01.73-1c.34-.07.41.07.52-.26a4.14 4.14 0 00.28-1.91c0-1-.22-1-.22-2a1.32 1.32 0 011-1.19 1 1 0 011.17.85c0 1-.09 1-.09 1.94s-.38 1 0 1.91c.14.34.27-.22.63-.29a2.07 2.07 0 011.66.3 1.86 1.86 0 01.53 1.54v1.53c0 .53.06 1 .05 1.53s-.1 1-.12 1.53-.14 1-.18 1.52-.08 1-.13 1.51.15 1.08.08 1.55a6.69 6.69 0 01-.36 1.33c-.18.49-.64.7-.94 1s-.61.74-1.08.83-.8-.24-1.2-.25-.82-.23-.82-.68A1 1 0 0197 168c.22 0 .32-.27.56-.31s.39-.15.49-.76.4-1.08.46-1.69.18-1.12.22-1.72-.23-1.15-.21-1.74 0-1.14 0-1.73.35-1.15.35-1.74c0-.37-.29-.49-.64-.43s-.39-.14-.56.12zm18.39 1.49c-.24-.3-.6-.57-.87-.94s-.43-.7-.68-1.07c-.5.17-1.06.17-1.57.34s-1 .39-1.52.54-1 .35-1.54.48-1.07.19-1.59.31c-.68.17-1-.2-1-.73a1.29 1.29 0 01.88-1.32c.45-.1 1 .11 1.44 0s.88-.3 1.33-.43.85-.41 1.3-.54l1.33-.4c-.3-.6-.59-1.17-.83-1.78-.47.16-.88.4-1.34.54s-1 .31-1.42.44-1 .23-1.43.34c-.69.16-1-.43-1-1a1.08 1.08 0 01.87-1.1c.57-.13 1.22-.24 1.89-.43s1.29-.42 1.92-.63c-.23-.66-.52-1.37-.68-2a1.29 1.29 0 01-.08-.26c0-.6.61-.9 1.16-1s.83 0 1 .5.5 1.26.7 1.92c.62-.22 1.2-.35 1.75-.57s1.21-.58 1.7-.82c.12-.06.26 0 .38 0a.94.94 0 011.16.8 1.37 1.37 0 01-.8 1.1c-.53.26-1.14.47-1.77.74s-1.05.49-1.67.73c.24.61.37 1.18.65 1.77.46-.17.87-.49 1.29-.66s.86-.41 1.27-.6 1-.1 1.42-.3a1.17 1.17 0 01.27-.14.78.78 0 011 .81 1.17 1.17 0 01-.73 1c-.53.26-1.15.45-1.77.72s-1.15.57-1.78.81c.34.51.66 1.11 1.06 1.6a16.58 16.58 0 001.32 1.33 1 1 0 01.22.78 1.25 1.25 0 01-1 1.27c-.16 0-.31-.14-.49-.17a12.16 12.16 0 00-1.48-.15 14.62 14.62 0 00-1.48 0 12.16 12.16 0 00-1.48.15 7 7 0 00-1.32.51 3.4 3.4 0 00-1.14.74c-.45.37-.8.67-.8 1.08s.34.86 1 1a4.29 4.29 0 001.47.08c.42 0 .89-.19 1.45-.29.83-.15 1.45 0 2.06-.15.79-.2 1.16.16 1.16.71a1.28 1.28 0 01-1 1.19 21.34 21.34 0 01-2.15.48 15.53 15.53 0 01-1.56.14 9.73 9.73 0 01-1.56.09 4.63 4.63 0 01-1.49-.38 2.57 2.57 0 01-1.31-.88 3.35 3.35 0 01-.12-1.58 3.56 3.56 0 01.14-1.53 4 4 0 01.9-1.32 6 6 0 011.32-.87 8.84 8.84 0 011.48-.5 12.33 12.33 0 011.53-.35c.49-.09 1-.23 1.37-.26a6.91 6.91 0 011.38.14c-.18.02-.11-.01-.12-.03zm18.6-14.05a1.23 1.23 0 01.89-1.27 1 1 0 011.23.88v1.34c0 .67-.74 1-.21 1.46s.8-.22 1.51-.35.71-.11 1.42-.24.75.05 1.46-.08.71-.15 1.43-.28.67-.35 1.39-.48a.91.91 0 011 .93 1.21 1.21 0 01-1 1.11c-.77.13-.74.25-1.51.39s-.76.23-1.53.37-.81-.05-1.58.09-.75.29-1.52.43-1-.39-1.65 0c0 .76-.1 1.75-.22 2.53.9.24.92-.42 1.83-.59s1 .1 1.87-.06a5.17 5.17 0 011.39-.12 1.2 1.2 0 011 .69 2.27 2.27 0 01.2 1.28c0 .6 0 1.21-.09 1.83s.11 1.25 0 1.85-.26 1.23-.39 1.8a6.7 6.7 0 01-.58 1.74 3.69 3.69 0 01-1.36 1.19 4.69 4.69 0 01-1.64.76 8.71 8.71 0 01-2.11 0c-.61 0-.71-.39-.71-.84s.17-1.34.84-1.46c.08 0 .2.19.3.19a6.28 6.28 0 001.55-.2 1.67 1.67 0 001.49-1.5c.12-.49.42-1 .51-1.53s.08-1.07.14-1.61 0-1.08.06-1.6-.19-.75-.72-.66-.65.24-1.33.36-.64.3-1.32.42-.86-.41-1.47-.11c-.13.5-.31 1.12-.47 1.6s-.19 1-.39 1.47-.44.93-.68 1.37-.48.9-.76 1.32-.5.89-.82 1.29-.64.8-1 1.17-.74.7-1.12 1-.84.57-1.25.89a1.55 1.55 0 01-.67.28.8.8 0 01-1-.89 1.22 1.22 0 01.61-1c.39-.32.71-.73 1.07-1.06s.69-.73 1-1.1a13.5 13.5 0 001.07-1.07 14.2 14.2 0 00.86-1.37c.26-.47.34-1 .55-1.52s.5-1 .66-1.47.23-1.05.34-1.57.3-1 .37-1.57 0-.91 0-1.44c-.77-.13-.72.08-1.49.22s-.79.07-1.56.21-.76.24-1.53.38-.81-.06-1.59.08a.84.84 0 01-1-.84 1.48 1.48 0 011-1.38c.86-.15.92.2 1.78 0s.85-.2 1.71-.35.85-.22 1.71-.38 1.1.29 1.74-.31c.48-.47 0-.69.11-1.35a10.39 10.39 0 00.18-1.27zm24.63-.24c-.45.14-.88.44-1.38.6s-1 .17-1.46.33-.95.28-1.43.44-1 .26-1.44.41-.93.36-1.4.52-.89.53-1.36.68a1.07 1.07 0 01-1.4-1.07 1.44 1.44 0 011-1.4c.49-.15 1-.28 1.51-.43s1.05-.13 1.56-.28.93-.53 1.44-.68 1.05-.14 1.55-.29 1-.19 1.54-.34 1-.25 1.53-.39.93-.58 1.43-.72 1-.23 1.53-.37 1-.3 1.51-.44c.79-.2 1.11.41 1.11 1a1.25 1.25 0 01-.8 1.26 7.21 7.21 0 00-1.16.51 8.29 8.29 0 00-1.16.57 13.24 13.24 0 00-1.21 1.05 10 10 0 00-.93 1.31 23 23 0 00-1.47 2.78 7.06 7.06 0 00-.06 1.58 3.32 3.32 0 00.38 1.47 2.61 2.61 0 00.9 1.23 4.14 4.14 0 001.51.37 6.57 6.57 0 001.55.29c.75 0 1 .35 1 .9a1.49 1.49 0 01-1.2 1.58 7.44 7.44 0 01-1.6-.22 6.28 6.28 0 01-1.54-.3 4.84 4.84 0 01-1.33-.81 4.43 4.43 0 01-1-1.11 4.66 4.66 0 01-.67-1.38 5.9 5.9 0 01-.42-1.55 8.17 8.17 0 01.21-1.58 9.38 9.38 0 01.43-1.54 11.15 11.15 0 01.85-1.35 11.35 11.35 0 01.78-1.39 13.76 13.76 0 011.18-1.08s-.06-.16-.08-.16zm3.05 2.84a1.08 1.08 0 01.77-1c.18 0 .37.12.55.25a7.64 7.64 0 011.55 1.51.62.62 0 01.12.49.88.88 0 01-.7.9c-.25 0-.61.13-.79-.11a13.42 13.42 0 00-1.37-1.58.54.54 0 01-.13-.47zm2-2a1 1 0 01.77-1c.2 0 .39.13.59.26a7.6 7.6 0 011.53 1.42.66.66 0 01.16.53.83.83 0 01-.7.86c-.25 0-.63.17-.83-.07-.47-.51-.91-1.13-1.37-1.54a.52.52 0 01-.15-.47zM34.59 203.37c.64-.11 1 .26 1 .84a1.25 1.25 0 01-1 1.25c-.81.14-.82.1-1.63.24l-1.62.28c-.81.14-.77.39-1.58.53s-.84-.07-1.65.07-.79.29-1.6.44-.83 0-1.64.15-.82.12-1.63.27-.82.09-1.63.23-.81.2-1.62.34-.78.38-1.59.52c-.63.11-1-.57-1-1.13a1.34 1.34 0 01.94-1.38c.81-.14.81-.11 1.62-.26s.84 0 1.65-.1.77-.39 1.58-.53.84 0 1.65-.13.83 0 1.64-.19.81-.1 1.62-.24.76-.45 1.57-.6.82-.09 1.64-.23.81-.21 1.63-.32.83.1 1.65-.05zm10.21.73c-.73.19-1.31.47-2 .61s-.76-.49-.76-1 .14-.92.7-1c.28-.05.56-.2.84-.25.22-.34.56-.62.76-1s.38-.82.57-1.17a13.92 13.92 0 00-1.26-1c-.38-.37-.59-.93-1-1.23-.2-.17-.26-.23-.26-.45a1.12 1.12 0 01.83-1.12.74.74 0 01.61.14c.21-.42.42-.85.6-1.3s.22-1 .37-1.39a1.47 1.47 0 011-.92c.5-.09.87.34.87.89a.88.88 0 010 .32c-.21.57-.31 1.24-.59 1.86s-.62 1.16-.94 1.74c.21.19.46.43.64.62.36-.7.85-1.34 1.11-1.94.16-.39.27-.85.59-.91a1 1 0 011.07.88c0 .15-.15.25-.23.4-.18.4-.47.79-.69 1.23s-.32.89-.55 1.31-.55.78-.78 1.18-.4 1-.64 1.4c.53-.13 1.24-.19 1.76-.35-.1-.14-.19-.51-.27-.64s-.38-.17-.38-.29a1.44 1.44 0 011-1.09c.28 0 .51.26.71.53a7.87 7.87 0 01.67 1.16 11.24 11.24 0 01.45 1.26c0 .12.1.15.1.25a1 1 0 01-.78 1 .63.63 0 01-.75-.46l-.15-.41c-.38.12-.86.33-1.25.45-.17.76.28.8.28 1.58s-.25.78-.25 1.56.18.78.18 1.56-.15.79-.15 1.57v1.57c0 .51-.45.74-1 .83s-.91 0-.91-.48c0-.75-.27-.75-.27-1.51s.18-.76.18-1.52-.09-.76-.09-1.52a8.7 8.7 0 010-1.53c.17-.71.42-.75.06-1.42zm-1.06 1.15c.44-.07 1.07.25 1 .81s-.41.87-.49 1.32-.12.92-.22 1.34-.18.95-.31 1.33a1 1 0 01-.85.58c-.44.08-.71 0-.71-.49 0-.1-.21-.26-.17-.39a9.56 9.56 0 00.81-1.75 16.47 16.47 0 00.26-1.85 1 1 0 01.68-.9zm5.85 2.38a1.21 1.21 0 01-.9 1.29c-.38.07-.64-.26-.7-.7s-.2-.9-.3-1.36a13.64 13.64 0 00-.43-1.32c-.14-.53.34-.84.83-.93.3-.05.45-.05.59.31a13.08 13.08 0 01.64 1.3c.12.49.21.98.27 1.41zm7.47-6.53a3 3 0 011.85.08c.45.27.39.94.39 1.72s.06.75.06 1.51.07.76.07 1.52-.15.76-.15 1.52a2.07 2.07 0 01-.53 1.68 3 3 0 01-1.65 1c-.75.13-.8-.14-1.55 0s-.75.17-1.5.3-1.35.24-1.72 0a1.68 1.68 0 01-.64-1.58v-1.43c0-.71-.14-.72-.14-1.44a4 4 0 000-1.39c-.29.25-.5.32-.81.56a1 1 0 01-.48.29c-.55.1-1-.18-1-.67a1.33 1.33 0 01.58-.92c.38-.31.76-.62 1.13-.95s.85-.55 1.19-.89.43-1 .76-1.32.77-.6 1.08-1a2.73 2.73 0 00-1.33.09c-.66.12-.68 0-1.34.15s-.64.24-1.3.35-.59-.26-.59-.73.1-.88.62-1c.68-.11.7 0 1.37-.15s1 .2 1.42-.36.47-1.11-.2-1.61-.79.2-1.71.36c-.52.09-.73-.51-.73-1a.89.89 0 01.72-1c.92-.16 1.33.4 2-.29s0-1 0-1.81a1.06 1.06 0 01.87-1.1c.53-.09 1 .14 1 .74 0 .84-.55 1.08 0 1.74.38.47.68-.06 1.28-.17a.74.74 0 01.94.7 1.14 1.14 0 01-1 1c-.6.11-.77-.17-1.09.34-.45.71-.52.9-.13 1.65.19.36.51.08.88-.1.26-.4.59-.8.83-1.2s.43-.85.65-1.27.2-1 .4-1.39.56-.78.74-1.21a1.33 1.33 0 01.88-.87 1 1 0 011.16.92c0 .14-.22.25-.3.43-.2.46-.14 1-.37 1.5s-.62.82-.86 1.26-.48 1.05-.75 1.49a5.19 5.19 0 001.82-.27c.52-.1.91.13.91.6a1.27 1.27 0 01-.93 1.18c-.8.14-.8.17-1.6.31s-.91-.26-1.68 0c-.32.42-.6 1-.93 1.39s-.66.85-1 1.24a2.11 2.11 0 001.29 0c.57-.12.51-.39 1.12-.5zm.18 2.47c0-.38 0-.38-.51-.29-1.12.2-1.18-.11-2.3.09a.78.78 0 00-.71.83c0 .51-.39.84.09 1 .83.34.91 0 1.79-.16s1 0 1.8-.36c.46-.19-.16-.59-.16-1.11zm-.56 4.53c.52-.1.49-.2.49-.59 0-.57.75-1 .23-1.27-.81-.39-1 .19-1.84.35s-1.07-.19-1.76.39c-.44.36-.16.58-.15 1.16s.41.65.84.58a21 21 0 012.19-.62zm11.24-17.02c.65-.11 1.23 0 1.09.91-.1.53-.12 1-.2 1.54s-.23 1-.3 1.53 0 1.05 0 1.55-.38 1-.41 1.52.12 1 .1 1.55 0 1 0 1.54 0 1 .08 1.58.13 1.07.18 1.58-.13 1.14-.07 1.61a1.19 1.19 0 01-1.05 1.37c-.54.1-1.07-.05-1.15-.73-.07-.47 0-1-.06-1.67s-.13-1.09-.13-1.66-.24-1.13-.24-1.67.24-1.08.24-1.63v-3.23c0-.55.1-1 .18-1.6s.17-1.05.26-1.6.07-1.07.18-1.62.8-.78 1.3-.87zm9.17 11c.47-.08 1-.32 1.52-.47s1-.37 1.49-.56a.92.92 0 011.3.93 1.44 1.44 0 01-.81 1.39 16.77 16.77 0 01-1.82.29c-.6.17-1.15.47-1.72.58a14.55 14.55 0 01-1.79.21 5.55 5.55 0 01-1.8-.15 2.66 2.66 0 01-1.52-1 4.22 4.22 0 01-.3-1.78 1.25 1.25 0 011.07-1.37c.49-.09.93.05 1 .63s.2 1 .59 1.25a2.89 2.89 0 001.4.18 11.44 11.44 0 001.39-.14zm3-10.43a1.22 1.22 0 01-.89 1.28c-.45.14-.9.36-1.38.49s-1 .2-1.43.32-.92.41-1.4.52-1-.07-1.5 0c-.78.15-1.19-.2-1.19-.77a1.43 1.43 0 011.13-1.36c.46-.09.92-.22 1.39-.32s.92-.28 1.38-.4 1 0 1.45-.13.91-.31 1.36-.45c.82-.21 1.09.22 1.09.81zm17.2 9.45v1.39c0 .53-.51.72-1 .81s-1 .09-1-.44c0-.7-.12-.7-.1-1.4 0-1.13.38-1.16.2-2.28-.4.39-1 .68-1.44 1.06s-.77.86-1.23 1.2-1 .62-1.44.94-1 .66-1.43 1-.94.72-1.44 1c-.14.06-.35-.09-.49-.07a.94.94 0 01-1.15-.79c0-.37.48-.64 1-.89s.81-.57 1.25-.82.85-.5 1.28-.76.92-.41 1.33-.7.74-.69 1.12-1 .75-.65 1.11-1a4 4 0 00-1.41.13c-.69.13-.69.18-1.38.3s-.68.27-1.38.39-.71.06-1.41.19a.84.84 0 01-1-.81 1.22 1.22 0 01.94-1.08c.87-.15.9 0 1.77-.11s.81-.44 1.68-.59.91.08 1.78-.07 1.09.25 1.83-.24c.35-.23-.06-.57-.06-1a1.14 1.14 0 011-1c.52-.09 1 .13 1 .67s-.31.54.09.66a2.45 2.45 0 001.73 0c.87-.15.84-.37 1.71-.53s.88-.17 1.76-.32.87-.19 1.75-.34a.89.89 0 011 .84c0 .45-.46.81-1 .9-.72.13-.71.18-1.42.31s-.7.2-1.41.32-.74 0-1.46.11-.8 0-1.46.29a16.64 16.64 0 001.6.6c.49.17.94.59 1.47.72s1.07.2 1.6.29 1.09 0 1.63.07a.88.88 0 01.85.9 1.28 1.28 0 01-1 1.24c-.12 0-.25.15-.39.14-.5-.06-1-.1-1.51-.2s-.91-.54-1.39-.67-1-.26-1.43-.43-1-.24-1.44-.45a11.92 11.92 0 01-1.33-.77c-.4 1.03.09 1.12.12 2.29zm-8.88-5.26a.78.78 0 01-1-.83c0-.32.22-.54.61-.83s.83-.83 1.24-1.21a12.84 12.84 0 001.12-1.31 1.39 1.39 0 01.87-.41c.57-.1.86.22.86.75a1.14 1.14 0 01-.17.85c-.28.32-.63.6-1 .93s-.6.66-1 1-.57.72-.93 1-.42.03-.6.06zm-.36-7.84a1.19 1.19 0 011-1.12c.22 0 .37.09.62.21a12.07 12.07 0 011.71.93c.3.24.53.47.53.76a1.29 1.29 0 01-1.13 1.11.81.81 0 01-.67-.2 15.36 15.36 0 00-1.74-1 .73.73 0 01-.32-.69zm6.95 6.35a2.19 2.19 0 01-1.62-.12c-.39-.25-.38-.72-.38-1.48s-.11-.67-.11-1.34-.11-.68-.11-1.35.12-.68.12-1.35a2 2 0 01.55-1.6 2.64 2.64 0 011.55-.86c.08 0 .14.1.18 0 .12-.41.18-.84.28-1.26a1.59 1.59 0 011.06-1.24 1 1 0 011.07.93c0 .08.17.21.15.31-.08.33-.44.75-.52 1 .19.11.32-.16.54-.2a2.3 2.3 0 011.61.12c.4.25.39.71.39 1.46s.13.68.13 1.35.08.68.08 1.36-.11.68-.11 1.35a2.27 2.27 0 01-.48 1.67 2.91 2.91 0 01-1.59.85c-.69.12-.7.07-1.4.18s-.71.1-1.39.22zm3-6.35c0-.39-.16-.56-.62-.48-1 .18-1 .05-2.06.23a.71.71 0 00-.6.81c0 .51-.38.77.08 1 .73.35.79 0 1.58-.16s.91.12 1.63-.24c.47-.25-.01-.66-.01-1.16zm-.61 4.3c.47-.08.61-.28.61-.67s.48-1 0-1.17c-.73-.33-.87.24-1.66.38s-.93-.13-1.55.37c-.39.32-.11.47-.11 1a.52.52 0 00.67.57c1.05-.19 1.03-.31 2.05-.49zm4.19-3.8a.77.77 0 01-1-.76c0-.28.22-.47.52-.77s.56-.74.86-1.09.51-.77.78-1.14a1.34 1.34 0 01.9-.46.72.72 0 01.94.74 1 1 0 01-.11.75c-.34.45-.74.83-1.08 1.22s-.72.86-1.1 1.21a1.43 1.43 0 01-.7.29zm-.88 1.91a1.27 1.27 0 011-1.19c.21 0 .34.11.56.19a11.86 11.86 0 011.34.5 14.44 14.44 0 011.31.62 1 1 0 01.4.91 1.15 1.15 0 01-1 1.13c-.26.05-.53.17-.81 0s-.75-.55-1.15-.78-.85-.42-1.24-.61a.74.74 0 01-.4-.78zm12.01-7.18c0-.71.74-1 1.31-1.11s1.16 0 1.1.8c0 .54.08 1.11 0 1.7s-.17 1.11-.2 1.68-.17 1.12-.19 1.69 0 1.14 0 1.71v1.69c0 .55-.17 1.15-.17 1.69a7.51 7.51 0 00.2 1.54 1.85 1.85 0 00.83 1.2 1.62 1.62 0 001.37.38 6.16 6.16 0 001.68-.52 7.31 7.31 0 001.55-.87 11 11 0 001.21-1.3c.36-.41.65-.92 1-1.44a1.39 1.39 0 011-.6.82.82 0 011.07.85 1.28 1.28 0 01-.14.83c-.31.45-.66.83-1 1.21a13.32 13.32 0 01-1 1.18 11.89 11.89 0 01-1.08 1.14 9.88 9.88 0 01-1.41.72 9.4 9.4 0 01-1.36.79 10.27 10.27 0 01-1.57.11 6.54 6.54 0 01-1.61.21 2.86 2.86 0 01-1.5-.54 2.89 2.89 0 01-.83-1.33 5.72 5.72 0 01-.5-1.53 12.68 12.68 0 01-.16-1.63c0-.55.1-1.12.11-1.71s0-1.13 0-1.7-.07-1.15 0-1.71.11-1.15.14-1.72 0-1.15 0-1.71.11-1.16.15-1.7zm23.4-5.36c.61-.1 1.28.11 1.28.78a2.08 2.08 0 01-.36.77c-.26.43-.48.93-.78 1.4s-.48 1-.79 1.41-.73.8-1.05 1.23-.57.93-.88 1.35-.81.76-1.13 1.16a1.32 1.32 0 00-.2 1 1 1 0 00.4.81c.36.32.77.63 1.14 1s.59.82.94 1.19.7.71 1 1.08.69.74 1 1.12.73.71 1 1.09.07.62.07.87a1.38 1.38 0 01-1.15 1.36 1.15 1.15 0 01-1.22-.36c-.27-.38-.48-.83-.79-1.23s-.52-.83-.84-1.21-.67-.72-1-1.09-.72-.68-1.05-1-.58-.84-.92-1.16a4 4 0 01-.81-.86 2.54 2.54 0 01-.53-1.13 3.46 3.46 0 01.48-1.21 4.55 4.55 0 01.68-1.06c.32-.39.75-.76 1.08-1.2s.54-.93.85-1.38.53-1 .82-1.4.67-.86.94-1.31.6-.92.86-1.37a1.13 1.13 0 01.96-.65zm13.71 1.97c-.87.15-1.16.57-1.16 1.25 0 .9-.6 1.17 0 1.86.42.52.71-.25 1.37-.37s.69.11 1.35 0 1.18-.21 1.53 0a1.56 1.56 0 01.69 1.4 17.9 17.9 0 01-.13 1.87 15.29 15.29 0 01-.51 1.79 4 4 0 01-.49 1.72 2.68 2.68 0 01-1.65.71 7.2 7.2 0 01-1.14.28.93.93 0 01-.88-1 1.14 1.14 0 011.12-1.14 3.63 3.63 0 00.64 0c.3-.05.4-.32.48-.73a10.64 10.64 0 00.4-1.35c0-.43-.16-.89-.16-1.4s0-.71-.39-.65a7.31 7.31 0 00-2.11.76c0 .51.07.84 0 1.31s-.24 1-.29 1.46 0 1-.14 1.47-.24 1-.37 1.44a13.48 13.48 0 01-.65 1.32c-.17.47-.08 1-.29 1.47a1.67 1.67 0 01-1.26.81.94.94 0 01-1.18-.82c0-.2.24-.38.36-.63a12.66 12.66 0 00.59-1.41c.17-.46.16-1 .29-1.5s.12-1 .2-1.49.24-1 .29-1.48.34-1 .36-1.52-.36-1-.36-1.53v-2.63a3.22 3.22 0 01.58-1.48 2.33 2.33 0 011-1.1 5.6 5.6 0 011.52-.27c.87-.15.81-.49 1.69-.64s.93.15 1.8 0a5.32 5.32 0 001.7-.52c0-.41-.11-.78-.12-1.21s.31-.83.31-1.26a1.13 1.13 0 01.87-1.22c.54-.09 1.29.2 1.29.86 0 .43-.3.84-.3 1.25s.14 1 .15 1.39c.92 0 .91-.33 1.81-.49s1 0 1.86-.12.86-.45 1.77-.61c.54-.1.78.46.78.93a1.1 1.1 0 01-.76 1.18c-.89.15-.86.29-1.75.45s-.93 0-1.82.14a4.65 4.65 0 00-1.74.39c0 .5-.07.92 0 1.41s.4 1 .48 1.45.1 1 .21 1.47.14.82.28 1.29c.27-.43.52-.68.76-1.12s.44-.92.65-1.38.38-.94.57-1.41a1.53 1.53 0 011-1c.54-.09.94.35.94 1 0 .14.08.29 0 .47-.21.5-.24 1.09-.48 1.59s-.6.93-.86 1.41-.65.89-.94 1.35-.57 1-.88 1.43a8.77 8.77 0 001 1.5c.58.73 1.07 1.12 1.46 1s.69-.45.85-1.9c.08-.62.42-1.22.88-1.3a.94.94 0 011 1.13 8.19 8.19 0 01-.33 1.73 3.39 3.39 0 01-.93 1.44 2.49 2.49 0 01-1.43.86 2.81 2.81 0 01-1.67-.09 4.07 4.07 0 01-1.23-1.11 9.13 9.13 0 01-1-1.47c-.31.36-.64.87-1 1.22s-.72.62-1.06.95-.68.67-1 1-.65.73-1 1c-.22.16-.57.08-.77.11a1 1 0 01-1.19-.82c0-.35.48-.6.92-.93s.71-.72 1.09-1 .76-.65 1.12-1 .83-.59 1.17-1 .58-.87.89-1.25c-.19-.53-.46-1-.62-1.58s-.2-1.09-.32-1.64-.25-1-.33-1.49-.28-1-.34-1.49 0-1-.05-1.48c-.83-.11-.79.27-1.61.41s-.84.09-1.67.19-.89-.03-1.71.11zm10.76-5.72c.32.19.46.34.46.63a1.1 1.1 0 01-.92 1.05c-.21 0-.45.16-.65 0-.51-.3-.75-.65-1.25-.89-.3-.15-.49-.23-.49-.5a1.31 1.31 0 011-1.22 1.08 1.08 0 01.49.07 8.19 8.19 0 011.36.86zm23.14 6a1.07 1.07 0 01.47.84c0 .27-.25.44-.51.74s-.67.74-1 1.07-.46.77-.84 1.07a7.24 7.24 0 001.13.41 9.21 9.21 0 001.31.46 9.63 9.63 0 001.36.27.8.8 0 01.81.9c0 .57-.3 1.34-.94 1.45a1 1 0 01-.38 0 13.58 13.58 0 01-1.53-.36 12.11 12.11 0 01-1.48-.46 10.82 10.82 0 01-1.43-.62 16.23 16.23 0 01-2.44-1.91c-.36-.37-.91-.61-1.2-1a9.55 9.55 0 01-.63-1.54c-1.14 0-1.41-.28-2.29.45-.57.48.19.78.19 1.52s-.21.75-.21 1.49-.16.78.07 1.49c.43-.18.86-.29 1.27-.47s.76-.58 1.15-.77c.12-.06.29 0 .39 0 .58-.1.88.37.88.9 0 .37-.2.61-.67.86s-.84.55-1.31.76-1 .32-1.44.52-.85.63-1.32.81-1 .3-1.45.46-1 .21-1.49.36a.86.86 0 01-1.24-.78c0-.47.43-.82 1-1s1.18-.66 1.9-.91a2.8 2.8 0 00.18-1.57c0-.82.15-.82.15-1.64s.41-1.06-.18-1.63-.72.09-1.43.22-.67.33-1.38.46c-.55.09-.82-.52-.82-1s.21-1.17.76-1.27c.71-.13.73 0 1.44-.1s.89.26 1.33-.31.05-.72.05-1.52.17-.8.17-1.6-.08-.8-.08-1.6v-1.6a3.39 3.39 0 01.1-1.43c.2-.41.65-.55 1.15-.79a4.77 4.77 0 011.31-.51c.72-.13.71-.23 1.43-.35s.73-.1 1.45-.23.77.09 1.49 0 .68-.4 1.41-.53.75 0 1.48-.11.71-.28 1.44-.41c.54-.1.87.44.87.94a1.12 1.12 0 01-.85 1.11c-.85.15-.86.08-1.71.22s-.82.31-1.67.46-.89 0-1.74.12-.82.37-1.67.52-.91-.17-1.77 0c-.62.11-.53.49-.53.94 0 .26-.41.31-.16.34a3.49 3.49 0 001.6-.14c.82-.15.81-.24 1.63-.38s.82-.11 1.64-.25.86.06 1.68-.09.77-.44 1.59-.58c.53-.1.81.47.81.88a1.06 1.06 0 01-.76 1.1c-.81.15-.84 0-1.66.11s-.81.16-1.63.3-.79.3-1.61.44-.81.24-1.63.38-1-.37-1.63.17c-.41.35-.62.95-.13 1.19.75.36.87-.5 1.69-.64l1.66-.3 1.65-.3c.83-.14.88.12 1.71 0s.82-.21 1.65-.35c.52-.09.57.29.57.7s0 1-.55 1.13c-.82.14-.87-.15-1.7 0s-.79.36-1.61.51-.82.2-1.65.35-.88-.16-1.71 0-.94 0-1.58.55c-.43.36-.45.63 0 .91.66.38.68.14 1.43 0s.75-.1 1.49-.23.72-.3 1.47-.43.78.06 1.52-.07.7-.41 1.45-.54.77 0 1.52-.12.74-.22 1.49-.35.73-.27 1.48-.4c.56-.1.87.51.87 1a1.2 1.2 0 01-.83 1.21 8.09 8.09 0 00-2.27.1zm-5.19.92a8.8 8.8 0 001.58 1.8c.4-.35.89-.56 1.24-.92a11.65 11.65 0 001-1.19c.06-.07.07 0 .12-.11a10.81 10.81 0 01-2 .31c-.98.07-1.12-.43-1.94.07zm14.2-11.86a1.34 1.34 0 011-1.33 1 1 0 011.3 1c0 .54-.34 1.08-.37 1.67s-.07 1.11-.1 1.69 0 1.13 0 1.7v1.7c0 .56.07 1.15.06 1.7s-.12 1.15-.12 1.69a9.36 9.36 0 000 1.54 1.84 1.84 0 00.81 1.22 1.67 1.67 0 001.39.39 6.63 6.63 0 001.66-.6 6.81 6.81 0 001.57-.83 10.65 10.65 0 001.25-1.26c.36-.4.51-1 .87-1.55a1.82 1.82 0 011.08-.72 1.1 1.1 0 011.26 1 1.58 1.58 0 01-.35.79c-.31.45-.67.82-1 1.21s-.56.92-.91 1.27a12.14 12.14 0 01-1.19 1 11 11 0 01-1.36.78 9.8 9.8 0 01-1.42.61 8.66 8.66 0 01-1.49.41 6.35 6.35 0 01-1.62 0 2.78 2.78 0 01-1.49-.52 2.93 2.93 0 01-1.13-1.18 7.65 7.65 0 01-.19-1.65 11 11 0 01-.14-1.63c0-.55-.15-1.12-.14-1.7s.19-1.13.21-1.7 0-1.15 0-1.72.12-1.14.15-1.7-.1-1.17-.07-1.72.45-1.02.48-1.56zm25.1-4.25v1c.51-.09 1-.47 1.55-.56s1.07 0 1.56-.08 1.06-.08 1.55-.15c.69-.1.92.28.92.84a1.15 1.15 0 01-.93 1.24c-.48.08-1 0-1.55 0s-1 .42-1.48.51-1.14 0-1.66.13c0 .72.15 1.51.19 2.22.64-.16 1.33-.14 1.95-.31s1.21-.61 1.81-.79a1 1 0 011.38.93 1.42 1.42 0 01-1.12 1.29c-.42.13-.8.42-1.25.54s-.88.18-1.32.29-.76.27-1.2.38c0 .44-.08.79-.05 1.24s0 .95.08 1.39a15.45 15.45 0 011.77.27 14.65 14.65 0 011.73.33 17.21 17.21 0 011.66.58 1.17 1.17 0 01.67 1.09 1.57 1.57 0 01-1.21 1.44c-.23 0-.41-.09-.66-.21a16.05 16.05 0 00-1.89-.62 13.92 13.92 0 00-1.87-.66s-.07.15-.07.2a3.6 3.6 0 01-.19 1.59 4 4 0 01-1.06 1.22 5.09 5.09 0 01-1.38.82 7.56 7.56 0 01-1.56.33 7.68 7.68 0 01-1.39.33 3.7 3.7 0 01-1.34-.5 2.24 2.24 0 01-1-.86 2.66 2.66 0 01-.47-1.33 3.3 3.3 0 01.65-1.46 3.55 3.55 0 011-1.14 5.22 5.22 0 011.24-1 8.09 8.09 0 011.55-.45c.55-.1 1.23.07 1.8 0-.07-.73-.15-1.63-.17-2.34l-1.29.23c-.54.1-1.07.27-1.57.35s-1.17.27-1.56.3a1 1 0 01-1-1.08 1.26 1.26 0 011.2-1.22c.41 0 .88-.29 1.43-.36s1 .09 1.49 0c.36-.07.7-.21 1.07-.27 0-.73.06-1.54 0-2.28-.54.11-1.22.2-1.75.31s-1 .52-1.54.63-1.1.21-1.6.32a1 1 0 01-1.13-1 1.28 1.28 0 011.07-1.23c.5-.12 1-.18 1.6-.3s1-.42 1.56-.53 1-.18 1.57-.29c0-.34.08-.6.08-.95v-1a1.18 1.18 0 011.09-1.1c.54-.09 1 .08 1 .69a10.07 10.07 0 00.04 1.04zm-1.46 12.59c0-.16-.07-.43-.07-.57a9.63 9.63 0 00-1.82.43 5.28 5.28 0 00-1.33.23 1.29 1.29 0 00-.83 1.06c0 .55.64 1 2 .79a3 3 0 001.34-.67 1.73 1.73 0 00.71-1.27zm14.12-15.07a1.59 1.59 0 011.31-1.31.88.88 0 011.11 1c0 .54 0 1.11-.07 1.69s0 1.12 0 1.7-.26 1.11-.29 1.68 0 1.14 0 1.71-.1 1.14-.11 1.69.08 1.15.08 1.7a8.5 8.5 0 00.1 1.54 1.94 1.94 0 00.83 1.24 1.68 1.68 0 001.41.39 6.66 6.66 0 001.7-.52 7.76 7.76 0 001.34-1.16 9.38 9.38 0 001.36-1.1 14.72 14.72 0 001.15-1.34 1.36 1.36 0 01.91-.65c.63-.11 1.2.2 1.2.84 0 .24-.23.41-.43.72s-.44 1-.76 1.37a13.73 13.73 0 01-1.19 1 10.51 10.51 0 01-1.08 1.12 9.48 9.48 0 01-1.37.72 10.15 10.15 0 01-1.31.86 9.29 9.29 0 01-1.52.42 5.81 5.81 0 01-1.64-.08 3 3 0 01-1.58-.41 3.12 3.12 0 01-.94-1.35 6.12 6.12 0 01-.5-1.58 16.27 16.27 0 010-1.66c0-.55.07-1.12.08-1.7s0-1.13 0-1.71-.07-1.14 0-1.71 0-1.15 0-1.71.14-1.15.17-1.71 0-1.14.04-1.69zm24.63-.37v1.72c.54-.13 1.08-.42 1.61-.59s1.1-.32 1.59-.52c.67-.24 1 .31 1 .84a1 1 0 01-.68 1c-.53.21-1.11.4-1.72.59s-1.23.37-1.82.51c0 .65.13 1.35.18 2s.19 1.24.25 1.87c.49.07.88.3 1.36.41a12.68 12.68 0 011.41.38 10.08 10.08 0 011.3.69c.36.18.5.35.5.68a1.22 1.22 0 01-.9 1.21 1 1 0 01-.69-.18 12.51 12.51 0 00-1.43-.67 10.9 10.9 0 00-1.46-.32 3.48 3.48 0 01-.86 1.54 4 4 0 01-1.21 1.4 5.87 5.87 0 01-1.8.61 5.4 5.4 0 01-1.65 0 2.21 2.21 0 01-1.39-.78 2 2 0 01-.54-1.45 2.84 2.84 0 01.52-1.7 4.28 4.28 0 011.47-1 5 5 0 011.64-.62 11.66 11.66 0 011.78-.16c-.06-.56-.16-1.24-.2-1.86s-.07-1.14-.1-1.76-.22-1.14-.23-1.76.15-1.16.15-1.78v-1a1.13 1.13 0 01.87-1.13.82.82 0 011 .78c.06.5.05.5.05 1.05zm-1.46 9.23a7.49 7.49 0 00-1.84.07c-1.07.18-1.45.7-1.45 1.27s.32.71 1.38.52a2.58 2.58 0 001.38-.48 1.89 1.89 0 00.53-1.38zm13.27-8.24a1 1 0 01-1.14-1 1.46 1.46 0 01.72-1.22c.44-.27 1-.41 1.45-.65s.88-.64 1.35-.83 1-.39 1.5-.54a11 11 0 011.54-.35 7.88 7.88 0 011.75-.22 3.3 3.3 0 011.54.77c.48.3 1 .57 1.22 1.15a5 5 0 01.3 1.74 12.51 12.51 0 01-.34 1.51 7.85 7.85 0 01-.75 2.94 12.07 12.07 0 01-.51 1.46 7.75 7.75 0 01-2 2.34c-.34.37-.7.72-1.09 1.07a1.46 1.46 0 01-.72.37.77.77 0 01-1-.82 1.36 1.36 0 01.47-1.12 12.3 12.3 0 001.07-1.28 10.91 10.91 0 001.15-1.23 9 9 0 00.69-1.53 9.77 9.77 0 00.57-1.59 10.57 10.57 0 000-1.69 1.63 1.63 0 00-.69-1.51 2.45 2.45 0 00-1.68-.17 10.54 10.54 0 00-1.75.47c-.52.2-1 .63-1.57.91a18 18 0 00-1.72.63c-.11.08-.2.32-.36.39zm8.38-8.74a1 1 0 01.72 1 1.51 1.51 0 01-1 1.47c-.12 0-.26-.13-.4-.15-.44-.08-1 0-1.48 0s-1-.13-1.47-.17-1-.11-1.47-.12a1 1 0 01-1-1 1.41 1.41 0 011.46-1.26 14.33 14.33 0 011.57-.25c.52 0 1.06.06 1.57.13s1.04.24 1.5.35z"/><path d="M30.85 108.54c-.26.46-.5 1-.77 1.43s-.78.77-1.06 1.19a3.67 3.67 0 01-.81 1c-.4.3-.72.79-1.11.86a2.53 2.53 0 01-1.26-.21c-.39-.14-.59-.55-.82-.87s-.65-.64-.65-1.07.55-1 .95-1.61c.24-.37.49-.76.73-1.15s.35-.84.58-1.24.5-.75.71-1.16.31-.86.51-1.27.45-.78.65-1.19.1-1 .28-1.37.51-.76.69-1.18.17-.91.34-1.33.66-.71.82-1.14.07-.94.22-1.37.35-.84.5-1.27.54-.78.68-1.21.18-.91.31-1.34.2-.89.32-1.32.12-.91.23-1.35a3.18 3.18 0 01.77-1.58 3.28 3.28 0 011.66-.55 3 3 0 011.28-.1 2 2 0 011 .78 1.87 1.87 0 01.33 1.17c0 .23-.16.43-.21.71-.11.45-.29.87-.42 1.33s-.24.9-.38 1.35-.24.9-.38 1.35 0 1-.19 1.42-.49.81-.65 1.26-.08 1-.25 1.41-.74.71-.92 1.15 0 1-.21 1.43-.46.8-.65 1.23a2.4 2.4 0 011.46.16 1.68 1.68 0 01.71 1.37c0 .68-.39.68-.39 1.36v1.37c0 .68.35.68.35 1.36s-.29.68-.29 1.36v4.08c0 .68.21.68.21 1.37s.1.68.1 1.36v1.36c0 .68-.32.69-.32 1.37s-.1.68-.1 1.37.19.68.19 1.36-.05.68-.05 1.36.15.69.15 1.37-.14.69-.14 1.37-.08.69-.08 1.38.19.69.19 1.37a2 2 0 01-.34 1.2c-.23.32-.71.39-1.07.59s-.65.64-1 .7a2.81 2.81 0 01-1.6-.47c-.5-.22-.94-.5-.94-1.15s-.15-.71-.15-1.41.19-.7.19-1.41.11-.7.11-1.4.06-.7.06-1.4v-1.41c0-.7-.18-.71-.18-1.41s.1-.71.1-1.41v-1.41c0-.7-.13-.71-.13-1.41v-1.41c0-.7.09-.7.09-1.41s.13-.7.13-1.41-.43-.71-.43-1.42a8.49 8.49 0 01.18-1.42c.15-.72.32-.74.17-1.42zM45 113.91a12.51 12.51 0 01-1.35.33 6.79 6.79 0 01-1.36-.3 3.76 3.76 0 01-1.28-.31c-.42-.21-1-.29-1.25-.68a4.09 4.09 0 01-.43-1.37 7.72 7.72 0 01.08-1.39c0-.72-.33-.72-.33-1.45s.4-.74.4-1.47v-1.47c0-.73-.11-.74-.11-1.47s.08-.74.08-1.48a7.21 7.21 0 010-1.48 4.56 4.56 0 01.58-1.35c.25-.44.33-1 .71-1.36a6.16 6.16 0 011.35-.72 7.8 7.8 0 011.34-.73c.46-.14 1 .09 1.55 0 .8-.14.75-.4 1.54-.54s.8-.09 1.6-.23 1.2.52 1.75-.07 0-.85 0-1.55-.06-.7-.06-1.39-.11-.71-.11-1.41-.18-.7-.18-1.41.23-.7.23-1.41-.14-.7-.14-1.41a2.2 2.2 0 01.51-1.2 3.06 3.06 0 011-.8 3.47 3.47 0 011.2-.3 2.25 2.25 0 011.53.23 1.13 1.13 0 01.71 1.19v1.4c0 .7.28.7.28 1.4s-.19.7-.19 1.4.27.71.27 1.41-.43.71-.43 1.41-.23.86.3 1.32.59-.06 1.27-.18.65-.25 1.33-.37l1.36-.24c.68-.12.75.27 1.43.15a10.35 10.35 0 011.34-.22c.5 0 1-.37 1.38-.32s.86.47 1.24.67a2.47 2.47 0 011 .85 3.37 3.37 0 01.46 1.24 6 6 0 01.13 1.34c0 .73.21.73.21 1.46s.11.73.11 1.46v1.47c0 .73-.32.74-.32 1.48s-.1.73-.1 1.47a7.62 7.62 0 010 1.49 5 5 0 01-.56 1.38 4.89 4.89 0 01-.82 1.26 6.25 6.25 0 01-1.33.73 9.7 9.7 0 01-1.41.47 11.73 11.73 0 01-1.42.51c-.68.12-.66.2-1.34.32s-.72-.14-1.4 0-.62.44-1.3.56-1.08-.59-1.52 0 .16.81.16 1.53.14.72.14 1.44-.19.72-.19 1.44-.11.71-.11 1.43-.06.72-.06 1.43v1.44c0 .72.19.72.19 1.44s-.1.73-.1 1.45v1.45a2 2 0 01-.22 1.19 2.91 2.91 0 01-.91.87 3.67 3.67 0 01-1.2.35 2.43 2.43 0 01-1.59-.3c-.49-.26-1.14-.54-1.14-1.24s.19-.71.19-1.43v-2.87c0-.71.25-.72.25-1.44s-.24-.71-.24-1.43v-1.44c0-.72.28-.72.28-1.44s-.3-.72-.3-1.45.72-1.09.14-1.52-.84.26-1.63.4-.82-.07-1.62.05-.77.19-1.57.33zm4.82-5c.45-.52-.15-.73-.15-1.42s.28-.7.28-1.39-.08-.69-.08-1.39-.33-.69-.33-1.39.12-.7.12-1.4.72-1 .17-1.47-.73.42-1.44.55-.78-.27-1.5-.14l-1.42.23a1.83 1.83 0 00-1 .59 1.65 1.65 0 00-.4 1.11c0 .72.13.72.13 1.44s-.08.72-.08 1.45.31.72.31 1.45-.17.72-.17 1.45c0 1 .3 1 1.25.84.71-.13.77.23 1.48.1s.68-.54 1.4-.51.96.43 1.44-.12zm4.89-.87c.45.43.64-.25 1.26-.36s.66.16 1.28 0 .6-.18 1.22-.29.56-.43 1.18-.54.77-.08 1-.3a1.41 1.41 0 00.47-1c0-.73-.32-.73-.32-1.45s.4-.72.4-1.44v-1.45c0-.72-.11-.73-.11-1.45 0-.92-.38-1.4-1.41-1.21-.62.1-.59.23-1.21.33s-.63 0-1.25.15-.56.41-1.18.52-.87-.45-1.25 0 .19.68.19 1.38-.36.69-.36 1.38.27.69.27 1.39-.06.69-.06 1.39a4 4 0 01-.27 1.35c-.18.84-.35 1.1.16 1.56zm29.41-10.91c-.47.54 0 .69 0 1.4v1.42c0 .71.18.71.18 1.43v4.26c0 .71-.39.72-.39 1.43s.16.71.16 1.43-.15.71-.15 1.42.17.72.17 1.43.12.72.12 1.43.12.71.12 1.42-.42.72-.42 1.43.34.72.34 1.44.1.72.1 1.44-.12.71-.12 1.43a2.24 2.24 0 01-.34 1.24 3 3 0 01-1 .84 4 4 0 01-1.21.38 3.2 3.2 0 01-1.75-.05 1.63 1.63 0 01-.73-1.54c0-.71-.2-.71-.2-1.41V118c0-.7.15-.7.15-1.41s-.05-.7-.05-1.4-.07-.7-.07-1.4.07-.7.07-1.4-.1-.71-.1-1.39.39-.7.39-1.4-.31-.71-.31-1.41.1-.7.1-1.4-.19-.7-.19-1.4.14-.7.14-1.4-.11-.7-.11-1.4.33-.71.33-1.41-.33-.7-.33-1.4.25-.71.25-1.41-.14-.7-.14-1.41.2-.7.2-1.4-.1-.71-.1-1.41-.07-.7-.07-1.4v-1.41c0-.7.06-.71.06-1.42s.22-.7.22-1.41-.24-.71-.24-1.42a9.77 9.77 0 01.1-1.36 5.45 5.45 0 01.5-1.24 4 4 0 01.49-1.25 4.72 4.72 0 011-.86 8.15 8.15 0 011.27-.44 8.27 8.27 0 011.23-.53c.41-.11.79-.52 1.27-.61l1.21-.21c.6-.1.63.06 1.24 0s.62 0 1.23-.11.6-.16 1.21-.27 1-.23 1.42-.27a9.65 9.65 0 011.45 0 4.5 4.5 0 011.44.22 2.44 2.44 0 011 1.05 3.73 3.73 0 01.68 1.3A10.28 10.28 0 0196 84c0 .63.11.63.11 1.25v1.26c0 .63-.4.63-.4 1.26s.16.63.16 1.26v1.26a9.49 9.49 0 01.07 1.51 5.38 5.38 0 01-.69 1.32 3.45 3.45 0 01-.82 1.18c-.41.36-.7.93-1.18 1.15a8.91 8.91 0 01-1.59.43c-.53.14-1.11 0-1.62.13-.73.14-.68.46-1.41.59s-.8-.27-1.54-.14a5.43 5.43 0 01-1.44.24c-.86-.06-1.04-.13-1.53.43zM91 84.89c0-.49-.07-.73-.37-.85a2 2 0 00-1 0c-.68.12-.65.3-1.32.42s-.69.09-1.37.21-.69.07-1.37.19a2 2 0 00-1 .39c-.28.22-.7.39-.7.88s-.33.92.18 1.31.75 0 1.44-.08.67-.3 1.36-.42.68-.24 1.38-.36.67-.25 1.37-.37 1 .53 1.55.14-.15-.82-.15-1.46zm-1.4 7.46a2.49 2.49 0 001.05-.35 1.11 1.11 0 00.35-1c0-.66.43-.75-.09-1.16s-.54.13-1.23.26-.7.07-1.4.19-.68.18-1.38.3-.76-.26-1.46-.14-.91-.09-1.39.42-.17.65-.17 1.26-.32.9.18 1.26.69-.24 1.38-.36.66-.24 1.35-.37.78.32 1.47.18.65-.37 1.34-.49zm4.77 22.22a10.89 10.89 0 01-1.28.16 6 6 0 01-1.3-.06 3.84 3.84 0 01-1.32-.29 3 3 0 01-.9-1 4.19 4.19 0 01-.35-1.28 7.37 7.37 0 01-.15-1.31c0-.72.39-.72.39-1.43s-.17-.71-.17-1.43.16-.71.16-1.43-.17-.72-.17-1.44-.13-.71-.13-1.43a10.08 10.08 0 010-1.45c.09-.49.62-.82.81-1.22s.18-1 .52-1.33a4.92 4.92 0 011.11-1A8.65 8.65 0 0193 98.2a11.38 11.38 0 011.38-.39l1.35-.23c.69-.12.69-.07 1.38-.19s.66-.23 1.34-.35.73.11 1.41 0 .65-.33 1.34-.45a11.06 11.06 0 011.3-.15 5.63 5.63 0 011.31.2A3.41 3.41 0 01105 97a2.7 2.7 0 011 1 4.51 4.51 0 01.34 1.28 8.2 8.2 0 01.2 1.31c0 .71-.39.71-.39 1.42s.31.72.31 1.43-.1.72-.1 1.44.19.71.19 1.43-.13.72-.14 1.44a11.12 11.12 0 010 1.43c-.09.51-.54.86-.72 1.26s-.2 1-.52 1.35a5.36 5.36 0 01-1.29.64 7 7 0 01-1.25.66c-.42.13-.92 0-1.41.14-.68.12-.66.21-1.34.33s-.67.19-1.35.31l-1.37.25c-.68.12-.69 0-1.38.18s-.72.15-1.41.27zm7.41-13.07c0-.78-.18-.92-1.16-.74-.71.12-.71.1-1.42.23s-.67.3-1.38.42-.71.1-1.42.22-.72.08-1.43.21c-1 .17-1 .31-1 1.08s-.89 1.18-.33 1.74.83-.22 1.5-.34.7 0 1.36-.08.65-.29 1.32-.4.65-.24 1.33-.36.65-.24 1.33-.36 1 .56 1.52.14-.22-.96-.22-1.76zm-1.18 8.06c1-.18 1.17-.4 1.17-1.18s.6-1 0-1.62-.61.31-1.28.42-.68.09-1.35.21-.68.07-1.35.19-.67.17-1.34.29-.75-.27-1.42-.15-1-.14-1.36.42-.16.85-.16 1.67.65 1 1.42.81.68-.24 1.38-.36.69-.25 1.4-.38.79.31 1.49.17.69-.37 1.4-.49zm5.13-16.23c-.52.09-1 .16-1.43.2a7.91 7.91 0 01-1.45 0 5.09 5.09 0 01-1.48-.13 2.74 2.74 0 01-1.15-1 4.09 4.09 0 01-.45-1.4 8.86 8.86 0 01-.15-1.45c0-.63.39-.63.39-1.25s-.17-.63-.17-1.26.16-.63.16-1.26-.17-.63-.17-1.26-.12-.63-.12-1.27a10.6 10.6 0 010-1.36c.06-.48.58-.8.73-1.19s.11-1 .41-1.31a4.83 4.83 0 011-1 8.18 8.18 0 011.28-.48 11.15 11.15 0 011.28-.46c.4-.1.85-.19 1.33-.27.65-.12.66-.07 1.32-.19s.63-.22 1.29-.34.7.12 1.36 0 .62-.32 1.27-.43a12.51 12.51 0 011.48-.19 7.37 7.37 0 011.48.14 4.24 4.24 0 011.44.33 2.8 2.8 0 011.14 1 4.21 4.21 0 01.38 1.5 9 9 0 01.21 1.47c0 .7-.4.7-.4 1.39s.31.7.31 1.39-.09.7-.09 1.39.19.7.19 1.4-.14.69-.14 1.39.11.69.11 1.39-.33.7-.33 1.39.33.7.33 1.39-.25.69-.25 1.39.14.69.14 1.39-.2.69-.2 1.39.1.7.1 1.39.07.7.07 1.4v1.39c0 .7-.07.7-.07 1.4s-.22.69-.22 1.39.24.7.24 1.39v1.4c0 .7-.18.7-.18 1.4s.2.7.2 1.4v1.41a10.91 10.91 0 01-.26 1.4 8.46 8.46 0 01-.15 1.4c-.15.48 0 1.06-.28 1.45a5.53 5.53 0 01-.92 1.17 5.86 5.86 0 01-1.28.71 8.34 8.34 0 01-1.36.46 12.35 12.35 0 01-1.37.38c-.57.1-1.11.25-1.65.3s-1.12 0-1.67 0a2.07 2.07 0 01-1.58-.52 2.35 2.35 0 01-.44-1.6 2.23 2.23 0 011.28-2.58 3.16 3.16 0 011.44-.54 14.72 14.72 0 001.91-.12c.53-.09 1.09.08 1.32-.19a2.33 2.33 0 00.2-1.33v-1.37c0-.68-.17-.69-.17-1.38s.28-.68.28-1.37-.07-.69-.07-1.38-.34-.69-.34-1.37.12-.69.12-1.38.21-.69.21-1.38-.32-.69-.32-1.38.4-.68.4-1.37v-1.38c0-.69-.12-.69-.12-1.39s.09-.69.09-1.38.37-.95-.14-1.42-.67 0-1.3.14-.57.41-1.2.52-.66-.06-1.29 0-.59.29-1.22.41-.68-.03-1.31.08zM112 81.19c0-.5-.08-.74-.39-.85a2.21 2.21 0 00-1 0c-.74.13-.71.31-1.45.44s-.75.1-1.49.23-.75.08-1.49.22a2 2 0 00-1 .38c-.28.22-.69.39-.69.88 0 .64-.34 1 .18 1.31s.8 0 1.53-.09.7-.3 1.44-.43.71-.25 1.45-.38.72-.25 1.46-.38 1 .52 1.62.12-.17-.81-.17-1.45zm0 4.81c-.62-.41-.7.15-1.43.27l-1.48.25c-.73.13-.7.3-1.44.43s-.74.1-1.48.23-.9-.37-1.42.18.09.57.09 1.23-.16 1 .13 1.1.63-.08 1.13-.17c.74-.13.77 0 1.51-.11s.71-.3 1.45-.43.72-.25 1.46-.38.82.21 1.35-.32.21-.43.35-1 .28-.92-.22-1.28zm32.06 0c.4-.22.7-.7 1.13-.89s1 0 1.41-.17a11 11 0 011.28-.56c.46-.08.9-.19 1.31-.22a7.07 7.07 0 011.33.09 4.29 4.29 0 011.24.46 3.56 3.56 0 011 .82c.29.29.71.49 1 .9a12.7 12.7 0 01.43 1.42c.4-.24.79-.82 1.2-1.06s.9-.32 1.31-.55.76-.57 1.18-.81.9-.31 1.32-.54.71-.67 1.13-.89 1-.15 1.41-.37.77-.56 1.19-.78.81-.51 1.23-.72.83-.48 1.26-.69a3.84 3.84 0 01.93-.3 2.43 2.43 0 011.28.09 2 2 0 01.84.93 2.4 2.4 0 01.27 1.17 2.73 2.73 0 01-.58 1.55 3.11 3.11 0 01-1.33 1.12c-.44.21-.91.35-1.35.57l-1.31.64c-.44.22-.83.52-1.27.75s-1 .3-1.38.52-.8.6-1.23.83-.78.6-1.21.84-.94.32-1.37.56-.87.45-1.3.7-.95.46-1.37.7c.06.47.37 1 .41 1.55s-.14 1-.11 1.5.14 1 .16 1.5 0 1 0 1.51a2.72 2.72 0 01-.11 1.41c-.23.41-.75.6-1.13.86a3.64 3.64 0 01-1.22.69 2.27 2.27 0 01-1.57-.53 1.59 1.59 0 01-.95-1.28c0-.52.16-1 .14-1.47s-.19-1-.22-1.46-.06-.87-.09-1.32c-.4.27-.6.54-.95.8s-.87.4-1.2.68-.79.53-1.09.82-.44.89-.71 1.2-.77.6-1 1a5.55 5.55 0 00-.51 1.26 3.91 3.91 0 00-.15 1.32c0 .49-.12 1 .16 1.35s.77.32 1.29.45a6.55 6.55 0 001.3 0 9.75 9.75 0 001.3 0h1.31c.47 0 .89.11 1.35 0s.91-.56 1.4-.66 1 0 1.51-.15 1-.08 1.5-.22.93-.38 1.41-.52.94-.35 1.42-.5.94-.35 1.42-.51a2.61 2.61 0 011.41-.12 1.89 1.89 0 011.15.79 2.39 2.39 0 01.37 1.34 2.62 2.62 0 01-.43 1.17 2.76 2.76 0 01-.77 1 3.64 3.64 0 01-1.09.58c-.42.15-.82.38-1.26.52s-.81.41-1.25.54-.84.37-1.28.49-1-.12-1.4 0-.88.23-1.32.32-.89.22-1.32.31-.91.08-1.35.16-.88.5-1.33.56-.95.07-1.4.11-1-.07-1.4-.06-1 .22-1.41.19a13.66 13.66 0 01-1.4-.18 10 10 0 01-1.38-.32c-.47-.15-.77-.62-1.15-.84a5.18 5.18 0 01-1.17-.7 4.62 4.62 0 01-.94-1 5.45 5.45 0 01-.37-1.36 7.4 7.4 0 01.07-1.39 9.59 9.59 0 010-1.42 11 11 0 01.42-1.35 11.72 11.72 0 01.55-1.3 10.52 10.52 0 01.59-1.3 14.1 14.1 0 01.76-1.22c.28-.35.65-.66 1-1s.83-.48 1.19-.83.43-.91.8-1.23.76-.56 1.15-.87.76-.55 1.15-.84.73-.6 1.13-.89.94-.42 1.35-.7a3.45 3.45 0 00-.66-1.26c-.32-.31-.83-.2-1.3-.23a4.54 4.54 0 00-1.29 0 5.28 5.28 0 00-1.36.37c-.38.16-.78.42-1.24.67s-.8.42-1.22.7-.77.5-1.17.79-.8.48-1.18.79-.62.7-1 1-.66.65-1 1-.63.68-1 1a3.08 3.08 0 01-1.67.77 1.92 1.92 0 01-1.12-.16c-.38-.15-.89-.2-1.11-.54a2.29 2.29 0 01-.29-1.23 2.8 2.8 0 01.4-1.19 4.55 4.55 0 01.6-1.12c.33-.35.79-.56 1.11-.91s.52-.79.83-1.16.62-.7.91-1.07.53-.78.82-1.16.59-.73.86-1.12.68-.67.95-1.07.52-.78.78-1.18.35-.9.6-1.3.78-.81 1-1.22c-.41.1-1 .27-1.37.36s-.84.06-1.24.15-.75.46-1.15.54l-1.21.27a2.67 2.67 0 01-1.28-.08 1.86 1.86 0 01-.92-.83 2.26 2.26 0 01-.31-1.18 2.89 2.89 0 01.22-1.35c.21-.37.72-.52 1.11-.78a2.66 2.66 0 011.18-.46l1.45-.27c.47-.09 1-.18 1.46-.29s.88-.52 1.37-.64 1-.2 1.45-.32 1-.16 1.43-.28c.18-.47.27-.95.44-1.41l.51-1.4c.17-.48.4-.92.56-1.38s.26-1 .4-1.44a3 3 0 011-1.29 2.87 2.87 0 011.42-.69 2.28 2.28 0 011.6.31 1.35 1.35 0 01.71 1.32c0 .23.19.47.1.71-.14.44-.36.84-.5 1.27s-.24.87-.39 1.29-.21.74-.38 1.16c.44-.12.72-.3 1.16-.43s.89-.2 1.32-.34.9-.19 1.32-.33l1.3-.44 1.28-.44a3.24 3.24 0 011.3-.32 1.9 1.9 0 011.17.72 2.35 2.35 0 01.35 1.3 2.8 2.8 0 01-.23 1.19c-.16.34-.65.45-1 .72a2.86 2.86 0 01-.91.68c-.44.15-.93.18-1.39.34s-.84.44-1.3.59-.86.4-1.32.55-.87.39-1.33.53-1-.07-1.47.06-.83.56-1.29.69-.83.31-1.28.43c-.21.39-.47.66-.68 1s-.38.8-.59 1.17l-.67 1.13c-.23.38-.5.74-.72 1.1s-.37.75-.6 1.11c-.01-.02-.11-.02-.05-.02zm48.6-4.48c.54-.33.91-.59 1.41-.9.31-.19.64-.08.91-.13.58-.1 1.16-.16 1.51.2a2.15 2.15 0 01.37 1.52 2.19 2.19 0 01-.35 1.11 2.62 2.62 0 01-.69 1c-.35.23-.68.51-1 .75s-.8.34-1.18.57-.53.54-.9.77a4 4 0 00-.15 1.38c0 .71-.12.71-.12 1.41s-.07.71-.07 1.42.11.7.11 1.41-.11.71-.11 1.42.24.71.24 1.42-.15.71-.15 1.43-.14.71-.14 1.42a10.27 10.27 0 01.16 1.38 5.56 5.56 0 01-.48 1.28 4.07 4.07 0 01-.88 1 4.31 4.31 0 01-.94 1 6.07 6.07 0 01-1.2.69c-.41.13-.92 0-1.4.08s-.86 0-1.28.08-.88.21-1.26.21a1.58 1.58 0 01-1.31-.53 1.84 1.84 0 01-.32-1.34 2.77 2.77 0 01.15-1.31 2.83 2.83 0 012.15-1.57 6.31 6.31 0 001.28.16c.63-.11.9-.47.9-1.2V96.2c0-.71-.16-.71-.16-1.43v-1.45c0-.73.25-.72.25-1.44v-1.45c0-.72.2-.79 0-1.47-.47.22-.91.59-1.36.81s-1 .16-1.5.35c-.23.09-.39.29-.62.33a1.66 1.66 0 01-1.54-.45 2.34 2.34 0 01-.85-1.54c0-.49.48-.93.81-1.4a2.78 2.78 0 011.08-1.13c.43-.19.91-.3 1.35-.51s.8-.54 1.24-.76.85-.35 1.28-.57a3.91 3.91 0 00.22-1.44c0-.72-.12-.72-.12-1.44s.18-.72.18-1.45v-2.91c0-.73.42-1.11-.18-1.53s-.91 0-1.74.17-.8.35-1.63.5a1.43 1.43 0 01-1.4-.43 2.38 2.38 0 01-.54-1.45 3.08 3.08 0 01.66-1.52 2 2 0 011.28-1c.83-.15.83-.17 1.66-.32s1.17.43 1.74-.19.09-.83.09-1.59v-1.53c0-.77-.18-.77-.18-1.53s-.14-.77-.14-1.54.37-.77.37-1.54c0-.43-.15-.88.06-1.21a3 3 0 011-.71 3.64 3.64 0 011.13-.36c.58-.1 1.24-.34 1.68-.09s.5.87.5 1.54.34.76.34 1.53-.41.76-.41 1.53v1.53c0 .77.23.77.23 1.54s-.69 1.12 0 1.51c.86.52 1 0 2-.14.61-.11 1-.06 1.29.29a2.08 2.08 0 01.6 1.34 3 3 0 01-.65 1.53c-.31.46-.63 1.08-1.23 1.19-1 .17-1.39-.67-2.14 0-.52.46.19.84.19 1.54s.07.7.07 1.4-.06.7-.06 1.41a11 11 0 01-.13 1.4 1.77 1.77 0 00.02 1.4zm19.1 11.29c0 .76-.09.76-.09 1.53s-.22.77-.22 1.54.29.76.29 1.53c0 .42-.35.72-.56 1a2.44 2.44 0 01-.85.7 3.17 3.17 0 01-1 .57 2.61 2.61 0 01-1.58-.13 1.44 1.44 0 01-.66-1.37c0-.77-.22-.77-.22-1.53s.15-.77.15-1.54.11-.77.12-1.53.09-.69.1-1.37-.09-.69-.07-1.38.12-.68.14-1.37a3.68 3.68 0 00-.2-1.36c-.28.39-.57.72-.87 1.11s-.71.68-1 1.07-.42.92-.74 1.29-.71.68-1 1-.78.61-1.12 1-.56.82-.91 1.16-.62.78-1 1.12-.9.46-1.27.78-.8.57-1.18.88a3.36 3.36 0 01-1.45.89 1.62 1.62 0 01-1.46-.42 1.76 1.76 0 01-.44-1.41 2.13 2.13 0 01.17-1.17 2.91 2.91 0 01.8-.94c.35-.26.63-.62 1-.9s.84-.37 1.18-.65.63-.63 1-.93l1-.91c.32-.31.52-.73.83-1s.6-.65.9-1 .79-.49 1.08-.82.55-.7.83-1 .52-.72.8-1.07.48-.6.74-1a4 4 0 00-1.46-.06c-.72.13-.7.26-1.42.39l-1.46.25c-.72.13-.68.37-1.4.5-.57.1-.91-.39-1.2-.73a2 2 0 01-.59-1.22 2.8 2.8 0 01.51-1.47 2 2 0 011.22-1c.66-.11.67-.06 1.33-.18s.7.1 1.36 0 .64-.22 1.3-.34.69.06 1.36-.06.66-.15 1.32-.27 1.08.25 1.48-.29-.09-.92-.09-1.71.11-.78.11-1.57a1.83 1.83 0 01.14-1.1 2.7 2.7 0 01.82-.83 3.71 3.71 0 011.1-.49 2.48 2.48 0 011.54.38 1.31 1.31 0 01.79 1.23v1.58c0 .79-.66 1.09-.1 1.64s.78 0 1.47-.15.67-.15 1.36-.27.65-.3 1.33-.42.66-.26 1.35-.38.75.25 1.44.13.64-.42 1.33-.54.72 0 1.41-.08a1.17 1.17 0 011.22.41c.29.34.74.75.74 1.28s-.49 1-.79 1.43-.58 1-1.15 1.12-.7-.29-1.34-.18-.63.14-1.26.25-.6.33-1.23.45-.64.09-1.28.2-.67-.09-1.31 0a3 3 0 00-1.28.35c.32.3.74.59 1.09.88s.57.7.93 1 .91.23 1.29.47.55.81.94 1 .9.2 1.3.4.82.33 1.22.52.79.41 1.2.58.78.44 1.2.59a1.71 1.71 0 01.86.76c.25.34.58.64.58 1s-.39.74-.6 1.14-.17 1-.51 1.25a2.94 2.94 0 01-1.3.37 2.35 2.35 0 01-1.34 0c-.42-.16-.77-.51-1.19-.71s-.95-.15-1.36-.37-.61-.77-1-1-.86-.35-1.24-.61-.81-.45-1.17-.73-.77-.52-1.11-.82-.7-.61-1-.93-.34-.72-.65-1a3.23 3.23 0 00-.1 1.35v1.41a13.3 13.3 0 00-.06 1.41 11.58 11.58 0 01.11 1.42zm5.7-35.1a10.65 10.65 0 011.53-.09 4.76 4.76 0 011.48.32c.54.13 1.11.14 1.42.5s.3.9.43 1.46a7.44 7.44 0 01.09 1.48c0 .6.19.6.19 1.21s.05.6.05 1.21a2 2 0 01-.85 1.47 3.35 3.35 0 01-1.5.92 2.68 2.68 0 01-1.57-.31 1.26 1.26 0 01-.65-1.28c0-.82.08-.82.08-1.64s-.46-1.1-1.4-.94c-.68.12-.7 0-1.37.14s-.64.35-1.32.47-.7 0-1.38.09-.71 0-1.39.11-.63.38-1.31.5-.69.05-1.37.17-.7 0-1.38.08-.65.31-1.34.43-.65.26-1.34.38-.73-.13-1.41 0c-.94.16-1.39.59-1.39 1.41 0 .64.16.64.16 1.28v1.27a1.72 1.72 0 01-.79 1.36 3.09 3.09 0 01-1.43.83 2.56 2.56 0 01-1.52-.13 1.39 1.39 0 01-.87-1.25c0-.83.24-.83.24-1.66s-.07-.84-.07-1.67a8.27 8.27 0 01.1-1.36 5.57 5.57 0 01.26-1.36 3.94 3.94 0 01.82-1.13c.31-.29.83-.33 1.27-.55a7.23 7.23 0 011.25-.51 11.93 11.93 0 011.32-.35c.68-.12.65-.32 1.33-.44s.74.2 1.42.08.66-.26 1.34-.38l1.37-.23c.68-.12.64-.37 1.32-.49s.74.23 1.42.11.65-.32 1.33-.44.7 0 1.39-.15.66-.27 1.34-.39a12.72 12.72 0 001.34-.24 13.44 13.44 0 011.36-.29zm-11 7a2.52 2.52 0 011.26.17c.39.15.55.53.73.91s.47.68.37 1.16-.43.86-.56 1.3-.3.87-.46 1.31-.16.93-.35 1.35-.35.87-.58 1.28-.59.73-.84 1.11-.34.9-.63 1.27-.7.64-1 1-.7.6-1 .93-.71.58-1.06.89-.63.68-1 1a2.73 2.73 0 01-1.29.53 1.8 1.8 0 01-1.52-.18 1.93 1.93 0 01-.49-1.48 2.28 2.28 0 01.49-1.11c.2-.34.28-.82.66-1.11s.79-.54 1.13-.85.8-.56 1.11-.91.46-.85.74-1.23a13.46 13.46 0 00.63-1.26c.23-.4.67-.71.86-1.14s.44-.86.58-1.31.12-1 .23-1.42a2.44 2.44 0 01.76-1.28 2.93 2.93 0 011.23-.93zm8.93 5.07c0 .73.16.76 1.19.57.47-.08.9 0 1.2 0 .47-.16.59-.57.78-.86a2.22 2.22 0 00.52-1 1.87 1.87 0 01.63-1.26 2.49 2.49 0 011.23-.82 2.09 2.09 0 011.59.26 1.64 1.64 0 01.43 1.5 14.39 14.39 0 010 1.47 5.27 5.27 0 01-.63 1.33 4.21 4.21 0 01-.93 1.03 5 5 0 01-1.17.77 7.81 7.81 0 01-1.26.67c-.42.15-.9.18-1.4.3s-.86.43-1.37.52-1 0-1.45.06a7.34 7.34 0 01-1.41-.11c-.58 0-1.08.09-1.42-.13a2 2 0 01-.79-1.18 5.56 5.56 0 010-1.43c0-.7-.18-.7-.18-1.41s-.15-.7-.15-1.41.26-.71.26-1.41.09-.71.09-1.42a1.75 1.75 0 01.51-1.43 2.9 2.9 0 011.46-.65 1.93 1.93 0 011.35.28c.42.22.75.44.75 1v1.58c0 .79.07.78.12 1.57s.05.83.05 1.61zM242.4 56a3 3 0 01.18-1.35 3 3 0 011-.9 3.48 3.48 0 011.25-.51 3.32 3.32 0 011.35-.09 2.13 2.13 0 011.14.8 2.32 2.32 0 01.12 1.35c0 .46-.19.93-.23 1.4s-.09.93-.12 1.41 0 .93 0 1.4 0 .94-.07 1.41.14 1 .12 1.42-.3.93-.33 1.4 0 .94 0 1.41v2.84c0 .42-.21.94-.23 1.41s.14 1 .13 1.42 0 1 0 1.42-.15 1-.15 1.41v2.84c0 .47.05 1 .05 1.41s-.11 1-.09 1.46a11.66 11.66 0 00.41 1.43 12.44 12.44 0 00.1 1.47 4.35 4.35 0 00.81 1.2c.3.44.48.9.89 1.11a3.56 3.56 0 001.42.47 8.31 8.31 0 001.44-.35 13 13 0 001.38-.3c.46-.13.89-.31 1.34-.48s.83-.4 1.26-.62a12.32 12.32 0 001.39-.43c.39-.24.76-.55 1.15-.84s.58-.77.94-1.09.69-.62 1-1 .69-.63 1-1 .77-.57 1.08-1 .4-.87.7-1.27.61-.71.89-1.11a3.9 3.9 0 011-1 2.89 2.89 0 011.26-.42 2.22 2.22 0 011.21.13c.42.14.92.21 1.17.55a2.29 2.29 0 01.21 1.28 3.07 3.07 0 01-.6 1.78c-.27.39-.63.7-.9 1.07s-.57.73-.85 1.08-.52.78-.81 1.12-.69.63-1 1-.63.68-1 1-.46.86-.8 1.16-.68.66-1 1-.77.53-1.14.8-.87.36-1.25.61-.75.56-1.15.78-.76.56-1.17.75-.91.25-1.33.41-.88.29-1.31.43-.89.24-1.33.35-.89.23-1.35.31-.93.15-1.38.19a12.31 12.31 0 01-1.4.19 8.83 8.83 0 01-1.4-.15 7.28 7.28 0 01-1.35-.4 5.73 5.73 0 01-1.21-.67 5.55 5.55 0 01-1-1 6.66 6.66 0 01-.76-1.12c-.22-.38-.74-.65-.92-1.11s-.24-.89-.36-1.37 0-.92-.12-1.4-.05-.91-.1-1.39 0-.91 0-1.4v-1.4c0-.49-.1-.94-.09-1.42s.09-1 .1-1.43-.19-.94-.18-1.42-.07-.94 0-1.42.1-.94.11-1.42.2-.94.22-1.41-.2-1-.18-1.44.23-.94.26-1.42.07-1 .1-1.43-.11-1-.09-1.43 0-1 0-1.44.18-.94.2-1.41-.12-1-.09-1.44.18-.95.21-1.42.16-.94.19-1.41.03-.94.06-1.35zm56.45-3.31c-.44.14-.84.46-1.3.61s-.94.12-1.41.27-.93.15-1.39.29-.87.36-1.33.51l-1.36.43-1.35.46c-.45.14-.84.46-1.29.61s-.9.32-1.35.46-.91.27-1.37.42-1 .07-1.43.22-.88.37-1.34.51-.85.47-1.3.62-.95.2-1.4.35-.88.37-1.32.52a2.89 2.89 0 01-1.46 0 1.8 1.8 0 01-1.08-.86 2.2 2.2 0 01-.31-1.31 2.6 2.6 0 01.23-1.25 2.78 2.78 0 01.76-1.06 3.64 3.64 0 011.15-.75c.43-.13.88-.19 1.32-.32s.84-.36 1.28-.5l1.31-.37c.44-.14.87-.29 1.31-.42s.94 0 1.38-.14.82-.4 1.26-.53l1.31-.39c.43-.13.92-.1 1.36-.23s.85-.33 1.29-.45.85-.35 1.28-.48.92-.14 1.36-.26.87-.27 1.31-.39.9-.21 1.34-.34l1.32-.38c.44-.12.84-.4 1.28-.53s.9-.21 1.34-.33.93-.06 1.37-.18.81-.51 1.25-.64.93-.09 1.36-.21.87-.34 1.3-.46 1 0 1.38-.15.83-.45 1.26-.57.92-.08 1.35-.2a2.55 2.55 0 011.27-.13 1.88 1.88 0 011.15.67 2.46 2.46 0 01.3 1.31 3.07 3.07 0 01-.19 1.26c-.17.36-.62.55-.94.84a3 3 0 01-1 .72c-.42.15-.81.44-1.25.64s-.87.32-1.29.55-.87.37-1.27.63-.78.54-1.16.83-.71.58-1 .85-.67.63-1 .92-.79.5-1.1.81-.51.79-.81 1.11-.62.68-.89 1-.7.62-.95 1-.41.83-.63 1.21-.52.77-.71 1.17a13.11 13.11 0 00-.46 1.28 12.91 12.91 0 00-.42 1.29c-.12.44-.08.91-.16 1.35s-.15.89-.18 1.33.08.9.08 1.34a10.64 10.64 0 000 1.39 6.65 6.65 0 00.39 1.31 5.82 5.82 0 00.48 1.29 6.72 6.72 0 001.87 2.06 8 8 0 001.3.53 10.36 10.36 0 001.33.44 13.74 13.74 0 001.38.22c.44 0 .92-.13 1.41-.12s.92.28 1.4.25.95-.23 1.29-.07a2.07 2.07 0 01.89.94 2.67 2.67 0 01.36 1.24 3.37 3.37 0 01-.54 1.5 3.22 3.22 0 01-1 1.18 3.31 3.31 0 01-1.46.65c-.48 0-1-.21-1.43-.2s-.95.21-1.41.19-1-.09-1.42-.15-1 0-1.42-.16-.92-.29-1.36-.44a12.75 12.75 0 01-1.3-.57 10.7 10.7 0 01-1.27-.73 10.84 10.84 0 01-1.22-.76 9.54 9.54 0 01-1-1 10.84 10.84 0 01-.87-1.15 11.29 11.29 0 01-.47-1.35 9.28 9.28 0 01-.61-1.27 11 11 0 01-.6-1.3 12.76 12.76 0 01-.21-1.42c-.05-.46.2-1 .2-1.43s-.2-.91-.16-1.36.2-.88.28-1.34.15-.88.26-1.33.09-.91.23-1.34.27-.87.44-1.3.49-.77.68-1.18.5-.76.71-1.16.46-.77.7-1.16.44-.77.7-1.15.5-.74.78-1.1.41-.83.7-1.18.77-.52 1.08-.85.58-.7.91-1c.07-.07-.03-.18-.08-.18zm31.35-10.87a3.08 3.08 0 011.37-.08 2.16 2.16 0 011.13.84A2.49 2.49 0 01333 44c0 .49-.15.93-.17 1.38s.06.91.05 1.4-.12.88-.12 1.39.12.94.12 1.4-.29.95-.28 1.41 0 1 .05 1.41 0 .95.06 1.41.11 1 .14 1.4.18.94.22 1.39.2.94.25 1.39.22.93.29 1.37 0 1 .05 1.41.36.91.47 1.34 0 1 .16 1.41a11.69 11.69 0 00.71 1.19 13.65 13.65 0 00.41 1.37 3.8 3.8 0 001.12.89 1.9 1.9 0 001.29.54 2.39 2.39 0 001.22-.82 4.42 4.42 0 00.87-1.16 12.27 12.27 0 00.45-1.4c.13-.41.33-.86.47-1.38s0-.88.18-1.19.73-.4 1-.61a2.55 2.55 0 011-.54 2.48 2.48 0 011.24 0 2 2 0 011 .75 2.17 2.17 0 01.19 1.21c0 .27.25.54.17.83-.13.48-.28 1-.42 1.39s-.33.93-.49 1.36-.62.8-.82 1.22a13.22 13.22 0 01-.67 1.25c-.25.44-.25 1-.52 1.38a12.34 12.34 0 01-1 1 9.14 9.14 0 01-1.09.93 7.18 7.18 0 01-1.29.61 6.56 6.56 0 01-1.33.55 7.91 7.91 0 01-1.38 0 6.58 6.58 0 01-1.4 0 5.73 5.73 0 01-1.32-.51 5.86 5.86 0 01-1.15-.81 7.2 7.2 0 01-1-1 12.24 12.24 0 01-.7-1.2c-.22-.37-.28-.85-.49-1.28s-.43-.78-.6-1.23-.37-.82-.51-1.27-.45-.81-.57-1.27 0-.93-.14-1.39-.29-.87-.38-1.34-.19-.89-.26-1.35-.15-.9-.21-1.37.1-.93.05-1.39-.32-.89-.36-1.36.16-.92.13-1.39-.08-.91-.1-1.38-.24-.91-.25-1.38.15-.92.15-1.39.14-.92.14-1.39-.07-1.09-.06-1.56 0-1.09.06-1.56.05-1.08.09-1.55a2.83 2.83 0 01.26-1.33 3.24 3.24 0 011-1 3.59 3.59 0 011.22-.36zm33.89 13.38a5.38 5.38 0 01.31.94 3 3 0 01-.38 1.39 3.44 3.44 0 01-1 1 3.34 3.34 0 01-1.31.47 2.41 2.41 0 01-1.53-.1 2.38 2.38 0 01-.92-1.22c-.17-.41-.45-.78-.65-1.19s-.12-1-.33-1.35-.44-.8-.67-1.19-.46-.79-.7-1.17-.54-.74-.8-1.11-.61-.69-.88-1.05-.63-.65-.92-1-.65-.63-1-1-.47-.8-.79-1.12-.77-.5-1.1-.8a2 2 0 01-.57-1.66 2.52 2.52 0 01.2-1.33c.24-.37.75-.51 1.13-.77s.68-.65 1.12-.72a2.44 2.44 0 011 .22 2.54 2.54 0 011 .35c.36.28.64.66 1 1s.73.56 1.06.9.59.71.9 1.06.81.53 1.1.89.31.94.58 1.31.64.68.9 1.07.58.73.81 1.13.48.8.7 1.21.31.89.5 1.31.64.74.81 1.16.28.95.43 1.37zm32.66-25.98c0 .35-.19.7-.19 1.05s.07.76.07 1.1l1.5-.26c.49-.09 1-.23 1.46-.31l1.46-.25c.49-.09.94-.38 1.43-.46s1 0 1.49-.05 1-.27 1.44-.35 1-.08 1.47-.15a2.07 2.07 0 011.12.35c.38.16.8.24 1 .59a2.6 2.6 0 01.33 1.18 3.26 3.26 0 01-.25 1.34 3.15 3.15 0 01-.88 1 3.1 3.1 0 01-1.27.52c-.47.07-1-.2-1.5-.12s-.91.46-1.4.54-1 0-1.48.06-1 0-1.48.1-.92.38-1.4.47-.93.35-1.41.44-.87.1-1.36.19c0 .53-.08 1-.07 1.48s-.15 1.06-.13 1.59.14 1.08.17 1.61c.47-.11 1-.15 1.47-.26s.91-.39 1.37-.51l1.41-.35c.48-.12 1-.17 1.44-.3s.89-.4 1.35-.53 1 0 1.47-.14a2.92 2.92 0 011.26-.26 1.85 1.85 0 011.17.63c.25.34.14.85.14 1.31a2.67 2.67 0 01-.23 1.2 2.7 2.7 0 01-.85.87 2.87 2.87 0 01-1 .62c-.48.14-.87.58-1.35.72s-1.06-.07-1.54.06-.93.41-1.41.54-1 .17-1.48.29-1 .16-1.47.28-.84.49-1.34.61v2.91c0 .49.14 1 .18 1.48s.09 1 .14 1.49h1.48c.48 0 .94.32 1.42.4s.94.24 1.42.35 1 .07 1.46.19.9.39 1.37.54 1 .14 1.44.3l1.36.54c.45.19.83.54 1.27.74a2.84 2.84 0 011.19.72 2.23 2.23 0 01.35 1.35 2.93 2.93 0 01-.34 1.41 3.81 3.81 0 01-.85 1.24 3.46 3.46 0 01-1.38.69c-.5.09-.93-.32-1.47-.59s-.9-.41-1.35-.61-.9-.41-1.35-.59-1 0-1.5-.2-.85-.56-1.32-.7-1 0-1.48-.17-.92-.37-1.39-.47c0 .09.15.23.15.32a8 8 0 01-.33 1.41 8 8 0 01-.2 1.42 7.45 7.45 0 01-.61 1.31 7.55 7.55 0 01-1 1 8.71 8.71 0 01-.91 1.1 10.1 10.1 0 01-1.26.68 12.29 12.29 0 01-1.24.68c-.42.2-.76.64-1.21.8s-1 0-1.45.12-.88.38-1.35.46-.93.27-1.37.31-1 .07-1.41.07-.92-.37-1.36-.43a7.63 7.63 0 01-1.33-.27 6.08 6.08 0 01-1.28-.49 5.1 5.1 0 01-1.09-.84 5.2 5.2 0 01-1-1c-.2-.4-.07-.94-.17-1.41a6.4 6.4 0 01-.39-1.35c0-.47.36-.91.45-1.37a7.82 7.82 0 01.33-1.35 7 7 0 01.75-1.17 7.05 7.05 0 01.8-1.13c.31-.34.46-.88.84-1.18a13.44 13.44 0 011.32-.59c.39-.23.72-.64 1.16-.85s.93-.19 1.39-.34.85-.42 1.33-.54.93-.11 1.42-.2.78-.26 1.19-.31.82 0 1.23 0h1.3c0-.54-.18-1.13-.23-1.67s-.26-1.06-.3-1.59.19-1.17.18-1.71c-.43.08-.95.26-1.37.33s-.86.12-1.29.2-.91.31-1.37.39-1 0-1.43.08-.92.32-1.37.39-1-.08-1.43 0-1 .19-1.4.21a2.3 2.3 0 01-2.07-2.1 3.27 3.27 0 01.13-1.42 3.17 3.17 0 01.93-1.13 2.89 2.89 0 011.42-.3l1.29-.1h1.31c.45 0 .85-.08 1.3-.14s.84-.17 1.29-.24.83-.28 1.27-.36.83 0 1.23-.09.62-.35 1-.42v-4.73c-.45.09-.85.33-1.3.42s-.89.21-1.34.3-.93 0-1.37.11-.88.25-1.32.35-.93 0-1.37.12l-1.33.3c-.45.1-.9.16-1.34.25s-.84.42-1.27.51a2.12 2.12 0 01-1.23-.14c-.39-.15-.5-.57-.69-.92s-.62-.65-.62-1.07a3.42 3.42 0 01.41-1.28 3 3 0 01.72-1.14 3.25 3.25 0 011.25-.56c.44-.1.88-.17 1.34-.27s.9-.1 1.35-.2.85-.33 1.3-.42.9-.09 1.35-.19.87-.3 1.32-.4.95.16 1.4.07l1.34-.27c.45-.08 1-.2 1.44-.29v-1.25c0-.38-.1-.75-.1-1.14 0-.58-.11-.58-.11-1.16s-.1-.58-.1-1.16a2.33 2.33 0 01.6-1.19 3.05 3.05 0 01.84-1c.37-.22.88-.11 1.3-.19a2.81 2.81 0 011.7 0c.48.26.54.82.54 1.52s.24.6.27 1.2.05.57.05 1.17zm-3.87 28c0-.37.16-.77.16-1.09h-1.42c-.42 0-.9 0-1.35.09s-.89.16-1.34.24a13.67 13.67 0 00-1.48.34 6.47 6.47 0 00-1.32.75 3.9 3.9 0 00-1.25.78 2.18 2.18 0 00-.34 1.41 1.3 1.3 0 00.37 1.07 2.23 2.23 0 001 .74c.35.07.8-.17 1.28-.19a11.14 11.14 0 001.23-.2 8.5 8.5 0 001.26-.37 5.75 5.75 0 001.17-.54 4.23 4.23 0 001-.78c.32-.34.84-.54 1-.94a3.83 3.83 0 00.03-1.3zm52.34-10.61a4.8 4.8 0 01-1.06.68 5.42 5.42 0 01-1.1.63 7.09 7.09 0 01-1.25.21 9.26 9.26 0 01-1.31.23 7.48 7.48 0 01-1.3-.26 5.69 5.69 0 01-1.28-.26c-.42-.16-1-.09-1.34-.35a5.66 5.66 0 01-.9-1 6.34 6.34 0 01-.61-1.19 7 7 0 01-.36-1.27 9.62 9.62 0 01-.28-1.28 11 11 0 01-.28-1.32 10.19 10.19 0 01.08-1.37 9.86 9.86 0 01.3-1.33 9.52 9.52 0 01.37-1.32 8.84 8.84 0 01.64-1.22 9.07 9.07 0 01.8-1.12 8.33 8.33 0 011-.93c.35-.27.9-.27 1.3-.48a7.37 7.37 0 011.22-.53 9.27 9.27 0 011.24-.57 9.92 9.92 0 011.35-.25 10.49 10.49 0 011.4.25c0-.41 0-.85-.06-1.25s-.13-.8-.15-1.2-.05-.65-.06-1.06l-1.22.26-1.34.32c-.45.1-.92.13-1.36.23s-.89.26-1.34.36-1-.12-1.42 0-.88.28-1.33.39-.87.33-1.31.43-.87.33-1.31.43-.91.14-1.36.24-.93 0-1.37.12-.88.31-1.32.41-.87.31-1.31.42-.91.11-1.35.21a1.86 1.86 0 01-1.21-.11c-.41-.16-.95-.25-1.15-.63a3 3 0 01-.11-1.34 3.07 3.07 0 01.22-1.3 3 3 0 01.9-.94 2.87 2.87 0 011.13-.69l1.34-.31c.45-.1.9-.19 1.35-.3s.87-.32 1.33-.43.94 0 1.39-.12.89-.23 1.34-.33.92-.1 1.37-.2.92-.12 1.37-.23.84-.51 1.29-.61.94 0 1.4-.12.88-.31 1.33-.41.94 0 1.39-.15.87-.38 1.33-.48 1-.09 1.42-.19c0-.44.11-.93.11-1.41v-1.38c0-.47-.1-.92-.1-1.39s-.13-.92-.13-1.4a2.3 2.3 0 01.54-1.16c.23-.38.28-1 .66-1.2s.93-.1 1.36-.17c.61-.11 1.3-.32 1.75 0a1.88 1.88 0 01.57 1.65c0 .46.24.91.24 1.35s-.15.92-.15 1.36.15.92.15 1.36-.09.82-.09 1.26l1.23-.26c.45-.09.87-.24 1.31-.33s.92 0 1.35-.11.9-.1 1.34-.19.82-.45 1.26-.54.93.14 1.37.06.86-.27 1.29-.35l1.32-.23c.44-.08.86-.27 1.29-.35s.87-.19 1.3-.26a2.41 2.41 0 011.29 0c.4.16.59.63.78 1a2.49 2.49 0 01.29 1.11 3.18 3.18 0 01-.1 1.3 3 3 0 01-.89.95 2.54 2.54 0 01-1.11.7c-.44.08-.92-.09-1.37 0l-1.33.22-1.33.26-1.32.26c-.43.09-.86.27-1.3.36s-.89.12-1.33.21-.9.08-1.34.17l-1.32.27c-.44.09-.84.41-1.28.51s-.9.12-1.34.21c0 .44-.06.87-.05 1.31s-.08.87-.07 1.31.15.87.17 1.3-.09.88-.07 1.31.14.86.17 1.3.32.79.35 1.22a8.19 8.19 0 01.59 1.38 10.86 10.86 0 01.33 1.49 11.57 11.57 0 01.25 1.49 12.21 12.21 0 01.28 1.51c0 .47-.23.92-.26 1.37s.13 1 .07 1.4-.43.86-.53 1.3-.09.92-.22 1.36-.08 1-.24 1.38-.41.83-.61 1.24-.59.73-.82 1.13-.43.8-.69 1.19-.52.74-.81 1.1-.54.74-.85 1.08-.62.67-1 1-.51.79-.86 1.1-.83.44-1.19.73-.66.66-1 .93-.8.46-1.19.71a3.16 3.16 0 01-1.28.24c-.46.08-.88.3-1.25.16a2.27 2.27 0 01-1.06-.79 2.56 2.56 0 01-.42-1.28 3 3 0 01.57-1.65 4.6 4.6 0 011.33-1.14c.43-.26 1-.24 1.44-.52s.61-.86 1-1.17.89-.52 1.24-.86.83-.61 1.15-1a13.62 13.62 0 00.75-1.31 11.68 11.68 0 00.64-1.35 8.51 8.51 0 00.62-1.31s.15.1.1.13zm-6.15-5.93a4.27 4.27 0 000 1.25 2.87 2.87 0 00.69 1 2.68 2.68 0 001 .79 2.6 2.6 0 001.27 0 3.37 3.37 0 001.25-.29 3.23 3.23 0 00.86-1c.22-.32.08-.82.19-1.24a4.74 4.74 0 00.28-1.18 4.53 4.53 0 00-.05-1.29 3.24 3.24 0 00-.54-1.22 2.63 2.63 0 00-1.17-.69 3.12 3.12 0 00-1.31.16 2.65 2.65 0 00-1.11.46 2.87 2.87 0 00-.85.85 3.92 3.92 0 00-.38 1.14 4.56 4.56 0 00-.13 1.26zm50.23 2.96a3.7 3.7 0 01-.25 1.37 3.9 3.9 0 01-.75 1.17c-.31.36-.49.91-.91 1.15a4.6 4.6 0 01-1.4.45 3.43 3.43 0 01-1.29-.1 2.78 2.78 0 01-1.22-.47c-.31-.26-.33-.77-.5-1.18s-.48-.73-.48-1.19a4 4 0 01.52-1.33c.17-.45.16-1 .46-1.37a4.38 4.38 0 011.15-.89 3.84 3.84 0 011.36-.34 3.27 3.27 0 011.26-.1 2 2 0 011.85 1.6 3.06 3.06 0 01.2 1.23zM482.91 15a3.78 3.78 0 01.22-1.28 3.39 3.39 0 01.71-1.07c.3-.33.48-.84.88-1a4.79 4.79 0 011.32-.38 3.29 3.29 0 011.59.16 2.35 2.35 0 011.32.91 3.38 3.38 0 01.1 1.59c0 .25.27.25.26.5 0 .47-.34.93-.38 1.4s.23 1 .19 1.43-.15.93-.18 1.4-.23.93-.26 1.4.06.94 0 1.41.05.94 0 1.41-.19.93-.21 1.41 0 .94 0 1.41-.16.94-.18 1.41 0 .95 0 1.42-.2.94-.22 1.41 0 .95 0 1.42.25.95.23 1.43-.16.95-.18 1.43-.14.94-.16 1.42a2 2 0 01-.68 1.42 2.34 2.34 0 01-1.39.74c-.6.11-1.09.18-1.43-.08a1.71 1.71 0 01-.61-1.35v-1.39c0-.46-.12-.93-.14-1.39s0-.94-.06-1.4-.08-.93-.1-1.39 0-.93 0-1.39.22-.94.2-1.4 0-.93-.06-1.39-.26-.92-.28-1.38-.13-.93-.16-1.39.14-.93.11-1.39-.08-.93-.11-1.39-.15-.92-.18-1.38-.15-.91-.18-1.37 0-.93-.05-1.38-.09-.94-.13-1.39c.02-.28.2-.27.2-.55z" fill="#00cde5"/><path class="cls-2" d="M36 259.83a10.26 10.26 0 001.38-.78 11.16 11.16 0 001.38-.94 10.93 10.93 0 001.16-1.2 12.12 12.12 0 001.18-1.2 13.11 13.11 0 00.64-1.56 11.32 11.32 0 00.79-1.5 20.2 20.2 0 00.3-3.34c0-.11.14-.11.14-.21a10.09 10.09 0 00-.21-1.74 12 12 0 00-.5-1.68 9.94 9.94 0 00-.7-1.6 9.61 9.61 0 00-1-1.48 10.46 10.46 0 00-1.25-1.24 11.07 11.07 0 00-1.35-.75 10.87 10.87 0 00-2.77-1.19 13 13 0 00-1.47-.44 11.35 11.35 0 00-1.54-.08 11.66 11.66 0 00-1.52.3c-.76.14-.78 0-1.55.14s-.73.35-1.49.49-.78 0-1.55.16-.75.2-1.52.34-.76.17-1.53.31-.8 0-1.57.12-.76.15-1.53.29-.11.11-.18.13-.2 0-.3.05-.19-.1-.26-.07-.13.17-.22.22 0 .18-.1.22-.16.1-.23.16-.22 0-.27 0 0 .23-.08.31-.13.08-.17.14-.17.13-.22.22.13.21.11.27-.15.17-.18.28-.06.1-.07.16a3.1 3.1 0 00-.15.52c0 .81.15.81.15 1.62s-.1.81-.1 1.61.07.81.07 1.62.08.81.08 1.62v3.24c0 .81-.1.81-.1 1.62v1.62c0 .81.08.8.08 1.61s-.09.81-.09 1.61.13.82.13 1.63-.17.81-.17 1.62.07.81.07 1.61v3.25c0 .81-.13.81-.13 1.62s.18.81.18 1.62v1.63c0 .82-.12.81-.12 1.63v1.63c0 .81.05.81.05 1.63a2.66 2.66 0 00.34 1.35 2.72 2.72 0 001 1 2.72 2.72 0 001.37.27 2.55 2.55 0 001.33-.33 2.61 2.61 0 001-1 2.73 2.73 0 00.47-1.33c0-.8-.06-.8-.06-1.61v-1.6c0-.8-.15-.69-.15-1.45s.19-.8.19-1.61-.08-.8-.08-1.61-.08-.8-.08-1.61.15-.8.15-1.61-.13-.81-.13-1.62.11-.81.11-1.62-.58-1-.07-1.64.76.06 1.48 0 .72-.12 1.44-.19.71-.16 1.44-.23.73 0 1.46-.08.8-.49 1.43-.13.31.68.65 1.37.3.71.64 1.4.37.68.71 1.37.47.63.81 1.32.26.74.6 1.43.32.7.67 1.39.29.72.63 1.41.47.63.81 1.33l.68 1.38c.34.69.24.75.58 1.44s.3.72.65 1.41.44.65.78 1.35.25.75.59 1.44a2.74 2.74 0 001.17 1 2.56 2.56 0 001.38.46 2.63 2.63 0 001.17-.29 2.69 2.69 0 001.09-.87 2.72 2.72 0 00.43-1.33 2.77 2.77 0 00-.18-1.42c-.34-.7-.52-.61-.86-1.3s-.26-.74-.6-1.44-.35-.69-.69-1.39-.41-.66-.75-1.36-.21-.76-.55-1.46-.37-.69-.72-1.38-.47-.63-.82-1.33-.17-.78-.52-1.47-.42-.66-.77-1.36-.43-.66-.77-1.36a14.08 14.08 0 00-.63-1.43 2.32 2.32 0 01-.52-1.53zm-12.78-3.71c-.62-.58-.12-.77-.12-1.62v-1.68c0-.84-.1-.82-.1-1.7s.2-.85.2-1.7-.19-.85-.19-1.7-.36-1 .19-1.62.75-.25 1.59-.4.84-.19 1.69-.34.88 0 1.73-.16.84-.21 1.69-.36.84-.2 1.7-.35a5.57 5.57 0 011.47 0 4.82 4.82 0 011.4.42 4.64 4.64 0 011.25.74 4.59 4.59 0 011 .88 4.77 4.77 0 01.58 1.23 5.11 5.11 0 01.18 1.35c0 .1-.17.1-.17.21a5.92 5.92 0 01-.22 1.55 5.45 5.45 0 01-.46 1.52 5.33 5.33 0 01-1.07 1.17 5.64 5.64 0 01-1.18 1.1 7.14 7.14 0 01-1.54.49 9.82 9.82 0 01-1.57.35c-.81.08-.81.12-1.62.19s-.83-.07-1.65 0-.82.1-1.63.17a5.32 5.32 0 00-1.64.21c-.79.24-.96.61-1.56.05zm54.95 18.96c-.82 0-.82-.11-1.64-.11s-.82.08-1.64.08-.82.13-1.64.13h-1.64c-.83 0-.83-.2-1.65-.2h-1.64c-.82 0-.82.18-1.64.18h-1.64c-.82 0-.83-.22-1.65-.22s-.83.15-1.65.15-1.12.62-1.72.05-.07-.84-.07-1.61V272c0-.76.19-.77.19-1.54v-3.09c0-.77-.13-.77-.13-1.54s.05-.77.05-1.54v-1.54c0-.77.15-.78.15-1.55s-.08-.78-.08-1.55-.61-1-.08-1.6.84 0 1.62-.1.79 0 1.58-.05.77-.22 1.56-.3.8.11 1.58 0 .78-.23 1.56-.31.78-.14 1.56-.22l1.57-.16 1.58-.13 1.58-.15c.79-.07.81.12 1.6 0a2.9 2.9 0 001.33-.61 2.63 2.63 0 00.77-1.15 2.46 2.46 0 00.28-1.34 2.64 2.64 0 00-.55-1.24 2.68 2.68 0 00-1-1 2.74 2.74 0 00-1.39-.32c-.76.07-.76 0-1.52.12s-.76.05-1.51.12-.74.29-1.5.37-.77 0-1.53.1-.76 0-1.52.09-.74.23-1.5.31-.79-.21-1.55-.14-.74.29-1.5.36l-1.53.14c-.77.08-.89.52-1.44 0s-.11-.72-.11-1.54-.13-.82-.13-1.63.19-.82.19-1.64-.17-.82-.17-1.64v-1.64c0-.82.2-.82.2-1.64s-.06-.83-.06-1.65-.5-1 0-1.63.77-.05 1.54-.18.74-.35 1.51-.49.78 0 1.56-.19.78-.06 1.55-.2.77-.15 1.55-.29.77-.14 1.54-.28.75-.26 1.52-.4.79-.07 1.56-.21L74 237c.78-.13.81 0 1.59-.1s.76-.24 1.53-.38.79-.1 1.57-.23a2.76 2.76 0 001.17-.76c.37-.31.84-.57 1-1a3 3 0 00.11-1.46 3 3 0 00-3.26-2.2c-.79.14-.78.2-1.57.34s-.83 0-1.62.13-.78.29-1.58.43-.81.08-1.61.22-.8.11-1.6.25-.79.19-1.59.33-.78.25-1.58.4-.81.09-1.61.23-.81.07-1.61.21-.78.26-1.58.4-.84 0-1.64.09-.79.26-1.59.4l-1.61.29s-.25-.09-.35-.06-.07.23-.14.26-.14.12-.23.16a1.28 1.28 0 00-.2.11 1.59 1.59 0 00-.22.13c-.06 0-.17 0-.23.11s-.18.08-.24.15 0 .22 0 .29-.32 0-.36.1 0 .21 0 .28v.26c0 .08-.14.15-.16.24v.23c0 .11-.08.21-.08.32v3.23c0 .81-.07.81-.07 1.62s.19.81.19 1.62-.15.81-.15 1.62.1.81.1 1.62-.21.81-.21 1.62.14.81.14 1.62-.1.81-.1 1.62v3.25c0 .81.08.81.08 1.61v1.62c0 .81-.06.81-.06 1.61s.17.82.17 1.63-.17.81-.17 1.62.1.81.1 1.62v4.88c0 .82-.08.81-.08 1.61v1.63c0 .81.17.82.17 1.63s-.15.82-.15 1.64v1.63a2.61 2.61 0 001.33 2.41 2.66 2.66 0 001.36.26c.79 0 .79.24 1.59.24s.79-.2 1.59-.2.8.18 1.6.18.8-.13 1.6-.13.8-.12 1.59-.12.81.21 1.61.21h3.2c.8 0 .79-.15 1.59-.15s.8.16 1.61.16.8-.1 1.6-.1.81.19 1.61.19.81-.05 1.61-.05a2.78 2.78 0 001.35-.48 3 3 0 001.36-2.33 2.92 2.92 0 00-2.71-2.7zm23.01-42.72a7 7 0 011.73.09 6.72 6.72 0 011.53.79 4.49 4.49 0 012.39 2.38 6.66 6.66 0 01.73 1.55 6.86 6.86 0 01.26 1.71 2.94 2.94 0 00.14 1.43 2.88 2.88 0 001.15.87 2.56 2.56 0 001.33.3 2.63 2.63 0 001.35-.25 2.85 2.85 0 001-1 2.82 2.82 0 00.32-1.39 11.45 11.45 0 00-.16-1.56 11 11 0 00-.39-1.5 12.87 12.87 0 00-.3-1.55 10.94 10.94 0 00-.65-1.44 11.54 11.54 0 00-.91-1.29 10.4 10.4 0 00-2.23-2.23 12.28 12.28 0 00-1.4-.72 12.89 12.89 0 00-1.33-.83 12.74 12.74 0 00-1.54-.33 12.62 12.62 0 00-1.49-.55 12.31 12.31 0 00-1.58.13 12 12 0 00-1.57-.11 12.74 12.74 0 00-1.53.41 12.94 12.94 0 00-1.5.45 10.41 10.41 0 00-1.43.68 12.5 12.5 0 00-1.27.93 12.92 12.92 0 00-1.24 1 11.79 11.79 0 00-1 1.18 10.85 10.85 0 00-.79 1.37 13.21 13.21 0 00-.64 1.43 13.48 13.48 0 00-.48 1.48 12.94 12.94 0 00-.41 1.51 11.63 11.63 0 00-.08 1.57c0 .78.11.78.11 1.56s-.07.78-.07 1.56v1.55c0 .77.14.78.14 1.56s-.19.78-.19 1.56-.06.78-.06 1.56.23.77.23 1.55.06.78.06 1.55-.2.78-.2 1.57.2.77.2 1.55-.07.78-.07 1.56.08.78.08 1.57-.09.78-.09 1.56v1.56c0 .78-.19.78-.19 1.56s.09.78.09 1.56.1.78.1 1.57.07.78.07 1.57-.1.78-.1 1.57a14.13 14.13 0 00-.07 1.58 13.35 13.35 0 00.58 1.48 12.16 12.16 0 00.43 1.49 13.81 13.81 0 00.75 1.36 11.06 11.06 0 00.82 1.31 11.78 11.78 0 00.94 1.26 10.72 10.72 0 001.23 1 12.61 12.61 0 001.31.83 11.33 11.33 0 001.37.75 10.67 10.67 0 001.5.4 10.92 10.92 0 001.5.48 13.52 13.52 0 001.56 0 11.33 11.33 0 001.55-.21 11.45 11.45 0 001.56-.14 12.79 12.79 0 001.43-.61 13.12 13.12 0 001.43-.62 11.77 11.77 0 001.3-.87 11.42 11.42 0 001.1-1.1 13.22 13.22 0 001.19-1 13 13 0 00.78-1.36 12.3 12.3 0 00.77-1.37 12.47 12.47 0 00.55-1.48 13.62 13.62 0 00.07-1.58 11.19 11.19 0 00.21-1.54 2.52 2.52 0 00-.47-1.28 2 2 0 00-2.21-1.31 2.14 2.14 0 00-2.42 1.19 2.71 2.71 0 00-.15 1.4 15.14 15.14 0 01-1.07 3.24 6.56 6.56 0 01-1 1.37 6.49 6.49 0 01-1.31 1.09 6.36 6.36 0 01-1.63.53 5.49 5.49 0 01-3.34 0 6.23 6.23 0 01-1.53-.69 6.57 6.57 0 01-1.42-.93 6.73 6.73 0 01-1-1.4 6.59 6.59 0 01-.73-1.54 6.3 6.3 0 01-.08-1.69V267c0-.78-.14-.78-.14-1.56v-1.56c0-.78.23-.77.23-1.55v-1.56c0-.78-.11-.78-.11-1.56s-.14-.77-.14-1.55.27-.78.27-1.55-.27-.78-.27-1.57.28-.77.28-1.55-.1-.78-.1-1.56-.07-.78-.07-1.57-.12-.78-.12-1.56.29-.78.29-1.56-.26-.78-.26-1.56.2-.78.2-1.56-.18-.78-.18-1.57.15-.78.15-1.57v-1.57a6.42 6.42 0 01.14-1.71 6.82 6.82 0 01.63-1.61 7 7 0 011.23-1.21 6.8 6.8 0 011.24-1.16 6.67 6.67 0 011.62-.52 6.58 6.58 0 011.49-.34zm48.94 2.64a11.61 11.61 0 00-.23-1.53 10.78 10.78 0 00-.23-1.52c-.13-.48-.34-.95-.53-1.45a14.64 14.64 0 00-.69-1.37 15.05 15.05 0 00-.62-1.43 13.91 13.91 0 00-1-1.17 15.28 15.28 0 00-1-1.2c-.36-.37-.59-.89-1-1.23s-.93-.52-1.41-.84a12.86 12.86 0 00-1.36-.91 15.4 15.4 0 00-1.57-.45 12.81 12.81 0 00-1.49-.71c-.51-.12-1.08 0-1.64 0s-1.05-.16-1.61-.17-1.07 0-1.63.09-1.06.1-1.62.2c-.85.15-.83.29-1.67.44s-.9-.12-1.75 0-.82.32-1.68.47l-1.7.3a2.67 2.67 0 00-2.15 2.6v1.59c0 .79-.17.8-.17 1.59s.1.8.1 1.6.06.8.06 1.6v1.59c0 .8-.14.8-.14 1.59s.15.8.15 1.6-.21.79-.21 1.59v1.59c0 .79.13.8.13 1.6v1.6c0 .8-.17.79-.17 1.59s-.14.8-.14 1.6v1.59c0 .8.17.8.17 1.6s-.12.8-.12 1.6v1.59c0 .8.27.8.27 1.6s-.25.8-.25 1.6v1.59c0 .79-.09.8-.09 1.59v1.6c0 .8.24.8.24 1.6V265c0 .8-.26.8-.26 1.6v1.6c0 .8.09.8.09 1.6s-.1.8-.1 1.6.07.8.07 1.6v1.61c0 .8.08.8.08 1.61s.18.8.18 1.61a2.35 2.35 0 00.34 1.29 2 2 0 002.22 1.27 2.68 2.68 0 001.37-.2 2.79 2.79 0 001-1 2.74 2.74 0 00.32-1.37c0-.77-.13-.77-.13-1.55s.05-.77.05-1.54.09-.78.09-1.55.07-.77.07-1.54v-1.54c0-.77-.07-.77-.07-1.54s.1-.78.1-1.55-.21-.78-.21-1.55.07-.77.07-1.55.18-.77.18-1.55-.26-.77-.26-1.55v-1.55c0-.78.16-.77.16-1.54v-3.11c0-.78.05-.78.05-1.56s-.65-.95-.12-1.53.75-.11 1.54-.18.78-.18 1.56-.26.79-.1 1.58-.18.89-.39 1.55 0 .44.66.71 1.43.17.81.44 1.58.4.73.67 1.5 0 .85.31 1.62.33.75.6 1.52.19.79.45 1.56.32.76.58 1.53.37.73.64 1.51.14.82.41 1.59.19.79.46 1.56.56.68.82 1.45.09.84.36 1.61.45.72.71 1.49 0 .85.31 1.62.38.74.64 1.51.15.82.42 1.6.45.72.72 1.49.13.83.4 1.61a2.83 2.83 0 001 1.33 2.87 2.87 0 001.6.54c.29 0 .54-.25.84-.35a2.25 2.25 0 001.81-1.92 2.79 2.79 0 00-.09-1.4c-.26-.75-.24-.76-.5-1.51s-.23-.77-.49-1.52-.39-.71-.65-1.46-.17-.78-.43-1.54-.34-.72-.6-1.47-.17-.78-.43-1.53-.35-.72-.61-1.48-.18-.78-.44-1.53l-.52-1.51c-.26-.75-.13-.8-.39-1.55s-.41-.7-.67-1.46-.44-.69-.7-1.45-.24-.76-.5-1.51-.23-.76-.5-1.52-.23-.76-.49-1.52-.27-.75-.53-1.51-.07-.83-.33-1.59-.48-.67-.5-1.48a13 13 0 001.28-.68c.48-.23 1-.32 1.48-.58a14.88 14.88 0 001.19-1.05 15.13 15.13 0 001.32-.88 13.15 13.15 0 001-1.25 14.85 14.85 0 00.92-1.28 15.24 15.24 0 00.76-1.38 86.07 86.07 0 00.93-3c.12-.5.11-1 .19-1.56s.34-1 .38-1.54.25-1.03.25-1.54zm-14.88 10.41c-.79.08-.78.19-1.57.27s-.81 0-1.6.06-.79.13-1.59.2-1.09.72-1.69.19.12-.87.12-1.65-.16-.77-.16-1.55.06-.78.06-1.55.22-.78.22-1.55-.16-.78-.16-1.55.11-.78.11-1.56-.21-.77-.21-1.55.26-.78.26-1.55-.24-.78-.24-1.55.07-.78.07-1.56v-1.57c0-.79-.48-1 0-1.58s.75-.28 1.51-.41.81.13 1.57 0 .73-.31 1.49-.44a12.19 12.19 0 011.66-.18 10.31 10.31 0 011.67 0 8.84 8.84 0 011.64.34 8.42 8.42 0 011.56.61 9.35 9.35 0 011.28 1.09 10.49 10.49 0 011.17 1 10.69 10.69 0 011 1.22 10.12 10.12 0 01.73 1.37 8.47 8.47 0 01.38 1.5 7.36 7.36 0 01.38 1.51 14.81 14.81 0 01-.28 1.58 12.92 12.92 0 01-.18 1.58 11.64 11.64 0 01-.31 1.56 9.84 9.84 0 01-.67 1.47 8 8 0 01-1.08 1.18 7.33 7.33 0 01-1.26.93 8 8 0 01-1.33.8 10.28 10.28 0 01-1.4.73 14.09 14.09 0 01-1.56.26 14.14 14.14 0 01-1.59.32zm48.85-33.3a2.66 2.66 0 00-1.32.47 1.84 1.84 0 00-1.33 2.28c0 .8-.16.8-.16 1.59s.27.8.27 1.6-.28.79-.28 1.59.13.8.13 1.6.06.8.06 1.6v1.59c0 .8-.19.8-.19 1.59s.11.8.11 1.6-.09.79-.09 1.59.21.8.21 1.6-.1.8-.1 1.6.22.79.22 1.59v1.6c0 .8-.39.79-.39 1.59s.27.8.27 1.6-.27.8-.27 1.6.31.8.31 1.6-.18.79-.18 1.59.06.8.06 1.6.18.8.18 1.6-.06.79-.06 1.59-.17.8-.17 1.59-.11.8-.11 1.6.35.8.35 1.6-.38.8-.38 1.6.17.8.17 1.6V258c0 .8.21.8.21 1.61s-.12.79-.12 1.59.14.8.14 1.6-.39.81-.39 1.61.32.81.32 1.61.07.81.07 1.61a7.92 7.92 0 01-.25 1.7c-.13.55-.62 1-.87 1.46a7.23 7.23 0 01-.74 1.47 7.32 7.32 0 01-1.19 1.17 9.93 9.93 0 01-4.62 1.67 7.54 7.54 0 01-1.66-.17 7.68 7.68 0 01-1.6-.52 7.36 7.36 0 01-1.34-1 7.67 7.67 0 01-1.36-1 8.5 8.5 0 01-.9-1.44 8.15 8.15 0 01-.34-1.66 7.72 7.72 0 01-.44-1.65c0-.79.31-.79.31-1.58s-.13-.79-.13-1.58-.06-.79-.06-1.59v-1.58c0-.79.3-.79.3-1.58s-.29-.79-.29-1.58.14-.79.14-1.58.11-.79.11-1.58-.31-.79-.31-1.59.13-.79.13-1.58-.12-.79-.12-1.58.17-.79.17-1.58v-1.59c0-.79-.07-.79-.07-1.58v-1.59c0-.79.21-.79.21-1.58s-.25-.8-.25-1.59-.06-.79-.06-1.58.3-.79.3-1.58-.06-.79-.06-1.58-.24-.79-.24-1.59.37-.79.37-1.58-.12-.79-.12-1.58v-1.59c0-.79.09-.8.09-1.59s-.12-.8-.12-1.59.09-.79.09-1.58-.25-.8-.25-1.59.21-.8.21-1.6-.14-.8-.14-1.6.13-.79.13-1.59a2.34 2.34 0 00-2.81-2.56 2 2 0 00-2.22 1.28 2.48 2.48 0 00-.43 1.28c0 .79-.19.79-.19 1.58s.06.79.06 1.58.17.79.17 1.59-.1.79-.1 1.58-.09.79-.09 1.58-.09.79-.09 1.58.14.79.14 1.58v1.58c0 .79-.17.79-.17 1.59s.13.79.13 1.58v1.58c0 .79-.12.79-.12 1.58v1.59c0 .79.16.79.16 1.58v1.59c0 .79-.13.79-.13 1.58s.11.8.11 1.59-.14.79-.14 1.58.3.79.3 1.58-.3.79-.3 1.58.14.79.14 1.59.22.79.22 1.58-.23.79-.23 1.58v1.59c0 .79-.14.8-.14 1.59s.28.8.28 1.59-.2.79-.2 1.58.24.8.24 1.59-.1.8-.1 1.6-.09.8-.09 1.6.19.79.19 1.59c0 .53-.34 1.07-.28 1.58s.49 1 .61 1.48a13.17 13.17 0 00.41 1.49 11 11 0 00.59 1.43 12.13 12.13 0 00.73 1.38 12.78 12.78 0 00.9 1.28c.35.39.94.52 1.33.87s.61.9 1 1.19a11.49 11.49 0 001.3.89 12.47 12.47 0 001.48.55 10.82 10.82 0 001.49.49 13.56 13.56 0 001.57.06 13 13 0 001.54.22 14.13 14.13 0 001.58.07 13.25 13.25 0 001.5-.64c.5-.13 1-.14 1.53-.32a15.18 15.18 0 001.38-.73 11.53 11.53 0 001.42-.67 11.83 11.83 0 001.27-.93 13.42 13.42 0 001-1.25 13.8 13.8 0 00.94-1.23 12 12 0 00.7-1.39c.24-.45.73-.8.92-1.29a12.74 12.74 0 00.33-1.54 269.33 269.33 0 00.31-3.09v-1.59c0-.8.08-.79.08-1.59s-.1-.8-.1-1.6.29-.79.29-1.59-.23-.8-.23-1.6V258c0-.79-.11-.8-.11-1.6s.29-.79.29-1.59-.19-.8-.19-1.59.16-.8.16-1.6-.24-.8-.24-1.6.16-.8.16-1.59v-1.6c0-.8.08-.8.08-1.6s.16-.8.16-1.59-.33-.8-.33-1.6.18-.8.18-1.6v-4.79c0-.8-.11-.8-.11-1.59s.09-.8.09-1.6.11-.8.11-1.6-.22-.8-.22-1.59.2-.8.2-1.6v-1.61c0-.81-.13-.8-.13-1.6s.12-.8.12-1.6-.27-.8-.27-1.59v-1.61c0-.8.1-.8.1-1.6s-.11-.81-.11-1.62.2-.8.2-1.61a3.52 3.52 0 00-1.4-2.37 2.79 2.79 0 00-1.49-.35zm18.82-3.11c-.49 0-1-.15-1.44.08a3.06 3.06 0 00-1 1.11 2.78 2.78 0 00-.11 1.39v1.57c0 .78-.21.79-.21 1.58s.13.79.13 1.58v1.57c0 .79-.12.79-.12 1.57s.17.79.17 1.57-.14.79-.14 1.57v1.57c0 .78-.14.79-.14 1.57s.37.79.37 1.57-.21.79-.21 1.58v6.3c0 .78-.08.79-.08 1.58v1.57c0 .79.16.79.16 1.58s.19.78.19 1.57-.27.79-.27 1.58.3.79.3 1.58v1.57c0 .78-.23.79-.23 1.58s.08.79.08 1.58-.06.79-.06 1.58.21.79.21 1.58-.2.78-.2 1.57-.07.79-.07 1.58.06.79.06 1.58v1.57c0 .79.2.79.2 1.57v3.16c0 .79-.3.79-.3 1.58s.29.79.29 1.59.07.79.07 1.58-.29.79-.29 1.58.12.79.12 1.58.19.79.19 1.58-.29.79-.29 1.59v1.59c0 .8.08.79.08 1.59a2.62 2.62 0 00.59 1.26c.24.41.39.88.81 1.12a2.7 2.7 0 001.37.13 2.36 2.36 0 001.27-.32 2.45 2.45 0 00.95-.91 2.62 2.62 0 00.52-1.28c0-.79-.12-.79-.12-1.57v-1.58c0-.79.08-.79.08-1.57s-.19-.79-.19-1.58.29-.78.29-1.57.07-.79.07-1.57-.11-.79-.11-1.57-.12-.79-.12-1.57-.08-.79-.08-1.57.32-.79.32-1.57v-1.58c0-.79-.26-.78-.26-1.57s.2-.79.2-1.58v-1.58c0-.79-.34-.78-.34-1.57s.05-.79.05-1.57.23-.79.23-1.58v-1.57c0-.78-.06-.79-.06-1.58s.19-.79.19-1.58-.12-.79-.12-1.58v-1.57c0-.79-.2-.79-.2-1.58s-.07-.79-.07-1.58.39-.79.39-1.58v-1.57c0-.79-.19-.79-.19-1.58s-.09-.79-.09-1.58v-1.57c0-.78.18-.79.18-1.58v-3.15c0-.79-.09-.79-.09-1.58s-.15-.79-.15-1.58.09-.79.09-1.58v-4.78c0-.8.13-.8.13-1.59v-1.58c0-.79.08-.8.08-1.6s-.06-.79-.06-1.59a3 3 0 00-.34-1.43 3.13 3.13 0 00-1-1.08c-.59-.23-1.18-.03-1.68-.03zm40.3-7.51c-.78.14-.76.23-1.54.37s-.72.45-1.5.59-.84-.19-1.62 0-.8 0-1.58.16-.71.5-1.49.64-.8 0-1.58.12-.74.3-1.52.44-.81 0-1.59.13l-1.56.27c-.78.14-.79.09-1.56.23s-.74.38-1.53.52-.85-.29-1.63-.15-.72.51-1.5.64-.82-.12-1.6 0-.81 0-1.59.15-.74.4-1.52.54-.76.3-1.54.44-.82 0-1.6.12a2.57 2.57 0 00-1.18.67c-.36.31-.83.55-1 1a2.74 2.74 0 00.09 1.41 2.52 2.52 0 00.83 1.59 2.65 2.65 0 001.71.65c.16 0 .33.09.49.06.77-.14.72-.44 1.49-.57s.8 0 1.58-.13.8.06 1.57-.08.8-.05 1.57-.18.73-.39 1.51-.53l1.56-.28c.78-.14.85-.6 1.45-.09s-.1.67-.1 1.48.42.8.42 1.61v1.61c0 .81-.38.8-.38 1.61s.33.8.33 1.6-.19.81-.19 1.61v8.03c0 .8.05.81.05 1.61s.17.81.17 1.62v1.61c0 .81-.4.8-.4 1.61s.14.8.14 1.61.21.8.21 1.61-.16.8-.16 1.61-.11.8-.11 1.61-.07.81-.07 1.61.13.81.13 1.61v1.62c0 .81.21.8.21 1.61v3.23c0 .81-.13.8-.13 1.61s.1.81.1 1.61-.37.81-.37 1.62.11.8.11 1.61.07.8.07 1.6-.22.81-.22 1.61.29.81.29 1.62.09.81.09 1.61v1.62c0 .81-.2.81-.2 1.62s-.18.81-.18 1.61.38.81.38 1.62-.36.81-.36 1.61.28.81.28 1.62-.23.81-.23 1.63.32.81.32 1.62-.05.82-.05 1.63c0 .5-.17 1.05.06 1.45s.79.57 1.2.81a2.82 2.82 0 001.31.61c.49 0 .89-.4 1.29-.63a2.39 2.39 0 00.86-1 2.56 2.56 0 00.57-1.24v-1.59c0-.8.17-.8.17-1.59s-.33-.8-.33-1.6.34-.8.34-1.6v-1.59c0-.8-.21-.8-.21-1.59s.13-.8.13-1.59.06-.8.06-1.59-.08-.8-.08-1.59-.17-.8-.17-1.59-.05-.8-.05-1.6v-3.18c0-.8-.05-.8-.05-1.6s.39-.8.39-1.6-.39-.8-.39-1.59v-1.6c0-.8.22-.8.22-1.59s.16-.8.16-1.6-.2-.8-.2-1.6.2-.79.2-1.59-.28-.8-.28-1.6.11-.8.11-1.6-.17-.8-.17-1.59v-1.6c0-.8.27-.8.27-1.6s-.17-.8-.17-1.6.19-.8.19-1.6-.12-.8-.12-1.6-.3-.8-.3-1.59.1-.8.1-1.6v-1.59c0-.8-.1-.8-.1-1.6v-1.6c0-.8.11-.8.11-1.6v-3.2c0-.8.26-.81.26-1.61s-.43-.8-.43-1.59.34-.81.34-1.61v-1.61c0-.81-.12-.8-.12-1.61s-.61-1.06-.11-1.7.84-.11 1.58-.24.76 0 1.5-.08.75 0 1.49-.16.71-.25 1.45-.38.73-.18 1.46-.31.74-.16 1.48-.29l1.48-.25c.74-.13.77 0 1.51-.1a2.88 2.88 0 001.24-.78 2.92 2.92 0 00.87-1.13 2.78 2.78 0 00-.09-1.39 2.4 2.4 0 00-.5-1.25 2.67 2.67 0 00-1.08-.9 2.87 2.87 0 00-1.22-.29zm34.19 73.38c-.8 0-.8.15-1.61.15s-.81.24-1.61.24-.81-.13-1.61-.13h-4.84c-.81 0-.81-.31-1.61-.31s-.81.31-1.62.31-.81-.1-1.62-.1-.81.27-1.62.27-1.18.49-1.76-.08-.08-.93-.08-1.72.36-.78.36-1.57-.25-.79-.25-1.57-.11-.79-.11-1.57.17-.79.17-1.58.14-.78.14-1.57.09-.79.09-1.57v-1.58c0-.78-.17-.78-.17-1.57v-1.57c0-.78.05-.78.05-1.57s-.2-.78-.2-1.57.39-.79.39-1.57-.16-.79-.16-1.58.08-.78.08-1.57-.23-.79-.23-1.58-.19-.79-.19-1.58.14-.78.14-1.57.32-.79.32-1.57-.22-.79-.22-1.58.08-.8.08-1.59.1-.79.1-1.58-.62-.93-.09-1.52.69-.1 1.46-.18.74-.36 1.5-.43.79.11 1.56 0 .76-.15 1.53-.22.8.17 1.57.1.74-.31 1.51-.38.78 0 1.55-.06.75-.3 1.52-.38.81.31 1.58.24l1.55-.16c.49 0 .86-.45 1.24-.72a2.65 2.65 0 001-1 2.62 2.62 0 00.08-1.37 2.46 2.46 0 00-.41-1.28 2.56 2.56 0 00-1.08-.81 2.58 2.58 0 00-1.32-.32c-.82.08-.82.13-1.64.21s-.84-.06-1.67 0-.81.15-1.64.23-.84-.08-1.67 0-.79.33-1.62.41-.83 0-1.66 0-.83.06-1.66.13-.85-.1-1.68 0-1 .84-1.58.29-.19-.74-.19-1.55.2-.81.2-1.61-.19-.81-.19-1.62.16-.81.16-1.62-.1-.8-.1-1.61.15-.8.15-1.6.09-.81.09-1.62-.05-.81-.05-1.61-.33-.81-.33-1.62.21-.81.21-1.61v-1.62c0-.81.12-.81.12-1.62s-.2-.81-.2-1.62.3-.81.3-1.61v-1.63c0-.81-.15-.81-.15-1.62s-.31-.81-.31-1.63-.28-1 .23-1.62.72-.27 1.48-.4.77-.08 1.53-.21.79.09 1.55 0 .73-.31 1.48-.44.73-.32 1.49-.45.83.29 1.59.16.73-.33 1.49-.46.74-.24 1.49-.37.81.12 1.57 0 .77-.06 1.54-.2.7-.44 1.47-.58.81.11 1.57 0a3 3 0 001.33-.65 3.07 3.07 0 00.88-1.2c.16-.43-.11-.94-.2-1.43a2.49 2.49 0 00-.44-1.29 2.83 2.83 0 00-2.51-.77c-.78.14-.8 0-1.58.17s-.76.25-1.55.39-.78.2-1.56.33-.83-.1-1.62 0-.79.09-1.58.22l-1.58.28c-.78.13-.77.22-1.55.36l-1.58.27c-.79.14-.83-.11-1.62 0s-.73.45-1.52.59-.82 0-1.61.12-.74.43-1.53.57-.86-.27-1.66-.13c-.1 0-.18.17-.28.2s-.19 0-.26 0-.16.1-.24.14-.09.21-.16.26a1.33 1.33 0 00-.19.14c-.08.06-.06.2-.13.27s-.34-.09-.4 0-.08.18-.13.25l-.15.23c0 .08.12.26.08.34s.08.19.06.27-.2.12-.22.21-.22.12-.23.2.1.22.09.33-.06 0-.06 0c0 .8.13.8.13 1.6v1.61c0 .81-.15.8-.15 1.6s.21.8.21 1.6-.05.81-.05 1.61-.29.8-.29 1.61.32.81.32 1.61-.07.81-.07 1.61-.29.81-.29 1.61.15.81.15 1.61.15.81.15 1.61-.09.8-.09 1.61-.09.8-.09 1.6v4.83c0 .81.4.8.4 1.61s-.23.81-.23 1.61.24.81.24 1.62-.25.8-.25 1.61.09.8.09 1.61v1.61c0 .81-.12.8-.12 1.61s-.18.81-.18 1.61.06.81.06 1.62.29.8.29 1.61-.2.81-.2 1.61.1.81.1 1.62-.19.8-.19 1.61.31.81.31 1.62.07.8.07 1.61-.12.81-.12 1.62v1.61c0 .81-.21.81-.21 1.61v1.61c0 .8.38.81.38 1.61s-.18.81-.18 1.62v6.47c0 .81-.14.81-.14 1.62s.11.8.11 1.61.09.81.09 1.62-.1.81-.1 1.62v1.63c0 .81.26.82.26 1.63a2.33 2.33 0 00.38 1.25c.24.41.32 1 .73 1.24a3 3 0 001.43.31c.79 0 .79-.17 1.57-.17h1.57c.79 0 .78.2 1.57.2s.79.1 1.57.1.79-.27 1.58-.27h1.57c.79 0 .79.06 1.58.06s.79.17 1.57.17h1.57c.78 0 .79.16 1.58.16s.79-.36 1.58-.36.79-.13 1.59-.13.79.49 1.58.49c.5 0 .87-.55 1.27-.78a2.67 2.67 0 001.09-.83 2.79 2.79 0 00.42-1.36 3.14 3.14 0 00-.22-1.48 3 3 0 00-1.16-.93 2.89 2.89 0 00-1.66-.49z"/></g></g></svg>