<svg xmlns="http://www.w3.org/2000/svg" viewBox="0 0 286.67 81.16"><defs><style>.cls-2{fill:#202020}</style></defs><g id="レイヤー_2" data-name="レイヤー 2"><g id="design"><path fill="none" stroke="#ff5" stroke-linecap="round" stroke-linejoin="round" stroke-width="15.18" d="M112.34 49.58l17.72 17.72 44.28-53.15"/><path class="cls-2" d="M29.59 14.51a.83.83 0 00.9-.78V2.35a.62.62 0 01.71-.69h3.69a.8.8 0 00.82-.82.79.79 0 00-.82-.84h-4.25a1.77 1.77 0 00-2 2v11.73a.85.85 0 00.95.78zm10.98 1.16a1.07 1.07 0 001.18-1.13v-5h2.1L47.06 15a1.25 1.25 0 001 .72 1.3 1.3 0 001.36-1.22 1.24 1.24 0 00-.27-.72l-2.94-4.6a3.81 3.81 0 002.36-3.68c0-2.53-1.58-3.87-4.56-3.87h-1.85c-2 0-2.8.69-2.8 2.54v10.37a1.1 1.1 0 001.21 1.13zm1.18-8V4.4c0-.65.13-.85.91-.85h1.24c1.57 0 2.33.65 2.33 2a2 2 0 01-2.33 2.12zm14.31 8.05a5.28 5.28 0 003.35-1.12.89.89 0 00.28-.71.94.94 0 00-1-.93 1 1 0 00-.62.24 2.94 2.94 0 01-2 .68 2.4 2.4 0 01-2.27-2.46h4.4a1.5 1.5 0 001.63-1.69 3.88 3.88 0 00-3.88-3.95c-2.53 0-4.3 2-4.3 4.94-.01 3.09 1.68 5 4.41 5zm-.16-8.16a1.84 1.84 0 011.81 1.81c0 .16-.06.35-.32.35h-3.54a2.12 2.12 0 012.05-2.16zm8.28 8.09a1 1 0 001.12-1v-4.12c0-1.71.84-2.86 2.1-2.86a1.08 1.08 0 01.91.42c.17.19.32.56.32 1.95v2.61a9.59 9.59 0 00.2 2.28 1 1 0 001 .72c.74 0 1.26-.37 1.26-.89a2.12 2.12 0 000-.34 8.76 8.76 0 01-.19-1.95V9.75c0-1.61-.23-2.42-.87-3.13a2.92 2.92 0 00-2.36-.86 2.85 2.85 0 00-2.46 1.48v-.37a1 1 0 00-1.07-1 1 1 0 00-1.13 1v7.74a1 1 0 001.17 1.04zm14.34.07a5.28 5.28 0 003.35-1.12.89.89 0 00.28-.71.94.94 0 00-1-.93 1 1 0 00-.62.24 2.94 2.94 0 01-2 .68 2.4 2.4 0 01-2.27-2.46h4.4a1.5 1.5 0 001.63-1.69 3.88 3.88 0 00-3.89-3.95c-2.53 0-4.3 2-4.3 4.94 0 3.09 1.69 5 4.42 5zm-.16-8.16a1.84 1.84 0 011.81 1.81c0 .16-.06.35-.32.35h-3.54a2.12 2.12 0 012.05-2.16zm8.19 6.75c.17.66.49 1.34 1.5 1.34.81 0 1.27-.39 1.52-1.3l.7-2.5c.28-1 .51-2 .74-3.2.25 1.17.49 2.18.78 3.23l.66 2.45c.27.95.7 1.32 1.56 1.32s1.2-.38 1.48-1.26l2.18-7.2a1.63 1.63 0 00.07-.45c0-.52-.48-.89-1.18-.89a.91.91 0 00-.94.74l-.94 3.68c-.3 1.22-.53 2.38-.73 3.46-.08-.37-.16-.73-.23-1.09-.16-.74-.32-1.52-.53-2.3l-.81-3A1.3 1.3 0 0091 6.32c-.7 0-1.07.31-1.29 1.08l-.81 3c-.27 1-.57 2.24-.81 3.39-.15-1-.33-2.26-.6-3.49l-.79-3.62a.93.93 0 00-1-.8c-.72 0-1.2.38-1.2.93a1.9 1.9 0 00.07.46zm17.15 1.43c2.21 0 3.63-1.19 3.63-3 0-1.68-.8-2.51-2.85-3l-.65-.15c-1.4-.31-1.54-.56-1.54-1.11s.48-.92 1.29-.92a2.07 2.07 0 011.76.78 1 1 0 00.69.26 1 1 0 001-1 .92.92 0 00-.33-.76 4.45 4.45 0 00-3.14-1.09c-2 0-3.38 1.08-3.38 2.69s.77 2.42 2.94 3l.59.14c1.27.32 1.5.64 1.5 1.2 0 .77-.55 1.21-1.51 1.21a2.52 2.52 0 01-2.08-.9 1 1 0 00-.76-.34 1 1 0 00-1 .91.89.89 0 00.26.72 4.58 4.58 0 003.58 1.36zm13.3-.24V3.72a.84.84 0 00-.91-.78.82.82 0 00-.89.78V15.1a.62.62 0 01-.71.69h-3.69a.83.83 0 000 1.66h4.25A1.76 1.76 0 00117 15.5zm5.57-4.91a1.2 1.2 0 00.71-.26 7 7 0 013.63-1.83c.57 0 .91.11 1.13.66-2.82 1.43-4 2.77-4 4.48 0 1.37.86 3 5 3a21.55 21.55 0 003.71-.29 1.09 1.09 0 001-1.07 1.12 1.12 0 00-.39-.85 1.08 1.08 0 00-.9-.22 21 21 0 01-3.47.3c-2.33 0-2.62-.54-2.62-1 0-.78.69-1.53 2.11-2.28 0 .56.07 1.07.08 1.6a1 1 0 001.06.92 1.18 1.18 0 00.86-.34.93.93 0 00.26-.7c0-.88-.07-1.67-.15-2.33 1.36-.55 2.91-1.08 4.6-1.58a1 1 0 00.79-1 1 1 0 00-1-1.07 1.32 1.32 0 00-.39.06A44.35 44.35 0 00130 8.34a2.38 2.38 0 00-2.58-1.68 4.35 4.35 0 00-1.35.23c.35-.49.75-1.08 1.16-1.76 1.47-.14 2.86-.36 3.77-.52a1 1 0 00.88-1 1 1 0 00-.34-.75 1 1 0 00-.86-.19c-.74.13-1.58.25-2.43.34.18-.43.34-.85.47-1.27a.85.85 0 000-.31 1.09 1.09 0 00-2.1-.21c-.2.62-.45 1.28-.76 2-1.22.08-2.12.12-2.83.12a1 1 0 00-1.09 1 1.06 1.06 0 00.31.75 1 1 0 00.78.28h.08c.5 0 1.07 0 1.67-.07a17.21 17.21 0 01-2.92 3.32 1.14 1.14 0 00-.45.87 1.09 1.09 0 001.16 1.1zm16.79 6.21a40 40 0 006.77-1.26 1 1 0 00.77-1 .94.94 0 00-.94-1 2.3 2.3 0 00-.26 0c-.85.21-1.62.37-2.35.5v-3.67h1.8a11 11 0 008.11 6.57 1 1 0 00.24 0 1.13 1.13 0 00.74-.26 1.06 1.06 0 00.38-.81 1 1 0 00-.94-1 10.9 10.9 0 01-3.88-1.63 20.65 20.65 0 003.2-1.67 1 1 0 00.47-.82 1 1 0 00-1-1 1 1 0 00-.67.24 17.42 17.42 0 01-3.44 1.94 9 9 0 01-1.1-1.57h1.71c1.28 0 2.47-.3 2.51-2.1V4.49c0-1.46-.83-2.17-2.52-2.17h-1.66V.84c0-.58-.57-.84-1.09-.84s-1.09.29-1.09.84v1.48h-1.49c-1.69 0-2.51.71-2.51 2.17v10c-.58.08-1.14.14-1.67.2h-.33a1 1 0 00-.86 1 1.1 1.1 0 00.33.79 1 1 0 00.77.32zm3.94-11.33v-.63c0-.43.12-.64.78-.64h4.34c.66 0 .79.21.79.64v.63zm5.91 1.73v.66c0 .4-.13.62-.79.62h-5.12V7.2zm14.43 8.85a1.24 1.24 0 001.1.64 1.19 1.19 0 001.26-1.14 1.51 1.51 0 00-.29-.8 54.68 54.68 0 00-4.58-5.61c-.27-.31-.41-.5-.41-.78s.1-.41.35-.72a43.68 43.68 0 004.1-5.09 1.33 1.33 0 00.24-.7A1.16 1.16 0 00164.2.74a1.08 1.08 0 00-.93.53 34.38 34.38 0 01-4 5.17 2.66 2.66 0 00-.87 1.94 3.06 3.06 0 001 2.07 49.08 49.08 0 014.24 5.6zm16.97-10.61c1.87-.06 3.64-.11 5.21-.11a1 1 0 001-1 1 1 0 00-1-1.09c-1.43 0-3.12 0-5.17.08v-2a1 1 0 00-1.08-1 1 1 0 00-1.1 1v2.1c-2.16.08-4.56.2-7 .34a1 1 0 00-1 1.07 1.2 1.2 0 00.35.86 1 1 0 00.76.27c1.85-.13 4.17-.25 6.89-.37v1.2a4.67 4.67 0 00-1-.11 2.84 2.84 0 00-2.89 3.09 3.41 3.41 0 00.9 2.46 3.12 3.12 0 002.27.88 2.22 2.22 0 001.17-.31 5.31 5.31 0 01-2.6 2.2 1.09 1.09 0 00.36 2.12 1.57 1.57 0 00.53-.11 6.34 6.34 0 004.11-6.09 4.74 4.74 0 00-.61-2.43c-.04-.99-.08-1.94-.1-3.05zm-2.74 5.63a1.24 1.24 0 01-1.15-1.32c0-.71.37-1.18.95-1.18a1.21 1.21 0 011.16 1.34c0 .73-.36 1.16-.96 1.16zM198.23 14a3.67 3.67 0 00-3.52-2.91 2.35 2.35 0 00-2.61 2.4c0 1.74 1.7 3 4.14 3 3.57 0 5.88-2.06 5.88-5.26 0-2.51-1.87-4.14-4.75-4.14a6.18 6.18 0 00-2 .35 40.58 40.58 0 003.4-3.86 1.52 1.52 0 00.34-.91 1.16 1.16 0 00-.41-.9 1.45 1.45 0 00-1.2-.31c-1.73.27-3.63.48-5.08.57a1 1 0 00-1 1 1.11 1.11 0 00.33.81.94.94 0 00.75.26c1.39-.1 2.51-.22 3.41-.36A40.3 40.3 0 01190 9.58a1.17 1.17 0 00-.49.93 1.12 1.12 0 001.11 1.09 1.38 1.38 0 00.82-.31A9.13 9.13 0 01197.17 9c1.58 0 2.64.89 2.64 2.2a3 3 0 01-1.58 2.8zm-3.56-1.11c.67 0 1.17.52 1.47 1.56-1.24 0-2-.37-2-1a.56.56 0 01.53-.59zm11.97-6.23c.61 0 1.28-.1 2-.19a47.41 47.41 0 01-2.38 8.3 1.41 1.41 0 00-.11.54 1 1 0 001.09 1 1.28 1.28 0 001.19-.85 54.21 54.21 0 002.51-9.43c.76-.17 1.53-.36 2.28-.58a1 1 0 00.78-1 1 1 0 00-1-1.05 1.45 1.45 0 00-.29 0l-1.41.33c.09-.56.18-1.2.27-2.06a1 1 0 00-.23-.75 1.17 1.17 0 00-.88-.37 1 1 0 00-1.09.92l-.05.49c-.08.76-.15 1.42-.28 2.2a22.6 22.6 0 01-2.47.3 1.05 1.05 0 00-1 1.09 1.06 1.06 0 00.33.79.94.94 0 00.74.32zm6.61.93a1.06 1.06 0 00.38.83 1 1 0 00.61.21h.25a23.45 23.45 0 014.37-.47 1 1 0 001-1 1 1 0 00-1.07-1.07 25.09 25.09 0 00-4.65.49 1.06 1.06 0 00-.89 1.01zm6.15 5.93a16.09 16.09 0 01-2.41.18c-1.93 0-2.52-.31-2.64-1.38a.91.91 0 00-1-.85 1.15 1.15 0 00-.84.34 1 1 0 00-.27.79c.13 2.26 1.59 3.27 4.74 3.27a17.35 17.35 0 002.72-.2 1.06 1.06 0 00.91-1.06 1.15 1.15 0 00-.38-.86 1.06 1.06 0 00-.83-.23zm7.09 1.17a3.84 3.84 0 002.67-1.1c.1.23.22.47.36.74a1 1 0 00.9.6 1.07 1.07 0 001.07-1 1.26 1.26 0 00-.13-.55c-.21-.4-.42-.82-.61-1.25a17.28 17.28 0 002.89-5.81 3.38 3.38 0 013.11 3.36c0 2-.95 3.25-3.17 4a1.12 1.12 0 00.3 2.21 1.68 1.68 0 00.37-.06h.05a6.11 6.11 0 004.7-6.21 5.24 5.24 0 00-4.92-5.27c.12-.61.22-1.26.31-1.93a1 1 0 00-.23-.75 1.21 1.21 0 00-.88-.37 1 1 0 00-1.07.86c-.08.74-.18 1.45-.31 2.19a9.38 9.38 0 00-3.3 1c-.18-.89-.29-1.61-.37-2.27a.94.94 0 00-1-.85 1.17 1.17 0 00-.87.37.87.87 0 00-.22.72 28.47 28.47 0 00.58 3.24 7 7 0 00-2.83 5.3c.02 1.77.99 2.83 2.6 2.83zm2.57-7.41a8.14 8.14 0 012.37-.91 15.07 15.07 0 01-1.55 3.55c-.33-.92-.6-1.85-.82-2.64zm-2.49 5.29c-.38 0-.59-.36-.59-1a4.47 4.47 0 011.31-2.92c.33 1.08.7 2.12 1 3a2.54 2.54 0 01-1.72.92zM246 14.44c1.57 0 2.59-.67 3.53-2.32a18.21 18.21 0 002-7.59 4.29 4.29 0 014.14 4.39c0 2.28-1.11 3.75-3.51 4.61a1.13 1.13 0 00-.83 1.08 1.11 1.11 0 001.11 1.13 1.33 1.33 0 00.45-.08A6.81 6.81 0 00258 8.92c0-3.85-2.83-6.44-7-6.44-4.82 0-8.46 3.26-8.46 7.58-.04 3.03 1.7 4.38 3.46 4.38zm0-2.21c-.58 0-1.2-.57-1.2-2.17a5.59 5.59 0 014.46-5.39 16 16 0 01-1.78 6.4c-.48.81-.93 1.16-1.48 1.16zM16.17 34.34l-10.82.07a1.09 1.09 0 000 2.18l10.23-.07c.31 0 .31.09.31.12a.53.53 0 01-.11.27 9.13 9.13 0 01-1.87 2 1.26 1.26 0 00-.54 1A1.08 1.08 0 0014.44 41a1.35 1.35 0 00.82-.31 13.55 13.55 0 002.89-3.16 2.79 2.79 0 00.48-1.42 1.53 1.53 0 00-.45-1.11 2.71 2.71 0 00-2.01-.66z"/><path class="cls-2" d="M7.58 48.12a9.48 9.48 0 004.8-8.62v-.85a1 1 0 00-1.14-1 1.06 1.06 0 00-1.15 1v.85a7.16 7.16 0 01-3.68 6.67 1.29 1.29 0 00-.71 1.07 1.13 1.13 0 001.14 1.11 1.42 1.42 0 00.74-.23zM22 43.15a1.24 1.24 0 00.67-.18 31.6 31.6 0 004.41-2.9v7.64a1.17 1.17 0 002.33 0v-7.9a1 1 0 00-.81-1 29.3 29.3 0 003.67-3.89 1.24 1.24 0 00.27-.73 1.18 1.18 0 00-1.2-1.11 1.23 1.23 0 00-1 .51 27.42 27.42 0 01-8.72 7.35 1.27 1.27 0 00-.73 1.1A1.1 1.1 0 0022 43.15zm18.15 5.46a9.78 9.78 0 004.59-7.79h5.17a1.06 1.06 0 000-2.1H37a.93.93 0 00-.87 1.05 1 1 0 00.87 1h5.42A7.26 7.26 0 0139 46.65a1.12 1.12 0 00-.59 1 1.18 1.18 0 001.13 1.16 1.26 1.26 0 00.61-.2zm-.9-12h7.67a1.09 1.09 0 000-2.14h-7.67a1.09 1.09 0 000 2.14zM48.43 33a.81.81 0 00-.84.73.71.71 0 00.15.44 15 15 0 011.09 1.7.85.85 0 00.75.49.8.8 0 00.8-.81 1.05 1.05 0 00-.12-.46 10.37 10.37 0 00-1.18-1.78.8.8 0 00-.65-.31zm2.4 1.65a.9.9 0 00.77.49.81.81 0 00.82-.81 1 1 0 00-.14-.5 10.26 10.26 0 00-1.22-1.69.88.88 0 00-.68-.3.78.78 0 00-.83.71.77.77 0 00.17.46 15.83 15.83 0 011.11 1.64zm12.79 4.85v-.85a1.16 1.16 0 00-2.29 0v.85a7.16 7.16 0 01-3.68 6.67 1.3 1.3 0 00-.72 1.07 1.14 1.14 0 001.15 1.11 1.42 1.42 0 00.73-.23 9.49 9.49 0 004.81-8.62z"/><path class="cls-2" d="M67.12 36.64a.5.5 0 01-.1.27 9.64 9.64 0 01-1.87 2 1.27 1.27 0 00-.55 1A1.08 1.08 0 0065.68 41a1.38 1.38 0 00.82-.31 13.51 13.51 0 002.88-3.16 2.7 2.7 0 00.48-1.42 1.49 1.49 0 00-.45-1.11 2.71 2.71 0 00-2-.63l-10.82.07a1.09 1.09 0 000 2.18l10.23-.07c.3-.03.3.06.3.09zM80 32.7a1.11 1.11 0 00-1.11 1.07 1.06 1.06 0 00.52.88 13.83 13.83 0 011.75 1.25 1.12 1.12 0 00.79.32 1.16 1.16 0 001.14-1.11 1.14 1.14 0 00-.45-.87 9.66 9.66 0 00-2-1.34 1.34 1.34 0 00-.64-.2z"/><path class="cls-2" d="M78.8 48.07a1 1 0 001 .71 1.1 1.1 0 001.14-1.05 1.42 1.42 0 00-.06-.38l-2.65-7.84a15.82 15.82 0 015.24-1.06c1.47 0 2.28.47 2.28 1.32s-.65 1.47-1.74 1.47a5.26 5.26 0 01-1.23-.16 1.26 1.26 0 00-.37 0 1.07 1.07 0 00-1.11 1.07 1.2 1.2 0 001 1.14 7.28 7.28 0 001.81.19c2.4 0 4-1.44 4-3.67s-1.74-3.38-4.54-3.38a18.24 18.24 0 00-6 1.15l-.94-2.77a1 1 0 00-1-.65 1.09 1.09 0 00-1.18 1 1 1 0 00.06.32l1 2.9c-.8.32-1.69.7-2.72 1.17a1.07 1.07 0 00.36 2.05 1.22 1.22 0 00.5-.12c.85-.4 1.68-.77 2.54-1.11zm28.9-.43c0-.49-.25-1-.83-1h-6v-3.26h3.54a1 1 0 000-2h-3.54v-2.85a1 1 0 00-1.09-.91 1 1 0 00-1.09.91v8.13h-2.22v-4.87c0-.62-.55-.89-1.09-.89s-1.09.27-1.09.89v4.87h-2a1 1 0 000 2h14.57a.88.88 0 00.84-1.02z"/><path class="cls-2" d="M92.51 41a27.45 27.45 0 007-6 25.7 25.7 0 007 5.73 1.5 1.5 0 00.71.21 1.09 1.09 0 001.07-1.11 1.22 1.22 0 00-.7-1.08 23.39 23.39 0 01-6.93-5.45 2.11 2.11 0 000-.25 1 1 0 00-1.09-.94 1.15 1.15 0 00-1 .51 23.38 23.38 0 01-7.12 6.58 1.08 1.08 0 00-.58 1 1.05 1.05 0 001 1 1.1 1.1 0 00.64-.2zm34.19-7.69h-14.87a1 1 0 000 2h6.36v1.38h-1.1c-1.56 0-2.23.61-2.23 2v4.59c0 1.42.67 2 2.23 2h4.36c1.32 0 2.2-.39 2.22-2v-4.59c0-1.42-.67-2-2.22-2h-1.18v-1.41h6.43a.89.89 0 00.86-1 .91.91 0 00-.86-.97zm-5 6.74h-1.44v-1.57h1c.41 0 .46.08.46.39zm0 1.75v1.3c0 .31 0 .39-.46.39h-1V41.8zm-4.81-1.75v-1.18c0-.31 0-.39.46-.39h.91v1.57zm1.37 1.75v1.69h-.9c-.37 0-.45 0-.47-.39v-1.3z"/><path class="cls-2" d="M125.87 36.32c-.53 0-1.1.28-1.1.89v8.41c0 .68-.24.87-1.06.87h-8.84c-.81 0-1.05-.19-1.05-.87V37.3c0-.61-.57-.89-1.11-.89s-1.11.28-1.11.89v8.59c0 1.78.94 2.61 3 2.61h9.4c2 0 2.94-.83 2.94-2.61v-8.68c.06-.61-.53-.89-1.07-.89zM146 31.91a1 1 0 00-.61-.23.82.82 0 00-.85.76.68.68 0 00.22.5c.4.42.91 1 1.33 1.49a.89.89 0 00.71.36.8.8 0 00.82-.78.91.91 0 00-.22-.6 9.31 9.31 0 00-1.4-1.5zm-11.1 2.32c-.12 1-.29 2.12-.51 3.23-.87.1-1.87.23-2.8.41a1 1 0 00-.89 1 1.07 1.07 0 00.37.82 1 1 0 00.85.17c.68-.14 1.35-.25 2-.34a30.36 30.36 0 01-2.71 6.88 1.31 1.31 0 00-.17.6 1 1 0 001.09 1 1.23 1.23 0 001-.62 34.15 34.15 0 003-8.1h1.25c.74 0 1.08.28 1.08 1.95a14.23 14.23 0 01-.47 3.88c-.29 1-.58 1.19-1.16 1.19a7.21 7.21 0 01-.84-.06h-.14a1 1 0 00-.82.22 1.12 1.12 0 00-.36.85 1.07 1.07 0 001 1.07 8.12 8.12 0 001.24.09c1.86 0 2.73-.76 3.3-2.88a16 16 0 00.49-4.33c0-2.9-.88-4-3.25-4h-.85c.19-1 .34-1.95.45-2.86a1 1 0 00-.24-.77 1.16 1.16 0 00-.87-.36 1 1 0 00-1.04.96zm11.35 5.82a16.28 16.28 0 00-2.88-4 1.32 1.32 0 00-.9-.37 1.09 1.09 0 00-1.14 1 1.12 1.12 0 00.31.72 17.72 17.72 0 012.54 3.68 1.22 1.22 0 001.08.74 1.13 1.13 0 001.14-1.14 1.45 1.45 0 00-.15-.66zm-3.48-6.17a.76.76 0 00.21.49 13.93 13.93 0 011.32 1.51.81.81 0 00.67.39.84.84 0 00.64-1.36 8.6 8.6 0 00-1.42-1.59.85.85 0 00-1.42.56zm11.42 1.2c-.75.05-1.57.07-2.42.07a1 1 0 00-1 1 1 1 0 001 1c.68 0 1.44 0 2.22-.05a32 32 0 00-.14 2.24c-3.13 1.46-4.25 3.81-4.25 5.4a2.5 2.5 0 002.64 2.69 4.35 4.35 0 002.22-.57.29.29 0 010 .09l.06.23a1 1 0 001 .72 1 1 0 001.11-1 1.51 1.51 0 000-.26c-.09-.33-.16-.67-.22-1a13.2 13.2 0 003.48-5.17 3 3 0 012.27 2.83c0 1.58-1 2.67-3.17 3.32a1.09 1.09 0 00-.85 1 1.07 1.07 0 001.06 1.1 2.39 2.39 0 00.31 0c3.06-.75 4.88-2.78 4.88-5.43a4.8 4.8 0 00-3.88-4.65v-.16c0-.09 0-.18.08-.28v-.06a1.2 1.2 0 000-.2 1.05 1.05 0 00-2-.16c0 .22-.11.43-.17.64a11.62 11.62 0 00-2.47.26c0-.29 0-.57.07-.86l.06-.85c1.7-.14 3-.31 4.08-.5a1 1 0 00.88-1 1 1 0 00-.35-.78 1.07 1.07 0 00-.9-.21c-1 .18-2.22.34-3.47.44.09-.53.17-1.09.25-1.65a.85.85 0 00-.18-.7 1.15 1.15 0 00-.85-.36 1 1 0 00-1.07.86c-.13.73-.22 1.38-.28 2.01zm-1.82 10.3c-.54 0-.64-.21-.66-.75a4.08 4.08 0 012.11-3.13 27.7 27.7 0 00.26 3.28 3.13 3.13 0 01-1.71.6zm5.37-5.07a11.55 11.55 0 01-1.74 2.92c-.08-.88-.12-1.68-.12-2.38v-.23a9.49 9.49 0 011.86-.31zm19.47-7.23a1.26 1.26 0 00-1 .39 1 1 0 00-.23.75 46.12 46.12 0 01.36 5.62 8.22 8.22 0 01-3 6.86 1.29 1.29 0 00-.5 1 1.12 1.12 0 001.16 1.08 1.38 1.38 0 00.82-.31 10.14 10.14 0 004-8.63 44.53 44.53 0 00-.38-5.81 1.11 1.11 0 00-1.23-.95zM171 43.65a1.57 1.57 0 001.33-.79 15.54 15.54 0 001.27-3 1.09 1.09 0 000-.24.86.86 0 00-.91-.82.91.91 0 00-.87.64c-.13.38-.23.66-.34.93v-1a25.06 25.06 0 01.67-4.79 1.92 1.92 0 000-.22 1 1 0 00-1.09-.91 1.14 1.14 0 00-1.13.81 25.36 25.36 0 00-.67 5.32 12.37 12.37 0 00.44 3.12 1.27 1.27 0 001.3.95zm16 .46a1.4 1.4 0 00-.69-.21 1.06 1.06 0 00-1.07 1 1 1 0 00.46.82 17.71 17.71 0 012.79 2.73 1.18 1.18 0 001 .49 1.13 1.13 0 001.14-1.11 1.46 1.46 0 00-.34-.89 14.92 14.92 0 00-3.29-2.83zm14.08.29c0 2.4 2 3.93 5.29 4a1.15 1.15 0 00.81-.31 1.12 1.12 0 00.33-.8 1.05 1.05 0 00-1.09-1.07c-2.21-.1-3.16-.69-3.16-2 0-.64.24-2.23 2.45-3.35a15.27 15.27 0 013.05-1 1.05 1.05 0 00.91-1 1 1 0 00-.36-.79 1.18 1.18 0 00-1-.23l-.57.12c-2.56.52-4.45.91-6.43 1.35a23 23 0 004.11-4 1.42 1.42 0 00.35-.89 1.29 1.29 0 00-1.38-1.25 1.39 1.39 0 00-.4 0 43.92 43.92 0 01-5.27.92 1 1 0 00-.87 1 1.1 1.1 0 00.35.84 1 1 0 00.78.23c.91-.11 2.09-.33 3.6-.65a24.3 24.3 0 01-4 3.39 12.86 12.86 0 01-2.78 1.37 1.11 1.11 0 00-.81 1 1.12 1.12 0 001.09 1.13 1.29 1.29 0 00.37-.06l.21-.06c.55-.16 1.07-.32 1.62-.44 1.52-.39 2.83-.7 4.21-1a4.47 4.47 0 00-1.41 3.55zm17.74-2.93c2.63-2.73 4-3.85 4.74-3.85a.46.46 0 01.34.11 1 1 0 01.14.74l-.33 6.12a2.17 2.17 0 002.48 2.59 4.72 4.72 0 003.46-1.81 1.21 1.21 0 00.35-.83 1.12 1.12 0 00-1.11-1.09 1.17 1.17 0 00-.88.41c-.87.93-1.36 1-1.66 1a.39.39 0 01-.28-.07.54.54 0 01-.07-.36l.34-6.34a2.77 2.77 0 00-.62-2.11 2.28 2.28 0 00-1.75-.66c-1.27 0-2.62.86-5.09 3.27v-.45c.54-.6.65-.94.65-1.26a.66.66 0 00-.61-.67l.06-2.46a.87.87 0 00-.24-.63 1.09 1.09 0 00-.82-.32 1 1 0 00-1.07.94v2.75l-2.34.4a.94.94 0 00-.79 1 1.07 1.07 0 00.36.83.85.85 0 00.73.18l2-.37v.95a49.43 49.43 0 01-3 5 1 1 0 00-.18.56 1.11 1.11 0 001.09 1 1 1 0 00.84-.5l1.18-1.81-.05 3.7a1 1 0 001.06 1 1 1 0 001.07-1zm25.35 6.88a1.09 1.09 0 00.59-1.92 1.06 1.06 0 00-.89-.22 21.26 21.26 0 01-3.48.3c-2.32 0-2.62-.54-2.62-1 0-.78.69-1.53 2.12-2.28 0 .42.06 1 .07 1.6a1 1 0 001.06.92 1.18 1.18 0 00.86-.34.93.93 0 00.26-.7c0-.88-.06-1.67-.15-2.33 1.37-.55 2.92-1.08 4.6-1.58a1.06 1.06 0 00-.24-2.09 1.37 1.37 0 00-.39.06c-1.59.48-3.07 1-4.42 1.58a2.37 2.37 0 00-2.54-1.69 4.41 4.41 0 00-1.36.23c.36-.49.75-1.08 1.16-1.76 1.47-.14 2.87-.36 3.78-.52a1 1 0 00.87-1 1 1 0 00-.34-.75 1 1 0 00-.86-.19c-.74.13-1.58.25-2.43.34a12.15 12.15 0 00.47-1.27.7.7 0 00.05-.31 1 1 0 00-1.09-.93 1 1 0 00-1 .72c-.2.62-.45 1.28-.77 2-1.22.08-2.12.12-2.83.12a1 1 0 00-1.09 1 1 1 0 001 1h.12c.51 0 1.07 0 1.67-.07a17.51 17.51 0 01-2.91 3.32 1.14 1.14 0 00-.45.87 1.09 1.09 0 001.07 1.05 1.2 1.2 0 00.71-.26 7 7 0 013.63-1.83c.57 0 .91.11 1.13.66-2.82 1.43-4 2.77-4 4.48 0 1.37.86 3 4.94 3a21.48 21.48 0 003.7-.21zm19.92-1.85v-9.57c0-1.5-.92-2.26-2.73-2.26h-2.64c.15-.37.31-.79.45-1.23a1.29 1.29 0 00.06-.37 1.05 1.05 0 00-1.13-1 1.09 1.09 0 00-1.09.79c-.2.72-.39 1.29-.58 1.81h-1.57c-1.81 0-2.73.76-2.73 2.26v9.57c0 1.48.92 2.23 2.73 2.23h6.5c1.25-.03 2.69-.31 2.73-2.23zm-2.18-2v1.57c0 .42-.13.68-.77.68h-6.06c-.55 0-.77-.19-.77-.68v-1.59zm-7.6-5.89v-1.29c0-.43.13-.69.77-.69h6.06c.64 0 .77.26.77.69v1.27zm7.6 1.93v2h-7.6v-2zm9.59 3.69a7.51 7.51 0 015.5-2.7c1.75 0 2.37.88 2.37 1.7 0 1.73-1.62 2.83-4.67 3.19a1.09 1.09 0 00-.64 1.89 1.05 1.05 0 00.73.27h.21c4.27-.5 6.71-2.45 6.71-5.36 0-2.17-1.92-3.68-4.67-3.68a8.55 8.55 0 00-5.12 1.81c.11-.56.25-1.21.4-1.94s.26-1.23.41-1.93a.89.89 0 00-.18-.75 1.19 1.19 0 00-.93-.4 1.07 1.07 0 00-1.09.84c-.41 1.92-.84 4.23-1.13 6.16a1.17 1.17 0 00.24 1 1.23 1.23 0 00.9.41 1.29 1.29 0 00.96-.51zm1.96-9.23a27.71 27.71 0 012.92 1.11 1.45 1.45 0 00.58.14 1.07 1.07 0 001.04-1.07 1.17 1.17 0 00-.69-1.08 14.5 14.5 0 00-3.12-1.1 1.87 1.87 0 00-.32 0 1.15 1.15 0 00-1.16 1.14 1 1 0 00.75.86zM15.49 75.13H.8A.93.93 0 00.8 77h14.69a.93.93 0 000-1.85zM5.2 74.41h5.89c1.43 0 2.4-.4 2.42-2.08v-5.42c0-1.46-.73-2.08-2.43-2.08H5.2c-1.7 0-2.43.62-2.43 2.08v5.42c0 1.46.73 2.08 2.43 2.08zm-.36-6.92V67c0-.29.06-.4.64-.4h5.31c.59 0 .64.11.64.4v.51zm6.59 4.22v.55c0 .28 0 .4-.64.4H5.45c-.42 0-.61 0-.61-.4v-.55zm-6.59-1.64v-.94h6.59v.94zm.73 7.16a1.15 1.15 0 00-.64.2 18 18 0 01-3.82 1.75 1 1 0 00-.75.94 1 1 0 001 1 1.13 1.13 0 00.36-.06A20.16 20.16 0 006.13 79a1 1 0 00.5-.8 1.06 1.06 0 00-1.06-.97zM15 79a26.46 26.46 0 01-3.7-1.65 1.35 1.35 0 00-.62-.17.95.95 0 00-.5 1.82 24.59 24.59 0 004.23 2 1.08 1.08 0 00.42.08 1 1 0 001-1A1.11 1.11 0 0015 79zm11.41-3.43a1 1 0 00-.93-1 1.07 1.07 0 00-.41.08l-.34.13-.82.29v-3h1a.87.87 0 00.8-1 .86.86 0 00-.8-1h-1v-2.7h1.36a.87.87 0 00.8-1 .88.88 0 00-.8-1H20.4a.88.88 0 00-.8 1 .87.87 0 00.8 1h1.4v2.7h-1.13a.87.87 0 00-.8 1 .88.88 0 00.8 1h1.13v3.67l-.19.06-1.39.36a1 1 0 00-.82 1 1 1 0 001 1 .93.93 0 00.24 0 31.41 31.41 0 005.13-1.7.93.93 0 00.64-.89z"/><path class="cls-2" d="M35.51 77.29a.88.88 0 00-.91.83c-.09.86-.29 1-1 1s-.52-.06-.52-.28v-3.68a1.75 1.75 0 002-2v-6.41c0-1.39-.7-2-2.21-2h-3.8c-1.5 0-2.2.64-2.2 2v6.39c0 1.26.51 1.88 1.64 2a5.08 5.08 0 01-3.51 4 1.08 1.08 0 00-.76 1 1 1 0 001 1 1.52 1.52 0 00.47-.1 7.05 7.05 0 004.8-5.82h.64v4c0 1.19.32 1.68 2.32 1.68s2.81-.66 3-2.63a.86.86 0 00-.2-.65 1 1 0 00-.76-.33zM29 67.65v-.71c0-.32.08-.4.42-.4h3.08c.34 0 .43.08.43.4v.71zm0 2.85v-1.13h3.93v1.13zm3.93 1.71V73c0 .29-.07.39-.43.39h-3.08c-.35 0-.42-.1-.42-.39v-.8zm11.4-7.63a1.08 1.08 0 00-1.07.73 22.26 22.26 0 01-3.83 6.9 1.07 1.07 0 00.81 1.84 1.16 1.16 0 00.83-.39 15.82 15.82 0 001.12-1.43v8c0 .56.55.85 1.09.85s1.09-.26 1.09-.85v-9.41a.88.88 0 00-.73-.87 23.77 23.77 0 001.81-4 1.13 1.13 0 00.06-.36 1.12 1.12 0 00-1.18-1.01zm10.39 11.66a1 1 0 00-1 .87c-.15 1.24-.47 1.58-2.41 1.58-1.61 0-1.68-.21-1.68-.73v-5.24a23.48 23.48 0 004.86-2.94 1 1 0 00.44-.84 1.17 1.17 0 00-1.13-1.14 1.07 1.07 0 00-.71.27 20.86 20.86 0 01-3.48 2.35v-4.88a1.11 1.11 0 00-2.21 0V78.2c0 1.91.87 2.46 3.91 2.46s4.23-.78 4.51-3.33a.87.87 0 00-.21-.72 1.21 1.21 0 00-.89-.37zm16.12-1.44a1.19 1.19 0 00-.94.49c-1.51 1.87-3 2.7-4.82 2.7-1.15 0-1.91-.5-1.91-3 0-3.41.26-7.33.37-8.85a.93.93 0 00-.24-.74 1.21 1.21 0 00-.9-.36 1.07 1.07 0 00-1.15 1c-.11 1.52-.37 5.43-.37 8.94s1.29 5.18 4.2 5.18c2.55 0 4.72-1.17 6.65-3.57a1.1 1.1 0 00-.89-1.82zm18.44 2.72a16.13 16.13 0 01-2.42.18c-1.92 0-2.52-.31-2.63-1.39a.92.92 0 00-1-.84 1.12 1.12 0 00-.83.34 1.06 1.06 0 00-.28.79c.13 2.26 1.6 3.26 4.75 3.26a17.5 17.5 0 002.72-.19 1.06 1.06 0 00.91-1.06 1.15 1.15 0 00-.38-.86 1.06 1.06 0 00-.84-.23zm-.6-7.47a25.09 25.09 0 00-4.65.49 1.07 1.07 0 00-.52 1.88.94.94 0 00.61.21h.24a23.55 23.55 0 014.38-.47 1 1 0 001-1 1 1 0 00-1.06-1.11zm-4.81-1.56a1 1 0 00-1-1 1.45 1.45 0 00-.3 0l-1.37.33c.08-.56.17-1.19.27-2.06a1 1 0 00-.23-.75 1.21 1.21 0 00-.88-.37 1 1 0 00-1.09.92l-.06.49c-.08.76-.15 1.42-.27 2.2a22.46 22.46 0 01-2.48.3 1 1 0 00-1 1.09 1.06 1.06 0 00.33.79 1 1 0 00.77.24c.6 0 1.27-.1 2-.19a47.66 47.66 0 01-2.38 8.3 1.43 1.43 0 00-.12.54 1.05 1.05 0 001.09 1 1.31 1.31 0 001.2-.85 54.45 54.45 0 002.51-9.43c.76-.17 1.52-.36 2.28-.58a1 1 0 00.73-.97zm16.6 6.24a1 1 0 00-1 .85c-.37 1.37-.74 1.56-1.08 1.56-.67 0-1.93-1.64-1.93-7.85v-1.64a1 1 0 00-.26-.76 1.28 1.28 0 00-.9-.35 1.09 1.09 0 00-1.15 1c0 .45-.07 1-.07 1.84 0 8.4 2.34 10.16 4.3 10.16 1 0 2.35-.58 3.12-3.36a1 1 0 000-.34 1.1 1.1 0 00-1.03-1.11zm8.53-.48a14.52 14.52 0 00-3.52-5.53 1.28 1.28 0 00-.86-.37 1.1 1.1 0 00-1.13 1 1 1 0 00.34.73A16 16 0 01107 75a1.1 1.1 0 002.15-.31 1.17 1.17 0 00-.06-.35zm14.29 3.49a19.69 19.69 0 01-3.7.32c-2.92 0-3.51-.61-3.51-1.59s.69-2 2-2.83a20.84 20.84 0 014.71-2.08 1 1 0 00.74-1 1.08 1.08 0 00-1-1.11 1 1 0 00-.35.06 26 26 0 00-3.45 1.35 32.4 32.4 0 01-.39-5.12 1.14 1.14 0 00-2.28 0 29 29 0 00.65 6.31c-2 1.37-2.92 2.8-2.92 4.51 0 2.48 1.88 3.68 5.77 3.68a21 21 0 004.16-.34 1.09 1.09 0 00.89-1.11 1.13 1.13 0 00-.39-.86 1.09 1.09 0 00-.93-.19zM144.48 69h-3.3a27.93 27.93 0 002.23-2.27 1.12 1.12 0 00.29-.71 1 1 0 00-1-1 1.11 1.11 0 00-.86.41c-.44.53-.91 1-1.39 1.54a.86.86 0 00-.83-.91h-2v-1.13a1.11 1.11 0 00-2.17 0v1.18h-3.79a.88.88 0 00-.87.91.87.87 0 00.87.92h3.79V69h-5.77a.95.95 0 000 1.89h6.06l-.25.15-.38.22a1.14 1.14 0 00-.4-.08 1.09 1.09 0 00-1.14.9 37.88 37.88 0 01-4.26 1.82 1 1 0 00-.73.94 1 1 0 001 1 1.26 1.26 0 00.43-.08c1-.37 2.09-.86 3.23-1.43-.15.74-.33 1.51-.54 2.29a1.45 1.45 0 000 .29 1 1 0 001 .89 1 1 0 001.05-.76c0-.07 0-.12.05-.18h5.8q.32 0 .39.09v.2a5.49 5.49 0 01-.39 1.49c-.18.47-.37.54-.72.54a7.74 7.74 0 01-1.17-.12 1 1 0 00-.85.19 1 1 0 00-.34.75 1 1 0 00.93 1 9.27 9.27 0 001.58.13 2.39 2.39 0 002.61-1.72 10.54 10.54 0 00.62-2.33 1.69 1.69 0 00-.32-1.36 2.43 2.43 0 00-1.9-.6h-5.86v-.34a52.15 52.15 0 006.82-1.24 1 1 0 00.78-.94.94.94 0 00-.95-.95 1.29 1.29 0 00-.37.06c-1.77.49-3.63.89-5.54 1.22a49.77 49.77 0 003.2-2h5.39a.95.95 0 000-1.89zm-6.88 0v-1.1h1.89c-.39.37-.82.74-1.27 1.1zm24.67 8.32a2.36 2.36 0 00-.29 0 14.57 14.57 0 01-2.88.36c-.81 0-1-.25-1.07-1.38v-.38c-.09-2-1.16-2.38-2-2.38a2.76 2.76 0 00-.6.08l2.83-2.9a1.35 1.35 0 00.39-1 1.3 1.3 0 00-.45-1 1.56 1.56 0 00-1.27-.32l-6.32 1a1 1 0 00-.93 1.05 1.12 1.12 0 00.39.85 1 1 0 00.88.22l4.48-.79-6.73 7.1a1.16 1.16 0 00-.37.85 1.1 1.1 0 001.11 1.05 1.16 1.16 0 00.88-.41 34.72 34.72 0 013.11-3.14 3.13 3.13 0 011.9-.84c.24 0 .52.09.56.84v.42c.13 2.27 1.08 3.2 3.29 3.2a15.34 15.34 0 003.4-.38 1 1 0 00.82-1 1.06 1.06 0 00-1.13-1.1zm-8.74-12.47a1.1 1.1 0 00-.92.24 1.12 1.12 0 00-.38.83 1 1 0 00.93 1 24.84 24.84 0 013.45.84 1.31 1.31 0 00.43.08 1.07 1.07 0 001-1.09 1.09 1.09 0 00-.81-1 18.05 18.05 0 00-3.7-.9zm23.9 1.56c-3.89.36-8.54.87-12.14 1.34a1.07 1.07 0 00-1 1.08 1.16 1.16 0 00.39.87 1.07 1.07 0 00.92.24l2-.29c1.84-.28 3.74-.56 5.29-.77a7.31 7.31 0 00-2.76 5.52c0 3.1 2.42 5.44 5.88 5.7h.11a1.17 1.17 0 00.11-2.33c-2.5-.3-3.82-1.48-3.82-3.43 0-1.36.35-3.38 3.36-5.09a5.82 5.82 0 012-.71 1.06 1.06 0 00.9-1.07 1.1 1.1 0 00-.33-.79 1.14 1.14 0 00-.91-.27zm11.66 8.32a1 1 0 00-1 .85c-.36 1.37-.73 1.56-1.07 1.56-.67 0-1.93-1.64-1.93-7.85 0-.56 0-1 .05-1.4v-.24a1.05 1.05 0 00-.26-.76 1.28 1.28 0 00-.9-.35 1.09 1.09 0 00-1.15 1c0 .45-.07 1-.07 1.84 0 8.4 2.33 10.16 4.29 10.16 1 0 2.36-.58 3.12-3.36a.83.83 0 00.05-.34 1.1 1.1 0 00-1.13-1.11zm8.56-.48a14.52 14.52 0 00-3.52-5.53 1.28 1.28 0 00-.86-.37 1.1 1.1 0 00-1.13 1 1 1 0 00.33.73 16 16 0 013.1 4.87 1.1 1.1 0 002.15-.31 1.61 1.61 0 00-.06-.35zm16.54 3.27a16.32 16.32 0 01-2.42.18c-1.93 0-2.52-.31-2.64-1.39a.91.91 0 00-1-.84 1.15 1.15 0 00-.84.34 1 1 0 00-.27.79c.13 2.26 1.59 3.26 4.75 3.26a17.28 17.28 0 002.71-.19 1.07 1.07 0 00.92-1.06 1.16 1.16 0 00-.39-.86 1 1 0 00-.82-.23zM208 71.59a1.06 1.06 0 00.39.83.94.94 0 00.61.21h.24a23.53 23.53 0 014.37-.47 1 1 0 001-1 1 1 0 00-1.07-1.07 25.09 25.09 0 00-4.65.49 1.06 1.06 0 00-.89 1.01zm.77-3.1a1 1 0 00-1-1 1.35 1.35 0 00-.29 0l-1.37.33c.08-.56.17-1.19.26-2.06a.88.88 0 00-.23-.75 1.17 1.17 0 00-.88-.37 1 1 0 00-1.09.92v.49c-.08.76-.15 1.42-.27 2.2a22.74 22.74 0 01-2.48.3 1 1 0 00-1 1.09 1.09 1.09 0 00.32.79 1 1 0 00.77.24c.61 0 1.28-.1 2-.19a47.66 47.66 0 01-2.38 8.3 1.43 1.43 0 00-.12.54 1.05 1.05 0 001.09 1 1.28 1.28 0 001.19-.85 55.3 55.3 0 002.52-9.43c.75-.17 1.52-.36 2.28-.58a1 1 0 00.68-.97zm17.61 3.28a1.06 1.06 0 00.38.83 1 1 0 00.62.21h.24a23.45 23.45 0 014.37-.47 1 1 0 001-1 1 1 0 00-1.07-1.07 25.09 25.09 0 00-4.65.49 1.06 1.06 0 00-.89 1.01zm6.15 5.93a16.09 16.09 0 01-2.41.18c-1.93 0-2.52-.31-2.64-1.39a.91.91 0 00-1-.84 1.15 1.15 0 00-.84.34 1 1 0 00-.27.79C225.54 79 227 80 230.15 80a17.32 17.32 0 002.72-.19 1.06 1.06 0 00.91-1.06 1.15 1.15 0 00-.38-.86 1 1 0 00-.87-.19zm-5.41-9.03a1 1 0 00-1-1 1.45 1.45 0 00-.29 0l-1.41.33c.09-.56.18-1.2.27-2.06a1 1 0 00-.23-.75 1.17 1.17 0 00-.88-.37 1 1 0 00-1.09.92l-.05.49c-.08.76-.15 1.42-.28 2.2a22.6 22.6 0 01-2.47.3 1.05 1.05 0 00-1 1.09 1.06 1.06 0 00.33.79 1 1 0 00.77.24c.61 0 1.28-.1 2-.19a47.66 47.66 0 01-2.38 8.3 1.62 1.62 0 00-.11.54 1 1 0 001.09 1 1.28 1.28 0 001.19-.85 54.45 54.45 0 002.51-9.43c.77-.17 1.53-.37 2.28-.58a1 1 0 00.75-.97zm3.99.45a.84.84 0 00.82-.83.86.86 0 00-.18-.54 8.89 8.89 0 00-1.42-1.58.85.85 0 00-1.43.56.71.71 0 00.21.48 12.94 12.94 0 011.32 1.52.82.82 0 00.68.39zm2.65-2.27a.93.93 0 00-.21-.59 9.39 9.39 0 00-1.41-1.5.94.94 0 00-.6-.24.83.83 0 00-.86.77.7.7 0 00.23.5c.4.41.9.95 1.33 1.49a.89.89 0 00.71.36.8.8 0 00.81-.79zm17.32 1.96c-.52.1-1.11.19-1.68.27 0-1.17-.1-2.14-.18-3a1 1 0 00-1.09-.89 1.16 1.16 0 00-.86.33.85.85 0 00-.23.68c.08 1 .14 2 .18 3.1-.78.06-1.49.09-2.12.09h-1.41a.94.94 0 00-.73.25 1 1 0 00-.31.77 1 1 0 00.95 1h1.56c.68 0 1.29 0 2.11-.08v1a9.41 9.41 0 01-2 6.42 1.18 1.18 0 00-.31.78 1.1 1.1 0 001.13 1.06 1.23 1.23 0 00.9-.43c1.62-1.83 2.47-4.54 2.47-7.83v-1.26c.62-.08 1.27-.18 2-.33a1 1 0 00.8-1 1 1 0 00-.35-.79 1 1 0 00-.83-.14zm-11.41-3.33a1.08 1.08 0 00-1.11.81 31.49 31.49 0 00-.9 7.5 23.17 23.17 0 00.43 4.72 1.12 1.12 0 001.13.89 1.09 1.09 0 001.14-1.08 1.45 1.45 0 000-.28 25.33 25.33 0 01-.37-4.27 30.49 30.49 0 01.82-7 1.47 1.47 0 000-.27 1.06 1.06 0 00-1.14-1.02zM262.76 71a6.18 6.18 0 00-2 .35 40.58 40.58 0 003.4-3.86 1.52 1.52 0 00.34-.91 1.16 1.16 0 00-.41-.9 1.45 1.45 0 00-1.2-.31c-1.73.27-3.63.48-5.08.57a1 1 0 00-1 1 1.11 1.11 0 00.33.81 1 1 0 00.75.26c1.39-.1 2.5-.22 3.41-.36a40.3 40.3 0 01-5.91 5.87 1.17 1.17 0 00-.49.93 1.12 1.12 0 001.1 1.15 1.38 1.38 0 00.82-.31 9.13 9.13 0 015.74-2.29c1.58 0 2.64.88 2.64 2.2a3 3 0 01-1.58 2.8 3.67 3.67 0 00-3.52-2.9 2.35 2.35 0 00-2.6 2.4c0 1.74 1.69 3 4.13 3 3.57 0 5.88-2.06 5.88-5.26 0-2.6-1.87-4.24-4.75-4.24zm-2.7 5.84q1 0 1.47 1.56c-1.24 0-2-.37-2-1a.56.56 0 01.53-.54zm25.72-9.53h-6.26v-2.26a1 1 0 00-1.09-.91 1 1 0 00-1.09.91v2.26h-6a1 1 0 000 2h5.42a12.22 12.22 0 01-2.6 7.33 11 11 0 01-2.78 2.3 1.08 1.08 0 00.47 2.06 1.29 1.29 0 00.64-.2 12.44 12.44 0 005.88-7.72h3.54a.6.6 0 01.4.09.49.49 0 01.08.36 21.14 21.14 0 01-.57 4c-.2.76-.55 1.08-1.24 1.08a6.12 6.12 0 01-1.37-.18 1.36 1.36 0 00-.27 0 1.07 1.07 0 00-.17 2.12 8.21 8.21 0 001.9.2c1.83 0 2.8-.8 3.25-2.68a25.47 25.47 0 00.65-4.7 2.1 2.1 0 00-.47-1.63 2.82 2.82 0 00-2.15-.64h-3.14c.11-.71.17-1.27.21-1.8h6.8a1 1 0 000-2z"/></g></g></svg>