<svg xmlns="http://www.w3.org/2000/svg" viewBox="0 0 262.36 68.33"><defs><style>.cls-2{fill:#202020}</style></defs><g id="レイヤー_2" data-name="レイヤー 2"><g id="design"><path fill="none" stroke="#ff5" stroke-linecap="round" stroke-linejoin="round" stroke-width="15.18" d="M99.59 43.02l17.72 17.71 44.28-53.14"/><path class="cls-2" d="M25.46 24.78a1.23 1.23 0 002.19-.71 1.38 1.38 0 00-.36-.88A27.21 27.21 0 0022.53 19 16.74 16.74 0 0025 14.72a3.26 3.26 0 00.2-1 1.49 1.49 0 00-.44-1.11 2.4 2.4 0 00-1.79-.53l-7.16.12a1 1 0 00-1 1.11 1 1 0 001 1.07l6.44-.12c.36 0 .36.09.36.13a.62.62 0 01-.07.25 17.14 17.14 0 01-8.3 8.36 1.12 1.12 0 00-.67 1 1.17 1.17 0 001.15 1.15 1.22 1.22 0 00.56-.14 21 21 0 005.84-4.42 28 28 0 014.34 4.19zm17.08-9.11a3.28 3.28 0 00.16-1 1.58 1.58 0 00-.45-1.19 2.52 2.52 0 00-1.83-.57h-3.61c.27-.49.49-.94.68-1.38a1.09 1.09 0 00.1-.48 1.07 1.07 0 00-1.13-1 1.16 1.16 0 00-1.1.75 18.72 18.72 0 01-4.29 6 1.26 1.26 0 00-.47.92 1.09 1.09 0 001.11 1.06 1.29 1.29 0 00.86-.35 19.6 19.6 0 003-3.54h4.34c.39 0 .39.12.39.19a.68.68 0 01-.05.22 14.15 14.15 0 01-1.75 3.44 15.42 15.42 0 00-2.08-1.58 1.2 1.2 0 00-.69-.22A1.09 1.09 0 0034.65 18a1.06 1.06 0 00.5.87 16.86 16.86 0 012 1.6 17.5 17.5 0 01-4.55 3.67 1.2 1.2 0 00-.7 1.06 1.1 1.1 0 001.1 1.15 1.41 1.41 0 00.64-.18 19.33 19.33 0 008.9-10.5zm4.34 3.71H57.4c.57 0 .87-.57.87-1.13s-.27-1.12-.87-1.12H46.88c-.6 0-.88.58-.88 1.12s.31 1.13.88 1.13zm24.6-.23a1.25 1.25 0 00-.54-1 21 21 0 00-3.84-2.32 1.22 1.22 0 00-.51-.12 1.06 1.06 0 00-.78.36V11.3a1.17 1.17 0 00-2.32 0V25a1.17 1.17 0 002.32 0v-7.41a2 2 0 00.38.28A32.79 32.79 0 0169.54 20a1.32 1.32 0 00.82.29 1.14 1.14 0 001.12-1.14zm15.27-7.37l-10.82.07a1.09 1.09 0 000 2.18L86.16 14c.32 0 .32.09.32.11a.5.5 0 01-.11.27 9.18 9.18 0 01-1.87 2 1.25 1.25 0 00-.54 1A1.08 1.08 0 0085 18.41a1.38 1.38 0 00.82-.31 13.69 13.69 0 002.88-3.16 2.73 2.73 0 00.48-1.42 1.52 1.52 0 00-.45-1.12 2.75 2.75 0 00-1.98-.62z"/><path class="cls-2" d="M78.17 25.56A9.5 9.5 0 0083 16.94v-.85a1.16 1.16 0 00-2.29 0v.85A7.15 7.15 0 0177 23.6a1.31 1.31 0 00-.71 1.08 1.13 1.13 0 001.14 1.11 1.45 1.45 0 00.74-.23zm19.45-7.83a1 1 0 00.92.66 1 1 0 001.09-1 1.32 1.32 0 000-.33 13.36 13.36 0 00-1.16-2.47 1 1 0 00-.94-.52 1 1 0 00-1.07.89.92.92 0 00.14.47 15.25 15.25 0 011.02 2.3zm-3.49.94a1 1 0 00.92.62 1.08 1.08 0 001.13-1 1.13 1.13 0 00-.06-.36 14.36 14.36 0 00-1.27-2.49 1.07 1.07 0 00-.91-.51 1 1 0 00-1.09.92.85.85 0 00.14.49 17.14 17.14 0 011.14 2.33zm9.19-4.01a.92.92 0 00-1 .7A13.6 13.6 0 0196 24a1 1 0 00.41 2 1.2 1.2 0 00.55-.15 16.28 16.28 0 007.5-10 .83.83 0 000-.22 1.06 1.06 0 00-1.14-.97zm6.02.34l8.68-.11c.61 0 .66.18.66.37a1.65 1.65 0 01-.05.33 13.29 13.29 0 01-7.12 8.11 1.19 1.19 0 00-.68 1.05 1.15 1.15 0 001.17 1.11 1.46 1.46 0 00.64-.15A15.48 15.48 0 00121 15.63a4.83 4.83 0 00.12-1.05 1.76 1.76 0 00-.48-1.34 3 3 0 00-2.17-.63h-.08l-9.18.09a1 1 0 00-1 1.09 1.22 1.22 0 00.35.86 1.13 1.13 0 00.78.35zM122 9.17a2 2 0 102 2 2 2 0 00-2-2zm0 3a1 1 0 01-1-1 .92.92 0 011-.92.91.91 0 01.93.92.93.93 0 01-.93.97zm18 2.94a1 1 0 00-.61-.24.83.83 0 00-.85.77.68.68 0 00.22.5c.4.41.91 1 1.33 1.49a.89.89 0 00.71.36.8.8 0 00.82-.78.91.91 0 00-.22-.6 9.31 9.31 0 00-1.4-1.5z"/><path class="cls-2" d="M126.57 15.38l2.06-.3c1.83-.27 3.71-.55 5.25-.76a7.29 7.29 0 00-2.76 5.52c0 3.09 2.42 5.44 5.89 5.7h.1a1.16 1.16 0 00.81-.3 1.19 1.19 0 00.36-.87 1.15 1.15 0 00-1.06-1.16c-2.5-.3-3.82-1.49-3.82-3.43 0-1.37.35-3.38 3.36-5.1a6.2 6.2 0 012-.71 1.05 1.05 0 00.9-1.07 1.07 1.07 0 00-.33-.78 1.1 1.1 0 00-.85-.27c-3.89.35-8.54.87-12.14 1.33a1.08 1.08 0 00-1 1.09 1.16 1.16 0 00.39.87 1.1 1.1 0 00.84.24z"/><path class="cls-2" d="M136.71 17.08a.81.81 0 00.21.49 13.2 13.2 0 011.33 1.51.81.81 0 00.67.39.83.83 0 00.82-.82.87.87 0 00-.18-.55 9.29 9.29 0 00-1.42-1.58.86.86 0 00-.57-.22.84.84 0 00-.86.78zm13.7 7.07a1 1 0 00.89.54 1.14 1.14 0 001.16-1.06 1.2 1.2 0 00-.15-.55 17.37 17.37 0 00-2.38-3.21 1.18 1.18 0 00-.84-.37 1 1 0 00-1.09.95 1 1 0 00.24.59c.18.21.38.46.62.78-.64.25-1.3.45-1.94.65h-.07v-4h2.85c1.4 0 2.05-.62 2.08-2v-4c0-1.32-.68-2-2.08-2h-2.84c-1.4 0-2.09.63-2.09 2v10.58c-.15.05-.33.09-.51.13a1 1 0 00-.8 1 1.05 1.05 0 001 1.09h.26a31.29 31.29 0 005.28-1.83c.12.21.26.45.41.71zm-3.56-10.52v-.87c0-.24.07-.37.45-.37h1.95c.39 0 .46.13.46.37v.87zm2.86 1.75v.89c0 .24-.07.37-.46.37h-2.4v-1.26zm10.19-2.85c0-1.37-.66-2-2.21-2h-2.34c-1.55 0-2.18.57-2.18 2V25.9c0 .6.57.88 1.1.88s1.09-.28 1.09-.88V13c0-.36.09-.46.41-.46h1.55c.29 0 .38.11.38.46v8c0 .36-.1.39-.26.39a5 5 0 01-.61-.05.91.91 0 00-.78.19 1.09 1.09 0 00-.36.84 1 1 0 00.81 1 7.25 7.25 0 001.34.11c1.41 0 2.06-.69 2.06-2.16zm4.23 11.28h3V26c0 .49.51.75 1 .75s1-.23 1-.75v-2.2h2.94a1 1 0 000-1.93h-2.94v-.94h.67c1.42 0 2.3-.34 2.33-1.9V16a1.61 1.61 0 00-1.48-1.84 17.28 17.28 0 001.35-2.67.75.75 0 00.08-.37 1 1 0 00-1.09-.95.94.94 0 00-.92.67 17.89 17.89 0 01-1.51 3.28h-2c-1.66 0-2.34.55-2.34 1.9v3c0 1.35.68 1.9 2.34 1.9h.58v.94h-3a.88.88 0 00-.82 1 .89.89 0 00.81.95zm3.07-5.48v.83h-.83c-.21 0-.23 0-.23-.28v-.55zm0-1.64h-1.06v-.51c0-.27 0-.28.23-.28h.83zm2.8 2.47h-.92v-.83h1.15v.55c.02.27-.01.28-.23.28zm-.92-2.47v-.79h.92c.2 0 .23 0 .23.28v.51z"/><path class="cls-2" d="M164.65 13.35a.92.92 0 00.87.61 1 1 0 001-1 .93.93 0 00-.1-.45 11.43 11.43 0 00-.76-1.45 1 1 0 00-.9-.5.9.9 0 00-1 .84 1 1 0 00.14.48 10.58 10.58 0 01.75 1.47zm15.93 9.82a.85.85 0 00-.23-.67 1 1 0 00-.71-.3.89.89 0 00-.93.83c-.1 1-.21 1.1-.39 1.1s-.51-.32-1-1.84a17 17 0 002.06-3.54 1 1 0 00.1-.46 1 1 0 00-1-.93.94.94 0 00-.89.6 12.85 12.85 0 01-.92 1.81q-.25-1.36-.39-2.91l3-.4a.84.84 0 00.7-.89 1.11 1.11 0 00-.35-.84.74.74 0 00-.61-.18l-2.94.38C176 13.49 176 12 176 10.62a1 1 0 00-2 0c0 1.49.05 3.07.14 4.59l-1 .13a.83.83 0 00-.68.89 1.14 1.14 0 00.34.84.76.76 0 00.62.18l.89-.11a27.33 27.33 0 00.6 3.86c.08.3.16.62.26.91a15.36 15.36 0 01-3.2 2.82 1 1 0 00-.51.86 1 1 0 001 1 1.17 1.17 0 00.63-.2 15.91 15.91 0 002.77-2.39c.73 1.64 1.54 2.41 2.52 2.41 1.33.03 2.05-1.04 2.2-3.24z"/><path class="cls-2" d="M177.3 13.73a.94.94 0 00.84.48 1 1 0 001-1 1.22 1.22 0 00-.15-.58 7.32 7.32 0 00-.88-1.25 1.09 1.09 0 00-.79-.37.91.91 0 00-1 .85 1 1 0 00.2.56c.26.44.55.9.78 1.31zm-10.24-.94a.92.92 0 00.91.66 1 1 0 001-1 1.57 1.57 0 00-.08-.4 11.68 11.68 0 00-.67-1.5 1 1 0 00-.92-.56.88.88 0 00-.94.82 1 1 0 00.09.44 13.46 13.46 0 01.61 1.54zm31.11 9.87a42.18 42.18 0 00.47-6.82 2.17 2.17 0 00-.55-1.63 2.94 2.94 0 00-2.15-.63h-3.74c0-.81.06-1.76.06-3a1.11 1.11 0 00-2.21 0c0 1.23 0 2.18-.07 3h-4.93a1 1 0 00-.93 1 .94.94 0 00.93 1l4.77-.06a10.86 10.86 0 01-1.63 5.16 10.46 10.46 0 01-3.92 3.42 1.11 1.11 0 00-.69 1 1 1 0 001 1 1.6 1.6 0 00.66-.18 12.83 12.83 0 004.83-3.92 13.08 13.08 0 002-6.34h3.56c.73 0 .8.16.8.58a34.25 34.25 0 01-.48 6.12c-.23 1-.55 1.24-1.15 1.24a5.13 5.13 0 01-1.29-.15 1.16 1.16 0 00-1 .22 1.08 1.08 0 00-.37.84 1.16 1.16 0 001 1.14 7.73 7.73 0 001.66.16c2.05-.08 2.97-.91 3.37-3.15zm16.34 1.59a1.09 1.09 0 00-.39-.86 1 1 0 00-.93-.21 19.88 19.88 0 01-3.71.32c-2.92 0-3.5-.61-3.5-1.59s.69-1.95 2-2.84a21.06 21.06 0 014.75-2.07 1 1 0 00.74-1 1.08 1.08 0 00-1-1.11 1 1 0 00-.35.06 24.58 24.58 0 00-3.44 1.35 31.29 31.29 0 01-.39-5.13 1.15 1.15 0 00-2.29 0 29 29 0 00.65 6.32c-2 1.37-2.92 2.8-2.92 4.5 0 2.48 1.89 3.69 5.77 3.69a20.17 20.17 0 004.16-.35 1.08 1.08 0 00.85-1.08zm16.65-2.92a1.14 1.14 0 00-1.16-1.09 1.16 1.16 0 00-.94.49c-1.51 1.86-3 2.7-4.82 2.7-1.15 0-1.92-.51-1.92-3 0-3.41.27-7.33.38-8.85a1 1 0 00-.24-.74 1.21 1.21 0 00-.9-.36 1.06 1.06 0 00-1.15 1c-.11 1.52-.38 5.43-.38 8.94s1.3 5.18 4.21 5.18c2.55 0 4.72-1.17 6.65-3.57a1.2 1.2 0 00.27-.7zM245 23.21c-2.5-.3-3.82-1.49-3.82-3.43 0-1.37.34-3.38 3.35-5.1a6.29 6.29 0 012-.71 1.08 1.08 0 00.58-1.85 1.12 1.12 0 00-.86-.27c-3.89.35-8.54.87-12.14 1.33a1.07 1.07 0 00-1 1.09 1.16 1.16 0 00.38.87 1.12 1.12 0 00.92.24l2.07-.31c1.83-.26 3.7-.54 5.25-.75a7.27 7.27 0 00-2.77 5.52c0 3.09 2.42 5.44 5.89 5.7h.11a1.14 1.14 0 00.8-.3 1.2 1.2 0 00.37-.87 1.15 1.15 0 00-1.13-1.16zM9 51a16.74 16.74 0 002.42-4.25 3.26 3.26 0 00.2-1 1.49 1.49 0 00-.44-1.11 2.38 2.38 0 00-1.79-.53l-7.16.12a1 1 0 00-1 1.11 1 1 0 001 1.07l6.44-.12c.35 0 .35.09.35.13a.55.55 0 01-.06.25A17.18 17.18 0 01.67 55 1.12 1.12 0 000 56a1.17 1.17 0 001.14 1.15 1.26 1.26 0 00.57-.15 21 21 0 005.84-4.42 28 28 0 014.34 4.16 1.22 1.22 0 00.94.47 1.24 1.24 0 001.25-1.18 1.34 1.34 0 00-.37-.88A27.14 27.14 0 009 51zm21.36-1.66l-5.18.87-.41-2.34 4-.62a.94.94 0 00.83-1 1.18 1.18 0 00-.38-.88 1 1 0 00-.82-.21l-4 .62-.49-2.78a1 1 0 00-1.09-.84 1.25 1.25 0 00-1 .41.88.88 0 00-.19.75l.51 2.85-3.9.6a.93.93 0 00-.82 1 1.18 1.18 0 00.38.89.93.93 0 00.78.2l3.94-.62.48 2.33-5.18.86a1 1 0 00-.82 1 1.15 1.15 0 00.39.88.93.93 0 00.79.21l5.18-.86.85 4.7a1 1 0 001.09.86 1.22 1.22 0 00.93-.4.91.91 0 00.19-.78l-.85-4.76 5.2-.87a1 1 0 00.82-1 1.15 1.15 0 00-.38-.86 1 1 0 00-.85-.21zm18.33 1.46a1.21 1.21 0 00-1 .53 10.82 10.82 0 01-3.35 3 1 1 0 01-.31.11c-.06 0-.15 0-.15-.31v-9.91a1.18 1.18 0 00-2.33 0v10.55a2 2 0 002 2.21 3.48 3.48 0 001.6-.45 12.71 12.71 0 004.44-4 1.23 1.23 0 00.24-.69 1.14 1.14 0 00-1.14-1.04zm-10.52-7.17a1.08 1.08 0 00-1.18 1v2c0 4.17-.83 6.47-3.05 8.46a1.25 1.25 0 00-.46.94 1.17 1.17 0 001.16 1.15 1.33 1.33 0 00.88-.35c2.62-2.25 3.79-5.37 3.79-10.13v-2a1.05 1.05 0 00-1.14-1.07zm28.3 4.5a1.85 1.85 0 00-.39.06 45.75 45.75 0 00-4.41 1.59 2.39 2.39 0 00-2.58-1.68 4.41 4.41 0 00-1.36.23c.36-.49.75-1.09 1.16-1.77 1.48-.14 2.87-.35 3.78-.51a1 1 0 00.87-1 1 1 0 00-.33-.75 1 1 0 00-.86-.2c-.75.14-1.58.26-2.44.35.18-.42.34-.84.48-1.27a.88.88 0 000-.31 1.09 1.09 0 00-2.1-.21c-.2.61-.45 1.28-.77 2-1.22.09-2.12.12-2.83.12a1 1 0 00-.69 1.79 1 1 0 00.75.29h.11c.51 0 1.07 0 1.67-.08a16.55 16.55 0 01-2.91 3.32 1.17 1.17 0 00-.45.87A1.1 1.1 0 0054.19 52a1.17 1.17 0 00.71-.26 7 7 0 013.63-1.83c.57 0 .91.1 1.13.66-2.82 1.42-4 2.76-4 4.48 0 1.36.86 3 4.94 3a21.41 21.41 0 003.71-.29 1.09 1.09 0 001-1.07 1.15 1.15 0 00-.38-.86 1.12 1.12 0 00-.9-.22 20.25 20.25 0 01-3.48.31c-2.32 0-2.62-.54-2.62-1 0-.78.69-1.52 2.12-2.27 0 .42.06 1 .08 1.59a1 1 0 001 .93 1.22 1.22 0 00.86-.34 1 1 0 00.27-.7c0-.89-.07-1.67-.16-2.33 1.37-.55 2.92-1.08 4.6-1.59a1 1 0 00.79-1 1 1 0 00-1.02-1.08zm20.01.67a12 12 0 01-2-1.42h1.13a.71.71 0 00.67-.78.72.72 0 00-.67-.79h-1.76v-.44c0-1-1.82-1-1.82 0v.44H80.6a.72.72 0 00-.66.79.71.71 0 00.66.78h.81a9.31 9.31 0 01-1.61 1.5.88.88 0 00-.28.33.61.61 0 000-.24.8.8 0 00-.42-.69 9.37 9.37 0 00-1.1-.65v-.25h1.07a.72.72 0 00.68-.78.73.73 0 00-.68-.79H78v-.44c0-.5-.46-.73-.91-.73s-.91.23-.91.73v.44H74.6a.72.72 0 00-.65.79.71.71 0 00.65.78h1a9.36 9.36 0 01-1.52 1.51.94.94 0 00-.4.73.79.79 0 00.78.79 1.06 1.06 0 00.62-.24 9.73 9.73 0 001.13-1.09v1.33a.92.92 0 001.82 0v-1.1l.29.21a.79.79 0 001.23-.23.64.64 0 000 .24.79.79 0 00.78.79 1.13 1.13 0 00.62-.24A12.15 12.15 0 0082.07 49v1.34a.92.92 0 001.82 0v-1.45a9.43 9.43 0 001.82 1.45 1 1 0 00.5.16.89.89 0 00.83-.89.88.88 0 00-.56-.81z"/><path class="cls-2" d="M73.62 45.16c0-.43.11-.57.71-.57h11.6a.9.9 0 000-1.78h-5.77v-.68c0-.54-.55-.78-1.06-.78s-1 .27-1 .78v.68H74c-1.69 0-2.52.7-2.52 2.15v3A18.81 18.81 0 0170.07 56a1.24 1.24 0 00-.14.54 1 1 0 001.07 1 1.08 1.08 0 001-.67 20.26 20.26 0 001.61-8.76z"/><path class="cls-2" d="M85.87 51.41H74.46a.87.87 0 000 1.71h1.89a11.05 11.05 0 01-3 2.72 1 1 0 00-.52.8.9.9 0 00.91.9 1.05 1.05 0 00.59-.18A11.14 11.14 0 0076 56.1v.56c0 1.26.54 1.7 2.06 1.7h5.24c1.13 0 2.06-.15 2.08-1.7v-.85c0-1.27-.54-1.72-2.08-1.72h-5.46c.25-.33.47-.65.69-1h7.34a.76.76 0 00.73-.85.77.77 0 00-.73-.83zm-7.94 5.11v-.58c0-.18 0-.24.31-.24h4.83c.29 0 .31.06.31.24v.58c0 .17 0 .24-.31.24h-4.83c-.24 0-.31-.09-.31-.24zM102.51 47a.78.78 0 00-.32.06c-1 .29-2.11.57-3.39.82-.21-.46-.44-1-.64-1.52 1.08-.22 2.13-.48 3-.75a.88.88 0 00.68-.87 1 1 0 00-1-1 1.12 1.12 0 00-.35.06 28.1 28.1 0 01-3 .7c-.14-.47-.33-1.12-.5-1.76a1.1 1.1 0 00-2.12.15 1 1 0 000 .25c.12.53.28 1.09.48 1.72-1.11.16-2.24.29-3.18.34a.89.89 0 00-.87 1 1.06 1.06 0 00.31.78 1 1 0 00.71.24c1.07-.07 2.35-.22 3.71-.44.18.47.4 1 .66 1.54-1.86.27-3.35.42-4.66.48a.94.94 0 00-.93 1 1.1 1.1 0 00.32.77 1 1 0 00.72.24 50.53 50.53 0 005.47-.62c.45.75.88 1.37 1.18 1.81a10 10 0 00-2.26-.23c-3.18 0-5 1.17-5 3.21 0 2.24 1.88 3.38 5.59 3.38a18.48 18.48 0 001.94-.09 1 1 0 00.67-1.77 1.07 1.07 0 00-.85-.27h-.07c-.51 0-1 .06-1.7.06-3 0-3.31-.77-3.31-1.36 0-.86.93-1.3 2.75-1.3a11.13 11.13 0 013.87.7 1.71 1.71 0 00.5.09 1.06 1.06 0 001.09-1.05 1.28 1.28 0 00-.29-.81 21.64 21.64 0 01-2-2.78 27.8 27.8 0 003-.76 1 1 0 00.73-.91 1 1 0 00-.94-1.11zm18.56 8a16.13 16.13 0 01-2.42.18c-1.93 0-2.52-.31-2.64-1.39a.91.91 0 00-1-.84 1.15 1.15 0 00-.84.34 1 1 0 00-.27.79c.13 2.26 1.59 3.26 4.75 3.26a17.21 17.21 0 002.71-.2 1 1 0 00.92-1.05 1.14 1.14 0 00-.39-.86 1 1 0 00-.82-.23zm-5.25-7a1.05 1.05 0 00-.91 1.05 1.1 1.1 0 00.39.83.94.94 0 00.61.21 1 1 0 00.24 0 24.35 24.35 0 014.37-.46 1 1 0 001-1 1 1 0 00-1.07-1.07 24.26 24.26 0 00-4.63.44zm-.17-2.07a1 1 0 00-1-1 1.43 1.43 0 00-.29 0c-.44.11-.93.23-1.4.33.08-.55.17-1.19.26-2.05a1 1 0 00-.22-.76 1.2 1.2 0 00-.89-.36A1 1 0 00111 43v.5c-.08.76-.15 1.41-.27 2.2a22.39 22.39 0 01-2.48.29 1.05 1.05 0 00-1 1.09 1.1 1.1 0 00.32.8 1 1 0 00.77.24c.61 0 1.28-.1 2-.2a47.54 47.54 0 01-2.38 8.31 1.43 1.43 0 00-.12.54 1.05 1.05 0 001.09 1 1.28 1.28 0 001.19-.86 54.91 54.91 0 002.52-9.42c.75-.17 1.52-.37 2.28-.58a1 1 0 00.73-.98zm16.43 6.24a1 1 0 00-1 .85c-.36 1.37-.73 1.56-1.07 1.56-.67 0-1.94-1.64-1.94-7.86 0-.55 0-.94.06-1.4v-.23a1 1 0 00-.27-.76A1.21 1.21 0 00127 44a1.08 1.08 0 00-1.14 1c0 .48-.07 1-.07 1.85 0 8.4 2.33 10.16 4.29 10.16 1 0 2.36-.58 3.12-3.36a1 1 0 000-.34 1.09 1.09 0 00-1.12-1.14zm8.56-.48a14.38 14.38 0 00-3.51-5.53 1.3 1.3 0 00-.87-.37 1 1 0 00-.79 1.75 15.93 15.93 0 013.1 4.86 1.08 1.08 0 001 .75 1.07 1.07 0 001.11-1 1.51 1.51 0 00-.06-.35zm13.72 3.49a19.73 19.73 0 01-3.71.32c-2.91 0-3.5-.61-3.5-1.59s.69-1.95 2-2.84a20.86 20.86 0 014.76-2.07 1 1 0 00.73-1 1.08 1.08 0 00-1-1.11 1.13 1.13 0 00-.36.06 25.07 25.07 0 00-3.44 1.35 32.43 32.43 0 01-.39-5.13 1.15 1.15 0 00-2.29 0 28.45 28.45 0 00.66 6.32c-2 1.37-2.93 2.8-2.93 4.5 0 2.48 1.89 3.69 5.78 3.69a20.17 20.17 0 004.16-.35 1.1 1.1 0 00.89-1.1 1.13 1.13 0 00-.39-.86 1.06 1.06 0 00-.97-.19zm7.54-2.49a1 1 0 00-1 .66 12.16 12.16 0 01-1.16 2.2 1.11 1.11 0 00-.2.61 1 1 0 001.07 1 1.15 1.15 0 001-.55 13 13 0 001.3-2.52.9.9 0 00.08-.4 1 1 0 00-1.09-1zm13.72 2.21a13.6 13.6 0 00-1.62-2.09 1.18 1.18 0 00-.84-.37 1.05 1.05 0 00-1.09 1 1 1 0 00.28.66 19 19 0 011.5 2 1 1 0 00.89.51 1.1 1.1 0 001.09-1.07 1.09 1.09 0 00-.17-.59zm-4.3-.39a1 1 0 00-1 .86c-.1.94-.37 1.17-2.55 1.17-2 0-2-.13-2-.46v-3.22a1 1 0 00-1.07-.89c-.54 0-1.09.28-1.09.89v3.57c0 1.64.69 2 4.12 2s4.48-.67 4.67-2.85a.88.88 0 00-.22-.7 1.19 1.19 0 00-.86-.37z"/><path class="cls-2" d="M167.38 51.32a1 1 0 00-1 1 1 1 0 00.39.76c.29.23.59.5.88.76l.47.42a1 1 0 101.38-1.49 11.51 11.51 0 00-1.5-1.23 1.13 1.13 0 00-.62-.22zm-3.26-.21h7.36c1.67 0 2.64-.41 2.68-2.19v-4.2c0-1.55-.78-2.18-2.68-2.18h-7.36c-1.89 0-2.66.63-2.66 2.18v4.2c0 1.55.77 2.19 2.66 2.19zm-.55-5.19v-1.07c0-.37.07-.53.71-.53h2.33v1.6zm3 1.73v1.67h-2.33c-.53 0-.71-.06-.71-.53v-1.14zm5.44 0v1.14c0 .37-.07.53-.71.53h-2.6v-1.67zm-3.35-1.73v-1.6h2.64c.61 0 .71.16.71.53v1.07zm18.5 2.2a19.84 19.84 0 00-7.53 1.81 1 1 0 00-.67.93 1 1 0 00.94 1 1 1 0 00.47-.1 17.7 17.7 0 016.79-1.76c1.57 0 2.51.73 2.51 1.95 0 2-1.31 3-4.51 3.55a.94.94 0 00-.82.95 1 1 0 00.34.77.9.9 0 00.59.21h.19c4-.57 6.23-2.51 6.23-5.46 0-2.37-1.78-3.85-4.53-3.85zm19.61-4.27c-3.89.35-8.54.87-12.14 1.33a1.07 1.07 0 00-1 1.09 1.16 1.16 0 00.38.87 1.12 1.12 0 00.92.24l2.07-.31c1.83-.26 3.7-.54 5.25-.75a7.27 7.27 0 00-2.77 5.52c0 3.09 2.42 5.44 5.89 5.7h.11a1.14 1.14 0 00.8-.3 1.2 1.2 0 00.37-.87 1.15 1.15 0 00-1.06-1.16c-2.5-.3-3.82-1.49-3.82-3.43 0-1.37.34-3.38 3.35-5.1a6.29 6.29 0 012-.71 1.08 1.08 0 00.58-1.85 1.11 1.11 0 00-.93-.27zm20.07 7.84a14.52 14.52 0 00-3.52-5.53 1.3 1.3 0 00-.86-.37 1.09 1.09 0 00-1.13 1 1 1 0 00.34.74 15.9 15.9 0 013.09 4.86 1.08 1.08 0 001.05.75 1.07 1.07 0 001.1-1 1.51 1.51 0 00-.06-.35zm-8.56.48a1 1 0 00-1 .85c-.36 1.37-.73 1.56-1.07 1.56-.67 0-1.93-1.64-1.93-7.86 0-.55 0-.94.05-1.4v-.23a1.05 1.05 0 00-.26-.76 1.24 1.24 0 00-.9-.35 1.08 1.08 0 00-1.15 1c0 .48-.07 1-.07 1.85 0 8.4 2.34 10.16 4.3 10.16 1 0 2.35-.58 3.12-3.36a1 1 0 000-.34 1.1 1.1 0 00-1.09-1.12zm19.78-3.71a6.44 6.44 0 00-2 .34 39.21 39.21 0 003.4-3.85 1.52 1.52 0 00.34-.91 1.18 1.18 0 00-.41-.91 1.53 1.53 0 00-1.2-.31c-1.73.27-3.63.49-5.08.58a1 1 0 00-1 1 1.12 1.12 0 00.33.81 1 1 0 00.75.26c1.39-.11 2.51-.23 3.41-.36a40.3 40.3 0 01-5.91 5.89 1.16 1.16 0 00-.49.92 1.12 1.12 0 001.11 1.08 1.4 1.4 0 00.82-.3 9.13 9.13 0 015.73-2.32c1.58 0 2.64.88 2.64 2.2a3 3 0 01-1.58 2.79 3.68 3.68 0 00-3.52-2.91 2.36 2.36 0 00-2.61 2.41c0 1.74 1.7 3 4.14 3 3.57 0 5.88-2.07 5.88-5.27 0-2.52-1.87-4.14-4.75-4.14zm-2.7 5.83c.68 0 1.17.53 1.47 1.57-1.24 0-2-.37-2-1a.56.56 0 01.53-.57zm26.1-9.54h-6.25v-2.26a1.11 1.11 0 00-2.18 0v2.26h-6a1 1 0 000 2h5.42a12.29 12.29 0 01-2.6 7.33 11.66 11.66 0 01-2.78 2.3 1.08 1.08 0 00-.63 1 1.11 1.11 0 001.09 1.09 1.29 1.29 0 00.65-.2 12.42 12.42 0 005.82-7.76h3.55c.21 0 .34 0 .4.1s.08.17.07.36a20.38 20.38 0 01-.57 4.05c-.19.76-.55 1.07-1.24 1.07a5.65 5.65 0 01-1.37-.18h-.26a1 1 0 00-1 1.09 1.06 1.06 0 00.87 1 8.06 8.06 0 001.89.2c1.83 0 2.8-.8 3.25-2.69a25.24 25.24 0 00.65-4.7 2.13 2.13 0 00-.46-1.63 2.89 2.89 0 00-2.16-.63h-3.14c.11-.71.18-1.27.21-1.8h6.8a1 1 0 000-2z"/></g></g></svg>