<svg xmlns="http://www.w3.org/2000/svg" viewBox="0 0 461.31 110.77"><defs><style>.cls-1{fill:#fff}.cls-2{fill:none;stroke:#fff;stroke-linecap:round;stroke-linejoin:round;stroke-width:.4px}</style></defs><g id="レイヤー_2" data-name="レイヤー 2"><g id="design"><path class="cls-1" d="M12.72 89l-1.51.31-1.53.3-1.54.27a11.85 11.85 0 01-1.58-.07 1.12 1.12 0 01-1.07-.29c-.3-.31-.66-.64-.66-1.08A1.51 1.51 0 016.21 87c.36 0 .77-.26 1.4-.35.39-.05.91.24 1.47.14s.85-.35 1.38-.45.86-.32 1.38-.42.88-.27 1.39-.38 1 .23 1.5.13c.2-.06.36-.42.56-.42a2.46 2.46 0 011.53.53 1.88 1.88 0 01.38 1.47 1.91 1.91 0 01-.45 1.28c-.28.35-.4.85-.72 1.21s-.55.76-.87 1.1-.85.47-1.19.8-.74.56-1.08.88-.48.87-.84 1.17-.8.5-1.17.78-.83.47-1.21.73c0 0 .06.07.09.07l1.47-.32c.5-.11 1-.34 1.46-.45s1-.16 1.49-.27 1-.26 1.47-.37l1.48-.31c.48-.09 1 .06 1.53 0l1.49-.3 1.49-.33c.55-.09 1.13-.2 1.46.05a1.76 1.76 0 01.49 1.38c0 .37-.29.58-.55.86a1.47 1.47 0 01-.81.61c-.43.09-.83.31-1.24.42s-.92 0-1.32.1-.75.57-1.13.7-1 0-1.36.15a10.65 10.65 0 00-1.25.77 8.44 8.44 0 00-1.13 1 6.11 6.11 0 00-.7 1.3 5.85 5.85 0 00-.72 1.27 5.19 5.19 0 00-.17 1.44 3.06 3.06 0 00.34 1.35c.2.4.62.55 1 .83s.58.79 1.09.93a13 13 0 001.43 0 13.38 13.38 0 001.38.33c.49 0 .92 0 1.19.25a1.84 1.84 0 01.57 1.17 2 2 0 01-.55 1.33 2 2 0 01-1.35.34 13.09 13.09 0 01-1.46-.15 10.31 10.31 0 01-1.43-.32 9.4 9.4 0 01-1.39-.39 7.72 7.72 0 01-1.28-.67 7.28 7.28 0 01-1.3-.71c-.35-.35-.38-.93-.62-1.35s-.77-.73-.89-1.21a6.73 6.73 0 01-.06-1.5 8.2 8.2 0 01.44-1.55c.11-.51 0-1.13.19-1.63a7.44 7.44 0 011.06-1.24 7.89 7.89 0 011-1.3h.08c-.49.11-1 .08-1.48.2s-.95.3-1.44.41-1 .2-1.45.32-.93.34-1.42.47-1 .2-1.45.33-1 .38-1.44.52-1 .24-1.48.39a2 2 0 01-.58.06 1.67 1.67 0 01-1.2-.5 1.93 1.93 0 01-.51-1.26c0-.6.53-1.1 1.37-1.39.38-.13.71-.47 1.1-.64s.81-.27 1.18-.45.71-.48 1.07-.69.83-.28 1.17-.51.74-.66 1.14-.94.9-.45 1.29-.75.56-.87.93-1.18.85-.54 1.21-.87.56-.83.9-1.17.85-.55 1.18-.91c.03-.02.03.08-.02.08z"/><path class="cls-2" d="M12.72 89l-1.51.31-1.53.3-1.54.27a11.85 11.85 0 01-1.58-.07 1.12 1.12 0 01-1.07-.29c-.3-.31-.66-.64-.66-1.08A1.51 1.51 0 016.21 87c.36 0 .77-.26 1.4-.35.39-.05.91.24 1.47.14s.85-.35 1.38-.45.86-.32 1.38-.42.88-.27 1.39-.38 1 .23 1.5.13c.2-.06.36-.42.56-.42a2.46 2.46 0 011.53.53 1.88 1.88 0 01.38 1.47 1.91 1.91 0 01-.45 1.28c-.28.35-.4.85-.72 1.21s-.55.76-.87 1.1-.85.47-1.19.8-.74.56-1.08.88-.48.87-.84 1.17-.8.5-1.17.78-.83.47-1.21.73c0 0 .06.07.09.07l1.47-.32c.5-.11 1-.34 1.46-.45s1-.16 1.49-.27 1-.26 1.47-.37l1.48-.31c.48-.09 1 .06 1.53 0l1.49-.3 1.49-.33c.55-.09 1.13-.2 1.46.05a1.76 1.76 0 01.49 1.38c0 .37-.29.58-.55.86a1.47 1.47 0 01-.81.61c-.43.09-.83.31-1.24.42s-.92 0-1.32.1-.75.57-1.13.7-1 0-1.36.15a10.65 10.65 0 00-1.25.77 8.44 8.44 0 00-1.13 1 6.11 6.11 0 00-.7 1.3 5.85 5.85 0 00-.72 1.27 5.19 5.19 0 00-.17 1.44 3.06 3.06 0 00.34 1.35c.2.4.62.55 1 .83s.58.79 1.09.93a13 13 0 001.43 0 13.38 13.38 0 001.38.33c.49 0 .92 0 1.19.25a1.84 1.84 0 01.57 1.17 2 2 0 01-.55 1.33 2 2 0 01-1.35.34 13.09 13.09 0 01-1.46-.15 10.31 10.31 0 01-1.43-.32 9.4 9.4 0 01-1.39-.39 7.72 7.72 0 01-1.28-.67 7.28 7.28 0 01-1.3-.71c-.35-.35-.38-.93-.62-1.35s-.77-.73-.89-1.21a6.73 6.73 0 01-.06-1.5 8.2 8.2 0 01.44-1.55c.11-.51 0-1.13.19-1.63a7.44 7.44 0 011.06-1.24 7.89 7.89 0 011-1.3h.08c-.49.11-1 .08-1.48.2s-.95.3-1.44.41-1 .2-1.45.32-.93.34-1.42.47-1 .2-1.45.33-1 .38-1.44.52-1 .24-1.48.39a2 2 0 01-.58.06 1.67 1.67 0 01-1.2-.5 1.93 1.93 0 01-.51-1.26c0-.6.53-1.1 1.37-1.39.38-.13.71-.47 1.1-.64s.81-.27 1.18-.45.71-.48 1.07-.69.83-.28 1.17-.51.74-.66 1.14-.94.9-.45 1.29-.75.56-.87.93-1.18.85-.54 1.21-.87.56-.83.9-1.17.85-.55 1.18-.91c.03-.02.03.08-.02.08z"/><path class="cls-1" d="M41.09 94.24c.36-.36.68-.79 1-1.11s.94-.46 1.28-.77.54-.91.89-1.2.92-.46 1.29-.73.7-.79 1.09-1 1-.15 1.46-.28a4.58 4.58 0 011.37-.39 5.1 5.1 0 011.67 0A3.18 3.18 0 0152.36 90a3.77 3.77 0 01.81 1.42 6.27 6.27 0 01.14 1.58c0 .73-.16.72-.2 1.44s-.33.72-.37 1.44.29.75.25 1.48-.1.72-.14 1.45.18.74.14 1.46-.37.71-.41 1.44.19.75.15 1.47.06 1 .58 1a3 3 0 001.56-.7 10.7 10.7 0 001.13-1.21 1.94 1.94 0 011.4-.6 1.71 1.71 0 011.78 1.67 2.1 2.1 0 01-.61 1.29 12 12 0 01-1.12 1.13 8.49 8.49 0 01-1.41.76c-.49.28-.87.8-1.35.93s-1.11-.26-1.63-.26a6.78 6.78 0 01-1.6 0 3 3 0 01-1.34-.83 2.78 2.78 0 01-.52-1.43 4.72 4.72 0 01-.34-1.55v-1.4c0-.7.12-.7.16-1.4s-.18-.72-.14-1.42.22-.69.25-1.39-.14-.72-.1-1.42.4-.69.44-1.39-.22-.72-.18-1.42c.06-1.07-.14-1.43-.9-1.43a2.43 2.43 0 00-1.35.36 8.11 8.11 0 00-1.3.67c-.34.27-.66.65-1.06 1s-.61.7-1 1.06-.53.79-.9 1.16-1 .34-1.34.7-.46.86-.81 1.22c-.14.68.22.69.22 1.39v2.79c0 .7-.34.7-.34 1.4s-.09.7-.09 1.4.09.7.08 1.4-.06.7-.06 1.4c0 .47 0 .84-.27 1.09a1.71 1.71 0 01-1.12.44 1.65 1.65 0 01-1.08-.47 1.56 1.56 0 01-.65-1.07v-1.3c0-.65.32-.64.32-1.29v-1.3c0-.65-.19-.66-.19-1.31s.73-1 .09-1.19-.5.34-.86.91 0 .81-.36 1.37-.45.51-.83 1.07a1.81 1.81 0 01-1.33.81 1.88 1.88 0 01-1.14-.56 1.55 1.55 0 01-.5-1.11 1.59 1.59 0 01.36-.77c.25-.35.52-.71.78-1.11s.31-.84.55-1.23.7-.61.94-1 .19-.92.42-1.32.75-.6 1-1 .23-.89.45-1.3.54-.76.76-1.16c.1-.88.65-1.22 0-1.8s-.93 0-1.79.13l-1.73.41c-.49.08-.85.16-1.11-.12a1.7 1.7 0 01-.44-1.15 1.32 1.32 0 011.17-1.38c.65-.11.6-.4 1.25-.51s.67 0 1.32-.14 1.07.56 1.48 0-.33-.88-.33-1.63.45-.76.46-1.51-.18-.76-.17-1.52c0-.44.29-.61.58-.84s.55-.6.94-.6a1.82 1.82 0 011.07.43 1.36 1.36 0 01.63 1v1.37c0 .68-.14.68-.15 1.37s-.29.71 0 1.33c.72 0 .68.56.68 1a1.55 1.55 0 01-.24 1 6.56 6.56 0 01-.8.9c-.28.48-.12.68.09 1.24z"/><path class="cls-2" d="M41.09 94.24c.36-.36.68-.79 1-1.11s.94-.46 1.28-.77.54-.91.89-1.2.92-.46 1.29-.73.7-.79 1.09-1 1-.15 1.46-.28a4.58 4.58 0 011.37-.39 5.1 5.1 0 011.67 0A3.18 3.18 0 0152.36 90a3.77 3.77 0 01.81 1.42 6.27 6.27 0 01.14 1.58c0 .73-.16.72-.2 1.44s-.33.72-.37 1.44.29.75.25 1.48-.1.72-.14 1.45.18.74.14 1.46-.37.71-.41 1.44.19.75.15 1.47.06 1 .58 1a3 3 0 001.56-.7 10.7 10.7 0 001.13-1.21 1.94 1.94 0 011.4-.6 1.71 1.71 0 011.78 1.67 2.1 2.1 0 01-.61 1.29 12 12 0 01-1.12 1.13 8.49 8.49 0 01-1.41.76c-.49.28-.87.8-1.35.93s-1.11-.26-1.63-.26a6.78 6.78 0 01-1.6 0 3 3 0 01-1.34-.83 2.78 2.78 0 01-.52-1.43 4.72 4.72 0 01-.34-1.55v-1.4c0-.7.12-.7.16-1.4s-.18-.72-.14-1.42.22-.69.25-1.39-.14-.72-.1-1.42.4-.69.44-1.39-.22-.72-.18-1.42c.06-1.07-.14-1.43-.9-1.43a2.43 2.43 0 00-1.35.36 8.11 8.11 0 00-1.3.67c-.34.27-.66.65-1.06 1s-.61.7-1 1.06-.53.79-.9 1.16-1 .34-1.34.7-.46.86-.81 1.22c-.14.68.22.69.22 1.39v2.79c0 .7-.34.7-.34 1.4s-.09.7-.09 1.4.09.7.08 1.4-.06.7-.06 1.4c0 .47 0 .84-.27 1.09a1.71 1.71 0 01-1.12.44 1.65 1.65 0 01-1.08-.47 1.56 1.56 0 01-.65-1.07v-1.3c0-.65.32-.64.32-1.29v-1.3c0-.65-.19-.66-.19-1.31s.73-1 .09-1.19-.5.34-.86.91 0 .81-.36 1.37-.45.51-.83 1.07a1.81 1.81 0 01-1.33.81 1.88 1.88 0 01-1.14-.56 1.55 1.55 0 01-.5-1.11 1.59 1.59 0 01.36-.77c.25-.35.52-.71.78-1.11s.31-.84.55-1.23.7-.61.94-1 .19-.92.42-1.32.75-.6 1-1 .23-.89.45-1.3.54-.76.76-1.16c.1-.88.65-1.22 0-1.8s-.93 0-1.79.13l-1.73.41c-.49.08-.85.16-1.11-.12a1.7 1.7 0 01-.44-1.15 1.32 1.32 0 011.17-1.38c.65-.11.6-.4 1.25-.51s.67 0 1.32-.14 1.07.56 1.48 0-.33-.88-.33-1.63.45-.76.46-1.51-.18-.76-.17-1.52c0-.44.29-.61.58-.84s.55-.6.94-.6a1.82 1.82 0 011.07.43 1.36 1.36 0 01.63 1v1.37c0 .68-.14.68-.15 1.37s-.29.71 0 1.33c.72 0 .68.56.68 1a1.55 1.55 0 01-.24 1 6.56 6.56 0 01-.8.9c-.28.48-.12.68.09 1.24z"/><path class="cls-1" d="M78.49 89.29l-1.5.35c-.56.12-1.14-.11-1.6 0l-1.53.27c-.63.11-1.12.18-1.53.24a1.21 1.21 0 01-1.1-.33c-.31-.3-.28-.66-.28-1.1s-.29-.85-.06-1.13.68-.18 1.09-.25.81 0 1.44-.09c.39 0 .84-.22 1.41-.32l1.4-.27 1.41-.29c.43-.09.93-.06 1.43-.17s.83-.54 1.33-.65c.21-.06.45.11.66.11a2.09 2.09 0 011.38.57 1.78 1.78 0 01.72 1.3 2.27 2.27 0 01-.49 1.4c-.28.35-.83.5-1.14.86s-.6.69-.92 1-.36 1-.7 1.28-.88.42-1.23.73-.54.8-.9 1.1-.83.46-1.19.75-.8.51-1.18.78a1 1 0 00.14.37c.5-.11.94-.55 1.44-.66s1.05.13 1.55 0 .89-.6 1.39-.71 1.06.14 1.56 0 1-.15 1.49-.25.93-.41 1.44-.52 1-.35 1.46-.46 1 0 1.52-.13a1.74 1.74 0 011.34.21 1.61 1.61 0 01.69 1.22 1.63 1.63 0 01-.4 1.07A2.06 2.06 0 0188 96c-.43.1-.87.13-1.29.23s-.81.39-1.21.5-.82.36-1.2.5a9.93 9.93 0 00-1.16.52 11.71 11.71 0 00-1.36.53 7.75 7.75 0 00-1.15.89 6.46 6.46 0 00-.83 1.2 6.64 6.64 0 00-.72 1.28 5.12 5.12 0 00.07 1.47 3.19 3.19 0 00.14 1.37 2.62 2.62 0 00.93 1 4.44 4.44 0 001.24.71c.4.11.94-.23 1.46-.16s.84.51 1.35.53a1.38 1.38 0 011 .39 1.51 1.51 0 01.62 1 1.6 1.6 0 01-.68 1.07c-.29.27-.59.73-1.12.72s-1 0-1.49 0-1-.17-1.46-.27-.85-.64-1.29-.81a8.7 8.7 0 01-1.36-.49 6.86 6.86 0 01-1.23-.8 5.61 5.61 0 01-.79-1.25 5.25 5.25 0 01-.52-1.35 6.11 6.11 0 01-.18-1.44 7.8 7.8 0 01.16-1.59 6.37 6.37 0 01.56-1.5 7 7 0 01.95-1.25 8.48 8.48 0 011.11-1.15.55.55 0 00-.14-.26c-.49.12-.9.57-1.39.68s-1 0-1.5.11-.92.38-1.4.5-1 .14-1.47.26-.94.31-1.43.44-1 .09-1.52.23-1 .26-1.48.41a2.05 2.05 0 01-.53.06 1.6 1.6 0 01-1.18-.39 1.74 1.74 0 01-.37-1.2c0-.61.37-1 1.21-1.33.39-.14.66-.61 1.06-.78s.89-.07 1.27-.26.6-.66 1-.87.79-.32 1.13-.55.94-.39 1.33-.68.66-.78 1-1.08.76-.63 1.13-.94.85-.53 1.21-.86.51-.89.86-1.23.84-.55 1.17-.91c.04-.01.02.08-.02.09zm5.94-1.57a1.54 1.54 0 011.37-1.29c.26 0 .46.38.72.61a16.48 16.48 0 011.19 1.18 12.29 12.29 0 011.05 1.31 1 1 0 01.27.7c0 .64-.45.91-1.06.91-.35 0-.85.19-1.11-.19s-.43-1.07-.77-1.47-.72-.88-1.07-1.23-.59-.33-.59-.53zm2.87-2.32a1.48 1.48 0 011.37-1.26c.29 0 .48.42.77.65a14.84 14.84 0 011.17 1.11 12.81 12.81 0 011 1.23 1.14 1.14 0 01.33.79c0 .63-.45.84-1.06.84-.34 0-.87.23-1.16-.14s-.44-1-.8-1.43-.71-.88-1-1.23-.62-.33-.62-.56z"/><path class="cls-2" d="M78.49 89.29l-1.5.35c-.56.12-1.14-.11-1.6 0l-1.53.27c-.63.11-1.12.18-1.53.24a1.21 1.21 0 01-1.1-.33c-.31-.3-.28-.66-.28-1.1s-.29-.85-.06-1.13.68-.18 1.09-.25.81 0 1.44-.09c.39 0 .84-.22 1.41-.32l1.4-.27 1.41-.29c.43-.09.93-.06 1.43-.17s.83-.54 1.33-.65c.21-.06.45.11.66.11a2.09 2.09 0 011.38.57 1.78 1.78 0 01.72 1.3 2.27 2.27 0 01-.49 1.4c-.28.35-.83.5-1.14.86s-.6.69-.92 1-.36 1-.7 1.28-.88.42-1.23.73-.54.8-.9 1.1-.83.46-1.19.75-.8.51-1.18.78a1 1 0 00.14.37c.5-.11.94-.55 1.44-.66s1.05.13 1.55 0 .89-.6 1.39-.71 1.06.14 1.56 0 1-.15 1.49-.25.93-.41 1.44-.52 1-.35 1.46-.46 1 0 1.52-.13a1.74 1.74 0 011.34.21 1.61 1.61 0 01.69 1.22 1.63 1.63 0 01-.4 1.07A2.06 2.06 0 0188 96c-.43.1-.87.13-1.29.23s-.81.39-1.21.5-.82.36-1.2.5a9.93 9.93 0 00-1.16.52 11.71 11.71 0 00-1.36.53 7.75 7.75 0 00-1.15.89 6.46 6.46 0 00-.83 1.2 6.64 6.64 0 00-.72 1.28 5.12 5.12 0 00.07 1.47 3.19 3.19 0 00.14 1.37 2.62 2.62 0 00.93 1 4.44 4.44 0 001.24.71c.4.11.94-.23 1.46-.16s.84.51 1.35.53a1.38 1.38 0 011 .39 1.51 1.51 0 01.62 1 1.6 1.6 0 01-.68 1.07c-.29.27-.59.73-1.12.72s-1 0-1.49 0-1-.17-1.46-.27-.85-.64-1.29-.81a8.7 8.7 0 01-1.36-.49 6.86 6.86 0 01-1.23-.8 5.61 5.61 0 01-.79-1.25 5.25 5.25 0 01-.52-1.35 6.11 6.11 0 01-.18-1.44 7.8 7.8 0 01.16-1.59 6.37 6.37 0 01.56-1.5 7 7 0 01.95-1.25 8.48 8.48 0 011.11-1.15.55.55 0 00-.14-.26c-.49.12-.9.57-1.39.68s-1 0-1.5.11-.92.38-1.4.5-1 .14-1.47.26-.94.31-1.43.44-1 .09-1.52.23-1 .26-1.48.41a2.05 2.05 0 01-.53.06 1.6 1.6 0 01-1.18-.39 1.74 1.74 0 01-.37-1.2c0-.61.37-1 1.21-1.33.39-.14.66-.61 1.06-.78s.89-.07 1.27-.26.6-.66 1-.87.79-.32 1.13-.55.94-.39 1.33-.68.66-.78 1-1.08.76-.63 1.13-.94.85-.53 1.21-.86.51-.89.86-1.23.84-.55 1.17-.91c.04-.01.02.08-.02.09zm5.94-1.57a1.54 1.54 0 011.37-1.29c.26 0 .46.38.72.61a16.48 16.48 0 011.19 1.18 12.29 12.29 0 011.05 1.31 1 1 0 01.27.7c0 .64-.45.91-1.06.91-.35 0-.85.19-1.11-.19s-.43-1.07-.77-1.47-.72-.88-1.07-1.23-.59-.33-.59-.53zm2.87-2.32a1.48 1.48 0 011.37-1.26c.29 0 .48.42.77.65a14.84 14.84 0 011.17 1.11 12.81 12.81 0 011 1.23 1.14 1.14 0 01.33.79c0 .63-.45.84-1.06.84-.34 0-.87.23-1.16-.14s-.44-1-.8-1.43-.71-.88-1-1.23-.62-.33-.62-.56z"/><path class="cls-1" d="M107.4 94.21c.36-.36.59-.77.93-1.09s.73-.69 1.07-1 .83-.58 1.18-.87.76-.68 1.12-.94a10.37 10.37 0 011.3-.69c.46-.26.8-.73 1.22-.86a4.78 4.78 0 011.5-.08 3.88 3.88 0 011.5.53c.53.21 1.08.29 1.41.71a3.65 3.65 0 01.81 1.44 6 6 0 01.12 1.66c0 .73-.42.71-.46 1.43s.16.74.13 1.47-.09.72-.13 1.45-.23.72-.27 1.44.24.74.2 1.47-.27.72-.31 1.45-.06.73-.1 1.46.4.91.92.91a2.57 2.57 0 001.68-.42c.36-.25.45-1 .92-1.48a2 2 0 011.48-.51c.43 0 .69.39 1 .68a1.16 1.16 0 01.38 1c0 .38.15.85-.23 1.25a12.73 12.73 0 01-1.15 1.09 7.89 7.89 0 01-1.3.91 6.87 6.87 0 01-1.44.67 5.66 5.66 0 01-1.58.1 5.28 5.28 0 01-1.53-.38c-.56-.16-1.1-.16-1.46-.53a3.16 3.16 0 01-.9-1.37 6.48 6.48 0 010-1.66c0-.7.35-.68.39-1.38s-.27-.72-.24-1.42.18-.7.22-1.4-.16-.71-.12-1.41.2-.7.24-1.4 0-.71 0-1.41.08-.7.12-1.41c.06-1.07-.22-1.46-1-1.46a2.85 2.85 0 00-1.27.53 9.68 9.68 0 00-1.22.75c-.33.26-.63.64-1 1s-.65.65-1 1-.7.62-1.07 1-.66.67-1 1-.73.56-1.08.93a4.56 4.56 0 000 1.38c0 .7-.09.7-.09 1.4s-.1.69-.1 1.39.14.7.14 1.4.09.7.09 1.4-.27.7-.27 1.4-.08.7-.08 1.4a1.09 1.09 0 01-.34.95 1.63 1.63 0 01-1 .57 1.84 1.84 0 01-1.18-.36 1.63 1.63 0 01-.4-1.16c0-.65.14-.65.14-1.3s-.29-.66-.28-1.31.14-.65.15-1.3-.16-.65-.15-1.3.86-1 .22-1.13-.44.31-.81.87-.38.56-.74 1.12 0 .79-.41 1.35a1.75 1.75 0 01-2.59.25 1.72 1.72 0 01-.55-1.16c0-.26.42-.42.6-.68s.14-1 .4-1.35.43-.76.67-1.16.5-.73.74-1.12.61-.67.85-1.07.59-.68.82-1.08.09-1 .31-1.37.49-.7.7-1.1c.11-.88 1-1.29.31-1.87s-1 .21-1.84.37-.88.09-1.74.24a1.06 1.06 0 01-1.07-.23 1.68 1.68 0 01-.54-1.1 1.62 1.62 0 011.12-1.71c.65-.1.69.09 1.34 0s.67 0 1.33-.06.92.19 1.32-.34.2-.79.21-1.55-.29-.76-.28-1.52 0-.76 0-1.51a1.32 1.32 0 01.64-1 1.5 1.5 0 011-.26 1.37 1.37 0 01.93.38c.29.23.51.38.49.82 0 .69.21.69.19 1.38s.1.69.09 1.37-.59.77-.28 1.38a.93.93 0 011 .91c0 .33-.2.56-.47 1-.16.25-.17.67-.48 1a.93.93 0 00-.09 1.21z"/><path class="cls-2" d="M107.4 94.21c.36-.36.59-.77.93-1.09s.73-.69 1.07-1 .83-.58 1.18-.87.76-.68 1.12-.94a10.37 10.37 0 011.3-.69c.46-.26.8-.73 1.22-.86a4.78 4.78 0 011.5-.08 3.88 3.88 0 011.5.53c.53.21 1.08.29 1.41.71a3.65 3.65 0 01.81 1.44 6 6 0 01.12 1.66c0 .73-.42.71-.46 1.43s.16.74.13 1.47-.09.72-.13 1.45-.23.72-.27 1.44.24.74.2 1.47-.27.72-.31 1.45-.06.73-.1 1.46.4.91.92.91a2.57 2.57 0 001.68-.42c.36-.25.45-1 .92-1.48a2 2 0 011.48-.51c.43 0 .69.39 1 .68a1.16 1.16 0 01.38 1c0 .38.15.85-.23 1.25a12.73 12.73 0 01-1.15 1.09 7.89 7.89 0 01-1.3.91 6.87 6.87 0 01-1.44.67 5.66 5.66 0 01-1.58.1 5.28 5.28 0 01-1.53-.38c-.56-.16-1.1-.16-1.46-.53a3.16 3.16 0 01-.9-1.37 6.48 6.48 0 010-1.66c0-.7.35-.68.39-1.38s-.27-.72-.24-1.42.18-.7.22-1.4-.16-.71-.12-1.41.2-.7.24-1.4 0-.71 0-1.41.08-.7.12-1.41c.06-1.07-.22-1.46-1-1.46a2.85 2.85 0 00-1.27.53 9.68 9.68 0 00-1.22.75c-.33.26-.63.64-1 1s-.65.65-1 1-.7.62-1.07 1-.66.67-1 1-.73.56-1.08.93a4.56 4.56 0 000 1.38c0 .7-.09.7-.09 1.4s-.1.69-.1 1.39.14.7.14 1.4.09.7.09 1.4-.27.7-.27 1.4-.08.7-.08 1.4a1.09 1.09 0 01-.34.95 1.63 1.63 0 01-1 .57 1.84 1.84 0 01-1.18-.36 1.63 1.63 0 01-.4-1.16c0-.65.14-.65.14-1.3s-.29-.66-.28-1.31.14-.65.15-1.3-.16-.65-.15-1.3.86-1 .22-1.13-.44.31-.81.87-.38.56-.74 1.12 0 .79-.41 1.35a1.75 1.75 0 01-2.59.25 1.72 1.72 0 01-.55-1.16c0-.26.42-.42.6-.68s.14-1 .4-1.35.43-.76.67-1.16.5-.73.74-1.12.61-.67.85-1.07.59-.68.82-1.08.09-1 .31-1.37.49-.7.7-1.1c.11-.88 1-1.29.31-1.87s-1 .21-1.84.37-.88.09-1.74.24a1.06 1.06 0 01-1.07-.23 1.68 1.68 0 01-.54-1.1 1.62 1.62 0 011.12-1.71c.65-.1.69.09 1.34 0s.67 0 1.33-.06.92.19 1.32-.34.2-.79.21-1.55-.29-.76-.28-1.52 0-.76 0-1.51a1.32 1.32 0 01.64-1 1.5 1.5 0 011-.26 1.37 1.37 0 01.93.38c.29.23.51.38.49.82 0 .69.21.69.19 1.38s.1.69.09 1.37-.59.77-.28 1.38a.93.93 0 011 .91c0 .33-.2.56-.47 1-.16.25-.17.67-.48 1a.93.93 0 00-.09 1.21z"/><path class="cls-1" d="M133.49 99.35c0-.49.4-.94.46-1.41a12.17 12.17 0 010-1.47 13 13 0 01.64-1.3 10.32 10.32 0 01.52-1.34 10.67 10.67 0 01.89-1.12 12.85 12.85 0 01.74-1.25 12.43 12.43 0 011.14-.89c.36-.31.61-.79 1-1.06a13.2 13.2 0 011.31-.63 14.31 14.31 0 011.34-.52c.44-.17.89-.35 1.35-.48s1 0 1.44-.13.9-.37 1.39-.41 1 0 1.44 0a13.76 13.76 0 011.42 0 12.32 12.32 0 011.39.37c.47.09.92.22 1.36.35a13 13 0 011.33.46 10.55 10.55 0 011.33.54 9.81 9.81 0 011.16.84c.36.31.51.84.81 1.2a10.47 10.47 0 011 1 9.47 9.47 0 01.57 1.3 19.65 19.65 0 01.54 2.75c.05.46.49.91.49 1.39a13.56 13.56 0 01-.35 1.43 10.87 10.87 0 01-.35 1.39 9.26 9.26 0 01-.28 1.41 8.62 8.62 0 01-.62 1.3 9.9 9.9 0 01-.68 1.29 11.12 11.12 0 01-1 1 10.2 10.2 0 01-1.22.79c-.38.28-.64.76-1.06 1s-.94.27-1.38.47-.88.37-1.34.52a1.83 1.83 0 01-.66 0 1.58 1.58 0 01-1.19-.31 1.76 1.76 0 01-.46-1.2 1.69 1.69 0 011.25-1.57c.49-.17 1-.17 1.45-.37a10 10 0 001.25-.83 7.88 7.88 0 001-1.11 5.86 5.86 0 00.79-1.19 5.72 5.72 0 00.61-1.27c.16-.45.58-.83.65-1.33a10.33 10.33 0 000-1.47 8.83 8.83 0 00.1-1.43 7.92 7.92 0 00-.45-1.35 7.46 7.46 0 00-.62-1.27c-.25-.39-.74-.6-1.06-.93a6.73 6.73 0 00-.93-1.06c-.38-.26-.93-.2-1.37-.38a7.14 7.14 0 00-1.24-.61 9.2 9.2 0 00-1.32-.14c0 .48-.23.87-.28 1.34s-.06 1-.13 1.42 0 1 0 1.44-.51.87-.62 1.33-.19.93-.32 1.38-.23.92-.38 1.36 0 1-.17 1.46-.41.88-.61 1.3-.47.85-.7 1.25a10.37 10.37 0 01-.89 1.1 7.54 7.54 0 01-.89 1.07 5.18 5.18 0 01-1.2.68 4.66 4.66 0 01-1.25.56 6.82 6.82 0 01-1.38.36 5.6 5.6 0 01-1.36-.46 5.18 5.18 0 01-1.36-.38c-.39-.24-.61-.7-.94-1.06s-.79-.57-1-1a8 8 0 01-.58-1.32c-.12-.43.1-1 0-1.45a9.75 9.75 0 01-.52-1.35zm3.71 0c0 .6-.31 1.15-.22 1.58a3 3 0 00.89 1.3c.37.48.75.84 1.22.84a2.25 2.25 0 001.5-.7 4.87 4.87 0 001.13-1.25c.22-.38.24-.89.44-1.32s.5-.78.66-1.22.09-.92.23-1.37.37-.84.49-1.29.29-.87.39-1.32.15-.9.22-1.36.32-.89.38-1.35-.11-.88-.07-1.35a8 8 0 00-1.3.32 7.58 7.58 0 00-1.22.67 8.67 8.67 0 00-1.27.59 9.45 9.45 0 00-1.08.91 9 9 0 00-.87 1.09 9.69 9.69 0 00-.6 1.26 9.48 9.48 0 00-.51 1.28 9.22 9.22 0 00-.59 1.28 9.89 9.89 0 00.18 1.41z"/><path class="cls-2" d="M133.49 99.35c0-.49.4-.94.46-1.41a12.17 12.17 0 010-1.47 13 13 0 01.64-1.3 10.32 10.32 0 01.52-1.34 10.67 10.67 0 01.89-1.12 12.85 12.85 0 01.74-1.25 12.43 12.43 0 011.14-.89c.36-.31.61-.79 1-1.06a13.2 13.2 0 011.31-.63 14.31 14.31 0 011.34-.52c.44-.17.89-.35 1.35-.48s1 0 1.44-.13.9-.37 1.39-.41 1 0 1.44 0a13.76 13.76 0 011.42 0 12.32 12.32 0 011.39.37c.47.09.92.22 1.36.35a13 13 0 011.33.46 10.55 10.55 0 011.33.54 9.81 9.81 0 011.16.84c.36.31.51.84.81 1.2a10.47 10.47 0 011 1 9.47 9.47 0 01.57 1.3 19.65 19.65 0 01.54 2.75c.05.46.49.91.49 1.39a13.56 13.56 0 01-.35 1.43 10.87 10.87 0 01-.35 1.39 9.26 9.26 0 01-.28 1.41 8.62 8.62 0 01-.62 1.3 9.9 9.9 0 01-.68 1.29 11.12 11.12 0 01-1 1 10.2 10.2 0 01-1.22.79c-.38.28-.64.76-1.06 1s-.94.27-1.38.47-.88.37-1.34.52a1.83 1.83 0 01-.66 0 1.58 1.58 0 01-1.19-.31 1.76 1.76 0 01-.46-1.2 1.69 1.69 0 011.25-1.57c.49-.17 1-.17 1.45-.37a10 10 0 001.25-.83 7.88 7.88 0 001-1.11 5.86 5.86 0 00.79-1.19 5.72 5.72 0 00.61-1.27c.16-.45.58-.83.65-1.33a10.33 10.33 0 000-1.47 8.83 8.83 0 00.1-1.43 7.92 7.92 0 00-.45-1.35 7.46 7.46 0 00-.62-1.27c-.25-.39-.74-.6-1.06-.93a6.73 6.73 0 00-.93-1.06c-.38-.26-.93-.2-1.37-.38a7.14 7.14 0 00-1.24-.61 9.2 9.2 0 00-1.32-.14c0 .48-.23.87-.28 1.34s-.06 1-.13 1.42 0 1 0 1.44-.51.87-.62 1.33-.19.93-.32 1.38-.23.92-.38 1.36 0 1-.17 1.46-.41.88-.61 1.3-.47.85-.7 1.25a10.37 10.37 0 01-.89 1.1 7.54 7.54 0 01-.89 1.07 5.18 5.18 0 01-1.2.68 4.66 4.66 0 01-1.25.56 6.82 6.82 0 01-1.38.36 5.6 5.6 0 01-1.36-.46 5.18 5.18 0 01-1.36-.38c-.39-.24-.61-.7-.94-1.06s-.79-.57-1-1a8 8 0 01-.58-1.32c-.12-.43.1-1 0-1.45a9.75 9.75 0 01-.52-1.35zm3.71 0c0 .6-.31 1.15-.22 1.58a3 3 0 00.89 1.3c.37.48.75.84 1.22.84a2.25 2.25 0 001.5-.7 4.87 4.87 0 001.13-1.25c.22-.38.24-.89.44-1.32s.5-.78.66-1.22.09-.92.23-1.37.37-.84.49-1.29.29-.87.39-1.32.15-.9.22-1.36.32-.89.38-1.35-.11-.88-.07-1.35a8 8 0 00-1.3.32 7.58 7.58 0 00-1.22.67 8.67 8.67 0 00-1.27.59 9.45 9.45 0 00-1.08.91 9 9 0 00-.87 1.09 9.69 9.69 0 00-.6 1.26 9.48 9.48 0 00-.51 1.28 9.22 9.22 0 00-.59 1.28 9.89 9.89 0 00.18 1.41z"/><path class="cls-1" d="M188.43 78.07c.48 0 .95-.31 1.37-.26s.79.61 1.18.76 1 0 1.35.32a3 3 0 01.68 1.2 3.55 3.55 0 01.17 1.33 4.88 4.88 0 01-.07 1.12 7.69 7.69 0 01-.34 1.07c-.16.44-.11 1-.3 1.39s-.58.77-.78 1.19-.63.72-.85 1.14-.18 1-.42 1.36-.4.86-.65 1.25-.67.68-.93 1.07-.62.7-.9 1.08-.57.85-.86 1.22c.39.26 1 .46 1.36.75s.91.4 1.3.7.6.8 1 1.11.9.43 1.27.74.7.69 1.06 1 .43 1 .79 1.3.83.53 1.17.86.71.67 1.05 1 .77.61 1.09 1 .75.65 1.06 1a3.32 3.32 0 01.84 1.95 2.77 2.77 0 01-.36 1.39c-.24.36-.79.53-1.18.74a2.57 2.57 0 01-1.27.13 2.25 2.25 0 01-1.09-.07c-.3-.16-.82-.23-1.08-.54s-.51-.74-.83-1.1-.55-.72-.87-1.07-.45-.82-.78-1.16-.63-.66-1-1-.78-.51-1.12-.83-.72-.57-1.06-.88-.6-.71-.94-1-.59-.73-.94-1-.91-.35-1.26-.63-.61-.75-1-1c-.31.34-.75.57-1.08.91s-.74.55-1.07.87-.47.86-.81 1.17-.5.85-.85 1.15-.85.43-1.21.72-.76.54-1.13.82-.62.72-1 1-.75.55-1.14.81-1 .18-1.38.43-.84.39-1.24.62-.58.86-1 1.08-.95.19-1.36.4a2.59 2.59 0 01-1.02.32c-.44 0-.69-.34-1-.54a1.83 1.83 0 01-.75-.76 2 2 0 01-.43-1 1.92 1.92 0 01.3-1.19 2.55 2.55 0 011-.69c.43-.21.65-.81 1.07-1s1-.19 1.4-.43.85-.45 1.25-.71.69-.7 1.09-1 .67-.7 1.06-1 1.1-.13 1.47-.43.77-.59 1.13-.89.35-1.07.7-1.39.88-.45 1.22-.78.6-.75.93-1.09.94-.43 1.26-.79.72-.65 1-1 .36-1 .65-1.32.85-.57 1.13-1 .28-1 .54-1.38.56-.78.8-1.19.21-1 .43-1.39.73-.7.94-1.13.58-.79.76-1.23a1.74 1.74 0 00.09-.75c0-.37-.49-.57-1.18-.57s-.73-.12-1.45-.11-.72.3-1.44.32-.73-.1-1.45-.09-.73-.28-1.46-.27-.71.44-1.44.46-.73 0-1.45 0-.73-.06-1.45 0-.72.32-1.45.33-.73-.13-1.46-.11-.73 0-1.45 0a2.14 2.14 0 01-1.59-.65 2.8 2.8 0 01-.71-1.63 3 3 0 01.67-1.67c.33-.42.95-.33 1.59-.33s.73-.39 1.46-.4.73.1 1.46.09.73-.1 1.46-.11.73 0 1.47-.06.73.24 1.46.23.74.09 1.47.08.73-.09 1.47-.1.72-.37 1.45-.39.74.11 1.47.1.75-.29 1.49-.25.71.3 1.45.28z"/><path class="cls-2" d="M188.43 78.07c.48 0 .95-.31 1.37-.26s.79.61 1.18.76 1 0 1.35.32a3 3 0 01.68 1.2 3.55 3.55 0 01.17 1.33 4.88 4.88 0 01-.07 1.12 7.69 7.69 0 01-.34 1.07c-.16.44-.11 1-.3 1.39s-.58.77-.78 1.19-.63.72-.85 1.14-.18 1-.42 1.36-.4.86-.65 1.25-.67.68-.93 1.07-.62.7-.9 1.08-.57.85-.86 1.22c.39.26 1 .46 1.36.75s.91.4 1.3.7.6.8 1 1.11.9.43 1.27.74.7.69 1.06 1 .43 1 .79 1.3.83.53 1.17.86.71.67 1.05 1 .77.61 1.09 1 .75.65 1.06 1a3.32 3.32 0 01.84 1.95 2.77 2.77 0 01-.36 1.39c-.24.36-.79.53-1.18.74a2.57 2.57 0 01-1.27.13 2.25 2.25 0 01-1.09-.07c-.3-.16-.82-.23-1.08-.54s-.51-.74-.83-1.1-.55-.72-.87-1.07-.45-.82-.78-1.16-.63-.66-1-1-.78-.51-1.12-.83-.72-.57-1.06-.88-.6-.71-.94-1-.59-.73-.94-1-.91-.35-1.26-.63-.61-.75-1-1c-.31.34-.75.57-1.08.91s-.74.55-1.07.87-.47.86-.81 1.17-.5.85-.85 1.15-.85.43-1.21.72-.76.54-1.13.82-.62.72-1 1-.75.55-1.14.81-1 .18-1.38.43-.84.39-1.24.62-.58.86-1 1.08-.95.19-1.36.4a2.59 2.59 0 01-1.02.32c-.44 0-.69-.34-1-.54a1.83 1.83 0 01-.75-.76 2 2 0 01-.43-1 1.92 1.92 0 01.3-1.19 2.55 2.55 0 011-.69c.43-.21.65-.81 1.07-1s1-.19 1.4-.43.85-.45 1.25-.71.69-.7 1.09-1 .67-.7 1.06-1 1.1-.13 1.47-.43.77-.59 1.13-.89.35-1.07.7-1.39.88-.45 1.22-.78.6-.75.93-1.09.94-.43 1.26-.79.72-.65 1-1 .36-1 .65-1.32.85-.57 1.13-1 .28-1 .54-1.38.56-.78.8-1.19.21-1 .43-1.39.73-.7.94-1.13.58-.79.76-1.23a1.74 1.74 0 00.09-.75c0-.37-.49-.57-1.18-.57s-.73-.12-1.45-.11-.72.3-1.44.32-.73-.1-1.45-.09-.73-.28-1.46-.27-.71.44-1.44.46-.73 0-1.45 0-.73-.06-1.45 0-.72.32-1.45.33-.73-.13-1.46-.11-.73 0-1.45 0a2.14 2.14 0 01-1.59-.65 2.8 2.8 0 01-.71-1.63 3 3 0 01.67-1.67c.33-.42.95-.33 1.59-.33s.73-.39 1.46-.4.73.1 1.46.09.73-.1 1.46-.11.73 0 1.47-.06.73.24 1.46.23.74.09 1.47.08.73-.09 1.47-.1.72-.37 1.45-.39.74.11 1.47.1.75-.29 1.49-.25.71.3 1.45.28z"/><path class="cls-1" d="M216.38 75.9a1.35 1.35 0 01.08-1.08 1.56 1.56 0 01.85-.72c.37-.18.7-.7 1.13-.7a2.72 2.72 0 011.42.67 1.94 1.94 0 01.88 1.22c.12.66.14.65.26 1.31l.24 1.32c.11.66-.18.71-.06 1.37s.65.57.77 1.23-.82 1.26-.25 1.61.85-.7 1.61-.81.82.27 1.59.15.77 0 1.53-.16.69-.57 1.46-.69.85.48 1.62.37.72-.43 1.48-.55a2.08 2.08 0 011.24.19 2.14 2.14 0 011 .83c.2.37 0 .84 0 1.25s.13 1-.17 1.34a2 2 0 01-1.25.63c-.76.12-.73.37-1.49.49s-.8-.12-1.57 0-.81-.18-1.57-.06-.73.37-1.5.49-.73.36-1.5.48-1-.57-1.51 0 .11.65.24 1.36 0 .74.14 1.45.53.64.65 1.36-.51.83.09 1.24.62.37 1.36.25.68-.44 1.42-.57.71-.36 1.45-.48.81.3 1.55.17.71-.31 1.45-.44.78.11 1.52 0 .76-.06 1.5-.18.72-.3 1.46-.42a1.86 1.86 0 011.17.2 2 2 0 011 .69c.2.36-.1.82-.1 1.24a1.48 1.48 0 01-.33 1.12c-.28.34-.4 1.07-.94 1.16l-1.49.25c-.74.13-.78-.14-1.52 0s-.8-.16-1.54 0-.65.67-1.4.8-.76 0-1.5.13-.77 0-1.51.13-.74.15-1.49.28-1.29-.63-1.76 0 .62.83.75 1.51-.17.73-.05 1.42.32.64.44 1.33-.27.75-.15 1.43l.24 1.37c.12.68.41.63.53 1.32s.41.63.53 1.32 0 .71.1 1.39a2.39 2.39 0 01-.12 1.4c-.2.38-.73.59-1.12.79a2.82 2.82 0 01-1.26.21 2.63 2.63 0 01-1.53-.32 2.17 2.17 0 01-.64-1.41c-.12-.67 0-.7-.09-1.37s0-.7-.13-1.37-.5-.61-.62-1.29-.19-.66-.32-1.33 0-.71-.07-1.38.09-.72 0-1.4-.06-.68-.18-1.36.14-1.1-.44-1.48-.88.15-1.62.28-.77 0-1.51.08-.65.68-1.39.8-.76 0-1.5.11-.75.08-1.49.2-.77 0-1.51.1-.72.29-1.46.41-.79-.13-1.53 0a1.65 1.65 0 01-1.1-.16 1.83 1.83 0 01-.92-.71 2.65 2.65 0 01-.41-1.17 2.26 2.26 0 01.42-1.39c.27-.34.79-.38 1.33-.48.74-.12.7-.38 1.44-.5s.81.28 1.55.15.74-.08 1.48-.21.69-.48 1.43-.6.75-.07 1.49-.2.69-.42 1.43-.54.83.36 1.57.23 1.14.27 1.59-.34-.05-.85-.18-1.56-.59-.64-.72-1.36.31-.8.18-1.52.22-1-.39-1.46-.78.22-1.54.34-.71.39-1.47.51-.81-.25-1.56-.13-.77 0-1.53.14-.69.53-1.45.65-.77 0-1.53.14a2.12 2.12 0 01-1.24-.34c-.37-.19-.36-.66-.55-1s-.92-.62-.92-1a2.55 2.55 0 01.65-1.47 1.86 1.86 0 011.27-.51c.75-.11.76-.06 1.51-.17s.73-.23 1.48-.34.76 0 1.5-.15.68-.6 1.43-.72.79.17 1.55.06 1.14.5 1.62-.08-.24-.76-.36-1.42 0-.69-.07-1.36-.09-.67-.2-1.33-.63-.62-.65-1.29.42-.73.3-1.39z"/><path class="cls-2" d="M216.38 75.9a1.35 1.35 0 01.08-1.08 1.56 1.56 0 01.85-.72c.37-.18.7-.7 1.13-.7a2.72 2.72 0 011.42.67 1.94 1.94 0 01.88 1.22c.12.66.14.65.26 1.31l.24 1.32c.11.66-.18.71-.06 1.37s.65.57.77 1.23-.82 1.26-.25 1.61.85-.7 1.61-.81.82.27 1.59.15.77 0 1.53-.16.69-.57 1.46-.69.85.48 1.62.37.72-.43 1.48-.55a2.08 2.08 0 011.24.19 2.14 2.14 0 011 .83c.2.37 0 .84 0 1.25s.13 1-.17 1.34a2 2 0 01-1.25.63c-.76.12-.73.37-1.49.49s-.8-.12-1.57 0-.81-.18-1.57-.06-.73.37-1.5.49-.73.36-1.5.48-1-.57-1.51 0 .11.65.24 1.36 0 .74.14 1.45.53.64.65 1.36-.51.83.09 1.24.62.37 1.36.25.68-.44 1.42-.57.71-.36 1.45-.48.81.3 1.55.17.71-.31 1.45-.44.78.11 1.52 0 .76-.06 1.5-.18.72-.3 1.46-.42a1.86 1.86 0 011.17.2 2 2 0 011 .69c.2.36-.1.82-.1 1.24a1.48 1.48 0 01-.33 1.12c-.28.34-.4 1.07-.94 1.16l-1.49.25c-.74.13-.78-.14-1.52 0s-.8-.16-1.54 0-.65.67-1.4.8-.76 0-1.5.13-.77 0-1.51.13-.74.15-1.49.28-1.29-.63-1.76 0 .62.83.75 1.51-.17.73-.05 1.42.32.64.44 1.33-.27.75-.15 1.43l.24 1.37c.12.68.41.63.53 1.32s.41.63.53 1.32 0 .71.1 1.39a2.39 2.39 0 01-.12 1.4c-.2.38-.73.59-1.12.79a2.82 2.82 0 01-1.26.21 2.63 2.63 0 01-1.53-.32 2.17 2.17 0 01-.64-1.41c-.12-.67 0-.7-.09-1.37s0-.7-.13-1.37-.5-.61-.62-1.29-.19-.66-.32-1.33 0-.71-.07-1.38.09-.72 0-1.4-.06-.68-.18-1.36.14-1.1-.44-1.48-.88.15-1.62.28-.77 0-1.51.08-.65.68-1.39.8-.76 0-1.5.11-.75.08-1.49.2-.77 0-1.51.1-.72.29-1.46.41-.79-.13-1.53 0a1.65 1.65 0 01-1.1-.16 1.83 1.83 0 01-.92-.71 2.65 2.65 0 01-.41-1.17 2.26 2.26 0 01.42-1.39c.27-.34.79-.38 1.33-.48.74-.12.7-.38 1.44-.5s.81.28 1.55.15.74-.08 1.48-.21.69-.48 1.43-.6.75-.07 1.49-.2.69-.42 1.43-.54.83.36 1.57.23 1.14.27 1.59-.34-.05-.85-.18-1.56-.59-.64-.72-1.36.31-.8.18-1.52.22-1-.39-1.46-.78.22-1.54.34-.71.39-1.47.51-.81-.25-1.56-.13-.77 0-1.53.14-.69.53-1.45.65-.77 0-1.53.14a2.12 2.12 0 01-1.24-.34c-.37-.19-.36-.66-.55-1s-.92-.62-.92-1a2.55 2.55 0 01.65-1.47 1.86 1.86 0 011.27-.51c.75-.11.76-.06 1.51-.17s.73-.23 1.48-.34.76 0 1.5-.15.68-.6 1.43-.72.79.17 1.55.06 1.14.5 1.62-.08-.24-.76-.36-1.42 0-.69-.07-1.36-.09-.67-.2-1.33-.63-.62-.65-1.29.42-.73.3-1.39z"/><path class="cls-1" d="M250.59 79.07a2.15 2.15 0 01.84-1.63 2.87 2.87 0 011.73-.46 2.71 2.71 0 011.72.43 2.08 2.08 0 01.59 1.66c0 .76.2.76.2 1.52s-.37.77-.37 1.53.4.76.4 1.53c0 .5-.39 1-.4 1.46s.11 1 .09 1.48-.22 1-.26 1.45-.13 1-.18 1.45.32 1 .24 1.52-.23 1-.32 1.44-.41.92-.52 1.39-.06 1-.19 1.47-.61.84-.77 1.3-.23 1-.42 1.4-.25 1-.46 1.4-.38.93-.62 1.34-.46.89-.73 1.29-.87.58-1.17 1-.46.88-.79 1.24-.86.53-1.21.87-.67.7-1 1a2.61 2.61 0 01-1.73.8 2.5 2.5 0 01-1.23-.2 2.79 2.79 0 01-1-.85 2.51 2.51 0 01-.15-1.26 2.34 2.34 0 01.33-1 3 3 0 01.67-.85c.36-.32.75-.59 1.08-.92s.38-.93.69-1.28.88-.5 1.16-.87.42-.86.67-1.26.55-.76.77-1.18.55-.79.73-1.23 0-1 .15-1.45.36-.85.48-1.32.43-.84.53-1.32-.06-1 0-1.42.41-.88.47-1.36 0-.93.08-1.41-.3-1-.28-1.43.55-.91.56-1.4 0-.93 0-1.42c0-.73-.36-.73-.36-1.47s0-.72-.08-1.46a14.63 14.63 0 01.06-1.52zM266 100.38c0 .6 0 .85.43.85a1.85 1.85 0 00.82-.19c.4-.23.75-.6 1.18-.89s.89-.4 1.3-.71.63-.75 1-1.08 1-.37 1.35-.71.42-1 .75-1.33 1-.47 1.27-.85.5-.87.78-1.27a2.52 2.52 0 01.93-.63 1.83 1.83 0 011-.24c.6 0 1.32-.16 1.77.23a2.37 2.37 0 01.74 1.71 2.88 2.88 0 01-.69 1.36c-.28.41-.42.93-.72 1.32s-.88.57-1.2.94-.56.82-.91 1.18-.58.83-.94 1.17-.67.75-1.05 1.07-.73.71-1.12 1-1 .3-1.43.58-.71.72-1.14 1-1 .27-1.42.5a10.91 10.91 0 01-1.07.55 8.36 8.36 0 01-1.13.43 6.13 6.13 0 01-1.19.27 5 5 0 01-1.47-.14 4 4 0 01-1.18-.87 3.81 3.81 0 01-.85-1.12 4.41 4.41 0 01-.51-1.3 6.42 6.42 0 01-.08-1.41c0-.74-.37-.74-.37-1.48s.36-.74.36-1.48-.16-.74-.16-1.48.08-.74.08-1.49.14-.74.14-1.48-.38-.74-.38-1.48.08-.74.08-1.48.21-.74.21-1.48-.24-.74-.24-1.48.28-.74.28-1.49-.05-.74-.05-1.48-.37-.74-.37-1.48.51-.75.51-1.49v-1.48c0-.74-.36-.75-.36-1.49s-.08-.75-.08-1.49.65-1 1.09-1.31a2.23 2.23 0 011.47-.53 2.27 2.27 0 011.51.49c.44.35 1.08.66 1.08 1.35s-.25.74-.25 1.48.13.75.13 1.49v2.97c0 .74-.31.75-.31 1.49s.56.74.56 1.48-.63.75-.63 1.49.64.74.64 1.49-.41.74-.41 1.48-.07.75-.07 1.49.46.74.46 1.49-.62.74-.62 1.49.32.74.32 1.49a14.82 14.82 0 000 1.49c.05.74.16.74.16 1.49z"/><path class="cls-2" d="M250.59 79.07a2.15 2.15 0 01.84-1.63 2.87 2.87 0 011.73-.46 2.71 2.71 0 011.72.43 2.08 2.08 0 01.59 1.66c0 .76.2.76.2 1.52s-.37.77-.37 1.53.4.76.4 1.53c0 .5-.39 1-.4 1.46s.11 1 .09 1.48-.22 1-.26 1.45-.13 1-.18 1.45.32 1 .24 1.52-.23 1-.32 1.44-.41.92-.52 1.39-.06 1-.19 1.47-.61.84-.77 1.3-.23 1-.42 1.4-.25 1-.46 1.4-.38.93-.62 1.34-.46.89-.73 1.29-.87.58-1.17 1-.46.88-.79 1.24-.86.53-1.21.87-.67.7-1 1a2.61 2.61 0 01-1.73.8 2.5 2.5 0 01-1.23-.2 2.79 2.79 0 01-1-.85 2.51 2.51 0 01-.15-1.26 2.34 2.34 0 01.33-1 3 3 0 01.67-.85c.36-.32.75-.59 1.08-.92s.38-.93.69-1.28.88-.5 1.16-.87.42-.86.67-1.26.55-.76.77-1.18.55-.79.73-1.23 0-1 .15-1.45.36-.85.48-1.32.43-.84.53-1.32-.06-1 0-1.42.41-.88.47-1.36 0-.93.08-1.41-.3-1-.28-1.43.55-.91.56-1.4 0-.93 0-1.42c0-.73-.36-.73-.36-1.47s0-.72-.08-1.46a14.63 14.63 0 01.06-1.52zM266 100.38c0 .6 0 .85.43.85a1.85 1.85 0 00.82-.19c.4-.23.75-.6 1.18-.89s.89-.4 1.3-.71.63-.75 1-1.08 1-.37 1.35-.71.42-1 .75-1.33 1-.47 1.27-.85.5-.87.78-1.27a2.52 2.52 0 01.93-.63 1.83 1.83 0 011-.24c.6 0 1.32-.16 1.77.23a2.37 2.37 0 01.74 1.71 2.88 2.88 0 01-.69 1.36c-.28.41-.42.93-.72 1.32s-.88.57-1.2.94-.56.82-.91 1.18-.58.83-.94 1.17-.67.75-1.05 1.07-.73.71-1.12 1-1 .3-1.43.58-.71.72-1.14 1-1 .27-1.42.5a10.91 10.91 0 01-1.07.55 8.36 8.36 0 01-1.13.43 6.13 6.13 0 01-1.19.27 5 5 0 01-1.47-.14 4 4 0 01-1.18-.87 3.81 3.81 0 01-.85-1.12 4.41 4.41 0 01-.51-1.3 6.42 6.42 0 01-.08-1.41c0-.74-.37-.74-.37-1.48s.36-.74.36-1.48-.16-.74-.16-1.48.08-.74.08-1.49.14-.74.14-1.48-.38-.74-.38-1.48.08-.74.08-1.48.21-.74.21-1.48-.24-.74-.24-1.48.28-.74.28-1.49-.05-.74-.05-1.48-.37-.74-.37-1.48.51-.75.51-1.49v-1.48c0-.74-.36-.75-.36-1.49s-.08-.75-.08-1.49.65-1 1.09-1.31a2.23 2.23 0 011.47-.53 2.27 2.27 0 011.51.49c.44.35 1.08.66 1.08 1.35s-.25.74-.25 1.48.13.75.13 1.49v2.97c0 .74-.31.75-.31 1.49s.56.74.56 1.48-.63.75-.63 1.49.64.74.64 1.49-.41.74-.41 1.48-.07.75-.07 1.49.46.74.46 1.49-.62.74-.62 1.49.32.74.32 1.49a14.82 14.82 0 000 1.49c.05.74.16.74.16 1.49z"/><path class="cls-1" d="M293.74 91.46a2.92 2.92 0 01-.48 1.47A3 3 0 01292.2 94a2.81 2.81 0 01-1.47.36 2.77 2.77 0 01-1.45-.4 3.09 3.09 0 01-1.14-1 3 3 0 01-.39-1.5 2.88 2.88 0 01.45-1.46 3 3 0 012.53-1.51 2.57 2.57 0 012.5 1.53 2.85 2.85 0 01.51 1.44z"/><path class="cls-2" d="M293.74 91.46a2.92 2.92 0 01-.48 1.47A3 3 0 01292.2 94a2.81 2.81 0 01-1.47.36 2.77 2.77 0 01-1.45-.4 3.09 3.09 0 01-1.14-1 3 3 0 01-.39-1.5 2.88 2.88 0 01.45-1.46 3 3 0 012.53-1.51 2.57 2.57 0 012.5 1.53 2.85 2.85 0 01.51 1.44z"/><path class="cls-1" d="M306.55 91c-.26.42-.25.91-.55 1.13s-.78 0-1.19 0-1.18.28-1.54-.08-.32-1-.32-1.55c0-.36.28-.61.52-1s.49-.83.71-1.27 0-1.07.19-1.51.83-.69 1-1.15-.21-1.1 0-1.56.5-.83.65-1.29 0-1 .15-1.46.51-.84.64-1.31 0-1 .13-1.46.41-.88.52-1.35.23-.93.32-1.4.13-1 .21-1.42.75-.66 1.13-.92a1.88 1.88 0 011.19-.48c.43 0 1-.28 1.33-.08s.42.77.59 1.17a2 2 0 010 1.14c-.09.5-.11 1-.21 1.51s.32 1.11.2 1.61-.46.94-.59 1.43-.7.86-.85 1.35.4 1.19.25 1.67-.43.94-.6 1.42-.54.86-.73 1.33a1.94 1.94 0 011 .51 1.49 1.49 0 01.34 1.09c0 .73.3.73.3 1.46s-.34.74-.34 1.47.39.73.39 1.46v1.46c0 .73-.06.73-.06 1.45v1.46c0 .73-.06.73-.06 1.45s-.42.73-.42 1.46.13.73.13 1.46-.07.73-.07 1.46.07.73.07 1.46v1.45c0 .73.38.73.38 1.46s.15.74.15 1.47-.46.73-.46 1.46c0 .56-.32.78-.72 1a2 2 0 01-1.27.28c-.49 0-1.2.47-1.59.21s-.17-1-.17-1.53c0-.74-.17-.74-.17-1.49s-.33-.74-.33-1.48v-1.49c0-.74.51-.74.51-1.48v-1.49c0-.74-.59-.74-.59-1.49s.17-.74.17-1.48-.12-.75-.12-1.49-.13-.75-.13-1.49v-1.49c0-.74.73-.75.73-1.5s-.21-.76-.36-1.49c-.13-.15-.43-.06-.46-.06zm10.58 5.63c-.58 0-1.09.29-1.53.18s-.77-.64-1.12-1-1.05-.45-1.21-1 .13-1 .13-1.58.2-.66.2-1.33v-1.32c0-.66-.47-.67-.47-1.33s.48-.67.48-1.33-.53-1.15-.4-1.59a3.06 3.06 0 011-1.28 3.3 3.3 0 011.31-1 7.75 7.75 0 011.62.08c.72 0 .69.38 1.19-.15s.62-.58.13-1.18-.5 0-1.14 0-.64.06-1.27.06-.64-.53-1.28-.53-.64.12-1.28.12c-.46 0-1 .12-1.23-.19s0-.87 0-1.27a1.45 1.45 0 01.45-1c.24-.31.34-.47.81-.47.64 0 .64-.54 1.27-.54s.64.23 1.28.23.64.45 1.27.45.6-.12 1-.6.3-.49 0-1.19c-.54.08-.83.1-1.35.15l-1.58.13a1.68 1.68 0 01-1.32-.54c-.36-.34-.84-.79-.84-1.28s.47-.79.78-1.1.56-.82 1.07-.86l1.41-.12c.47 0 .94 0 1.42-.11l1.41-.2c.47-.07.94-.09 1.41-.16s1 .25 1.48.16.92-.33 1.38-.43 1-.17 1.41-.3a1.4 1.4 0 01.55-.14 1.42 1.42 0 011.14.54c.31.34.84.7.84 1.18a2.33 2.33 0 01-.37 1.36c-.24.27-.88.15-1.34.26s-.83 0-1.24.13-.82.1-1.23.18-.4.53-.81.61c-.19 1-1.21 1.35-.59 2.14.49.63 1 0 1.83 0s.8-.34 1.59-.34h1.6c.52 0 .66.58.93.86a1.16 1.16 0 01.37 1c0 .42.37 1 .07 1.37a2 2 0 01-1.37.39c-.8 0-.8.12-1.59.12s-.8.13-1.6.13-.76-.65-1.34-.09-1.05 1-.51 1.53 1-.25 1.8-.25c.58 0 1.17-.28 1.61-.17s.82.81 1.17 1.13a2.71 2.71 0 01.86 1.2 6.79 6.79 0 01-.07 1.52c0 .66-.06.66-.06 1.32s.59.67.59 1.33-.06.66-.06 1.33-.34.66-.34 1.33a5.39 5.39 0 01-.11 1.5 3 3 0 01-.62 1.43 3.39 3.39 0 01-1.38.86c-.44.11-1-.48-1.59-.48-.77 0-.9-.08-1.44.47s-.63.89 0 1.42.8.08 1.66.08.86-.15 1.72-.15a1.35 1.35 0 011 .65 2 2 0 01.56 1.1c0 .42-.45.7-.7 1s-.41.83-.89.83c-.86 0-.86-.41-1.72-.41s-1.12-.42-1.75.17-.41.92-.18 1.68c.47-.08 1.19 0 1.63 0s.85-.63 1.29-.71a2 2 0 011.57.36 1.7 1.7 0 01.47 1.42 1.64 1.64 0 01-.19 1.11c-.22.25-.67.15-1.1.26s-.93.36-1.44.48-.94.38-1.45.48-1 .3-1.47.39-1 .26-1.49.34-1.06-.21-1.57-.14-1 .36-1.47.43-1.05-.14-1.55-.08-1 .17-1.5.22a1.52 1.52 0 01-1.35-.35 2.08 2.08 0 01-.68-1.36 1.43 1.43 0 011.72-1.71h1.3l1.28-.15c.43 0 .87 0 1.3-.07s.62-.33 1.05-.39c.21-1 .9-1.26.35-2.19-.32-.54-.77.09-1.4.09s-.64-.08-1.27-.08-.64-.15-1.27-.15c-.47 0-1 .14-1.19-.16a2.1 2.1 0 01-.32-1.24 1.76 1.76 0 01.56-1c.23-.3.48-.7.95-.7.63 0 .63.3 1.26.3s.64-.06 1.27-.06.67.21 1.07-.28.74-.78.46-1.51-.98-.21-1.7-.21zm.12-9.6c-.49 0-.65.51-.65 1s-.66 1-.26 1.42.81-.44 1.35-.44.92.73 1.2.26a1.86 1.86 0 00.2-2c-.27-.72-1.09-.2-1.84-.2zm1.8 7.08c.61-.76.21-1.31-.27-2.16-.27-.47-.54-.36-1.09-.36s-.59.07-.94.49-.27.52-.27 1.17c0 .44.19.94.63.94.89.45 1.47.56 1.94-.04zm5.59-6.09c0-.48-.51-.64-1-.64-.81 0-1.35-.85-1.89-.24s-.05 1.18.44 1.95c.3.48.39.23 1 .23s.73.39 1.25.18.2-.85.2-1.44zm-1 6.22c.48 0 .64-.51.64-1 0-.65.7-1.05.27-1.53s-.83.43-1.4.43-1-.75-1.24-.26a2 2 0 00-.2 2.11c.29.84 1.13.29 1.94.29zm11.14-8.38c0 .5.14 1.29.12 1.78s-.4 1-.43 1.46.49 1 .45 1.51-.4 1-.45 1.44-.31 1-.37 1.44-.16 1-.23 1.45.31 1.06.22 1.54-.66.87-.76 1.35.36 1.1.24 1.57-.43.91-.57 1.38 0 1.05-.16 1.51-.56.86-.74 1.31-.13 1-.33 1.47-.58.83-.8 1.27-.47.88-.7 1.3-.44.9-.7 1.31-.83.24-1.12.42a1.54 1.54 0 01-.88.37c-.51 0-1.14.18-1.51-.13s-.32-.93-.32-1.46c0-.36.23-.6.47-1s.44-.87.67-1.29 0-1.09.18-1.53.61-.76.81-1.2.78-.73.95-1.18-.36-1.14-.21-1.6.39-.87.52-1.33.44-.87.55-1.35.21-.92.31-1.4.27-.92.35-1.4-.14-1-.07-1.46.45-.91.51-1.39-.29-1-.25-1.47.09-1 .12-1.43.11-1 .13-1.44.22-.68.22-1.18c-.63-.21-.58 0-1.25 0s-.72-.55-1-.94a2.08 2.08 0 01-.46-1.18 1.89 1.89 0 01.39-1.14 1.1 1.1 0 011-.54c.69 0 1 .47 1.49 0s-.34-.87-.34-1.64-.15-.78-.15-1.55.46-.77.46-1.54.16-.78.16-1.55.06-.78.06-1.55c0-.57-.28-1.26.08-1.53s1.07.16 1.56.16a1.92 1.92 0 011.27.23c.36.27.88.57.88 1.14v1.53c0 .77-.5.76-.5 1.52v1.53c0 .76.58.77.58 1.54s-.73.91-.2 1.46.65-.17 1.38-.19a7.86 7.86 0 011.43 0 4.74 4.74 0 011.42.45c.42.23.28 1 .53 1.43s.69.58.79 1.08.47.86.47 1.36-.49 1-.49 1.5.12 1 .11 1.49-.26 1-.27 1.5-.09 1-.1 1.49.55 1 .54 1.52-.11 1-.13 1.49-.37 1-.4 1.48 0 1 0 1.49.13 1 .09 1.51.05 1 0 1.51-.75.93-.8 1.4.37 1.07.29 1.54a12.89 12.89 0 01-.34 1.5 6.76 6.76 0 01-.61 1.4 4.45 4.45 0 01-.78 1.33 3.52 3.52 0 01-1.41.62 5 5 0 01-1.49.41c-.46 0-.81-.4-1.16-.44s-.8.31-1.23.23-.71-.67-1-1a1.85 1.85 0 01-.52-1.16 1.94 1.94 0 01.72-1.38 1.33 1.33 0 011.37-.35c.45.08.74-.29 1.22-.29.69 0 .9-.15 1.1-1.32.07-.45.36-.88.42-1.36s-.08-.94 0-1.42.44-.89.48-1.37 0-1 0-1.42-.1-1-.07-1.42-.05-.94 0-1.42 0-.93 0-1.41.41-.92.43-1.39-.19-.94-.18-1.42.29-.93.29-1.4-.05-1-.05-1.42-.1-.94-.11-1.42c0-.73-.27-.84-1-.84-.63-.29-.73-.68-1.18-.44z"/><path class="cls-2" d="M306.55 91c-.26.42-.25.91-.55 1.13s-.78 0-1.19 0-1.18.28-1.54-.08-.32-1-.32-1.55c0-.36.28-.61.52-1s.49-.83.71-1.27 0-1.07.19-1.51.83-.69 1-1.15-.21-1.1 0-1.56.5-.83.65-1.29 0-1 .15-1.46.51-.84.64-1.31 0-1 .13-1.46.41-.88.52-1.35.23-.93.32-1.4.13-1 .21-1.42.75-.66 1.13-.92a1.88 1.88 0 011.19-.48c.43 0 1-.28 1.33-.08s.42.77.59 1.17a2 2 0 010 1.14c-.09.5-.11 1-.21 1.51s.32 1.11.2 1.61-.46.94-.59 1.43-.7.86-.85 1.35.4 1.19.25 1.67-.43.94-.6 1.42-.54.86-.73 1.33a1.94 1.94 0 011 .51 1.49 1.49 0 01.34 1.09c0 .73.3.73.3 1.46s-.34.74-.34 1.47.39.73.39 1.46v1.46c0 .73-.06.73-.06 1.45v1.46c0 .73-.06.73-.06 1.45s-.42.73-.42 1.46.13.73.13 1.46-.07.73-.07 1.46.07.73.07 1.46v1.45c0 .73.38.73.38 1.46s.15.74.15 1.47-.46.73-.46 1.46c0 .56-.32.78-.72 1a2 2 0 01-1.27.28c-.49 0-1.2.47-1.59.21s-.17-1-.17-1.53c0-.74-.17-.74-.17-1.49s-.33-.74-.33-1.48v-1.49c0-.74.51-.74.51-1.48v-1.49c0-.74-.59-.74-.59-1.49s.17-.74.17-1.48-.12-.75-.12-1.49-.13-.75-.13-1.49v-1.49c0-.74.73-.75.73-1.5s-.21-.76-.36-1.49c-.13-.15-.43-.06-.46-.06zm10.58 5.63c-.58 0-1.09.29-1.53.18s-.77-.64-1.12-1-1.05-.45-1.21-1 .13-1 .13-1.58.2-.66.2-1.33v-1.32c0-.66-.47-.67-.47-1.33s.48-.67.48-1.33-.53-1.15-.4-1.59a3.06 3.06 0 011-1.28 3.3 3.3 0 011.31-1 7.75 7.75 0 011.62.08c.72 0 .69.38 1.19-.15s.62-.58.13-1.18-.5 0-1.14 0-.64.06-1.27.06-.64-.53-1.28-.53-.64.12-1.28.12c-.46 0-1 .12-1.23-.19s0-.87 0-1.27a1.45 1.45 0 01.45-1c.24-.31.34-.47.81-.47.64 0 .64-.54 1.27-.54s.64.23 1.28.23.64.45 1.27.45.6-.12 1-.6.3-.49 0-1.19c-.54.08-.83.1-1.35.15l-1.58.13a1.68 1.68 0 01-1.32-.54c-.36-.34-.84-.79-.84-1.28s.47-.79.78-1.1.56-.82 1.07-.86l1.41-.12c.47 0 .94 0 1.42-.11l1.41-.2c.47-.07.94-.09 1.41-.16s1 .25 1.48.16.92-.33 1.38-.43 1-.17 1.41-.3a1.4 1.4 0 01.55-.14 1.42 1.42 0 011.14.54c.31.34.84.7.84 1.18a2.33 2.33 0 01-.37 1.36c-.24.27-.88.15-1.34.26s-.83 0-1.24.13-.82.1-1.23.18-.4.53-.81.61c-.19 1-1.21 1.35-.59 2.14.49.63 1 0 1.83 0s.8-.34 1.59-.34h1.6c.52 0 .66.58.93.86a1.16 1.16 0 01.37 1c0 .42.37 1 .07 1.37a2 2 0 01-1.37.39c-.8 0-.8.12-1.59.12s-.8.13-1.6.13-.76-.65-1.34-.09-1.05 1-.51 1.53 1-.25 1.8-.25c.58 0 1.17-.28 1.61-.17s.82.81 1.17 1.13a2.71 2.71 0 01.86 1.2 6.79 6.79 0 01-.07 1.52c0 .66-.06.66-.06 1.32s.59.67.59 1.33-.06.66-.06 1.33-.34.66-.34 1.33a5.39 5.39 0 01-.11 1.5 3 3 0 01-.62 1.43 3.39 3.39 0 01-1.38.86c-.44.11-1-.48-1.59-.48-.77 0-.9-.08-1.44.47s-.63.89 0 1.42.8.08 1.66.08.86-.15 1.72-.15a1.35 1.35 0 011 .65 2 2 0 01.56 1.1c0 .42-.45.7-.7 1s-.41.83-.89.83c-.86 0-.86-.41-1.72-.41s-1.12-.42-1.75.17-.41.92-.18 1.68c.47-.08 1.19 0 1.63 0s.85-.63 1.29-.71a2 2 0 011.57.36 1.7 1.7 0 01.47 1.42 1.64 1.64 0 01-.19 1.11c-.22.25-.67.15-1.1.26s-.93.36-1.44.48-.94.38-1.45.48-1 .3-1.47.39-1 .26-1.49.34-1.06-.21-1.57-.14-1 .36-1.47.43-1.05-.14-1.55-.08-1 .17-1.5.22a1.52 1.52 0 01-1.35-.35 2.08 2.08 0 01-.68-1.36 1.43 1.43 0 011.72-1.71h1.3l1.28-.15c.43 0 .87 0 1.3-.07s.62-.33 1.05-.39c.21-1 .9-1.26.35-2.19-.32-.54-.77.09-1.4.09s-.64-.08-1.27-.08-.64-.15-1.27-.15c-.47 0-1 .14-1.19-.16a2.1 2.1 0 01-.32-1.24 1.76 1.76 0 01.56-1c.23-.3.48-.7.95-.7.63 0 .63.3 1.26.3s.64-.06 1.27-.06.67.21 1.07-.28.74-.78.46-1.51-.98-.21-1.7-.21zm.12-9.6c-.49 0-.65.51-.65 1s-.66 1-.26 1.42.81-.44 1.35-.44.92.73 1.2.26a1.86 1.86 0 00.2-2c-.27-.72-1.09-.2-1.84-.2zm1.8 7.08c.61-.76.21-1.31-.27-2.16-.27-.47-.54-.36-1.09-.36s-.59.07-.94.49-.27.52-.27 1.17c0 .44.19.94.63.94.89.45 1.47.56 1.94-.04zm5.59-6.09c0-.48-.51-.64-1-.64-.81 0-1.35-.85-1.89-.24s-.05 1.18.44 1.95c.3.48.39.23 1 .23s.73.39 1.25.18.2-.85.2-1.44zm-1 6.22c.48 0 .64-.51.64-1 0-.65.7-1.05.27-1.53s-.83.43-1.4.43-1-.75-1.24-.26a2 2 0 00-.2 2.11c.29.84 1.13.29 1.94.29zm11.14-8.38c0 .5.14 1.29.12 1.78s-.4 1-.43 1.46.49 1 .45 1.51-.4 1-.45 1.44-.31 1-.37 1.44-.16 1-.23 1.45.31 1.06.22 1.54-.66.87-.76 1.35.36 1.1.24 1.57-.43.91-.57 1.38 0 1.05-.16 1.51-.56.86-.74 1.31-.13 1-.33 1.47-.58.83-.8 1.27-.47.88-.7 1.3-.44.9-.7 1.31-.83.24-1.12.42a1.54 1.54 0 01-.88.37c-.51 0-1.14.18-1.51-.13s-.32-.93-.32-1.46c0-.36.23-.6.47-1s.44-.87.67-1.29 0-1.09.18-1.53.61-.76.81-1.2.78-.73.95-1.18-.36-1.14-.21-1.6.39-.87.52-1.33.44-.87.55-1.35.21-.92.31-1.4.27-.92.35-1.4-.14-1-.07-1.46.45-.91.51-1.39-.29-1-.25-1.47.09-1 .12-1.43.11-1 .13-1.44.22-.68.22-1.18c-.63-.21-.58 0-1.25 0s-.72-.55-1-.94a2.08 2.08 0 01-.46-1.18 1.89 1.89 0 01.39-1.14 1.1 1.1 0 011-.54c.69 0 1 .47 1.49 0s-.34-.87-.34-1.64-.15-.78-.15-1.55.46-.77.46-1.54.16-.78.16-1.55.06-.78.06-1.55c0-.57-.28-1.26.08-1.53s1.07.16 1.56.16a1.92 1.92 0 011.27.23c.36.27.88.57.88 1.14v1.53c0 .77-.5.76-.5 1.52v1.53c0 .76.58.77.58 1.54s-.73.91-.2 1.46.65-.17 1.38-.19a7.86 7.86 0 011.43 0 4.74 4.74 0 011.42.45c.42.23.28 1 .53 1.43s.69.58.79 1.08.47.86.47 1.36-.49 1-.49 1.5.12 1 .11 1.49-.26 1-.27 1.5-.09 1-.1 1.49.55 1 .54 1.52-.11 1-.13 1.49-.37 1-.4 1.48 0 1 0 1.49.13 1 .09 1.51.05 1 0 1.51-.75.93-.8 1.4.37 1.07.29 1.54a12.89 12.89 0 01-.34 1.5 6.76 6.76 0 01-.61 1.4 4.45 4.45 0 01-.78 1.33 3.52 3.52 0 01-1.41.62 5 5 0 01-1.49.41c-.46 0-.81-.4-1.16-.44s-.8.31-1.23.23-.71-.67-1-1a1.85 1.85 0 01-.52-1.16 1.94 1.94 0 01.72-1.38 1.33 1.33 0 011.37-.35c.45.08.74-.29 1.22-.29.69 0 .9-.15 1.1-1.32.07-.45.36-.88.42-1.36s-.08-.94 0-1.42.44-.89.48-1.37 0-1 0-1.42-.1-1-.07-1.42-.05-.94 0-1.42 0-.93 0-1.41.41-.92.43-1.39-.19-.94-.18-1.42.29-.93.29-1.4-.05-1-.05-1.42-.1-.94-.11-1.42c0-.73-.27-.84-1-.84-.63-.29-.73-.68-1.18-.44z"/><path class="cls-1" d="M371.74 95.49l-.8-1.13c-.25-.37-.45-.77-.71-1.17s-.91-.49-1.16-.88-.26-.84-.5-1.24c-.46.08-.84.3-1.3.37s-1-.39-1.45-.32-.87.44-1.33.5-.89.36-1.35.42-.94 0-1.4.09l-1.39.13c-.46 0-.93 0-1.39.07s-1-.35-1.42-.32-.92.2-1.38.22a1.51 1.51 0 01-1.34-.55c-.39-.39-.86-.8-.86-1.35s.53-.79.87-1.16.51-.65 1.1-.67.9-.16 1.36-.19.88-.31 1.33-.35.91 0 1.36-.07.92.13 1.37.08.92.06 1.38 0 .9-.09 1.35-.15.89-.23 1.34-.3.72-.32 1.17-.39c-.2-.43-.39-.71-.58-1.14s-.24-.92-.42-1.35-.43-.73-.59-1.17c-.47.08-.84.18-1.31.25s-1-.38-1.49-.31-.94.15-1.4.21-.89.69-1.36.74l-1.42.12-1.43.09a2.38 2.38 0 01-1.74-.58 2.9 2.9 0 01-.65-1.72c0-.5.47-1 .77-1.35s.7-.89 1.27-.91 1 .47 1.52.43.93-.66 1.44-.71 1 .28 1.53.22 1-.39 1.46-.46.82 0 1.32-.11c-.15-.45.06-.82-.08-1.27s-.35-.88-.47-1.33-.64-.83-.75-1.28c0-.16.4-.44.4-.6 0-.6 0-1.2.46-1.5a3.17 3.17 0 011.61-.61c.47 0 .92.49 1.3.74s.94.5 1.06 1-.26 1.06-.13 1.52.71.81.84 1.27.22.75.35 1.21c.48-.09.87.36 1.34.27s.82-.84 1.27-.94 1 0 1.44-.16 1.07.22 1.51.1.85-.63 1.27-.76c.25-.08.52.24.77.24.58 0 1.12 0 1.47.32a2.63 2.63 0 01.89 1.49 2.3 2.3 0 01-.65 1.16c-.23.28-.53.76-1 .89s-1.09-.33-1.58-.2-.87.46-1.35.58-1 .07-1.45.19-.86.59-1.34.69-.92.11-1.4.21c.16.43 0 .93.21 1.36s.64.74.82 1.16.38.79.57 1.21l1.26-.25c.44-.09 1 .2 1.4.11l1.31-.32c.44-.11.89-.19 1.31-.3s.73-.79 1.15-.91.84-.32 1.25-.45a2.15 2.15 0 012.74 2.32 1.78 1.78 0 01-.3 1.22 2.48 2.48 0 01-1.15.56c-.44.14-1 0-1.46.16s-.75.87-1.24 1-.92.27-1.4.39-1 .08-1.46.19l-1.17.26c.23.38-.08.76.16 1.14s.5.75.75 1.13.64.65.9 1 .7.6 1 1 .69.6 1 1 .17 1 .46 1.36c.44.53 1 .93 1 1.5a2.54 2.54 0 01-.73 1.69 2.68 2.68 0 01-1.71.7c-.33 0-.67-.38-1-.5s-1-.21-1.46-.36-.94-.34-1.43-.45-1-.17-1.47-.26-1-.3-1.46-.35-1-.12-1.49-.15-1 .08-1.5.08-.9.15-1.31.18-.93-.1-1.33 0-.82.48-1.2.59-1.12-.22-1.45 0-.37.94-.57 1.28-.89.69-.89 1.13a2.82 2.82 0 00.77 1.45 3.14 3.14 0 001.16 1 7.16 7.16 0 001.45.58 13.23 13.23 0 001.52.4c.46.05 1-.52 1.58-.49s1 .19 1.52.19.94.26 1.35.25.89-.43 1.32-.45.89.08 1.33.05a2.8 2.8 0 011.88.36 2.44 2.44 0 01.55 1.81 2.21 2.21 0 01-.5 1.56 2.6 2.6 0 01-1.52.82c-.44 0-1-.59-1.5-.56s-.91.35-1.42.36-.94.21-1.45.21-1-.35-1.46-.37-1 0-1.47 0h-1.47a13.68 13.68 0 01-1.43-.33 11.85 11.85 0 01-1.34-.63 10 10 0 01-1.37-.44c-.46-.23-1.14 0-1.52-.33a6.77 6.77 0 01-1.05-1.1 6.09 6.09 0 01-.75-1.31 7.07 7.07 0 01-.16-1.48 7.51 7.51 0 010-1.42 6.15 6.15 0 010-1.42c.1-.49-.11-1.09.12-1.52a5.91 5.91 0 011-1.1 6.17 6.17 0 011-1.15 9.36 9.36 0 011.39-.57c.42-.19.95-.13 1.44-.29s.92-.12 1.42-.22.87-.55 1.38-.61 1-.1 1.46-.13 1 .1 1.48.1.93 0 1.38.06.94 0 1.38.1.93.17 1.36.25 1 .13 1.38.25c.08-.16.15-.38.13-.42z"/><path class="cls-2" d="M371.74 95.49l-.8-1.13c-.25-.37-.45-.77-.71-1.17s-.91-.49-1.16-.88-.26-.84-.5-1.24c-.46.08-.84.3-1.3.37s-1-.39-1.45-.32-.87.44-1.33.5-.89.36-1.35.42-.94 0-1.4.09l-1.39.13c-.46 0-.93 0-1.39.07s-1-.35-1.42-.32-.92.2-1.38.22a1.51 1.51 0 01-1.34-.55c-.39-.39-.86-.8-.86-1.35s.53-.79.87-1.16.51-.65 1.1-.67.9-.16 1.36-.19.88-.31 1.33-.35.91 0 1.36-.07.92.13 1.37.08.92.06 1.38 0 .9-.09 1.35-.15.89-.23 1.34-.3.72-.32 1.17-.39c-.2-.43-.39-.71-.58-1.14s-.24-.92-.42-1.35-.43-.73-.59-1.17c-.47.08-.84.18-1.31.25s-1-.38-1.49-.31-.94.15-1.4.21-.89.69-1.36.74l-1.42.12-1.43.09a2.38 2.38 0 01-1.74-.58 2.9 2.9 0 01-.65-1.72c0-.5.47-1 .77-1.35s.7-.89 1.27-.91 1 .47 1.52.43.93-.66 1.44-.71 1 .28 1.53.22 1-.39 1.46-.46.82 0 1.32-.11c-.15-.45.06-.82-.08-1.27s-.35-.88-.47-1.33-.64-.83-.75-1.28c0-.16.4-.44.4-.6 0-.6 0-1.2.46-1.5a3.17 3.17 0 011.61-.61c.47 0 .92.49 1.3.74s.94.5 1.06 1-.26 1.06-.13 1.52.71.81.84 1.27.22.75.35 1.21c.48-.09.87.36 1.34.27s.82-.84 1.27-.94 1 0 1.44-.16 1.07.22 1.51.1.85-.63 1.27-.76c.25-.08.52.24.77.24.58 0 1.12 0 1.47.32a2.63 2.63 0 01.89 1.49 2.3 2.3 0 01-.65 1.16c-.23.28-.53.76-1 .89s-1.09-.33-1.58-.2-.87.46-1.35.58-1 .07-1.45.19-.86.59-1.34.69-.92.11-1.4.21c.16.43 0 .93.21 1.36s.64.74.82 1.16.38.79.57 1.21l1.26-.25c.44-.09 1 .2 1.4.11l1.31-.32c.44-.11.89-.19 1.31-.3s.73-.79 1.15-.91.84-.32 1.25-.45a2.15 2.15 0 012.74 2.32 1.78 1.78 0 01-.3 1.22 2.48 2.48 0 01-1.15.56c-.44.14-1 0-1.46.16s-.75.87-1.24 1-.92.27-1.4.39-1 .08-1.46.19l-1.17.26c.23.38-.08.76.16 1.14s.5.75.75 1.13.64.65.9 1 .7.6 1 1 .69.6 1 1 .17 1 .46 1.36c.44.53 1 .93 1 1.5a2.54 2.54 0 01-.73 1.69 2.68 2.68 0 01-1.71.7c-.33 0-.67-.38-1-.5s-1-.21-1.46-.36-.94-.34-1.43-.45-1-.17-1.47-.26-1-.3-1.46-.35-1-.12-1.49-.15-1 .08-1.5.08-.9.15-1.31.18-.93-.1-1.33 0-.82.48-1.2.59-1.12-.22-1.45 0-.37.94-.57 1.28-.89.69-.89 1.13a2.82 2.82 0 00.77 1.45 3.14 3.14 0 001.16 1 7.16 7.16 0 001.45.58 13.23 13.23 0 001.52.4c.46.05 1-.52 1.58-.49s1 .19 1.52.19.94.26 1.35.25.89-.43 1.32-.45.89.08 1.33.05a2.8 2.8 0 011.88.36 2.44 2.44 0 01.55 1.81 2.21 2.21 0 01-.5 1.56 2.6 2.6 0 01-1.52.82c-.44 0-1-.59-1.5-.56s-.91.35-1.42.36-.94.21-1.45.21-1-.35-1.46-.37-1 0-1.47 0h-1.47a13.68 13.68 0 01-1.43-.33 11.85 11.85 0 01-1.34-.63 10 10 0 01-1.37-.44c-.46-.23-1.14 0-1.52-.33a6.77 6.77 0 01-1.05-1.1 6.09 6.09 0 01-.75-1.31 7.07 7.07 0 01-.16-1.48 7.51 7.51 0 010-1.42 6.15 6.15 0 010-1.42c.1-.49-.11-1.09.12-1.52a5.91 5.91 0 011-1.1 6.17 6.17 0 011-1.15 9.36 9.36 0 011.39-.57c.42-.19.95-.13 1.44-.29s.92-.12 1.42-.22.87-.55 1.38-.61 1-.1 1.46-.13 1 .1 1.48.1.93 0 1.38.06.94 0 1.38.1.93.17 1.36.25 1 .13 1.38.25c.08-.16.15-.38.13-.42z"/><path class="cls-1" d="M407.36 74.17a1.41 1.41 0 01.57-1.3 2.71 2.71 0 011.47-.66 3 3 0 011.66.38c.43.3.32 1 .32 1.58s.13.66.13 1.32.43.66.43 1.33-.11.66-.11 1.33-.68.86-.19 1.31.7.22 1.41.22h1.43c.72 0 .71-.15 1.43-.15s.71.19 1.42.19.72-.11 1.43-.11.72-.43 1.43-.43.72.46 1.43.46.72.13 1.43.13.72-.46 1.44-.46h1.43a1.84 1.84 0 011.35.78 2.67 2.67 0 01.73 1.41 2.66 2.66 0 01-.77 1.42c-.3.37-.76.38-1.34.38s-.7.5-1.41.5-.7-.1-1.4-.1-.7-.31-1.41-.31-.7.28-1.41.28-.7-.37-1.41-.37-.7.25-1.41.25-.7.13-1.41.13-.7.17-1.41.17-.7-.42-1.41-.42-.71-.18-1.41-.18-.67.28-1.34.52c0 .5-.27.74-.32 1.25s-.05 1-.12 1.5 0 .76-.08 1.26c.69.25.65.54 1.38.54s.73-.42 1.46-.42.73-.13 1.47-.13.73.25 1.47.25h1.47c.52 0 1-.34 1.49-.3s.94.59 1.36.71 1.18 0 1.55.22.34 1 .57 1.46a3.42 3.42 0 01.54 1.29 8.27 8.27 0 01-.11 1.43c0 .5 0 1-.07 1.51s.21 1 .16 1.54-.32 1-.38 1.49-.18 1-.25 1.49.4 1.1.31 1.6-.55.94-.65 1.43.05 1.06-.06 1.54a13.46 13.46 0 01-.56 1.37 11.06 11.06 0 01-.48 1.41 7.1 7.1 0 01-1 1.09 5.88 5.88 0 01-1 1.1 5.82 5.82 0 01-1.4.5 7.9 7.9 0 01-1.43.24c-.46.06-.94-.21-1.45-.21s-1 .34-1.42.32-1 .11-1.44 0-.81-.66-1.29-.77-1.05-.12-1.34-.46a2 2 0 01-.38-1.38 2.27 2.27 0 01.44-1.58 2.07 2.07 0 011.54-.71c.16 0 .42-.17.63-.13.59.13 1 .6 1.47.67a11.49 11.49 0 001.59.27 3.68 3.68 0 001.49-.37 2.72 2.72 0 00.95-1.14 5.48 5.48 0 00.36-1.39c.12-.48.72-.87.83-1.39s-.23-1.08-.14-1.6.33-1 .4-1.5-.06-1 0-1.55.56-1 .6-1.5-.51-1.07-.49-1.58c0-.93.05-1.21-1-1.21-.67 0-.67.21-1.35.21s-.68.07-1.36.07-.67-.11-1.35-.11-.68-.26-1.36-.26-.68.1-1.36.1-.77-.43-1.42-.23c-.12.46-.05 1.14-.19 1.58s-.31.89-.47 1.33-.21.93-.39 1.36-.51.81-.71 1.23-.64.73-.86 1.14-.31.89-.55 1.29-.4.86-.66 1.25-.74.62-1 1-.27 1-.57 1.34-.69.66-1 1-.92.4-1.26.72-.74.55-1.09.86-.72.56-1.09.85-.59.75-1 1-.87.36-1.26.62-.45 1-.86 1.27a2.9 2.9 0 01-1.48.33 2.4 2.4 0 01-1.57-.82c-.41-.42-1-1-1-1.57a2.61 2.61 0 01.64-1.23 2.88 2.88 0 01.9-1c.39-.24.88-.31 1.26-.56s.84-.4 1.21-.67.68-.62 1-.91.65-.65 1-1 .66-.63 1-1 .53-.74.83-1.09.52-.75.8-1.13.51-.76.76-1.15.46-.79.69-1.19.76-.65 1-1.07.45-.83.63-1.26.24-.91.39-1.35-.06-1 .08-1.44.52-.81.63-1.26.54-.84.63-1.3-.41-1-.33-1.48.17-.9.22-1.36.56-.88.61-1.34 0-1.13 0-1.6c-.65-.22-.76.08-1.44.08s-.69-.19-1.39-.19h-1.37c-.69 0-.69.29-1.39.29s-.69.08-1.38.08-.69.19-1.38.19h-1.38c-.69 0-.69-.49-1.39-.49h-1.38c-.69 0-1.1.1-1.4-.28a2.5 2.5 0 01-.36-1.47 2.17 2.17 0 01.55-1.33 1.57 1.57 0 011.21-.79h1.37c.69 0 .69-.1 1.38-.1s.69.24 1.38.24.69-.39 1.38-.39h1.38c.69 0 .69.7 1.38.7s.69-.51 1.38-.51h1.39c.69 0 .69.38 1.38.38s.8.18 1.3-.3 0-.57 0-1.23v-1.33c0-.67-.23-.69-.17-1.35s.44-.47.44-1.13z"/><path class="cls-2" d="M407.36 74.17a1.41 1.41 0 01.57-1.3 2.71 2.71 0 011.47-.66 3 3 0 011.66.38c.43.3.32 1 .32 1.58s.13.66.13 1.32.43.66.43 1.33-.11.66-.11 1.33-.68.86-.19 1.31.7.22 1.41.22h1.43c.72 0 .71-.15 1.43-.15s.71.19 1.42.19.72-.11 1.43-.11.72-.43 1.43-.43.72.46 1.43.46.72.13 1.43.13.72-.46 1.44-.46h1.43a1.84 1.84 0 011.35.78 2.67 2.67 0 01.73 1.41 2.66 2.66 0 01-.77 1.42c-.3.37-.76.38-1.34.38s-.7.5-1.41.5-.7-.1-1.4-.1-.7-.31-1.41-.31-.7.28-1.41.28-.7-.37-1.41-.37-.7.25-1.41.25-.7.13-1.41.13-.7.17-1.41.17-.7-.42-1.41-.42-.71-.18-1.41-.18-.67.28-1.34.52c0 .5-.27.74-.32 1.25s-.05 1-.12 1.5 0 .76-.08 1.26c.69.25.65.54 1.38.54s.73-.42 1.46-.42.73-.13 1.47-.13.73.25 1.47.25h1.47c.52 0 1-.34 1.49-.3s.94.59 1.36.71 1.18 0 1.55.22.34 1 .57 1.46a3.42 3.42 0 01.54 1.29 8.27 8.27 0 01-.11 1.43c0 .5 0 1-.07 1.51s.21 1 .16 1.54-.32 1-.38 1.49-.18 1-.25 1.49.4 1.1.31 1.6-.55.94-.65 1.43.05 1.06-.06 1.54a13.46 13.46 0 01-.56 1.37 11.06 11.06 0 01-.48 1.41 7.1 7.1 0 01-1 1.09 5.88 5.88 0 01-1 1.1 5.82 5.82 0 01-1.4.5 7.9 7.9 0 01-1.43.24c-.46.06-.94-.21-1.45-.21s-1 .34-1.42.32-1 .11-1.44 0-.81-.66-1.29-.77-1.05-.12-1.34-.46a2 2 0 01-.38-1.38 2.27 2.27 0 01.44-1.58 2.07 2.07 0 011.54-.71c.16 0 .42-.17.63-.13.59.13 1 .6 1.47.67a11.49 11.49 0 001.59.27 3.68 3.68 0 001.49-.37 2.72 2.72 0 00.95-1.14 5.48 5.48 0 00.36-1.39c.12-.48.72-.87.83-1.39s-.23-1.08-.14-1.6.33-1 .4-1.5-.06-1 0-1.55.56-1 .6-1.5-.51-1.07-.49-1.58c0-.93.05-1.21-1-1.21-.67 0-.67.21-1.35.21s-.68.07-1.36.07-.67-.11-1.35-.11-.68-.26-1.36-.26-.68.1-1.36.1-.77-.43-1.42-.23c-.12.46-.05 1.14-.19 1.58s-.31.89-.47 1.33-.21.93-.39 1.36-.51.81-.71 1.23-.64.73-.86 1.14-.31.89-.55 1.29-.4.86-.66 1.25-.74.62-1 1-.27 1-.57 1.34-.69.66-1 1-.92.4-1.26.72-.74.55-1.09.86-.72.56-1.09.85-.59.75-1 1-.87.36-1.26.62-.45 1-.86 1.27a2.9 2.9 0 01-1.48.33 2.4 2.4 0 01-1.57-.82c-.41-.42-1-1-1-1.57a2.61 2.61 0 01.64-1.23 2.88 2.88 0 01.9-1c.39-.24.88-.31 1.26-.56s.84-.4 1.21-.67.68-.62 1-.91.65-.65 1-1 .66-.63 1-1 .53-.74.83-1.09.52-.75.8-1.13.51-.76.76-1.15.46-.79.69-1.19.76-.65 1-1.07.45-.83.63-1.26.24-.91.39-1.35-.06-1 .08-1.44.52-.81.63-1.26.54-.84.63-1.3-.41-1-.33-1.48.17-.9.22-1.36.56-.88.61-1.34 0-1.13 0-1.6c-.65-.22-.76.08-1.44.08s-.69-.19-1.39-.19h-1.37c-.69 0-.69.29-1.39.29s-.69.08-1.38.08-.69.19-1.38.19h-1.38c-.69 0-.69-.49-1.39-.49h-1.38c-.69 0-1.1.1-1.4-.28a2.5 2.5 0 01-.36-1.47 2.17 2.17 0 01.55-1.33 1.57 1.57 0 011.21-.79h1.37c.69 0 .69-.1 1.38-.1s.69.24 1.38.24.69-.39 1.38-.39h1.38c.69 0 .69.7 1.38.7s.69-.51 1.38-.51h1.39c.69 0 .69.38 1.38.38s.8.18 1.3-.3 0-.57 0-1.23v-1.33c0-.67-.23-.69-.17-1.35s.44-.47.44-1.13z"/><path class="cls-1" d="M449.51 90.74c-.44.06-.88.29-1.35.36s-.93-.14-1.39-.07-.87.31-1.33.37-.94-.11-1.4 0-.89.21-1.35.27-.91.09-1.36.16-.88.37-1.33.44-.94-.11-1.4 0l-1.35.21a1.31 1.31 0 01-1.21-.31 1.35 1.35 0 01-.46-1.13c0-.41-.26-1 0-1.27a2.23 2.23 0 011.25-.37l1.39-.2c.45-.06.9-.26 1.37-.32s.93-.07 1.39-.13.92-.17 1.39-.22 1 .19 1.42.14l1.39-.16c.47-.05.91-.26 1.38-.31s1 .06 1.41 0 .92-.26 1.39-.31l1.39-.13c.47 0 1 .14 1.42.1s.92-.24 1.38-.28.95 0 1.41-.07.92-.22 1.38-.26a1.51 1.51 0 011.16.49c.34.29.73.65.73 1.09a1.77 1.77 0 01-.51 1 1.62 1.62 0 01-1 .43 10.14 10.14 0 00-1.63.51 10.57 10.57 0 00-1.59.64 14.7 14.7 0 00-1.17 1c-.43.31-1 .36-1.39.68s-.51 1-.81 1.32-.84.66-1.08 1.07a8.21 8.21 0 00-.72 1.37 8.8 8.8 0 00-.14 1.53 9.61 9.61 0 00-.18 1.49 5.88 5.88 0 00.4 1.29 4.48 4.48 0 00.38 1.24 4.89 4.89 0 00.63 1.2c.3.31.82.36 1.22.6a7.25 7.25 0 001.19.54c.4.15.71.67 1.16.77s.93-.19 1.39-.14a2.2 2.2 0 011.23.6 2 2 0 01.4 1.28 2.09 2.09 0 01-.47 1.46 2.2 2.2 0 01-1.51.45c-.49 0-.91-.48-1.37-.56a11.36 11.36 0 01-1.45-.11 9.66 9.66 0 01-1.24-.74 11.28 11.28 0 01-1.34-.52 10.71 10.71 0 01-1-1 8.33 8.33 0 01-.87-1.11c-.3-.37-.89-.54-1.12-1a7.92 7.92 0 01-.54-1.35 9.63 9.63 0 01-.14-1.44 9.44 9.44 0 01-.38-1.41c0-.49.36-1 .44-1.48a9.68 9.68 0 01.11-1.51 10.69 10.69 0 01.67-1.36 14 14 0 01.66-1.35 14.16 14.16 0 01.94-1.17c.31-.38.41-1 .78-1.35a14.82 14.82 0 011.22-.9.13.13 0 01.11-.06zm4.33 4.73a1.22 1.22 0 011.14-1.2c.26 0 .44.31.7.54a12.59 12.59 0 011.32 1.06 11 11 0 01.86 1.47 1 1 0 01.29.65.91.91 0 01-1 1c-.35 0-.73 0-1-.34s-.5-1-.84-1.42-.79-.83-1.14-1.18-.33-.38-.33-.58zm2.87-2.31a1.18 1.18 0 011.14-1.16c.29 0 .47.35.76.58a13.42 13.42 0 011.3 1 10.9 10.9 0 01.85 1.4 1 1 0 01.35.73c0 .64-.4.91-1 .91-.34 0-.76.08-1.05-.3s-.5-1-.86-1.38-.77-.82-1.11-1.17-.38-.38-.38-.61z"/><path class="cls-2" d="M449.51 90.74c-.44.06-.88.29-1.35.36s-.93-.14-1.39-.07-.87.31-1.33.37-.94-.11-1.4 0-.89.21-1.35.27-.91.09-1.36.16-.88.37-1.33.44-.94-.11-1.4 0l-1.35.21a1.31 1.31 0 01-1.21-.31 1.35 1.35 0 01-.46-1.13c0-.41-.26-1 0-1.27a2.23 2.23 0 011.25-.37l1.39-.2c.45-.06.9-.26 1.37-.32s.93-.07 1.39-.13.92-.17 1.39-.22 1 .19 1.42.14l1.39-.16c.47-.05.91-.26 1.38-.31s1 .06 1.41 0 .92-.26 1.39-.31l1.39-.13c.47 0 1 .14 1.42.1s.92-.24 1.38-.28.95 0 1.41-.07.92-.22 1.38-.26a1.51 1.51 0 011.16.49c.34.29.73.65.73 1.09a1.77 1.77 0 01-.51 1 1.62 1.62 0 01-1 .43 10.14 10.14 0 00-1.63.51 10.57 10.57 0 00-1.59.64 14.7 14.7 0 00-1.17 1c-.43.31-1 .36-1.39.68s-.51 1-.81 1.32-.84.66-1.08 1.07a8.21 8.21 0 00-.72 1.37 8.8 8.8 0 00-.14 1.53 9.61 9.61 0 00-.18 1.49 5.88 5.88 0 00.4 1.29 4.48 4.48 0 00.38 1.24 4.89 4.89 0 00.63 1.2c.3.31.82.36 1.22.6a7.25 7.25 0 001.19.54c.4.15.71.67 1.16.77s.93-.19 1.39-.14a2.2 2.2 0 011.23.6 2 2 0 01.4 1.28 2.09 2.09 0 01-.47 1.46 2.2 2.2 0 01-1.51.45c-.49 0-.91-.48-1.37-.56a11.36 11.36 0 01-1.45-.11 9.66 9.66 0 01-1.24-.74 11.28 11.28 0 01-1.34-.52 10.71 10.71 0 01-1-1 8.33 8.33 0 01-.87-1.11c-.3-.37-.89-.54-1.12-1a7.92 7.92 0 01-.54-1.35 9.63 9.63 0 01-.14-1.44 9.44 9.44 0 01-.38-1.41c0-.49.36-1 .44-1.48a9.68 9.68 0 01.11-1.51 10.69 10.69 0 01.67-1.36 14 14 0 01.66-1.35 14.16 14.16 0 01.94-1.17c.31-.38.41-1 .78-1.35a14.82 14.82 0 011.22-.9.13.13 0 01.11-.06zm4.33 4.73a1.22 1.22 0 011.14-1.2c.26 0 .44.31.7.54a12.59 12.59 0 011.32 1.06 11 11 0 01.86 1.47 1 1 0 01.29.65.91.91 0 01-1 1c-.35 0-.73 0-1-.34s-.5-1-.84-1.42-.79-.83-1.14-1.18-.33-.38-.33-.58zm2.87-2.31a1.18 1.18 0 011.14-1.16c.29 0 .47.35.76.58a13.42 13.42 0 011.3 1 10.9 10.9 0 01.85 1.4 1 1 0 01.35.73c0 .64-.4.91-1 .91-.34 0-.76.08-1.05-.3s-.5-1-.86-1.38-.77-.82-1.11-1.17-.38-.38-.38-.61z"/><path class="cls-1" d="M105 40.17c0-.43-.2-.89-.18-1.32s.2-.86.23-1.29 0-.75 0-1.18c-.42 0-.73-.12-1.13-.11s-.84.17-1.25.18-.84-.26-1.24-.26-.84 0-1.08-.21a1.82 1.82 0 01-.51-1.09 1.71 1.71 0 01.58-1 1.33 1.33 0 011-.33c.43 0 .87-.26 1.33-.27l1.34-.06c.45 0 1 .26 1.48.23.06-.54.22-1.18.29-1.74s0-1.11.11-1.68a1.23 1.23 0 01.5-.86 1.54 1.54 0 011-.31 1.67 1.67 0 011.14.29 1.16 1.16 0 01.29 1.11c-.07.49-.16 1-.23 1.43s.09.84 0 1.31h1.3l1.46-.16c.49-.06 1 0 1.45-.11s1-.16 1.44-.24a1.58 1.58 0 011.26.21 1.64 1.64 0 01.7 1.16c0 .64-.58 1.14-1.45 1.28-.42.08-.86.13-1.33.2s-.87.1-1.33.15-.87.19-1.32.24l-1.35.1c-.44 0-1 .16-1.44.19 0 .51-.08 1.12-.12 1.64s-.13 1.21-.16 1.73c.46-.11 1.1-.31 1.58-.38s.93-.22 1.4-.26 1 0 1.45 0c.12-.38.37-.74.46-1.15a1.42 1.42 0 011.33-1.27c.38 0 .65.41.93.62s.61.41.61.82a2 2 0 01-.06.38c-.08.29-.27.66-.35 1a10.61 10.61 0 011.42.6c.48.19 1.08.08 1.49.34s.62.83 1 1.16.93.5 1.21.9a7.46 7.46 0 01.87 1.26 7.45 7.45 0 01.35 1.5 7.6 7.6 0 01.26 1.5c0 .48-.4.92-.47 1.37a9.09 9.09 0 01-.14 1.39c-.15.44-.57.74-.79 1.15a8.17 8.17 0 01-.57 1.28 8.37 8.37 0 01-1 1 9.62 9.62 0 01-1.11.86 11.23 11.23 0 01-1.25.63c-.4.2-.93.1-1.38.26s-.76.67-1.22.78c-.15 0-.36-.3-.5-.3a1.22 1.22 0 01-1-.34c-.28-.3-.71-.64-.71-1.05a2 2 0 011.41-1.78c.46-.14 1.05.16 1.45 0a10.26 10.26 0 001.24-.65 7.15 7.15 0 001.12-.85c.35-.32.35-.91.59-1.28s.63-.69.74-1.13a5.08 5.08 0 00.1-1.36 4.61 4.61 0 00-.29-1.26 4.56 4.56 0 00-.4-1.25 5.06 5.06 0 00-.85-1 5.5 5.5 0 00-1-.9 9 9 0 00-1.41-.49c-.18.46-.22 1.11-.42 1.56s-.33.93-.55 1.37-.81.67-1.06 1.09-.37.92-.65 1.32-.41.92-.72 1.3-.9.51-1.24.86-.66.78-1 1.1c.12.61.46 1.18.6 1.73 0 .11-.28.29-.28.41 0 .44.14 1-.17 1.2a2.09 2.09 0 01-1.24.27c-.61 0-1-.43-1.17-1.15-.06-.24-.34-.67-.39-.9a8.11 8.11 0 01-1.21.67 6 6 0 01-1.2.4 7.59 7.59 0 01-1.27.1 5.23 5.23 0 01-1.32 0c-.44-.12-.7-.54-1-.79a3.08 3.08 0 01-.82-.9c-.23-.36-.71-.59-.82-1a5.52 5.52 0 01-.36-1.42 6.83 6.83 0 01.35-1.42 7.05 7.05 0 01.24-1.46c.18-.42.72-.68 1-1.1a9.44 9.44 0 01.8-1.18 10.4 10.4 0 01.84-1.2c.34-.31 1-.28 1.39-.57a12.22 12.22 0 011.19-.77 13.94 13.94 0 011.19-.85zm-2.57 9.73a4.22 4.22 0 001.45-.51 7.09 7.09 0 001.42-.58c-.06-.47-.23-.9-.28-1.36s.11-1 .07-1.44-.21-.93-.23-1.4.14-1.1.13-1.57a14 14 0 00-1.13 1 8.21 8.21 0 00-.9 1 8.84 8.84 0 00-1 .93 5.62 5.62 0 00-.64 1.2 4.05 4.05 0 000 1.35c.12.92.16 1.35 1.15 1.38zm8.9-8.52a16.9 16.9 0 00-1.71.39A13.87 13.87 0 00108 42c0 .17.14.27.14.45 0 .45-.2.92-.18 1.41s.19.92.22 1.4-.06 1.11 0 1.58c.34-.39.65-1 1-1.41s.48-.91.75-1.35.68-.79.91-1.25.34-.97.53-1.45z"/><path class="cls-2" d="M105 40.17c0-.43-.2-.89-.18-1.32s.2-.86.23-1.29 0-.75 0-1.18c-.42 0-.73-.12-1.13-.11s-.84.17-1.25.18-.84-.26-1.24-.26-.84 0-1.08-.21a1.82 1.82 0 01-.51-1.09 1.71 1.71 0 01.58-1 1.33 1.33 0 011-.33c.43 0 .87-.26 1.33-.27l1.34-.06c.45 0 1 .26 1.48.23.06-.54.22-1.18.29-1.74s0-1.11.11-1.68a1.23 1.23 0 01.5-.86 1.54 1.54 0 011-.31 1.67 1.67 0 011.14.29 1.16 1.16 0 01.29 1.11c-.07.49-.16 1-.23 1.43s.09.84 0 1.31h1.3l1.46-.16c.49-.06 1 0 1.45-.11s1-.16 1.44-.24a1.58 1.58 0 011.26.21 1.64 1.64 0 01.7 1.16c0 .64-.58 1.14-1.45 1.28-.42.08-.86.13-1.33.2s-.87.1-1.33.15-.87.19-1.32.24l-1.35.1c-.44 0-1 .16-1.44.19 0 .51-.08 1.12-.12 1.64s-.13 1.21-.16 1.73c.46-.11 1.1-.31 1.58-.38s.93-.22 1.4-.26 1 0 1.45 0c.12-.38.37-.74.46-1.15a1.42 1.42 0 011.33-1.27c.38 0 .65.41.93.62s.61.41.61.82a2 2 0 01-.06.38c-.08.29-.27.66-.35 1a10.61 10.61 0 011.42.6c.48.19 1.08.08 1.49.34s.62.83 1 1.16.93.5 1.21.9a7.46 7.46 0 01.87 1.26 7.45 7.45 0 01.35 1.5 7.6 7.6 0 01.26 1.5c0 .48-.4.92-.47 1.37a9.09 9.09 0 01-.14 1.39c-.15.44-.57.74-.79 1.15a8.17 8.17 0 01-.57 1.28 8.37 8.37 0 01-1 1 9.62 9.62 0 01-1.11.86 11.23 11.23 0 01-1.25.63c-.4.2-.93.1-1.38.26s-.76.67-1.22.78c-.15 0-.36-.3-.5-.3a1.22 1.22 0 01-1-.34c-.28-.3-.71-.64-.71-1.05a2 2 0 011.41-1.78c.46-.14 1.05.16 1.45 0a10.26 10.26 0 001.24-.65 7.15 7.15 0 001.12-.85c.35-.32.35-.91.59-1.28s.63-.69.74-1.13a5.08 5.08 0 00.1-1.36 4.61 4.61 0 00-.29-1.26 4.56 4.56 0 00-.4-1.25 5.06 5.06 0 00-.85-1 5.5 5.5 0 00-1-.9 9 9 0 00-1.41-.49c-.18.46-.22 1.11-.42 1.56s-.33.93-.55 1.37-.81.67-1.06 1.09-.37.92-.65 1.32-.41.92-.72 1.3-.9.51-1.24.86-.66.78-1 1.1c.12.61.46 1.18.6 1.73 0 .11-.28.29-.28.41 0 .44.14 1-.17 1.2a2.09 2.09 0 01-1.24.27c-.61 0-1-.43-1.17-1.15-.06-.24-.34-.67-.39-.9a8.11 8.11 0 01-1.21.67 6 6 0 01-1.2.4 7.59 7.59 0 01-1.27.1 5.23 5.23 0 01-1.32 0c-.44-.12-.7-.54-1-.79a3.08 3.08 0 01-.82-.9c-.23-.36-.71-.59-.82-1a5.52 5.52 0 01-.36-1.42 6.83 6.83 0 01.35-1.42 7.05 7.05 0 01.24-1.46c.18-.42.72-.68 1-1.1a9.44 9.44 0 01.8-1.18 10.4 10.4 0 01.84-1.2c.34-.31 1-.28 1.39-.57a12.22 12.22 0 011.19-.77 13.94 13.94 0 011.19-.85zm-2.57 9.73a4.22 4.22 0 001.45-.51 7.09 7.09 0 001.42-.58c-.06-.47-.23-.9-.28-1.36s.11-1 .07-1.44-.21-.93-.23-1.4.14-1.1.13-1.57a14 14 0 00-1.13 1 8.21 8.21 0 00-.9 1 8.84 8.84 0 00-1 .93 5.62 5.62 0 00-.64 1.2 4.05 4.05 0 000 1.35c.12.92.16 1.35 1.15 1.38zm8.9-8.52a16.9 16.9 0 00-1.71.39A13.87 13.87 0 00108 42c0 .17.14.27.14.45 0 .45-.2.92-.18 1.41s.19.92.22 1.4-.06 1.11 0 1.58c.34-.39.65-1 1-1.41s.48-.91.75-1.35.68-.79.91-1.25.34-.97.53-1.45z"/><path class="cls-1" d="M137.8 30.49a1.51 1.51 0 01.55-.91 1.67 1.67 0 011-.35 2 2 0 011.4.37 1.78 1.78 0 01.16 1.44c-.12.56-.2 1.15-.35 1.73s-.15 1-.31 1.57c.43-.08.61-.26 1-.33s.91.16 1.32.08a1.25 1.25 0 011.14.38 1.45 1.45 0 01.69 1.05 1.55 1.55 0 01-1.27 1.48c-.44.09-.93 0-1.39 0s-.89.2-1.36.28-.76.41-1.21.48c-.17.48-.24.9-.42 1.38s-.62.86-.82 1.34-.46.91-.66 1.38-.29 1-.5 1.46-.49.91-.71 1.36-.47.92-.71 1.36-.56.87-.82 1.29a1.74 1.74 0 01-1.57 1 1.41 1.41 0 01-1-.47c-.3-.28-.65-.52-.65-1a1.84 1.84 0 01.46-.93c.26-.41.19-1 .44-1.45s.78-.68 1-1.11.38-.9.6-1.34.22-1 .43-1.42.52-.83.71-1.29.3-.78.48-1.24c-.52 0-.91-.05-1.39 0s-1 .2-1.5.21-.73-.37-1-.66a1.62 1.62 0 01-.58-1 1.85 1.85 0 01.3-1.17 1.6 1.6 0 011.14-.31h1.41c.48 0 .91-.32 1.39-.35l1.31-.1c.14-.49.55-.79.69-1.28s.31-1 .43-1.46.07-.96.17-1.47zm5.2 24.24a9.56 9.56 0 01-1.56-.13 6.62 6.62 0 01-1.52-.39 4.86 4.86 0 01-1.47-.68 3.85 3.85 0 01-.73-1.44 4.24 4.24 0 01-.33-1.55 4.07 4.07 0 01.19-1.64 4.24 4.24 0 011-1.34c.36-.33 1-.37 1.51-.6a6.67 6.67 0 011.52-.33 8.82 8.82 0 011.55-.34 12 12 0 011.42.09 15.29 15.29 0 010-1.53c-.06-.6-.14-1.09-.14-1.52s-.32-1-.29-1.42 0-.92.11-1.42c.15-.81 1.06-1.09 1.75-1.09a1.69 1.69 0 011.12.46 1.17 1.17 0 01.51 1.08c-.07.41-.16.79-.19 1.17a11.91 11.91 0 000 1.2v1.26c0 .5 0 .79.11 1.26s.07.91.15 1.37c.48.14 1.11.14 1.58.32s.87.52 1.32.73 1.08.1 1.52.34.7.8 1.11 1.08A1.53 1.53 0 01154 51a1.84 1.84 0 01-.28 1.23 1.71 1.71 0 01-1.22.41 2 2 0 01-1.08-.27c-.34-.25-.58-.65-.94-.87s-.8-.3-1.17-.49-.84-.58-1.22-.74a6.86 6.86 0 01-.06 1.66 4.11 4.11 0 01-.67 1.43 4.29 4.29 0 01-1.36.8 5.75 5.75 0 01-1.48.4 8.06 8.06 0 01-1.52.17zm2-4.73a5.86 5.86 0 000-.74 10.74 10.74 0 00-1.83-.15 4.11 4.11 0 00-1.59.43c-.74.25-1.05.48-1.05 1s.24.85.9 1.07a6.17 6.17 0 001.53 0 1.85 1.85 0 001.35-.36A1.49 1.49 0 00145 50zm8.9-13.51a1.79 1.79 0 01.94 1.5 1.63 1.63 0 01-.42 1.11c-.28.3-.68.71-1.1.71s-.59-.29-.88-.47-.91-.45-1.37-.68-1-.32-1.44-.53-.94-.42-1.39-.59a1.5 1.5 0 01-.89-1.52 1.38 1.38 0 01.55-1c.29-.28.56-.62 1-.62a1.87 1.87 0 01.56.07c.48.13.93.52 1.46.73s1 .37 1.49.61 1.11.44 1.53.7z"/><path class="cls-2" d="M137.8 30.49a1.51 1.51 0 01.55-.91 1.67 1.67 0 011-.35 2 2 0 011.4.37 1.78 1.78 0 01.16 1.44c-.12.56-.2 1.15-.35 1.73s-.15 1-.31 1.57c.43-.08.61-.26 1-.33s.91.16 1.32.08a1.25 1.25 0 011.14.38 1.45 1.45 0 01.69 1.05 1.55 1.55 0 01-1.27 1.48c-.44.09-.93 0-1.39 0s-.89.2-1.36.28-.76.41-1.21.48c-.17.48-.24.9-.42 1.38s-.62.86-.82 1.34-.46.91-.66 1.38-.29 1-.5 1.46-.49.91-.71 1.36-.47.92-.71 1.36-.56.87-.82 1.29a1.74 1.74 0 01-1.57 1 1.41 1.41 0 01-1-.47c-.3-.28-.65-.52-.65-1a1.84 1.84 0 01.46-.93c.26-.41.19-1 .44-1.45s.78-.68 1-1.11.38-.9.6-1.34.22-1 .43-1.42.52-.83.71-1.29.3-.78.48-1.24c-.52 0-.91-.05-1.39 0s-1 .2-1.5.21-.73-.37-1-.66a1.62 1.62 0 01-.58-1 1.85 1.85 0 01.3-1.17 1.6 1.6 0 011.14-.31h1.41c.48 0 .91-.32 1.39-.35l1.31-.1c.14-.49.55-.79.69-1.28s.31-1 .43-1.46.07-.96.17-1.47zm5.2 24.24a9.56 9.56 0 01-1.56-.13 6.62 6.62 0 01-1.52-.39 4.86 4.86 0 01-1.47-.68 3.85 3.85 0 01-.73-1.44 4.24 4.24 0 01-.33-1.55 4.07 4.07 0 01.19-1.64 4.24 4.24 0 011-1.34c.36-.33 1-.37 1.51-.6a6.67 6.67 0 011.52-.33 8.82 8.82 0 011.55-.34 12 12 0 011.42.09 15.29 15.29 0 010-1.53c-.06-.6-.14-1.09-.14-1.52s-.32-1-.29-1.42 0-.92.11-1.42c.15-.81 1.06-1.09 1.75-1.09a1.69 1.69 0 011.12.46 1.17 1.17 0 01.51 1.08c-.07.41-.16.79-.19 1.17a11.91 11.91 0 000 1.2v1.26c0 .5 0 .79.11 1.26s.07.91.15 1.37c.48.14 1.11.14 1.58.32s.87.52 1.32.73 1.08.1 1.52.34.7.8 1.11 1.08A1.53 1.53 0 01154 51a1.84 1.84 0 01-.28 1.23 1.71 1.71 0 01-1.22.41 2 2 0 01-1.08-.27c-.34-.25-.58-.65-.94-.87s-.8-.3-1.17-.49-.84-.58-1.22-.74a6.86 6.86 0 01-.06 1.66 4.11 4.11 0 01-.67 1.43 4.29 4.29 0 01-1.36.8 5.75 5.75 0 01-1.48.4 8.06 8.06 0 01-1.52.17zm2-4.73a5.86 5.86 0 000-.74 10.74 10.74 0 00-1.83-.15 4.11 4.11 0 00-1.59.43c-.74.25-1.05.48-1.05 1s.24.85.9 1.07a6.17 6.17 0 001.53 0 1.85 1.85 0 001.35-.36A1.49 1.49 0 00145 50zm8.9-13.51a1.79 1.79 0 01.94 1.5 1.63 1.63 0 01-.42 1.11c-.28.3-.68.71-1.1.71s-.59-.29-.88-.47-.91-.45-1.37-.68-1-.32-1.44-.53-.94-.42-1.39-.59a1.5 1.5 0 01-.89-1.52 1.38 1.38 0 01.55-1c.29-.28.56-.62 1-.62a1.87 1.87 0 01.56.07c.48.13.93.52 1.46.73s1 .37 1.49.61 1.11.44 1.53.7z"/><path class="cls-1" d="M166 38.9a1.64 1.64 0 01-1.23-.44c-.29-.29-.19-.78-.19-1.2a1.27 1.27 0 01.4-.95 1.13 1.13 0 01.9-.5c.43 0 .9 0 1.39-.07s.87-.33 1.34-.4.78-.2 1.25-.28c.08-.52.26-.9.33-1.37s.3-1 .35-1.47-.27-1-.22-1.52.54-.64.82-.86a1.69 1.69 0 011-.54c.44 0 .73.4 1 .69s.75.52.69 1 0 1.24-.11 1.78-.22 1.06-.31 1.64c.41-.09.68 0 1.1-.14s.81-.26 1.23-.36c.14 0 .29-.24.44-.24a1.64 1.64 0 011.11.6 1.84 1.84 0 01.49 1.13c0 .61-.56 1-1.34 1.23-.42.12-.76.53-1.17.64s-.84.25-1.25.35-.89.06-1.29.15c-.09.48.06 1 0 1.47s-.33.91-.42 1.38-.08 1-.18 1.43-.24.93-.35 1.39-.18 1-.3 1.41-.55.85-.67 1.31-.27.92-.4 1.38 0 1-.16 1.44-.2 1-.35 1.4-.58.82-.74 1.26-.29.92-.46 1.36a2.05 2.05 0 01-.68.9 1.84 1.84 0 01-1.07.38 2 2 0 01-1.26-.25 1.71 1.71 0 01-.36-1.23 2.31 2.31 0 01.12-.84c.18-.44.2-.93.37-1.38s.33-.87.49-1.32.58-.79.73-1.24.39-.87.52-1.33.07-1 .2-1.42.23-.9.35-1.37.44-.86.55-1.32.17-.93.28-1.39-.11-1 0-1.45.23-.7.33-1.16c-.59.08-1-.07-1.56 0s-1.17.29-1.71.32zm10.84 7.77a1.51 1.51 0 011.5 1.33c.06.56-.05 1.11.2 1.44a2.47 2.47 0 001.23.89 9 9 0 001.45.15c.41 0 .89.09 1.42.09s.89-.24 1.31-.26.87-.18 1.29-.22.89 0 1.31 0a1.37 1.37 0 011.18.49c.34.32.85.66.85 1.12s-.43.65-.68.94-.42.61-.85.68-1-.18-1.47-.13-.92.42-1.42.45-1 .12-1.46.12-1 0-1.48-.08a12.81 12.81 0 01-1.43-.4 8.9 8.9 0 01-1.43-.32 5.91 5.91 0 01-1.4-.53 4.31 4.31 0 01-1-1.15 4.81 4.81 0 01-.67-1.34c-.12-.44.15-1 .12-1.49s-.12-1 .16-1.26a2 2 0 011.28-.52zm8.72-8.67a1.77 1.77 0 011.2.5c.29.3.19.79.19 1.2a1.15 1.15 0 01-.4.9 1.09 1.09 0 01-.9.43h-1.43c-.43 0-.93.29-1.4.33s-.94.23-1.4.29-1 0-1.43 0-1 0-1.43.07-1.06.31-1.37 0-.26-.89-.26-1.35-.08-.78.18-1.07.64-.15 1.06-.24.9-.52 1.41-.6 1-.25 1.47-.31 1-.09 1.51-.13 1 .14 1.51.12 1.01-.14 1.49-.14z"/><path class="cls-2" d="M166 38.9a1.64 1.64 0 01-1.23-.44c-.29-.29-.19-.78-.19-1.2a1.27 1.27 0 01.4-.95 1.13 1.13 0 01.9-.5c.43 0 .9 0 1.39-.07s.87-.33 1.34-.4.78-.2 1.25-.28c.08-.52.26-.9.33-1.37s.3-1 .35-1.47-.27-1-.22-1.52.54-.64.82-.86a1.69 1.69 0 011-.54c.44 0 .73.4 1 .69s.75.52.69 1 0 1.24-.11 1.78-.22 1.06-.31 1.64c.41-.09.68 0 1.1-.14s.81-.26 1.23-.36c.14 0 .29-.24.44-.24a1.64 1.64 0 011.11.6 1.84 1.84 0 01.49 1.13c0 .61-.56 1-1.34 1.23-.42.12-.76.53-1.17.64s-.84.25-1.25.35-.89.06-1.29.15c-.09.48.06 1 0 1.47s-.33.91-.42 1.38-.08 1-.18 1.43-.24.93-.35 1.39-.18 1-.3 1.41-.55.85-.67 1.31-.27.92-.4 1.38 0 1-.16 1.44-.2 1-.35 1.4-.58.82-.74 1.26-.29.92-.46 1.36a2.05 2.05 0 01-.68.9 1.84 1.84 0 01-1.07.38 2 2 0 01-1.26-.25 1.71 1.71 0 01-.36-1.23 2.31 2.31 0 01.12-.84c.18-.44.2-.93.37-1.38s.33-.87.49-1.32.58-.79.73-1.24.39-.87.52-1.33.07-1 .2-1.42.23-.9.35-1.37.44-.86.55-1.32.17-.93.28-1.39-.11-1 0-1.45.23-.7.33-1.16c-.59.08-1-.07-1.56 0s-1.17.29-1.71.32zm10.84 7.77a1.51 1.51 0 011.5 1.33c.06.56-.05 1.11.2 1.44a2.47 2.47 0 001.23.89 9 9 0 001.45.15c.41 0 .89.09 1.42.09s.89-.24 1.31-.26.87-.18 1.29-.22.89 0 1.31 0a1.37 1.37 0 011.18.49c.34.32.85.66.85 1.12s-.43.65-.68.94-.42.61-.85.68-1-.18-1.47-.13-.92.42-1.42.45-1 .12-1.46.12-1 0-1.48-.08a12.81 12.81 0 01-1.43-.4 8.9 8.9 0 01-1.43-.32 5.91 5.91 0 01-1.4-.53 4.31 4.31 0 01-1-1.15 4.81 4.81 0 01-.67-1.34c-.12-.44.15-1 .12-1.49s-.12-1 .16-1.26a2 2 0 011.28-.52zm8.72-8.67a1.77 1.77 0 011.2.5c.29.3.19.79.19 1.2a1.15 1.15 0 01-.4.9 1.09 1.09 0 01-.9.43h-1.43c-.43 0-.93.29-1.4.33s-.94.23-1.4.29-1 0-1.43 0-1 0-1.43.07-1.06.31-1.37 0-.26-.89-.26-1.35-.08-.78.18-1.07.64-.15 1.06-.24.9-.52 1.41-.6 1-.25 1.47-.31 1-.09 1.51-.13 1 .14 1.51.12 1.01-.14 1.49-.14z"/><path class="cls-1" d="M201.44 31.31a1.56 1.56 0 011.15.55c.3.3.76.63.66 1.2s-.32.92-.41 1.38-.16 1-.24 1.42-.37.91-.44 1.38.21 1 .15 1.46-.26.94-.3 1.41-.25.94-.28 1.42.05 1 0 1.43-.15.95-.16 1.43.3 1 .3 1.43-.2.9-.18 1.37 0 .91 0 1.37.25.9.29 1.35.08.92.13 1.36 0 .95.07 1.37a1.36 1.36 0 01-.36 1.21 1.64 1.64 0 01-1.21.44 1.53 1.53 0 01-1-.44A1.26 1.26 0 01199 53c-.06-.42 0-.91-.1-1.42s-.34-.91-.38-1.41 0-1-.06-1.43.21-1 .19-1.45 0-1 0-1.43-.08-1-.07-1.49.07-1 .09-1.49-.17-1-.13-1.5 0-1 0-1.5.24-1 .3-1.48.28-1 .35-1.46-.2-1-.12-1.53.47-.92.56-1.42 0-1 .08-1.51.5-.52.78-.72a1.58 1.58 0 01.95-.45zm13.14 17.8c.46 0 1 .1 1.47.07s.94-.44 1.43-.5 1 0 1.47-.1a1.57 1.57 0 011.36.32 1.64 1.64 0 01.33 1.29c0 .36.2.82 0 1.11a1.78 1.78 0 01-1 .42c-.56.11-1.13 0-1.68.11s-1.1.24-1.65.27-1.13-.05-1.68-.05-1.05.3-1.52.26a11.39 11.39 0 01-1.48-.38 10.18 10.18 0 01-1.44-.45 6.56 6.56 0 01-1.42-.5 3.83 3.83 0 01-1.77-2.43 7 7 0 01-.3-1.46 1.4 1.4 0 01.44-1.19 1.51 1.51 0 011.17-.35c.7 0 1.31.19 1.43 1a3 3 0 00.47 1.47c.27.34.81.4 1.4.57a6.26 6.26 0 001.45.27 13.07 13.07 0 001.52.25zm4.51-13.79a1.34 1.34 0 01-.5 1c-.24.25-.42.73-.89.8s-.91 0-1.37 0l-1.35.15c-.45 0-.93-.15-1.38-.11s-.89.41-1.34.43-.92-.1-1.38-.08-.91-.14-1.37-.13a1.51 1.51 0 01-1.15-.27A1.39 1.39 0 01208 36c0-.4-.12-.91.18-1.21a1.79 1.79 0 011.21-.28c.45 0 .89.07 1.34 0s.88-.22 1.32-.25l1.33-.08h1.34c.44 0 .88-.11 1.32-.16s.89-.08 1.32-.14a1.32 1.32 0 011.11.42 1.3 1.3 0 01.62 1.02z"/><path class="cls-2" d="M201.44 31.31a1.56 1.56 0 011.15.55c.3.3.76.63.66 1.2s-.32.92-.41 1.38-.16 1-.24 1.42-.37.91-.44 1.38.21 1 .15 1.46-.26.94-.3 1.41-.25.94-.28 1.42.05 1 0 1.43-.15.95-.16 1.43.3 1 .3 1.43-.2.9-.18 1.37 0 .91 0 1.37.25.9.29 1.35.08.92.13 1.36 0 .95.07 1.37a1.36 1.36 0 01-.36 1.21 1.64 1.64 0 01-1.21.44 1.53 1.53 0 01-1-.44A1.26 1.26 0 01199 53c-.06-.42 0-.91-.1-1.42s-.34-.91-.38-1.41 0-1-.06-1.43.21-1 .19-1.45 0-1 0-1.43-.08-1-.07-1.49.07-1 .09-1.49-.17-1-.13-1.5 0-1 0-1.5.24-1 .3-1.48.28-1 .35-1.46-.2-1-.12-1.53.47-.92.56-1.42 0-1 .08-1.51.5-.52.78-.72a1.58 1.58 0 01.95-.45zm13.14 17.8c.46 0 1 .1 1.47.07s.94-.44 1.43-.5 1 0 1.47-.1a1.57 1.57 0 011.36.32 1.64 1.64 0 01.33 1.29c0 .36.2.82 0 1.11a1.78 1.78 0 01-1 .42c-.56.11-1.13 0-1.68.11s-1.1.24-1.65.27-1.13-.05-1.68-.05-1.05.3-1.52.26a11.39 11.39 0 01-1.48-.38 10.18 10.18 0 01-1.44-.45 6.56 6.56 0 01-1.42-.5 3.83 3.83 0 01-1.77-2.43 7 7 0 01-.3-1.46 1.4 1.4 0 01.44-1.19 1.51 1.51 0 011.17-.35c.7 0 1.31.19 1.43 1a3 3 0 00.47 1.47c.27.34.81.4 1.4.57a6.26 6.26 0 001.45.27 13.07 13.07 0 001.52.25zm4.51-13.79a1.34 1.34 0 01-.5 1c-.24.25-.42.73-.89.8s-.91 0-1.37 0l-1.35.15c-.45 0-.93-.15-1.38-.11s-.89.41-1.34.43-.92-.1-1.38-.08-.91-.14-1.37-.13a1.51 1.51 0 01-1.15-.27A1.39 1.39 0 01208 36c0-.4-.12-.91.18-1.21a1.79 1.79 0 011.21-.28c.45 0 .89.07 1.34 0s.88-.22 1.32-.25l1.33-.08h1.34c.44 0 .88-.11 1.32-.16s.89-.08 1.32-.14a1.32 1.32 0 011.11.42 1.3 1.3 0 01.62 1.02z"/><path class="cls-1" d="M315.61 45a8.27 8.27 0 01-.33 1.41 7.84 7.84 0 01-.34 1.37c-.17.44-.09 1-.35 1.44s-.81.58-1.16.93a7.45 7.45 0 01-1.1.88c-.38.28-.61.81-1 1a14.27 14.27 0 01-1.36.54c-.43.17-.94.17-1.41.31s-.89.33-1.38.43-.91.35-1.4.42-.77-.35-1.05-.59-.79-.54-.79-.95a1.63 1.63 0 011.37-1.46c.51-.09 1-.25 1.44-.36s1.08.07 1.52-.07.87-.63 1.28-.83a7.38 7.38 0 001.35-.62 4.78 4.78 0 001-1.11 4.33 4.33 0 00.77-1.28 6.61 6.61 0 00-.09-1.51c0-.52.2-1.09 0-1.53a3.27 3.27 0 00-1.16-1 4.18 4.18 0 00-1.41-.43 6.2 6.2 0 00-1.45-.23 13.39 13.39 0 00-1.42 0c-.46 0-.93.07-1.42.15s-.94 0-1.42.14-.88.37-1.35.51-.84.42-1.31.58-1 0-1.44.18-.88.34-1.34.52-.79.54-1.23.74a1.55 1.55 0 01-.73.09 1.52 1.52 0 01-1.51-1.39c0-.52.48-1 1.17-1.25.43-.19.83-.42 1.26-.59s.9-.23 1.33-.38.78-.6 1.21-.74.93-.16 1.37-.28l1.34-.35c.46-.1.95 0 1.39-.09s.88-.45 1.33-.51.94 0 1.39 0 .93.09 1.38.09a12.18 12.18 0 011.48 0 8.88 8.88 0 011.41.42 9 9 0 011.47.34 6.33 6.33 0 011.09 1 5.24 5.24 0 01.83 1.2 5.2 5.2 0 01.68 1.3 5.94 5.94 0 01.09 1.56z"/><path class="cls-2" d="M315.61 45a8.27 8.27 0 01-.33 1.41 7.84 7.84 0 01-.34 1.37c-.17.44-.09 1-.35 1.44s-.81.58-1.16.93a7.45 7.45 0 01-1.1.88c-.38.28-.61.81-1 1a14.27 14.27 0 01-1.36.54c-.43.17-.94.17-1.41.31s-.89.33-1.38.43-.91.35-1.4.42-.77-.35-1.05-.59-.79-.54-.79-.95a1.63 1.63 0 011.37-1.46c.51-.09 1-.25 1.44-.36s1.08.07 1.52-.07.87-.63 1.28-.83a7.38 7.38 0 001.35-.62 4.78 4.78 0 001-1.11 4.33 4.33 0 00.77-1.28 6.61 6.61 0 00-.09-1.51c0-.52.2-1.09 0-1.53a3.27 3.27 0 00-1.16-1 4.18 4.18 0 00-1.41-.43 6.2 6.2 0 00-1.45-.23 13.39 13.39 0 00-1.42 0c-.46 0-.93.07-1.42.15s-.94 0-1.42.14-.88.37-1.35.51-.84.42-1.31.58-1 0-1.44.18-.88.34-1.34.52-.79.54-1.23.74a1.55 1.55 0 01-.73.09 1.52 1.52 0 01-1.51-1.39c0-.52.48-1 1.17-1.25.43-.19.83-.42 1.26-.59s.9-.23 1.33-.38.78-.6 1.21-.74.93-.16 1.37-.28l1.34-.35c.46-.1.95 0 1.39-.09s.88-.45 1.33-.51.94 0 1.39 0 .93.09 1.38.09a12.18 12.18 0 011.48 0 8.88 8.88 0 011.41.42 9 9 0 011.47.34 6.33 6.33 0 011.09 1 5.24 5.24 0 01.83 1.2 5.2 5.2 0 01.68 1.3 5.94 5.94 0 01.09 1.56z"/><path class="cls-1" d="M327.06 39a1.9 1.9 0 01-1.33-.46 2 2 0 01-.36-1.29c0-.41.33-.71.6-1a1.19 1.19 0 011-.37c.42 0 .85-.44 1.34-.5s.91 0 1.39 0l1.35-.22c.08-.52.33-1 .39-1.45s-.2-1-.15-1.52.13-1 .19-1.49a1.66 1.66 0 01.57-1.08c.29-.23.77-.1 1.16-.1a1.44 1.44 0 011.05.46c.3.28.58.51.53 1s-.11 1.24-.18 1.78-.23 1.22-.32 1.81c.41-.09.88-.29 1.31-.39s.87 0 1.28-.1c.15 0 .26-.36.41-.36.43 0 .73.4 1 .67s.61.63.61 1a1.56 1.56 0 01-1.28 1.4c-.43.12-.88.08-1.29.19s-.75.63-1.15.73-1.1-.19-1.5-.1c-.09.47.2 1.14.1 1.61s-.42.89-.51 1.36 0 1-.06 1.46-.39.89-.5 1.35l-.33 1.4c-.12.47-.17 1-.29 1.41s-.36.9-.49 1.35-.14 1-.28 1.41-.58.83-.72 1.28 0 1-.16 1.46-.43.87-.6 1.3-.57.51-.86.72a1.42 1.42 0 01-.94.36c-.4 0-1 .22-1.27 0s-.16-.81-.16-1.25a1.86 1.86 0 01.23-.73c.17-.43 0-1 .13-1.47s.42-.84.57-1.29.5-.82.65-1.28.18-.93.32-1.38.05-1 .18-1.42.66-.8.78-1.26-.24-1-.12-1.49.34-.88.44-1.35.13-.93.23-1.4.52-1 .61-1.51c-.59.08-1.27.48-1.81.54s-1.23.21-1.76.21zm10.83 7.55a1.73 1.73 0 011.62 1.45 2.58 2.58 0 00.28 1.3 2.08 2.08 0 001 1 6.66 6.66 0 001.42.32c.41 0 .9-.35 1.43-.35s.89.14 1.31.12.88-.06 1.3-.1.9.08 1.32 0 1.07-.21 1.38.07a2 2 0 01.55 1.36 1.85 1.85 0 01-.39 1.11c-.22.26-.67.22-1.09.29s-.94.06-1.44.1-.93.26-1.43.28-.95.06-1.45.06-1-.1-1.46-.13-1 .05-1.47 0a7.62 7.62 0 01-1.35-.58c-.49-.18-1.07-.13-1.44-.4a4.18 4.18 0 01-.85-1.22 4.39 4.39 0 01-.82-1.24 7.86 7.86 0 01-.06-1.48 1.28 1.28 0 01.54-1.06c.35-.36.66-.89 1.1-.89zm8.71-8.71a2 2 0 011.29.53 1.94 1.94 0 01.35 1.28c0 .4-.32.68-.6 1a1.13 1.13 0 01-.95.3c-.46 0-.93.4-1.41.43s-.95-.1-1.43-.05-1 .11-1.41.17-1-.05-1.44 0-.9.48-1.34.57a1.68 1.68 0 01-1.38-.35 1.84 1.84 0 01-.59-1.29c0-.36.37-.63.62-.92a1.51 1.51 0 01.9-.4c.47-.1.92-.36 1.43-.44s1-.18 1.48-.24 1 0 1.5-.08 1-.23 1.48-.25 1.02-.25 1.5-.25z"/><path class="cls-2" d="M327.06 39a1.9 1.9 0 01-1.33-.46 2 2 0 01-.36-1.29c0-.41.33-.71.6-1a1.19 1.19 0 011-.37c.42 0 .85-.44 1.34-.5s.91 0 1.39 0l1.35-.22c.08-.52.33-1 .39-1.45s-.2-1-.15-1.52.13-1 .19-1.49a1.66 1.66 0 01.57-1.08c.29-.23.77-.1 1.16-.1a1.44 1.44 0 011.05.46c.3.28.58.51.53 1s-.11 1.24-.18 1.78-.23 1.22-.32 1.81c.41-.09.88-.29 1.31-.39s.87 0 1.28-.1c.15 0 .26-.36.41-.36.43 0 .73.4 1 .67s.61.63.61 1a1.56 1.56 0 01-1.28 1.4c-.43.12-.88.08-1.29.19s-.75.63-1.15.73-1.1-.19-1.5-.1c-.09.47.2 1.14.1 1.61s-.42.89-.51 1.36 0 1-.06 1.46-.39.89-.5 1.35l-.33 1.4c-.12.47-.17 1-.29 1.41s-.36.9-.49 1.35-.14 1-.28 1.41-.58.83-.72 1.28 0 1-.16 1.46-.43.87-.6 1.3-.57.51-.86.72a1.42 1.42 0 01-.94.36c-.4 0-1 .22-1.27 0s-.16-.81-.16-1.25a1.86 1.86 0 01.23-.73c.17-.43 0-1 .13-1.47s.42-.84.57-1.29.5-.82.65-1.28.18-.93.32-1.38.05-1 .18-1.42.66-.8.78-1.26-.24-1-.12-1.49.34-.88.44-1.35.13-.93.23-1.4.52-1 .61-1.51c-.59.08-1.27.48-1.81.54s-1.23.21-1.76.21zm10.83 7.55a1.73 1.73 0 011.62 1.45 2.58 2.58 0 00.28 1.3 2.08 2.08 0 001 1 6.66 6.66 0 001.42.32c.41 0 .9-.35 1.43-.35s.89.14 1.31.12.88-.06 1.3-.1.9.08 1.32 0 1.07-.21 1.38.07a2 2 0 01.55 1.36 1.85 1.85 0 01-.39 1.11c-.22.26-.67.22-1.09.29s-.94.06-1.44.1-.93.26-1.43.28-.95.06-1.45.06-1-.1-1.46-.13-1 .05-1.47 0a7.62 7.62 0 01-1.35-.58c-.49-.18-1.07-.13-1.44-.4a4.18 4.18 0 01-.85-1.22 4.39 4.39 0 01-.82-1.24 7.86 7.86 0 01-.06-1.48 1.28 1.28 0 01.54-1.06c.35-.36.66-.89 1.1-.89zm8.71-8.71a2 2 0 011.29.53 1.94 1.94 0 01.35 1.28c0 .4-.32.68-.6 1a1.13 1.13 0 01-.95.3c-.46 0-.93.4-1.41.43s-.95-.1-1.43-.05-1 .11-1.41.17-1-.05-1.44 0-.9.48-1.34.57a1.68 1.68 0 01-1.38-.35 1.84 1.84 0 01-.59-1.29c0-.36.37-.63.62-.92a1.51 1.51 0 01.9-.4c.47-.1.92-.36 1.43-.44s1-.18 1.48-.24 1 0 1.5-.08 1-.23 1.48-.25 1.02-.25 1.5-.25z"/><path class="cls-1" d="M284.93 21.14A4.69 4.69 0 01286 22c.33.33.2.88.37 1.26s.95.7.95 1.13-.69 1-.95 1.47-.24 1.37-.71 1.66-1.21 0-1.8 0a3.68 3.68 0 01-1.06-.14c-.32-.09-.88.22-1.23 0s-.56-1-1-1.22-.94-.29-1.36-.54-.95-.28-1.37-.53-.64-.79-1-1.06-.93-.33-1.33-.6-.57-.87-1-1.15-1-.2-1.43-.48-.46-1-.84-1.29-.8-.53-1.18-.83-1-.29-1.38-.59-.55-.84-.93-1.15-1.09-.2-1.45-.52-.67-.71-1-1-.4-1-.76-1.32-.92-.43-1.26-.76-.46-.92-.8-1.26l-1-1c-.34-.35-.71-.66-1-1s-1.07-.33-1.39-.69-.37-1.14-.68-1.51c-.32.38-.71.87-1 1.24s-.48.88-.81 1.25-.49.89-.83 1.25-.61.77-.95 1.13-.72.68-1.07 1-.94.45-1.3.79-.6.79-1 1.13-1 .42-1.32.75-.87.49-1.24.81-.59.82-1 1.14-.66.75-1 1.06-.71.68-1.1 1-1.07.22-1.46.52-.75.63-1.15.92-.55.91-1 1.2-1 .22-1.45.5-.54 1-.95 1.22-.78.62-1.19.88-.75.67-1.17.92-.89.45-1.31.7a3.7 3.7 0 01-1.83.39c-.55 0-1-.5-1.41-.77s-1.24-.33-1.5-.79.12-1.15.12-1.69a2.61 2.61 0 01.4-1.59c.28-.43.79-.57 1.37-.91l1.28-.74c.42-.26.76-.64 1.17-.91s.66-.79 1.06-1.06 1.09-.15 1.49-.43.41-1.12.8-1.41.71-.68 1.1-1 1.15-.1 1.54-.4.58-.83 1-1.14 1-.31 1.39-.63.56-.86.92-1.19.82-.56 1.18-.89.32-1.09.67-1.43.89-.48 1.24-.82 1-.34 1.39-.69.44-.94.77-1.3.84-.56 1.17-.92.22-1.11.54-1.48.62-.75.93-1.13l.91-1.14c.3-.38.61-.75.91-1.14s.68-.71 1-1.1a3.49 3.49 0 011.4-1 4.33 4.33 0 011.54-.78 4.75 4.75 0 011.68.34 3.6 3.6 0 011.15 1.24c.31.41.15 1 .15 1.52 0 .35.18.64 0 1 .3.36.87.49 1.18.84s.68.63 1 1 .44.86.78 1.19.76.55 1.1.88.6.71.95 1 .66.66 1 1 .32 1.07.68 1.37 1.13.11 1.49.41.35 1.06.72 1.35 1.12.08 1.5.37.73.57 1.11.85.68.66 1.07.93.54.87.93 1.13 1.08.07 1.47.32.87.38 1.27.63.47 1 .87 1.27.8.5 1.21.73.84.44 1.25.66 1.07 0 1.48.21.81.5 1.23.7zM250 27a2.35 2.35 0 01-1.29-.44c-.37-.26-.28-.81-.46-1.23s-1-.7-1-1.15.64-.82.82-1.22 0-1.23.38-1.48 1 .06 1.51.06h1.47c.73 0 .73-.5 1.46-.5s.73.59 1.46.59.73-.21 1.46-.21.73-.25 1.46-.25.73.33 1.47.33.73-.22 1.46-.22.73.4 1.46.4.74-.42 1.47-.42.73.54 1.46.54h1.47c.73 0 .73-.39 1.47-.39s.73.31 1.47.31c.51 0 1.13-.35 1.47-.12a2.92 2.92 0 01.86 1.23c.17.4-.19 1-.19 1.41s.21.94 0 1.34-.68.53-1.06.79a1.73 1.73 0 01-1.12.32c-.73 0-.73.06-1.47.06s-.73.56-1.46.56-.73-.53-1.46-.53-.73.08-1.46.08-.73.21-1.46.21-.73.23-1.47.23-.73.08-1.46.08h-1.46c-.73 0-.73-.35-1.47-.35s-.73.15-1.46.15-.73-.34-1.47-.34-.75-.25-1.49-.22-.64.38-1.37.38z"/><path class="cls-2" d="M284.93 21.14A4.69 4.69 0 01286 22c.33.33.2.88.37 1.26s.95.7.95 1.13-.69 1-.95 1.47-.24 1.37-.71 1.66-1.21 0-1.8 0a3.68 3.68 0 01-1.06-.14c-.32-.09-.88.22-1.23 0s-.56-1-1-1.22-.94-.29-1.36-.54-.95-.28-1.37-.53-.64-.79-1-1.06-.93-.33-1.33-.6-.57-.87-1-1.15-1-.2-1.43-.48-.46-1-.84-1.29-.8-.53-1.18-.83-1-.29-1.38-.59-.55-.84-.93-1.15-1.09-.2-1.45-.52-.67-.71-1-1-.4-1-.76-1.32-.92-.43-1.26-.76-.46-.92-.8-1.26l-1-1c-.34-.35-.71-.66-1-1s-1.07-.33-1.39-.69-.37-1.14-.68-1.51c-.32.38-.71.87-1 1.24s-.48.88-.81 1.25-.49.89-.83 1.25-.61.77-.95 1.13-.72.68-1.07 1-.94.45-1.3.79-.6.79-1 1.13-1 .42-1.32.75-.87.49-1.24.81-.59.82-1 1.14-.66.75-1 1.06-.71.68-1.1 1-1.07.22-1.46.52-.75.63-1.15.92-.55.91-1 1.2-1 .22-1.45.5-.54 1-.95 1.22-.78.62-1.19.88-.75.67-1.17.92-.89.45-1.31.7a3.7 3.7 0 01-1.83.39c-.55 0-1-.5-1.41-.77s-1.24-.33-1.5-.79.12-1.15.12-1.69a2.61 2.61 0 01.4-1.59c.28-.43.79-.57 1.37-.91l1.28-.74c.42-.26.76-.64 1.17-.91s.66-.79 1.06-1.06 1.09-.15 1.49-.43.41-1.12.8-1.41.71-.68 1.1-1 1.15-.1 1.54-.4.58-.83 1-1.14 1-.31 1.39-.63.56-.86.92-1.19.82-.56 1.18-.89.32-1.09.67-1.43.89-.48 1.24-.82 1-.34 1.39-.69.44-.94.77-1.3.84-.56 1.17-.92.22-1.11.54-1.48.62-.75.93-1.13l.91-1.14c.3-.38.61-.75.91-1.14s.68-.71 1-1.1a3.49 3.49 0 011.4-1 4.33 4.33 0 011.54-.78 4.75 4.75 0 011.68.34 3.6 3.6 0 011.15 1.24c.31.41.15 1 .15 1.52 0 .35.18.64 0 1 .3.36.87.49 1.18.84s.68.63 1 1 .44.86.78 1.19.76.55 1.1.88.6.71.95 1 .66.66 1 1 .32 1.07.68 1.37 1.13.11 1.49.41.35 1.06.72 1.35 1.12.08 1.5.37.73.57 1.11.85.68.66 1.07.93.54.87.93 1.13 1.08.07 1.47.32.87.38 1.27.63.47 1 .87 1.27.8.5 1.21.73.84.44 1.25.66 1.07 0 1.48.21.81.5 1.23.7zM250 27a2.35 2.35 0 01-1.29-.44c-.37-.26-.28-.81-.46-1.23s-1-.7-1-1.15.64-.82.82-1.22 0-1.23.38-1.48 1 .06 1.51.06h1.47c.73 0 .73-.5 1.46-.5s.73.59 1.46.59.73-.21 1.46-.21.73-.25 1.46-.25.73.33 1.47.33.73-.22 1.46-.22.73.4 1.46.4.74-.42 1.47-.42.73.54 1.46.54h1.47c.73 0 .73-.39 1.47-.39s.73.31 1.47.31c.51 0 1.13-.35 1.47-.12a2.92 2.92 0 01.86 1.23c.17.4-.19 1-.19 1.41s.21.94 0 1.34-.68.53-1.06.79a1.73 1.73 0 01-1.12.32c-.73 0-.73.06-1.47.06s-.73.56-1.46.56-.73-.53-1.46-.53-.73.08-1.46.08-.73.21-1.46.21-.73.23-1.47.23-.73.08-1.46.08h-1.46c-.73 0-.73-.35-1.47-.35s-.73.15-1.46.15-.73-.34-1.47-.34-.75-.25-1.49-.22-.64.38-1.37.38z"/><path class="cls-1" d="M259.51 59.43a2.36 2.36 0 01-1.32-.61c-.58-.45-.54-.5-1.12-1s-.47-.59-1.05-1-.68-.3-1.26-.75-.64-.38-1.22-.83-.41-.67-1-1.12-.84-.12-1.42-.57-.31-.79-.89-1.24-.83-.12-1.41-.57-.46-.61-1-1.06-.71-.3-1.29-.75-.5-.55-1.08-1a10.27 10.27 0 01-1-1.17 8.22 8.22 0 01-1-1.17c-.29-.44-.79-.77-1-1.25a10.67 10.67 0 01-.43-3.09 7.87 7.87 0 01-.13-1.59 8.2 8.2 0 01.53-1.51 8.38 8.38 0 01.84-1.35 9.27 9.27 0 011-1.21 10.74 10.74 0 011.11-1.13 10.06 10.06 0 011.31-.78 12.65 12.65 0 011.43-.49 14 14 0 011.41-.52 10.18 10.18 0 011.48-.27 12.88 12.88 0 011.49-.35c.5 0 1 .27 1.5.32a12.49 12.49 0 011.49.24 10.84 10.84 0 011.39.55 10.19 10.19 0 011.45.46 11.15 11.15 0 011.21 1c.4-.31.71-.88 1.14-1.12s1.06-.13 1.53-.31a11.11 11.11 0 011.37-.62 13.91 13.91 0 011.46-.49 13.21 13.21 0 011.54 0h1.53a12.43 12.43 0 011.44.53 12.36 12.36 0 011.52.22 12.46 12.46 0 011.34.75 10.88 10.88 0 011.14 1 10.08 10.08 0 011 1.17c.36.39 1.08.47 1.37.9a7.88 7.88 0 01.68 1.44 8.07 8.07 0 01.46 1.52c.1.5-.21 1.05-.21 1.57a7.78 7.78 0 01-.05 1.53 8.13 8.13 0 01-.21 1.56 7.88 7.88 0 01-.66 1.45c-.29.43-1 .57-1.31 1a10.17 10.17 0 01-1.13 1c-.58.45-.56.48-1.13.93s-.5.56-1.07 1-.75.23-1.32.68-.34.77-.91 1.22-.5.55-1.08 1-.8.16-1.38.61l-1.16.9c-.58.45-.62.39-1.2.84s-.53.52-1.11 1-.42.65-1 1.11-.53.52-1.11 1a2.54 2.54 0 01-1.5.42zm-6.9-21.72a7.77 7.77 0 00-1.6 0 7.25 7.25 0 00-1.55.43 6.61 6.61 0 00-1.5.68 5 5 0 00-.82 1 4.25 4.25 0 00-.57 1.15c-.15.41-.51.82-.51 1.24s.49.79.65 1.19 0 1 .27 1.33.87.33 1.22.61c.57.44.45.6 1 1s.69.28 1.26.72.49.55 1.06 1 .47.58 1 1 .59.42 1.16.86.75.23 1.32.67.48.56 1 1 .54.49 1.11.93.76.22 1.33.66.27.9 1 .9.52-.32 1.09-.76.57-.43 1.14-.88.51-.51 1.08-1 .62-.38 1.19-.82.68-.31 1.24-.75.54-.49 1.11-.94.57-.43 1.14-.88.43-.62 1-1.07.72-.25 1.29-.69.56-.46 1.14-.91a5.88 5.88 0 001-.83 4.31 4.31 0 00.48-1.21 3.63 3.63 0 00.39-1.22c0-.42-.38-.76-.53-1.16s0-.93-.32-1.28a5.82 5.82 0 00-1.05-.77l-.14.18a5.92 5.92 0 00-1.21-.87 7.26 7.26 0 00-1.44-.4 7.48 7.48 0 00-1.47-.42 9 9 0 00-1.49.36 6.48 6.48 0 00-1.45.32 5.93 5.93 0 00-1.43.57 5.79 5.79 0 00-1.26 1c-.42.52-.83 1.23-1.49 1.23v-.08a2.46 2.46 0 01-1.75-.8c-.32-.39-.43-1-.81-1.29a6.37 6.37 0 00-1.36-.67 7.23 7.23 0 00-1.49-.18 7.63 7.63 0 00-1.43-.15z"/><path class="cls-2" d="M259.51 59.43a2.36 2.36 0 01-1.32-.61c-.58-.45-.54-.5-1.12-1s-.47-.59-1.05-1-.68-.3-1.26-.75-.64-.38-1.22-.83-.41-.67-1-1.12-.84-.12-1.42-.57-.31-.79-.89-1.24-.83-.12-1.41-.57-.46-.61-1-1.06-.71-.3-1.29-.75-.5-.55-1.08-1a10.27 10.27 0 01-1-1.17 8.22 8.22 0 01-1-1.17c-.29-.44-.79-.77-1-1.25a10.67 10.67 0 01-.43-3.09 7.87 7.87 0 01-.13-1.59 8.2 8.2 0 01.53-1.51 8.38 8.38 0 01.84-1.35 9.27 9.27 0 011-1.21 10.74 10.74 0 011.11-1.13 10.06 10.06 0 011.31-.78 12.65 12.65 0 011.43-.49 14 14 0 011.41-.52 10.18 10.18 0 011.48-.27 12.88 12.88 0 011.49-.35c.5 0 1 .27 1.5.32a12.49 12.49 0 011.49.24 10.84 10.84 0 011.39.55 10.19 10.19 0 011.45.46 11.15 11.15 0 011.21 1c.4-.31.71-.88 1.14-1.12s1.06-.13 1.53-.31a11.11 11.11 0 011.37-.62 13.91 13.91 0 011.46-.49 13.21 13.21 0 011.54 0h1.53a12.43 12.43 0 011.44.53 12.36 12.36 0 011.52.22 12.46 12.46 0 011.34.75 10.88 10.88 0 011.14 1 10.08 10.08 0 011 1.17c.36.39 1.08.47 1.37.9a7.88 7.88 0 01.68 1.44 8.07 8.07 0 01.46 1.52c.1.5-.21 1.05-.21 1.57a7.78 7.78 0 01-.05 1.53 8.13 8.13 0 01-.21 1.56 7.88 7.88 0 01-.66 1.45c-.29.43-1 .57-1.31 1a10.17 10.17 0 01-1.13 1c-.58.45-.56.48-1.13.93s-.5.56-1.07 1-.75.23-1.32.68-.34.77-.91 1.22-.5.55-1.08 1-.8.16-1.38.61l-1.16.9c-.58.45-.62.39-1.2.84s-.53.52-1.11 1-.42.65-1 1.11-.53.52-1.11 1a2.54 2.54 0 01-1.5.42zm-6.9-21.72a7.77 7.77 0 00-1.6 0 7.25 7.25 0 00-1.55.43 6.61 6.61 0 00-1.5.68 5 5 0 00-.82 1 4.25 4.25 0 00-.57 1.15c-.15.41-.51.82-.51 1.24s.49.79.65 1.19 0 1 .27 1.33.87.33 1.22.61c.57.44.45.6 1 1s.69.28 1.26.72.49.55 1.06 1 .47.58 1 1 .59.42 1.16.86.75.23 1.32.67.48.56 1 1 .54.49 1.11.93.76.22 1.33.66.27.9 1 .9.52-.32 1.09-.76.57-.43 1.14-.88.51-.51 1.08-1 .62-.38 1.19-.82.68-.31 1.24-.75.54-.49 1.11-.94.57-.43 1.14-.88.43-.62 1-1.07.72-.25 1.29-.69.56-.46 1.14-.91a5.88 5.88 0 001-.83 4.31 4.31 0 00.48-1.21 3.63 3.63 0 00.39-1.22c0-.42-.38-.76-.53-1.16s0-.93-.32-1.28a5.82 5.82 0 00-1.05-.77l-.14.18a5.92 5.92 0 00-1.21-.87 7.26 7.26 0 00-1.44-.4 7.48 7.48 0 00-1.47-.42 9 9 0 00-1.49.36 6.48 6.48 0 00-1.45.32 5.93 5.93 0 00-1.43.57 5.79 5.79 0 00-1.26 1c-.42.52-.83 1.23-1.49 1.23v-.08a2.46 2.46 0 01-1.75-.8c-.32-.39-.43-1-.81-1.29a6.37 6.37 0 00-1.36-.67 7.23 7.23 0 00-1.49-.18 7.63 7.63 0 00-1.43-.15z"/></g></g></svg>