<svg xmlns="http://www.w3.org/2000/svg" viewBox="0 0 204.69 68.33"><defs><style>.cls-2{fill:#202020}</style></defs><g id="レイヤー_2" data-name="レイヤー 2"><g id="design"><path fill="none" stroke="#ff5" stroke-linecap="round" stroke-linejoin="round" stroke-width="15.18" d="M71.32 43.02l17.72 17.71 44.28-53.14"/><path class="cls-2" d="M6.2 7.69H2a1.76 1.76 0 00-2 1.95v11.78a.84.84 0 00.91.78.82.82 0 00.89-.78V10a.62.62 0 01.71-.69H6.2a.8.8 0 00.8-.79.78.78 0 00-.8-.83zm12.85 15.66a1.29 1.29 0 001.36-1.21 1.27 1.27 0 00-.26-.72l-2.95-4.6a3.8 3.8 0 002.37-3.69c0-2.52-1.58-3.86-4.57-3.86h-1.89c-2 0-2.8.69-2.8 2.53v10.43a1.1 1.1 0 001.22 1.12 1.07 1.07 0 001.18-1.12v-5h2.09l3.2 5.41a1.26 1.26 0 001.05.71zm-4.19-8h-2.15v-3.26c0-.65.12-.85.91-.85h1.24c1.57 0 2.33.65 2.33 2a2 2 0 01-2.33 2.12zM27 23.41a5.2 5.2 0 003.34-1.13.88.88 0 00.28-.7.94.94 0 00-1-.93 1 1 0 00-.62.24 2.92 2.92 0 01-2 .68 2.42 2.42 0 01-2.28-2.47h4.4a1.49 1.49 0 001.63-1.68 3.87 3.87 0 00-3.88-4c-2.53 0-4.3 2-4.3 4.94.03 3.13 1.73 5.05 4.43 5.05zm-.17-8.16a1.84 1.84 0 011.81 1.81c0 .16-.05.35-.31.35h-3.52a2.11 2.11 0 012.05-2.16zm9.26 7.05v-4.09c0-1.7.84-2.85 2.1-2.85a1.09 1.09 0 01.91.41c.17.2.32.57.32 2v2.61a9.18 9.18 0 00.2 2.28 1 1 0 001 .72c.75 0 1.27-.37 1.27-.9a2 2 0 000-.33 8.29 8.29 0 01-.19-1.95v-2.76c0-1.61-.23-2.43-.88-3.13a2.9 2.9 0 00-2.36-.86A2.86 2.86 0 0036 14.92v-.36a1 1 0 00-1.07-1 1 1 0 00-1.13 1v7.74a1.14 1.14 0 002.27 0zm16.79-4.88a3.87 3.87 0 00-3.88-4c-2.53 0-4.29 2-4.29 4.94 0 3.08 1.69 5 4.42 5a5.19 5.19 0 003.34-1.13.86.86 0 00.29-.7.94.94 0 00-1-.93 1 1 0 00-.62.24 2.9 2.9 0 01-2 .68 2.41 2.41 0 01-2.27-2.47h4.39a1.49 1.49 0 001.62-1.63zM49 15.25a1.84 1.84 0 011.81 1.81c0 .16-.06.35-.32.35h-3.57A2.1 2.1 0 0149 15.25zM59.83 22l.7-2.5c.28-1 .51-2 .74-3.21.22 1 .47 2.11.78 3.24l.66 2.47c.27.95.71 1.32 1.56 1.32s1.21-.38 1.48-1.26l2.18-7.21a1.5 1.5 0 00.08-.44c0-.52-.49-.89-1.18-.89a.91.91 0 00-1 .74L65 18c-.31 1.24-.55 2.44-.74 3.47-.08-.38-.16-.74-.23-1.11-.16-.74-.32-1.51-.53-2.29l-.81-2.95A1.28 1.28 0 0061.3 14c-.7 0-1.07.31-1.29 1.08l-.81 3c-.27 1-.57 2.25-.81 3.38-.14-1-.33-2.25-.6-3.48L57 14.34a.93.93 0 00-1-.8c-.72 0-1.2.37-1.2.93a1.85 1.85 0 00.08.46l2 7.07c.17.66.49 1.34 1.5 1.34.75 0 1.2-.34 1.45-1.34zm13.95 1.43c2.21 0 3.63-1.2 3.63-3 0-1.68-.8-2.52-2.85-3l-.65-.14c-1.4-.31-1.54-.56-1.54-1.11s.48-.93 1.29-.93a2.1 2.1 0 011.76.78 1 1 0 00.69.27 1 1 0 001-1 .93.93 0 00-.32-.75 4.45 4.45 0 00-3.15-1.09c-2 0-3.38 1.08-3.38 2.69s.77 2.41 2.94 2.94l.6.15c1.26.31 1.49.64 1.49 1.2 0 .77-.55 1.21-1.51 1.21a2.54 2.54 0 01-2.08-.9 1 1 0 00-.76-.34 1 1 0 00-1 .91.92.92 0 00.26.72 4.58 4.58 0 003.58 1.39zm11.87-12.81a.82.82 0 00-.89.79v11.37a.63.63 0 01-.72.7h-3.69a.83.83 0 000 1.66h4.25a1.77 1.77 0 002-2V11.41a.85.85 0 00-.95-.79zm8.67 11.51c1.57 0 2.6-.67 3.53-2.32a18.11 18.11 0 002-7.59 4.29 4.29 0 014.15 4.39c0 2.28-1.12 3.74-3.52 4.6a1.15 1.15 0 00-.82 1.09 1.11 1.11 0 001.1 1.13 1.29 1.29 0 00.45-.08 6.8 6.8 0 005.09-6.74c0-3.85-2.82-6.44-7-6.44-4.82 0-8.45 3.26-8.45 7.57.01 3.03 1.75 4.39 3.47 4.39zm0-2.22c-.58 0-1.19-.57-1.19-2.17a5.57 5.57 0 014.45-5.38 16 16 0 01-1.78 6.4c-.46.81-.9 1.15-1.48 1.15zM112.05 12a1.11 1.11 0 00.87.45 1.15 1.15 0 001.14-1.11 1.23 1.23 0 00-.31-.78 9.13 9.13 0 00-1.53-1.43 1.37 1.37 0 00-.74-.25 1.09 1.09 0 00-1.11 1 1.06 1.06 0 00.39.78 9.88 9.88 0 011.29 1.34zm14.61 11.24a1.08 1.08 0 00-.32-.8.94.94 0 00-.78-.22c-1.28.13-2.81.19-4.81.19-3.89 0-5.67-.39-6.8-1.49v-3.34c0-1.41-.65-2-2.1-2h-1.33a.91.91 0 00-.89 1 .92.92 0 00.89 1h.9c.42 0 .44.07.44.35v3.18A13.31 13.31 0 01110 22.7a1.1 1.1 0 00-.57.93 1.06 1.06 0 001.06 1 1.12 1.12 0 00.67-.24 13.45 13.45 0 001.94-1.79c1.45 1.34 3.49 1.81 7.72 1.81 1.87 0 3.43-.05 4.91-.16a1 1 0 00.93-1.01z"/><path class="cls-2" d="M115.62 12.28a.89.89 0 001-.84v-.79c0-.24 0-.33.48-.33h3c-.4.07-.75.31-.75.73v.13h-1.82a.82.82 0 000 1.64h1.82v.5h-1.55c-1.45 0-2 .51-2 1.74v2c0 1.23.6 1.74 2 1.74h1.55v.52h-3.79a.86.86 0 000 1.71h3.79v.44a.89.89 0 001 .82.88.88 0 001-.82v-.44h4.17a.86.86 0 000-1.71h-4.22v-.52h1.7c1.45 0 2-.51 2-1.74v-2c0-1.23-.6-1.74-2-1.74h-1.7v-.5h1.9a.82.82 0 000-1.64h-1.9v-.13a.77.77 0 00-.74-.73h3c.44 0 .48.09.48.33v.74a1 1 0 002 0v-1c0-1.33-.59-1.87-2.06-1.87h-7.26c-1.47 0-2.08.54-2.08 1.87v1a.9.9 0 00.98.89zm2 4.48h1.67v.56h-1.25c-.33 0-.42 0-.42-.3zm0-1.39v-.25c0-.23 0-.3.42-.3h1.25v.55zm5.44 1.39V17c0 .23 0 .3-.43.3h-1.33v-.56zm0-1.39h-1.8v-.55h1.37c.39 0 .43.07.43.3zM137 10.09l.13.26a1 1 0 101.87-.79 9.66 9.66 0 00-.67-1.2 1 1 0 00-.91-.49 1 1 0 00-1 .87.85.85 0 00.16.5c.12.27.26.56.42.85zm4.86 9.35h-3.6c.17-.37.31-.75.45-1.13h1.78c1.53 0 2.18-.49 2.18-1.63v-1.33c0-1.16-.65-1.65-2.18-1.65h-4.77c-1.52 0-2.17.49-2.17 1.65v1.33c0 1.14.65 1.63 2.17 1.63h.86c-.16.42-.31.78-.47 1.13h-1.68c-1.69 0-2.41.54-2.41 1.8v1.58c0 1.26.72 1.79 2.41 1.79h7.43c1.69 0 2.41-.53 2.41-1.79v-1.58c0-1.24-.72-1.8-2.41-1.8zm-5.81-2.71c-.46 0-.48-.09-.48-.32v-.77c0-.24 0-.32.48-.32h4.12c.45 0 .48.08.48.32v.77c0 .29-.12.32-.48.32zm6.11 4.76v1c0 .27-.06.39-.58.39h-6.88c-.42 0-.57-.06-.57-.39v-1c0-.26.05-.37.57-.37h6.88c.53 0 .58.1.58.37z"/><path class="cls-2" d="M146 14.21v-1.33c0-1.31-.72-1.9-2.35-1.9h-1.1a13.89 13.89 0 00.79-1.51.91.91 0 00.1-.44 1 1 0 00-1.09-1 1 1 0 00-.95.62 17.46 17.46 0 01-1.19 2.3H135a.89.89 0 00.35-.71 1 1 0 00-.14-.48 8.19 8.19 0 00-.77-1.2 1.1 1.1 0 00-.85-.42 1 1 0 00-1.07.91.77.77 0 00.17.49c.29.41.56.84.71 1.11a1.07 1.07 0 00.23.3h-1.12c-1.62 0-2.35.59-2.35 1.9v1.45a1.11 1.11 0 002.17 0v-1.09c0-.37 0-.46.62-.46h10.19c.56 0 .62.09.62.46v1a1 1 0 001.09.9 1 1 0 001.15-.9zm13.65 10.24c1.82 0 2.8-.8 3.24-2.69a25.24 25.24 0 00.65-4.7 2.09 2.09 0 00-.46-1.63 2.87 2.87 0 00-2.16-.63h-3.14A15.89 15.89 0 00158 13h6.81a.92.92 0 00.89-1 .92.92 0 00-.89-1h-6.26V8.74a1.11 1.11 0 00-2.18 0V11h-6a.91.91 0 00-.87 1 .91.91 0 00.87 1h5.42a12.29 12.29 0 01-2.6 7.33 11.66 11.66 0 01-2.78 2.3 1.08 1.08 0 00-.63 1 1.11 1.11 0 001.09 1.09 1.29 1.29 0 00.65-.2 12.47 12.47 0 005.88-7.73h3.54c.21 0 .34 0 .4.1s.08.17.08.36a21.14 21.14 0 01-.58 4.05c-.19.76-.55 1.07-1.23 1.07a5.53 5.53 0 01-1.37-.18h-.27a1.07 1.07 0 00-.17 2.12 8.15 8.15 0 001.85.14zM178 21.9a.91.91 0 00-.86-.94 1.57 1.57 0 00-.28 0c-.54.15-1.17.33-1.8.47v-3.64h1.86c.51 0 .73-.47.73-.91s-.22-.91-.73-.91h-1.86V15h.94a.78.78 0 00.73-.87c0-.44-.23-.88-.73-.88h-3.83a16.67 16.67 0 002.05-2.16 17.49 17.49 0 011.78 1.73 1.1 1.1 0 00.83.43 1 1 0 001-1 1.16 1.16 0 00-.32-.76 11.94 11.94 0 00-2.24-2 1 1 0 00.09-.41 1 1 0 00-1.07-.93 1 1 0 00-.86.46 15.85 15.85 0 01-3.31 3.66 1.09 1.09 0 00-.45.86 1 1 0 001.67.76l.09-.07a1.27 1.27 0 000 .28.79.79 0 00.71.87h.86v1h-2.3c-.47 0-.71.46-.71.91s.25.91.71.91h2.3v4.12c-.74.15-1.48.28-2.19.36a.92.92 0 00-.82.93 1 1 0 00.33.76.91.91 0 00.62.23h.13a35.52 35.52 0 006.29-1.41.88.88 0 00.64-.88z"/><path class="cls-2" d="M177.51 15a.92.92 0 00.86 1h2.51v8a1.1 1.1 0 002.18 0v-8H186a.92.92 0 00.85-1 .91.91 0 00-.85-1h-2.89V9a1.1 1.1 0 00-2.18 0v5h-2.51a.91.91 0 00-.91 1zm-1.82 3.56a9.68 9.68 0 01-.48 1.4 1.1 1.1 0 00-.06.32.73.73 0 00.78.71.86.86 0 00.83-.58 8.77 8.77 0 00.51-1.44.7.7 0 00-.12-.63.89.89 0 00-.71-.32.75.75 0 00-.75.54zm-3.47.2a.88.88 0 00-.8-.49.89.89 0 00-.92.81.81.81 0 00.09.35 11.09 11.09 0 01.6 1.62.81.81 0 00.8.57 1 1 0 00.79-.36.82.82 0 00.14-.7 9.13 9.13 0 00-.7-1.8zm25.3-5.16a45.34 45.34 0 005.09-.39 1.09 1.09 0 001-1.09 1.07 1.07 0 00-.34-.8 1.14 1.14 0 00-.89-.26 43.45 43.45 0 01-4.94.4 1.06 1.06 0 00-1.07 1.07 1.08 1.08 0 00.31.78 1.15 1.15 0 00.84.29zm-4.07-3.74a1.21 1.21 0 00-.92-.39 1.07 1.07 0 00-1.11.84 40.59 40.59 0 00-.84 8.33 36.14 36.14 0 00.3 4.46 1.09 1.09 0 001.15 1 1.2 1.2 0 00.89-.38 1 1 0 00.23-.83 36.58 36.58 0 01-.32-4.22 37.13 37.13 0 01.83-7.94 1 1 0 00-.21-.87zm10.84 10.62a1 1 0 00-.89-.21 14.61 14.61 0 01-2.69.27c-2.3 0-2.73-.42-2.88-1.44a1 1 0 00-1-.86 1.2 1.2 0 00-.87.37 1.08 1.08 0 00-.28.84c.21 2.29 1.71 3.27 5 3.27a16.05 16.05 0 003.13-.3 1.05 1.05 0 00.87-1.06 1.13 1.13 0 00-.39-.88zM20.75 51.39a1.17 1.17 0 00-.85.39 14.42 14.42 0 01-3.54 2.79 1.13 1.13 0 00-.64 1 1.07 1.07 0 001.07 1.07 1.35 1.35 0 00.62-.17 17.64 17.64 0 004.15-3.23 1.18 1.18 0 00.35-.79 1.14 1.14 0 00-1.16-1.06zm9.86 2.95a23.05 23.05 0 01-3.51-2.62 1.29 1.29 0 00-.88-.37 1.08 1.08 0 00-1.1 1 1.18 1.18 0 00.38.83 24.7 24.7 0 003.91 3.07 1.54 1.54 0 00.79.25 1.09 1.09 0 001.09-1.1 1.19 1.19 0 00-.68-1.06zm.39-5.63h-3.81v-3.06h2.6a1 1 0 000-2h-2.6V41c0-.6-.57-.87-1.09-.87s-1.1.26-1.1.87v2.69h-3.18V41c0-.6-.56-.87-1.09-.87s-1.09.27-1.09.87v2.69h-2.31a1 1 0 000 2h2.31v3.06h-3.72a1 1 0 000 2H31a1 1 0 000-2zm-6-3.06v3.06h-3.18v-3.06zm17.49 6.47a.85.85 0 00.42.69c.3.21.69.51 1 .79a1 1 0 00.64.24 1 1 0 001-1 1 1 0 00-.42-.78 6.48 6.48 0 00-1.13-.71 1.1 1.1 0 00-.53-.14 1 1 0 00-.98.91z"/><path class="cls-2" d="M51.33 47.79a.86.86 0 00-.9.75c-.14.82-.33.89-.54.89s-.78-.33-1.27-1a12.36 12.36 0 001.67-2.79 1.23 1.23 0 00.1-.43 1 1 0 00-1.87-.31 10.17 10.17 0 01-.93 1.77 12.77 12.77 0 01-.92-3H51A.87.87 0 0051 42h-1.6a.79.79 0 00.15-.46.81.81 0 00-.3-.63 5.63 5.63 0 00-1.09-.77 1 1 0 00-.46-.12.87.87 0 00-.87.84.8.8 0 00.41.66 6.57 6.57 0 01.66.48h-1.46c0-.43-.07-.87-.08-1.34a.93.93 0 00-1-.87 1.1 1.1 0 00-.78.3.82.82 0 00-.22.61c0 .45 0 .87.08 1.3h-5.26c-1.65 0-2.33.6-2.33 2.07v1.23a9.69 9.69 0 01-1.27 5.1 1.31 1.31 0 00-.17.6 1 1 0 001 1 1.12 1.12 0 001-.61 11.28 11.28 0 001.53-6v-1.12c0-.39.11-.58.69-.58h5a14.84 14.84 0 001.47 4.41 1.09 1.09 0 00.08.15.41.41 0 000 .09 11.09 11.09 0 01-1.81 1.5 1 1 0 00-.48.8.92.92 0 00.91.91 1.24 1.24 0 00.64-.21 15 15 0 001.79-1.45A3.67 3.67 0 0050 51.43c.91 0 2.06-.46 2.35-2.65a.82.82 0 00-.2-.66 1 1 0 00-.82-.33zM38 52.13a1 1 0 00-.92.56 8.55 8.55 0 01-1 1.68 1 1 0 00-.22.61 1 1 0 001.06 1 1.1 1.1 0 00.87-.44 10.64 10.64 0 001.13-2 1.14 1.14 0 00.1-.41 1 1 0 00-1.02-1z"/><path class="cls-2" d="M47.32 53.21a.94.94 0 00-1 .81c-.08.74-.21 1-2.53 1-2 0-2-.11-2-.38v-2a1.05 1.05 0 00-2.07 0v2.23c0 1.55.65 1.85 4.11 1.85 3.72 0 4.39-.73 4.57-2.45a.88.88 0 00-.23-.69 1.06 1.06 0 00-.85-.37zm2.75-.98a1.12 1.12 0 00-.77-.3 1 1 0 00-1 .93 1 1 0 00.28.64c.42.46.8.91 1.27 1.53a1 1 0 00.82.43 1 1 0 00.86-1.63 10.33 10.33 0 00-1.46-1.6zm-10.68-3.49c0 1 .49 1.45 1.74 1.45h1.71c1.08 0 1.72-.27 1.73-1.45v-.92c0-1-.48-1.45-1.73-1.45h-1.71c-1.25 0-1.74.4-1.74 1.45zm1.76-.15v-.65c0-.13 0-.18.26-.18h1.14c.26 0 .26.05.26.18v.65c0 .14 0 .19-.26.19h-1.14c-.22 0-.26-.06-.26-.19zm2.71-2.78a.79.79 0 000-1.55h-3.8a.79.79 0 000 1.55zm23.55 4.68a1.16 1.16 0 00-.94.49c-1.51 1.86-3 2.7-4.82 2.7-1.15 0-1.92-.51-1.92-3 0-3.41.27-7.33.38-8.85a1 1 0 00-.24-.74 1.22 1.22 0 00-.91-.36 1.05 1.05 0 00-1.14 1c-.11 1.52-.38 5.43-.38 8.94s1.3 5.18 4.21 5.18c2.55 0 4.72-1.17 6.65-3.57a1.2 1.2 0 00.27-.73 1.14 1.14 0 00-1.16-1.06zm14.95-8.39c-3.89.35-8.54.87-12.14 1.33a1.07 1.07 0 00-1 1.09 1.16 1.16 0 00.38.87 1.12 1.12 0 00.92.24l2.07-.31c1.82-.26 3.7-.54 5.24-.75a7.29 7.29 0 00-2.76 5.52c0 3.09 2.42 5.44 5.89 5.7h.11a1.14 1.14 0 00.8-.3 1.19 1.19 0 00.36-.87 1.14 1.14 0 00-1.06-1.16c-2.49-.3-3.82-1.49-3.82-3.43 0-1.37.35-3.38 3.36-5.1a6.29 6.29 0 012-.71 1.06 1.06 0 00.91-1.07 1 1 0 00-.34-.78 1.1 1.1 0 00-.92-.27zm11.15 8.32a1 1 0 00-1 .85c-.37 1.37-.73 1.56-1.07 1.56-.67 0-1.94-1.64-1.94-7.86 0-.55 0-.94.06-1.4v-.23a1 1 0 00-.26-.76 1.21 1.21 0 00-.9-.35 1.07 1.07 0 00-1.14 1c0 .48-.07 1-.07 1.85 0 8.4 2.33 10.16 4.29 10.16 1 0 2.35-.58 3.12-3.36a1 1 0 000-.34 1.09 1.09 0 00-1.09-1.12zm8.56-.48a14.4 14.4 0 00-3.52-5.54 1.29 1.29 0 00-.86-.36 1.08 1.08 0 00-1.12 1 1 1 0 00.33.74 15.72 15.72 0 013.1 4.86 1.1 1.1 0 001 .75 1.07 1.07 0 001.11-1 1.51 1.51 0 00-.06-.35zm9.66-2.66a1.09 1.09 0 00.38.83 1 1 0 00.61.21h.25a24.26 24.26 0 014.37-.46 1 1 0 001-1 1 1 0 00-1.07-1.07 25.06 25.06 0 00-4.65.48 1.07 1.07 0 00-.89 1.01zm6.15 5.93a16.09 16.09 0 01-2.41.18c-1.93 0-2.52-.31-2.64-1.39a.91.91 0 00-1-.84 1.15 1.15 0 00-.84.34 1 1 0 00-.27.79c.13 2.25 1.59 3.26 4.74 3.26a17.35 17.35 0 002.72-.2 1 1 0 00.91-1.05 1.13 1.13 0 00-.38-.86 1 1 0 00-.83-.23zm-5.41-9.03a1 1 0 00-1-1 1.43 1.43 0 00-.29 0l-1.41.33c.09-.55.18-1.19.27-2.05a1 1 0 00-.23-.76 1.17 1.17 0 00-.88-.36 1 1 0 00-1.09.91v.5c-.08.76-.15 1.41-.28 2.2a22.25 22.25 0 01-2.47.29 1.11 1.11 0 00-.69 1.89 1 1 0 00.77.24c.61 0 1.28-.1 2-.2a47.54 47.54 0 01-2.38 8.31 1.62 1.62 0 00-.11.54 1 1 0 001.09 1 1.29 1.29 0 001.19-.86 54.07 54.07 0 002.51-9.42c.76-.17 1.53-.37 2.28-.58a1 1 0 00.72-.98zm17.08 3.28a1.09 1.09 0 00.38.83 1 1 0 00.61.21 1.07 1.07 0 00.25 0 24.26 24.26 0 014.37-.46 1 1 0 001-1 1 1 0 00-1.07-1.07 24.26 24.26 0 00-4.65.49 1.05 1.05 0 00-.89 1zm3.38-5.83a.85.85 0 00-.86.79.73.73 0 00.21.48 12.18 12.18 0 011.32 1.52.81.81 0 00.68.38.83.83 0 00.82-.82.86.86 0 00-.18-.54 9.73 9.73 0 00-1.42-1.59.88.88 0 00-.57-.22zm2.77 11.76a16.09 16.09 0 01-2.41.18c-1.93 0-2.52-.31-2.64-1.39a.91.91 0 00-1-.84 1.15 1.15 0 00-.84.34 1 1 0 00-.27.79c.13 2.25 1.59 3.26 4.74 3.26a17.25 17.25 0 002.72-.2 1 1 0 00.91-1.05 1.13 1.13 0 00-.38-.86 1 1 0 00-.83-.23zM135.41 43a.87.87 0 00.71.37.8.8 0 00.81-.79 1 1 0 00-.21-.6 8.93 8.93 0 00-1.41-1.49.94.94 0 00-.6-.24.83.83 0 00-.86.76.73.73 0 00.23.51c.4.37.92.91 1.33 1.48zm-5.12 1.36a1 1 0 00-1-1 1.43 1.43 0 00-.29 0c-.46.12-.94.23-1.41.33.09-.55.18-1.19.27-2.05a1 1 0 00-.23-.76 1.17 1.17 0 00-.88-.36 1 1 0 00-1.09.91v.5c-.08.76-.15 1.41-.28 2.2a22.25 22.25 0 01-2.47.29 1.06 1.06 0 00-1 1.09 1.07 1.07 0 00.33.8 1 1 0 00.77.24c.61 0 1.28-.1 2-.2a47.54 47.54 0 01-2.38 8.31 1.62 1.62 0 00-.11.54 1 1 0 001.09 1 1.29 1.29 0 001.19-.86 54.07 54.07 0 002.51-9.42c.76-.17 1.53-.37 2.28-.58a1 1 0 00.7-.98zm23.45.14c-.52.1-1.12.19-1.69.27 0-1.18-.1-2.14-.18-3a1 1 0 00-1.09-.88 1.18 1.18 0 00-.86.33.92.92 0 00-.23.68c.09 1 .14 2 .18 3.1-.78.05-1.49.08-2.11.08h-1.42a1 1 0 00-.73.24 1.1 1.1 0 00-.31.77 1 1 0 001 1h1.55c.67 0 1.29 0 2.12-.09v1a9.41 9.41 0 01-2 6.42 1.14 1.14 0 00-.31.78 1.09 1.09 0 001.12 1.06 1.23 1.23 0 00.91-.43 11.69 11.69 0 002.47-7.83v-1.26c.62-.08 1.28-.19 2-.34a1 1 0 00.8-1 1 1 0 00-.36-.78 1 1 0 00-.86-.12zm-11.42-3.34a1.07 1.07 0 00-1.1.82 30.85 30.85 0 00-.91 7.49 23 23 0 00.44 4.72 1.11 1.11 0 001.12.89A1.09 1.09 0 00143 54a1.45 1.45 0 000-.29 24.19 24.19 0 01-.38-4.26 30.43 30.43 0 01.83-7 1.57 1.57 0 000-.28 1.06 1.06 0 00-1.13-1.01zm22.74 5.55a6.39 6.39 0 00-2 .34 40.37 40.37 0 003.39-3.85 1.53 1.53 0 00.35-.91 1.21 1.21 0 00-.41-.91 1.54 1.54 0 00-1.2-.31c-1.73.27-3.63.49-5.08.58a1 1 0 00-1 1 1.12 1.12 0 00.33.81.94.94 0 00.75.26c1.38-.11 2.5-.23 3.4-.36a40.26 40.26 0 01-5.9 5.87 1.1 1.1 0 00.62 2 1.33 1.33 0 00.81-.31 9.22 9.22 0 015.74-2.31c1.58 0 2.64.88 2.64 2.2a3 3 0 01-1.59 2.79 3.66 3.66 0 00-3.52-2.91 2.35 2.35 0 00-2.6 2.41c0 1.74 1.7 3 4.13 3 3.58 0 5.88-2.07 5.88-5.27 0-2.5-1.86-4.12-4.74-4.12zm-2.7 5.83c.67 0 1.17.53 1.47 1.57-1.24 0-2-.37-2-1a.56.56 0 01.53-.57zM188.82 43h-6.26v-2.26a1.11 1.11 0 00-2.18 0V43h-6a1 1 0 000 2h5.42a12.28 12.28 0 01-2.59 7.33 11.73 11.73 0 01-2.79 2.3 1.08 1.08 0 00-.62 1 1.1 1.1 0 001.09 1.09 1.29 1.29 0 00.64-.2 12.44 12.44 0 005.88-7.73h3.54c.21 0 .34 0 .4.1a.47.47 0 01.08.36 21.14 21.14 0 01-.57 4.05c-.2.76-.55 1.07-1.24 1.07a5.59 5.59 0 01-1.37-.18h-.27a1.07 1.07 0 00-.17 2.12 8.21 8.21 0 001.9.2c1.83 0 2.8-.8 3.25-2.69a25.24 25.24 0 00.65-4.7 2.13 2.13 0 00-.47-1.63 2.86 2.86 0 00-2.14-.69h-3.14c.11-.71.17-1.27.21-1.8h6.8a1 1 0 000-2z"/></g></g></svg>