<svg xmlns="http://www.w3.org/2000/svg" width="24" height="24" viewBox="0 0 24 24">
  <path id="icon_small_social_instagram" data-name="icon/small/social/instagram" d="M7,24a7.008,7.008,0,0,1-7-7V7A7.008,7.008,0,0,1,7,0H17a7.008,7.008,0,0,1,7,7V17a7.008,7.008,0,0,1-7,7ZM2.286,7.142v9.715a4.861,4.861,0,0,0,4.856,4.856h9.715a4.861,4.861,0,0,0,4.856-4.856V7.142a4.861,4.861,0,0,0-4.856-4.856H7.142A4.861,4.861,0,0,0,2.286,7.142Zm4,4.858A5.714,5.714,0,1,1,12,17.714,5.721,5.721,0,0,1,6.286,12Zm2.286,0A3.428,3.428,0,1,0,12,8.572,3.433,3.433,0,0,0,8.572,12Zm8-6A1.428,1.428,0,1,1,18,7.428,1.428,1.428,0,0,1,16.572,6Z" fill="#2c76a4"/>
</svg>
