<svg xmlns="http://www.w3.org/2000/svg" width="25.143" height="20.571" viewBox="0 0 25.143 20.571">
  <path id="icon_small_social_twitter" data-name="icon/small/social/twitter" d="M25.143,2.445a10.21,10.21,0,0,1-2.958.815A5.214,5.214,0,0,0,24.448.392a10.336,10.336,0,0,1-3.278,1.261A5.112,5.112,0,0,0,14.982.612a5.231,5.231,0,0,0-2.6,5.773A14.644,14.644,0,0,1,1.755.961a5.2,5.2,0,0,0,1.589,6.93,5.162,5.162,0,0,1-2.329-.647v.067A5.19,5.19,0,0,0,5.154,12.4a5.063,5.063,0,0,1-1.369.179,5.392,5.392,0,0,1-.96-.089,5.175,5.175,0,0,0,4.812,3.6,10.345,10.345,0,0,1-6.4,2.221A9.08,9.08,0,0,1,0,18.237a14.541,14.541,0,0,0,14.922.528A14.868,14.868,0,0,0,22.582,5.8c0-.223,0-.458-.011-.67A10.583,10.583,0,0,0,25.143,2.445Z" transform="translate(0 0)" fill="#2c76a4"/>
</svg>
